<?xml version="1.0" standalone="no"?>
<!DOCTYPE svg PUBLIC "-//W3C//DTD SVG 1.1//EN" "http://www.w3.org/Graphics/SVG/1.1/DTD/svg11.dtd" >
<svg xmlns="http://www.w3.org/2000/svg">
<metadata>
This is a custom SVG webfont generated by Font Squirrel.
Copyright   : Copyright c1994 STAR Retrieval Systems All Rights Reserved
</metadata>
<defs>
<font id="webfontbZO6f6kD" horiz-adv-x="1347" >
<font-face units-per-em="2048" ascent="1638" descent="-410" />
<missing-glyph horiz-adv-x="671" />
<glyph unicode=" "  horiz-adv-x="671" />
<glyph unicode="&#x09;" horiz-adv-x="671" />
<glyph unicode="&#xa0;" horiz-adv-x="671" />
<glyph unicode="!" horiz-adv-x="921" d="M145 1270v90l316 -6l317 6v-88l-129 -25l-96 -809h-184l-95 809zM270 145q0 71 56 123q53 51 133 51t133 -51q57 -53 57 -122.5t-57 -127.5q-55 -49 -131 -49q-82 0 -135 51q-56 53 -56 125z" />
<glyph unicode="&#x22;" horiz-adv-x="958" d="M188 1284q0 43 37 72q39 29 82 28q45 0 82 -30.5t37 -69.5l-6 -129l-35 -440q-8 -55 -77.5 -55.5t-80.5 55.5zM510 1284q0 45 35 72q39 29 82 28q47 0 84 -30q35 -29 34 -70l-4 -129l-34 -440q-9 -55 -80 -56q-70 0 -78 56z" />
<glyph unicode="#" d="M205 391v160h178l35 254h-158v160h180l56 389h166l-54 -389h215l54 389h165l-53 -389h156v-160h-180l-33 -254h158v-160h-183l-51 -391h-168l55 391h-215l-55 -391h-166l53 391h-155zM551 551h215l35 254h-215z" />
<glyph unicode="$" d="M63 135l103 301l94 -14l2 -119q63 -35 182 -82q104 -41 230 -41q109 0 178 45q72 47 72 123q0 102 -90 152q-84 47 -242 88q-272 70 -385 149.5t-113 220.5q0 170 162 271q74 45 164 74q86 27 194 26v199l152 28v-227q45 0 98 -4q35 -2 101 -16q86 -12 129 -23 q70 -16 120 -33l-45 -139l-32 -137l-95 12l-12 105q-2 2 -9 4t-18.5 6t-21.5 8q-25 8 -42 14.5t-24.5 8.5t-19.5 6q-111 33 -236 33q-41 0 -86 -9q-35 -6 -63 -26q-53 -33 -53 -103q0 -88 133 -135l235 -76q319 -90 387 -178q76 -88 76 -244q0 -176 -182 -284 q-129 -72 -340 -101v-249l-152 -33v278q-152 0 -284 33q-115 29 -267 88z" />
<glyph unicode="%" horiz-adv-x="1953" d="M25 991q0 174 122.5 284.5t309.5 110.5q184 0 309 -112q121 -109 121 -289q0 -168 -121 -276.5t-307 -108.5q-203 0 -318 102q-116 105 -116 289zM268 1001q0 -111 53.5 -182t141.5 -71q90 0 135 59t45 169.5t-53 188.5q-51 76 -129 76q-88 0 -139 -67q-54 -71 -54 -173z M307 -59l1079 1456h254l-1065 -1442zM1067 360q0 172 123 283q125 113 307 113q184 0 309 -113t125 -287q0 -172 -123 -280q-125 -109 -309 -109q-201 0 -315 103q-117 104 -117 290zM1309 369q0 -111 53 -182.5t141 -71.5t137 59q45 59 46 172q0 109 -53.5 186.5 t-131.5 77.5q-88 0 -139 -67q-53 -70 -53 -174z" />
<glyph unicode="&#x26;" horiz-adv-x="1775" d="M76 395q0 162 96 264q84 88 256 148l-12 41q-31 83 -31 129q0 182 147 295q150 115 365 114q137 0 238 -63q102 -66 102 -180q0 -178 -150 -260q-98 -55 -286 -105q109 -125 209 -205q74 -68 176 -141l18 31q33 51 51 117q16 55 17 135h-92l-15 90l346 164l7 -92l-2 -37 q0 -57 -19 -144q-12 -76 -37 -145q-23 -59 -69 -135l-52 -76q127 -68 295 -129l113 18l47 -94l-350 -164q-16 6 -32.5 13.5l-26 11.5t-13.5 6q-43 18 -125 61l-121 72q-89 -68 -196 -110q-139 -57 -299 -58q-264 0 -408 131q-147 135 -147 297zM418 471q0 -135 94 -219 q90 -82 219 -82q39 0 82 6q31 4 82 23q25 8 39 14t35 18q-133 90 -262 215q-137 133 -193 209q-31 -23 -53 -51q-43 -55 -43 -133zM653 1053q0 -61 54 -152q86 29 143 64q94 55 94 133q0 37 -8 53q-10 23 -29 35q-33 27 -96 26q-68 0 -109 -41q-49 -40 -49 -118z" />
<glyph unicode="'" horiz-adv-x="673" d="M221 1284q0 43 37 72q39 29 82 28q45 0 82 -30.5t37 -69.5l-6 -129l-35 -440q-8 -55 -78 -55.5t-78 55.5z" />
<glyph unicode="(" horiz-adv-x="780" d="M156 440q0 322 147.5 574t284.5 348l104 -80q-72 -82 -151.5 -317.5t-79.5 -524.5q0 -285 80 -522q78 -231 151 -317l-104 -80q-133 96 -282.5 345.5t-149.5 573.5z" />
<glyph unicode=")" horiz-adv-x="780" d="M88 -399q39 45 74 118q35 72 76 199q84 246 84 522q0 283 -84 525q-29 88 -78 194q-39 84 -72 123l105 80q135 -94 284 -346q150 -250 150 -576q0 -313 -150 -569q-145 -250 -284 -350z" />
<glyph unicode="*" horiz-adv-x="993" d="M150 1026q0 68 16 121q12 43 55 98l24.5 -19.5t18.5 -15.5q12 -8 43 -26q63 -31 78 -41l70 -43l-37 166q-4 29 -10 45l-19 55q68 20 115 20q49 0 114 -20l-28 -100q-2 -23 -35 -166q45 29 86 51q43 25 59 33q43 20 88 61q20 -31 54 -104q18 -49 18 -115h-55q-35 0 -53 -4 l-166 -18l123 -111q10 -10 28 -25l19 -14q6 -4 14 -10l23 -17q-39 -53 -82 -84q-33 -25 -103 -51q-20 72 -35 99l-69 155l-68 -155q-8 -16 -14 -35l-21 -64q-63 23 -106 51l-29 25q-10 8 -51 59l47 35l37 31l125 111l-170 18z" />
<glyph unicode="+" horiz-adv-x="1148" d="M90 389v189h393v387h189v-387h389v-189h-389v-393h-189v393h-393z" />
<glyph unicode="," horiz-adv-x="671" d="M127 -334q41 121 53 178q16 72 17 138q12 123 12 280l172 19l164 26q0 -188 -72 -387q-74 -203 -211 -338z" />
<glyph unicode="-" horiz-adv-x="888" d="M96 453q27 39 51 96q14 23 21 41q20 51 20 55l605 2q-27 -43 -50 -96l-24 -49q-6 -10 -17 -47z" />
<glyph unicode="." horiz-adv-x="671" d="M150 147q0 70 55 125q53 53 131 54q72 0 129 -54q55 -51 55 -125q0 -72 -55 -127q-49 -51 -129 -51q-74 0 -131 51q-55 55 -55 127z" />
<glyph unicode="/" horiz-adv-x="1169" d="M33 -70l829 1485l299 43l-831 -1483z" />
<glyph unicode="0" d="M76 676q0 317 159.5 513.5t438.5 196.5q276 0 440 -194.5t164 -516t-162 -514t-442 -192.5q-274 0 -436 192.5t-162 514.5zM438 676q0 -233 64 -389q61 -152 180 -152q113 0 172 152q59 154 59 389q0 119 -16 221q-16 98 -49 174q-61 150 -178 150q-113 0 -172.5 -149.5 t-59.5 -395.5z" />
<glyph unicode="1" d="M324 1167v113q100 12 186 39q35 8 86 29q53 20 86 38h190l-12 -294v-697l4 -200q0 -35 2 -54q4 -31 6 -35l140 -24v-88l-336 6l-320 -6v88l129 24l11 289v443l-19 329h-153z" />
<glyph unicode="2" d="M16 100l177 138l94 77q41 35 116 107l113 113q68 68 156 200q90 137 90 277q0 90 -60 149q-57 57 -151 58q-72 0 -141.5 -35t-87.5 -54l-11 -118l-94 -13q-8 92 -45 201q-4 16 -12 43t-10.5 31t-3.5 11t-5 15q27 12 60 23q76 20 110 31q137 33 305 32q225 0 379 -112 q150 -111 150 -291q0 -96 -29 -166q-33 -78 -94 -145q-43 -47 -115 -119q-51 -49 -96 -84l-86 -66q-14 -12 -43 -31.5t-39 -25.5l-170 -115l580 25l71 127l99 -27l-52 -184q-33 -104 -41 -178l-540 6l-537 -6z" />
<glyph unicode="3" d="M25 205l299 201l67 -66l-49 -92q27 -45 82 -78q59 -35 156 -35q113 0 196.5 94.5t83.5 216.5q0 104 -71.5 166t-186.5 62l-96 -6q-37 0 -47 -2l-43 -15l-29 140q152 29 244 92q100 70 100 188q0 59 -41 105q-39 43 -112 43q-66 0 -125 -27l-41 -18q-25 -10 -37 -23v-96 l-101 -19q-20 98 -59 185l-33 84q18 10 142 47q121 33 294 32q217 0 346.5 -86t129.5 -237q0 -92 -68 -154q-70 -63 -219 -102l49 2q168 0 266 -98q109 -113 109 -248q0 -206 -191 -350q-186 -141 -473 -142q-218 0 -344 74q-120 70 -198 162z" />
<glyph unicode="4" d="M49 494l332 495q8 14 104 166l105 168l102 170h189l18 -31l-162 -217l-157 -225l-291 -465h418v510l245 127l95 -64l-11 -256v-317h23q35 0 45 2q12 2 45 12l51 17l49 -51l-96 -156h-117v16l11 -289l118 -24v-88l-295 6l-372 -6v88l194 24l4 89q10 102 11 200v-16h-590z " />
<glyph unicode="5" d="M72 274l274 168l62 -75l-56 -74q29 -53 88 -105q63 -53 162 -53q135 0 207 72q74 68 74 201q0 127 -70 196q-72 72 -199 72q-86 0 -141 -27q-70 -25 -131 -78l-168 91l72 329l59 334l53 37l363 -8h43h33h28h23h22q43 0 64 2q33 4 55 8q51 4 76 8q57 8 84 14l41 -45 l-84 -94q-35 -41 -76 -106l-569 -8l-78 -342q49 27 78 36l90 31q86 23 180 23q240 0 377 -117q139 -117 139 -324q0 -227 -170 -348q-172 -123 -463 -123q-227 0 -348 84q-124 88 -194 221z" />
<glyph unicode="6" d="M100 530q0 338 258 613q260 276 670 401l62 -125q-326 -139 -519 -407q-96 -135 -129 -285q34 34 61.5 55.5t55.5 36.5q111 55 250 55q219 0 342 -120q125 -123 125 -326q0 -211 -162 -336q-160 -123 -418 -123t-426 144q-170 145 -170 417zM438 426q0 -135 80 -213 q82 -78 184 -78q98 0 160 74t62 188q0 119 -72 203t-176 84q-84 0 -160 -63q-78 -66 -78 -195z" />
<glyph unicode="7" d="M172 1036q23 66 33 103l18 61q2 6 7.5 29.5t9.5 42.5q6 20 16 88l465 -6q115 0 215 2t240 2l36 -66q-164 -250 -301 -602q-66 -174 -104 -356q-37 -174 -37 -359q-127 -18 -201 -45q-63 -23 -145 -65l-94 29q100 463 266 765q162 295 307 469q-63 8 -102 11q-35 2 -105 2 l-92 -2q-68 0 -135 -6q-66 -6 -137 -19l-62 -113z" />
<glyph unicode="8" d="M100 350q0 125 82 225q80 98 236 121q-129 55 -193 144q-57 84 -57 172q0 166 151.5 270t376.5 104q213 0 346 -86q131 -86 132 -235q0 -104 -70 -186q-74 -86 -223 -107q193 -45 278 -147q88 -104 88 -230q0 -197 -161.5 -311.5t-419.5 -114.5q-250 0 -406 103 q-160 104 -160 278zM393 371q0 -98 76 -168q74 -68 186 -68q94 0 162 55q66 53 66 132q0 125 -117 188l-129 65q-33 14 -66 33q-68 -27 -125 -88q-53 -63 -53 -149zM518 1067q0 -72 74 -125t151 -88q18 8 58 37q10 6 20 14t14.5 12.5t6.5 4.5q53 47 53 127q0 70 -61 118 q-63 51 -148 52q-70 0 -121 -45q-47 -41 -47 -107z" />
<glyph unicode="9" d="M76 895q0 233 155 362q158 129 431 129q258 0 421.5 -149.5t163.5 -423.5q0 -319 -252 -596q-254 -279 -676 -410l-57 125q328 147 516 408q88 123 133 293q-66 -66 -120 -96q-102 -57 -252 -58q-190 0 -328 121q-135 120 -135 295zM426 952q0 -121 67.5 -200.5 t180.5 -79.5q86 0 162 63q31 27 55 82q20 43 20 103q0 141 -75 219q-78 80 -183 80q-100 0 -168 -74q-59 -76 -59 -193z" />
<glyph unicode=":" horiz-adv-x="671" d="M150 147q0 70 55 125q53 53 131 54q72 0 129 -54q55 -51 55 -125q0 -72 -55 -127q-49 -51 -129 -51q-74 0 -131 51q-55 55 -55 127zM150 721q0 70 55 125q53 53 131 53q72 0 129 -53q55 -51 55 -125q0 -72 -55 -127q-49 -51 -129 -51q-74 0 -131 51q-55 55 -55 127z" />
<glyph unicode=";" horiz-adv-x="671" d="M127 -334q41 121 53 178q16 72 17 138q12 123 12 280l172 19l164 26q0 -188 -72 -387q-74 -203 -211 -338zM150 721q0 70 55 125q53 53 131 53q72 0 129 -53q55 -51 55 -125q0 -72 -55 -127q-49 -51 -129 -51q-74 0 -131 51q-55 55 -55 127z" />
<glyph unicode="&#x3c;" horiz-adv-x="1148" d="M90 401v156l969 426v-192l-715 -312l715 -311v-193z" />
<glyph unicode="=" horiz-adv-x="1148" d="M90 184v187h967v-187h-967zM90 588v186h967v-186h-967z" />
<glyph unicode="&#x3e;" horiz-adv-x="1148" d="M90 -25v193l717 311l-717 312v192l969 -426v-156z" />
<glyph unicode="?" horiz-adv-x="1028" d="M43 1307q35 16 162 49q123 31 266 30q250 0 375 -94q127 -96 127 -225q0 -174 -125 -268q-126 -95 -320 -135l-30 -172l-170 -46l-76 310l29 24l43 29q84 10 139 31q53 20 92 59q74 68 74 150q0 65 -43 116q-43 53 -103 54q-86 0 -155.5 -31t-87.5 -49l6 -103l-101 -24 q-31 127 -69 215zM195 145q0 70 57 123q53 51 131 51q80 0 133 -51q57 -53 57 -123q0 -72 -55 -127q-55 -49 -133 -49q-80 0 -133 51q-57 53 -57 125z" />
<glyph unicode="@" horiz-adv-x="1148" d="M45 512q0 209 160 368.5t395 159.5q221 0 365 -127q141 -127 141 -297q0 -160 -94 -278q-92 -117 -197 -117q-40 0 -80 25q-39 25 -57 86q-20 -35 -72 -72q-47 -35 -106 -35q-51 0 -99 47q-43 46 -43 142q0 123 92.5 250t221.5 127q20 0 51 -25q23 -14 39 -66l14 62h119 l-100 -387l-2 -25q0 -23 12 -33q12 -9 24 -12q16 -4 23 -6q41 0 92 98.5t51 225.5q0 125 -112 219q-115 96 -283 96q-158 0 -272.5 -127t-114.5 -305q0 -182 121 -307q120 -123 264 -123q109 0 195 26q25 8 73 27q37 14 54 29l12 -82q-14 -14 -45 -33q-23 -14 -76 -35 q-94 -35 -199 -35q-246 0 -407 162q-160 160 -160 377zM494 422q0 -45 22 -72q23 -20 51 -20q66 0 111 88q47 90 47 151q0 14 -4 43t-8 43q-12 33 -33 33q-76 0 -133 -88q-31 -51 -41 -88q-12 -43 -12 -90z" />
<glyph unicode="A" horiz-adv-x="1525" d="M-14 -6v88l110 24q129 287 248 603q27 70 72 198l69 201l70 203q49 8 78 16q59 16 63 19l148 40l125 -32l98 -314q27 -84 109 -311q109 -291 249 -623l115 -24v-88l-317 6l-316 -6v90l119 22l-119 396h-442l-115 -396l115 -22v-90l-238 6zM518 659h330l-166 512z" />
<glyph unicode="B" horiz-adv-x="1525" d="M55 -6v88l121 24q14 27 14 130l5 198v486l-5 190q0 102 -14 137l-121 23v90l316 -6l536 10q209 0 315.5 -71.5t106.5 -225.5q0 -96 -69 -184q-68 -86 -263 -109q246 0 357 -84q115 -86 114 -229q0 -231 -163.5 -352t-456.5 -121l-477 12zM547 823l127 -6q133 0 209 51 q72 47 71 156q0 82 -59 123t-170 41l-178 -12v-353zM549 190l141 -22q68 -10 133 -10q106 0 188.5 75.5t82.5 186.5q0 121 -86 180q-88 59 -252 59l-207 -10v-459z" />
<glyph unicode="C" horiz-adv-x="1490" d="M78 666q0 309 239 514q242 207 603 206q84 0 149 -6q90 -8 131 -18q102 -18 213 -57q-20 -47 -55 -166q-18 -74 -19 -162h-94l-22 115q-57 35 -152 63q-39 12 -84 21q-49 8 -90 8q-205 0 -324 -125q-121 -127 -120 -334q0 -233 141 -374.5t364 -141.5q121 0 218 45 q94 45 196 121l103 -127q-141 -135 -314 -209q-86 -35 -180 -53q-96 -18 -195 -19q-303 0 -505.5 197t-202.5 502z" />
<glyph unicode="D" horiz-adv-x="1703" d="M76 -6v88l119 24q14 27 14 130l6 198v486l-6 198q0 102 -14 129l-119 23v90l315 -6l547 10q330 0 508 -160q176 -158 176 -473q0 -313 -217 -528t-506 -215l-508 12zM571 205l115 -27q82 -8 84 -8h45q109 0 180 35q76 37 138 110q57 68 90 172q29 88 28 224 q0 209 -114.5 342t-305.5 133q-43 0 -63 -2q-45 -4 -66 -8q-43 0 -59 -5q-35 -8 -72 -22v-944z" />
<glyph unicode="E" d="M55 -6v88l121 24q8 23 10 64q4 61 4 66l5 198v486l-5 198q0 47 -4 84q-2 23 -10 45l-121 23v90l316 -6h815l24 -142q4 -20 9.5 -37.5t9.5 -33.5q12 -45 20 -66l-88 -37l-61 95q-20 12 -148 24q-133 12 -305 12h-90l-8 -350l256 6q63 0 86 2q25 2 43 9l35 94h88l-6 -189 l6 -190h-88l-35 96l-121 6l-264 6v-100l8 -379h127q201 0 317 19q139 23 162 30l64 113l94 -35l-76 -307h-874z" />
<glyph unicode="F" horiz-adv-x="1241" d="M55 -6v88l121 24q8 23 10 64q4 61 4 66l5 198v486l-5 198q0 47 -4 84q-2 23 -10 45l-121 23v90l316 -6h786l12 -64q2 -8 7.5 -34.5t9.5 -43.5q8 -37 14 -61q14 -53 23 -76l-90 -37l-60 95q-18 12 -110 20q-94 8 -170 12q-98 4 -175 4h-61l-8 -350v-35l8 -2 q25 0 139.5 4.5t124.5 4.5l131 8l33 94h88l-4 -188l4 -189h-88l-33 94l-123 8l-139 5q-27 0 -58.5 1t-49 2t-25.5 1h-8v-193q0 -4 4 -106q2 -51 2 -92q0 -43 6 -78q6 -31 12 -52l162 -24v-88l-364 6z" />
<glyph unicode="G" horiz-adv-x="1632" d="M57 676q0 298 252 504q254 207 619 206q84 0 149 -6q70 -6 131 -20q113 -20 209 -64q-20 -70 -41 -161l-26 -158l-90 4l-21 117q-39 23 -76 35q-55 18 -90 28q-100 23 -178 23q-217 0 -340 -127t-123 -357q0 -244 125 -387t340 -143q68 0 84 2q27 4 66 12q33 6 53 15 q31 12 43 18v47v39v31v26v21v51q0 27 -6 60l-7 106l-133 29v88l287 -6l291 6v-88l-82 -29l-10 -342l88 -72q-71 -49 -148 -86q-100 -49 -172 -73q-170 -57 -377 -58q-356 0 -585 199q-232 201 -232 510z" />
<glyph unicode="H" horiz-adv-x="1632" d="M55 -6v88l121 24q8 23 10 64q4 61 4 66l5 198v486l-5 198q0 47 -4 84q-2 23 -10 45l-121 23v90l314 -6l317 6v-90l-119 -23q-8 -18 -10 -47q-4 -45 -4 -82l-6 -198v-101h538l2 101q0 4 -4 106q-2 51 -2 92t-4 82q-4 33 -8 47l-123 23v90l316 -6l315 6v-90l-121 -23 l-12 -129l-6 -198v-486l6 -198q0 -35 4 -80q4 -37 8 -50l121 -24v-88l-315 6l-316 -6v88l123 24q6 16 8 44q4 41 4 86q0 68 2 104q2 57 4 94v211h-538l-2 -211l6 -198q0 -66 2 -84q2 -20 12 -46l119 -24v-88l-317 6z" />
<glyph unicode="I" horiz-adv-x="780" d="M76 -6v88l119 24q8 23 10 64q4 61 4 66l6 198v486l-6 198q0 47 -4 84q-2 23 -10 45l-119 23v90l315 -6l318 6v-90l-121 -23q-8 -18 -10 -47q-4 -45 -5 -82l-6 -198v-486l6 -198q0 -47 5 -84q2 -27 10 -46l121 -24v-88l-318 6z" />
<glyph unicode="J" horiz-adv-x="710" d="M-111 -256q117 74 203 197q84 121 84 350v629l-6 198q0 66 -2 84q-2 23 -10 45l-121 23v90l315 -6l318 6v-90l-121 -23q-2 -6 -10 -45q-6 -31 -7 -84l-2 -198v-697q0 -227 -168 -373q-162 -141 -399 -225z" />
<glyph unicode="K" horiz-adv-x="1525" d="M55 -6v88l121 24q8 23 10 64q4 61 4 66l5 198v486l-5 198q0 47 -4 84q-2 23 -10 45l-121 23v90l314 -6l317 6v-90l-119 -23q-6 -16 -12 -45q-4 -20 -4 -84l-4 -198v-103l504 430l-72 23v90l264 -6l260 6v-90l-98 -21l-625 -436l338 -350q193 -195 375 -352l63 -27v-90 l-210 -8l-213 -17l-62 74l-524 590v-199q0 -63 2 -116.5t2 -81.5q0 -49 4 -86q3 -28 12 -44l119 -24v-88l-317 6z" />
<glyph unicode="L" horiz-adv-x="1241" d="M53 -6v88l121 24q8 23 10 64q4 61 4 66l5 198v486l-5 198q0 35 -4 80q-2 31 -10 49l-121 23v90l316 -6l358 6v-90l-156 -23l-16 -129l-6 -198v-361l8 -379h127q104 0 158 4q90 6 139 15q119 20 143 30l64 115l94 -39l-47 -153q-4 -20 -9 -38t-7 -32q-12 -57 -15 -82h-835 z" />
<glyph unicode="M" horiz-adv-x="1953" d="M55 -6v88l117 24q6 16 12 66q6 53 6 127l7 401l6 271l-8 168q0 102 -9 108l-96 23v90l334 -6h221l330 -965l332 965h211l352 6v-90l-121 -23l-10 -129q0 -12 -4 -102t-4 -96v-486q0 -61 2 -94q0 -4 2 -43t4 -61q0 -49 4 -86q3 -28 12 -44l143 -24v-88l-329 6l-305 -6v88 l122 24q2 4 9 39q4 23 4 91l8 198l-8 684l-398 -1124h-210l-392 1124l-6 -418q0 -70 4 -221q0 -31 1 -93t3 -87q0 -96 5 -129q6 -47 12 -64l117 -24v-88l-240 6z" />
<glyph unicode="N" horiz-adv-x="1562" d="M63 -6v88l123 24q6 16 9 44q4 41 4 86q0 68 2 104q2 57 4 94v486q0 55 -2 106q0 20 -1 43t-2 34t-1 15q0 41 -4 82q-4 33 -9 47l-123 23v90l295 -6h154l121 -183l203 -299l321 -479v527l-4 198q0 102 -14 129l-123 23v90l241 -6l240 6v-90l-123 -23q-2 -6 -8 -53 q-4 -29 -4 -76l-6 -198v-940h-287l-666 974v-520v-28.5v-39.5v-49l3 -81q0 -35 4 -80q2 -25 12 -50l125 -24v-88l-244 6z" />
<glyph unicode="O" horiz-adv-x="1740" d="M78 676q0 330 219 520q218 190 577 190q362 0 574 -190q213 -190 213 -520q0 -322 -221 -518q-215 -190 -578 -191q-354 0 -569 190.5t-215 518.5zM451 676q0 -223 116.5 -370.5t300.5 -147.5q180 0 301 147q119 145 119 371q0 229 -117 373q-117 145 -303 145 q-184 0 -300.5 -147.5t-116.5 -370.5z" />
<glyph unicode="P" horiz-adv-x="1419" d="M74 -6v88l119 24q8 23 10 64q4 61 4 66l6 198v486l-6 198q0 35 -4 80q-2 31 -10 49l-119 23v90l315 -6l535 10q221 0 340 -94q121 -96 120 -287q0 -113 -38.5 -197t-120.5 -153q-156 -131 -414 -131h-41h-29q-29 4 -30 4l-97 14l56 172l104 -8q109 0 176 68q61 72 62 192 q0 119 -72 178q-76 63 -199 64l-92 -6q-2 0 -17.5 -2t-23.5 -4l-41 -13v-469v-172v-86q0 -55 2 -106q0 -20 1 -43t2 -34t1 -15q0 -43 7 -78q6 -31 12 -52l170 -24v-88l-373 6z" />
<glyph unicode="Q" horiz-adv-x="1738" d="M78 676q0 330 219 520q218 190 577 190q362 0 574 -190q213 -190 213 -520q0 -322 -221 -518q-106 -94 -246 -144q-133 -47 -311 -47q33 -14 155 -49q252 -61 492 -82l72 74l81 -60q-47 -70 -69 -108l-53 -98l-41 -84q-238 66 -463 145q-188 66 -375 160 q-317 158 -436 340q-168 174 -168 471zM451 676q0 -223 116.5 -370.5t300.5 -147.5q180 0 301 147q119 145 119 371q0 229 -117 373q-117 145 -303 145q-184 0 -300.5 -147.5t-116.5 -370.5z" />
<glyph unicode="R" horiz-adv-x="1490" d="M53 -6v88l121 24q8 23 10 64q4 61 4 66l5 198v486l-5 198q0 35 -4 80q-2 31 -10 49l-121 23v90l316 -6l510 10q236 0 354.5 -88t118.5 -268q0 -115 -86 -217q-86 -100 -265 -136l469 -546l66 -27l2 -88q-72 0 -119 -2t-73 -2l-185 -17l-43 -6l-164 228q-23 31 -40 56 l-30.5 44.5t-37.5 50.5l-197 260h-102v-172l6 -198q0 -66 2 -84q2 -20 12 -46l119 -24v-88l-317 6zM549 784l125 -10q145 0 225 55q78 53 78 172q0 104 -64 144q-66 41 -202 41h-39q-8 0 -45 -4q-31 0 -41 -2q-31 -6 -37 -9v-387z" />
<glyph unicode="S" horiz-adv-x="1312" d="M41 96l129 342l96 -22v-121q14 -8 76 -41q16 -8 84 -39q70 -29 125 -43t121 -14q104 0 174 59q68 57 67 150q0 80 -75 114q-43 20 -103 37q-68 18 -149 37q-218 52 -357 154q-70 51 -104.5 114.5t-34.5 141.5q0 186 162 303q166 119 414 118q88 0 157 -6q98 -8 146 -18 q137 -23 260 -59l-64 -164q-23 -66 -51 -162l-86 16v92q-10 16 -39 33q-16 10 -86 35q-100 41 -229 41q-102 0 -161.5 -41t-59.5 -117q0 -72 100 -106l266 -74q254 -72 355 -178q102 -109 102 -275q0 -195 -186.5 -315.5t-473.5 -120.5q-158 0 -309 35q-137 31 -266 94z" />
<glyph unicode="T" horiz-adv-x="1351" d="M-25 1036l43 156q18 70 21 86q14 72 14 76h1245q10 -59 15 -80l20 -82l43 -156l-94 -35l-70 132q-18 10 -112 22q-98 12 -236 12l-14 -194v-539q0 -14 4 -108l4 -56.5t2 -33.5q0 -66 2 -84q2 -27 10 -46l144 -24v-88l-342 6l-340 -6v88l143 24q4 10 6 35q8 84 11 95 l4 198v539l-13 194h-106q-45 0 -127 -14q-92 -8 -115 -20l-67 -132z" />
<glyph unicode="U" horiz-adv-x="1562" d="M53 1270v90l316 -6l325 6v-90l-127 -23q-6 -16 -12 -45q-4 -20 -4 -84l-4 -198v-357q0 -207 67 -305q70 -100 232 -100q156 0 235 86q39 41 62 104q23 61 22 141v181q0 37 -3 118.5t-3 114.5q0 39 -1 77t-2 56.5t-1 22.5q0 92 -2 123q-4 51 -8 65l-131 23v90l254 -6 l241 6v-90l-118 -23q-4 -10 -11 -61q-6 -49 -6 -127l-2 -389v-154q0 -260 -162 -405q-158 -143 -450 -144q-268 0 -416 121q-152 123 -151 340v492l-5 198q0 35 -4 80q-2 31 -10 49z" />
<glyph unicode="V" horiz-adv-x="1490" d="M-18 1270v90l319 -6l303 6v-90l-104 -23l53 -182q29 -102 96 -311l82 -246l88 -244l166 492l156 491l-94 23v90l235 -6l229 6v-90l-129 -23q-23 -47 -90 -211l-86 -211l-84 -211l-112 -307l-113 -327h-315q-78 240 -224 636q-63 178 -118 308l-140 323z" />
<glyph unicode="W" horiz-adv-x="2023" d="M-18 1270v90l305 -6l293 6v-90l-95 -23q8 -39 21.5 -114.5t19.5 -102.5q16 -86 54 -219l57 -217q57 -205 63 -225q43 152 66 245l63 250l117 496l135 -6l131 6l54 -248q27 -117 61 -250q59 -242 148 -495l112 442l37 164l62 274l-97 23v90l232 -6l221 6v-90l-121 -23 q-111 -309 -207 -631l-178 -636h-289l-258 954l-129 -479l-108 -475h-289l-84 321q-10 39 -88 313q-88 324 -191 635z" />
<glyph unicode="X" horiz-adv-x="1490" d="M-16 -6v88l137 20l123 142l116 141l228 281l-434 581l-123 23v90l325 -6l310 6v-90l-76 -23l213 -350l67 86l62 86l23.5 34.5l17.5 26.5q6 8 69 117l-61 23v90l242 -6l233 6v-90l-145 -23l-404 -493l479 -648l123 -24v-88l-319 6l-318 -6v88l78 24l-262 412l-55 -72 q-27 -35 -92 -127l-131 -213l79 -24v-88l-251 6z" />
<glyph unicode="Y" horiz-adv-x="1419" d="M-18 1270v90l311 -6l299 6v-90l-88 -23l284 -545l285 545l-88 23v90l234 -6l221 6v-90l-117 -23l-440 -680v-133q0 -61 2 -94q4 -70 8 -104q0 -61 2 -82q2 -23 10 -48l142 -24v-88l-338 6l-340 -6v88l141 24q6 16 8 44q4 41 4 86l10 198v133l-432 680z" />
<glyph unicode="Z" d="M6 49q203 252 410 555l372 559l-231 11q-117 0 -223 -11q-10 -2 -35 -5t-35 -5q-20 -4 -39 -10l-75 -125l-89 39l72 297h1124l29 -49q-233 -309 -403 -557l-123 -185l-123 -184l-125 -186l125 -11q4 0 17 0.5t22 0.5q14 0 26 -1q29 -2 64 -2q158 0 252 15q96 14 104 18 q12 2 33 7t27 7l65 123l99 -28l-46 -164l-34 -158h-1233z" />
<glyph unicode="[" horiz-adv-x="849" d="M254 -479v1841l295 -8l242 8v-92h10l-234 -35v-1587l234 -37h-10v-90l-242 6z" />
<glyph unicode="\" horiz-adv-x="1169" d="M37 1415l274 -22l819 -1456l-274 22z" />
<glyph unicode="]" horiz-adv-x="849" d="M57 -389l236 37v1587l-236 35v92l250 -8l297 8v-1841l-297 6l-250 -6v90z" />
<glyph unicode="^" horiz-adv-x="1148" d="M117 598l368 754h174l371 -754h-203l-254 553l-254 -553h-202z" />
<glyph unicode="_" horiz-adv-x="958" d="M0 -424h958v-92h-958v92z" />
<glyph unicode="`" horiz-adv-x="532" d="M0 1419l121 60q37 16 63 32q33 18 58 39q84 -59 143 -129q74 -76 121 -198l-119 -72q-98 111 -184 166q-59 37 -92 53z" />
<glyph unicode="a" horiz-adv-x="1241" d="M41 266q0 180 192 293q195 113 529 113q0 145 -35 196q-35 49 -149 50q-90 0 -156 -17q-33 -8 -70 -20q-12 -4 -45 -21l-8 -104l-86 -25l-113 262l86 25q66 18 125 37q49 10 148 22q72 8 166 8q215 0 336 -84q119 -82 118 -249v-349q0 -39 4 -104q4 -59 9 -82 q2 -6 5 -25.5t5 -27.5q2 -4 4 -14.5t5 -21.5t7 -22l92 -24v-88l-143 4l-90 2q-92 0 -154 -6l-10 61l-6 154q-59 -139 -176 -191q-63 -27 -115 -36q-55 -12 -110 -13q-168 0 -265 84q-100 88 -100 213zM393 313q0 -49 35 -88q39 -35 107 -35q104 0 161 82q35 47 49 107 q16 66 17 145h-31q-154 0 -246 -61.5t-92 -149.5z" />
<glyph unicode="b" horiz-adv-x="1312" d="M4 1382v88l48 5.5t42 3.5q45 4 90 12q57 12 162 37h139l-12 -281v-297q68 74 152 105q27 10 80 22q35 8 83 8q207 0 336 -139t129 -364q0 -261 -166 -437q-86 -88 -188 -131q-104 -43 -227 -43q-53 0 -80 2q-68 6 -94 9q-63 6 -99 12q-43 6 -73 6h-27l-219 -6l67 115 l13 407v541l-8 301zM475 178l39 -18q14 -6 39 -15q45 -16 111 -16q98 0 170 109q70 106 69 272q0 154 -67 254q-68 102 -166 102q-100 0 -150 -98q-45 -96 -45 -270v-320z" />
<glyph unicode="c" horiz-adv-x="1169" d="M70 483q0 266 196 435q195 168 494 167q121 0 213 -24q4 0 76 -21q31 -8 51 -18l-47 -139q-16 -51 -17 -56q-10 -41 -18 -77l-92 14l-8 90q-29 23 -82.5 43.5t-126.5 20.5q-141 0 -215 -95t-74 -270q0 -158 96 -260.5t248 -102.5q92 0 172 43q82 45 111 70l94 -110 q-82 -88 -211 -156q-70 -35 -135 -49q-76 -16 -150 -17q-256 0 -418 140q-157 136 -157 372z" />
<glyph unicode="d" horiz-adv-x="1312" d="M59 479q0 264 181 436q178 170 432 170q47 0 88 -10l24.5 -5t18.5 -3q16 -2 35 -12l-11 303l-143 24v88l48 5.5t40 3.5q41 4 90 12q53 10 164 37h141l-14 -281v-858l12 -283q23 0 58 -10l59 -14v-88l-172 6h-41q-12 0 -106 -4q-47 -2 -103 -2l2 158q-63 -94 -153 -138 q-89 -43 -179 -43q-213 0 -342 141.5t-129 366.5zM410 528q0 -143 69 -241q68 -96 170 -97q96 0 144 97q45 92 45 270v320l-74 34q-49 16 -105 17q-121 0 -186 -109q-63 -107 -63 -291z" />
<glyph unicode="e" horiz-adv-x="1241" d="M70 494q0 248 172 419.5t446 171.5q219 0 358.5 -102t139.5 -315l-6 -99l-744 4q0 -94 18.5 -163.5t55.5 -118.5q76 -100 264 -101q111 0 197 49.5t133 102.5l110 -104q-76 -109 -227 -189q-150 -78 -330 -78q-266 0 -426 140q-161 141 -161 383zM442 713h50q14 0 59 -4 l67 2q51 0 117 4q43 2 125 16v47q0 76 -47 117q-51 45 -127 45q-117 0 -186 -92q-35 -47 -58 -135z" />
<glyph unicode="f" horiz-adv-x="780" d="M41 911v88l131 58v61q0 187 147 307q150 121 353 121q106 0 172 -12q63 -12 100 -31l-108 -293l-93 21v102l-41 21q-31 10 -71 10q-77 0 -111 -49q-35 -51 -35 -150v-108l244 4l-61 -156l-183 2v-512q0 -94 11 -200l6 -89l149 -24v-88l-321 6l-287 -6v88l123 24l6 289 v516h-131z" />
<glyph unicode="g" horiz-adv-x="1241" d="M43 -274q0 55 27 90q27 37 59 65l166 -98q0 -53 94 -110.5t256 -57.5q78 0 146 37q70 33 69 96q0 74 -133 117q-57 16 -141 16q-115 0 -267 -28q-12 29 -86 106q-68 72 -75 72l59 127q12 29 33 84q18 51 29 92q-39 18 -74 45q-135 100 -135 299q0 180 151 295 q150 113 371 112q55 0 96 -6l209 -32q80 -10 313 -11l2 -96l-75 -14l-117 -13q96 -100 96 -243q0 -180 -151.5 -289t-384.5 -109q-92 0 -142 13l-10 -39q-35 -86 -35 -119l47 12q20 8 78 15q51 6 119 6q248 0 397 -74q152 -74 152 -260q0 -172 -189 -283 q-187 -111 -436 -110q-221 0 -368 86q-150 88 -150 207zM395 673.5q0 -108.5 56 -175.5q57 -70 143 -70q90 0 143 68q53 70 54 178q0 113 -52 186q-52 68 -147 68q-86 0 -143 -70q-54 -76 -54 -184.5z" />
<glyph unicode="h" horiz-adv-x="1312" d="M6 1382v88l49 5.5t41 3.5q37 2 90 12q55 10 164 37h144l-15 -281v-327q37 41 78 71q33 27 88 51q92 43 193 43q151 0 233 -92q82 -90 82 -260v-338l12 -289l117 -24v-88l-285 6l-159 -6v88l2 24v484q0 139 -33 207q-33 70 -129 69q-100 0 -149.5 -86t-49.5 -213v-172 l13 -289l114 -24v-88l-284 6l-291 -6v88l121 24l8 289v662l-8 301z" />
<glyph unicode="i" horiz-adv-x="634" d="M6 942v88q18 2 50 5t44 3q33 2 76 11q51 6 170 36h139l-12 -280v-410l10 -289l123 -24v-88l-293 6l-282 -6v88l119 24l8 289v219l-11 304zM139 1372q0 63 54 121q53 55 124 55q66 0 121 -55q27 -27 41.5 -55.5t14.5 -65.5q0 -68 -54 -125q-51 -53 -123 -53q-66 0 -124 53 q-54 53 -54 125z" />
<glyph unicode="j" horiz-adv-x="636" d="M-53 -457q127 102 170 199q43 95 43 356v516l-8 304l-146 24v88q18 2 50 5t44 3q29 2 82 11q43 6 164 36h139l-12 -280v-500l8 -237q0 -47 -2 -88t-2 -95q0 -221 -459 -452zM141 1372q0 63 54 121q51 55 124 55q66 0 121 -55q27 -27 41.5 -55.5t14.5 -65.5 q0 -68 -54 -125q-51 -53 -123 -53q-68 0 -126 53q-52 51 -52 125z" />
<glyph unicode="k" horiz-adv-x="1277" d="M12 1382v88l46 5.5t42.5 3.5t79.5 12q53 6 168 37h141l-14 -281v-579l195 149l61 49q49 41 94 86l-69 23v86l221 -4l223 4v-86l-100 -25l-371 -299l178 -188l105 -111q162 -154 303 -274v-82l-363 -25l-114 135q-16 20 -119 132l-244 268v-111l10 -289l121 -24v-88 l-287 6l-286 -6v88l121 24l6 289v662l-8 301z" />
<glyph unicode="l" horiz-adv-x="634" d="M10 1382v88l46 5.5t42.5 3.5t79.5 12q53 6 168 37h139l-12 -281v-852l12 -289l119 -24v-88l-287 6l-286 -6v88l121 24l6 289v662l-8 301z" />
<glyph unicode="m" horiz-adv-x="2023" d="M16 942v88q27 2 72 6q43 4 88 13q10 2 41 7t45 9q4 2 38 9t52 11h133l-4 -172q63 72 156 121q94 51 194 51q121 0 199 -53q76 -51 113 -133q35 47 143 119q53 33 113 51q51 16 129 16q154 0 239 -92q88 -94 88 -260v-338l11 -289l116 -24v-88l-284 6l-162 -6v88l4 24v474 q0 152 -30.5 219t-127.5 67q-115 0 -163 -92q-51 -96 -52 -244v-135l13 -289l120 -24v-88l-288 6l-287 -6v88l121 24l2 89q8 98 8 200v185q0 141 -33 217q-31 70 -127 69q-119 0 -168 -98t-49 -264v-109l13 -289l122 -24v-88l-290 6l-283 -6v88l117 24l10 289v219l-10 304z " />
<glyph unicode="n" horiz-adv-x="1312" d="M6 942v88q37 4 76 6q45 4 96 15q63 10 80 14q4 2 38 9t52 11h137l-10 -178q74 92 166 135t195 43q151 0 233 -92q84 -94 84 -260v-338l12 -289l117 -24v-88l-287 6l-159 -6v88l2 24v484q0 139 -33 207q-33 70 -129 69q-100 0 -149.5 -86t-49.5 -213v-172l12 -289l117 -24 v-88l-287 6l-288 -6v88l121 24l6 289v219l-8 304z" />
<glyph unicode="o" d="M59 528q0 244 177 402q174 156 450 155q272 0 438 -153.5t166 -403.5q0 -246 -178 -401q-176 -156 -448 -156q-274 0 -439 152q-166 153 -166 405zM410 528q0 -180 71 -288q74 -111 197 -111q125 0 192 109q70 111 70 290q0 176 -72 289q-70 111 -198 111 q-121 0 -193 -109q-29 -47 -49 -129q-18 -74 -18 -162z" />
<glyph unicode="p" horiz-adv-x="1312" d="M6 942v88q37 4 76 6q45 4 96 15q63 10 80 14q4 2 38 9t52 11h135l-10 -155q68 74 152 114q86 41 166 41q205 0 333.5 -139t128.5 -364q0 -252 -168 -432q-166 -178 -401 -179q-51 0 -117 11q-72 6 -94 18v-139l10 -289l146 -25v-88l-312 6l-286 -6v88l121 25l8 289v753 l-8 304zM475 180q20 -10 23 -12q29 -16 59 -27q37 -12 105 -12q106 0 174 107q68 109 67 274q0 154 -67 256q-68 100 -170 100q-94 0 -144 -88q-23 -49 -35 -110q-12 -66 -12 -150v-338z" />
<glyph unicode="q" horiz-adv-x="1312" d="M59 459q0 291 182.5 458.5t436.5 167.5l186 -10l154 -16l231 -2v-88l-84 -25q-12 -2 -12 -477v-606l10 -289l119 -25v-88l-287 6l-313 -6v88l143 25l4 90q8 82 9 199v272q-63 -80 -140 -119q-84 -43 -170 -43q-207 0 -335 135q-134 140 -134 353zM410 551q0 -158 65 -258 q66 -102 174 -103q98 0 143.5 102.5t45.5 287.5v294l-60 31q-49 23 -112 23q-117 0 -189 -103q-37 -61 -51 -120q-16 -72 -16 -154z" />
<glyph unicode="r" horiz-adv-x="921" d="M10 942v88q49 4 70 6q8 0 22.5 3t34 6.5t35.5 5.5q57 8 150 34h124l-8 -270q61 139 164 205q100 66 209 65q31 0 47 -2q12 -2 47 -10q23 -6 39 -18l-61 -166q-4 -10 -11.5 -38t-11.5 -40l-12 -45l-80 12q0 76 -16 82l-41 6q-106 0 -172 -114.5t-66 -280.5v-76v-92 q0 -37 6 -108l6 -89l154 -24v-88l-326 6l-282 -6v88l121 24l4 89l2 200v219l-8 304z" />
<glyph unicode="s" horiz-adv-x="1099" d="M0 88l94 129l82 129l80 -37l-12 -92q29 -18 100 -49q76 -29 172 -29q76 0 135 33q57 33 58 90q0 58 -68 92q-80 39 -203 68q-127 29 -245 102q-115 72 -115 207q0 170 151.5 262t372.5 92q115 0 211 -20q117 -25 160 -45l-90 -260l-92 18v76q-45 20 -117 41 q-84 23 -139 23q-78 0 -117 -29q-37 -20 -37 -72q0 -43 57 -74q18 -10 86 -32q37 -12 140 -39q193 -45 276 -127q84 -80 84 -199q0 -162 -147 -268q-150 -109 -367 -109q-144 0 -270 31q-129 31 -240 88z" />
<glyph unicode="t" horiz-adv-x="817" d="M41 907v94l133 58v203l311 67v-272l269 2l-58 -152h-211v-526q0 -96 29 -148q27 -43 90 -43q25 0 31 2.5t27 12.5l57 37l84 -103l-111 -94q-92 -74 -233 -74q-133 0 -207 72q-78 74 -78 203v661h-133z" />
<glyph unicode="u" horiz-adv-x="1312" d="M6 942v88q35 0 88 4q23 2 86 15q74 9 172 36h133l-10 -354v-268q0 -127 45 -201q43 -72 129 -72t135 86q51 90 52 228v168l-11 246l-141 24v88q35 0 84 4q16 2 86 15q71 9 172 36h139l-12 -364v-254l10 -365l119 -20v-88l-213 6l-215 -6l10 176q-66 -90 -168 -145 q-98 -53 -204 -54q-150 0 -242 86t-92 234v381l-8 246z" />
<glyph unicode="v" horiz-adv-x="1206" d="M-4 975v86l274 -4l275 4v-84l-109 -25l58 -194q8 -27 65 -197q66 -203 115 -385l221 776l-96 23v86l205 -4l206 4v-84l-75 -25q-113 -246 -201 -489l-172 -486l-156 7l-160 -7l-79 240q-39 111 -95 246l-90 244q-15 43 -98 245z" />
<glyph unicode="w" horiz-adv-x="1808" d="M-4 975v86l270 -4l271 4v-84l-86 -25l176 -735l229 844h227l246 -838q45 162 60 228l20 87.5t12 49.5l86 364l-96 23v86l199 -4l198 4v-84l-71 -31l-164 -483l-150 -486l-153 5h-39h-60q-27 -2 -59 -2l-201 669l-200 -672l-154 5h-37h-55q-37 0 -62 -2q-2 6 -94 301 q-10 37 -59 182q-72 238 -96 303l-66 186z" />
<glyph unicode="x" horiz-adv-x="1206" d="M-18 -6v94l102 18l172 213q94 119 164 216l-307 417l-123 23v86l284 -4l285 4v-86l-65 -23l178 -268l170 270l-56 19v88l197 -4l201 4v-84l-119 -25l-158 -190l-145 -191l344 -462l123 -21v-94l-291 6l-293 -6v90l70 25l-203 311l-102 -156l-45 -76q-12 -25 -23.5 -45 t-22.5 -37l82 -22v-90l-208 6z" />
<glyph unicode="y" horiz-adv-x="1169" d="M-78 -537l51 160l33 166l94 -6l13 -94l45 -17l71 -8q125 0 222 109q94 106 118 184l17 37h-135l-185 483l-90 232l-100 243l-86 23v86l274 -4l275 4v-84l-99 -23l236 -737l211 737l-99 21v86l201 -4l203 4v-84l-53 -25q-125 -262 -226 -520l-188 -512q-83 -237 -246 -362 q-162 -125 -377 -125h-32q-14 0 -52 10q-4 0 -13 2t-16 3t-14 1q-2 0 -53 14z" />
<glyph unicode="z" horiz-adv-x="1134" d="M27 0v88l604 819l-133 11q-61 0 -86 -3q-53 -4 -80 -8q-31 0 -64 -4q-29 -4 -45 -8l-67 -141l-86 26l30 140q0 4 2 14t4.5 30.5t4.5 39.5q2 14 6 33.5t4 23.5l377 -2h573v-80l-598 -821l141 -6q74 0 93 2q28 3 79 12q51 8 80 14l36 6t59 11l61 125l88 -29l-33 -148 l-22 -151l-428 6h-600z" />
<glyph unicode="{" horiz-adv-x="849" d="M137 440q49 8 84 70q31 55 31 143v428q0 135 63 207q66 74 281 74h98v-68q-47 0 -92 -47q-25 -31 -33 -59q-10 -35 -10 -84v-393q0 -127 -43 -189q-39 -59 -119 -82q74 -23 117 -82q45 -63 45 -188v-391q0 -92 41 -139.5t94 -53.5v-65h-98q-217 0 -280.5 71.5 t-63.5 208.5v426q0 94 -31 144q-31 57 -84 69z" />
<glyph unicode="|" horiz-adv-x="423" d="M113 -31v1559h206v-1559h-206z" />
<glyph unicode="}" horiz-adv-x="849" d="M158 1294l2 68h100q215 0 277 -74q63 -76 63 -207v-428q0 -88 29 -143q29 -51 80 -70q-47 -10 -78 -65.5t-31 -147.5v-426q0 -131 -63 -207q-61 -74 -277 -73h-100v65q47 0 90 49q20 27 31 60q10 35 10 84v391q0 123 41 186.5t119 83.5q-74 23 -117 82q-43 63 -43 189 v393q0 96 -39 141q-37 43 -94 49z" />
<glyph unicode="~" horiz-adv-x="1148" d="M133 477q29 59 88.5 110.5t149.5 51.5q96 0 208.5 -63.5t202.5 -63.5q55 0 95 33q41 41 73 104l70 -153q-33 -66 -94.5 -115t-145.5 -49q-94 0 -209 63q-119 66 -202 66q-55 0 -95 -33q-37 -31 -71 -104z" />
<glyph unicode="&#xa1;" horiz-adv-x="1210" d="M20 692q0 23 19 35l14 4l29 -4l8 -8l8 -23q4 -4 -4 -16l-12 -14l-16 -9l-27 9q-19 1 -19 26zM74 776q-6 20 16 37l10 6q25 0 33 -8l14 -27l-2 -18l-12 -18l-16 -7q-16 -6 -29 7zM86 573q-6 47 43 109l49 61l72 58q33 25 61 41q33 18 70 24l25 2q41 0 71 -47l12 -55 q6 -35 9 -39l-11 -45l-43 -70q-10 -12 -16 -16l-12 -16l-21 -35q-2 -2 -2 -4q-4 -8 -4 -17v-26v-43q0 -8 12 -35l27 -39q16 -12 35 -39l26 -33q6 -6 13 -30q2 -8 5 -24.5t5 -25.5l16 -108q0 -55 -14 -84t-55 -43h-21q-39 0 -88 37l-69 75l-19 35l-12 39l-27 115l-6 47 q-6 31 -8 35q-12 25 -19 35l-96 147zM133 854q0 23 19 41l14 6q35 6 57 -41q0 -20 -24 -39l-17 -8q-14 0 -30 12q-19 11 -19 29zM217 922l2 26l23 23l18 6q23 0 39 -12l12 -11l11 -20q6 -33 -27 -51l-19 -9q-16 -8 -32 9q-19 19 -27 39zM326 1018q0 49 18 61l31 19 q18 0 51 -25q14 -14 33 -72v-24q0 -29 -13 -47q-10 -14 -36 -25q-25 -4 -41 10q-20 12 -39 50zM684 98v15v34l18 111q2 27 11 37l10 16l68 80l14 21l8 24l10 23l2 37q0 33 -8 47l-12 28l-74 91l-12 26l-2 31v18l2 25l16 57q6 16 25 35q23 12 45 12l24 -2q18 -2 37 -10 q23 -8 43 -20q55 -29 99 -68q33 -25 45 -37q20 -20 39 -47q35 -45 34 -88l-2 -21l-4 -18l-37 -57l-63 -90l-19 -37l-6 -31l-6 -45l-28 -115l-3 -20l-2 -19q0 -4 -2 -8l-12 -20l-33 -41l-35 -37l-40 -27q-9 -6 -37 -12l-41 -4q-39 6 -60 45l-8 39zM756 969l2 43q0 29 14 45 q2 4 10 12q10 10 23 16q12 4 39 5q18 0 37 -35l8 -51l-6 -39q0 -18 -25 -45q-18 -25 -41 -25q-9 0 -24 6q-37 17 -37 68zM895 901v29q0 20 18 35q14 12 37 12l25 -8q8 -6 14 -21q6 -12 6 -28q0 -18 -20 -37q-18 -10 -39 -11l-21 7q-14 4 -20 22zM991 848l1 3q1 3 2 7t1 8 q14 27 47 33l17 -6q18 -6 24 -41q0 -29 -57 -39l-14 6q-21 9 -21 29zM1067 762v16q0 2 1 5t3 5l2 5l4 8q10 10 35 16l12 -6q23 -12 17 -37q-6 -27 -43 -33l-15 2q-14 7 -16 19zM1118 688q0 20 10 35l29 8l19 -4q8 -6 12 -14l4 -25l-8 -14l-8 -12l-31 -9l-12 6q-15 15 -15 29 z" />
<glyph unicode="&#xa2;" horiz-adv-x="1198" d="M20 807q0 16 23 33l14 2q12 0 29 -11l6 -34q0 -15 -18 -31h-17q-16 0 -26 12q-9 15 -11 29zM61 682q0 27 29 61q25 31 74 70q18 18 41 31l57 30q45 23 100 39q41 4 44 5q20 0 38 -7q35 -12 43 -57l11 -55q0 -35 -11 -60q-10 -27 -14 -30q-4 -6 -22 -21l-29 -29 q-29 -23 -57 -59q-23 -29 -23 -86q0 -39 31 -90l28 -43l15 -29l10 -47v-31q0 -25 2 -38q0 -72 -22 -130q-25 -61 -76 -61q-25 0 -56 12q-27 14 -45 39l-59 90q-4 4 -10 35v43l-13 117l5 47l-5 33q0 18 -8 37l-69 161zM86 883q0 23 18 32l21 5q16 -6 27 -21l8 -20 q0 -16 -23 -33l-12 -4q-14 -2 -29 10q-10 17 -10 31zM160 948q0 23 26 37l13 4q14 0 32 -14q14 -12 15 -35q0 -20 -27 -35l-18 -6q-12 -6 -26.5 8t-14.5 41zM252 1001q0 31 33 43l22 7l17 -7q31 -18 30 -53q0 -27 -28 -43l-23 -2q-25 -6 -39 12zM371 1038q0 18 4 35 q4 14 12 35q18 33 51 39q27 0 45 -35q20 -35 21 -76q0 -35 -10 -51q-8 -12 -27 -31l-29 -8q-27 -6 -47 25q-20 36 -20 67zM696 657l4 39l15 35q6 18 20 27l29 8q27 0 47 -31l12 -39q6 -15 6 -37q0 -25 -4 -32l-12 -33q-6 -14 -16 -19q-16 -8 -33 -8q-31 0 -49.5 24.5 t-18.5 65.5zM705 416l6 59q6 63 84 64q18 0 73 -15q20 -4 56 -18q31 -12 59 -27q59 -27 106.5 -74t47.5 -106l-4 -12l-31 -66l-51 -133q-4 -12 -4 -37l4 -45l-11 -143l-4 -35q-6 -20 -26 -53q-2 -4 -7.5 -12.5t-7.5 -12.5q-2 -2 -26 -33q-18 -20 -45 -34q-2 -2 -25 -11 q-6 -2 -15.5 -4t-11.5 -2q-35 0 -63 35l-31 76l-4 35l-2 47v61q0 25 12 55l35 56l29 61l10 43q0 57 -20 84l-19 25l-67 61l-33 37q-6 4 -12 33zM844 612q0 25 14 41q16 20 37 21l20 -6q31 -8 31 -47q0 -18 -12 -37q-12 -12 -35 -19l-22 2q-12 0 -23 17zM954 561q0 16 11 31 l36 18l15 -4q27 -6 26 -39q0 -29 -41 -47l-20 8l-20 9q-4 4 -7 8v16zM1038 498q0 14 9 24q10 14 32 17h15q12 -10 16 -17l8 -18q0 -12 -12 -27q-8 -14 -27 -14h-16q-12 0 -19 14zM1106 422q0 31 35 41l18 -2q14 -6 21 -33q0 -16 -13 -29l-26 -12l-17 4q-18 9 -18 31z" />
<glyph unicode="&#xa3;" horiz-adv-x="1198" d="M20 428q0 20 23 33l14 2q31 0 37 -41q0 -23 -20 -31l-17 -4q-12 0 -26 12q-9 13 -11 29zM61 299q0 49 64 100l61 52l74 47l78 30q2 2 7 3t7 1l21 5l33 2q66 0 81 -64l11 -59q6 -33 -19 -70q-29 -43 -57 -63l-33 -31l-27 -31q-8 -8 -16 -43q0 -29 -4 -43q0 -41 31 -90 l28 -41l15 -33l8 -41l4 -71q0 -74 -22 -131q-23 -55 -76 -62q-18 0 -56 12q-29 10 -45 39l-34 54l-25 41q-10 27 -10 75l-13 119l5 45l-5 31q0 14 -8 41l-69 164zM86 504l2 18q6 10 16 17h21q35 -10 35 -41q0 -16 -23 -35h-12q-18 0 -31 12zM160 567q0 25 26 39l13 4 q18 0 30 -12q14 -14 17 -37q0 -25 -27 -33l-18 -8q-4 -2 -25 8q-14 10 -16 39zM252 621q0 20 33 47l22 6q16 0 31 -19q12 -16 16 -43q0 -23 -28 -45l-23 -2q-25 0 -39 15q-8 18 -12 41zM371 659q0 39 16 72q14 29 51 35q16 0 25 -6q12 -8 20 -29q20 -33 21 -74 q0 -47 -21 -67q-23 -23 -43 -23q-27 0 -45 20.5t-24 71.5zM696 961l4 43l15 32q16 29 49 35q25 0 47 -33l12 -37q6 -14 6 -36q0 -18 -4 -35l-12 -35q-8 -12 -16 -16q-12 -6 -33 -7q-35 0 -51 23q-11 21 -17 66zM705 723l6 55q6 61 84 62q16 0 47 -9l61 -18l62 -27 q20 -8 47 -28l28 -21l39 -32q57 -45 58 -99l-4 -20l-31 -58l-39 -102l-12 -39l-4 -35l4 -45l-11 -145l-4 -29q-20 -49 -35 -72q-6 -10 -22 -30q-2 -2 -31 -27q-27 -29 -76 -35q-45 0 -65 37l-14 35l-15 45l-4 14v13l-2 49v59q0 20 12 58l35 59l29 55l5 15.5t3 11.5q2 6 2 26 q0 2 -4 31q-10 47 -33 68l-69 61l-33 39l-10 29zM844 920q0 20 14 36q12 12 37 17l20 -4q31 -9 31 -43q0 -43 -47 -60l-22 6q-18 0 -25 15zM954 864q0 35 47 51l15 -4q27 -6 26 -39q0 -12 -12 -30q-8 -10 -29 -17l-20 2q-21 6 -27 37zM1038 801q0 35 41 41l15 -2 q12 -6 18 -17q6 -8 6 -16q0 -31 -39 -41h-16q-12 0 -19 12zM1102 711q0 10 4 20q6 16 20 25l15 10l18 -4q14 -6 21 -31q0 -14 -13 -31l-26 -12l-17 4q-16 7 -22 19z" />
<glyph unicode="&#xa4;" horiz-adv-x="970" d="M20 573q6 53 15 66l10 39l21 37l24 28l78 88l35 33l24 29q12 16 19 33l63 161l6 19q16 14 47 20l66 9h45l21 -7q4 -2 9 -1l5 -1l88 -24q68 -23 111 -53q49 -37 49 -84q0 -25 -15 -39l-34 -43q-23 -25 -62 -43l-49 -6l-76 6l-45 -6q-41 0 -78 -43q-33 -45 -41 -86l-12 -46 l-6 -22q0 -6 -6 -23l-70 -82q-18 -27 -63 -51l-62 -30l-35 -5l-24 5q-27 6 -43 45q-9 28 -12 43q-3 9 -3 34zM147 -135l7 22l28 68l101 108l22 23l27 8l14 8l25 7q18 0 24 4l62 16q18 6 39 27l26 37l21 32v178q0 14 14 29q12 16 12 17q4 6 21 14l37 39q20 18 45 18 q16 0 35 -12q37 -20 65.5 -71.5t47 -119t18.5 -129.5v-30q0 -31 -7 -45q-4 -23 -20 -37l-12 -10l-70 -21l-102 -41l-29 -18l-31 -23l-26 -37l-90 -80l-43 -28l-33 -17l-31 -10l-35 -6l-37 -2l-43 4l-24 6q-8 2 -27 17q-22 18 -31 55zM362 1200l17 25l18 10l19 -4l12 -10 q0 -2 2 -2q0 -2 3 -8.5l5 -10.5q0 -14 -10 -35l-25 -6h-14l-12 10q-7 4 -15 31zM463 1206q0 20 35 37l18 -4l12 -8q6 -6 7 -21q0 -16 -3 -20q-8 -25 -28 -25l-29 9q-2 2 -8 14q0 14 -4 18zM557 1200q0 14 14 23q6 6 31 16l19 -4l14 -10q10 -16 10 -30.5t-12 -29.5t-31 -18 l-14 2l-21 12q-10 10 -10 39zM659 1155q8 33 19 45l37 10l20 -4l17 -12q12 -18 12 -39q0 -18 -14 -33q-16 -16 -35 -16l-25 2l-16 12q-9 2 -15 35zM725 553q0 31 18 68q20 31 74 59l25 4q23 0 31 -10t14 -39l-4 -23l-15 -37l-22 -24q-16 -16 -23 -19q-39 -29 -71 -22 q-23 10 -27 43zM762 1047q-6 31 12 71q16 31 82 62l18 2q49 0 50 -49l-2 -21q-4 -8 -9 -25l-6 -12q-2 -2 -14 -20q-4 -6 -12 -11l-25 -20q-20 -23 -43 -23q-10 0 -16 3q-19 8 -35 43zM811 473q-4 16 14 31q10 8 35 16q14 6 41 -8l14 -20v-23q0 -14 -14 -35l-41 -18 q-18 4 -22 8q-6 6 -9 10l-16 17zM852 365q0 29 49 38l29 -10l10 -14l6 -19q2 -10 -16 -28q-6 -6 -29 -15q-15 0 -37 13l-6 16zM860 162q0 8 12 20l29 17l12 -4l15 -9l10 -12q6 -6 2 -18q-2 -12 -10 -21l-29 -12l-27 12l-10 12zM868 262q-2 6 13 21q18 12 26 12q18 0 31 -8 l8 -15q6 -12 -8 -39q-6 -12 -29 -12q-18 0 -26 8z" />
<glyph unicode="&#xa5;" horiz-adv-x="1449" d="M20 287l3 18l22 107q2 18 16 34q16 20 29 29l80 90l33 29l18 20l27 43l39 99l22 65l10 19q29 14 39 16q4 0 16.5 3t18.5 5q12 2 35 2l53 -6q10 -2 24.5 -4t16.5 -2t12.5 -3t16.5 -5q41 -6 70 -21q18 -6 28 -10q6 -4 15.5 -9l13.5 -7q16 -8 24 -15l25 -24q10 -10 23 -31 q6 -10 6 -32.5t-15 -39.5l-34 -45l-33 -26q-15 -12 -37 -19h-164q-39 -6 -72 -45q-18 -23 -24 -37l-21 -51l-22 -82l-10 -20q-2 -2 -7.5 -10.5t-9.5 -12.5l-53 -51l-61 -47l-52 -29l-32 -4q-39 0 -64 33q-25 35 -25 76zM365 928q8 23 10 26l24 11l17 -2l12 -9l8 -28l-8 -17 q-2 -4 -2 -6v-4l-18 -12l-35 12zM461 938l14 27q2 2 6 4q4 4 6 4l11 2l16 -4l14 -8q4 -2 4 -27l-6 -29l-10 -6l-12 -6l-15 4l-16 10q-2 2 -10 13zM557 915q0 2 1 4.5t2 6.5t1 8q8 31 41 37l19 -6l14 -9q8 -6 8 -30q0 -23 -8 -33t-29 -14l-20 4l-15 10q-14 8 -14 22zM633 80 l2 24l24 62l33 39l70 74l12 10l12 8l27 10l27 10l37 9l59 20q37 18 55 35q20 20 25 43l8 35l2 18v31l-4 59q0 49 4 60q6 14 45 53l39 35q16 14 43 14q10 0 27 -6q31 -16 59 -57l5 -10.5t8 -15.5t10 -15q2 -4 5 -12.5t8 -19.5l9 -20l29 -92l8 -78q2 -6 2 -16v-16 q0 -34 -12 -49l-19 -33l-16 -6l-68 -25l-98 -39l-37 -20l-26 -23l-25 -37l-92 -76l-43 -34l-27 -13l-35 -10l-34 -10h-35l-49 4q-31 6 -52 27q-22 28 -22 53zM659 891q0 18 17 33q10 14 37 16l18 -2l19 -12q12 -6 12 -39q0 -16 -14.5 -32.5t-34.5 -16.5l-19 2l-18 14l-14 12 zM760 809q6 31 31 59q14 25 51 41l37 6q14 0 26 -12q14 -8 19 -35l-2 -24q-8 -29 -35 -62q-25 -31 -62 -41q-4 -2 -10 -2h-8q-31 0 -41 17q-6 14 -6 53zM1200 791q0 23 17 47l16 16q12 12 22 18l43 21l23 2q23 6 35 -12.5t12 -36.5v-19q-10 -29 -22 -43q-20 -25 -33 -34 q-20 -16 -47 -23q-20 -2 -56 14q-10 21 -10 50zM1290 688q-2 18 10 29q14 12 48 18q14 0 34 -10l17 -45l-6 -18l-7 -13l-40 -14q-8 0 -39 10l-15 21zM1335 580q0 8 8.5 18t38.5 16q18 0 29 -8l10 -14l6 -19q4 -10 -12 -28q-14 -12 -33 -13h-16l-14 13l-11 14q-6 15 -6 21z M1339 385l19 14q12 6 28 7q8 0 21 -7l14 -8q9 -6 0 -24l-10 -15q-6 -9 -25 -12q-15 0 -30 6l-10 14q-13 13 -7 25zM1354 475l2 14l4 9l26 14q10 0 15 -2l20 -12l6 -11l3 -14q0 -16 -9 -24l-32 -15l-15 6l-8 6l-10 13z" />
<glyph unicode="&#xa6;" horiz-adv-x="423" d="M145 -31v582h50v-582h-50zM145 944v584h50v-584h-50z" />
<glyph unicode="&#xa8;" horiz-adv-x="1406" d="M35 678q0 133 53 256q29 68 62 115q31 45 83 98q82 88 209 145q119 53 262.5 53.5t258.5 -53.5q66 -31 112.5 -61.5t100.5 -83.5q86 -86 141 -213q57 -131 57 -256q0 -276 -198 -473q-201 -197 -469 -197q-133 0 -258 53.5t-213 141.5q-90 90 -148 213q-53 125 -53 262z M123 678q0 -127 47 -227q49 -106 125 -185q39 -43 82 -69q59 -37 102 -58q47 -18 111 -33q58 -12 117 -12q230 0 411 172q78 76 125 185q45 104 45 227q0 114 -49 221q-39 100 -125 186q-74 78 -180 127q-100 47 -227 47.5t-226 -45.5q-96 -43 -182 -127q-84 -80 -129 -186 q-47 -110 -47 -223zM334 715q0 -74 41 -121q43 -68 131 -113q92 -43 192 -43q141 0 240 76l49 41l39 39q16 27 18.5 29t12.5 32.5t10 59.5q0 -86 -23 -164q-16 -45 -30 -72q-15 -31 -43 -61q-41 -51 -113 -84q-31 -14 -74 -25q-33 -8 -82 -8q-147 0 -262 121q-6 8 -13 15 t-10 12l-3 4l-2 4q-2 4 -6.5 10t-8.5 12q-25 31 -39 72l-18 76q-6 33 -6 88zM414 911q0 35 30 66q29 27 62 27q15 0 31 -7q10 -4 30 -20q33 -29 33 -66q0 -35 -29 -63q-8 -8 -28 -21q-14 -8 -37 -8q-37 0 -66 29q-26 26 -26 63zM807 907q0 33 27 60q35 29 67.5 28.5 t59.5 -24.5q25 -20 30 -64q0 -33 -26 -61q-29 -29 -64 -29q-39 0 -70 25q-24 24 -24 65z" />
<glyph unicode="&#xa9;" horiz-adv-x="862" d="M33 956q0 170 119 287q120 117 282 117q168 0 285 -119q119 -123 119 -283q0 -168 -119 -284q-123 -119 -285 -119q-168 0 -284 119q-117 119 -117 282zM84 958q0 -147 102.5 -249.5t247.5 -102.5q141 0 248 103q104 102 104 247q0 143 -102 250q-100 102 -250 103 q-145 0 -247.5 -103t-102.5 -248zM209 965q0 90 73.5 157.5t186.5 67.5q33 0 43 -2q6 -2 43 -12q53 -14 57 -25v-86l-16 -4q-6 57 -43 78q-33 27 -94 26q-88 0 -131 -57q-45 -61 -45 -143q0 -88 47 -148q43 -59 135 -59q61 0 98 30q20 20 29 31q10 14 22 37l15 -2l-19 -84 q-6 -12 -55 -25l-104 -10q-106 0 -177 60q-65 57 -65 170z" />
<glyph unicode="&#xaa;" horiz-adv-x="1241" d="M41 266q0 180 192 293q195 113 529 113q0 145 -35 196q-35 49 -149 50q-90 0 -156 -17q-33 -8 -70 -20q-12 -4 -45 -21l-8 -104l-86 -25l-113 262l86 25q66 18 125 37q49 10 148 22q72 8 166 8q215 0 336 -84q119 -82 118 -249v-349q0 -39 4 -104q4 -59 9 -82 q2 -6 5 -25.5t5 -27.5q2 -4 4 -14.5t5 -21.5t7 -22l92 -24v-88l-143 4l-90 2q-92 0 -154 -6l-10 61l-6 154q-59 -139 -176 -191q-63 -27 -115 -36q-55 -12 -110 -13q-168 0 -265 84q-100 88 -100 213zM393 313q0 -49 35 -88q39 -35 107 -35q104 0 161 82q35 47 49 107 q16 66 17 145h-31q-154 0 -246 -61.5t-92 -149.5z" />
<glyph unicode="&#xab;" horiz-adv-x="1028" d="M61 547l297 387l144 -78l-131 -309l139 -309l-145 -80zM530 547l295 387l146 -78l-131 -309l137 -309l-146 -80z" />
<glyph unicode="&#xad;" horiz-adv-x="888" d="M96 453q27 39 51 96q14 23 21 41q20 51 20 55l605 2q-27 -43 -50 -96l-24 -49q-6 -10 -17 -47z" />
<glyph unicode="&#xae;" horiz-adv-x="862" d="M33 954q0 166 116.5 283t282.5 117t283 -117q61 -66 88 -129q29 -70 28 -154q0 -164 -116 -280q-119 -119 -283 -119t-282 119q-117 116 -117 280zM84 954q0 -143 102.5 -245.5t245.5 -102.5q139 0 246 103q104 101 104 245q0 145 -102 248t-248 103q-143 0 -245.5 -103 t-102.5 -248zM244 745v23q33 0 45 8q10 6 12 27v315q0 16 -12 29q-2 0 -8.5 2t-8.5 4h-28v23h184q86 0 131 -33q37 -33 37 -84q0 -29 -27 -64q-29 -39 -80 -47l103 -139l14 -18q6 -8 15 -15q14 -10 32 -14v-17h-69q-16 0 -52 46q-2 4 -17 23.5l-26 33.5l-63 92h-57v-137 q0 -16 12 -25q14 -10 41 -10v-23h-178zM369 961h53q45 0 72 26q23 29 22 66q0 53 -24 75q-27 23 -66 23h-57v-190z" />
<glyph unicode="&#xaf;" horiz-adv-x="532" d="M-88 1294v179h799v-179h-799z" />
<glyph unicode="&#xb0;" horiz-adv-x="765" d="M121 1137q0 109 75.5 184.5t184.5 75.5q104 0 182 -78q76 -76 76 -182.5t-76 -182.5q-78 -78 -182.5 -77.5t-183.5 75.5q-76 74 -76 185zM221 1136.5q0 -65.5 47 -112.5t113 -47q61 0 108.5 47t47.5 113q0 63 -47.5 110t-108.5 47q-68 0 -113 -45q-47 -47 -47 -112.5z " />
<glyph unicode="&#xb1;" horiz-adv-x="1148" d="M90 0v199h971v-199h-971zM90 514v199h387v260h199v-260h385v-199h-385v-260h-199v260h-387z" />
<glyph unicode="&#xb2;" d="M16 100l177 138l94 77q41 35 116 107l113 113q68 68 156 200q90 137 90 277q0 90 -60 149q-57 57 -151 58q-72 0 -141.5 -35t-87.5 -54l-11 -118l-94 -13q-8 92 -45 201q-4 16 -12 43t-10.5 31t-3.5 11t-5 15q27 12 60 23q76 20 110 31q137 33 305 32q225 0 379 -112 q150 -111 150 -291q0 -96 -29 -166q-33 -78 -94 -145q-43 -47 -115 -119q-51 -49 -96 -84l-86 -66q-14 -12 -43 -31.5t-39 -25.5l-170 -115l580 25l71 127l99 -27l-52 -184q-33 -104 -41 -178l-540 6l-537 -6z" />
<glyph unicode="&#xb3;" d="M25 205l299 201l67 -66l-49 -92q27 -45 82 -78q59 -35 156 -35q113 0 196.5 94.5t83.5 216.5q0 104 -71.5 166t-186.5 62l-96 -6q-37 0 -47 -2l-43 -15l-29 140q152 29 244 92q100 70 100 188q0 59 -41 105q-39 43 -112 43q-66 0 -125 -27l-41 -18q-25 -10 -37 -23v-96 l-101 -19q-20 98 -59 185l-33 84q18 10 142 47q121 33 294 32q217 0 346.5 -86t129.5 -237q0 -92 -68 -154q-70 -63 -219 -102l49 2q168 0 266 -98q109 -113 109 -248q0 -206 -191 -350q-186 -141 -473 -142q-218 0 -344 74q-120 70 -198 162z" />
<glyph unicode="&#xb4;" horiz-adv-x="532" d="M29 1223q45 115 116 198q59 72 146 129q43 -33 119 -71l122 -60q-115 -39 -202 -100q-94 -66 -185 -168z" />
<glyph unicode="&#xb6;" horiz-adv-x="591" d="M0 766q0 96 63 152q66 59 189 59h342v-88h-74v-846h-94v846h-119v-846h-90v520q-45 0 -88 17q-37 14 -70 47q-59 55 -59 139z" />
<glyph unicode="&#xb7;" horiz-adv-x="671" d="M240 514v168h170v-168h-170z" />
<glyph unicode="&#x2219;" horiz-adv-x="671" d="M240 514v168h170v-168h-170z" />
<glyph unicode="&#xb9;" d="M324 1167v113q100 12 186 39q35 8 86 29q53 20 86 38h190l-12 -294v-697l4 -200q0 -35 2 -54q4 -31 6 -35l140 -24v-88l-336 6l-320 -6v88l129 24l11 289v443l-19 329h-153z" />
<glyph unicode="&#xba;" d="M59 528q0 244 177 402q174 156 450 155q272 0 438 -153.5t166 -403.5q0 -246 -178 -401q-176 -156 -448 -156q-274 0 -439 152q-166 153 -166 405zM410 528q0 -180 71 -288q74 -111 197 -111q125 0 192 109q70 111 70 290q0 176 -72 289q-70 111 -198 111 q-121 0 -193 -109q-29 -47 -49 -129q-18 -74 -18 -162z" />
<glyph unicode="&#xbb;" horiz-adv-x="1028" d="M51 238l139 309l-135 309l148 78l297 -387l-305 -389zM518 238l139 309l-135 309l148 78l299 -387l-305 -389z" />
<glyph unicode="&#xbc;" horiz-adv-x="2023" d="M205 1251v68q10 2 59 10q23 4 64 17q10 2 29.5 8t29.5 8q20 6 57 22h131l-8 -178v-415l8 -177l95 -12v-53l-228 4l-217 -4v53l86 12l8 177v264l-12 196h-102zM500 -70l704 1467l236 24l-705 -1462zM1155 295l227 297q37 47 107 149l104 154h129l15 -16 q-129 -145 -219 -267l-97 -135l-100 -143h283v303l165 78l66 -39l-8 -154v-188h16q27 0 60 8l34 8l35 -28l-63 -95h-82v11l8 -175l80 -12v-55l-199 4l-256 -4v55l133 12l11 175v-11h-402z" />
<glyph unicode="&#xbd;" horiz-adv-x="2023" d="M205 1251v68q10 2 59 10q23 4 64 17q10 2 29.5 8t29.5 8q20 6 57 22h131l-8 -178v-415l8 -177l95 -12v-53l-228 4l-217 -4v53l86 12l8 177v264l-12 196h-102zM506 -70l704 1467l236 24l-703 -1462zM1153 59l186 131q78 55 154 132q41 37 104 120q63 82 64 164 q0 55 -41 90t-104 35q-16 0 -45 -4t-58 -18q-35 -16 -51 -31l-6 -72l-64 -6l-12 64q-6 29 -20 57l-21 59q45 16 119 33q84 18 205 18q154 0 256 -67.5t102 -171.5q0 -106 -82 -186q-94 -92 -147 -125q-41 -31 -113 -74l-115 -68l394 15l47 75l69 -16l-37 -111l-24 -106h-733 z" />
<glyph unicode="&#xbe;" horiz-adv-x="2023" d="M10 674l203 123l47 -41l-35 -56q14 -25 55.5 -45t104.5 -20q80 0 135 55q57 57 58 131q0 61 -50 99q-18 16 -55 26q-35 10 -70 10l-129 -14l-20 86q113 16 168 55q68 40 67 111q0 41 -28 63q-29 16 -33 19q-18 6 -43 6q-37 0 -47 -2q-12 -2 -39 -12q-35 -8 -51 -25v-57 l-70 -12q-16 59 -41 108l-20 53l94 29q14 4 88 12q53 6 117 6q139 0 233 -53q86 -46 86 -141q0 -51 -47 -92q-41 -31 -147 -60h34q114 0 185 -61q70 -61 69 -148q0 -123 -129 -209t-321 -86q-150 0 -240 46q-82 45 -129 96zM551 -70l702 1467l238 24l-705 -1462zM1161 295 l225 297q37 47 107 149l104 154h129l13 -16q-115 -131 -217 -267l-197 -278h283v303l166 78l65 -39l-8 -154v-188h14q29 0 64 8l33 8l34 -28l-63 -95h-82v11l8 -175l80 -12v-55l-199 4l-256 -4v55l133 12l11 175v-11h-402z" />
<glyph unicode="&#xbf;" horiz-adv-x="1028" d="M55 -14q0 172 127 268t318 135l32 172l168 45l78 -307l-30 -29l-43 -26q-84 -8 -140 -31q-57 -23 -92 -59q-74 -68 -74 -150q0 -66 43 -117q43 -53 103 -53q84 0 151 31q80 37 92 47l-6 106l101 23q33 -135 69 -215q18 -43 23 -53l5 -15.5t3 -11.5q-8 -4 -51 -18 q-61 -18 -117 -33q-125 -29 -258 -29q-246 0 -375 94q-127 93 -127 226zM455 907q0 72 55 125q53 51 133 51t133 -51q55 -53 55 -125q0 -71 -55 -123q-53 -51 -131 -51q-82 0 -135 51q-55 52 -55 123z" />
<glyph unicode="&#xc0;" horiz-adv-x="0" />
<glyph unicode="&#xc1;" horiz-adv-x="0" />
<glyph unicode="&#xc2;" horiz-adv-x="0" />
<glyph unicode="&#xc3;" horiz-adv-x="0" />
<glyph unicode="&#xc4;" horiz-adv-x="0" />
<glyph unicode="&#xc5;" horiz-adv-x="0" />
<glyph unicode="&#xc6;" horiz-adv-x="0" />
<glyph unicode="&#xc7;" horiz-adv-x="0" />
<glyph unicode="&#xc8;" horiz-adv-x="0" />
<glyph unicode="&#xc9;" horiz-adv-x="0" />
<glyph unicode="&#xca;" horiz-adv-x="1552" d="M35 528q0 184 65 318q31 59 82 125q41 53 105 106q115 94 268 144q158 49 328 49q90 0 131 -4q82 -8 121 -19q106 -20 198 -69.5t135 -104.5q49 -57 50 -125h-768v246l-662 -666l662 -663v248h768q0 -41 -15 -70q-12 -25 -39 -61q-45 -57 -147 -107q-41 -23 -92 -39 q-59 -20 -103 -26l-118 -17l-121 -6q-180 0 -328 51q-78 25 -145 60q-61 33 -123 84q-117 94 -183 231q-69 145 -69 315z" />
<glyph unicode="&#xcb;" horiz-adv-x="1638" d="M35 463l545 549h346l-441 -426h1119v-240h-1119l441 -428h-346z" />
<glyph unicode="&#xcc;" horiz-adv-x="1630" d="M35 463l450 502q27 33 60 55q29 20 80 27q18 0 41 -15q23 -8 24.5 -10t13 -10l21.5 -15q28 -18 49 -49q16 -27 23 -76q0 -59 -70 -129l-125 -118l801 2q98 0 143 -39q51 -35 51 -125q0 -164 -186 -164l-809 8l125 -119q6 -8 12 -15l13 -15q14 -16 22 -35q23 -39 23 -66 q0 -29 -13 -57q-10 -25 -43 -59q-47 -53 -116 -54q-31 0 -37 4l-33 13l-33 22l-37 35z" />
<glyph unicode="&#xcd;" horiz-adv-x="774" d="M35 463l473 799v-273h233v-1050h-233v-273z" />
<glyph unicode="&#xce;" horiz-adv-x="1679" d="M35 455v16l78 37l77 49q4 2 11.5 8t18.5 16.5t22 18.5l51 41q47 39 86 90q43 51 74 107l71 127h11v-205h358v-588h-358v-211h-11q-88 176 -202.5 297t-286.5 197zM936 172v588h151v-588h-151zM1167 172v588h113v-588h-113zM1384 172v588h74v-588h-74zM1591 172v588h54 v-588h-54z" />
<glyph unicode="&#xcf;" horiz-adv-x="1644" d="M35 440l508 539v-213h1069v-604h-1069v-211z" />
<glyph unicode="&#xd0;" horiz-adv-x="1720" d="M35 446v35q49 18 88 45q23 10 41 25q8 6 17 12t14 8l4 2l35.5 30t29.5 24q20 16 64 59l41 45l30 35l13 18q12 23 26 37l47 74l47 92h48v-209h358v-631h-358v-206h-45q-35 68 -43 86q-18 34 -50 79q-27 41 -55 76q-39 49 -55 64q-53 49 -60 53l-73 55l-76 43l-39 21.5 t-32 18.5t-17 9zM66 475q88 -39 155 -86q76 -53 135 -115q51 -49 109 -129q41 -59 92 -159h-18v207h399v544h-399v209h18q-29 -59 -35 -74l-45 -75q-27 -43 -49 -70l-68 -70l-108 -90q-88 -59 -176 -112zM938 147v631h195v-631h-195zM979 193h113v544h-113v-544zM1169 147 v631h150v-631h-150zM1206 193h74v544h-74v-544zM1386 147v631h115v-631h-115zM1425 193h37v544h-37v-544zM1593 147v631h93v-631h-93zM1632 193h13v544h-13v-544z" />
<glyph unicode="&#xd1;" horiz-adv-x="1695" d="M35 440l557 592v-248h1069v-639h-1069v-245zM90 440l465 -440v186h1063v557h-1063v185z" />
<glyph unicode="&#xd2;" horiz-adv-x="1699" d="M35 145v639h1071v248l561 -592l-561 -540v245h-1071zM80 186h1067v-186l459 440l-459 488v-185h-1067v-557z" />
<glyph unicode="&#xd3;" horiz-adv-x="1720" d="M35 147v631h92v-631h-92zM78 193h10v544h-10v-544zM219 147v631h119v-631h-119zM260 193h35v544h-35v-544zM401 147v631h152v-631h-152zM444 193h70v544h-70v-544zM588 147v631h196v-631h-196zM633 193h108v544h-108v-544zM784 147v631h357v209h49q84 -180 196 -299 q55 -55 134 -110q72 -51 166 -97v-35q-8 -4 -31 -14t-35 -16q-57 -31 -94 -60q-66 -45 -133 -110l-41 -41q-14 -25 -17 -27q-4 -4 -9 -8l-5 -4l-39 -55l-47 -76q-8 -23 -23 -47q-4 -6 -11 -22.5t-13 -24.5h-47v206h-357zM784 193h402v-207h-21q72 162 199 288q23 23 63 60 q16 14 68 47q72 51 162 94l-12 -20q-78 41 -152 88q-55 43 -129 114l-61 68q-37 45 -56 72q-27 39 -45 71q-23 41 -37 78h21v-209h-402v-544z" />
<glyph unicode="&#xd4;" horiz-adv-x="1646" d="M35 162v604h1071v213l508 -539l-508 -489v211h-1071z" />
<glyph unicode="&#xd5;" horiz-adv-x="1679" d="M35 172v588h51v-588h-51zM219 172v588h74v-588h-74zM399 172v588h115v-588h-115zM588 172v588h153v-588h-153zM784 172v588h357v205h12q35 -84 86 -156q47 -68 117 -137l30 -25l35 -31l37 -30l31 -27l72 -43q47 -23 49 -22.5t6 -3t12 -8.5l17 -11v-16q-23 -10 -72 -39 q-57 -25 -82 -45l-37 -29l-31 -23l-67 -61q-53 -55 -105 -133q-33 -45 -49 -74l-49 -90h-12v211h-357z" />
<glyph unicode="&#xd6;" horiz-adv-x="778" d="M35 -61v1050h233v273l475 -799l-475 -797v273h-233z" />
<glyph unicode="&#xd7;" horiz-adv-x="1630" d="M35 463q0 76 47 123q43 41 137 41l807 -2l-154 147l-18 33l-12 35l-4 32q-2 4 -2 19q0 18 12 45q23 37 41 53q25 20 57 41q27 16 60 17q39 0 71 -23q12 -6 33 -23l37 -36l448 -502l-448 -502q-31 -35 -72 -57l-69 -17q-4 -2 -17 -2q-20 0 -47 11q-6 4 -14 10t-10 8 q-20 16 -29 27q-20 25 -39 59q-6 12 -8 25q0 6 -1 16t-3 16q0 25 14 60q12 31 53 71l121 119l-799 -8q-74 0 -139 39q-53 37 -53 125z" />
<glyph unicode="&#xd8;" horiz-adv-x="1638" d="M35 346v240h1118l-442 426h348l547 -549l-547 -545h-348l442 428h-1118z" />
<glyph unicode="&#xd9;" horiz-adv-x="1552" d="M35 113h766v-248l661 663l-661 666v-246h-766q0 78 51 135q39 39 57 54q28 22 74 43q94 49 211 69q115 20 240 21q172 0 325 -49q147 -47 271 -148q109 -84 186 -231q68 -138 68 -314q0 -174 -70 -311q-72 -139 -184 -231q-115 -92 -267 -146q-154 -53 -329 -53h-33 q-6 0 -18.5 1t-20.5 1q-22 0 -55 6l-111 15q-29 4 -63 16q-10 4 -25.5 8t-22.5 6q-25 8 -40 15q-18 6 -58 24q-25 12 -71 45q-41 29 -60 49q-55 52 -55 140z" />
<glyph unicode="&#xda;" horiz-adv-x="1562" d="M664 1579q45 115 116 198q59 72 146 129q43 -33 119 -71l122 -60q-115 -39 -202 -100q-94 -66 -185 -168zM53 1270v90l316 -6l325 6v-90l-127 -23q-6 -16 -12 -45q-4 -20 -4 -84l-4 -198v-357q0 -207 67 -305q70 -100 232 -100q156 0 235 86q39 41 62 104q23 61 22 141 v181q0 37 -3 118.5t-3 114.5q0 39 -1 77t-2 56.5t-1 22.5q0 92 -2 123q-4 51 -8 65l-131 23v90l254 -6l241 6v-90l-118 -23q-4 -10 -11 -61q-6 -49 -6 -127l-2 -389v-154q0 -260 -162 -405q-158 -143 -450 -144q-268 0 -416 121q-152 123 -151 340v492l-5 198q0 35 -4 80 q-2 31 -10 49z" />
<glyph unicode="&#xdb;" horiz-adv-x="1562" d="M53 1270v90l316 -6l325 6v-90l-127 -23q-6 -16 -12 -45q-4 -20 -4 -84l-4 -198v-357q0 -207 67 -305q70 -100 232 -100q156 0 235 86q39 41 62 104q23 61 22 141v181q0 37 -3 118.5t-3 114.5q0 39 -1 77t-2 56.5t-1 22.5q0 92 -2 123q-4 51 -8 65l-131 23v90l254 -6 l241 6v-90l-118 -23q-4 -10 -11 -61q-6 -49 -6 -127l-2 -389v-154q0 -260 -162 -405q-158 -143 -450 -144q-268 0 -416 121q-152 123 -151 340v492l-5 198q0 35 -4 80q-2 31 -10 49z" />
<glyph unicode="&#xdc;" horiz-adv-x="1562" d="M111 2177q0 133 53 256q29 68 62 115q31 45 83 98q82 88 209 145q119 53 262.5 53.5t258.5 -53.5q66 -31 112.5 -61.5t100.5 -83.5q86 -86 141 -213q57 -131 57 -256q0 -276 -198 -473q-201 -197 -469 -197q-133 0 -258 53.5t-213 141.5q-90 90 -148 213q-53 125 -53 262 zM199 2177q0 -127 47 -227q49 -106 125 -185q39 -43 82 -69q59 -37 102 -58q47 -18 111 -33q58 -12 117 -12q230 0 411 172q78 76 125 185q45 104 45 227q0 114 -49 221q-39 100 -125 186q-74 78 -180 127q-100 47 -227 47.5t-226 -45.5q-96 -43 -182 -127 q-84 -80 -129 -186q-47 -110 -47 -223zM410 2214q0 -74 41 -121q43 -68 131 -113q92 -43 192 -43q141 0 240 76l49 41l39 39q16 27 18.5 29t12.5 32.5t10 59.5q0 -86 -23 -164q-16 -45 -30 -72q-15 -31 -43 -61q-41 -51 -113 -84q-31 -14 -74 -25q-33 -8 -82 -8 q-147 0 -262 121q-6 8 -13 15t-10 12l-3 4l-2 4q-2 4 -6.5 10t-8.5 12q-25 31 -39 72l-18 76q-6 33 -6 88zM490 2410q0 35 30 66q29 27 62 27q15 0 31 -7q10 -4 30 -20q33 -29 33 -66q0 -35 -29 -63q-8 -8 -28 -21q-14 -8 -37 -8q-37 0 -66 29q-26 26 -26 63zM883 2406 q0 33 27 60q35 29 67.5 28.5t59.5 -24.5q25 -20 30 -64q0 -33 -26 -61q-29 -29 -64 -29q-39 0 -70 25q-24 24 -24 65zM53 1270v90l316 -6l325 6v-90l-127 -23q-6 -16 -12 -45q-4 -20 -4 -84l-4 -198v-357q0 -207 67 -305q70 -100 232 -100q156 0 235 86q39 41 62 104 q23 61 22 141v181q0 37 -3 118.5t-3 114.5q0 39 -1 77t-2 56.5t-1 22.5q0 92 -2 123q-4 51 -8 65l-131 23v90l254 -6l241 6v-90l-118 -23q-4 -10 -11 -61q-6 -49 -6 -127l-2 -389v-154q0 -260 -162 -405q-158 -143 -450 -144q-268 0 -416 121q-152 123 -151 340v492l-5 198 q0 35 -4 80q-2 31 -10 49z" />
<glyph unicode="&#xdd;" horiz-adv-x="1419" d="M594 1579q45 115 116 198q59 72 146 129q43 -33 119 -71l122 -60q-115 -39 -202 -100q-94 -66 -185 -168zM-18 1270v90l311 -6l299 6v-90l-88 -23l284 -545l285 545l-88 23v90l234 -6l221 6v-90l-117 -23l-440 -680v-133q0 -61 2 -94q4 -70 8 -104q0 -61 2 -82 q2 -23 10 -48l142 -24v-88l-338 6l-340 -6v88l141 24q6 16 8 44q4 41 4 86l10 198v133l-432 680z" />
<glyph unicode="&#xe0;" horiz-adv-x="1241" d="M238 1476l121 60q37 16 63 32q33 18 58 39q84 -59 143 -129q74 -76 121 -198l-119 -72q-98 111 -184 166q-59 37 -92 53zM41 266q0 180 192 293q195 113 529 113q0 145 -35 196q-35 49 -149 50q-90 0 -156 -17q-33 -8 -70 -20q-12 -4 -45 -21l-8 -104l-86 -25l-113 262 l86 25q66 18 125 37q49 10 148 22q72 8 166 8q215 0 336 -84q119 -82 118 -249v-349q0 -39 4 -104q4 -59 9 -82q2 -6 5 -25.5t5 -27.5q2 -4 4 -14.5t5 -21.5t7 -22l92 -24v-88l-143 4l-90 2q-92 0 -154 -6l-10 61l-6 154q-59 -139 -176 -191q-63 -27 -115 -36 q-55 -12 -110 -13q-168 0 -265 84q-100 88 -100 213zM393 313q0 -49 35 -88q39 -35 107 -35q104 0 161 82q35 47 49 107q16 66 17 145h-31q-154 0 -246 -61.5t-92 -149.5z" />
<glyph unicode="&#xe1;" horiz-adv-x="1241" d="M506 1280q45 115 116 198q59 72 146 129q43 -33 119 -71l122 -60q-115 -39 -202 -100q-94 -66 -185 -168zM41 266q0 180 192 293q195 113 529 113q0 145 -35 196q-35 49 -149 50q-90 0 -156 -17q-33 -8 -70 -20q-12 -4 -45 -21l-8 -104l-86 -25l-113 262l86 25 q66 18 125 37q49 10 148 22q72 8 166 8q215 0 336 -84q119 -82 118 -249v-349q0 -39 4 -104q4 -59 9 -82q2 -6 5 -25.5t5 -27.5q2 -4 4 -14.5t5 -21.5t7 -22l92 -24v-88l-143 4l-90 2q-92 0 -154 -6l-10 61l-6 154q-59 -139 -176 -191q-63 -27 -115 -36q-55 -12 -110 -13 q-168 0 -265 84q-100 88 -100 213zM393 313q0 -49 35 -88q39 -35 107 -35q104 0 161 82q35 47 49 107q16 66 17 145h-31q-154 0 -246 -61.5t-92 -149.5z" />
<glyph unicode="&#xe2;" horiz-adv-x="1241" d="M41 266q0 180 192 293q195 113 529 113q0 145 -35 196q-35 49 -149 50q-90 0 -156 -17q-33 -8 -70 -20q-12 -4 -45 -21l-8 -104l-86 -25l-113 262l86 25q66 18 125 37q49 10 148 22q72 8 166 8q215 0 336 -84q119 -82 118 -249v-349q0 -39 4 -104q4 -59 9 -82 q2 -6 5 -25.5t5 -27.5q2 -4 4 -14.5t5 -21.5t7 -22l92 -24v-88l-143 4l-90 2q-92 0 -154 -6l-10 61l-6 154q-59 -139 -176 -191q-63 -27 -115 -36q-55 -12 -110 -13q-168 0 -265 84q-100 88 -100 213zM393 313q0 -49 35 -88q39 -35 107 -35q104 0 161 82q35 47 49 107 q16 66 17 145h-31q-154 0 -246 -61.5t-92 -149.5z" />
<glyph unicode="&#xe3;" horiz-adv-x="1241" d="M174 1296l65 68q29 27 76 66q76 59 152 59q25 0 71 -10q33 -6 103 -35q123 -43 182 -43q43 0 88 27q6 2 39 26q8 6 39 37q8 -18 39 -49l47 -41l-68 -70t-71 -63q-76 -59 -152 -60q-49 0 -172 45q-117 43 -184 43q-45 0 -90 -28q-43 -20 -76 -60q-6 12 -41 47zM41 266 q0 180 192 293q195 113 529 113q0 145 -35 196q-35 49 -149 50q-90 0 -156 -17q-33 -8 -70 -20q-12 -4 -45 -21l-8 -104l-86 -25l-113 262l86 25q66 18 125 37q49 10 148 22q72 8 166 8q215 0 336 -84q119 -82 118 -249v-349q0 -39 4 -104q4 -59 9 -82q2 -6 5 -25.5t5 -27.5 q2 -4 4 -14.5t5 -21.5t7 -22l92 -24v-88l-143 4l-90 2q-92 0 -154 -6l-10 61l-6 154q-59 -139 -176 -191q-63 -27 -115 -36q-55 -12 -110 -13q-168 0 -265 84q-100 88 -100 213zM393 313q0 -49 35 -88q39 -35 107 -35q104 0 161 82q35 47 49 107q16 66 17 145h-31 q-154 0 -246 -61.5t-92 -149.5z" />
<glyph unicode="&#xe4;" horiz-adv-x="1241" d="M-45 1878q0 133 53 256q29 68 62 115q31 45 83 98q82 88 209 145q119 53 262.5 53.5t258.5 -53.5q66 -31 112.5 -61.5t100.5 -83.5q86 -86 141 -213q57 -131 57 -256q0 -276 -198 -473q-201 -197 -469 -197q-133 0 -258 53.5t-213 141.5q-90 90 -148 213q-53 125 -53 262 zM43 1878q0 -127 47 -227q49 -106 125 -185q39 -43 82 -69q59 -37 102 -58q47 -18 111 -33q58 -12 117 -12q230 0 411 172q78 76 125 185q45 104 45 227q0 114 -49 221q-39 100 -125 186q-74 78 -180 127q-100 47 -227 47.5t-226 -45.5q-96 -43 -182 -127q-84 -80 -129 -186 q-47 -110 -47 -223zM254 1915q0 -74 41 -121q43 -68 131 -113q92 -43 192 -43q141 0 240 76l49 41l39 39q16 27 18.5 29t12.5 32.5t10 59.5q0 -86 -23 -164q-16 -45 -30 -72q-15 -31 -43 -61q-41 -51 -113 -84q-31 -14 -74 -25q-33 -8 -82 -8q-147 0 -262 121q-6 8 -13 15 t-10 12l-3 4l-2 4q-2 4 -6.5 10t-8.5 12q-25 31 -39 72l-18 76q-6 33 -6 88zM334 2111q0 35 30 66q29 27 62 27q15 0 31 -7q10 -4 30 -20q33 -29 33 -66q0 -35 -29 -63q-8 -8 -28 -21q-14 -8 -37 -8q-37 0 -66 29q-26 26 -26 63zM727 2107q0 33 27 60q35 29 67.5 28.5 t59.5 -24.5q25 -20 30 -64q0 -33 -26 -61q-29 -29 -64 -29q-39 0 -70 25q-24 24 -24 65zM41 266q0 180 192 293q195 113 529 113q0 145 -35 196q-35 49 -149 50q-90 0 -156 -17q-33 -8 -70 -20q-12 -4 -45 -21l-8 -104l-86 -25l-113 262l86 25q66 18 125 37q49 10 148 22 q72 8 166 8q215 0 336 -84q119 -82 118 -249v-349q0 -39 4 -104q4 -59 9 -82q2 -6 5 -25.5t5 -27.5q2 -4 4 -14.5t5 -21.5t7 -22l92 -24v-88l-143 4l-90 2q-92 0 -154 -6l-10 61l-6 154q-59 -139 -176 -191q-63 -27 -115 -36q-55 -12 -110 -13q-168 0 -265 84 q-100 88 -100 213zM393 313q0 -49 35 -88q39 -35 107 -35q104 0 161 82q35 47 49 107q16 66 17 145h-31q-154 0 -246 -61.5t-92 -149.5z" />
<glyph unicode="&#xe5;" horiz-adv-x="1241" d="M365 1469q0 109 75.5 184.5t184.5 75.5q104 0 182 -78q76 -76 76 -182.5t-76 -182.5q-78 -78 -182.5 -77.5t-183.5 75.5q-76 74 -76 185zM465 1468.5q0 -65.5 47 -112.5t113 -47q61 0 108.5 47t47.5 113q0 63 -47.5 110t-108.5 47q-68 0 -113 -45q-47 -47 -47 -112.5z M41 266q0 180 192 293q195 113 529 113q0 145 -35 196q-35 49 -149 50q-90 0 -156 -17q-33 -8 -70 -20q-12 -4 -45 -21l-8 -104l-86 -25l-113 262l86 25q66 18 125 37q49 10 148 22q72 8 166 8q215 0 336 -84q119 -82 118 -249v-349q0 -39 4 -104q4 -59 9 -82q2 -6 5 -25.5 t5 -27.5q2 -4 4 -14.5t5 -21.5t7 -22l92 -24v-88l-143 4l-90 2q-92 0 -154 -6l-10 61l-6 154q-59 -139 -176 -191q-63 -27 -115 -36q-55 -12 -110 -13q-168 0 -265 84q-100 88 -100 213zM393 313q0 -49 35 -88q39 -35 107 -35q104 0 161 82q35 47 49 107q16 66 17 145h-31 q-154 0 -246 -61.5t-92 -149.5z" />
<glyph unicode="&#xe8;" horiz-adv-x="1241" d="M301 1476l121 60q37 16 63 32q33 18 58 39q84 -59 143 -129q74 -76 121 -198l-119 -72q-98 111 -184 166q-59 37 -92 53zM70 494q0 248 172 419.5t446 171.5q219 0 358.5 -102t139.5 -315l-6 -99l-744 4q0 -94 18.5 -163.5t55.5 -118.5q76 -100 264 -101q111 0 197 49.5 t133 102.5l110 -104q-76 -109 -227 -189q-150 -78 -330 -78q-266 0 -426 140q-161 141 -161 383zM442 713h50q14 0 59 -4l67 2q51 0 117 4q43 2 125 16v47q0 76 -47 117q-51 45 -127 45q-117 0 -186 -92q-35 -47 -58 -135z" />
<glyph unicode="&#xe9;" horiz-adv-x="1241" d="M572 1280q45 115 116 198q59 72 146 129q43 -33 119 -71l122 -60q-115 -39 -202 -100q-94 -66 -185 -168zM70 494q0 248 172 419.5t446 171.5q219 0 358.5 -102t139.5 -315l-6 -99l-744 4q0 -94 18.5 -163.5t55.5 -118.5q76 -100 264 -101q111 0 197 49.5t133 102.5 l110 -104q-76 -109 -227 -189q-150 -78 -330 -78q-266 0 -426 140q-161 141 -161 383zM442 713h50q14 0 59 -4l67 2q51 0 117 4q43 2 125 16v47q0 76 -47 117q-51 45 -127 45q-117 0 -186 -92q-35 -47 -58 -135z" />
<glyph unicode="&#xea;" horiz-adv-x="1241" d="M70 494q0 248 172 419.5t446 171.5q219 0 358.5 -102t139.5 -315l-6 -99l-744 4q0 -94 18.5 -163.5t55.5 -118.5q76 -100 264 -101q111 0 197 49.5t133 102.5l110 -104q-76 -109 -227 -189q-150 -78 -330 -78q-266 0 -426 140q-161 141 -161 383zM442 713h50q14 0 59 -4 l67 2q51 0 117 4q43 2 125 16v47q0 76 -47 117q-51 45 -127 45q-117 0 -186 -92q-35 -47 -58 -135z" />
<glyph unicode="&#xeb;" horiz-adv-x="1241" d="M19 1878q0 133 53 256q29 68 62 115q31 45 83 98q82 88 209 145q119 53 262.5 53.5t258.5 -53.5q66 -31 112.5 -61.5t100.5 -83.5q86 -86 141 -213q57 -131 57 -256q0 -276 -198 -473q-201 -197 -469 -197q-133 0 -258 53.5t-213 141.5q-90 90 -148 213q-53 125 -53 262z M107 1878q0 -127 47 -227q49 -106 125 -185q39 -43 82 -69q59 -37 102 -58q47 -18 111 -33q58 -12 117 -12q230 0 411 172q78 76 125 185q45 104 45 227q0 114 -49 221q-39 100 -125 186q-74 78 -180 127q-100 47 -227 47.5t-226 -45.5q-96 -43 -182 -127q-84 -80 -129 -186 q-47 -110 -47 -223zM318 1915q0 -74 41 -121q43 -68 131 -113q92 -43 192 -43q141 0 240 76l49 41l39 39q16 27 18.5 29t12.5 32.5t10 59.5q0 -86 -23 -164q-16 -45 -30 -72q-15 -31 -43 -61q-41 -51 -113 -84q-31 -14 -74 -25q-33 -8 -82 -8q-147 0 -262 121q-6 8 -13 15 t-10 12l-3 4l-2 4q-2 4 -6.5 10t-8.5 12q-25 31 -39 72l-18 76q-6 33 -6 88zM398 2111q0 35 30 66q29 27 62 27q15 0 31 -7q10 -4 30 -20q33 -29 33 -66q0 -35 -29 -63q-8 -8 -28 -21q-14 -8 -37 -8q-37 0 -66 29q-26 26 -26 63zM791 2107q0 33 27 60q35 29 67.5 28.5 t59.5 -24.5q25 -20 30 -64q0 -33 -26 -61q-29 -29 -64 -29q-39 0 -70 25q-24 24 -24 65zM70 494q0 248 172 419.5t446 171.5q219 0 358.5 -102t139.5 -315l-6 -99l-744 4q0 -94 18.5 -163.5t55.5 -118.5q76 -100 264 -101q111 0 197 49.5t133 102.5l110 -104 q-76 -109 -227 -189q-150 -78 -330 -78q-266 0 -426 140q-161 141 -161 383zM442 713h50q14 0 59 -4l67 2q51 0 117 4q43 2 125 16v47q0 76 -47 117q-51 45 -127 45q-117 0 -186 -92q-35 -47 -58 -135z" />
<glyph unicode="&#xec;" horiz-adv-x="634" d="M-70 1939l121 60q37 16 63 32q33 18 58 39q84 -59 143 -129q74 -76 121 -198l-119 -72q-98 111 -184 166q-59 37 -92 53zM6 942v88q18 2 50 5t44 3q33 2 76 11q51 6 170 36h139l-12 -280v-410l10 -289l123 -24v-88l-293 6l-282 -6v88l119 24l8 289v219l-11 304zM139 1372 q0 63 54 121q53 55 124 55q66 0 121 -55q27 -27 41.5 -55.5t14.5 -65.5q0 -68 -54 -125q-51 -53 -123 -53q-66 0 -124 53q-54 53 -54 125z" />
<glyph unicode="&#xed;" horiz-adv-x="634" d="M199 1743q45 115 116 198q59 72 146 129q43 -33 119 -71l122 -60q-115 -39 -202 -100q-94 -66 -185 -168zM6 942v88q18 2 50 5t44 3q33 2 76 11q51 6 170 36h139l-12 -280v-410l10 -289l123 -24v-88l-293 6l-282 -6v88l119 24l8 289v219l-11 304zM139 1372q0 63 54 121 q53 55 124 55q66 0 121 -55q27 -27 41.5 -55.5t14.5 -65.5q0 -68 -54 -125q-51 -53 -123 -53q-66 0 -124 53q-54 53 -54 125z" />
<glyph unicode="&#xee;" horiz-adv-x="634" d="M6 942v88q18 2 50 5t44 3q33 2 76 11q51 6 170 36h139l-12 -280v-410l10 -289l123 -24v-88l-293 6l-282 -6v88l119 24l8 289v219l-11 304zM139 1372q0 63 54 121q53 55 124 55q66 0 121 -55q27 -27 41.5 -55.5t14.5 -65.5q0 -68 -54 -125q-51 -53 -123 -53q-66 0 -124 53 q-54 53 -54 125z" />
<glyph unicode="&#xef;" horiz-adv-x="634" d="M-352 2339q0 133 53 256q29 68 62 115q31 45 83 98q82 88 209 145q119 53 262.5 53.5t258.5 -53.5q66 -31 112.5 -61.5t100.5 -83.5q86 -86 141 -213q57 -131 57 -256q0 -276 -198 -473q-201 -197 -469 -197q-133 0 -258 53.5t-213 141.5q-90 90 -148 213 q-53 125 -53 262zM-264 2339q0 -127 47 -227q49 -106 125 -185q39 -43 82 -69q59 -37 102 -58q47 -18 111 -33q58 -12 117 -12q230 0 411 172q78 76 125 185q45 104 45 227q0 114 -49 221q-39 100 -125 186q-74 78 -180 127q-100 47 -227 47.5t-226 -45.5q-96 -43 -182 -127 q-84 -80 -129 -186q-47 -110 -47 -223zM-53 2376q0 -74 41 -121q43 -68 131 -113q92 -43 192 -43q141 0 240 76l49 41l39 39q16 27 18.5 29t12.5 32.5t10 59.5q0 -86 -23 -164q-16 -45 -30 -72q-15 -31 -43 -61q-41 -51 -113 -84q-31 -14 -74 -25q-33 -8 -82 -8 q-147 0 -262 121q-6 8 -13 15t-10 12l-3 4l-2 4q-2 4 -6.5 10t-8.5 12q-25 31 -39 72l-18 76q-6 33 -6 88zM27 2572q0 35 30 66q29 27 62 27q15 0 31 -7q10 -4 30 -20q33 -29 33 -66q0 -35 -29 -63q-8 -8 -28 -21q-14 -8 -37 -8q-37 0 -66 29q-26 26 -26 63zM420 2568 q0 33 27 60q35 29 67.5 28.5t59.5 -24.5q25 -20 30 -64q0 -33 -26 -61q-29 -29 -64 -29q-39 0 -70 25q-24 24 -24 65zM6 942v88q18 2 50 5t44 3q33 2 76 11q51 6 170 36h139l-12 -280v-410l10 -289l123 -24v-88l-293 6l-282 -6v88l119 24l8 289v219l-11 304zM139 1372 q0 63 54 121q53 55 124 55q66 0 121 -55q27 -27 41.5 -55.5t14.5 -65.5q0 -68 -54 -125q-51 -53 -123 -53q-66 0 -124 53q-54 53 -54 125z" />
<glyph unicode="&#xf1;" horiz-adv-x="1689" d="M35 55h51l14 -24l19 24h26l54 54h53v53l31 31h51v53h31l137 139v31h55v49l29 29h55l27 30h59v82l78 82h29l26 27h47l29 -27l111 -164v-276h-29l-82 -78l55 -61h60l82 84h84v53h83l54 55h61v57h53v140l-30 30v54l-23 28v54h-61v30l-54 54h-30l-23 26l-252 168h-112 l-109 -111h-26l-109 -112h-57l-111 -109h-27l-28 -28h-25l-84 -84h-28l-27 -27h-55v-51h-29l-53 -60h-29l-51 -26v995h1622v-1681h-1622v407z" />
<glyph unicode="&#xf2;" d="M299 1476l121 60q37 16 63 32q33 18 58 39q84 -59 143 -129q74 -76 121 -198l-119 -72q-98 111 -184 166q-59 37 -92 53zM59 528q0 244 177 402q174 156 450 155q272 0 438 -153.5t166 -403.5q0 -246 -178 -401q-176 -156 -448 -156q-274 0 -439 152q-166 153 -166 405z M410 528q0 -180 71 -288q74 -111 197 -111q125 0 192 109q70 111 70 290q0 176 -72 289q-70 111 -198 111q-121 0 -193 -109q-29 -47 -49 -129q-18 -74 -18 -162z" />
<glyph unicode="&#xf3;" d="M570 1280q45 115 116 198q59 72 146 129q43 -33 119 -71l122 -60q-115 -39 -202 -100q-94 -66 -185 -168zM59 528q0 244 177 402q174 156 450 155q272 0 438 -153.5t166 -403.5q0 -246 -178 -401q-176 -156 -448 -156q-274 0 -439 152q-166 153 -166 405zM410 528 q0 -180 71 -288q74 -111 197 -111q125 0 192 109q70 111 70 290q0 176 -72 289q-70 111 -198 111q-121 0 -193 -109q-29 -47 -49 -129q-18 -74 -18 -162z" />
<glyph unicode="&#xf4;" d="M59 528q0 244 177 402q174 156 450 155q272 0 438 -153.5t166 -403.5q0 -246 -178 -401q-176 -156 -448 -156q-274 0 -439 152q-166 153 -166 405zM410 528q0 -180 71 -288q74 -111 197 -111q125 0 192 109q70 111 70 290q0 176 -72 289q-70 111 -198 111 q-121 0 -193 -109q-29 -47 -49 -129q-18 -74 -18 -162z" />
<glyph unicode="&#xf5;" d="M236 1296l65 68q29 27 76 66q76 59 152 59q25 0 71 -10q33 -6 103 -35q123 -43 182 -43q43 0 88 27q6 2 39 26q8 6 39 37q8 -18 39 -49l47 -41l-68 -70t-71 -63q-76 -59 -152 -60q-49 0 -172 45q-117 43 -184 43q-45 0 -90 -28q-43 -20 -76 -60q-6 12 -41 47zM59 528 q0 244 177 402q174 156 450 155q272 0 438 -153.5t166 -403.5q0 -246 -178 -401q-176 -156 -448 -156q-274 0 -439 152q-166 153 -166 405zM410 528q0 -180 71 -288q74 -111 197 -111q125 0 192 109q70 111 70 290q0 176 -72 289q-70 111 -198 111q-121 0 -193 -109 q-29 -47 -49 -129q-18 -74 -18 -162z" />
<glyph unicode="&#xf6;" d="M17 1878q0 133 53 256q29 68 62 115q31 45 83 98q82 88 209 145q119 53 262.5 53.5t258.5 -53.5q66 -31 112.5 -61.5t100.5 -83.5q86 -86 141 -213q57 -131 57 -256q0 -276 -198 -473q-201 -197 -469 -197q-133 0 -258 53.5t-213 141.5q-90 90 -148 213q-53 125 -53 262z M105 1878q0 -127 47 -227q49 -106 125 -185q39 -43 82 -69q59 -37 102 -58q47 -18 111 -33q58 -12 117 -12q230 0 411 172q78 76 125 185q45 104 45 227q0 114 -49 221q-39 100 -125 186q-74 78 -180 127q-100 47 -227 47.5t-226 -45.5q-96 -43 -182 -127q-84 -80 -129 -186 q-47 -110 -47 -223zM316 1915q0 -74 41 -121q43 -68 131 -113q92 -43 192 -43q141 0 240 76l49 41l39 39q16 27 18.5 29t12.5 32.5t10 59.5q0 -86 -23 -164q-16 -45 -30 -72q-15 -31 -43 -61q-41 -51 -113 -84q-31 -14 -74 -25q-33 -8 -82 -8q-147 0 -262 121q-6 8 -13 15 t-10 12l-3 4l-2 4q-2 4 -6.5 10t-8.5 12q-25 31 -39 72l-18 76q-6 33 -6 88zM396 2111q0 35 30 66q29 27 62 27q15 0 31 -7q10 -4 30 -20q33 -29 33 -66q0 -35 -29 -63q-8 -8 -28 -21q-14 -8 -37 -8q-37 0 -66 29q-26 26 -26 63zM789 2107q0 33 27 60q35 29 67.5 28.5 t59.5 -24.5q25 -20 30 -64q0 -33 -26 -61q-29 -29 -64 -29q-39 0 -70 25q-24 24 -24 65zM59 528q0 244 177 402q174 156 450 155q272 0 438 -153.5t166 -403.5q0 -246 -178 -401q-176 -156 -448 -156q-274 0 -439 152q-166 153 -166 405zM410 528q0 -180 71 -288 q74 -111 197 -111q125 0 192 109q70 111 70 290q0 176 -72 289q-70 111 -198 111q-121 0 -193 -109q-29 -47 -49 -129q-18 -74 -18 -162z" />
<glyph unicode="&#xf9;" horiz-adv-x="1312" d="M371 1476l121 60q37 16 63 32q33 18 58 39q84 -59 143 -129q74 -76 121 -198l-119 -72q-98 111 -184 166q-59 37 -92 53zM6 942v88q35 0 88 4q23 2 86 15q74 9 172 36h133l-10 -354v-268q0 -127 45 -201q43 -72 129 -72t135 86q51 90 52 228v168l-11 246l-141 24v88 q35 0 84 4q16 2 86 15q71 9 172 36h139l-12 -364v-254l10 -365l119 -20v-88l-213 6l-215 -6l10 176q-66 -90 -168 -145q-98 -53 -204 -54q-150 0 -242 86t-92 234v381l-8 246z" />
<glyph unicode="&#xfa;" horiz-adv-x="1312" d="M641 1280q45 115 116 198q59 72 146 129q43 -33 119 -71l122 -60q-115 -39 -202 -100q-94 -66 -185 -168zM6 942v88q35 0 88 4q23 2 86 15q74 9 172 36h133l-10 -354v-268q0 -127 45 -201q43 -72 129 -72t135 86q51 90 52 228v168l-11 246l-141 24v88q35 0 84 4 q16 2 86 15q71 9 172 36h139l-12 -364v-254l10 -365l119 -20v-88l-213 6l-215 -6l10 176q-66 -90 -168 -145q-98 -53 -204 -54q-150 0 -242 86t-92 234v381l-8 246z" />
<glyph unicode="&#xfb;" horiz-adv-x="1312" d="M6 942v88q35 0 88 4q23 2 86 15q74 9 172 36h133l-10 -354v-268q0 -127 45 -201q43 -72 129 -72t135 86q51 90 52 228v168l-11 246l-141 24v88q35 0 84 4q16 2 86 15q71 9 172 36h139l-12 -364v-254l10 -365l119 -20v-88l-213 6l-215 -6l10 176q-66 -90 -168 -145 q-98 -53 -204 -54q-150 0 -242 86t-92 234v381l-8 246z" />
<glyph unicode="&#xfc;" horiz-adv-x="1312" d="M88 1878q0 133 53 256q29 68 62 115q31 45 83 98q82 88 209 145q119 53 262.5 53.5t258.5 -53.5q66 -31 112.5 -61.5t100.5 -83.5q86 -86 141 -213q57 -131 57 -256q0 -276 -198 -473q-201 -197 -469 -197q-133 0 -258 53.5t-213 141.5q-90 90 -148 213q-53 125 -53 262z M176 1878q0 -127 47 -227q49 -106 125 -185q39 -43 82 -69q59 -37 102 -58q47 -18 111 -33q58 -12 117 -12q230 0 411 172q78 76 125 185q45 104 45 227q0 114 -49 221q-39 100 -125 186q-74 78 -180 127q-100 47 -227 47.5t-226 -45.5q-96 -43 -182 -127q-84 -80 -129 -186 q-47 -110 -47 -223zM387 1915q0 -74 41 -121q43 -68 131 -113q92 -43 192 -43q141 0 240 76l49 41l39 39q16 27 18.5 29t12.5 32.5t10 59.5q0 -86 -23 -164q-16 -45 -30 -72q-15 -31 -43 -61q-41 -51 -113 -84q-31 -14 -74 -25q-33 -8 -82 -8q-147 0 -262 121q-6 8 -13 15 t-10 12l-3 4l-2 4q-2 4 -6.5 10t-8.5 12q-25 31 -39 72l-18 76q-6 33 -6 88zM467 2111q0 35 30 66q29 27 62 27q15 0 31 -7q10 -4 30 -20q33 -29 33 -66q0 -35 -29 -63q-8 -8 -28 -21q-14 -8 -37 -8q-37 0 -66 29q-26 26 -26 63zM860 2107q0 33 27 60q35 29 67.5 28.5 t59.5 -24.5q25 -20 30 -64q0 -33 -26 -61q-29 -29 -64 -29q-39 0 -70 25q-24 24 -24 65zM6 942v88q35 0 88 4q23 2 86 15q74 9 172 36h133l-10 -354v-268q0 -127 45 -201q43 -72 129 -72t135 86q51 90 52 228v168l-11 246l-141 24v88q35 0 84 4q16 2 86 15q71 9 172 36h139 l-12 -364v-254l10 -365l119 -20v-88l-213 6l-215 -6l10 176q-66 -90 -168 -145q-98 -53 -204 -54q-150 0 -242 86t-92 234v381l-8 246z" />
<glyph unicode="&#xfd;" horiz-adv-x="1169" d="M473 1280q45 115 116 198q59 72 146 129q43 -33 119 -71l122 -60q-115 -39 -202 -100q-94 -66 -185 -168zM-78 -537l51 160l33 166l94 -6l13 -94l45 -17l71 -8q125 0 222 109q94 106 118 184l17 37h-135l-185 483l-90 232l-100 243l-86 23v86l274 -4l275 4v-84l-99 -23 l236 -737l211 737l-99 21v86l201 -4l203 4v-84l-53 -25q-125 -262 -226 -520l-188 -512q-83 -237 -246 -362q-162 -125 -377 -125h-32q-14 0 -52 10q-4 0 -13 2t-16 3t-14 1q-2 0 -53 14z" />
<glyph unicode="&#xff;" horiz-adv-x="1169" d="M-78 1878q0 133 53 256q29 68 62 115q31 45 83 98q82 88 209 145q119 53 262.5 53.5t258.5 -53.5q66 -31 112.5 -61.5t100.5 -83.5q86 -86 141 -213q57 -131 57 -256q0 -276 -198 -473q-201 -197 -469 -197q-133 0 -258 53.5t-213 141.5q-90 90 -148 213q-53 125 -53 262 zM10 1878q0 -127 47 -227q49 -106 125 -185q39 -43 82 -69q59 -37 102 -58q47 -18 111 -33q58 -12 117 -12q230 0 411 172q78 76 125 185q45 104 45 227q0 114 -49 221q-39 100 -125 186q-74 78 -180 127q-100 47 -227 47.5t-226 -45.5q-96 -43 -182 -127q-84 -80 -129 -186 q-47 -110 -47 -223zM221 1915q0 -74 41 -121q43 -68 131 -113q92 -43 192 -43q141 0 240 76l49 41l39 39q16 27 18.5 29t12.5 32.5t10 59.5q0 -86 -23 -164q-16 -45 -30 -72q-15 -31 -43 -61q-41 -51 -113 -84q-31 -14 -74 -25q-33 -8 -82 -8q-147 0 -262 121q-6 8 -13 15 t-10 12l-3 4l-2 4q-2 4 -6.5 10t-8.5 12q-25 31 -39 72l-18 76q-6 33 -6 88zM301 2111q0 35 30 66q29 27 62 27q15 0 31 -7q10 -4 30 -20q33 -29 33 -66q0 -35 -29 -63q-8 -8 -28 -21q-14 -8 -37 -8q-37 0 -66 29q-26 26 -26 63zM694 2107q0 33 27 60q35 29 67.5 28.5 t59.5 -24.5q25 -20 30 -64q0 -33 -26 -61q-29 -29 -64 -29q-39 0 -70 25q-24 24 -24 65zM-78 -537l51 160l33 166l94 -6l13 -94l45 -17l71 -8q125 0 222 109q94 106 118 184l17 37h-135l-185 483l-90 232l-100 243l-86 23v86l274 -4l275 4v-84l-99 -23l236 -737l211 737 l-99 21v86l201 -4l203 4v-84l-53 -25q-125 -262 -226 -520l-188 -512q-83 -237 -246 -362q-162 -125 -377 -125h-32q-14 0 -52 10q-4 0 -13 2t-16 3t-14 1q-2 0 -53 14z" />
<glyph unicode="&#x152;" horiz-adv-x="724" d="M35 928l6 18q16 0 33 -4q20 0 37 -8q14 -2 45 -27q25 -14 57 -53l6 -10q6 -6 8 -13l33 -59l23 -33l39 -77l6 -11.5l6 -11.5q4 -8 20 -25l23 -32l16 -19l6 -12q2 -2 4.5 -5t2.5 -5q2 -6 6 -13l20 -34l8 -13l6 -10l52 -78l34 45l19 54l24 49h13h26l23 -9l41 -26l6 -19 l4 -22q0 -25 -4 -33q0 -27 -6 -41l-68 -172l-18 -2q-9 0 -25 -6l-32 -6q-25 4 -35 6q-12 4 -23 16q-18 22 -31 49l-43 76l-57 103l-39 67l-14 23q-4 10 -8 12l-25 41l-47 74l-33 55l-61 92l-10 15q-2 10 -9 14l-22 24z" />
<glyph unicode="&#x153;" horiz-adv-x="1138" d="M35 -41l26 55q4 14 39 66l35 55l49 72l56 76q6 6 34 45q16 23 26.5 35t14.5 18l78 104l70 82l-154 445l25 47l26 12l13 -6l20 -14l15 16l16 -8l31 33l32 -9l152 -305l303 357h27l43 -29l47 39l12 -29l35 -49l-47 -59l-94 -113q-25 -29 -97 -129l-129 -180l193 -430 l-25 -21v-14l-39 -33l15 -29q-4 -8 -29 -32q-20 -12 -35 -15l-12 6q-6 3 -19 13q-12 10 -22 22q-10 14 -23 35l-90 145l-80 136l-180 -265q-6 -14 -35 -59l-59 -98l-57 -99l-31 -53l-35 -12l-80 -10l-41 55l-14 45l14 55z" />
<glyph unicode="&#x178;" horiz-adv-x="1251" d="M35 6v248h37l14 -14l8 14h19l47 41h33v39l22 20h39v43h20l103 99v24h39v35l18 20h43l21 23h41v57l59 60h16l23 22h37l22 -22l78 -117v-199h-18l-60 -65l35 -39h47l62 59h59v43h62l40 41h37v37h41v107l-20 20v39l-21 18v43h-37v23l-40 37h-25l-21 18l-182 121h-80l-78 -80 h-20l-78 -82h-43l-80 -80h-20l-19 -18h-16l-66 -59h-20l-20 -25h-37v-35h-23l-45 -41h-16l-37 -22v723h1184v-1176h-1184z" />
<glyph unicode="&#x2c6;" horiz-adv-x="0" />
<glyph unicode="&#x2dc;" horiz-adv-x="532" d="M-182 1298l65 68q29 27 76 66q76 59 152 59q25 0 71 -10q33 -6 103 -35q123 -43 182 -43q43 0 88 27q6 2 39 26q8 6 39 37q8 -18 39 -49l47 -41l-68 -70t-71 -63q-76 -59 -152 -60q-49 0 -172 45q-117 43 -184 43q-45 0 -90 -28q-43 -20 -76 -60q-6 12 -41 47z" />
<glyph unicode="&#x2000;" horiz-adv-x="1501" />
<glyph unicode="&#x2001;" horiz-adv-x="3006" />
<glyph unicode="&#x2002;" horiz-adv-x="1501" />
<glyph unicode="&#x2003;" horiz-adv-x="3006" />
<glyph unicode="&#x2004;" horiz-adv-x="1001" />
<glyph unicode="&#x2005;" horiz-adv-x="749" />
<glyph unicode="&#x2006;" horiz-adv-x="499" />
<glyph unicode="&#x2007;" horiz-adv-x="499" />
<glyph unicode="&#x2008;" horiz-adv-x="372" />
<glyph unicode="&#x2009;" horiz-adv-x="600" />
<glyph unicode="&#x200a;" horiz-adv-x="163" />
<glyph unicode="&#x2010;" horiz-adv-x="888" d="M96 453q27 39 51 96q14 23 21 41q20 51 20 55l605 2q-27 -43 -50 -96l-24 -49q-6 -10 -17 -47z" />
<glyph unicode="&#x2011;" horiz-adv-x="888" d="M96 453q27 39 51 96q14 23 21 41q20 51 20 55l605 2q-27 -43 -50 -96l-24 -49q-6 -10 -17 -47z" />
<glyph unicode="&#x2012;" horiz-adv-x="888" d="M96 453q27 39 51 96q14 23 21 41q20 51 20 55l605 2q-27 -43 -50 -96l-24 -49q-6 -10 -17 -47z" />
<glyph unicode="&#x2013;" horiz-adv-x="958" d="M-92 453q27 39 51 96q14 23 21 41q20 51 20 55h442l609 2l-29 -51l-23 -45q-25 -47 -41 -96h-442z" />
<glyph unicode="&#x2014;" horiz-adv-x="1916" d="M-41 453q16 25 53 98q6 14 12.5 27.5l9.5 19.5l3 6q2 8 7 22.5t7 18.5h1309l602 2q-27 -43 -49 -96l-25 -49q-6 -10 -16 -47h-1311z" />
<glyph unicode="&#x2018;" horiz-adv-x="673" d="M135 657q0 211 86 420q86 211 197 305l135 -77q-29 -94 -49 -177q-18 -77 -19 -135l-4 -291z" />
<glyph unicode="&#x2019;" horiz-adv-x="673" d="M121 739q29 86 45 168q18 88 22 144q0 18 5 157q0 27 1 59.5t2 50t1 25.5l342 43q0 -217 -86 -419q-86 -201 -199 -305z" />
<glyph unicode="&#x201a;" horiz-adv-x="673" d="M121 -342q27 84 45 170t22 143q0 16 5 156q0 27 1 59.5t2 50t1 27.5l342 43q0 -113 -20.5 -213t-67.5 -207q-86 -201 -197 -305z" />
<glyph unicode="&#x201c;" horiz-adv-x="958" d="M23 657q0 207 88 420q86 211 196 305l133 -77q-35 -113 -49 -177q-14 -66 -14 -135q0 -6 -4 -153q0 -29 -1 -62t-2 -50t-1 -26zM520 657q0 207 88 420q86 211 197 305l135 -77q-35 -113 -49 -177q-16 -76 -17 -135q0 -80 -2 -153q0 -29 -1 -62t-2 -50t-1 -26z" />
<glyph unicode="&#x201d;" horiz-adv-x="958" d="M14 739q33 102 49 174q16 68 17 138q0 78 2 100q8 156 8 192l342 43q0 -213 -88 -419q-88 -205 -197 -305zM512 739q33 102 49 174q18 78 19 138v100q2 45 5 95t4 70.5t1 26.5l340 43q0 -213 -88 -419q-88 -209 -195 -305z" />
<glyph unicode="&#x201e;" horiz-adv-x="958" d="M14 -342q25 80 47 176q18 80 19 137q0 76 2 99q8 158 8 194l342 43q0 -212 -86 -418q-84 -203 -199 -307zM512 -342q33 104 49 176q18 80 19 137v99q2 47 5 97t4 70.5t1 26.5l340 43q0 -212 -86 -417.5t-197 -307.5z" />
<glyph unicode="&#x2022;" horiz-adv-x="669" d="M102 673.5q0 100.5 72 168t164 67.5q98 0 170 -71q70 -70 70 -164q0 -98 -70 -170q-72 -70 -170 -70q-96 0 -166 69.5t-70 170z" />
<glyph unicode="&#x2026;" horiz-adv-x="724" d="M35 449q-4 20 18 57l35 26l25 9h22h21l18 -49l8 -29l11 -25l34 -45l52 78l34 57l21 35l12 12l2 7q6 16 31 45l35 59l67 111l6 16q0 2 1 5t4 5l2 3q2 3 4 5l14 23q18 37 76 68q59 25 96 24l4 -18l-39 -56l-22 -24l-82 -121l-31 -55l-51 -74l-84 -143l-80 -148l-33 -53 l-26 -37q-3 -3 -50 -12q-35 0 -57 12h-12l-6 2l-39 100l-23 72z" />
<glyph unicode="&#x202f;" horiz-adv-x="600" />
<glyph unicode="&#x2039;" horiz-adv-x="0" />
<glyph unicode="&#x203a;" horiz-adv-x="0" />
<glyph unicode="&#x205f;" horiz-adv-x="749" />
<glyph unicode="&#x2122;" horiz-adv-x="1067" d="M41 1260v94h371v-94h-31q0 25 -16.5 47t-42.5 22h-64v-340q0 -29 6 -35t47 -12v-20h-172v20q39 0 47.5 8t8.5 39v340h-66q-23 0 -41 -20q-16 -18 -16 -49h-31zM469 922v20q34 0 43 12q8 10 8 35v297q0 29 -8 37q-10 10 -43 10v21h102l174 -348l175 348h98v-21 q-37 0 -47 -8q-6 -10 -6 -39v-297q0 -27 6 -35q4 -6 47 -12v-20h-168v20q35 0 45 12q8 10 8 35v266l-168 -333h-16l-166 333v-266q0 -29 6 -35t49 -12v-20h-139z" />
<glyph unicode="&#xe000;" horiz-adv-x="1060" d="M0 1060h1060v-1060h-1060v1060z" />
<glyph unicode="&#xfb01;" horiz-adv-x="1415" d="M786 942v88q18 2 50 5t44 3q33 2 76 11q51 6 170 36h139l-12 -280v-410l10 -289l123 -24v-88l-293 6l-282 -6v88l119 24l8 289v219l-11 304zM919 1372q0 63 54 121q53 55 124 55q66 0 121 -55q27 -27 41.5 -55.5t14.5 -65.5q0 -68 -54 -125q-51 -53 -123 -53 q-66 0 -124 53q-54 53 -54 125zM41 911v88l131 58v61q0 187 147 307q150 121 353 121q106 0 172 -12q63 -12 100 -31l-108 -293l-93 21v102l-41 21q-31 10 -71 10q-77 0 -111 -49q-35 -51 -35 -150v-108l244 4l-61 -156l-183 2v-512q0 -94 11 -200l6 -89l149 -24v-88l-321 6 l-287 -6v88l123 24l6 289v516h-131z" />
<glyph unicode="&#xfb02;" horiz-adv-x="1415" d="M790 1382v88l46 5.5t42.5 3.5t79.5 12q53 6 168 37h139l-12 -281v-852l12 -289l119 -24v-88l-287 6l-286 -6v88l121 24l6 289v662l-8 301zM41 911v88l131 58v61q0 187 147 307q150 121 353 121q106 0 172 -12q63 -12 100 -31l-108 -293l-93 21v102l-41 21q-31 10 -71 10 q-77 0 -111 -49q-35 -51 -35 -150v-108l244 4l-61 -156l-183 2v-512q0 -94 11 -200l6 -89l149 -24v-88l-321 6l-287 -6v88l123 24l6 289v516h-131z" />
<glyph unicode="&#xfb03;" horiz-adv-x="2197" d="M1569 942v88q18 2 50 5t44 3q33 2 76 11q51 6 170 36h139l-12 -280v-410l10 -289l123 -24v-88l-293 6l-282 -6v88l119 24l8 289v219l-11 304zM1702 1372q0 63 54 121q53 55 124 55q66 0 121 -55q27 -27 41.5 -55.5t14.5 -65.5q0 -68 -54 -125q-51 -53 -123 -53 q-66 0 -124 53q-54 53 -54 125zM821 911v88l131 58v61q0 187 147 307q150 121 353 121q106 0 172 -12q63 -12 100 -31l-108 -293l-93 21v102l-41 21q-31 10 -71 10q-77 0 -111 -49q-35 -51 -35 -150v-108l244 4l-61 -156l-183 2v-512q0 -94 11 -200l6 -89l149 -24v-88 l-321 6l-287 -6v88l123 24l6 289v516h-131zM41 911v88l131 58v61q0 187 147 307q150 121 353 121q106 0 172 -12q63 -12 100 -31l-108 -293l-93 21v102l-41 21q-31 10 -71 10q-77 0 -111 -49q-35 -51 -35 -150v-108l244 4l-61 -156l-183 2v-512q0 -94 11 -200l6 -89l149 -24 v-88l-321 6l-287 -6v88l123 24l6 289v516h-131z" />
<glyph unicode="&#xfb04;" horiz-adv-x="2197" d="M1573 1382v88l46 5.5t42.5 3.5t79.5 12q53 6 168 37h139l-12 -281v-852l12 -289l119 -24v-88l-287 6l-286 -6v88l121 24l6 289v662l-8 301zM821 911v88l131 58v61q0 187 147 307q150 121 353 121q106 0 172 -12q63 -12 100 -31l-108 -293l-93 21v102l-41 21 q-31 10 -71 10q-77 0 -111 -49q-35 -51 -35 -150v-108l244 4l-61 -156l-183 2v-512q0 -94 11 -200l6 -89l149 -24v-88l-321 6l-287 -6v88l123 24l6 289v516h-131zM41 911v88l131 58v61q0 187 147 307q150 121 353 121q106 0 172 -12q63 -12 100 -31l-108 -293l-93 21v102 l-41 21q-31 10 -71 10q-77 0 -111 -49q-35 -51 -35 -150v-108l244 4l-61 -156l-183 2v-512q0 -94 11 -200l6 -89l149 -24v-88l-321 6l-287 -6v88l123 24l6 289v516h-131z" />
</font>
</defs>
</svg>
