<?xml version="1.0" standalone="no"?>
<!DOCTYPE svg PUBLIC "-//W3C//DTD SVG 1.1//EN" "http://www.w3.org/Graphics/SVG/1.1/DTD/svg11.dtd" >
<svg xmlns="http://www.w3.org/2000/svg">
<metadata>
This is a custom SVG webfont generated by Font Squirrel.
Copyright   : Copyright c1994 STAR Retrieval Systems All Rights Reserved
</metadata>
<defs>
<font id="webfontSHO92090" horiz-adv-x="1280" >
<font-face units-per-em="2048" ascent="1638" descent="-410" />
<missing-glyph horiz-adv-x="567" />
<glyph unicode=" "  horiz-adv-x="567" />
<glyph unicode="&#x09;" horiz-adv-x="567" />
<glyph unicode="&#xa0;" horiz-adv-x="567" />
<glyph unicode="!" horiz-adv-x="849" d="M158 1288v72l270 -6l266 8v-74l-125 -20l-69 -832h-150l-67 832zM287 110.5q0 59.5 41 100.5t96 41t96 -43q41 -37 41 -98q0 -57 -41 -98.5t-96 -41.5q-57 0 -98 41q-39 39 -39 98.5z" />
<glyph unicode="&#x22;" horiz-adv-x="886" d="M184 1282q0 39 29 74q31 31 68 30q35 0 65.5 -30.5t30.5 -73.5l-23 -418q-10 -98 -73.5 -98t-73.5 98zM492 1282q0 39 28 74q31 31 68 30q35 0 65.5 -30.5t30.5 -73.5l-22 -418q-10 -98 -74 -98t-74 98z" />
<glyph unicode="#" d="M96 416v127h203l35 268h-184v127h200l58 436h135l-58 -436h248l58 436h135l-58 -436h185v-127h-203l-35 -268h184v-127h-200l-56 -416h-135l56 416h-248l-58 -416h-133l56 416h-185zM432 543h250l35 268h-250z" />
<glyph unicode="$" d="M80 147l26 64l25 63l35 129l82 -12l2 -117l47 -24q58 -31 117 -55q111 -43 219 -43q127 0 211 57q86 57 86 147q0 102 -92 158q-41 27 -101 47q-61 22 -141 43q-139 39 -215 70q-80 31 -143 71q-106 76 -107 209q0 164 156 273q70 47 145 73q82 29 174 29v199l119 28 v-223q55 0 104 -6q53 -6 107 -18q121 -23 219 -58l-25 -63q-18 -55 -22 -72l-33 -135l-71 10v125q-23 16 -50 27q-31 12 -86 31q-98 35 -217 34q-115 0 -182 -43q-70 -45 -70 -123q0 -92 93 -137q78 -35 104 -43q53 -18 139 -37q270 -72 365 -153q96 -84 96 -228 q0 -182 -166 -305q-58 -40 -135 -67q-78 -29 -170 -43v-260l-119 -33v287q-152 0 -287 38q-138 40 -239 86z" />
<glyph unicode="%" horiz-adv-x="1775" d="M41 1004q0 168 111 272q117 111 282.5 110.5t280.5 -108.5q111 -104 110 -270q0 -168 -108.5 -274.5t-282.5 -106.5t-284 104q-109 103 -109 273zM231 -63l1104 1449l203 29l-1092 -1448zM231 1008q0 -131 54 -207q51 -74 149 -74q94 0 146 74q51 72 51 207 q0 117 -56 196q-53 78 -141 78q-92 0 -145 -78q-58 -81 -58 -196zM944 346q0 170 111 277q113 109 284 108q162 0 277 -108.5t115 -274.5q0 -164 -111 -272q-113 -109 -281 -109q-174 0 -284.5 104.5t-110.5 274.5zM1137 348q0 -135 51 -206.5t151 -71.5q96 0 146 73 q51 78 51 205q0 121 -55 201q-53 78 -142 78q-86 0 -145 -80q-57 -78 -57 -199z" />
<glyph unicode="&#x26;" horiz-adv-x="1738" d="M102 387q0 150 91 262q82 96 247 152l-24 45q-27 53 -27 129q0 182 137 295q141 117 340 116q117 0 205 -63q90 -66 90 -178q0 -139 -127 -238q-98 -71 -307 -129q113 -143 193 -215q115 -104 223 -184q10 12 31 41q10 14 28 51q55 98 55 277l-102 -5l-18 66l80 27 q31 10 77 34q90 45 95 50q18 6 59 34v-30q0 -66 -4 -97q0 -39 -2 -61q-4 -45 -8 -70q-23 -145 -99 -276q-51 -80 -82 -115q150 -92 324 -153l121 24l20 -67l-286 -144q-68 31 -80 37l-119 61l-135 84q-41 -37 -90 -69q-41 -27 -103 -55q-49 -25 -133 -41q-70 -14 -170 -15 q-225 0 -364 133q-66 66 -101 139.5t-35 147.5zM360 455q0 -141 98.5 -233.5t233.5 -92.5q45 0 101 10q41 8 90 29q25 10 47 25l51 32q-139 92 -266 213q-123 123 -203 250q-61 -33 -96 -76q-56 -63 -56 -157zM604 1042q0 -31 14 -77q12 -39 41 -91q106 35 191 87 q96 59 96 147q0 78 -43 115q-16 16 -47 26.5t-65 10.5q-70 0 -127 -56q-60 -56 -60 -162z" />
<glyph unicode="'" horiz-adv-x="638" d="M227 1282q0 41 27 74q31 31 67.5 30.5t67.5 -30.5q29 -29 29 -74l-23 -418q-10 -98 -73.5 -98t-71.5 98z" />
<glyph unicode="(" horiz-adv-x="708" d="M184 463q0 322 138 563q139 244 258 336l82 -68q-70 -78 -156 -315q-41 -117 -64 -246q-20 -117 -20 -270q0 -147 18 -270q18 -119 66 -246q84 -231 156 -314l-82 -67q-123 96 -258 340q-138 250 -138 557z" />
<glyph unicode=")" horiz-adv-x="708" d="M35 -367q72 78 164 314q45 125 65 246q23 131 23 270q0 152 -21 272q-20 119 -65 242q-41 113 -86 199q-41 80 -80 118l82 68q125 -90 266 -336t141 -563.5t-141 -556.5q-74 -127 -135 -207q-68 -86 -131 -133z" />
<glyph unicode="*" horiz-adv-x="919" d="M123 1036q0 66 14 115q14 41 56 100q43 -39 88 -65l55 -33l92 -57l-39 170q-10 45 -37 102q18 6 56 14q18 4 57 4q55 0 115 -18q-8 -14 -19 -45q-6 -20 -10 -34.5t-8 -24.5l-41 -168l147 90q4 2 12.5 8l15.5 11t15 9q25 15 49 37q33 -43 50 -100q18 -45 18 -115l-70 4 l-43 -2q-51 0 -168 -14l129 -111q25 -20 39 -30q37 -27 52 -35q-37 -47 -78 -78q-47 -35 -103 -53q-2 4 -16 55q-4 12 -19 49l-67 160l-66 -160l-16 -49q-10 -33 -16 -55q-66 18 -103 49q-45 35 -80 82l90 65l129 111l-172 14l-38 2z" />
<glyph unicode="+" horiz-adv-x="1148" d="M90 422v133h420v416h135v-416h416v-133h-416v-420h-135v420h-420z" />
<glyph unicode="," horiz-adv-x="638" d="M106 -309q55 141 72 272q8 78 10 119q4 82 5 139l129 8l127 23q0 -141 -66 -315.5t-178 -305.5z" />
<glyph unicode="-" horiz-adv-x="849" d="M57 477l62 137h104l502 2l-61 -137h-105z" />
<glyph unicode="." horiz-adv-x="638" d="M180 111q0 61 41 100q45 41 101 41q53 0 96 -43t43 -98.5t-43 -98.5q-41 -41 -96.5 -41t-100.5 41q-41 40 -41 99z" />
<glyph unicode="/" horiz-adv-x="1169" d="M53 -63l891 1478l172 27l-893 -1481z" />
<glyph unicode="0" d="M94 676q0 322 145.5 516t399.5 194q256 0 401.5 -194.5t145.5 -515.5q0 -317 -145.5 -512t-401.5 -195q-250 0 -397 195q-148 193 -148 512zM362 676q0 -266 70 -424q68 -156 207 -156q141 0 209 156q70 158 70 424t-70 428q-68 156 -209 156q-137 0 -211 -156 q-66 -156 -66 -428z" />
<glyph unicode="1" d="M332 1202v68l50.5 15t35.5 10t14 3q51 20 66 25q100 37 155 63h135l-14 -444v-547q0 -113 10 -211q8 -88 15 -96l121 -25v-69l-281 6l-272 -6v69l118 25l13 94q8 84 8 213v492l-8 315h-166z" />
<glyph unicode="2" d="M31 88q145 102 268 213l121 115q80 80 112 119q51 53 150 204q92 141 92 289q0 98 -61 160q-57 59 -158 59q-88 0 -162 -35l-45 -20q-25 -10 -45 -27v-127l-72 -10q-6 72 -41 174l-32 98l141 50q102 37 276 36q209 0 351 -106q139 -104 139 -268t-121 -316l-104 -129 q-35 -39 -88 -88q-123 -106 -189 -155q-2 -2 -94 -72l-100 -74h178q22 0 117 6t147 6q61 0 117 7q12 2 26.5 4t21.5 4t9 2l68 121l73 -23l-43 -158q-23 -80 -34 -153l-494 6l-492 -6z" />
<glyph unicode="3" d="M55 205l254 164l43 -47l-49 -86q31 -51 88 -89q63 -41 168 -41q135 0 232 97q94 94 94 235q0 119 -84 190.5t-209 71.5l-164 -16l-22 100q131 20 239 97q111 76 111 204q0 29 -13 66q-8 27 -36 51q-47 45 -136 45q-84 0 -133 -24q-18 -8 -30 -15q-16 -8 -41 -24v-90 l-74 -19q-18 68 -49 148l-33 82q14 10 131 49q115 33 272 32q166 0 289 -88q121 -86 121 -211q0 -47 -12 -83q-14 -45 -37 -72q-47 -68 -217 -127q213 0 311 -111q96 -109 96 -241q0 -199 -186 -342q-184 -141 -444 -142q-195 0 -318 80q-125 80 -162 156z" />
<glyph unicode="4" d="M68 506l165 239l166 246l156 244l154 248h149l16 -27l-196 -285l-117 -172l-305 -454h451v538l198 105l58 -43l-9 -225v-375h23q45 0 94 14l55 16l39 -30l-86 -150h-125q0 -135 7 -215q6 -76 14 -92l108 -25v-69l-256 6l-307 -6v69l156 25l16 94q8 53 10 94q4 66 5 119 h-572z" />
<glyph unicode="5" d="M88 274l240 146l47 -58l-64 -75q29 -74 92 -129q66 -51 177 -52q145 0 231 80t86 222q0 135 -82 210q-84 78 -221 78q-86 0 -148 -26q-68 -29 -135 -82l-121 71l127 668l50 31l352 -2h37h28h25h20q45 0 66 2q47 4 69.5 8l40 7t25.5 5q27 4 45 13l35 -37q-41 -35 -80 -84 q-29 -37 -65 -99h-525l-84 -399q68 41 156 70q82 27 172 26q205 0 344 -123q137 -123 137 -305q0 -209 -163.5 -340t-421.5 -131q-205 0 -316 84q-115 88 -176 221z" />
<glyph unicode="6" d="M113 532q0 354 278 633q276 276 606 363l45 -90q-334 -127 -532 -406q-117 -158 -148 -358q35 47 66 78q35 35 66 51q104 63 237 63q190 0 316 -118q127 -121 127 -308q0 -205 -145.5 -338t-369.5 -133q-242 0 -393 144q-153 145 -153 419zM371 432q0 -156 88 -248 q86 -90 204.5 -90t186.5 82q70 86 70 215q0 139 -80 232q-82 94 -197 94t-192 -80q-80 -74 -80 -205z" />
<glyph unicode="7" d="M184 1073l68 287l854 -2l37 -72q-84 -111 -170 -274q-74 -139 -150 -330q-72 -178 -108 -348q-39 -174 -39 -340q-92 -20 -150 -47q-70 -33 -118 -82l-72 22q47 233 110 422q63 186 152 367q176 350 315 500q-133 10 -260 10h-45q-164 0 -297 -29l-59 -110z" />
<glyph unicode="8" d="M123 338q0 132 67 227q68 96 248 142q-150 59 -205 137q-49 80 -49 153q0 170 129 279q133 111 326 110q201 0 326 -88q123 -86 122 -233q0 -111 -69 -191q-70 -78 -221 -114q166 -31 266 -139q98 -109 98 -240q0 -178 -149 -295q-151 -117 -381 -117q-223 0 -367 101 q-141 98 -141 268zM336 369q0 -119 80 -193q82 -70 217 -70q113 0 190 64q80 65 80 160q0 125 -141 205l-121 63q-47 25 -90 39q-55 -16 -135 -86q-80 -71 -80 -182zM432 1077q0 -104 96 -172q57 -37 84 -51q31 -16 64 -29q66 14 131 73.5t65 154.5q0 80 -67 147 q-70 59 -166 60q-82 0 -145 -54q-62 -52 -62 -129z" />
<glyph unicode="9" d="M102 899q0 205 147.5 346t366.5 141q248 0 396 -141q80 -76 114 -176q39 -111 39 -248q0 -356 -272 -628.5t-608 -366.5l-47 90q315 123 522 391q123 162 153 367q-55 -80 -127 -125q-115 -63 -229 -64q-188 0 -324 123q-131 119 -131 291zM362 965q0 -70 19 -125 q18 -57 59 -109q80 -94 193 -94q106 0 190 75.5t84 207.5q0 163 -86 251t-207 89q-115 0 -182 -84q-70 -76 -70 -211z" />
<glyph unicode=":" horiz-adv-x="638" d="M180 111q0 61 41 100q45 41 101 41q53 0 96 -43t43 -98.5t-43 -98.5q-41 -41 -96.5 -41t-100.5 41q-41 40 -41 99zM180 705q0 59 41 98q45 41 101 41q53 0 96 -43t43 -96q0 -57 -43 -101q-41 -41 -96.5 -41t-100.5 41q-41 40 -41 101z" />
<glyph unicode=";" horiz-adv-x="638" d="M106 -309q55 141 72 272q8 78 10 119q4 82 5 139l129 8l127 23q0 -141 -66 -315.5t-178 -305.5zM180 705q0 59 41 98q45 41 101 41q53 0 96 -43t43 -96q0 -57 -43 -101q-41 -41 -96.5 -41t-100.5 41q-41 40 -41 101z" />
<glyph unicode="&#x3c;" horiz-adv-x="1148" d="M90 424v123l969 444v-141l-787 -365l787 -366v-139z" />
<glyph unicode="=" horiz-adv-x="1148" d="M90 227v133h967v-133h-967zM90 610v133h967v-133h-967z" />
<glyph unicode="&#x3e;" horiz-adv-x="1148" d="M90 -20v139l789 366l-789 365v141l969 -444v-123z" />
<glyph unicode="?" horiz-adv-x="993" d="M76 1298q18 10 65 29l76 27q115 33 256 32q217 0 334 -94q113 -92 113 -225q0 -137 -117 -241.5t-305 -141.5l-19 -205l-127 -35l-65 306l47 47q160 20 237 102q80 83 80 172q0 76 -49 125q-45 51 -129 51q-82 0 -145 -28q-59 -27 -82 -50v-110l-72 -21q-33 129 -68 199z M248 110.5q0 59.5 41 100.5t96 41q58 0 98 -43q39 -37 39 -98q0 -59 -39 -99q-41 -41 -98 -41t-98 41q-39 39 -39 98.5z" />
<glyph unicode="@" horiz-adv-x="1148" d="M45 514q0 205 162 367q160 160 395 159q219 0 365 -127q143 -125 143 -299q0 -163 -92 -282t-199 -119q-20 0 -41 4q-16 4 -39 16q-39 27 -57 89q-18 -29 -76 -70q-52 -37 -117 -37q-57 0 -106 51q-49 53 -49 150q0 121 92 245.5t223 124.5q14 0 30.5 -4t39.5 -18 q31 -20 47 -70l20 62h113l-100 -391l-6 -31q0 -27 14 -41q20 -18 41 -19q55 0 120.5 102.5t65.5 239.5q0 141 -123 250q-125 109 -307 109q-170 0 -295 -137.5t-125 -329.5q0 -197 131 -332q129 -131 287 -131q102 0 199 23q92 20 125 51l20 -58q-34 -28 -129 -55 q-98 -29 -203 -29q-248 0 -407 160q-162 162 -162 377zM463 403q0 -55 35 -86q33 -27 69 -26q66 0 121 115q23 47 39 108q12 43 12 88q0 51 -20 80q-23 33 -55 33q-78 0 -139.5 -105t-61.5 -207z" />
<glyph unicode="A" horiz-adv-x="1490" d="M14 -6v69l107 21q27 61 125 307l121 311l221 617l114 29l113 38l84 -28l107 -316l112 -319q127 -344 250 -635l113 -25v-69l-273 6l-272 -6v69l129 25l-135 432h-471l-125 -432l121 -25v-69l-222 6zM502 647h383l-195 563z" />
<glyph unicode="B" horiz-adv-x="1454" d="M68 -6v69l125 25l16 268v641l-16 271l-125 20v72l270 -6l430 10q212 0 332 -74q119 -74 119 -223q0 -92 -64 -178q-59 -80 -240 -109q227 0 336 -86q111 -88 111 -233q0 -221 -164 -348q-162 -125 -434 -125l-426 12zM465 160l125 -25q66 -8 135 -8q156 0 256 82 q98 80 98 215t-104 197q-109 63 -293 63l-217 -10v-514zM465 813l149 -4q152 0 236 57q88 59 88 170q0 98 -69.5 151.5t-194.5 53.5q-31 0 -49 -2l-54 -6q-18 -2 -51 -6q-39 -4 -55 -8v-406z" />
<glyph unicode="C" horiz-adv-x="1419" d="M74 676q0 305 229 507.5t582 202.5q147 0 250 -24q111 -27 188 -57l-41 -152q-14 -59 -25 -152l-69 9l-23 127q-70 45 -153 65q-90 23 -181 23q-223 0 -350 -142q-129 -144 -129 -393q0 -233 150 -385q150 -154 372 -153q121 0 230 45q104 47 196 137l80 -94 q-121 -129 -276 -203q-147 -70 -330 -70q-311 0 -505.5 195t-194.5 514z" />
<glyph unicode="D" horiz-adv-x="1562" d="M68 -6v69l125 25l16 268v641l-16 271l-125 20v72l270 -6l520 10q311 0 471 -168t160 -491q0 -303 -211 -512q-100 -96 -238 -152q-135 -53 -288 -53l-414 12zM465 170q43 -14 51 -16q70 -16 76 -19q68 -6 88 -6q6 0 21.5 -1t25.5 -1q225 0 354 159.5t129 432.5 q0 229 -127 368.5t-344 139.5q-45 0 -67 -2q-2 0 -30 -2t-42 -4q-37 -6 -68 -13q-45 -8 -67 -18v-1018z" />
<glyph unicode="E" horiz-adv-x="1312" d="M68 -6v69l125 25l16 268v641l-16 271l-125 20v72l270 -6h803l61 -258l-72 -29l-61 109q-10 4 -61 14q-43 8 -115 18q-129 14 -291 15h-123l-6 -109q0 -4 -4 -135q0 -27 -1 -55.5t-2 -43t-1 -20.5v-51h76l358 14l43 88h72l-10 -170q0 -43 2 -69l10 -103h-74l-45 101 l-319 14h-113v-188q0 -45 4 -140q0 -20 1 -60t3 -56l6 -109h158q129 0 303 16q158 14 188 27l74 137l68 -24l-64 -287h-868z" />
<glyph unicode="F" horiz-adv-x="1169" d="M68 -6v69l125 25l16 268v641l-16 271l-125 20v72l270 -6h743l62 -260l-72 -29l-61 111q-12 6 -62 14q-53 10 -112 18q-129 14 -293 15h-64l-6 -109q0 -4 -4 -135q0 -27 -1 -55.5t-2 -43t-1 -20.5v-86l51 -2l365 16l41 86h73l-6 -169q0 -7 -0.5 -24t-0.5 -26q0 -15 1 -28 q4 -61 8 -92h-73l-45 98l-326 14h-88v-291q0 -6 1 -15t2 -26.5t1 -32t1 -33t2 -28.5t1 -16q0 -53 4 -74q4 -25 12 -43l177 -25v-69l-328 6z" />
<glyph unicode="G" horiz-adv-x="1525" d="M74 676q0 299 229 504q231 207 565 206q77 0 136 -6q68 -8 118 -20q117 -27 193 -60l-43 -147l-25 -143l-63 6l-15 123q-66 33 -168 61q-47 12 -94 19q-43 6 -90 6q-207 0 -336 -147.5t-129 -383.5q0 -246 137 -403q139 -162 349 -162q100 0 172 25l49 16l65 29v229 l-8 178l-145 21v69h497v-67l-84 -25l-4 -387l80 -51q-68 -45 -137.5 -80t-155.5 -63q-68 -23 -170 -41q-80 -14 -180 -15q-326 0 -536 201q-207 199 -207 508z" />
<glyph unicode="H" horiz-adv-x="1525" d="M68 -6v69l125 25l16 268v641l-16 271l-125 20v72l270 -6l270 6v-72l-127 -20l-16 -271v-196h590l2 196l-17 271l-125 20v72l271 -6l270 6v-72l-127 -20l-14 -271v-641l14 -268l127 -25v-69l-270 6l-271 -6v69l125 25l17 268v314l-590 2l-2 -316l16 -268l127 -25v-69 l-270 6z" />
<glyph unicode="I" horiz-adv-x="673" d="M68 -6v69l125 25l16 268v641l-16 271l-125 20v72l270 -6l270 6v-72l-127 -20l-16 -271v-641l16 -268l127 -25v-69l-270 6z" />
<glyph unicode="J" horiz-adv-x="673" d="M-119 -272q135 78 232 213q96 137 96 378v678l-16 271l-125 20v72l270 -6l270 6v-72l-127 -20l-16 -271v-761q0 -250 -156 -373q-74 -59 -170 -117q-90 -53 -207 -104l9 6z" />
<glyph unicode="K" horiz-adv-x="1454" d="M68 -6v69l125 25l16 268v641l-16 271l-125 20v72l270 -6l270 6v-72l-127 -20l-16 -271v-194l137 117l141 114q147 113 275 232l-78 22v72l225 -6l228 6v-72l-95 -20l-161 -109l-172 -123l-158 -118l-158 -121l172 -187l172 -182q117 -121 365 -340l98 -25v-69l-174 -8 l-176 -17l-158 176l-157 172l-326 349v-310l16 -268l127 -25v-69l-270 6z" />
<glyph unicode="L" horiz-adv-x="1206" d="M63 -6v69l130 25l14 268v641l-14 271l-130 20v72l273 -6l295 6v-72l-148 -20l-12 -117q-8 -111 -8 -154v-501q0 -45 4 -140q0 -20 1 -60t3 -56l6 -109h158q176 0 307 16q115 14 143 27l72 137l74 -26l-66 -285h-829z" />
<glyph unicode="M" horiz-adv-x="1880" d="M63 -6v69l134 25q4 14 10 64q6 55 6 114q0 94 2 123q8 190 8 236l4 372l-14 273l-113 18v72l301 -6h174l369 -1055l365 1055h172l299 6v-72l-113 -20l-14 -271v-641l16 -268l146 -25v-69l-283 6l-262 -6v69l129 25l14 268v871l-434 -1227h-178l-422 1227l-4 -602l6 -359 q0 -152 14 -178l115 -25v-69l-211 6z" />
<glyph unicode="N" horiz-adv-x="1490" d="M68 -6v69l125 25l16 268v680l-4 140l-12 92l-125 20v72l256 -6h118l342 -518l113 -170l115 -172l116 -177v680l-18 271l-131 20v72l225 -6l219 6v-72l-125 -20l-16 -271v-1017h-217l-29 43l-671 1017v-684l4 -151q0 -31 4 -72q4 -33 8 -45l131 -25v-69l-225 6z" />
<glyph unicode="O" horiz-adv-x="1701" d="M102 675.5q0 315.5 213 512.5q215 199 543 198q324 0 533 -198q207 -197 206.5 -512.5t-211 -512t-542.5 -196.5q-329 0 -535 197q-207 196 -207 511.5zM381 676q0 -246 131 -408t338 -162q203 0 336 160q133 162 133 410q0 254 -133 411q-135 160 -336 160 q-199 0 -334 -159.5t-135 -411.5z" />
<glyph unicode="P" horiz-adv-x="1277" d="M68 -6v69l125 25l16 268v641l-16 271l-125 20v72l270 -6l467 10q209 0 325.5 -92t116.5 -262q0 -199 -155 -336q-158 -139 -387 -139l-101 2q-41 0 -98 14l55 139l74 -16h74q111 0 186 82q74 86 74 209q0 129 -78 200q-80 74 -213 74h-64q-12 -2 -25.5 -4t-17.5 -2 q-41 0 -106 -21v-522v-139v-195q0 -6 1 -15t2 -26.5t1 -32t1 -33t2 -28.5t1 -16q0 -92 12 -117l172 -25v-69l-319 6z" />
<glyph unicode="Q" horiz-adv-x="1701" d="M102 676q0 315 213 512q215 199 543 198q324 0 533 -198q207 -197 206 -512q0 -313 -213 -510q-100 -98 -225 -148q-127 -51 -276 -51q51 -25 260 -78q156 -37 207 -45q80 -14 131 -14l82 70l55 -47q-84 -117 -117 -187l-28 -61q-287 82 -492 162q-205 78 -377 170 q-305 160 -391 344q-111 149 -111 395zM381 676q0 -246 131 -408t338 -162q203 0 336 160q133 162 133 410q0 254 -133 411q-135 160 -336 160q-199 0 -334 -159.5t-135 -411.5z" />
<glyph unicode="R" horiz-adv-x="1419" d="M68 -6v69l125 25l16 268v641l-16 271l-125 20v72l270 -6l487 10q203 0 320 -86q115 -84 115 -246q0 -125 -80 -223t-312 -152l492 -569l78 -25l2 -69h-84q-57 0 -90 -4q-39 0 -82 -6q-20 -2 -92 -17q-201 285 -285 391l-203 267h-139v-269l16 -268l127 -25v-69l-270 6z M467 764l149 -14q160 0 261 75q102 78 102 189q0 106 -84 165.5t-229 59.5q-33 0 -52 -2q-51 -6 -53 -6q-59 -6 -94 -21v-446z" />
<glyph unicode="S" horiz-adv-x="1277" d="M39 96l37 74q12 25 33 76q29 70 51 151l78 -18l-9 -133q57 -37 177 -82q123 -47 251 -47q113 0 199 63q80 68 80 158q0 109 -100 166q-106 61 -258 96q-266 70 -375 152q-115 86 -115 225q0 182 166 295q168 115 416 114q144 0 264 -24q117 -25 223 -59q-6 -12 -15 -35 t-14 -31l-32 -82l-47 -143l-72 18l8 105q-35 29 -137 65q-57 18 -103 27q-61 10 -112 10q-129 0 -209 -49q-78 -47 -78 -137q0 -98 100 -144q106 -49 261 -84q285 -68 391 -162t106 -239q0 -203 -174 -328q-176 -127 -442 -127q-158 0 -299 31q-80 18 -129 37 q-55 22 -121 61z" />
<glyph unicode="T" d="M0 1075l41 137q2 8 6 29t8 33q6 27 15 80h1140q6 -33 13 -64q14 -66 18 -78l41 -137l-72 -28l-67 129q-33 8 -51 12q-12 2 -35 7t-31 7q-90 12 -115 15q-104 6 -125 6l-8 -78q-10 -92 -10 -234v-555l18 -268l144 -25v-69l-291 6l-289 -6v69l146 25l16 268v555v37v31v27 v20q0 84 -8 119l-6 78q-68 0 -129 -6q-70 -6 -105 -13q-14 -2 -40.5 -7l-37.5 -7q-23 -4 -49 -14l-65 -129z" />
<glyph unicode="U" horiz-adv-x="1525" d="M68 1288v72l270 -6l270 6v-72l-127 -20l-16 -271v-462q0 -195 84 -302q83 -104 252 -104q156 0 256 96q98 94 98 252v51l-4 510q0 199 -12 230l-135 20v72l231 -6l215 6v-72l-121 -20q-6 -35 -8 -103q-4 -115 -4 -127l-2 -510v-88q0 -209 -164 -342q-162 -131 -420 -131 q-256 0 -389 115t-133 352v563l-16 271z" />
<glyph unicode="V" horiz-adv-x="1454" d="M0 1288v72l274 -6l263 6v-72l-109 -20l166 -539q94 -291 184 -534l183 536l172 535l-103 22v72l217 -6l205 6v-72l-117 -20l-139 -320l-125 -321q-137 -379 -225 -647h-238l-114 329l-115 318q-120 326 -258 639z" />
<glyph unicode="W" horiz-adv-x="2023" d="M16 1288v72l267 -6l256 6v-72l-111 -20l59 -254l66 -254q78 -301 137 -508q68 254 137 555q39 156 66 276l61 279l111 -8l104 6l60 -275l67 -278l76 -283l70 -278q57 233 80 315l32.5 120t20.5 75q41 145 65 256l54 256l-101 20v72l215 -6l203 6v-72l-115 -20 q-125 -338 -217 -643l-182 -645h-227l-269 1058q-35 -150 -45 -196q-33 -141 -84 -332l-63 -266l-61 -264h-230q-74 293 -180 645l-94 315q-53 180 -103 328z" />
<glyph unicode="X" horiz-adv-x="1454" d="M12 -6v69l135 25l236 293l227 295l-424 588l-129 24v72l279 -6l264 6v-72l-100 -24l264 -406l135 197q68 94 135 213l-80 20v72l222 -6l215 6v-72l-146 -20l-104 -133l-103 -134l-96 -131l-98 -127l479 -655l121 -25v-69l-270 6l-271 -6v69l88 25l-301 479 q-80 -109 -162 -237l-20 -33.5t-22.5 -35l-32.5 -48.5l-74 -125l102 -25v-69l-233 6z" />
<glyph unicode="Y" horiz-adv-x="1347" d="M-4 1288v72l260 -6l254 6v-72l-104 -22l319 -592l317 592l-106 22v72l215 -6l203 6v-72l-107 -22l-446 -699v-211l6 -151q0 -31 4 -72q2 -27 10 -45l144 -25v-69l-291 6l-293 -6v69l143 25q8 14 11 41q4 41 4 76l6 151v211l-443 699z" />
<glyph unicode="Z" horiz-adv-x="1312" d="M35 41l141 195l141 192l140 199l399 583l-213 13q-129 0 -246 -13q-119 -12 -161 -26l-78 -133l-70 24l68 279h1058l33 -47l-430 -578l-203 -289l-190 -290l125 -15l125 -2q158 0 280 19q76 10 113 18q43 10 66 18l69 131l76 -26l-74 -293h-1147z" />
<glyph unicode="[" horiz-adv-x="780" d="M264 -434v1796l256 -8l215 8v-78h-24q-51 0 -76 -2q-4 0 -35 -2t-49 -4q-43 -6 -47 -19v-1585q0 -12 47 -18q29 -4 84 -8q25 -2 76 -2h24v-78l-215 8z" />
<glyph unicode="\" horiz-adv-x="1169" d="M55 1415l205 -22l848 -1456l-203 22z" />
<glyph unicode="]" horiz-adv-x="780" d="M43 -356h27h20q63 0 125 10q57 6 59 18v1585q0 10 -59 18.5t-145 8.5h-27v78l219 -8l254 8v-1796l-254 8l-219 -8v78z" />
<glyph unicode="^" horiz-adv-x="1148" d="M160 653l352 701h123l350 -701h-147l-265 541l-264 -541h-149z" />
<glyph unicode="_" horiz-adv-x="958" d="M0 -424h958v-92h-958v92z" />
<glyph unicode="`" horiz-adv-x="532" d="M25 1423l96 52q57 29 96 61q61 -45 139 -129q65 -71 117 -197l-90 -41q-39 41 -90 86q-57 49 -84 70q-76 55 -184 98z" />
<glyph unicode="a" horiz-adv-x="1206" d="M51 256q0 195 195 301q199 109 545 109v108q0 104 -52 137q-53 35 -168 35q-121 0 -194 -26q-37 -12 -72 -29l-12 -6v-101l-70 -22l-102 231l143 45q145 47 357 47q334 0 383 -198q47 -190 47 -731v-33l106 -55v-74l-145 2l-62 2l-114 -4l-3 8q-3 8 -6 14q-2 10 -2 47 q0 49 -2 78q-4 61 -8 92q-100 -172 -209 -219q-104 -45 -219 -45q-154 0 -244 84q-92 86 -92 203zM305 287q0 -53 51 -99q49 -43 133 -43q141 0 221.5 117t80.5 289h-72q-90 0 -170 -23q-78 -23 -133 -61q-111 -67 -111 -180z" />
<glyph unicode="b" horiz-adv-x="1241" d="M37 1403v72l315 53h90l-14 -154l-4 -127v-311q71 83 154 117q80 33 165 32q197 0 314 -147t117 -387q0 -246 -168 -414q-166 -166 -416 -166q-51 0 -78 2q-53 4 -82 9l-84 12q-43 6 -72 6h-26l-137 -6l55 94q4 10 6 39q4 41 4 47l8 188v695v28v25v20q0 47 -2 70 q-6 63 -6 66l-10 112zM424 168q0 -18 70 -45q37 -12 73.5 -18.5t75.5 -6.5q115 0 195 119t80 293q0 96 -19 164q-18 70 -61 127q-78 113 -209 112q-100 0 -154 -71q-51 -70 -51 -205v-469z" />
<glyph unicode="c" horiz-adv-x="1134" d="M70 483q0 256 186 430q184 172 463 172q113 0 201 -24q86 -20 114 -35q-2 -6 -10 -25.5t-12 -31.5q-8 -18 -23 -70l-35 -125l-71 10v103q0 2 -27 16q-22 12 -49 25q-68 31 -143 30q-154 0 -246 -104t-92 -283q0 -186 102 -307q100 -119 268 -119q133 0 201 54 q22 15 61 49q8 8 19.5 15t21.5 18l76 -86q-66 -80 -182 -156q-117 -68 -275 -68q-248 0 -397 138q-151 138 -151 374z" />
<glyph unicode="d" horiz-adv-x="1241" d="M70 475q0 272 161 440q164 170 420 170q57 0 92 -8l80 -10v-10l-6 209q0 35 -4 67q-2 16 -10 45l-129 25v72l317 53h90l-14 -154l-6 -127v-858q0 -39 4 -113q0 -14 1 -42.5t3 -40.5q0 -70 14 -105q18 0 25 -2l31 -8l55 -15v-69l-176 6l-178 -6v176q-70 -106 -150 -152 q-84 -47 -174 -47q-203 0 -323 140q-123 141 -123 364zM326 555q0 -190 67 -301q66 -109 201 -109q121 0 176 107q55 109 55 303v346q-23 16 -65 29q-53 16 -129 16q-152 0 -230 -98q-75 -96 -75 -293z" />
<glyph unicode="e" horiz-adv-x="1169" d="M70 516q0 238 170 403.5t407 165.5q197 0 317.5 -116.5t120.5 -300.5v-62h-747q0 -219 82 -342q80 -119 254 -119q125 0 215 64q86 61 137 115l78 -72q-41 -57 -86 -100q-51 -49 -119 -93q-137 -88 -293 -88q-250 0 -393 143.5t-143 401.5zM346 709l481 22v25 q0 104 -49 159.5t-147 55.5q-132 0 -215 -99q-47 -59 -70 -163z" />
<glyph unicode="f" horiz-adv-x="673" d="M53 -6v69l111 25l10 94q0 10 3 45t5 56q2 37 2 112v547l-123 -4v74l123 45v61q0 188 149.5 299t309.5 111q100 0 161.5 -18.5t65.5 -26.5l-98 -248l-76 16l6 103l-47 22q-27 10 -73 10q-72 0 -113 -47q-45 -51 -45 -137v-145l219 2l-49 -119h-170v-545q0 -86 2 -119 q4 -74 10 -114q9 -68 13 -74l137 -25v-69l-281 6z" />
<glyph unicode="g" horiz-adv-x="1206" d="M53 -270q0 63 25 96q20 25 28 33q8 10 33 30l121 -69l-14 -35q0 -63 98 -131q47 -33 117 -51q68 -18 153 -19q88 0 172 47t84 125q0 96 -139 152q-61 23 -156 22q-53 0 -135 -10q-61 -8 -155 -29l-135 144q0 16 59 151q61 139 65 154l-61 41q-131 104 -131 291 q0 172 139 282q141 113 350 113h39q18 0 37 -6l6 -2l62 -8q68 -12 121 -19l98 -12q23 0 129 -4q23 0 44 -1t32.5 -2t15.5 -1l2 -35v-35l-67 -18l-56 -13q-18 -4 -51 -4h-14q92 -96 92 -235q0 -160 -141.5 -276.5t-348.5 -116.5q-111 0 -176 20q0 -12 -33 -76 q-14 -29 -26 -69q-8 -27 -8 -58l53 17q33 12 88 18q51 6 133 6q217 0 366.5 -73.5t149.5 -231.5q0 -166 -176 -274q-178 -111 -410 -111q-207 0 -344 82q-135 82 -135 201zM328 668q0 -117 67.5 -191t175.5 -74q98 0 174 76q33 37 54 86q18 45 18 103q0 129 -65 196 q-63 76 -181 76q-106 0 -174 -78q-69 -79 -69 -194z" />
<glyph unicode="h" horiz-adv-x="1277" d="M37 1403v72l315 53h90l-14 -154l-4 -127v-346q80 94 168 139q90 45 194 45q139 0 226 -88q84 -86 84 -235v-367q0 -80 2 -114q4 -82 8 -119q4 -51 12 -74l109 -25v-69l-250 6l-117 -6v69l-2 25v526q0 154 -45 226q-39 74 -151 73q-109 0 -177 -94q-61 -92 -61 -248v-176 q0 -86 2 -119q4 -61 8 -94l10 -94l111 -25v-69l-250 6l-252 -6v69l111 25l10 94q0 10 3 45t5 56q2 37 2 112v662v28v25v20q0 80 -6 136q0 27 -4 67q-4 33 -8 45z" />
<glyph unicode="i" horiz-adv-x="606" d="M37 965v71l86 11q6 0 72 12l161 35h88l-16 -154l-2 -127v-418q0 -80 2 -114q4 -82 8 -119q6 -59 10 -74l109 -25v-69l-250 6l-252 -6v69l111 25l10 94q0 10 3 45t5 56q2 37 2 112v223v31v25v22q0 76 -6 131q0 27 -4 68q-4 35 -8 47zM164 1392.5q0 59.5 41 100.5t100 41 q57 0 98 -41q43 -43 43 -100.5t-43 -100.5t-98 -43q-57 0 -100 43q-41 41 -41 100.5z" />
<glyph unicode="j" horiz-adv-x="606" d="M-45 -473q92 53 162 170q68 115 67 309v612v31v25v22q0 47 -2 70q-6 57 -6 61l-10 115l-129 23v71q20 2 42.5 4t43.5 7q41 6 70 12l159 35h90l-14 -154l-4 -127v-549l4 -346q0 -260 -422 -471zM160 1393q0 55 43 98t100 43q59 0 100 -41q20 -25 31 -47q10 -25 10 -53 q0 -59 -41 -101q-43 -43 -100 -43t-98 41q-39 40 -45 103z" />
<glyph unicode="k" horiz-adv-x="1206" d="M37 1403v72l315 53h90l-14 -154l-4 -127v-602l367 326l-76 18v70h407v-70l-110 -24l-398 -316l131 -141l132 -143l131 -138l139 -143l76 -21v-69h-76q-51 0 -82 -4l-158 -17l-239 279l-244 283v-140q0 -80 2 -114q4 -82 8 -119q6 -59 10 -74l111 -25v-69l-250 6l-252 -6 v69l111 25l10 94q0 10 3 45t5 56q2 37 2 112v662v28v25v20q0 47 -2 70q-6 63 -6 66l-10 112z" />
<glyph unicode="l" horiz-adv-x="606" d="M35 1403v72l317 53h90l-14 -154l-4 -127v-852q0 -80 2 -114q4 -82 8 -119q6 -59 10 -74l111 -25v-69l-252 6l-250 -6v69l107 25q6 6 8 29q4 37 4 65q0 10 3 45t5 56q2 37 2 112v662q0 59 -2 94q-2 18 -3 56t-1 59q0 27 -4 67q-4 33 -8 45z" />
<glyph unicode="m" horiz-adv-x="1916" d="M37 969v69q43 0 80 6q16 2 42.5 7.5t37.5 7.5l86 14q43 10 77 21h72l-8 -193q78 94 164 139q84 45 186 45q109 0 182 -55q72 -53 103 -143q25 37 55 67q41 41 80 68q84 63 236 63q137 0 219 -88t82 -235v-367q0 -86 2 -119q4 -61 8 -94l10 -94l111 -25v-69l-250 6 l-119 -6v620q0 147 -41 226q-43 74 -147 73q-100 0 -168 -94q-59 -96 -60 -248v-176q0 -86 2 -119q4 -61 8 -94l11 -94l110 -25v-69l-250 6l-249 -6v69l110 25l8 94q10 96 11 213v219q0 150 -39 226q-43 74 -148 73q-106 0 -168 -94q-59 -92 -59 -248v-176q0 -80 2 -114 q4 -82 8 -119q6 -59 10 -74l111 -25v-69l-250 6l-252 -6v69l111 25l10 94q0 10 3 45t5 56q2 37 2 112v226v26v23q0 49 -2 75q-6 72 -6 76l-10 121z" />
<glyph unicode="n" horiz-adv-x="1277" d="M37 969v69q45 0 82 6q16 2 42.5 7.5t37.5 7.5l90 14q6 0 15 3l25.5 8.5t30.5 9.5h72l-8 -193q80 94 168 139q90 45 194 45q139 0 226 -88q84 -86 84 -235v-367q0 -80 2 -114q4 -82 8 -119q4 -51 12 -74l109 -25v-69l-250 6l-117 -6v69l-2 25v526q0 154 -45 226 q-39 74 -151 73q-109 0 -177 -94q-61 -92 -61 -248v-176q0 -86 2 -119q4 -61 8 -94l10 -94l111 -25v-69l-250 6l-252 -6v69l111 25l10 94q0 10 3 45t5 56q2 37 2 112v226v26v23q0 49 -2 75q-6 72 -6 76l-10 121z" />
<glyph unicode="o" d="M70 528q0 250 157 404t412 153q261 0 418 -153q156 -154 155 -404q0 -252 -155 -405q-154 -152 -418 -152q-258 0 -412 152q-157 153 -157 405zM324 528q0 -193 86 -311.5t229 -118.5t231 117q88 115 88 313q0 193 -86 311.5t-233 118.5q-143 0 -229 -116.5t-86 -313.5z " />
<glyph unicode="p" horiz-adv-x="1241" d="M37 969v69q43 0 80 6q14 2 42.5 7.5l39.5 7.5l86 14q43 10 77 21h72l-8 -160q68 80 152 115q45 20 81 28q39 8 84 8q193 0 312 -143t119 -375q0 -244 -162 -422q-84 -90 -174 -131q-96 -43 -211 -43q-57 0 -101 9q-55 10 -102 32v-133q0 -86 2 -119q4 -66 8 -94l12 -94 l129 -23v-69l-270 4l-252 -4v69l111 23l10 94q0 10 3 45t5 56q2 37 2 112v742v26v23q0 49 -2 75q-6 72 -6 76l-10 121zM422 160l55 -31q25 -12 72 -23q39 -8 96 -8q113 0 193 119q80 127 80 293q0 96 -19 164q-18 70 -61 127q-78 113 -209 112q-102 0 -154 -75 q-53 -78 -53 -222v-456z" />
<glyph unicode="q" horiz-adv-x="1241" d="M70 477q0 270 163 441q162 168 424 167l172 -14l324 -14v-72q-16 -4 -29 -8q-10 -4 -34 -12q-29 -6 -29 -385v-701q0 -104 10 -207q10 -96 12 -100l109 -23v-69l-250 4l-268 -4v69l127 23l12 94q10 96 10 213v266q-25 -37 -67 -79q-33 -33 -78 -56q-76 -39 -164 -39 q-201 0 -321 140q-123 141 -123 366zM326 553q0 -94 16 -172q14 -72 51 -129q68 -106 203 -107q113 0 170 105q59 106 59 285v366q-14 10 -34 17q-12 4 -22.5 8t-16.5 6q-43 14 -115 14q-158 0 -234 -100q-77 -103 -77 -293z" />
<glyph unicode="r" horiz-adv-x="849" d="M37 969v69q41 0 76 6q12 2 29.5 6.5t27.5 6.5t18 2q10 2 39 7t39 7q43 10 76 21h61l-8 -303q47 141 152 221q59 41 98 55q49 18 103 18q27 0 41 -2t42 -10q22 -6 37 -18l-61 -154l-33 -115q-68 14 -72 31q0 18 5 31q0 41 -15 47q-12 6 -35 6q-92 0 -163 -110 q-70 -109 -70 -271v-125q0 -86 2 -119q4 -74 10 -114q9 -68 13 -74l131 -25v-69l-275 6l-252 -6v69l111 25l10 94q0 10 3 45t5 56q2 37 2 112v226v26v23q0 49 -2 75q-6 72 -6 76l-10 121z" />
<glyph unicode="s" horiz-adv-x="1028" d="M6 96q43 53 45 56l23.5 28.5t21.5 28.5l39 59q16 25 35 60l63 -33l-24 -100q33 -29 108 -60q66 -25 187 -24q94 0 164 41q66 39 65 116q0 76 -80 113q-2 0 -94 37q-35 14 -121 41q-141 35 -249.5 102.5t-108.5 206.5q0 135 141 227q137 90 328 90q106 0 213 -18 q31 -6 84 -18q33 -8 74 -23l-84 -235l-72 12v84q-41 23 -119 49q-68 23 -139 22q-102 0 -150 -38q-49 -37 -49 -103q0 -47 60 -90q66 -41 206 -74q219 -49 312 -127q88 -76 88 -198q0 -144 -148 -252q-145 -106 -354 -107q-135 0 -248 31q-104 28 -217 96z" />
<glyph unicode="t" horiz-adv-x="780" d="M45 942v70l139 45l-8 229l256 53l-8 -282l285 10l-58 -133l-227 8v-561q0 -131 27 -184q25 -55 96 -56q35 0 78 19q29 16 63 47l66 -72q-23 -41 -103 -102.5t-200 -61.5q-125 0 -197 70q-70 72 -70 197v704h-139z" />
<glyph unicode="u" horiz-adv-x="1277" d="M27 963v71q47 0 61 2q51 8 98 17q74 8 158 32h88l-16 -354v-280q0 -152 45 -228q47 -78 139 -78q123 0 191 107q68 109 67 293v127q0 47 -2 71q-4 59 -8 82l-10 113l-129 25v71q27 0 67 4q8 0 20.5 3t31 6.5t32.5 5.5q59 8 154 32h92l-10 -165v-539l2 -188q0 -27 2 -37 q6 -31 14 -68l111 -25l-2 -69l-172 6l-183 -6v199q-72 -109 -172 -166q-94 -55 -204 -56q-137 0 -227.5 90.5t-90.5 229.5v381q0 80 -6 153q0 41 -6 72q-4 18 -5 28.5t-1 12.5z" />
<glyph unicode="v" horiz-adv-x="1169" d="M18 991v70l234 -4l237 4v-68l-108 -22l256 -840l127 420l117 420l-97 20v70l185 -4l184 4v-68l-80 -24l-100 -250l-92 -246l-174 -496l-117 5l-119 -5q-78 240 -172 498l-90 246l-98 250z" />
<glyph unicode="w" horiz-adv-x="1775" d="M18 991v70l232 -4l231 4v-68l-92 -22l49 -199l23.5 -90l30.5 -113q58 -215 116 -399q59 227 123 444q57 197 117 447h172l264 -895l209 805l-96 20v70l178 -4l180 4v-68l-72 -22l-110 -309l-66 -189l-153 -496l-113 5l-115 -5l-231 756l-225 -756l-115 5l-113 -5 l-159 498l-103 307q-4 12 -69 189z" />
<glyph unicode="x" horiz-adv-x="1169" d="M18 -6v76l93 18l176 215l166 217l-330 451l-105 20v70l234 -4l240 4v-68l-70 -22l199 -316l204 316l-65 20v70l178 -4l178 4v-68l-104 -22q-76 -84 -164 -201l-156 -203l348 -475l113 -20v-78l-246 6l-243 -6v69l79 25l-223 344l-110 -170l-103 -178l92 -21v-69l-190 6z " />
<glyph unicode="y" horiz-adv-x="1134" d="M-55 -520l73 274l66 -6l12 -96l41 -14l56 -7q117 0 217 111q98 109 133 217l12 35h-92q-88 272 -178 498q-113 283 -201 477l-84 22v70l231 -4l234 4v-68l-98 -22q72 -248 127 -404l133 -403l125 403q47 168 106 404l-94 20v70l180 -4l184 4v-68l-61 -22 q-115 -266 -207 -510l-186 -512q-84 -238 -223 -369q-143 -133 -334 -133q-35 0 -54 2q-41 4 -47 6q-40 7 -71 25z" />
<glyph unicode="z" horiz-adv-x="1134" d="M68 0v76l639 870h-105q-104 0 -213 -10q-49 0 -82 -6l-6 -2q-6 -2 -21.5 -6t-29.5 -9l-66 -131l-69 21l24 129q8 37 13 65q6 55 6 64l303 -2h571v-74l-633 -868l176 -6l170 10q84 8 119 14q43 8 70 19l65 135l72 -25q-6 -37 -12 -63q-6 -31 -21 -72l-22 -135l-428 6h-520 z" />
<glyph unicode="{" horiz-adv-x="780" d="M133 461v6q55 23 94 72q37 49 37 133v418q0 129 58 202q55 70 249 70h88v-51h-14q-55 0 -100 -51.5t-45 -153.5v-379q0 -74 -8 -109q-10 -45 -29 -75q-35 -55 -101 -80q66 -16 101 -78q37 -66 37 -182v-381q0 -94 47 -152q45 -53 98 -53h14v-51h-88q-188 0 -247.5 71.5 t-59.5 202.5v416q0 84 -37 131q-31 43 -94 74z" />
<glyph unicode="|" horiz-adv-x="423" d="M145 -31v1559h138v-1559h-138z" />
<glyph unicode="}" horiz-adv-x="780" d="M123 -383h14q51 0 96 51q47 53 48 154v381q0 121 32 180q37 61 103 80q-59 18 -103 80q-33 57 -32 184v379q0 98 -43 151.5t-101 53.5h-14v51h88q193 0 248 -70q57 -74 57 -202v-418q0 -82 35 -133q35 -43 94 -72v-6q-55 -25 -94 -74q-35 -45 -35 -131v-416 q0 -131 -57 -202q-29 -35 -90.5 -53.5t-157.5 -18.5h-88v51z" />
<glyph unicode="~" horiz-adv-x="1148" d="M133 453q15 34 37 61q20 27 53 53q61 51 144 51q86 0 217 -63q125 -61 194 -61q58 0 92 30l80 90l70 -94q-31 -65 -92 -117q-59 -51 -142 -51q-94 0 -219 63.5t-192 63.5q-55 0 -94 -33q-29 -25 -78 -90z" />
<glyph unicode="&#xa1;" horiz-adv-x="1210" d="M20 692q0 23 19 35l14 4l29 -4l8 -8l8 -23q4 -4 -4 -16l-12 -14l-16 -9l-27 9q-19 1 -19 26zM74 776q-6 20 16 37l10 6q25 0 33 -8l14 -27l-2 -18l-12 -18l-16 -7q-16 -6 -29 7zM86 573q-6 47 43 109l49 61l72 58q33 25 61 41q33 18 70 24l25 2q41 0 71 -47l12 -55 q6 -35 9 -39l-11 -45l-43 -70q-10 -12 -16 -16l-12 -16l-21 -35q-2 -2 -2 -4q-4 -8 -4 -17v-26v-43q0 -8 12 -35l27 -39q16 -12 35 -39l26 -33q6 -6 13 -30q2 -8 5 -24.5t5 -25.5l16 -108q0 -55 -14 -84t-55 -43h-21q-39 0 -88 37l-69 75l-19 35l-12 39l-27 115l-6 47 q-6 31 -8 35q-12 25 -19 35l-96 147zM133 854q0 23 19 41l14 6q35 6 57 -41q0 -20 -24 -39l-17 -8q-14 0 -30 12q-19 11 -19 29zM217 922l2 26l23 23l18 6q23 0 39 -12l12 -11l11 -20q6 -33 -27 -51l-19 -9q-16 -8 -32 9q-19 19 -27 39zM326 1018q0 49 18 61l31 19 q18 0 51 -25q14 -14 33 -72v-24q0 -29 -13 -47q-10 -14 -36 -25q-25 -4 -41 10q-20 12 -39 50zM684 98v15v34l18 111q2 27 11 37l10 16l68 80l14 21l8 24l10 23l2 37q0 33 -8 47l-12 28l-74 91l-12 26l-2 31v18l2 25l16 57q6 16 25 35q23 12 45 12l24 -2q18 -2 37 -10 q23 -8 43 -20q55 -29 99 -68q33 -25 45 -37q20 -20 39 -47q35 -45 34 -88l-2 -21l-4 -18l-37 -57l-63 -90l-19 -37l-6 -31l-6 -45l-28 -115l-3 -20l-2 -19q0 -4 -2 -8l-12 -20l-33 -41l-35 -37l-40 -27q-9 -6 -37 -12l-41 -4q-39 6 -60 45l-8 39zM756 969l2 43q0 29 14 45 q2 4 10 12q10 10 23 16q12 4 39 5q18 0 37 -35l8 -51l-6 -39q0 -18 -25 -45q-18 -25 -41 -25q-9 0 -24 6q-37 17 -37 68zM895 901v29q0 20 18 35q14 12 37 12l25 -8q8 -6 14 -21q6 -12 6 -28q0 -18 -20 -37q-18 -10 -39 -11l-21 7q-14 4 -20 22zM991 848l1 3q1 3 2 7t1 8 q14 27 47 33l17 -6q18 -6 24 -41q0 -29 -57 -39l-14 6q-21 9 -21 29zM1067 762v16q0 2 1 5t3 5l2 5l4 8q10 10 35 16l12 -6q23 -12 17 -37q-6 -27 -43 -33l-15 2q-14 7 -16 19zM1118 688q0 20 10 35l29 8l19 -4q8 -6 12 -14l4 -25l-8 -14l-8 -12l-31 -9l-12 6q-15 15 -15 29 z" />
<glyph unicode="&#xa2;" horiz-adv-x="1198" d="M20 807q0 16 23 33l14 2q12 0 29 -11l6 -34q0 -15 -18 -31h-17q-16 0 -26 12q-9 15 -11 29zM61 682q0 27 29 61q25 31 74 70q18 18 41 31l57 30q45 23 100 39q41 4 44 5q20 0 38 -7q35 -12 43 -57l11 -55q0 -35 -11 -60q-10 -27 -14 -30q-4 -6 -22 -21l-29 -29 q-29 -23 -57 -59q-23 -29 -23 -86q0 -39 31 -90l28 -43l15 -29l10 -47v-31q0 -25 2 -38q0 -72 -22 -130q-25 -61 -76 -61q-25 0 -56 12q-27 14 -45 39l-59 90q-4 4 -10 35v43l-13 117l5 47l-5 33q0 18 -8 37l-69 161zM86 883q0 23 18 32l21 5q16 -6 27 -21l8 -20 q0 -16 -23 -33l-12 -4q-14 -2 -29 10q-10 17 -10 31zM160 948q0 23 26 37l13 4q14 0 32 -14q14 -12 15 -35q0 -20 -27 -35l-18 -6q-12 -6 -26.5 8t-14.5 41zM252 1001q0 31 33 43l22 7l17 -7q31 -18 30 -53q0 -27 -28 -43l-23 -2q-25 -6 -39 12zM371 1038q0 18 4 35 q4 14 12 35q18 33 51 39q27 0 45 -35q20 -35 21 -76q0 -35 -10 -51q-8 -12 -27 -31l-29 -8q-27 -6 -47 25q-20 36 -20 67zM696 657l4 39l15 35q6 18 20 27l29 8q27 0 47 -31l12 -39q6 -15 6 -37q0 -25 -4 -32l-12 -33q-6 -14 -16 -19q-16 -8 -33 -8q-31 0 -49.5 24.5 t-18.5 65.5zM705 416l6 59q6 63 84 64q18 0 73 -15q20 -4 56 -18q31 -12 59 -27q59 -27 106.5 -74t47.5 -106l-4 -12l-31 -66l-51 -133q-4 -12 -4 -37l4 -45l-11 -143l-4 -35q-6 -20 -26 -53q-2 -4 -7.5 -12.5t-7.5 -12.5q-2 -2 -26 -33q-18 -20 -45 -34q-2 -2 -25 -11 q-6 -2 -15.5 -4t-11.5 -2q-35 0 -63 35l-31 76l-4 35l-2 47v61q0 25 12 55l35 56l29 61l10 43q0 57 -20 84l-19 25l-67 61l-33 37q-6 4 -12 33zM844 612q0 25 14 41q16 20 37 21l20 -6q31 -8 31 -47q0 -18 -12 -37q-12 -12 -35 -19l-22 2q-12 0 -23 17zM954 561q0 16 11 31 l36 18l15 -4q27 -6 26 -39q0 -29 -41 -47l-20 8l-20 9q-4 4 -7 8v16zM1038 498q0 14 9 24q10 14 32 17h15q12 -10 16 -17l8 -18q0 -12 -12 -27q-8 -14 -27 -14h-16q-12 0 -19 14zM1106 422q0 31 35 41l18 -2q14 -6 21 -33q0 -16 -13 -29l-26 -12l-17 4q-18 9 -18 31z" />
<glyph unicode="&#xa3;" horiz-adv-x="1198" d="M20 428q0 20 23 33l14 2q31 0 37 -41q0 -23 -20 -31l-17 -4q-12 0 -26 12q-9 13 -11 29zM61 299q0 49 64 100l61 52l74 47l78 30q2 2 7 3t7 1l21 5l33 2q66 0 81 -64l11 -59q6 -33 -19 -70q-29 -43 -57 -63l-33 -31l-27 -31q-8 -8 -16 -43q0 -29 -4 -43q0 -41 31 -90 l28 -41l15 -33l8 -41l4 -71q0 -74 -22 -131q-23 -55 -76 -62q-18 0 -56 12q-29 10 -45 39l-34 54l-25 41q-10 27 -10 75l-13 119l5 45l-5 31q0 14 -8 41l-69 164zM86 504l2 18q6 10 16 17h21q35 -10 35 -41q0 -16 -23 -35h-12q-18 0 -31 12zM160 567q0 25 26 39l13 4 q18 0 30 -12q14 -14 17 -37q0 -25 -27 -33l-18 -8q-4 -2 -25 8q-14 10 -16 39zM252 621q0 20 33 47l22 6q16 0 31 -19q12 -16 16 -43q0 -23 -28 -45l-23 -2q-25 0 -39 15q-8 18 -12 41zM371 659q0 39 16 72q14 29 51 35q16 0 25 -6q12 -8 20 -29q20 -33 21 -74 q0 -47 -21 -67q-23 -23 -43 -23q-27 0 -45 20.5t-24 71.5zM696 961l4 43l15 32q16 29 49 35q25 0 47 -33l12 -37q6 -14 6 -36q0 -18 -4 -35l-12 -35q-8 -12 -16 -16q-12 -6 -33 -7q-35 0 -51 23q-11 21 -17 66zM705 723l6 55q6 61 84 62q16 0 47 -9l61 -18l62 -27 q20 -8 47 -28l28 -21l39 -32q57 -45 58 -99l-4 -20l-31 -58l-39 -102l-12 -39l-4 -35l4 -45l-11 -145l-4 -29q-20 -49 -35 -72q-6 -10 -22 -30q-2 -2 -31 -27q-27 -29 -76 -35q-45 0 -65 37l-14 35l-15 45l-4 14v13l-2 49v59q0 20 12 58l35 59l29 55l5 15.5t3 11.5q2 6 2 26 q0 2 -4 31q-10 47 -33 68l-69 61l-33 39l-10 29zM844 920q0 20 14 36q12 12 37 17l20 -4q31 -9 31 -43q0 -43 -47 -60l-22 6q-18 0 -25 15zM954 864q0 35 47 51l15 -4q27 -6 26 -39q0 -12 -12 -30q-8 -10 -29 -17l-20 2q-21 6 -27 37zM1038 801q0 35 41 41l15 -2 q12 -6 18 -17q6 -8 6 -16q0 -31 -39 -41h-16q-12 0 -19 12zM1102 711q0 10 4 20q6 16 20 25l15 10l18 -4q14 -6 21 -31q0 -14 -13 -31l-26 -12l-17 4q-16 7 -22 19z" />
<glyph unicode="&#xa4;" horiz-adv-x="970" d="M20 573q6 53 15 66l10 39l21 37l24 28l78 88l35 33l24 29q12 16 19 33l63 161l6 19q16 14 47 20l66 9h45l21 -7q4 -2 9 -1l5 -1l88 -24q68 -23 111 -53q49 -37 49 -84q0 -25 -15 -39l-34 -43q-23 -25 -62 -43l-49 -6l-76 6l-45 -6q-41 0 -78 -43q-33 -45 -41 -86l-12 -46 l-6 -22q0 -6 -6 -23l-70 -82q-18 -27 -63 -51l-62 -30l-35 -5l-24 5q-27 6 -43 45q-9 28 -12 43q-3 9 -3 34zM147 -135l7 22l28 68l101 108l22 23l27 8l14 8l25 7q18 0 24 4l62 16q18 6 39 27l26 37l21 32v178q0 14 14 29q12 16 12 17q4 6 21 14l37 39q20 18 45 18 q16 0 35 -12q37 -20 65.5 -71.5t47 -119t18.5 -129.5v-30q0 -31 -7 -45q-4 -23 -20 -37l-12 -10l-70 -21l-102 -41l-29 -18l-31 -23l-26 -37l-90 -80l-43 -28l-33 -17l-31 -10l-35 -6l-37 -2l-43 4l-24 6q-8 2 -27 17q-22 18 -31 55zM362 1200l17 25l18 10l19 -4l12 -10 q0 -2 2 -2q0 -2 3 -8.5l5 -10.5q0 -14 -10 -35l-25 -6h-14l-12 10q-7 4 -15 31zM463 1206q0 20 35 37l18 -4l12 -8q6 -6 7 -21q0 -16 -3 -20q-8 -25 -28 -25l-29 9q-2 2 -8 14q0 14 -4 18zM557 1200q0 14 14 23q6 6 31 16l19 -4l14 -10q10 -16 10 -30.5t-12 -29.5t-31 -18 l-14 2l-21 12q-10 10 -10 39zM659 1155q8 33 19 45l37 10l20 -4l17 -12q12 -18 12 -39q0 -18 -14 -33q-16 -16 -35 -16l-25 2l-16 12q-9 2 -15 35zM725 553q0 31 18 68q20 31 74 59l25 4q23 0 31 -10t14 -39l-4 -23l-15 -37l-22 -24q-16 -16 -23 -19q-39 -29 -71 -22 q-23 10 -27 43zM762 1047q-6 31 12 71q16 31 82 62l18 2q49 0 50 -49l-2 -21q-4 -8 -9 -25l-6 -12q-2 -2 -14 -20q-4 -6 -12 -11l-25 -20q-20 -23 -43 -23q-10 0 -16 3q-19 8 -35 43zM811 473q-4 16 14 31q10 8 35 16q14 6 41 -8l14 -20v-23q0 -14 -14 -35l-41 -18 q-18 4 -22 8q-6 6 -9 10l-16 17zM852 365q0 29 49 38l29 -10l10 -14l6 -19q2 -10 -16 -28q-6 -6 -29 -15q-15 0 -37 13l-6 16zM860 162q0 8 12 20l29 17l12 -4l15 -9l10 -12q6 -6 2 -18q-2 -12 -10 -21l-29 -12l-27 12l-10 12zM868 262q-2 6 13 21q18 12 26 12q18 0 31 -8 l8 -15q6 -12 -8 -39q-6 -12 -29 -12q-18 0 -26 8z" />
<glyph unicode="&#xa5;" horiz-adv-x="1449" d="M20 287l3 18l22 107q2 18 16 34q16 20 29 29l80 90l33 29l18 20l27 43l39 99l22 65l10 19q29 14 39 16q4 0 16.5 3t18.5 5q12 2 35 2l53 -6q10 -2 24.5 -4t16.5 -2t12.5 -3t16.5 -5q41 -6 70 -21q18 -6 28 -10q6 -4 15.5 -9l13.5 -7q16 -8 24 -15l25 -24q10 -10 23 -31 q6 -10 6 -32.5t-15 -39.5l-34 -45l-33 -26q-15 -12 -37 -19h-164q-39 -6 -72 -45q-18 -23 -24 -37l-21 -51l-22 -82l-10 -20q-2 -2 -7.5 -10.5t-9.5 -12.5l-53 -51l-61 -47l-52 -29l-32 -4q-39 0 -64 33q-25 35 -25 76zM365 928q8 23 10 26l24 11l17 -2l12 -9l8 -28l-8 -17 q-2 -4 -2 -6v-4l-18 -12l-35 12zM461 938l14 27q2 2 6 4q4 4 6 4l11 2l16 -4l14 -8q4 -2 4 -27l-6 -29l-10 -6l-12 -6l-15 4l-16 10q-2 2 -10 13zM557 915q0 2 1 4.5t2 6.5t1 8q8 31 41 37l19 -6l14 -9q8 -6 8 -30q0 -23 -8 -33t-29 -14l-20 4l-15 10q-14 8 -14 22zM633 80 l2 24l24 62l33 39l70 74l12 10l12 8l27 10l27 10l37 9l59 20q37 18 55 35q20 20 25 43l8 35l2 18v31l-4 59q0 49 4 60q6 14 45 53l39 35q16 14 43 14q10 0 27 -6q31 -16 59 -57l5 -10.5t8 -15.5t10 -15q2 -4 5 -12.5t8 -19.5l9 -20l29 -92l8 -78q2 -6 2 -16v-16 q0 -34 -12 -49l-19 -33l-16 -6l-68 -25l-98 -39l-37 -20l-26 -23l-25 -37l-92 -76l-43 -34l-27 -13l-35 -10l-34 -10h-35l-49 4q-31 6 -52 27q-22 28 -22 53zM659 891q0 18 17 33q10 14 37 16l18 -2l19 -12q12 -6 12 -39q0 -16 -14.5 -32.5t-34.5 -16.5l-19 2l-18 14l-14 12 zM760 809q6 31 31 59q14 25 51 41l37 6q14 0 26 -12q14 -8 19 -35l-2 -24q-8 -29 -35 -62q-25 -31 -62 -41q-4 -2 -10 -2h-8q-31 0 -41 17q-6 14 -6 53zM1200 791q0 23 17 47l16 16q12 12 22 18l43 21l23 2q23 6 35 -12.5t12 -36.5v-19q-10 -29 -22 -43q-20 -25 -33 -34 q-20 -16 -47 -23q-20 -2 -56 14q-10 21 -10 50zM1290 688q-2 18 10 29q14 12 48 18q14 0 34 -10l17 -45l-6 -18l-7 -13l-40 -14q-8 0 -39 10l-15 21zM1335 580q0 8 8.5 18t38.5 16q18 0 29 -8l10 -14l6 -19q4 -10 -12 -28q-14 -12 -33 -13h-16l-14 13l-11 14q-6 15 -6 21z M1339 385l19 14q12 6 28 7q8 0 21 -7l14 -8q9 -6 0 -24l-10 -15q-6 -9 -25 -12q-15 0 -30 6l-10 14q-13 13 -7 25zM1354 475l2 14l4 9l26 14q10 0 15 -2l20 -12l6 -11l3 -14q0 -16 -9 -24l-32 -15l-15 6l-8 6l-10 13z" />
<glyph unicode="&#xa6;" horiz-adv-x="423" d="M145 -31v582h138v-582h-138zM145 944v584h138v-584h-138z" />
<glyph unicode="&#xa8;" horiz-adv-x="1406" d="M35 678q0 133 53 256q29 68 62 115q31 45 83 98q82 88 209 145q119 53 262.5 53.5t258.5 -53.5q66 -31 112.5 -61.5t100.5 -83.5q86 -86 141 -213q57 -131 57 -256q0 -276 -198 -473q-201 -197 -469 -197q-133 0 -258 53.5t-213 141.5q-90 90 -148 213q-53 125 -53 262z M123 678q0 -127 47 -227q49 -106 125 -185q39 -43 82 -69q59 -37 102 -58q47 -18 111 -33q58 -12 117 -12q230 0 411 172q78 76 125 185q45 104 45 227q0 114 -49 221q-39 100 -125 186q-74 78 -180 127q-100 47 -227 47.5t-226 -45.5q-96 -43 -182 -127q-84 -80 -129 -186 q-47 -110 -47 -223zM334 715q0 -74 41 -121q43 -68 131 -113q92 -43 192 -43q141 0 240 76l49 41l39 39q16 27 18.5 29t12.5 32.5t10 59.5q0 -86 -23 -164q-16 -45 -30 -72q-15 -31 -43 -61q-41 -51 -113 -84q-31 -14 -74 -25q-33 -8 -82 -8q-147 0 -262 121q-6 8 -13 15 t-10 12l-3 4l-2 4q-2 4 -6.5 10t-8.5 12q-25 31 -39 72l-18 76q-6 33 -6 88zM414 911q0 35 30 66q29 27 62 27q15 0 31 -7q10 -4 30 -20q33 -29 33 -66q0 -35 -29 -63q-8 -8 -28 -21q-14 -8 -37 -8q-37 0 -66 29q-26 26 -26 63zM807 907q0 33 27 60q35 29 67.5 28.5 t59.5 -24.5q25 -20 30 -64q0 -33 -26 -61q-29 -29 -64 -29q-39 0 -70 25q-24 24 -24 65z" />
<glyph unicode="&#xa9;" horiz-adv-x="862" d="M33 956q0 170 119 287q120 117 282 117q168 0 285 -119q119 -123 119 -283q0 -168 -119 -284q-123 -119 -285 -119q-168 0 -284 119q-117 119 -117 282zM84 958q0 -147 102.5 -249.5t247.5 -102.5q141 0 248 103q104 102 104 247q0 143 -102 250q-100 102 -250 103 q-145 0 -247.5 -103t-102.5 -248zM209 965q0 90 73.5 157.5t186.5 67.5q33 0 43 -2q6 -2 43 -12q53 -14 57 -25v-86l-16 -4q-6 57 -43 78q-33 27 -94 26q-88 0 -131 -57q-45 -61 -45 -143q0 -88 47 -148q43 -59 135 -59q61 0 98 30q20 20 29 31q10 14 22 37l15 -2l-19 -84 q-6 -12 -55 -25l-104 -10q-106 0 -177 60q-65 57 -65 170z" />
<glyph unicode="&#xaa;" horiz-adv-x="1206" d="M51 256q0 195 195 301q199 109 545 109v108q0 104 -52 137q-53 35 -168 35q-121 0 -194 -26q-37 -12 -72 -29l-12 -6v-101l-70 -22l-102 231l143 45q145 47 357 47q334 0 383 -198q47 -190 47 -731v-33l106 -55v-74l-145 2l-62 2l-114 -4l-3 8q-3 8 -6 14q-2 10 -2 47 q0 49 -2 78q-4 61 -8 92q-100 -172 -209 -219q-104 -45 -219 -45q-154 0 -244 84q-92 86 -92 203zM305 287q0 -53 51 -99q49 -43 133 -43q141 0 221.5 117t80.5 289h-72q-90 0 -170 -23q-78 -23 -133 -61q-111 -67 -111 -180z" />
<glyph unicode="&#xab;" horiz-adv-x="993" d="M117 547l264 366l113 -57l-138 -309l133 -309l-112 -58zM506 547l262 366l115 -57l-140 -309l136 -309l-113 -58z" />
<glyph unicode="&#xad;" horiz-adv-x="849" d="M57 477l62 137h104l502 2l-61 -137h-105z" />
<glyph unicode="&#xae;" horiz-adv-x="862" d="M33 954q0 166 116.5 283t282.5 117t283 -117q61 -66 88 -129q29 -70 28 -154q0 -164 -116 -280q-119 -119 -283 -119t-282 119q-117 116 -117 280zM84 954q0 -143 102.5 -245.5t245.5 -102.5q139 0 246 103q104 101 104 245q0 145 -102 248t-248 103q-143 0 -245.5 -103 t-102.5 -248zM244 745v23q33 0 45 8q10 6 12 27v315q0 16 -12 29q-2 0 -8.5 2t-8.5 4h-28v23h184q86 0 131 -33q37 -33 37 -84q0 -29 -27 -64q-29 -39 -80 -47l103 -139l14 -18q6 -8 15 -15q14 -10 32 -14v-17h-69q-16 0 -52 46q-2 4 -17 23.5l-26 33.5l-63 92h-57v-137 q0 -16 12 -25q14 -10 41 -10v-23h-178zM369 961h53q45 0 72 26q23 29 22 66q0 53 -24 75q-27 23 -66 23h-57v-190z" />
<glyph unicode="&#xaf;" horiz-adv-x="532" d="M-76 1372q0 61 19 64h649q18 0 18 -64q0 -61 -18 -65h-649q-19 -1 -19 65z" />
<glyph unicode="&#xb0;" horiz-adv-x="765" d="M121 1137q0 109 75.5 184.5t184.5 75.5q104 0 182 -78q76 -76 76 -182.5t-76 -182.5q-78 -78 -182.5 -77.5t-183.5 75.5q-76 74 -76 185zM221 1136.5q0 -65.5 47 -112.5t113 -47q61 0 108.5 47t47.5 113q0 63 -47.5 110t-108.5 47q-68 0 -113 -45q-47 -47 -47 -112.5z " />
<glyph unicode="&#xb1;" horiz-adv-x="1148" d="M90 0v135h971v-135h-971zM90 522v135h420v304h135v-304h416v-135h-416v-301h-135v301h-420z" />
<glyph unicode="&#xb2;" d="M31 88q145 102 268 213l121 115q80 80 112 119q51 53 150 204q92 141 92 289q0 98 -61 160q-57 59 -158 59q-88 0 -162 -35l-45 -20q-25 -10 -45 -27v-127l-72 -10q-6 72 -41 174l-32 98l141 50q102 37 276 36q209 0 351 -106q139 -104 139 -268t-121 -316l-104 -129 q-35 -39 -88 -88q-123 -106 -189 -155q-2 -2 -94 -72l-100 -74h178q22 0 117 6t147 6q61 0 117 7q12 2 26.5 4t21.5 4t9 2l68 121l73 -23l-43 -158q-23 -80 -34 -153l-494 6l-492 -6z" />
<glyph unicode="&#xb3;" d="M55 205l254 164l43 -47l-49 -86q31 -51 88 -89q63 -41 168 -41q135 0 232 97q94 94 94 235q0 119 -84 190.5t-209 71.5l-164 -16l-22 100q131 20 239 97q111 76 111 204q0 29 -13 66q-8 27 -36 51q-47 45 -136 45q-84 0 -133 -24q-18 -8 -30 -15q-16 -8 -41 -24v-90 l-74 -19q-18 68 -49 148l-33 82q14 10 131 49q115 33 272 32q166 0 289 -88q121 -86 121 -211q0 -47 -12 -83q-14 -45 -37 -72q-47 -68 -217 -127q213 0 311 -111q96 -109 96 -241q0 -199 -186 -342q-184 -141 -444 -142q-195 0 -318 80q-125 80 -162 156z" />
<glyph unicode="&#xb4;" horiz-adv-x="532" d="M59 1210q49 126 117 197q31 34 68 68q45 41 69 61l4 -3q4 -3 12.5 -8t16.5 -12l64 -38l96 -52q-106 -45 -180 -96t-174 -158z" />
<glyph unicode="&#xb6;" horiz-adv-x="591" d="M0 766q0 96 63 152q66 59 189 59h342v-88h-74v-846h-94v846h-119v-846h-90v520q-45 0 -88 17q-37 14 -70 47q-59 55 -59 139z" />
<glyph unicode="&#xb7;" horiz-adv-x="567" d="M205 514v168h170v-168h-170z" />
<glyph unicode="&#x2219;" horiz-adv-x="567" d="M205 514v168h170v-168h-170z" />
<glyph unicode="&#xb9;" d="M332 1202v68l50.5 15t35.5 10t14 3q51 20 66 25q100 37 155 63h135l-14 -444v-547q0 -113 10 -211q8 -88 15 -96l121 -25v-69l-281 6l-272 -6v69l118 25l13 94q8 84 8 213v492l-8 315h-166z" />
<glyph unicode="&#xba;" d="M70 528q0 250 157 404t412 153q261 0 418 -153q156 -154 155 -404q0 -252 -155 -405q-154 -152 -418 -152q-258 0 -412 152q-157 153 -157 405zM324 528q0 -193 86 -311.5t229 -118.5t231 117q88 115 88 313q0 193 -86 311.5t-233 118.5q-143 0 -229 -116.5t-86 -313.5z " />
<glyph unicode="&#xbb;" horiz-adv-x="993" d="M117 856l110 57l262 -366l-258 -367l-110 58l131 309zM506 856l110 57l263 -366l-258 -367l-111 58l129 309z" />
<glyph unicode="&#xbc;" horiz-adv-x="1916" d="M223 1272v43l211 69h86l-8 -266v-327l6 -129l6 -58l82 -12v-43l-182 4l-178 -4v43l76 12l10 58q2 8 3 26.5t1 28.5q2 23 2 74v294l-6 187h-109zM446 -61l738 1445l202 29l-735 -1446zM1096 303l84 111l131 180l205 295h94l10 -17l-399 -546h290v323l131 62l37 -25 l-8 -133v-227h17q31 0 61 10l35 10l24 -20l-53 -88h-84q0 -78 6 -132q6 -49 11 -53l69 -14v-43l-166 4l-198 -4v43l100 14l8 58q10 57 10 127h-370z" />
<glyph unicode="&#xbd;" horiz-adv-x="1916" d="M227 1272v43l211 69h84l-6 -266v-327l4 -129l10 -58l80 -12v-43l-182 4l-178 -4v43l76 12l10 58l6 129v294l-6 187h-109zM446 -61l738 1445l202 29l-735 -1446zM1112 53q66 43 174 127l82 70q23 20 72 69q31 29 96 123q61 86 61 174q0 59 -41 97q-16 16 -45 26 q-27 10 -55.5 10.5t-56.5 -4.5q-18 -2 -49 -16l-60 -29v-75l-45 -9q-6 43 -31 105l-7 21.5t-7 23.5q0 2 -1 5l-3 9l90 31q68 20 182 20q129 0 226 -63q90 -59 90 -160q0 -102 -76 -190q-33 -41 -68 -76q-45 -45 -57 -55l-125 -94l-125 -84h115l285 16l45 72l47 -15l-29 -94 q-4 -14 -12 -51q-2 -10 -5 -23.5t-3 -17.5h-641z" />
<glyph unicode="&#xbe;" horiz-adv-x="1916" d="M43 674l166 100l29 -29l-33 -51q14 -29 57 -55q45 -25 109 -25q86 0 149 60q61 59 62 141q0 74 -54 115q-55 43 -137 43l-104 -10l-15 59q82 14 156 59q70 43 70 123q0 41 -33 68q-35 31 -84 31q-31 0 -51 -5q-15 -3 -43 -12q-25 -8 -41 -24v-52l-49 -10l-52 135 q10 6 82 29q68 20 179 20q106 0 188 -53q80 -53 80 -127q0 -55 -35 -96q-33 -39 -139 -72q138 0 202 -67q63 -66 64 -144q0 -119 -123 -204q-125 -88 -287 -89q-125 0 -209 48q-71 45 -104 94zM498 -61l737 1445l205 29l-735 -1446zM1096 303l84 111l131 180l205 295h94 l10 -17l-399 -546h290v323l131 62l37 -25l-8 -133v-227h17q31 0 61 10l35 10l24 -20l-53 -88h-84q0 -78 6 -132q6 -49 11 -53l69 -14v-43l-166 4l-198 -4v43l100 14l8 58q10 57 10 127h-370z" />
<glyph unicode="&#xbf;" horiz-adv-x="993" d="M76 -6q0 139 114 239q119 104 306 144l18 203l123 34l70 -305l-48 -45q-160 -25 -239 -104q-78 -78 -78 -172q0 -72 47 -125t131 -53q74 0 142 30q59 27 81 49v111l72 18q31 -127 68 -196l32 -62q-33 -18 -141 -55q-98 -33 -254 -33q-217 0 -334 95q-110 90 -110 227z M467 946q0 57 43 101q41 41 96 40q57 0 96 -43q41 -45 41 -98t-38 -98q-45 -41 -99 -41q-57 0 -98 41t-41 98z" />
<glyph unicode="&#xc0;" horiz-adv-x="0" />
<glyph unicode="&#xc1;" horiz-adv-x="0" />
<glyph unicode="&#xc2;" horiz-adv-x="0" />
<glyph unicode="&#xc3;" horiz-adv-x="0" />
<glyph unicode="&#xc4;" horiz-adv-x="0" />
<glyph unicode="&#xc5;" horiz-adv-x="0" />
<glyph unicode="&#xc6;" horiz-adv-x="0" />
<glyph unicode="&#xc7;" horiz-adv-x="0" />
<glyph unicode="&#xc8;" horiz-adv-x="0" />
<glyph unicode="&#xc9;" horiz-adv-x="0" />
<glyph unicode="&#xca;" horiz-adv-x="1552" d="M35 528q0 184 65 318q31 59 82 125q41 53 105 106q115 94 268 144q158 49 328 49q90 0 131 -4q82 -8 121 -19q106 -20 198 -69.5t135 -104.5q49 -57 50 -125h-768v246l-662 -666l662 -663v248h768q0 -41 -15 -70q-12 -25 -39 -61q-45 -57 -147 -107q-41 -23 -92 -39 q-59 -20 -103 -26l-118 -17l-121 -6q-180 0 -328 51q-78 25 -145 60q-61 33 -123 84q-117 94 -183 231q-69 145 -69 315z" />
<glyph unicode="&#xcb;" horiz-adv-x="1638" d="M35 463l545 549h346l-441 -426h1119v-240h-1119l441 -428h-346z" />
<glyph unicode="&#xcc;" horiz-adv-x="1630" d="M35 463l450 502q27 33 60 55q29 20 80 27q18 0 41 -15q23 -8 24.5 -10t13 -10l21.5 -15q28 -18 49 -49q16 -27 23 -76q0 -59 -70 -129l-125 -118l801 2q98 0 143 -39q51 -35 51 -125q0 -164 -186 -164l-809 8l125 -119q6 -8 12 -15l13 -15q14 -16 22 -35q23 -39 23 -66 q0 -29 -13 -57q-10 -25 -43 -59q-47 -53 -116 -54q-31 0 -37 4l-33 13l-33 22l-37 35z" />
<glyph unicode="&#xcd;" horiz-adv-x="774" d="M35 463l473 799v-273h233v-1050h-233v-273z" />
<glyph unicode="&#xce;" horiz-adv-x="1679" d="M35 455v16l78 37l77 49q4 2 11.5 8t18.5 16.5t22 18.5l51 41q47 39 86 90q43 51 74 107l71 127h11v-205h358v-588h-358v-211h-11q-88 176 -202.5 297t-286.5 197zM936 172v588h151v-588h-151zM1167 172v588h113v-588h-113zM1384 172v588h74v-588h-74zM1591 172v588h54 v-588h-54z" />
<glyph unicode="&#xcf;" horiz-adv-x="1644" d="M35 440l508 539v-213h1069v-604h-1069v-211z" />
<glyph unicode="&#xd0;" horiz-adv-x="1720" d="M35 446v35q49 18 88 45q23 10 41 25q8 6 17 12t14 8l4 2l35.5 30t29.5 24q20 16 64 59l41 45l30 35l13 18q12 23 26 37l47 74l47 92h48v-209h358v-631h-358v-206h-45q-35 68 -43 86q-18 34 -50 79q-27 41 -55 76q-39 49 -55 64q-53 49 -60 53l-73 55l-76 43l-39 21.5 t-32 18.5t-17 9zM66 475q88 -39 155 -86q76 -53 135 -115q51 -49 109 -129q41 -59 92 -159h-18v207h399v544h-399v209h18q-29 -59 -35 -74l-45 -75q-27 -43 -49 -70l-68 -70l-108 -90q-88 -59 -176 -112zM938 147v631h195v-631h-195zM979 193h113v544h-113v-544zM1169 147 v631h150v-631h-150zM1206 193h74v544h-74v-544zM1386 147v631h115v-631h-115zM1425 193h37v544h-37v-544zM1593 147v631h93v-631h-93zM1632 193h13v544h-13v-544z" />
<glyph unicode="&#xd1;" horiz-adv-x="1695" d="M35 440l557 592v-248h1069v-639h-1069v-245zM90 440l465 -440v186h1063v557h-1063v185z" />
<glyph unicode="&#xd2;" horiz-adv-x="1699" d="M35 145v639h1071v248l561 -592l-561 -540v245h-1071zM80 186h1067v-186l459 440l-459 488v-185h-1067v-557z" />
<glyph unicode="&#xd3;" horiz-adv-x="1720" d="M35 147v631h92v-631h-92zM78 193h10v544h-10v-544zM219 147v631h119v-631h-119zM260 193h35v544h-35v-544zM401 147v631h152v-631h-152zM444 193h70v544h-70v-544zM588 147v631h196v-631h-196zM633 193h108v544h-108v-544zM784 147v631h357v209h49q84 -180 196 -299 q55 -55 134 -110q72 -51 166 -97v-35q-8 -4 -31 -14t-35 -16q-57 -31 -94 -60q-66 -45 -133 -110l-41 -41q-14 -25 -17 -27q-4 -4 -9 -8l-5 -4l-39 -55l-47 -76q-8 -23 -23 -47q-4 -6 -11 -22.5t-13 -24.5h-47v206h-357zM784 193h402v-207h-21q72 162 199 288q23 23 63 60 q16 14 68 47q72 51 162 94l-12 -20q-78 41 -152 88q-55 43 -129 114l-61 68q-37 45 -56 72q-27 39 -45 71q-23 41 -37 78h21v-209h-402v-544z" />
<glyph unicode="&#xd4;" horiz-adv-x="1646" d="M35 162v604h1071v213l508 -539l-508 -489v211h-1071z" />
<glyph unicode="&#xd5;" horiz-adv-x="1679" d="M35 172v588h51v-588h-51zM219 172v588h74v-588h-74zM399 172v588h115v-588h-115zM588 172v588h153v-588h-153zM784 172v588h357v205h12q35 -84 86 -156q47 -68 117 -137l30 -25l35 -31l37 -30l31 -27l72 -43q47 -23 49 -22.5t6 -3t12 -8.5l17 -11v-16q-23 -10 -72 -39 q-57 -25 -82 -45l-37 -29l-31 -23l-67 -61q-53 -55 -105 -133q-33 -45 -49 -74l-49 -90h-12v211h-357z" />
<glyph unicode="&#xd6;" horiz-adv-x="778" d="M35 -61v1050h233v273l475 -799l-475 -797v273h-233z" />
<glyph unicode="&#xd7;" horiz-adv-x="1630" d="M35 463q0 76 47 123q43 41 137 41l807 -2l-154 147l-18 33l-12 35l-4 32q-2 4 -2 19q0 18 12 45q23 37 41 53q25 20 57 41q27 16 60 17q39 0 71 -23q12 -6 33 -23l37 -36l448 -502l-448 -502q-31 -35 -72 -57l-69 -17q-4 -2 -17 -2q-20 0 -47 11q-6 4 -14 10t-10 8 q-20 16 -29 27q-20 25 -39 59q-6 12 -8 25q0 6 -1 16t-3 16q0 25 14 60q12 31 53 71l121 119l-799 -8q-74 0 -139 39q-53 37 -53 125z" />
<glyph unicode="&#xd8;" horiz-adv-x="1638" d="M35 346v240h1118l-442 426h348l547 -549l-547 -545h-348l442 428h-1118z" />
<glyph unicode="&#xd9;" horiz-adv-x="1552" d="M35 113h766v-248l661 663l-661 666v-246h-766q0 78 51 135q39 39 57 54q28 22 74 43q94 49 211 69q115 20 240 21q172 0 325 -49q147 -47 271 -148q109 -84 186 -231q68 -138 68 -314q0 -174 -70 -311q-72 -139 -184 -231q-115 -92 -267 -146q-154 -53 -329 -53h-33 q-6 0 -18.5 1t-20.5 1q-22 0 -55 6l-111 15q-29 4 -63 16q-10 4 -25.5 8t-22.5 6q-25 8 -40 15q-18 6 -58 24q-25 12 -71 45q-41 29 -60 49q-55 52 -55 140z" />
<glyph unicode="&#xda;" horiz-adv-x="1525" d="M665 1548q49 126 117 197q31 34 68 68q45 41 69 61l4 -3q4 -3 12.5 -8t16.5 -12l64 -38l96 -52q-106 -45 -180 -96t-174 -158zM68 1288v72l270 -6l270 6v-72l-127 -20l-16 -271v-462q0 -195 84 -302q83 -104 252 -104q156 0 256 96q98 94 98 252v51l-4 510q0 199 -12 230 l-135 20v72l231 -6l215 6v-72l-121 -20q-6 -35 -8 -103q-4 -115 -4 -127l-2 -510v-88q0 -209 -164 -342q-162 -131 -420 -131q-256 0 -389 115t-133 352v563l-16 271z" />
<glyph unicode="&#xdb;" horiz-adv-x="1525" d="M68 1288v72l270 -6l270 6v-72l-127 -20l-16 -271v-462q0 -195 84 -302q83 -104 252 -104q156 0 256 96q98 94 98 252v51l-4 510q0 199 -12 230l-135 20v72l231 -6l215 6v-72l-121 -20q-6 -35 -8 -103q-4 -115 -4 -127l-2 -510v-88q0 -209 -164 -342q-162 -131 -420 -131 q-256 0 -389 115t-133 352v563l-16 271z" />
<glyph unicode="&#xdc;" horiz-adv-x="1525" d="M90 2177q0 133 53 256q29 68 62 115q31 45 83 98q82 88 209 145q119 53 262.5 53.5t258.5 -53.5q66 -31 112.5 -61.5t100.5 -83.5q86 -86 141 -213q57 -131 57 -256q0 -276 -198 -473q-201 -197 -469 -197q-133 0 -258 53.5t-213 141.5q-90 90 -148 213q-53 125 -53 262z M178 2177q0 -127 47 -227q49 -106 125 -185q39 -43 82 -69q59 -37 102 -58q47 -18 111 -33q58 -12 117 -12q230 0 411 172q78 76 125 185q45 104 45 227q0 114 -49 221q-39 100 -125 186q-74 78 -180 127q-100 47 -227 47.5t-226 -45.5q-96 -43 -182 -127q-84 -80 -129 -186 q-47 -110 -47 -223zM389 2214q0 -74 41 -121q43 -68 131 -113q92 -43 192 -43q141 0 240 76l49 41l39 39q16 27 18.5 29t12.5 32.5t10 59.5q0 -86 -23 -164q-16 -45 -30 -72q-15 -31 -43 -61q-41 -51 -113 -84q-31 -14 -74 -25q-33 -8 -82 -8q-147 0 -262 121q-6 8 -13 15 t-10 12l-3 4l-2 4q-2 4 -6.5 10t-8.5 12q-25 31 -39 72l-18 76q-6 33 -6 88zM469 2410q0 35 30 66q29 27 62 27q15 0 31 -7q10 -4 30 -20q33 -29 33 -66q0 -35 -29 -63q-8 -8 -28 -21q-14 -8 -37 -8q-37 0 -66 29q-26 26 -26 63zM862 2406q0 33 27 60q35 29 67.5 28.5 t59.5 -24.5q25 -20 30 -64q0 -33 -26 -61q-29 -29 -64 -29q-39 0 -70 25q-24 24 -24 65zM68 1288v72l270 -6l270 6v-72l-127 -20l-16 -271v-462q0 -195 84 -302q83 -104 252 -104q156 0 256 96q98 94 98 252v51l-4 510q0 199 -12 230l-135 20v72l231 -6l215 6v-72l-121 -20 q-6 -35 -8 -103q-4 -115 -4 -127l-2 -510v-88q0 -209 -164 -342q-162 -131 -420 -131q-256 0 -389 115t-133 352v563l-16 271z" />
<glyph unicode="&#xdd;" horiz-adv-x="1347" d="M581 1548q49 126 117 197q31 34 68 68q45 41 69 61l4 -3q4 -3 12.5 -8t16.5 -12l64 -38l96 -52q-106 -45 -180 -96t-174 -158zM-4 1288v72l260 -6l254 6v-72l-104 -22l319 -592l317 592l-106 22v72l215 -6l203 6v-72l-107 -22l-446 -699v-211l6 -151q0 -31 4 -72 q2 -27 10 -45l144 -25v-69l-291 6l-293 -6v69l143 25q8 14 11 41q4 41 4 76l6 151v211l-443 699z" />
<glyph unicode="&#xe0;" horiz-adv-x="1206" d="M263 1462l96 52q57 29 96 61q61 -45 139 -129q65 -71 117 -197l-90 -41q-39 41 -90 86q-57 49 -84 70q-76 55 -184 98zM51 256q0 195 195 301q199 109 545 109v108q0 104 -52 137q-53 35 -168 35q-121 0 -194 -26q-37 -12 -72 -29l-12 -6v-101l-70 -22l-102 231l143 45 q145 47 357 47q334 0 383 -198q47 -190 47 -731v-33l106 -55v-74l-145 2l-62 2l-114 -4l-3 8q-3 8 -6 14q-2 10 -2 47q0 49 -2 78q-4 61 -8 92q-100 -172 -209 -219q-104 -45 -219 -45q-154 0 -244 84q-92 86 -92 203zM305 287q0 -53 51 -99q49 -43 133 -43q141 0 221.5 117 t80.5 289h-72q-90 0 -170 -23q-78 -23 -133 -61q-111 -67 -111 -180z" />
<glyph unicode="&#xe1;" horiz-adv-x="1206" d="M528 1249q49 126 117 197q31 34 68 68q45 41 69 61l4 -3q4 -3 12.5 -8t16.5 -12l64 -38l96 -52q-106 -45 -180 -96t-174 -158zM51 256q0 195 195 301q199 109 545 109v108q0 104 -52 137q-53 35 -168 35q-121 0 -194 -26q-37 -12 -72 -29l-12 -6v-101l-70 -22l-102 231 l143 45q145 47 357 47q334 0 383 -198q47 -190 47 -731v-33l106 -55v-74l-145 2l-62 2l-114 -4l-3 8q-3 8 -6 14q-2 10 -2 47q0 49 -2 78q-4 61 -8 92q-100 -172 -209 -219q-104 -45 -219 -45q-154 0 -244 84q-92 86 -92 203zM305 287q0 -53 51 -99q49 -43 133 -43 q141 0 221.5 117t80.5 289h-72q-90 0 -170 -23q-78 -23 -133 -61q-111 -67 -111 -180z" />
<glyph unicode="&#xe2;" horiz-adv-x="1206" d="M51 256q0 195 195 301q199 109 545 109v108q0 104 -52 137q-53 35 -168 35q-121 0 -194 -26q-37 -12 -72 -29l-12 -6v-101l-70 -22l-102 231l143 45q145 47 357 47q334 0 383 -198q47 -190 47 -731v-33l106 -55v-74l-145 2l-62 2l-114 -4l-3 8q-3 8 -6 14q-2 10 -2 47 q0 49 -2 78q-4 61 -8 92q-100 -172 -209 -219q-104 -45 -219 -45q-154 0 -244 84q-92 86 -92 203zM305 287q0 -53 51 -99q49 -43 133 -43q141 0 221.5 117t80.5 289h-72q-90 0 -170 -23q-78 -23 -133 -61q-111 -67 -111 -180z" />
<glyph unicode="&#xe3;" horiz-adv-x="1206" d="M211 1268q53 78 127 131q25 18 73 41q31 14 72 15q49 0 160 -43q53 -20 96 -31q49 -12 76 -13q47 0 84 29l71 62l62 -62q-47 -74 -123 -131q-25 -18 -74 -41q-31 -14 -73 -14q-49 0 -158 41q-113 47 -172 47q-45 0 -82 -31l-74 -61zM51 256q0 195 195 301 q199 109 545 109v108q0 104 -52 137q-53 35 -168 35q-121 0 -194 -26q-37 -12 -72 -29l-12 -6v-101l-70 -22l-102 231l143 45q145 47 357 47q334 0 383 -198q47 -190 47 -731v-33l106 -55v-74l-145 2l-62 2l-114 -4l-3 8q-3 8 -6 14q-2 10 -2 47q0 49 -2 78q-4 61 -8 92 q-100 -172 -209 -219q-104 -45 -219 -45q-154 0 -244 84q-92 86 -92 203zM305 287q0 -53 51 -99q49 -43 133 -43q141 0 221.5 117t80.5 289h-72q-90 0 -170 -23q-78 -23 -133 -61q-111 -67 -111 -180z" />
<glyph unicode="&#xe4;" horiz-adv-x="1206" d="M-49 1878q0 133 53 256q29 68 62 115q31 45 83 98q82 88 209 145q119 53 262.5 53.5t258.5 -53.5q66 -31 112.5 -61.5t100.5 -83.5q86 -86 141 -213q57 -131 57 -256q0 -276 -198 -473q-201 -197 -469 -197q-133 0 -258 53.5t-213 141.5q-90 90 -148 213q-53 125 -53 262 zM39 1878q0 -127 47 -227q49 -106 125 -185q39 -43 82 -69q59 -37 102 -58q47 -18 111 -33q58 -12 117 -12q230 0 411 172q78 76 125 185q45 104 45 227q0 114 -49 221q-39 100 -125 186q-74 78 -180 127q-100 47 -227 47.5t-226 -45.5q-96 -43 -182 -127q-84 -80 -129 -186 q-47 -110 -47 -223zM250 1915q0 -74 41 -121q43 -68 131 -113q92 -43 192 -43q141 0 240 76l49 41l39 39q16 27 18.5 29t12.5 32.5t10 59.5q0 -86 -23 -164q-16 -45 -30 -72q-15 -31 -43 -61q-41 -51 -113 -84q-31 -14 -74 -25q-33 -8 -82 -8q-147 0 -262 121q-6 8 -13 15 t-10 12l-3 4l-2 4q-2 4 -6.5 10t-8.5 12q-25 31 -39 72l-18 76q-6 33 -6 88zM330 2111q0 35 30 66q29 27 62 27q15 0 31 -7q10 -4 30 -20q33 -29 33 -66q0 -35 -29 -63q-8 -8 -28 -21q-14 -8 -37 -8q-37 0 -66 29q-26 26 -26 63zM723 2107q0 33 27 60q35 29 67.5 28.5 t59.5 -24.5q25 -20 30 -64q0 -33 -26 -61q-29 -29 -64 -29q-39 0 -70 25q-24 24 -24 65zM51 256q0 195 195 301q199 109 545 109v108q0 104 -52 137q-53 35 -168 35q-121 0 -194 -26q-37 -12 -72 -29l-12 -6v-101l-70 -22l-102 231l143 45q145 47 357 47q334 0 383 -198 q47 -190 47 -731v-33l106 -55v-74l-145 2l-62 2l-114 -4l-3 8q-3 8 -6 14q-2 10 -2 47q0 49 -2 78q-4 61 -8 92q-100 -172 -209 -219q-104 -45 -219 -45q-154 0 -244 84q-92 86 -92 203zM305 287q0 -53 51 -99q49 -43 133 -43q141 0 221.5 117t80.5 289h-72q-90 0 -170 -23 q-78 -23 -133 -61q-111 -67 -111 -180z" />
<glyph unicode="&#xe5;" horiz-adv-x="1206" d="M361 1469q0 109 75.5 184.5t184.5 75.5q104 0 182 -78q76 -76 76 -182.5t-76 -182.5q-78 -78 -182.5 -77.5t-183.5 75.5q-76 74 -76 185zM461 1468.5q0 -65.5 47 -112.5t113 -47q61 0 108.5 47t47.5 113q0 63 -47.5 110t-108.5 47q-68 0 -113 -45q-47 -47 -47 -112.5z M51 256q0 195 195 301q199 109 545 109v108q0 104 -52 137q-53 35 -168 35q-121 0 -194 -26q-37 -12 -72 -29l-12 -6v-101l-70 -22l-102 231l143 45q145 47 357 47q334 0 383 -198q47 -190 47 -731v-33l106 -55v-74l-145 2l-62 2l-114 -4l-3 8q-3 8 -6 14q-2 10 -2 47 q0 49 -2 78q-4 61 -8 92q-100 -172 -209 -219q-104 -45 -219 -45q-154 0 -244 84q-92 86 -92 203zM305 287q0 -53 51 -99q49 -43 133 -43q141 0 221.5 117t80.5 289h-72q-90 0 -170 -23q-78 -23 -133 -61q-111 -67 -111 -180z" />
<glyph unicode="&#xe8;" horiz-adv-x="1169" d="M289 1462l96 52q57 29 96 61q61 -45 139 -129q65 -71 117 -197l-90 -41q-39 41 -90 86q-57 49 -84 70q-76 55 -184 98zM70 516q0 238 170 403.5t407 165.5q197 0 317.5 -116.5t120.5 -300.5v-62h-747q0 -219 82 -342q80 -119 254 -119q125 0 215 64q86 61 137 115l78 -72 q-41 -57 -86 -100q-51 -49 -119 -93q-137 -88 -293 -88q-250 0 -393 143.5t-143 401.5zM346 709l481 22v25q0 104 -49 159.5t-147 55.5q-132 0 -215 -99q-47 -59 -70 -163z" />
<glyph unicode="&#xe9;" horiz-adv-x="1169" d="M555 1249q49 126 117 197q31 34 68 68q45 41 69 61l4 -3q4 -3 12.5 -8t16.5 -12l64 -38l96 -52q-106 -45 -180 -96t-174 -158zM70 516q0 238 170 403.5t407 165.5q197 0 317.5 -116.5t120.5 -300.5v-62h-747q0 -219 82 -342q80 -119 254 -119q125 0 215 64q86 61 137 115 l78 -72q-41 -57 -86 -100q-51 -49 -119 -93q-137 -88 -293 -88q-250 0 -393 143.5t-143 401.5zM346 709l481 22v25q0 104 -49 159.5t-147 55.5q-132 0 -215 -99q-47 -59 -70 -163z" />
<glyph unicode="&#xea;" horiz-adv-x="1169" d="M70 516q0 238 170 403.5t407 165.5q197 0 317.5 -116.5t120.5 -300.5v-62h-747q0 -219 82 -342q80 -119 254 -119q125 0 215 64q86 61 137 115l78 -72q-41 -57 -86 -100q-51 -49 -119 -93q-137 -88 -293 -88q-250 0 -393 143.5t-143 401.5zM346 709l481 22v25 q0 104 -49 159.5t-147 55.5q-132 0 -215 -99q-47 -59 -70 -163z" />
<glyph unicode="&#xeb;" horiz-adv-x="1169" d="M-22 1878q0 133 53 256q29 68 62 115q31 45 83 98q82 88 209 145q119 53 262.5 53.5t258.5 -53.5q66 -31 112.5 -61.5t100.5 -83.5q86 -86 141 -213q57 -131 57 -256q0 -276 -198 -473q-201 -197 -469 -197q-133 0 -258 53.5t-213 141.5q-90 90 -148 213q-53 125 -53 262 zM66 1878q0 -127 47 -227q49 -106 125 -185q39 -43 82 -69q59 -37 102 -58q47 -18 111 -33q58 -12 117 -12q230 0 411 172q78 76 125 185q45 104 45 227q0 114 -49 221q-39 100 -125 186q-74 78 -180 127q-100 47 -227 47.5t-226 -45.5q-96 -43 -182 -127q-84 -80 -129 -186 q-47 -110 -47 -223zM277 1915q0 -74 41 -121q43 -68 131 -113q92 -43 192 -43q141 0 240 76l49 41l39 39q16 27 18.5 29t12.5 32.5t10 59.5q0 -86 -23 -164q-16 -45 -30 -72q-15 -31 -43 -61q-41 -51 -113 -84q-31 -14 -74 -25q-33 -8 -82 -8q-147 0 -262 121q-6 8 -13 15 t-10 12l-3 4l-2 4q-2 4 -6.5 10t-8.5 12q-25 31 -39 72l-18 76q-6 33 -6 88zM357 2111q0 35 30 66q29 27 62 27q15 0 31 -7q10 -4 30 -20q33 -29 33 -66q0 -35 -29 -63q-8 -8 -28 -21q-14 -8 -37 -8q-37 0 -66 29q-26 26 -26 63zM750 2107q0 33 27 60q35 29 67.5 28.5 t59.5 -24.5q25 -20 30 -64q0 -33 -26 -61q-29 -29 -64 -29q-39 0 -70 25q-24 24 -24 65zM70 516q0 238 170 403.5t407 165.5q197 0 317.5 -116.5t120.5 -300.5v-62h-747q0 -219 82 -342q80 -119 254 -119q125 0 215 64q86 61 137 115l78 -72q-41 -57 -86 -100 q-51 -49 -119 -93q-137 -88 -293 -88q-250 0 -393 143.5t-143 401.5zM346 709l481 22v25q0 104 -49 159.5t-147 55.5q-132 0 -215 -99q-47 -59 -70 -163z" />
<glyph unicode="&#xec;" horiz-adv-x="606" d="M-53 1908l96 52q57 29 96 61q61 -45 139 -129q65 -71 117 -197l-90 -41q-39 41 -90 86q-57 49 -84 70q-76 55 -184 98zM37 965v71l86 11q6 0 72 12l161 35h88l-16 -154l-2 -127v-418q0 -80 2 -114q4 -82 8 -119q6 -59 10 -74l109 -25v-69l-250 6l-252 -6v69l111 25l10 94 q0 10 3 45t5 56q2 37 2 112v223v31v25v22q0 76 -6 131q0 27 -4 68q-4 35 -8 47zM164 1392.5q0 59.5 41 100.5t100 41q57 0 98 -41q43 -43 43 -100.5t-43 -100.5t-98 -43q-57 0 -100 43q-41 41 -41 100.5z" />
<glyph unicode="&#xed;" horiz-adv-x="606" d="M213 1695q49 126 117 197q31 34 68 68q45 41 69 61l4 -3q4 -3 12.5 -8t16.5 -12l64 -38l96 -52q-106 -45 -180 -96t-174 -158zM37 965v71l86 11q6 0 72 12l161 35h88l-16 -154l-2 -127v-418q0 -80 2 -114q4 -82 8 -119q6 -59 10 -74l109 -25v-69l-250 6l-252 -6v69 l111 25l10 94q0 10 3 45t5 56q2 37 2 112v223v31v25v22q0 76 -6 131q0 27 -4 68q-4 35 -8 47zM164 1392.5q0 59.5 41 100.5t100 41q57 0 98 -41q43 -43 43 -100.5t-43 -100.5t-98 -43q-57 0 -100 43q-41 41 -41 100.5z" />
<glyph unicode="&#xee;" horiz-adv-x="606" d="M37 965v71l86 11q6 0 72 12l161 35h88l-16 -154l-2 -127v-418q0 -80 2 -114q4 -82 8 -119q6 -59 10 -74l109 -25v-69l-250 6l-252 -6v69l111 25l10 94q0 10 3 45t5 56q2 37 2 112v223v31v25v22q0 76 -6 131q0 27 -4 68q-4 35 -8 47zM164 1392.5q0 59.5 41 100.5t100 41 q57 0 98 -41q43 -43 43 -100.5t-43 -100.5t-98 -43q-57 0 -100 43q-41 41 -41 100.5z" />
<glyph unicode="&#xef;" horiz-adv-x="606" d="M-364 2325q0 133 53 256q29 68 62 115q31 45 83 98q82 88 209 145q119 53 262.5 53.5t258.5 -53.5q66 -31 112.5 -61.5t100.5 -83.5q86 -86 141 -213q57 -131 57 -256q0 -276 -198 -473q-201 -197 -469 -197q-133 0 -258 53.5t-213 141.5q-90 90 -148 213 q-53 125 -53 262zM-276 2325q0 -127 47 -227q49 -106 125 -185q39 -43 82 -69q59 -37 102 -58q47 -18 111 -33q58 -12 117 -12q230 0 411 172q78 76 125 185q45 104 45 227q0 114 -49 221q-39 100 -125 186q-74 78 -180 127q-100 47 -227 47.5t-226 -45.5q-96 -43 -182 -127 q-84 -80 -129 -186q-47 -110 -47 -223zM-65 2362q0 -74 41 -121q43 -68 131 -113q92 -43 192 -43q141 0 240 76l49 41l39 39q16 27 18.5 29t12.5 32.5t10 59.5q0 -86 -23 -164q-16 -45 -30 -72q-15 -31 -43 -61q-41 -51 -113 -84q-31 -14 -74 -25q-33 -8 -82 -8 q-147 0 -262 121q-6 8 -13 15t-10 12l-3 4l-2 4q-2 4 -6.5 10t-8.5 12q-25 31 -39 72l-18 76q-6 33 -6 88zM15 2558q0 35 30 66q29 27 62 27q15 0 31 -7q10 -4 30 -20q33 -29 33 -66q0 -35 -29 -63q-8 -8 -28 -21q-14 -8 -37 -8q-37 0 -66 29q-26 26 -26 63zM408 2554 q0 33 27 60q35 29 67.5 28.5t59.5 -24.5q25 -20 30 -64q0 -33 -26 -61q-29 -29 -64 -29q-39 0 -70 25q-24 24 -24 65zM37 965v71l86 11q6 0 72 12l161 35h88l-16 -154l-2 -127v-418q0 -80 2 -114q4 -82 8 -119q6 -59 10 -74l109 -25v-69l-250 6l-252 -6v69l111 25l10 94 q0 10 3 45t5 56q2 37 2 112v223v31v25v22q0 76 -6 131q0 27 -4 68q-4 35 -8 47zM164 1392.5q0 59.5 41 100.5t100 41q57 0 98 -41q43 -43 43 -100.5t-43 -100.5t-98 -43q-57 0 -100 43q-41 41 -41 100.5z" />
<glyph unicode="&#xf1;" horiz-adv-x="1689" d="M35 55h51l14 -24l19 24h26l54 54h53v53l31 31h51v53h31l137 139v31h55v49l29 29h55l27 30h59v82l78 82h29l26 27h47l29 -27l111 -164v-276h-29l-82 -78l55 -61h60l82 84h84v53h83l54 55h61v57h53v140l-30 30v54l-23 28v54h-61v30l-54 54h-30l-23 26l-252 168h-112 l-109 -111h-26l-109 -112h-57l-111 -109h-27l-28 -28h-25l-84 -84h-28l-27 -27h-55v-51h-29l-53 -60h-29l-51 -26v995h1622v-1681h-1622v407z" />
<glyph unicode="&#xf2;" d="M281 1462l96 52q57 29 96 61q61 -45 139 -129q65 -71 117 -197l-90 -41q-39 41 -90 86q-57 49 -84 70q-76 55 -184 98zM70 528q0 250 157 404t412 153q261 0 418 -153q156 -154 155 -404q0 -252 -155 -405q-154 -152 -418 -152q-258 0 -412 152q-157 153 -157 405z M324 528q0 -193 86 -311.5t229 -118.5t231 117q88 115 88 313q0 193 -86 311.5t-233 118.5q-143 0 -229 -116.5t-86 -313.5z" />
<glyph unicode="&#xf3;" d="M546 1249q49 126 117 197q31 34 68 68q45 41 69 61l4 -3q4 -3 12.5 -8t16.5 -12l64 -38l96 -52q-106 -45 -180 -96t-174 -158zM70 528q0 250 157 404t412 153q261 0 418 -153q156 -154 155 -404q0 -252 -155 -405q-154 -152 -418 -152q-258 0 -412 152q-157 153 -157 405 zM324 528q0 -193 86 -311.5t229 -118.5t231 117q88 115 88 313q0 193 -86 311.5t-233 118.5q-143 0 -229 -116.5t-86 -313.5z" />
<glyph unicode="&#xf4;" d="M70 528q0 250 157 404t412 153q261 0 418 -153q156 -154 155 -404q0 -252 -155 -405q-154 -152 -418 -152q-258 0 -412 152q-157 153 -157 405zM324 528q0 -193 86 -311.5t229 -118.5t231 117q88 115 88 313q0 193 -86 311.5t-233 118.5q-143 0 -229 -116.5t-86 -313.5z " />
<glyph unicode="&#xf5;" d="M228 1268q53 78 127 131q25 18 73 41q31 14 72 15q49 0 160 -43q53 -20 96 -31q49 -12 76 -13q47 0 84 29l71 62l62 -62q-47 -74 -123 -131q-25 -18 -74 -41q-31 -14 -73 -14q-49 0 -158 41q-113 47 -172 47q-45 0 -82 -31l-74 -61zM70 528q0 250 157 404t412 153 q261 0 418 -153q156 -154 155 -404q0 -252 -155 -405q-154 -152 -418 -152q-258 0 -412 152q-157 153 -157 405zM324 528q0 -193 86 -311.5t229 -118.5t231 117q88 115 88 313q0 193 -86 311.5t-233 118.5q-143 0 -229 -116.5t-86 -313.5z" />
<glyph unicode="&#xf6;" d="M-28 1878q0 133 53 256q29 68 62 115q31 45 83 98q82 88 209 145q119 53 262.5 53.5t258.5 -53.5q66 -31 112.5 -61.5t100.5 -83.5q86 -86 141 -213q57 -131 57 -256q0 -276 -198 -473q-201 -197 -469 -197q-133 0 -258 53.5t-213 141.5q-90 90 -148 213q-53 125 -53 262 zM60 1878q0 -127 47 -227q49 -106 125 -185q39 -43 82 -69q59 -37 102 -58q47 -18 111 -33q58 -12 117 -12q230 0 411 172q78 76 125 185q45 104 45 227q0 114 -49 221q-39 100 -125 186q-74 78 -180 127q-100 47 -227 47.5t-226 -45.5q-96 -43 -182 -127q-84 -80 -129 -186 q-47 -110 -47 -223zM271 1915q0 -74 41 -121q43 -68 131 -113q92 -43 192 -43q141 0 240 76l49 41l39 39q16 27 18.5 29t12.5 32.5t10 59.5q0 -86 -23 -164q-16 -45 -30 -72q-15 -31 -43 -61q-41 -51 -113 -84q-31 -14 -74 -25q-33 -8 -82 -8q-147 0 -262 121q-6 8 -13 15 t-10 12l-3 4l-2 4q-2 4 -6.5 10t-8.5 12q-25 31 -39 72l-18 76q-6 33 -6 88zM351 2111q0 35 30 66q29 27 62 27q15 0 31 -7q10 -4 30 -20q33 -29 33 -66q0 -35 -29 -63q-8 -8 -28 -21q-14 -8 -37 -8q-37 0 -66 29q-26 26 -26 63zM744 2107q0 33 27 60q35 29 67.5 28.5 t59.5 -24.5q25 -20 30 -64q0 -33 -26 -61q-29 -29 -64 -29q-39 0 -70 25q-24 24 -24 65zM70 528q0 250 157 404t412 153q261 0 418 -153q156 -154 155 -404q0 -252 -155 -405q-154 -152 -418 -152q-258 0 -412 152q-157 153 -157 405zM324 528q0 -193 86 -311.5t229 -118.5 t231 117q88 115 88 313q0 193 -86 311.5t-233 118.5q-143 0 -229 -116.5t-86 -313.5z" />
<glyph unicode="&#xf9;" horiz-adv-x="1277" d="M367 1462l96 52q57 29 96 61q61 -45 139 -129q65 -71 117 -197l-90 -41q-39 41 -90 86q-57 49 -84 70q-76 55 -184 98zM27 963v71q47 0 61 2q51 8 98 17q74 8 158 32h88l-16 -354v-280q0 -152 45 -228q47 -78 139 -78q123 0 191 107q68 109 67 293v127q0 47 -2 71 q-4 59 -8 82l-10 113l-129 25v71q27 0 67 4q8 0 20.5 3t31 6.5t32.5 5.5q59 8 154 32h92l-10 -165v-539l2 -188q0 -27 2 -37q6 -31 14 -68l111 -25l-2 -69l-172 6l-183 -6v199q-72 -109 -172 -166q-94 -55 -204 -56q-137 0 -227.5 90.5t-90.5 229.5v381q0 80 -6 153 q0 41 -6 72q-4 18 -5 28.5t-1 12.5z" />
<glyph unicode="&#xfa;" horiz-adv-x="1277" d="M630 1249q49 126 117 197q31 34 68 68q45 41 69 61l4 -3q4 -3 12.5 -8t16.5 -12l64 -38l96 -52q-106 -45 -180 -96t-174 -158zM27 963v71q47 0 61 2q51 8 98 17q74 8 158 32h88l-16 -354v-280q0 -152 45 -228q47 -78 139 -78q123 0 191 107q68 109 67 293v127q0 47 -2 71 q-4 59 -8 82l-10 113l-129 25v71q27 0 67 4q8 0 20.5 3t31 6.5t32.5 5.5q59 8 154 32h92l-10 -165v-539l2 -188q0 -27 2 -37q6 -31 14 -68l111 -25l-2 -69l-172 6l-183 -6v199q-72 -109 -172 -166q-94 -55 -204 -56q-137 0 -227.5 90.5t-90.5 229.5v381q0 80 -6 153 q0 41 -6 72q-4 18 -5 28.5t-1 12.5z" />
<glyph unicode="&#xfb;" horiz-adv-x="1277" d="M27 963v71q47 0 61 2q51 8 98 17q74 8 158 32h88l-16 -354v-280q0 -152 45 -228q47 -78 139 -78q123 0 191 107q68 109 67 293v127q0 47 -2 71q-4 59 -8 82l-10 113l-129 25v71q27 0 67 4q8 0 20.5 3t31 6.5t32.5 5.5q59 8 154 32h92l-10 -165v-539l2 -188q0 -27 2 -37 q6 -31 14 -68l111 -25l-2 -69l-172 6l-183 -6v199q-72 -109 -172 -166q-94 -55 -204 -56q-137 0 -227.5 90.5t-90.5 229.5v381q0 80 -6 153q0 41 -6 72q-4 18 -5 28.5t-1 12.5z" />
<glyph unicode="&#xfc;" horiz-adv-x="1277" d="M55 1878q0 133 53 256q29 68 62 115q31 45 83 98q82 88 209 145q119 53 262.5 53.5t258.5 -53.5q66 -31 112.5 -61.5t100.5 -83.5q86 -86 141 -213q57 -131 57 -256q0 -276 -198 -473q-201 -197 -469 -197q-133 0 -258 53.5t-213 141.5q-90 90 -148 213q-53 125 -53 262z M143 1878q0 -127 47 -227q49 -106 125 -185q39 -43 82 -69q59 -37 102 -58q47 -18 111 -33q58 -12 117 -12q230 0 411 172q78 76 125 185q45 104 45 227q0 114 -49 221q-39 100 -125 186q-74 78 -180 127q-100 47 -227 47.5t-226 -45.5q-96 -43 -182 -127q-84 -80 -129 -186 q-47 -110 -47 -223zM354 1915q0 -74 41 -121q43 -68 131 -113q92 -43 192 -43q141 0 240 76l49 41l39 39q16 27 18.5 29t12.5 32.5t10 59.5q0 -86 -23 -164q-16 -45 -30 -72q-15 -31 -43 -61q-41 -51 -113 -84q-31 -14 -74 -25q-33 -8 -82 -8q-147 0 -262 121q-6 8 -13 15 t-10 12l-3 4l-2 4q-2 4 -6.5 10t-8.5 12q-25 31 -39 72l-18 76q-6 33 -6 88zM434 2111q0 35 30 66q29 27 62 27q15 0 31 -7q10 -4 30 -20q33 -29 33 -66q0 -35 -29 -63q-8 -8 -28 -21q-14 -8 -37 -8q-37 0 -66 29q-26 26 -26 63zM827 2107q0 33 27 60q35 29 67.5 28.5 t59.5 -24.5q25 -20 30 -64q0 -33 -26 -61q-29 -29 -64 -29q-39 0 -70 25q-24 24 -24 65zM27 963v71q47 0 61 2q51 8 98 17q74 8 158 32h88l-16 -354v-280q0 -152 45 -228q47 -78 139 -78q123 0 191 107q68 109 67 293v127q0 47 -2 71q-4 59 -8 82l-10 113l-129 25v71 q27 0 67 4q8 0 20.5 3t31 6.5t32.5 5.5q59 8 154 32h92l-10 -165v-539l2 -188q0 -27 2 -37q6 -31 14 -68l111 -25l-2 -69l-172 6l-183 -6v199q-72 -109 -172 -166q-94 -55 -204 -56q-137 0 -227.5 90.5t-90.5 229.5v381q0 80 -6 153q0 41 -6 72q-4 18 -5 28.5t-1 12.5z" />
<glyph unicode="&#xfd;" horiz-adv-x="1134" d="M473 1249q49 126 117 197q31 34 68 68q45 41 69 61l4 -3q4 -3 12.5 -8t16.5 -12l64 -38l96 -52q-106 -45 -180 -96t-174 -158zM-55 -520l73 274l66 -6l12 -96l41 -14l56 -7q117 0 217 111q98 109 133 217l12 35h-92q-88 272 -178 498q-113 283 -201 477l-84 22v70l231 -4 l234 4v-68l-98 -22q72 -248 127 -404l133 -403l125 403q47 168 106 404l-94 20v70l180 -4l184 4v-68l-61 -22q-115 -266 -207 -510l-186 -512q-84 -238 -223 -369q-143 -133 -334 -133q-35 0 -54 2q-41 4 -47 6q-40 7 -71 25z" />
<glyph unicode="&#xff;" horiz-adv-x="1134" d="M-104 1878q0 133 53 256q29 68 62 115q31 45 83 98q82 88 209 145q119 53 262.5 53.5t258.5 -53.5q66 -31 112.5 -61.5t100.5 -83.5q86 -86 141 -213q57 -131 57 -256q0 -276 -198 -473q-201 -197 -469 -197q-133 0 -258 53.5t-213 141.5q-90 90 -148 213 q-53 125 -53 262zM-16 1878q0 -127 47 -227q49 -106 125 -185q39 -43 82 -69q59 -37 102 -58q47 -18 111 -33q58 -12 117 -12q230 0 411 172q78 76 125 185q45 104 45 227q0 114 -49 221q-39 100 -125 186q-74 78 -180 127q-100 47 -227 47.5t-226 -45.5q-96 -43 -182 -127 q-84 -80 -129 -186q-47 -110 -47 -223zM195 1915q0 -74 41 -121q43 -68 131 -113q92 -43 192 -43q141 0 240 76l49 41l39 39q16 27 18.5 29t12.5 32.5t10 59.5q0 -86 -23 -164q-16 -45 -30 -72q-15 -31 -43 -61q-41 -51 -113 -84q-31 -14 -74 -25q-33 -8 -82 -8 q-147 0 -262 121q-6 8 -13 15t-10 12l-3 4l-2 4q-2 4 -6.5 10t-8.5 12q-25 31 -39 72l-18 76q-6 33 -6 88zM275 2111q0 35 30 66q29 27 62 27q15 0 31 -7q10 -4 30 -20q33 -29 33 -66q0 -35 -29 -63q-8 -8 -28 -21q-14 -8 -37 -8q-37 0 -66 29q-26 26 -26 63zM668 2107 q0 33 27 60q35 29 67.5 28.5t59.5 -24.5q25 -20 30 -64q0 -33 -26 -61q-29 -29 -64 -29q-39 0 -70 25q-24 24 -24 65zM-55 -520l73 274l66 -6l12 -96l41 -14l56 -7q117 0 217 111q98 109 133 217l12 35h-92q-88 272 -178 498q-113 283 -201 477l-84 22v70l231 -4l234 4v-68 l-98 -22q72 -248 127 -404l133 -403l125 403q47 168 106 404l-94 20v70l180 -4l184 4v-68l-61 -22q-115 -266 -207 -510l-186 -512q-84 -238 -223 -369q-143 -133 -334 -133q-35 0 -54 2q-41 4 -47 6q-40 7 -71 25z" />
<glyph unicode="&#x152;" horiz-adv-x="724" d="M35 928l6 18q16 0 33 -4q20 0 37 -8q14 -2 45 -27q25 -14 57 -53l6 -10q6 -6 8 -13l33 -59l23 -33l39 -77l6 -11.5l6 -11.5q4 -8 20 -25l23 -32l16 -19l6 -12q2 -2 4.5 -5t2.5 -5q2 -6 6 -13l20 -34l8 -13l6 -10l52 -78l34 45l19 54l24 49h13h26l23 -9l41 -26l6 -19 l4 -22q0 -25 -4 -33q0 -27 -6 -41l-68 -172l-18 -2q-9 0 -25 -6l-32 -6q-25 4 -35 6q-12 4 -23 16q-18 22 -31 49l-43 76l-57 103l-39 67l-14 23q-4 10 -8 12l-25 41l-47 74l-33 55l-61 92l-10 15q-2 10 -9 14l-22 24z" />
<glyph unicode="&#x153;" horiz-adv-x="1138" d="M35 -41l26 55q4 14 39 66l35 55l49 72l56 76q6 6 34 45q16 23 26.5 35t14.5 18l78 104l70 82l-154 445l25 47l26 12l13 -6l20 -14l15 16l16 -8l31 33l32 -9l152 -305l303 357h27l43 -29l47 39l12 -29l35 -49l-47 -59l-94 -113q-25 -29 -97 -129l-129 -180l193 -430 l-25 -21v-14l-39 -33l15 -29q-4 -8 -29 -32q-20 -12 -35 -15l-12 6q-6 3 -19 13q-12 10 -22 22q-10 14 -23 35l-90 145l-80 136l-180 -265q-6 -14 -35 -59l-59 -98l-57 -99l-31 -53l-35 -12l-80 -10l-41 55l-14 45l14 55z" />
<glyph unicode="&#x178;" horiz-adv-x="1251" d="M35 6v248h37l14 -14l8 14h19l47 41h33v39l22 20h39v43h20l103 99v24h39v35l18 20h43l21 23h41v57l59 60h16l23 22h37l22 -22l78 -117v-199h-18l-60 -65l35 -39h47l62 59h59v43h62l40 41h37v37h41v107l-20 20v39l-21 18v43h-37v23l-40 37h-25l-21 18l-182 121h-80l-78 -80 h-20l-78 -82h-43l-80 -80h-20l-19 -18h-16l-66 -59h-20l-20 -25h-37v-35h-23l-45 -41h-16l-37 -22v723h1184v-1176h-1184z" />
<glyph unicode="&#x2c6;" horiz-adv-x="0" />
<glyph unicode="&#x2dc;" horiz-adv-x="532" d="M-145 1286q53 78 127 131q25 18 73 41q31 14 72 15q49 0 160 -43q53 -20 96 -31q49 -12 76 -13q47 0 84 29l71 62l62 -62q-47 -74 -123 -131q-25 -18 -74 -41q-31 -14 -73 -14q-49 0 -158 41q-113 47 -172 47q-45 0 -82 -31l-74 -61z" />
<glyph unicode="&#x2000;" horiz-adv-x="1495" />
<glyph unicode="&#x2001;" horiz-adv-x="2992" />
<glyph unicode="&#x2002;" horiz-adv-x="1495" />
<glyph unicode="&#x2003;" horiz-adv-x="2992" />
<glyph unicode="&#x2004;" horiz-adv-x="995" />
<glyph unicode="&#x2005;" horiz-adv-x="747" />
<glyph unicode="&#x2006;" horiz-adv-x="497" />
<glyph unicode="&#x2007;" horiz-adv-x="497" />
<glyph unicode="&#x2008;" horiz-adv-x="372" />
<glyph unicode="&#x2009;" horiz-adv-x="595" />
<glyph unicode="&#x200a;" horiz-adv-x="163" />
<glyph unicode="&#x2010;" horiz-adv-x="849" d="M57 477l62 137h104l502 2l-61 -137h-105z" />
<glyph unicode="&#x2011;" horiz-adv-x="849" d="M57 477l62 137h104l502 2l-61 -137h-105z" />
<glyph unicode="&#x2012;" horiz-adv-x="849" d="M57 477l62 137h104l502 2l-61 -137h-105z" />
<glyph unicode="&#x2013;" horiz-adv-x="958" d="M-61 477l61 137h520l500 2l-62 -137h-520z" />
<glyph unicode="&#x2014;" horiz-adv-x="1916" d="M-37 477l62 137h1425l498 2l-64 -137h-1423z" />
<glyph unicode="&#x2018;" horiz-adv-x="638" d="M106 766q0 168 80 352.5t164 267.5l99 -57q-53 -139 -70 -264t-17 -264l-133 -13z" />
<glyph unicode="&#x2019;" horiz-adv-x="638" d="M106 825q53 141 72 265q8 72 10 116q4 82 5 150l137 10l119 20q0 -168 -82 -350q-35 -78 -82 -162q-35 -61 -82 -108z" />
<glyph unicode="&#x201a;" horiz-adv-x="638" d="M106 -313q53 139 70 262q16 125 17 268l137 10l119 21q0 -164 -82 -352q-78 -180 -164 -267z" />
<glyph unicode="&#x201c;" horiz-adv-x="886" d="M78 766q0 156 82 348q80 188 164 272l98 -57q-20 -59 -45 -143q-16 -55 -29 -121q-4 -39 -8 -121q-4 -86 -4 -143l-131 -13zM518 766q0 168 80 352q78 180 166 268l96 -57q-12 -35 -43 -143q-16 -55 -29 -121q0 -12 -4 -54t-6 -73q-4 -55 -4 -137l-131 -13z" />
<glyph unicode="&#x201d;" horiz-adv-x="886" d="M23 825q52 141 73 265q0 10 3 53l5 74q6 82 7 139l137 10l119 20q0 -168 -82 -350q-86 -190 -166 -270zM463 825q49 131 72 265q0 12 4 54t6 73q4 55 4 139l137 10l119 20q0 -168 -82 -350q-86 -190 -166 -270z" />
<glyph unicode="&#x201e;" horiz-adv-x="886" d="M29 -313q57 147 71 262q14 109 15 268l137 10l119 21q0 -168 -80 -352q-76 -176 -166 -267zM467 -313q55 145 71.5 266t16.5 264l137 10l119 21q0 -166 -82 -352q-80 -180 -166 -267z" />
<glyph unicode="&#x2022;" horiz-adv-x="669" d="M102 673.5q0 100.5 72 168t164 67.5q98 0 170 -71q70 -70 70 -164q0 -98 -70 -170q-72 -70 -170 -70q-96 0 -166 69.5t-70 170z" />
<glyph unicode="&#x2026;" horiz-adv-x="724" d="M35 449q-4 20 18 57l35 26l25 9h22h21l18 -49l8 -29l11 -25l34 -45l52 78l34 57l21 35l12 12l2 7q6 16 31 45l35 59l67 111l6 16q0 2 1 5t4 5l2 3q2 3 4 5l14 23q18 37 76 68q59 25 96 24l4 -18l-39 -56l-22 -24l-82 -121l-31 -55l-51 -74l-84 -143l-80 -148l-33 -53 l-26 -37q-3 -3 -50 -12q-35 0 -57 12h-12l-6 2l-39 100l-23 72z" />
<glyph unicode="&#x202f;" horiz-adv-x="595" />
<glyph unicode="&#x2039;" horiz-adv-x="0" />
<glyph unicode="&#x203a;" horiz-adv-x="0" />
<glyph unicode="&#x205f;" horiz-adv-x="747" />
<glyph unicode="&#x2122;" horiz-adv-x="1067" d="M41 1260v94h371v-94h-31q0 25 -16.5 47t-42.5 22h-64v-340q0 -29 6 -35t47 -12v-20h-172v20q39 0 47.5 8t8.5 39v340h-66q-23 0 -41 -20q-16 -18 -16 -49h-31zM469 922v20q34 0 43 12q8 10 8 35v297q0 29 -8 37q-10 10 -43 10v21h102l174 -348l175 348h98v-21 q-37 0 -47 -8q-6 -10 -6 -39v-297q0 -27 6 -35q4 -6 47 -12v-20h-168v20q35 0 45 12q8 10 8 35v266l-168 -333h-16l-166 333v-266q0 -29 6 -35t49 -12v-20h-139z" />
<glyph unicode="&#xe000;" horiz-adv-x="1060" d="M0 1060h1060v-1060h-1060v1060z" />
<glyph unicode="&#xfb01;" d="M711 965v71l86 11q6 0 72 12l161 35h88l-16 -154l-2 -127v-418q0 -80 2 -114q4 -82 8 -119q6 -59 10 -74l109 -25v-69l-250 6l-252 -6v69l111 25l10 94q0 10 3 45t5 56q2 37 2 112v223v31v25v22q0 76 -6 131q0 27 -4 68q-4 35 -8 47zM838 1392.5q0 59.5 41 100.5t100 41 q57 0 98 -41q43 -43 43 -100.5t-43 -100.5t-98 -43q-57 0 -100 43q-41 41 -41 100.5zM53 -6v69l111 25l10 94q0 10 3 45t5 56q2 37 2 112v547l-123 -4v74l123 45v61q0 188 149.5 299t309.5 111q100 0 161.5 -18.5t65.5 -26.5l-98 -248l-76 16l6 103l-47 22q-27 10 -73 10 q-72 0 -113 -47q-45 -51 -45 -137v-145l219 2l-49 -119h-170v-545q0 -86 2 -119q4 -74 10 -114q9 -68 13 -74l137 -25v-69l-281 6z" />
<glyph unicode="&#xfb02;" d="M709 1403v72l317 53h90l-14 -154l-4 -127v-852q0 -80 2 -114q4 -82 8 -119q6 -59 10 -74l111 -25v-69l-252 6l-250 -6v69l107 25q6 6 8 29q4 37 4 65q0 10 3 45t5 56q2 37 2 112v662q0 59 -2 94q-2 18 -3 56t-1 59q0 27 -4 67q-4 33 -8 45zM53 -6v69l111 25l10 94 q0 10 3 45t5 56q2 37 2 112v547l-123 -4v74l123 45v61q0 188 149.5 299t309.5 111q100 0 161.5 -18.5t65.5 -26.5l-98 -248l-76 16l6 103l-47 22q-27 10 -73 10q-72 0 -113 -47q-45 -51 -45 -137v-145l219 2l-49 -119h-170v-545q0 -86 2 -119q4 -74 10 -114q9 -68 13 -74 l137 -25v-69l-281 6z" />
<glyph unicode="&#xfb03;" horiz-adv-x="1953" d="M1387 965v71l86 11q6 0 72 12l161 35h88l-16 -154l-2 -127v-418q0 -80 2 -114q4 -82 8 -119q6 -59 10 -74l109 -25v-69l-250 6l-252 -6v69l111 25l10 94q0 10 3 45t5 56q2 37 2 112v223v31v25v22q0 76 -6 131q0 27 -4 68q-4 35 -8 47zM1514 1392.5q0 59.5 41 100.5 t100 41q57 0 98 -41q43 -43 43 -100.5t-43 -100.5t-98 -43q-57 0 -100 43q-41 41 -41 100.5zM727 -6v69l111 25l10 94q0 10 3 45t5 56q2 37 2 112v547l-123 -4v74l123 45v61q0 188 149.5 299t309.5 111q100 0 161.5 -18.5t65.5 -26.5l-98 -248l-76 16l6 103l-47 22 q-27 10 -73 10q-72 0 -113 -47q-45 -51 -45 -137v-145l219 2l-49 -119h-170v-545q0 -86 2 -119q4 -74 10 -114q9 -68 13 -74l137 -25v-69l-281 6zM53 -6v69l111 25l10 94q0 10 3 45t5 56q2 37 2 112v547l-123 -4v74l123 45v61q0 188 149.5 299t309.5 111q100 0 161.5 -18.5 t65.5 -26.5l-98 -248l-76 16l6 103l-47 22q-27 10 -73 10q-72 0 -113 -47q-45 -51 -45 -137v-145l219 2l-49 -119h-170v-545q0 -86 2 -119q4 -74 10 -114q9 -68 13 -74l137 -25v-69l-281 6z" />
<glyph unicode="&#xfb04;" horiz-adv-x="1953" d="M1385 1403v72l317 53h90l-14 -154l-4 -127v-852q0 -80 2 -114q4 -82 8 -119q6 -59 10 -74l111 -25v-69l-252 6l-250 -6v69l107 25q6 6 8 29q4 37 4 65q0 10 3 45t5 56q2 37 2 112v662q0 59 -2 94q-2 18 -3 56t-1 59q0 27 -4 67q-4 33 -8 45zM727 -6v69l111 25l10 94 q0 10 3 45t5 56q2 37 2 112v547l-123 -4v74l123 45v61q0 188 149.5 299t309.5 111q100 0 161.5 -18.5t65.5 -26.5l-98 -248l-76 16l6 103l-47 22q-27 10 -73 10q-72 0 -113 -47q-45 -51 -45 -137v-145l219 2l-49 -119h-170v-545q0 -86 2 -119q4 -74 10 -114q9 -68 13 -74 l137 -25v-69l-281 6zM53 -6v69l111 25l10 94q0 10 3 45t5 56q2 37 2 112v547l-123 -4v74l123 45v61q0 188 149.5 299t309.5 111q100 0 161.5 -18.5t65.5 -26.5l-98 -248l-76 16l6 103l-47 22q-27 10 -73 10q-72 0 -113 -47q-45 -51 -45 -137v-145l219 2l-49 -119h-170v-545 q0 -86 2 -119q4 -74 10 -114q9 -68 13 -74l137 -25v-69l-281 6z" />
</font>
</defs>
</svg>
