<?xml version="1.0" standalone="no"?>
<!DOCTYPE svg PUBLIC "-//W3C//DTD SVG 1.1//EN" "http://www.w3.org/Graphics/SVG/1.1/DTD/svg11.dtd" >
<svg xmlns="http://www.w3.org/2000/svg">
<metadata>
This is a custom SVG webfont generated by Font Squirrel.
Copyright   : Copyright c1994 STAR Retrieval Systems All Rights Reserved
</metadata>
<defs>
<font id="webfontNbSVJs4H" horiz-adv-x="1134" >
<font-face units-per-em="2048" ascent="1638" descent="-410" />
<missing-glyph horiz-adv-x="567" />
<glyph unicode=" "  horiz-adv-x="567" />
<glyph unicode="&#x09;" horiz-adv-x="567" />
<glyph unicode="&#xa0;" horiz-adv-x="567" />
<glyph unicode="!" horiz-adv-x="782" d="M170 1360l231 -6l209 8l4 -53l-125 -25l-51 -850h-92l-57 848l-115 23zM293 68q0 39 31 69q33 33 71 33q37 0 70 -33t33 -67q0 -39 -33 -72q-31 -31 -70 -31t-69 31q-33 33 -33 70z" />
<glyph unicode="&#x22;" horiz-adv-x="817" d="M217 1282q0 37 21 74q18 29 47 30q27 0 45 -30.5t18 -73.5l-20 -301q-9 -98 -43 -98q-27 0 -45 98zM442 1282q0 37 21 74q18 29 47 30q27 0 45 -30.5t18 -73.5l-20 -301q-9 -98 -43 -98q-29 0 -47 98z" />
<glyph unicode="#" d="M96 438v86h226l43 305h-207v89h219l59 440h96l-59 -440h270l58 440h98l-59 -440h202v-89h-215l-41 -305h193v-86h-205l-59 -438h-99l60 438h-268l-60 -438h-96l57 438h-213zM420 524h268l43 305h-268z" />
<glyph unicode="$" d="M61 127l58 229l55 2l12 -125q33 -33 150 -79q33 -12 102 -29q53 -12 103 -12v534q-223 63 -326 127q-115 72 -115 199q0 162 144 260q113 80 297 96v199h86v-195q96 0 204 -22q88 -18 197 -62l-37 -116l-26 -117l-50 4l-4 57v35q-2 14 -3 23.5t-1 13.5q-14 10 -110 47 q-41 16 -82 25q-47 10 -88 10v-457l22 -6q224 -61 326 -154q96 -84 96 -211q0 -166 -145 -274q-106 -80 -299 -102v-295h-86v291q-127 0 -238 18q-63 10 -113 29q-66 24 -129 57zM268 1012q0 -109 125 -158l148 -53v430q-53 0 -103 -17q-46 -15 -86 -43q-84 -59 -84 -159z M627 117q109 12 180 63q90 70 90 191q0 113 -96 172q-66 43 -174 78v-504z" />
<glyph unicode="%" horiz-adv-x="1525" d="M37 1012q0 160 100 266q102 109 254 108q150 0 252 -106q100 -102 100 -260q0 -166 -94 -272q-96 -109 -246 -109q-162 0 -264 104q-102 107 -102 269zM137 -61l1102 1447l147 29l-1091 -1442zM172 1061q0 -160 61.5 -254t176.5 -94q96 0 153 78q53 80 53 219 q0 131 -63.5 219t-159.5 88q-90 0 -155 -74q-66 -76 -66 -182zM782 340q0 160 101 266q102 109 254 109q156 0 254 -107q100 -111 100 -262q0 -166 -94 -272.5t-248 -106.5q-162 0 -264 105q-103 106 -103 268zM920 389q0 -162 59 -254q61 -94 176 -94q100 0 154 78 q55 82 55 217q0 131 -66 221q-63 88 -159 88q-92 0 -160 -74q-59 -71 -59 -182z" />
<glyph unicode="&#x26;" horiz-adv-x="1667" d="M129 377q0 88 18 149q20 68 60 113q74 94 248 162l-33 65q-25 59 -25 123q0 193 119 293q121 102 315 102q100 0 175 -61q72 -59 71 -172q0 -121 -112 -217q-102 -88 -326 -146q113 -158 188 -233q49 -55 125 -123q51 -45 142 -115q68 80 112 215q8 23 23 93q8 39 8 77 q0 23 -2 35q-2 6 -10 43l-107 -12l-10 43q78 29 135 57q43 20 60 31q18 12 71 43l4 -98q0 -53 -6 -96q-20 -152 -92 -299l-55 -101q-37 -59 -60 -84q150 -100 332 -170l127 37l18 -51l-229 -113q-113 45 -194 96l-76 48l-74 55q-86 -74 -184 -129q-115 -70 -293 -70 q-211 0 -336 131q-127 134 -127 279zM293 440q0 -162 110 -262q113 -102 254 -102q117 0 213 49q63 31 127 90q-76 55 -137 109q-94 82 -139 129q-74 76 -127 139q-52 65 -98 135q-78 -37 -138 -100q-33 -37 -49 -84q-16 -50 -16 -103zM537 1047q0 -80 63 -197 q170 45 248 111q86 68 86 163q0 82 -47 123q-49 43 -125 43q-90 0 -156 -63q-69 -65 -69 -180z" />
<glyph unicode="'" horiz-adv-x="567" d="M217 1282q0 41 19 74q18 29 47 30q27 0 45 -30.5t18 -73.5l-20 -301q-9 -98 -43 -98q-27 0 -45 98z" />
<glyph unicode="(" horiz-adv-x="673" d="M227 500q0 297 117 536q113 229 213 328l53 -47q-63 -66 -151 -305q-84 -227 -84 -512q0 -279 84 -512q82 -229 151 -301l-53 -47q-96 92 -211 325q-119 242 -119 535z" />
<glyph unicode=")" horiz-adv-x="673" d="M61 -313q70 70 156 307q39 109 62 242q23 135 22 264q0 283 -84 508q-86 231 -156 309l52 47q98 -89 215 -326q119 -242 118 -538q0 -150 -28 -283q-27 -125 -90 -252q-111 -227 -215 -325z" />
<glyph unicode="*" horiz-adv-x="995" d="M172 1075q0 25 2 33q8 31 16 53q10 39 37 78q41 -33 99 -65l149 -80q-6 29 -14 96q-4 35 -17 86q-12 53 -28 100q47 10 84 10q31 0 45 -2q29 -4 43 -8q0 -2 -2 -9t-6.5 -20.5t-8.5 -27.5l-8 -27.5l-6 -20.5t-2 -9l-31 -168q20 10 35.5 19t27 14.5l27.5 13.5q39 18 60 33 q63 33 100 65q25 -37 37 -78q8 -29 16 -86l-118 -4q-10 0 -47 -4q-14 -2 -58.5 -10t-62.5 -10l121 -119l94 -72l-64 -59q-25 -18 -76 -43q-20 63 -41 110q-8 20 -28 62l-47 92q-12 -23 -74 -154l-43 -110q-29 12 -39 18q-18 12 -35 25q-37 27 -63 59q10 8 22.5 16.5 t14.5 10.5q12 8 30.5 24.5t24.5 20.5l123 119l-170 24z" />
<glyph unicode="+" horiz-adv-x="1148" d="M90 442v97h440v434h97v-434h434v-97h-434v-438h-97v438h-440z" />
<glyph unicode="," horiz-adv-x="567" d="M152 -299q49 129 75 236q25 101 25 221h86l78 12q0 -86 -54 -227q-55 -150 -153 -275z" />
<glyph unicode="-" horiz-adv-x="817" d="M84 496l51 106h101l495 2l-49 -106h-102z" />
<glyph unicode="." horiz-adv-x="567" d="M180 70q0 39 31 69.5t72 30.5q39 0 69.5 -30.5t30.5 -69.5q0 -41 -30.5 -72t-69.5 -31q-41 0 -72 31t-31 72z" />
<glyph unicode="/" d="M72 -61l860 1476l143 27l-860 -1477z" />
<glyph unicode="0" d="M84 676q0 315 127 514q126 197 356 196q225 0 353 -194q70 -106 98 -225q31 -129 31 -291q0 -324 -127 -514q-129 -193 -354.5 -193t-354.5 195q-129 193 -129 512zM248 676q0 -287 80 -455t239 -168q154 0 236 166q82 164 82 457q0 291 -80 459q-80 170 -238 170 q-160 0 -239 -170q-80 -168 -80 -459z" />
<glyph unicode="1" d="M309 1231v51q35 8 70 18q59 20 76 27l34.5 13.5t18.5 7.5t8 3t6 3q16 6 66 32h65l-4 -444v-545l10 -329l132 -23v-51l-224 6l-221 -6v51l133 23l6 327v609l-6 227h-170z" />
<glyph unicode="2" d="M16 76q57 39 134 100q84 68 133 113q123 117 233 239q66 72 158 213.5t92 294.5q0 111 -65.5 182.5t-168.5 71.5q-92 0 -167 -28q-61 -23 -101 -62l2 -129l-53 -12l-61 237q18 10 88 35l67 25q98 31 203 30q195 0 315 -102q119 -100 119 -258q0 -150 -123 -321 q-68 -94 -112 -148q-51 -61 -95 -100q-113 -113 -188 -176q-2 -2 -98 -78q-4 -4 -42 -32l-61 -44l219 -8q109 0 136 2q37 2 125 12q70 0 112 8l27.5 4t21.5 3.5t11 1.5l65 112l47 -10q-10 -51 -18 -78l-13 -47q-2 -8 -4 -17.5l-5 -24.5t-5 -26q-8 -41 -12 -65l-447 6 l-440 -6z" />
<glyph unicode="3" d="M31 205l205 127l18 -33l-49 -72q29 -59 102 -112q72 -51 195 -52q150 0 252 105q102 106 102 256q0 133 -80 217t-256 84l-131 -16l-18 69q133 35 241 101q113 68 113 204q0 98 -51 152q-51 55 -152 55q-92 0 -147 -30q-10 -6 -22.5 -11.5t-24.5 -11.5q-20 -12 -35 -23 l8 -81l-47 -15q-16 68 -49 129l-27 56l127 49q86 35 230 34q160 0 256 -81q98 -84 98 -211q0 -94 -60 -172q-61 -80 -217 -123q233 0 328 -101q92 -98 92 -235q0 -199 -170 -346.5t-397 -147.5q-88 0 -158 19q-72 18 -127 55q-106 80 -149 162z" />
<glyph unicode="4" d="M43 498l336 499l317 494h97l18 -31l-317 -469l-154 -231l-156 -242h490v600l137 64l27 -25l-13 -145v-494h23q45 0 57 2q18 3 49 12l56 21l22 -29l-43 -69q-2 -4 -20 -29q-6 -8 -15 -16h-129v-11l13 -329l118 -21v-53l-206 6l-246 -6v53l162 21l8 327v13h-572z" />
<glyph unicode="5" d="M53 270l207 127l29 -39l-68 -84q25 -86 103 -147q78 -63 211 -64q143 0 237 96.5t94 246.5q0 141 -94 233q-95 92 -240 92q-45 0 -79 -8q-39 -8 -82 -29q-53 -25 -76 -39q-45 -29 -62 -45l-77 54l127 673l34 23l199 -6h41h35h31h24h21q45 0 65 2q37 4 58 8q43 0 75 4 q27 4 84 18l27 -26l-70 -64l-57 -69h-475l-94 -477q61 43 139 67q70 23 149 23q207 0 334 -115q131 -119 131 -299q0 -182 -155 -322q-150 -135 -365 -135q-184 0 -299 90q-121 94 -162 211z" />
<glyph unicode="6" d="M94 532q0 340 250 609q254 272 586 387l31 -72q-399 -166 -576 -446q-111 -184 -129 -389q23 45 43 67q27 31 70 64q113 88 262 88q170 0 290.5 -121t120.5 -291q0 -188 -137 -324q-139 -135 -327 -135q-209 0 -346.5 143.5t-137.5 419.5zM270 416q0 -164 97 -264 q96 -98 219 -99q139 0 215 88t76 244q0 150 -78 250q-76 96 -207 96q-145 0 -233.5 -88t-88.5 -227z" />
<glyph unicode="7" d="M154 1112l53 248h782l43 -78q-197 -258 -342 -600q-78 -195 -112 -340q-45 -186 -46 -346q-66 -20 -104 -53q-41 -33 -76 -78l-45 24q94 451 271 820q76 162 161 309q70 119 146 205l-246 6h-64q-166 0 -319 -19l-51 -116z" />
<glyph unicode="8" d="M100 342q0 131 82 227q74 90 240 140q-141 53 -195 137q-57 90 -57 178q0 154 116.5 258t293.5 104q82 0 153 -22q63 -20 121 -68q102 -86 102 -235q0 -113 -69 -189q-71 -77 -228 -122q180 -49 275 -148q96 -100 96 -221q0 -178 -135 -295t-346 -117q-188 0 -318 109 q-131 110 -131 264zM256 352q0 -127 88 -211q86 -78 227 -78q131 0 219.5 76t88.5 191q0 145 -146 225q-133 74 -235 115q-80 -39 -160 -115q-82 -74 -82 -203zM311 1071q0 -113 92 -182q88 -68 177 -101q88 37 157 99q78 68 78 172q0 109 -72 174q-76 70 -180 70t-178 -68 t-74 -164z" />
<glyph unicode="9" d="M94 915q0 203 131 336q131 135 336 135q199 0 340 -143q141 -145 141 -407q0 -323 -239 -603q-238 -279 -596 -407l-33 72q369 151 559 430q74 106 109 200q37 101 37 203q-59 -98 -148 -153q-98 -61 -221 -62q-176 0 -297 115q-119 112 -119 284zM260 977 q0 -158 78 -258q76 -98 211 -98q127 0 219 84q96 86 96 237q0 168 -92 264.5t-219 96.5q-135 0 -215 -89q-78 -85 -78 -237z" />
<glyph unicode=":" horiz-adv-x="567" d="M180 70q0 39 31 69.5t72 30.5q39 0 69.5 -30.5t30.5 -69.5q0 -41 -30.5 -72t-69.5 -31q-41 0 -72 31t-31 72zM180 688q0 39 31 70q33 33 72 33q37 0 69 -33q31 -31 31 -70q0 -41 -30.5 -71.5t-69.5 -30.5q-41 0 -72 30.5t-31 71.5z" />
<glyph unicode=";" horiz-adv-x="567" d="M152 -299q49 129 75 236q25 101 25 221h86l78 12q0 -86 -54 -227q-55 -150 -153 -275zM209 688q0 39 31 70q33 33 71 33q37 0 70 -33t33 -70q0 -39 -33 -72q-31 -31 -70 -30.5t-69 30.5q-33 33 -33 72z" />
<glyph unicode="&#x3c;" horiz-adv-x="1148" d="M90 436v103l969 454v-119l-848 -389l848 -385v-118z" />
<glyph unicode="=" horiz-adv-x="1148" d="M90 248v96h967v-96h-967zM90 631v96h967v-96h-967z" />
<glyph unicode="&#x3e;" horiz-adv-x="1148" d="M90 -18v118l850 385l-850 389v119l969 -454v-103z" />
<glyph unicode="?" horiz-adv-x="958" d="M96 1300q29 14 62 27l69 27q102 33 222 32q201 0 305 -94q100 -92 100 -225q0 -92 -111 -203q-100 -100 -290 -157l-19 -236l-74 -22l-57 299l33 38q170 31 254 119t84 185q0 80 -62 135q-63 57 -159 57q-76 0 -154 -39l-72 -37l2 -112l-41 -15l-69 178l-7.5 14.5 t-9.5 16.5l-2 4zM285 70q0 43 28.5 71.5t71.5 28.5t71.5 -28.5t28.5 -69.5q0 -43 -28 -72q-31 -31 -72 -31q-37 0 -74 31q-26 27 -26 70z" />
<glyph unicode="@" horiz-adv-x="1148" d="M45 516q0 205 160 364.5t395 159.5q221 0 365 -127q141 -127 141 -299q0 -156 -94 -278q-92 -119 -199 -119q-33 0 -72 23q-37 23 -55 88q-23 -33 -74 -72q-27 -18 -53 -27q-31 -10 -59 -10q-55 0 -99 51q-43 53 -43 146q0 120 93 239q94 123 223 123q27 0 53.5 -18.5 t44.5 -67.5l8 58h115l-102 -381q0 -2 -1 -5.5t-2.5 -6.5t-1.5 -7q-2 -4 -2 -13t-2 -13q0 -23 15 -37q27 -20 49 -21q63 0 135 102.5t72 249.5q0 152 -129 269q-127 115 -322 114q-180 0 -315 -143q-133 -141 -133 -348q0 -211 137 -348q139 -139 309 -139q109 0 195 22 q78 20 123 55l20 -34q-25 -25 -119 -54q-102 -31 -209 -30q-246 0 -407 161q-160 160 -160 373zM457 375q0 -53 28.5 -76t59.5 -23q84 0 145 121q61 119 62 207q0 39 -2 49q-2 6 -15 37q-10 35 -39 35q-96 0 -167.5 -114.5t-71.5 -235.5z" />
<glyph unicode="A" horiz-adv-x="1454" d="M45 -6v51l100 23q141 344 246 624l74 209l74 209l73 209l72 22q18 6 55 23q18 8 47 22l41 -22l109 -317l121 -332l123 -322l131 -325l102 -25v-49l-223 4l-221 -4v51l131 23l-150 469l-243 6l-254 -6l-142 -469l131 -23v-51l-198 6zM483 633l217 -6l220 6l-224 608z" />
<glyph unicode="B" horiz-adv-x="1312" d="M80 -6v51l119 23q6 14 10 45q4 41 4 75l4 168v641l-14 289l-119 21v53l217 -6l406 10q201 0 305 -72q106 -74 106 -225q0 -98 -69 -184q-33 -35 -93 -64q-57 -27 -151 -49q221 0 336 -90q117 -92 116 -219q0 -213 -151 -342t-399 -129l-406 10zM385 127l147 -29l146 -14 q184 0 288.5 86t104.5 258q0 151 -110 215q-109 63 -334 64q-33 0 -59.5 -2.5t-63.5 -2.5q-55 0 -119 -14v-561zM385 799l168 -8q176 0 274 67q102 61 103 189q0 121 -74 172q-72 51 -225 51l-246 -13v-458z" />
<glyph unicode="C" horiz-adv-x="1312" d="M74 676q0 305 221 507.5t559 202.5q133 0 217 -20t154 -55l16 -6q-20 -57 -41 -136q-2 -6 -5 -26.5t-7 -32.5q-12 -45 -17 -76l-43 4l-16 150q-27 18 -74 41q-27 12 -88 28q-8 2 -42 8.5t-50 8.5q-40 6 -92 6q-236 0 -377 -162q-141 -164 -141 -428q0 -250 155.5 -424 t387.5 -174q126 0 233 55q115 59 211 144l47 -49q-63 -68 -121 -111q-74 -55 -139 -90q-145 -74 -305 -74q-268 0 -457 207q-186 205 -186 502z" />
<glyph unicode="D" horiz-adv-x="1490" d="M82 -6v51l117 23q0 2 1 6t2 13t3 17q6 31 6 84l6 168v641l-6 168q0 35 -4 76q-4 33 -8 45l-117 21v53l217 -6l510 10q289 0 444 -170q158 -174 158 -475t-209 -516t-497 -215l-406 12zM399 125q86 -20 146 -29q25 -4 73 -8q45 -4 72 -4q252 0 393 168q66 82 105 203 q35 111 35 264q0 250 -140 401q-137 150 -381 150h-63q-27 0 -88 -6q-35 0 -64 -7q-55 -12 -88 -20v-1112z" />
<glyph unicode="E" horiz-adv-x="1241" d="M84 -6v51l121 23l12 120q0 53 2 91q4 74 4 77v641l-18 289l-117 21v53l217 -6h750q0 -35 4 -58q10 -53 14 -71q18 -80 21 -84q2 -6 18 -43l-53 -17l-74 133q-9 6 -49 12.5t-98 6.5q-88 8 -142 10q-98 4 -178 4h-112l-9 -110q-10 -119 -10 -254v-90h105q43 0 133 4 q18 0 55 1t53 3q49 0 72 2q37 4 39 6l33 88h51l-8 -154q0 -55 2 -77q4 -55 8 -78h-56l-32 104l-350 13h-105v-244q0 -102 2 -142q4 -78 8 -114l9 -109h196q104 0 133 2q100 8 129 11q41 4 131 16q35 4 58 10l84 160l49 -21l-9.5 -28.5t-11.5 -36.5q-12 -49 -18 -78 q-12 -61 -14 -72q-4 -37 -5 -59h-823z" />
<glyph unicode="F" horiz-adv-x="1099" d="M82 1307v53l219 -6h711q0 -46 18 -123q16 -74 39 -123l-55 -14l-72 125l-27 4q-78 12 -124 12q-123 12 -318 12h-70l-10 -110q-10 -119 -10 -254v-123h102l250 6q8 0 24.5 -0.5t24.5 -0.5q13 0 23 1q37 4 41 8l33 88h51l-8 -151q0 -51 2 -76q4 -49 8 -78h-55l-33 100 l-361 13h-104l2 -314l6 -168q0 -61 4 -79q6 -27 15 -41l161 -23v-51l-268 6l-217 -6v51l119 23l14 288v641l-14 289z" />
<glyph unicode="G" horiz-adv-x="1454" d="M84 676q0 315 203 512q205 199 536 198q66 0 123 -6q74 -8 113 -16q88 -18 180 -59q-18 -53 -39 -131q-8 -33 -12 -54l-12 -78l-50 9v129q-66 37 -180 71q-43 14 -96 21q-61 8 -102 8q-215 0 -355 -170q-137 -168 -137 -434q0 -250 156 -424q158 -176 379 -176 q111 0 202 33q51 18 76 30q53 27 59 31v233l-4 218l-153 22v49h411v-47l-84 -27l-2 -436l78 -41q-123 -71 -276 -123q-152 -51 -328 -51q-293 0 -489.5 203t-196.5 506z" />
<glyph unicode="H" horiz-adv-x="1454" d="M80 -6v51l119 23q6 14 10 45q4 41 4 75l4 168v641l-14 289l-119 21v53l219 -6l219 6v-53l-119 -21l-12 -121l-6 -168v-213l684 -2l2 215l-18 289l-117 21v53l217 -6l221 6v-53l-117 -21q-8 -18 -10 -45q-4 -41 -4 -76l-6 -168v-641l16 -288l119 -23v-51l-219 6l-221 -6 v51l119 23l14 120l6 168v330l-684 2l-2 -332l18 -288l117 -23v-51l-217 6z" />
<glyph unicode="I" horiz-adv-x="606" d="M82 -6v51l121 23l12 120l6 168v641l-16 289l-117 21v53l215 -6l219 6v-53l-119 -21l-12 -121l-6 -168v-641l18 -288l117 -23v-51l-217 6z" />
<glyph unicode="J" horiz-adv-x="606" d="M-127 -289q176 100 264 225t88 429v632l-20 289l-125 21v53l227 -6l221 6v-53l-120 -21l-13 -121q0 -18 -4 -92q-2 -37 -2 -76v-784q0 -217 -131 -330q-119 -102 -356 -229z" />
<glyph unicode="K" horiz-adv-x="1382" d="M76 -6v51l127 23l18 288v641l-6 168q0 37 -4 74q-4 31 -8 47l-123 21v53l223 -6l219 6v-53l-119 -21l-12 -121l-6 -168v-204l326 243l157 121l158 127l-86 23v53l188 -6l189 6v-53l-94 -21q-184 -111 -363 -239l-215 -160l-135 -105l186 -190l187 -186q199 -190 370 -338 l129 -25v-49l-139 -6l-139 -17l-350 371l-371 375l2 -361l18 -288l117 -23v-51l-217 6z" />
<glyph unicode="L" d="M80 -6v51l119 23q6 14 10 45q4 41 4 75l4 168v641l-14 289l-119 21v53l217 -6l219 6v-53l-117 -21l-14 -121l-6 -168v-524q0 -104 2 -143q4 -74 8 -113l10 -108l183 -9h41q168 0 409 35l82 158l47 -19q-18 -51 -41 -137q-12 -45 -16 -67l-12 -70h-795z" />
<glyph unicode="M" horiz-adv-x="1808" d="M82 -6v51l121 23q10 31 10 231q0 61 6 236q8 233 8 292l2 301l-4 80q0 76 -10 80l-100 19v53l252 -6h133l413 -1188l404 1188h125l241 6v-53l-116 -21l2 -289l8 -641l10 -168q0 -94 23 -120l116 -23v-51l-229 6l-211 -6v51l117 23l12 288l-12 926l-453 -1288h-137 l-457 1288l-4 -455v-528q0 -211 4 -231l119 -23v-51l-186 6z" />
<glyph unicode="N" horiz-adv-x="1454" d="M80 1307v53l207 -6h80l378 -572l127 -186q96 -141 127 -190l127 -193v555v47q0 145 -10 295q0 70 -6 115q-6 46 -12 61l-121 21v53l207 -6l190 6v-53l-108 -21l-17 -176l-6 -342v-788h-129l-33 43l-743 1107v-774l4 -86q0 -16 1 -35.5t2 -29.5t1 -17q0 -61 4 -79 q4 -23 17 -41l114 -23v-51l-202 6l-197 -6v51l111 23q8 14 14 43q6 33 6 77l8 168v662l-14 235l-8 33z" />
<glyph unicode="O" horiz-adv-x="1564" d="M84 676q0 311 199 510q201 201 508 200.5t499.5 -199t192.5 -511.5q0 -305 -199 -506q-199 -203 -506 -203q-305 0 -499.5 201t-194.5 508zM256 676q0 -264 149.5 -438.5t378.5 -174.5q224 0 375 173q152 174 152 440q0 264 -152 440q-150 174 -375 174 q-233 0 -380.5 -174t-147.5 -440z" />
<glyph unicode="P" horiz-adv-x="1169" d="M82 -6v51l121 23l12 120l6 168v641l-16 289l-117 21v53l215 -6l404 10q215 0 321 -86q109 -86 109 -268q0 -190 -152 -320q-74 -66 -168 -96q-98 -33 -207 -33h-26q-41 0 -72 6q-31 0 -43 2q-35 10 -51 13l43 96l94 -19l94 -4q129 0 215 88q86 89 86 222q0 141 -92 223 q-90 82 -246 82h-55q-37 0 -59 -2q-45 0 -113 -21v-569v-96v-226q0 -47 2 -75q0 -4 2 -38t4 -55q0 -37 4 -73q2 -16 13 -47l159 -23v-51l-266 6z" />
<glyph unicode="Q" horiz-adv-x="1564" d="M82 676q0 311 199 510q201 201 508 200.5t499.5 -199t192.5 -511.5q0 -307 -199 -508q-100 -100 -221 -150q-125 -51 -277 -51l111 -37q25 -6 55.5 -15t49 -15l28.5 -9q70 -20 209 -53q68 -16 149 -28l82 71l39 -28q-68 -88 -96 -146l-35 -63q-354 119 -461 159 q-197 74 -288 117q-184 86 -291 193l-62 55q-192 201 -192 508zM254 676q0 -264 149.5 -438.5t378.5 -174.5q225 0 377 173q150 170 150 440q0 266 -149.5 440t-377.5 174q-231 0 -379 -174q-149 -178 -149 -440z" />
<glyph unicode="R" horiz-adv-x="1312" d="M82 -6v51l121 23l12 120l6 168v641l-16 289l-117 21v53l215 -6l481 10q182 0 283 -86q102 -86 102 -242q0 -123 -108 -235q-51 -57 -135 -90q-88 -35 -197 -49l256 -314q92 -109 264 -280l99 -23v-49h-58q-22 0 -80 -6q-25 0 -61 -4q-4 0 -74 -15q-227 317 -297 404 l-129 160l-94 110h-170v-289l18 -288l117 -23v-51l-217 6zM387 741l199 -12q182 0 286 78q106 80 107 215q0 125 -92 186.5t-266 61.5l-121 -4q-66 -6 -113 -19v-506z" />
<glyph unicode="S" horiz-adv-x="1206" d="M80 96q33 61 61 131l47 133l52 -14l-13 -141q10 -10 56 -35q25 -14 98 -45q123 -49 250 -49q150 0 235.5 73.5t85.5 206.5q0 115 -104 174q-23 14 -109 52q-51 23 -137 47q-238 61 -364 143q-117 84 -117 217q0 182 147 287q156 111 381 110q129 0 234 -24 q113 -27 200 -64l-53 -127q-23 -55 -41 -124l-57 12l10 117q-8 16 -113 59q-109 45 -223 45q-143 0 -235 -61q-86 -61 -86 -168q0 -113 116 -168q125 -59 281 -101q244 -68 346 -166q100 -98 100 -231q0 -180 -155.5 -299t-397.5 -119q-150 0 -262 29q-122 30 -233 100z" />
<glyph unicode="T" horiz-adv-x="1241" d="M18 1104l37 123q0 2 2 7t4 16.5t5 21.5q12 53 16 82h1075q10 -61 12 -76q2 -8 8.5 -26.5l8.5 -24.5l39 -121l-54 -21l-65 125q-8 6 -53 15q-47 8 -74 14q-82 12 -121 14q-78 4 -137 4l-19 -196v-705l17 -288l119 -23v-51l-220 6l-215 -6v51l117 23q2 12 6 41q6 55 6 79 l5 168v705l-17 196q-150 0 -256 -16l-71 -12q-27 -4 -52 -15l-71 -129z" />
<glyph unicode="U" horiz-adv-x="1454" d="M88 1307v53l215 -6l219 6v-53l-119 -21l-12 -121l-6 -168v-462q0 -225 84 -334t266 -109q168 0 270.5 102.5t102.5 270.5v63q0 76 -4 326q0 55 -1 103.5t-2 72t-1 25.5q0 84 -4 157q-4 59 -9 74l-133 21v53l217 -6l197 6v-53l-119 -21q-3 -18 -6 -104q-4 -115 -4 -127 q0 -2 -4 -269q-2 -133 -2 -258v-71q0 -224 -135 -357q-137 -133 -371 -133q-260 0 -383 117t-123 367v546l-16 289z" />
<glyph unicode="V" horiz-adv-x="1419" d="M29 1305v53l223 -4l211 6v-53l-117 -21l393 -1169q119 369 195 583q117 334 194 584l-112 23v53l192 -6l187 6v-53l-117 -23q-127 -295 -256 -649l-234 -658l-153 3l-115 327l-119 328q-55 154 -122 321q-55 139 -142 330z" />
<glyph unicode="W" horiz-adv-x="1953" d="M12 1307v53l226 -6l215 6v-53l-117 -17q35 -156 70 -295q31 -127 73 -284l80 -291l86 -287l90 377q25 100 53 233l84 385q10 43 17.5 81l13.5 69t19 82h28l64 -6l61 6q80 -383 135 -615l156 -610l313 1149l-116 23v53l192 -6l182 6v-53l-114 -23l-209 -653l-195 -651 h-166l-131 587l-51 224q-41 176 -92 370l-143 -592q-66 -272 -70 -293q-16 -68 -31.5 -144.5t-32.5 -151.5h-167l-195 651l-100 321q-80 256 -107 332z" />
<glyph unicode="X" horiz-adv-x="1419" d="M41 -6v51l137 23l457 620l-430 598l-121 21v53l225 -6l213 6v-51l-104 -23l301 -475l155 236l148 237l-100 23v53l206 -6l195 6v-53l-135 -15l-211 -280l-199 -279l494 -670l104 -18v-51l-219 6l-217 -6v51l96 25l-346 542l-344 -544l129 -17v-57l-215 6z" />
<glyph unicode="Y" horiz-adv-x="1312" d="M18 1307v53l213 -6l205 6v-53l-110 -23l350 -641l352 641l-117 23v53l195 -6l180 6v-53l-106 -23l-447 -717v-211l4 -86q0 -16 1 -35.5t2 -29.5t1 -17q0 -94 15 -120l137 -23v-51l-242 6l-243 -6v51l141 23l12 120l8 168v211l-442 717z" />
<glyph unicode="Z" horiz-adv-x="1277" d="M59 53l152 201l145 197l146 198q4 4 143 199l139 199l138 200l-213 10q-195 0 -318 -14q-135 -16 -149 -31l-82 -143l-51 18l41 134l26 133h985l27 -35l-227 -299l-220 -303l-141 -199l-143 -201l-140 -202l156 -15l158 -4q201 0 303 21q27 4 102 20q51 10 60 15l69 143 l56 -16q-27 -86 -39 -142l-13 -61q-2 -12 -3 -32.5t-5 -43.5h-1081z" />
<glyph unicode="[" horiz-adv-x="673" d="M264 -360v1724l207 -8l178 8v-57l-233 -31v-1548l231 -33l2 -55l-178 8z" />
<glyph unicode="\" d="M72 1415l143 -22l850 -1454l-145 22z" />
<glyph unicode="]" horiz-adv-x="673" d="M25 -305l229 33v1548l-227 31l-2 57l180 -8l203 8v-1724l-203 8l-178 -8z" />
<glyph unicode="^" horiz-adv-x="1148" d="M174 653l358 701h82l359 -701h-109l-291 576l-290 -576h-109z" />
<glyph unicode="_" horiz-adv-x="958" d="M0 -406h958v-92h-958v92z" />
<glyph unicode="`" horiz-adv-x="532" d="M63 1460q35 6 76 31q43 27 66 49q53 -41 125 -127q31 -35 57 -80q18 -33 51 -108q-20 -6 -30 -15q-16 -8 -27 -22q-49 61 -80 94q-23 27 -74 72q-45 37 -71 53q-19 10 -93 53z" />
<glyph unicode="a" d="M78 256q0 168 176 284.5t455 116.5h92v68q0 143 -60 203q-57 61 -180 61q-100 0 -186 -33l-92 -36l4 -107l-41 -14l-90 205q61 27 143 51q102 31 287 30q152 0 250 -73.5t98 -196.5v-477q0 -111 10 -178q6 -29 21 -60q6 -12 24 -30l80 -25v-51l-106 2l-60 2h-35 q-10 0 -39 -4q-18 0 -28 78q0 10 -1 30.5t-3 28.5q-6 77 -6 123q-90 -172 -197 -229q-98 -53 -197 -54q-145 0 -231 84q-88 86 -88 201zM244 274q0 -70 49 -124q53 -53 139 -54q166 0 258 129q46 68 74 154q27 82 27 190l-101 4q-96 0 -182 -24.5t-148 -67.5 q-53 -39 -86 -92q-30 -49 -30 -115z" />
<glyph unicode="b" horiz-adv-x="1169" d="M16 1421v54l129 18q35 6 129 35h37l-2 -281v-334q76 92 156 131q82 41 166 41q201 0 317.5 -143t116.5 -373q0 -248 -158 -428q-78 -88 -170 -129q-90 -41 -209 -41q-109 0 -186.5 14.5t-181.5 14.5h-27l-39 -10l51 80q0 61 6.5 159.5t6.5 132.5v695l-11 344zM309 133 q31 -23 105 -51q72 -27 172 -27q131 0 223 133q90 129 90 330q0 205 -88 324t-250 119q-117 0 -184 -82q-68 -83 -68 -222v-524z" />
<glyph unicode="c" horiz-adv-x="1028" d="M78 483q0 252 170 428q168 174 418 174q111 0 188 -26l78 -25l-68 -229l-51 10v105q-10 8 -82 41q-63 29 -139 28q-166 0 -256 -121q-92 -123 -92 -329q0 -211 100 -326q101 -117 283 -117q111 0 192 56q8 6 33 22t35 27q18 16 45 43l47 -41q-55 -74 -162 -152 q-111 -80 -254 -80q-215 0 -350 139.5t-135 372.5z" />
<glyph unicode="d" horiz-adv-x="1169" d="M78 498q0 248 168 420q166 168 420 167q29 0 45 -2q6 0 15 -1l17.5 -2t16.5 -3q59 -6 80 -18l-11 342l-137 20v54l133 18q37 6 131 35h39l-4 -281v-858l10 -326l113 -18v-55q-61 6 -139 6h-47l-92 -2v164q-76 -102 -154 -146q-76 -41 -166 -41q-193 0 -315 146 q-123 144 -123 381zM244 551q0 -199 92 -328q90 -127 233 -127q133 0 197 107q33 51 51.5 124.5t18.5 170.5v434l-84 39q-45 12 -66 14q-41 4 -82 4q-164 0 -262 -119t-98 -319z" />
<glyph unicode="e" horiz-adv-x="1099" d="M78 500q0 240 151 413q152 172 369 172q188 0 291 -102q106 -98 106 -276l6 -78h-757l-2 -35v-78q0 -193 98 -305q98 -115 264 -115q72 0 123 15q53 14 107 51q59 41 86 67q35 35 53 66l53 -43q-55 -111 -186 -199q-59 -39 -133 -61q-63 -20 -144 -21q-227 0 -356 139.5 t-129 389.5zM254 717l479 8l96 6q0 131 -59 200.5t-174 69.5q-152 0 -256 -116q-55 -62 -86 -168z" />
<glyph unicode="f" horiz-adv-x="636" d="M80 -6v51l123 23l4 327v580l-123 -10v59l123 33v61q0 170 139 291q137 119 281 119q76 0 137 -21l49 -18l-84 -211l-45 10l8 105l-61 26q-37 12 -96 13q-70 0 -125 -60q-49 -57 -50 -170v-145l218 2l-41 -94l-177 8v-576l11 -329l153 -23v-51l-239 6z" />
<glyph unicode="g" d="M78 -264q0 61 28 106q23 35 62 70l55 -37q-12 -14 -18 -45l-6 -55q0 -59 104 -133q53 -35 121 -54q59 -16 158 -16q125 0 215 53t90 170q0 111 -152 178q-63 29 -168 29q-129 0 -315 -45l-88 96l43 97q18 39 35 90l37 116q-37 20 -56 39q-121 104 -121 295q0 166 136 281 q137 115 317 114q90 0 154 -20l147 -25l242 -6l2 -33v-16l-29 -12q-27 -12 -182 -12q123 -111 123 -269q0 -160 -135 -278q-137 -121 -322 -121q-127 0 -197 29q-4 -23 -20 -68q-57 -162 -64 -164l64 21q34 9 98 18q43 6 154 6q193 0 328 -78q137 -80 137 -233 q0 -152 -164 -256q-162 -104 -377 -105q-190 0 -311 82q-125 85 -125 191zM268 684q0 -135 80 -221t207 -86q121 0 207 86q82 90 82 225q0 78 -19 129q-20 59 -59 101q-72 84 -211 83q-127 0 -207 -86t-80 -231z" />
<glyph unicode="h" horiz-adv-x="1206" d="M41 1421v54l131 18q41 8 131 35h39l-4 -281v-352q66 82 166 137q94 53 203 53q139 0 227 -88t88 -235v-365l10 -329l121 -23v-51l-211 6l-80 -6v51l4 23v589q0 156 -55 230t-184 74q-133 0 -211 -109t-78 -289v-166l8 -329l117 -23v-51l-201 6l-205 -6v51l121 23l6 327 v662l-10 344z" />
<glyph unicode="i" horiz-adv-x="567" d="M63 981v53q14 2 42 5t42 5q45 6 48 9l131 32h39l-5 -280v-408l9 -329l116 -23v-51l-200 6l-205 -6v51l123 23l4 327v219l-10 347zM176 1399q0 43 28.5 71.5t80.5 34.5q43 0 73 -32q33 -33 33 -74q0 -45 -29 -74q-27 -27 -77 -33q-43 0 -78 31q-31 33 -31 76z" />
<glyph unicode="j" horiz-adv-x="532" d="M-53 -483q41 27 88 73q43 43 80 93q76 104 75 337v594l-10 347l-131 20v53l129 19l131 32h37l-2 -280v-471l6 -252q0 -154 -12 -252q-23 -176 -365 -367zM158 1399q0 41 30 71q29 29 78 35q45 0 76 -32q27 -27 33 -74q0 -43 -33 -76q-25 -25 -76 -31q-41 0 -76 31 q-32 37 -32 76z" />
<glyph unicode="k" d="M41 1421v54l129 18q14 2 26.5 4t26.5 6q25 8 43.5 14.5t32.5 10.5h39l-4 -281v-626l215 180l108 90l109 100l-84 21v47l358 2v-49l-116 -23l-435 -342l254 -295l273 -289l123 -20v-47q-35 0 -64 -2q-13 -1 -26 -1q-9 0 -23 0.5t-18 0.5l-131 -19q-2 2 -7 6l-4 3 q-6 4 -14 14t-14 16l-230 271l-143 166l-96 104l-35 35v-193l10 -329l119 -23v-51l-203 6l-203 -6v51l121 23l6 327v662l-10 344z" />
<glyph unicode="l" horiz-adv-x="567" d="M68 1421v54l129 18q41 8 131 35h39l-5 -281v-850l7 -329l116 -23v-51l-198 6l-205 -6v51l123 23l4 327v662l-10 344z" />
<glyph unicode="m" horiz-adv-x="1847" d="M57 989v49q33 0 62 4q14 2 76 13q57 10 127 30h45l-19 -223q82 104 174 162q98 61 174 61q131 0 191 -57q61 -57 92 -182q45 63 149 155q96 84 230 84q127 0 207 -90q80 -89 80 -233v-365l8 -329l127 -23v-51l-213 6l-84 -6v51l8 23v579q0 150 -51 234q-49 80 -158 80 q-131 0 -207 -111q-35 -53 -57 -125q-18 -61 -19 -162v-166l11 -329l118 -23v-51l-206 6l-211 -6v51l129 23l6 327v252q0 147 -49 232q-49 82 -164 82q-135 0 -209 -123q-35 -61 -53 -133q-18 -74 -19 -158v-150l10 -329l121 -23v-51l-209 6l-200 -6v51l119 23l6 327v226 l-9 344z" />
<glyph unicode="n" horiz-adv-x="1241" d="M59 989v49q33 0 62 4q27 4 72 13q61 8 131 30h45l-19 -215q84 100 176 158q90 57 197 57q139 0 227 -88t88 -235v-365l11 -329l122 -23v-51l-210 6l-80 -6v51l2 23v589q0 156 -55.5 230t-182.5 74q-135 0 -213 -109q-76 -106 -76 -289v-166l6 -329l119 -23v-51l-202 6 l-203 -6v51l119 23l8 327v226l-10 344z" />
<glyph unicode="o" horiz-adv-x="1206" d="M78 528q0 242 151.5 399.5t382.5 157.5q233 0 374.5 -155.5t141.5 -401.5q0 -242 -151.5 -399.5t-382.5 -157.5q-233 0 -377 156q-63 74 -102 178q-37 100 -37 223zM242 528q0 -109 26 -188q29 -86 82 -154q104 -133 264 -133t256 133q94 131 95 342q0 199 -109 338 q-104 135 -264 135q-164 0 -256 -131q-94 -135 -94 -342z" />
<glyph unicode="p" horiz-adv-x="1169" d="M16 989v49q29 0 58 4l78 13q55 8 131 30h43l-17 -202q37 49 78 90q37 37 86 63.5t84 36.5q41 12 90 12q190 0 303 -143q115 -145 115 -375q0 -246 -152 -422q-80 -90 -174 -131q-98 -43 -223 -43q-59 0 -106 13q-23 6 -54 16q-33 12 -47 18v-139l8 -328l142 -22v-49 l-226 4l-202 -4v49l121 22l6 328v742l-11 344zM309 139l107 -51q68 -33 159 -33q137 0 230 135q45 66 69 150q25 82 25 180q0 209 -88 324q-89 117 -252 117q-121 0 -184 -95q-66 -96 -66 -274v-453z" />
<glyph unicode="q" horiz-adv-x="1169" d="M76 489q0 264 166 430t428 166h49q33 0 47 -4q45 0 115 -12l194 -10l4 -45q-88 -18 -90 -33v-514v-588l4 -328l121 -22v-49l-201 4l-231 -4v49l145 22l11 328v295q-70 -106 -154 -156q-80 -47 -172 -47q-186 0 -311 145.5t-125 372.5zM244 549q0 -200 92 -326 q92 -127 239 -127q113 0 187 98.5t74 303.5v436l-93 39q-37 8 -61.5 12t-79.5 4q-168 0 -262 -119q-96 -120 -96 -321z" />
<glyph unicode="r" horiz-adv-x="780" d="M57 989v49q31 0 60 4q22 3 73 13q47 8 121 30h41l-16 -319q70 158 153 242q31 31 84 57q41 20 93 20q27 0 39 -2l38 -10q18 -6 35 -18q-43 -82 -65 -135q-2 -4 -4 -10.5l-5.5 -17.5t-7.5 -20q-12 -34 -18 -49q-35 6 -41 17q0 16 2 20q0 76 -12 80q-16 6 -33 6 q-94 -8 -166 -131q-33 -59 -55 -137q-20 -70 -21 -158v-123l10 -329l142 -23v-51l-230 6l-200 -6v51l119 23l6 327v226l-9 344z" />
<glyph unicode="s" horiz-adv-x="958" d="M39 102l78 103l67 104l43 -22l-41 -115q41 -35 119 -72q78 -33 184 -32q104 0 185 55q78 53 78 143q0 86 -70 131q-80 49 -215 86q-172 51 -268 107q-98 57 -99 194q0 139 123 220q57 39 133 61q70 20 166 20q100 0 185 -16q51 -10 77 -18l56 -19l-78 -209l-43 15l4 92 q-51 25 -111 41l-71 14q-37 4 -62 4q-113 0 -174 -43q-63 -45 -63 -110q0 -72 65 -121q68 -45 244 -92q172 -45 256 -117q86 -68 86 -184q0 -147 -131 -250q-127 -100 -316 -101q-109 0 -219 35q-66 25 -96 41q-46 24 -92 55z" />
<glyph unicode="t" horiz-adv-x="673" d="M53 965v59l123 35l-10 248l172 47l-8 -297l262 2l-39 -90l-223 4v-592q0 -147 28 -217q28 -68 99 -68q51 0 88 25q49 33 65 49l37 -35q-16 -29 -49 -63q-18 -20 -45 -45q-61 -55 -161.5 -55.5t-158 65t-57.5 184.5v752z" />
<glyph unicode="u" horiz-adv-x="1206" d="M41 981v53q25 0 61 4q4 0 74 15q63 8 133 32h37l-10 -354v-287q0 -88 12 -151q10 -59 41 -109q55 -88 170 -88q143 0 229 121q82 121 82 303v152l-10 289l-131 20v53q23 0 59 4l72 15q80 14 133 32h39l-2 -366v-338l2 -231q0 -80 6 -82l115 -23l2 -51l-104 6h-107l-76 -4 l2 231q-76 -127 -176 -192q-96 -63 -209 -64q-131 0 -217 88t-86 232v381l-10 289z" />
<glyph unicode="v" horiz-adv-x="1099" d="M25 1012v49l192 -4l191 4v-49l-101 -23l62 -217q45 -158 69 -231l144 -447l139 447l127 448l-98 23v49l163 -4l164 4v-49l-84 -23q-31 -72 -100 -258l-92 -246l-86 -249l-84 -259h-152l-176 504l-110 316l-72 192z" />
<glyph unicode="w" horiz-adv-x="1703" d="M25 1012v49l190 -4l188 4v-49l-98 -23l262 -874l80 293l53 180q63 217 125 471l111 2l65 -236q37 -137 70 -235l148 -475l241 874l-100 23v49l158 -4l161 4v-49l-75 -21l-183 -502q-94 -272 -164 -512h-139l-129 420q-82 244 -129 420l-254 -840h-139l-350 1012z" />
<glyph unicode="x" horiz-adv-x="1099" d="M31 1012v49l186 -4l189 4v-49l-70 -23l219 -356l233 356l-71 23v49l160 -4l159 4v-49l-102 -23l-328 -422l363 -499l98 -15v-59l-197 6l-196 -6v51l88 23l-240 378l-237 -378l98 -23v-51l-168 6l-170 -6v59l86 17l344 444l-340 475z" />
<glyph unicode="y" horiz-adv-x="1028" d="M-41 -510l64 227l51 -4v-90l39 -12q25 -8 57 -8q109 0 201 106q88 102 133 238l20 47h-51l-184 504q-92 258 -191 491l-92 23v49l189 -4l190 4v-49l-98 -21l284 -895l72 226l66 223q82 283 116 444l-94 23v49l164 -4l162 4v-49l-62 -23q-125 -272 -209 -510l-176 -508 q-86 -240 -209 -374q-121 -133 -309 -134h-39q-29 8 -35 9l-24 6q-15 4 -35 12z" />
<glyph unicode="z" horiz-adv-x="1099" d="M94 0v63l668 926h-184q-78 0 -127 -6q-57 -10 -82 -12l-113 -21l-57 -147l-54 14l31 184l6 66l297 -10h496v-68l-670 -905l246 -14q108 0 203 18q45 6 84 16q41 12 49 15l69 133l52 -14l-52 -244h-41l-387 6h-434z" />
<glyph unicode="{" horiz-adv-x="673" d="M119 500q63 29 98 73q37 43 37 127v400q0 117 55.5 190.5t212.5 73.5h45v-59h-16q-53 0 -100.5 -47.5t-47.5 -145.5v-358q0 -111 -36 -172q-35 -59 -113 -82q72 -16 111 -76q20 -29 28 -72q10 -47 10 -102v-361q0 -94 48 -145q45 -47 100 -47h16v-57h-45 q-158 0 -213 73.5t-55 188.5v401q0 82 -37 125q-37 47 -98 72z" />
<glyph unicode="|" horiz-adv-x="423" d="M145 -31v1559h50v-1559h-50z" />
<glyph unicode="}" horiz-adv-x="673" d="M109 -303h16q51 0 98 47t47 145v361q0 113 39 174q43 57 113 76q-68 18 -113 78q-39 66 -39 176v358q0 98 -45 145q-51 47 -100 48h-16v59h43q158 0 213 -73.5t55 -190.5v-400q0 -82 37 -125q39 -45 100 -73q-63 -31 -100 -74t-37 -125v-401q0 -117 -53 -189 q-55 -74 -215 -73h-43v57z" />
<glyph unicode="~" horiz-adv-x="1148" d="M133 434q27 57 92 115q61 49 146 49q94 0 221 -66q68 -34 110 -49q45 -16 80 -16q55 0 101 41q41 37 63 100l74 -71q-14 -29 -39 -60t-55 -55q-63 -51 -146 -51q-92 0 -219 65.5t-192 65.5q-57 0 -103 -39q-25 -22 -37 -43q-12 -23 -24 -58z" />
<glyph horiz-adv-x="1916" />
<glyph horiz-adv-x="1916" />
<glyph horiz-adv-x="1916" />
<glyph horiz-adv-x="1916" />
<glyph unicode="&#xa1;" horiz-adv-x="1210" d="M20 692q0 23 19 35l14 4l29 -4l8 -8l8 -23q4 -4 -4 -16l-12 -14l-16 -9l-27 9q-19 1 -19 26zM74 776q-6 20 16 37l10 6q25 0 33 -8l14 -27l-2 -18l-12 -18l-16 -7q-16 -6 -29 7zM86 573q-6 47 43 109l49 61l72 58q33 25 61 41q33 18 70 24l25 2q41 0 71 -47l12 -55 q6 -35 9 -39l-11 -45l-43 -70q-10 -12 -16 -16l-12 -16l-21 -35q-2 -2 -2 -4q-4 -8 -4 -17v-26v-43q0 -8 12 -35l27 -39q16 -12 35 -39l26 -33q6 -6 13 -30q2 -8 5 -24.5t5 -25.5l16 -108q0 -55 -14 -84t-55 -43h-21q-39 0 -88 37l-69 75l-19 35l-12 39l-27 115l-6 47 q-6 31 -8 35q-12 25 -19 35l-96 147zM133 854q0 23 19 41l14 6q35 6 57 -41q0 -20 -24 -39l-17 -8q-14 0 -30 12q-19 11 -19 29zM217 922l2 26l23 23l18 6q23 0 39 -12l12 -11l11 -20q6 -33 -27 -51l-19 -9q-16 -8 -32 9q-19 19 -27 39zM326 1018q0 49 18 61l31 19 q18 0 51 -25q14 -14 33 -72v-24q0 -29 -13 -47q-10 -14 -36 -25q-25 -4 -41 10q-20 12 -39 50zM684 98v15v34l18 111q2 27 11 37l10 16l68 80l14 21l8 24l10 23l2 37q0 33 -8 47l-12 28l-74 91l-12 26l-2 31v18l2 25l16 57q6 16 25 35q23 12 45 12l24 -2q18 -2 37 -10 q23 -8 43 -20q55 -29 99 -68q33 -25 45 -37q20 -20 39 -47q35 -45 34 -88l-2 -21l-4 -18l-37 -57l-63 -90l-19 -37l-6 -31l-6 -45l-28 -115l-3 -20l-2 -19q0 -4 -2 -8l-12 -20l-33 -41l-35 -37l-40 -27q-9 -6 -37 -12l-41 -4q-39 6 -60 45l-8 39zM756 969l2 43q0 29 14 45 q2 4 10 12q10 10 23 16q12 4 39 5q18 0 37 -35l8 -51l-6 -39q0 -18 -25 -45q-18 -25 -41 -25q-9 0 -24 6q-37 17 -37 68zM895 901v29q0 20 18 35q14 12 37 12l25 -8q8 -6 14 -21q6 -12 6 -28q0 -18 -20 -37q-18 -10 -39 -11l-21 7q-14 4 -20 22zM991 848l1 3q1 3 2 7t1 8 q14 27 47 33l17 -6q18 -6 24 -41q0 -29 -57 -39l-14 6q-21 9 -21 29zM1067 762v16q0 2 1 5t3 5l2 5l4 8q10 10 35 16l12 -6q23 -12 17 -37q-6 -27 -43 -33l-15 2q-14 7 -16 19zM1118 688q0 20 10 35l29 8l19 -4q8 -6 12 -14l4 -25l-8 -14l-8 -12l-31 -9l-12 6q-15 15 -15 29 z" />
<glyph unicode="&#xa2;" horiz-adv-x="1198" d="M20 807q0 16 23 33l14 2q12 0 29 -11l6 -34q0 -15 -18 -31h-17q-16 0 -26 12q-9 15 -11 29zM61 682q0 27 29 61q25 31 74 70q18 18 41 31l57 30q45 23 100 39q41 4 44 5q20 0 38 -7q35 -12 43 -57l11 -55q0 -35 -11 -60q-10 -27 -14 -30q-4 -6 -22 -21l-29 -29 q-29 -23 -57 -59q-23 -29 -23 -86q0 -39 31 -90l28 -43l15 -29l10 -47v-31q0 -25 2 -38q0 -72 -22 -130q-25 -61 -76 -61q-25 0 -56 12q-27 14 -45 39l-59 90q-4 4 -10 35v43l-13 117l5 47l-5 33q0 18 -8 37l-69 161zM86 883q0 23 18 32l21 5q16 -6 27 -21l8 -20 q0 -16 -23 -33l-12 -4q-14 -2 -29 10q-10 17 -10 31zM160 948q0 23 26 37l13 4q14 0 32 -14q14 -12 15 -35q0 -20 -27 -35l-18 -6q-12 -6 -26.5 8t-14.5 41zM252 1001q0 31 33 43l22 7l17 -7q31 -18 30 -53q0 -27 -28 -43l-23 -2q-25 -6 -39 12zM371 1038q0 18 4 35 q4 14 12 35q18 33 51 39q27 0 45 -35q20 -35 21 -76q0 -35 -10 -51q-8 -12 -27 -31l-29 -8q-27 -6 -47 25q-20 36 -20 67zM696 657l4 39l15 35q6 18 20 27l29 8q27 0 47 -31l12 -39q6 -15 6 -37q0 -25 -4 -32l-12 -33q-6 -14 -16 -19q-16 -8 -33 -8q-31 0 -49.5 24.5 t-18.5 65.5zM705 416l6 59q6 63 84 64q18 0 73 -15q20 -4 56 -18q31 -12 59 -27q59 -27 106.5 -74t47.5 -106l-4 -12l-31 -66l-51 -133q-4 -12 -4 -37l4 -45l-11 -143l-4 -35q-6 -20 -26 -53q-2 -4 -7.5 -12.5t-7.5 -12.5q-2 -2 -26 -33q-18 -20 -45 -34q-2 -2 -25 -11 q-6 -2 -15.5 -4t-11.5 -2q-35 0 -63 35l-31 76l-4 35l-2 47v61q0 25 12 55l35 56l29 61l10 43q0 57 -20 84l-19 25l-67 61l-33 37q-6 4 -12 33zM844 612q0 25 14 41q16 20 37 21l20 -6q31 -8 31 -47q0 -18 -12 -37q-12 -12 -35 -19l-22 2q-12 0 -23 17zM954 561q0 16 11 31 l36 18l15 -4q27 -6 26 -39q0 -29 -41 -47l-20 8l-20 9q-4 4 -7 8v16zM1038 498q0 14 9 24q10 14 32 17h15q12 -10 16 -17l8 -18q0 -12 -12 -27q-8 -14 -27 -14h-16q-12 0 -19 14zM1106 422q0 31 35 41l18 -2q14 -6 21 -33q0 -16 -13 -29l-26 -12l-17 4q-18 9 -18 31z" />
<glyph unicode="&#xa3;" horiz-adv-x="1198" d="M20 428q0 20 23 33l14 2q31 0 37 -41q0 -23 -20 -31l-17 -4q-12 0 -26 12q-9 13 -11 29zM61 299q0 49 64 100l61 52l74 47l78 30q2 2 7 3t7 1l21 5l33 2q66 0 81 -64l11 -59q6 -33 -19 -70q-29 -43 -57 -63l-33 -31l-27 -31q-8 -8 -16 -43q0 -29 -4 -43q0 -41 31 -90 l28 -41l15 -33l8 -41l4 -71q0 -74 -22 -131q-23 -55 -76 -62q-18 0 -56 12q-29 10 -45 39l-34 54l-25 41q-10 27 -10 75l-13 119l5 45l-5 31q0 14 -8 41l-69 164zM86 504l2 18q6 10 16 17h21q35 -10 35 -41q0 -16 -23 -35h-12q-18 0 -31 12zM160 567q0 25 26 39l13 4 q18 0 30 -12q14 -14 17 -37q0 -25 -27 -33l-18 -8q-4 -2 -25 8q-14 10 -16 39zM252 621q0 20 33 47l22 6q16 0 31 -19q12 -16 16 -43q0 -23 -28 -45l-23 -2q-25 0 -39 15q-8 18 -12 41zM371 659q0 39 16 72q14 29 51 35q16 0 25 -6q12 -8 20 -29q20 -33 21 -74 q0 -47 -21 -67q-23 -23 -43 -23q-27 0 -45 20.5t-24 71.5zM696 961l4 43l15 32q16 29 49 35q25 0 47 -33l12 -37q6 -14 6 -36q0 -18 -4 -35l-12 -35q-8 -12 -16 -16q-12 -6 -33 -7q-35 0 -51 23q-11 21 -17 66zM705 723l6 55q6 61 84 62q16 0 47 -9l61 -18l62 -27 q20 -8 47 -28l28 -21l39 -32q57 -45 58 -99l-4 -20l-31 -58l-39 -102l-12 -39l-4 -35l4 -45l-11 -145l-4 -29q-20 -49 -35 -72q-6 -10 -22 -30q-2 -2 -31 -27q-27 -29 -76 -35q-45 0 -65 37l-14 35l-15 45l-4 14v13l-2 49v59q0 20 12 58l35 59l29 55l5 15.5t3 11.5q2 6 2 26 q0 2 -4 31q-10 47 -33 68l-69 61l-33 39l-10 29zM844 920q0 20 14 36q12 12 37 17l20 -4q31 -9 31 -43q0 -43 -47 -60l-22 6q-18 0 -25 15zM954 864q0 35 47 51l15 -4q27 -6 26 -39q0 -12 -12 -30q-8 -10 -29 -17l-20 2q-21 6 -27 37zM1038 801q0 35 41 41l15 -2 q12 -6 18 -17q6 -8 6 -16q0 -31 -39 -41h-16q-12 0 -19 12zM1102 711q0 10 4 20q6 16 20 25l15 10l18 -4q14 -6 21 -31q0 -14 -13 -31l-26 -12l-17 4q-16 7 -22 19z" />
<glyph unicode="&#xa4;" horiz-adv-x="970" d="M20 573q6 53 15 66l10 39l21 37l24 28l78 88l35 33l24 29q12 16 19 33l63 161l6 19q16 14 47 20l66 9h45l21 -7q4 -2 9 -1l5 -1l88 -24q68 -23 111 -53q49 -37 49 -84q0 -25 -15 -39l-34 -43q-23 -25 -62 -43l-49 -6l-76 6l-45 -6q-41 0 -78 -43q-33 -45 -41 -86l-12 -46 l-6 -22q0 -6 -6 -23l-70 -82q-18 -27 -63 -51l-62 -30l-35 -5l-24 5q-27 6 -43 45q-9 28 -12 43q-3 9 -3 34zM147 -135l7 22l28 68l101 108l22 23l27 8l14 8l25 7q18 0 24 4l62 16q18 6 39 27l26 37l21 32v178q0 14 14 29q12 16 12 17q4 6 21 14l37 39q20 18 45 18 q16 0 35 -12q37 -20 65.5 -71.5t47 -119t18.5 -129.5v-30q0 -31 -7 -45q-4 -23 -20 -37l-12 -10l-70 -21l-102 -41l-29 -18l-31 -23l-26 -37l-90 -80l-43 -28l-33 -17l-31 -10l-35 -6l-37 -2l-43 4l-24 6q-8 2 -27 17q-22 18 -31 55zM362 1200l17 25l18 10l19 -4l12 -10 q0 -2 2 -2q0 -2 3 -8.5l5 -10.5q0 -14 -10 -35l-25 -6h-14l-12 10q-7 4 -15 31zM463 1206q0 20 35 37l18 -4l12 -8q6 -6 7 -21q0 -16 -3 -20q-8 -25 -28 -25l-29 9q-2 2 -8 14q0 14 -4 18zM557 1200q0 14 14 23q6 6 31 16l19 -4l14 -10q10 -16 10 -30.5t-12 -29.5t-31 -18 l-14 2l-21 12q-10 10 -10 39zM659 1155q8 33 19 45l37 10l20 -4l17 -12q12 -18 12 -39q0 -18 -14 -33q-16 -16 -35 -16l-25 2l-16 12q-9 2 -15 35zM725 553q0 31 18 68q20 31 74 59l25 4q23 0 31 -10t14 -39l-4 -23l-15 -37l-22 -24q-16 -16 -23 -19q-39 -29 -71 -22 q-23 10 -27 43zM762 1047q-6 31 12 71q16 31 82 62l18 2q49 0 50 -49l-2 -21q-4 -8 -9 -25l-6 -12q-2 -2 -14 -20q-4 -6 -12 -11l-25 -20q-20 -23 -43 -23q-10 0 -16 3q-19 8 -35 43zM811 473q-4 16 14 31q10 8 35 16q14 6 41 -8l14 -20v-23q0 -14 -14 -35l-41 -18 q-18 4 -22 8q-6 6 -9 10l-16 17zM852 365q0 29 49 38l29 -10l10 -14l6 -19q2 -10 -16 -28q-6 -6 -29 -15q-15 0 -37 13l-6 16zM860 162q0 8 12 20l29 17l12 -4l15 -9l10 -12q6 -6 2 -18q-2 -12 -10 -21l-29 -12l-27 12l-10 12zM868 262q-2 6 13 21q18 12 26 12q18 0 31 -8 l8 -15q6 -12 -8 -39q-6 -12 -29 -12q-18 0 -26 8z" />
<glyph unicode="&#xa5;" horiz-adv-x="1449" d="M20 287l3 18l22 107q2 18 16 34q16 20 29 29l80 90l33 29l18 20l27 43l39 99l22 65l10 19q29 14 39 16q4 0 16.5 3t18.5 5q12 2 35 2l53 -6q10 -2 24.5 -4t16.5 -2t12.5 -3t16.5 -5q41 -6 70 -21q18 -6 28 -10q6 -4 15.5 -9l13.5 -7q16 -8 24 -15l25 -24q10 -10 23 -31 q6 -10 6 -32.5t-15 -39.5l-34 -45l-33 -26q-15 -12 -37 -19h-164q-39 -6 -72 -45q-18 -23 -24 -37l-21 -51l-22 -82l-10 -20q-2 -2 -7.5 -10.5t-9.5 -12.5l-53 -51l-61 -47l-52 -29l-32 -4q-39 0 -64 33q-25 35 -25 76zM365 928q8 23 10 26l24 11l17 -2l12 -9l8 -28l-8 -17 q-2 -4 -2 -6v-4l-18 -12l-35 12zM461 938l14 27q2 2 6 4q4 4 6 4l11 2l16 -4l14 -8q4 -2 4 -27l-6 -29l-10 -6l-12 -6l-15 4l-16 10q-2 2 -10 13zM557 915q0 2 1 4.5t2 6.5t1 8q8 31 41 37l19 -6l14 -9q8 -6 8 -30q0 -23 -8 -33t-29 -14l-20 4l-15 10q-14 8 -14 22zM633 80 l2 24l24 62l33 39l70 74l12 10l12 8l27 10l27 10l37 9l59 20q37 18 55 35q20 20 25 43l8 35l2 18v31l-4 59q0 49 4 60q6 14 45 53l39 35q16 14 43 14q10 0 27 -6q31 -16 59 -57l5 -10.5t8 -15.5t10 -15q2 -4 5 -12.5t8 -19.5l9 -20l29 -92l8 -78q2 -6 2 -16v-16 q0 -34 -12 -49l-19 -33l-16 -6l-68 -25l-98 -39l-37 -20l-26 -23l-25 -37l-92 -76l-43 -34l-27 -13l-35 -10l-34 -10h-35l-49 4q-31 6 -52 27q-22 28 -22 53zM659 891q0 18 17 33q10 14 37 16l18 -2l19 -12q12 -6 12 -39q0 -16 -14.5 -32.5t-34.5 -16.5l-19 2l-18 14l-14 12 zM760 809q6 31 31 59q14 25 51 41l37 6q14 0 26 -12q14 -8 19 -35l-2 -24q-8 -29 -35 -62q-25 -31 -62 -41q-4 -2 -10 -2h-8q-31 0 -41 17q-6 14 -6 53zM1200 791q0 23 17 47l16 16q12 12 22 18l43 21l23 2q23 6 35 -12.5t12 -36.5v-19q-10 -29 -22 -43q-20 -25 -33 -34 q-20 -16 -47 -23q-20 -2 -56 14q-10 21 -10 50zM1290 688q-2 18 10 29q14 12 48 18q14 0 34 -10l17 -45l-6 -18l-7 -13l-40 -14q-8 0 -39 10l-15 21zM1335 580q0 8 8.5 18t38.5 16q18 0 29 -8l10 -14l6 -19q4 -10 -12 -28q-14 -12 -33 -13h-16l-14 13l-11 14q-6 15 -6 21z M1339 385l19 14q12 6 28 7q8 0 21 -7l14 -8q9 -6 0 -24l-10 -15q-6 -9 -25 -12q-15 0 -30 6l-10 14q-13 13 -7 25zM1354 475l2 14l4 9l26 14q10 0 15 -2l20 -12l6 -11l3 -14q0 -16 -9 -24l-32 -15l-15 6l-8 6l-10 13z" />
<glyph unicode="&#xa6;" horiz-adv-x="423" d="M145 -31v582h50v-582h-50zM145 944v584h50v-584h-50z" />
<glyph unicode="&#xa8;" horiz-adv-x="1406" d="M35 678q0 133 53 256q29 68 62 115q31 45 83 98q82 88 209 145q119 53 262.5 53.5t258.5 -53.5q66 -31 112.5 -61.5t100.5 -83.5q86 -86 141 -213q57 -131 57 -256q0 -276 -198 -473q-201 -197 -469 -197q-133 0 -258 53.5t-213 141.5q-90 90 -148 213q-53 125 -53 262z M123 678q0 -127 47 -227q49 -106 125 -185q39 -43 82 -69q59 -37 102 -58q47 -18 111 -33q58 -12 117 -12q230 0 411 172q78 76 125 185q45 104 45 227q0 114 -49 221q-39 100 -125 186q-74 78 -180 127q-100 47 -227 47.5t-226 -45.5q-96 -43 -182 -127q-84 -80 -129 -186 q-47 -110 -47 -223zM334 715q0 -74 41 -121q43 -68 131 -113q92 -43 192 -43q141 0 240 76l49 41l39 39q16 27 18.5 29t12.5 32.5t10 59.5q0 -86 -23 -164q-16 -45 -30 -72q-15 -31 -43 -61q-41 -51 -113 -84q-31 -14 -74 -25q-33 -8 -82 -8q-147 0 -262 121q-6 8 -13 15 t-10 12l-3 4l-2 4q-2 4 -6.5 10t-8.5 12q-25 31 -39 72l-18 76q-6 33 -6 88zM414 911q0 35 30 66q29 27 62 27q15 0 31 -7q10 -4 30 -20q33 -29 33 -66q0 -35 -29 -63q-8 -8 -28 -21q-14 -8 -37 -8q-37 0 -66 29q-26 26 -26 63zM807 907q0 33 27 60q35 29 67.5 28.5 t59.5 -24.5q25 -20 30 -64q0 -33 -26 -61q-29 -29 -64 -29q-39 0 -70 25q-24 24 -24 65z" />
<glyph unicode="&#xa9;" horiz-adv-x="862" d="M33 956q0 170 119 287q120 117 282 117q168 0 285 -119q119 -123 119 -283q0 -168 -119 -284q-123 -119 -285 -119q-168 0 -284 119q-117 119 -117 282zM84 958q0 -147 102.5 -249.5t247.5 -102.5q141 0 248 103q104 102 104 247q0 143 -102 250q-100 102 -250 103 q-145 0 -247.5 -103t-102.5 -248zM209 965q0 90 73.5 157.5t186.5 67.5q33 0 43 -2q6 -2 43 -12q53 -14 57 -25v-86l-16 -4q-6 57 -43 78q-33 27 -94 26q-88 0 -131 -57q-45 -61 -45 -143q0 -88 47 -148q43 -59 135 -59q61 0 98 30q20 20 29 31q10 14 22 37l15 -2l-19 -84 q-6 -12 -55 -25l-104 -10q-106 0 -177 60q-65 57 -65 170z" />
<glyph unicode="&#xaa;" d="M78 256q0 168 176 284.5t455 116.5h92v68q0 143 -60 203q-57 61 -180 61q-100 0 -186 -33l-92 -36l4 -107l-41 -14l-90 205q61 27 143 51q102 31 287 30q152 0 250 -73.5t98 -196.5v-477q0 -111 10 -178q6 -29 21 -60q6 -12 24 -30l80 -25v-51l-106 2l-60 2h-35 q-10 0 -39 -4q-18 0 -28 78q0 10 -1 30.5t-3 28.5q-6 77 -6 123q-90 -172 -197 -229q-98 -53 -197 -54q-145 0 -231 84q-88 86 -88 201zM244 274q0 -70 49 -124q53 -53 139 -54q166 0 258 129q46 68 74 154q27 82 27 190l-101 4q-96 0 -182 -24.5t-148 -67.5 q-53 -39 -86 -92q-30 -49 -30 -115z" />
<glyph unicode="&#xab;" horiz-adv-x="958" d="M172 549l236 340l63 -31l-133 -309l127 -309l-62 -33zM494 549l235 340l62 -31l-134 -309l129 -309l-61 -33z" />
<glyph unicode="&#xad;" horiz-adv-x="817" d="M84 496l51 106h101l495 2l-49 -106h-102z" />
<glyph unicode="&#xae;" horiz-adv-x="862" d="M33 954q0 166 116.5 283t282.5 117t283 -117q61 -66 88 -129q29 -70 28 -154q0 -164 -116 -280q-119 -119 -283 -119t-282 119q-117 116 -117 280zM84 954q0 -143 102.5 -245.5t245.5 -102.5q139 0 246 103q104 101 104 245q0 145 -102 248t-248 103q-143 0 -245.5 -103 t-102.5 -248zM244 745v23q33 0 45 8q10 6 12 27v315q0 16 -12 29q-2 0 -8.5 2t-8.5 4h-28v23h184q86 0 131 -33q37 -33 37 -84q0 -29 -27 -64q-29 -39 -80 -47l103 -139l14 -18q6 -8 15 -15q14 -10 32 -14v-17h-69q-16 0 -52 46q-2 4 -17 23.5l-26 33.5l-63 92h-57v-137 q0 -16 12 -25q14 -10 41 -10v-23h-178zM369 961h53q45 0 72 26q23 29 22 66q0 53 -24 75q-27 23 -66 23h-57v-190z" />
<glyph unicode="&#xaf;" horiz-adv-x="532" d="M-20 1315v106h575v-106h-575z" />
<glyph unicode="&#xb0;" horiz-adv-x="765" d="M121 1137q0 109 75.5 184.5t184.5 75.5q104 0 182 -78q76 -76 76 -182.5t-76 -182.5q-78 -78 -182.5 -77.5t-183.5 75.5q-76 74 -76 185zM221 1136.5q0 -65.5 47 -112.5t113 -47q61 0 108.5 47t47.5 113q0 63 -47.5 110t-108.5 47q-68 0 -113 -45q-47 -47 -47 -112.5z " />
<glyph unicode="&#xb1;" horiz-adv-x="1148" d="M88 0v100h971v-100h-971zM88 520v101h436v352h103v-352h432v-101h-432v-350h-103v350h-436z" />
<glyph unicode="&#xb2;" d="M16 76q57 39 134 100q84 68 133 113q123 117 233 239q66 72 158 213.5t92 294.5q0 111 -65.5 182.5t-168.5 71.5q-92 0 -167 -28q-61 -23 -101 -62l2 -129l-53 -12l-61 237q18 10 88 35l67 25q98 31 203 30q195 0 315 -102q119 -100 119 -258q0 -150 -123 -321 q-68 -94 -112 -148q-51 -61 -95 -100q-113 -113 -188 -176q-2 -2 -98 -78q-4 -4 -42 -32l-61 -44l219 -8q109 0 136 2q37 2 125 12q70 0 112 8l27.5 4t21.5 3.5t11 1.5l65 112l47 -10q-10 -51 -18 -78l-13 -47q-2 -8 -4 -17.5l-5 -24.5t-5 -26q-8 -41 -12 -65l-447 6 l-440 -6z" />
<glyph unicode="&#xb3;" d="M31 205l205 127l18 -33l-49 -72q29 -59 102 -112q72 -51 195 -52q150 0 252 105q102 106 102 256q0 133 -80 217t-256 84l-131 -16l-18 69q133 35 241 101q113 68 113 204q0 98 -51 152q-51 55 -152 55q-92 0 -147 -30q-10 -6 -22.5 -11.5t-24.5 -11.5q-20 -12 -35 -23 l8 -81l-47 -15q-16 68 -49 129l-27 56l127 49q86 35 230 34q160 0 256 -81q98 -84 98 -211q0 -94 -60 -172q-61 -80 -217 -123q233 0 328 -101q92 -98 92 -235q0 -199 -170 -346.5t-397 -147.5q-88 0 -158 19q-72 18 -127 55q-106 80 -149 162z" />
<glyph unicode="&#xb4;" horiz-adv-x="532" d="M94 1225q25 58 49 104q25 45 60 84q53 61 125 127q8 -8 26 -24q20 -16 43 -29q35 -18 70 -27q-94 -45 -164 -106q-35 -31 -70 -72q-68 -80 -79 -94l-31 22q-9 7 -29 15z" />
<glyph unicode="&#xb6;" horiz-adv-x="591" d="M0 766q0 96 63 152q66 59 189 59h342v-88h-74v-846h-94v846h-119v-846h-90v520q-45 0 -88 17q-37 14 -70 47q-59 55 -59 139z" />
<glyph unicode="&#xb7;" horiz-adv-x="567" d="M205 514v168h170v-168h-170z" />
<glyph unicode="&#x2219;" horiz-adv-x="567" d="M205 514v168h170v-168h-170z" />
<glyph unicode="&#xb9;" d="M309 1231v51q35 8 70 18q59 20 76 27l34.5 13.5t18.5 7.5t8 3t6 3q16 6 66 32h65l-4 -444v-545l10 -329l132 -23v-51l-224 6l-221 -6v51l133 23l6 327v609l-6 227h-170z" />
<glyph unicode="&#xba;" horiz-adv-x="1206" d="M78 528q0 242 151.5 399.5t382.5 157.5q233 0 374.5 -155.5t141.5 -401.5q0 -242 -151.5 -399.5t-382.5 -157.5q-233 0 -377 156q-63 74 -102 178q-37 100 -37 223zM242 528q0 -109 26 -188q29 -86 82 -154q104 -133 264 -133t256 133q94 131 95 342q0 199 -109 338 q-104 135 -264 135q-164 0 -256 -131q-94 -135 -94 -342z" />
<glyph unicode="&#xbb;" horiz-adv-x="958" d="M170 858l59 31l234 -340l-230 -342l-59 33l125 309zM492 858l59 31l233 -340l-229 -342l-59 33l122 309z" />
<glyph unicode="&#xbc;" horiz-adv-x="1703" d="M205 1290v31q49 10 94 27l84 36h45l-4 -266v-327l4 -199l88 -12v-31l-147 4l-142 -4v31l84 12l6 199v362l-4 137h-108zM338 -61l803 1445l147 29l-803 -1446zM997 299l215 299q113 150 209 297h62l12 -18l-408 -568h318v363l90 37l18 -15l-8 -86v-299h15q31 0 67 13 l37 10l16 -19l-53 -67h-82l6 -205l78 -12v-31l-133 4l-160 -4v31l105 12l4 197v8h-369z" />
<glyph unicode="&#xbd;" horiz-adv-x="1703" d="M205 1290v31q49 10 94 27l84 36h45l-4 -266v-327l4 -199l88 -12v-31l-147 4l-142 -4v31l84 12l6 199v362l-4 137h-108zM338 -61l803 1445l147 29l-803 -1446zM993 43q89 58 172 129q78 66 154 145q51 51 102 127q59 88 60 181q0 68 -43 106q-41 43 -109 43 q-66 0 -108 -18q-31 -10 -39 -15q-10 -4 -29 -20l2 -78l-33 -8l-41 143q2 0 19.5 7.5t32.5 11.5l57 16q27 6 57 12q35 6 70 6q66 0 110 -14q47 -14 89 -47q82 -59 81 -156q0 -88 -81 -190q-76 -96 -134 -150q-47 -49 -57 -55l-65 -51q-43 -33 -78 -57q-37 -27 -54 -35 l144 -4q2 0 92 4q45 2 78 2l110 12l45 68l29 -6l-37 -156h-575z" />
<glyph unicode="&#xbe;" horiz-adv-x="1703" d="M27 674l133 78l12 -21l-31 -43q20 -33 66 -67q43 -29 127 -29q94 0 161.5 61.5t67.5 153.5q0 82 -53 131q-55 51 -164 51l-84 -12l-12 41q86 20 158 63q72 41 71 121q0 57 -33 90q-35 35 -100 35q-55 0 -96 -20l-53 -25l8 -49l-33 -10q-8 43 -33 77l-16 33l82 31 q55 20 151 20q102 0 164 -49q37 -27 51 -55q16 -33 17 -72q0 -51 -41 -102q-37 -45 -144 -74q156 0 215.5 -59.5t59.5 -143.5q0 -120 -111 -208q-109 -88 -258 -89q-113 0 -184 48q-35 23 -59 47q-29 29 -39 47zM371 -61l805 1445l147 29l-803 -1446zM997 299l215 299 q113 150 209 297h62l12 -18l-408 -568h318v363l90 37l18 -15l-8 -86v-299h15q31 0 67 13l37 10l16 -19l-53 -67h-82l6 -205l78 -12v-31l-133 4l-160 -4v31l105 12l4 197v8h-369z" />
<glyph unicode="&#xbf;" horiz-adv-x="958" d="M113 -12q0 92 106.5 198.5t292.5 161.5l18 238l72 20l57 -299l-30 -39q-86 -15 -148 -43q-51 -23 -104 -75q-84 -90 -84 -185q0 -80 59 -135q61 -57 160 -57q74 0 147 39l74 36l-2 111l41 16l70 -180q6 -14 18 -35q0 -2 2 -3l2 -3q-20 -10 -67 -28q-57 -20 -66 -25 q-98 -33 -217 -33q-205 0 -301 94q-100 97 -100 226zM475 983q0 41 31 71.5t72 30.5q39 0 69.5 -30.5t30.5 -69.5q0 -43 -29 -72q-31 -31 -71 -30q-37 0 -74 30q-29 29 -29 70z" />
<glyph unicode="&#xc0;" horiz-adv-x="0" />
<glyph unicode="&#xc1;" horiz-adv-x="0" />
<glyph unicode="&#xc2;" horiz-adv-x="0" />
<glyph unicode="&#xc3;" horiz-adv-x="0" />
<glyph unicode="&#xc4;" horiz-adv-x="0" />
<glyph unicode="&#xc5;" horiz-adv-x="0" />
<glyph unicode="&#xc6;" horiz-adv-x="0" />
<glyph unicode="&#xc7;" horiz-adv-x="0" />
<glyph unicode="&#xc8;" horiz-adv-x="0" />
<glyph unicode="&#xc9;" horiz-adv-x="0" />
<glyph unicode="&#xca;" horiz-adv-x="1552" d="M35 528q0 184 65 318q31 59 82 125q41 53 105 106q115 94 268 144q158 49 328 49q90 0 131 -4q82 -8 121 -19q106 -20 198 -69.5t135 -104.5q49 -57 50 -125h-768v246l-662 -666l662 -663v248h768q0 -41 -15 -70q-12 -25 -39 -61q-45 -57 -147 -107q-41 -23 -92 -39 q-59 -20 -103 -26l-118 -17l-121 -6q-180 0 -328 51q-78 25 -145 60q-61 33 -123 84q-117 94 -183 231q-69 145 -69 315z" />
<glyph unicode="&#xcb;" horiz-adv-x="1638" d="M35 463l545 549h346l-441 -426h1119v-240h-1119l441 -428h-346z" />
<glyph unicode="&#xcc;" horiz-adv-x="1630" d="M35 463l450 502q27 33 60 55q29 20 80 27q18 0 41 -15q23 -8 24.5 -10t13 -10l21.5 -15q28 -18 49 -49q16 -27 23 -76q0 -59 -70 -129l-125 -118l801 2q98 0 143 -39q51 -35 51 -125q0 -164 -186 -164l-809 8l125 -119q6 -8 12 -15l13 -15q14 -16 22 -35q23 -39 23 -66 q0 -29 -13 -57q-10 -25 -43 -59q-47 -53 -116 -54q-31 0 -37 4l-33 13l-33 22l-37 35z" />
<glyph unicode="&#xcd;" horiz-adv-x="774" d="M35 463l473 799v-273h233v-1050h-233v-273z" />
<glyph unicode="&#xce;" horiz-adv-x="1679" d="M35 455v16l78 37l77 49q4 2 11.5 8t18.5 16.5t22 18.5l51 41q47 39 86 90q43 51 74 107l71 127h11v-205h358v-588h-358v-211h-11q-88 176 -202.5 297t-286.5 197zM936 172v588h151v-588h-151zM1167 172v588h113v-588h-113zM1384 172v588h74v-588h-74zM1591 172v588h54 v-588h-54z" />
<glyph unicode="&#xcf;" horiz-adv-x="1644" d="M35 440l508 539v-213h1069v-604h-1069v-211z" />
<glyph unicode="&#xd0;" horiz-adv-x="1720" d="M35 446v35q49 18 88 45q23 10 41 25q8 6 17 12t14 8l4 2l35.5 30t29.5 24q20 16 64 59l41 45l30 35l13 18q12 23 26 37l47 74l47 92h48v-209h358v-631h-358v-206h-45q-35 68 -43 86q-18 34 -50 79q-27 41 -55 76q-39 49 -55 64q-53 49 -60 53l-73 55l-76 43l-39 21.5 t-32 18.5t-17 9zM66 475q88 -39 155 -86q76 -53 135 -115q51 -49 109 -129q41 -59 92 -159h-18v207h399v544h-399v209h18q-29 -59 -35 -74l-45 -75q-27 -43 -49 -70l-68 -70l-108 -90q-88 -59 -176 -112zM938 147v631h195v-631h-195zM979 193h113v544h-113v-544zM1169 147 v631h150v-631h-150zM1206 193h74v544h-74v-544zM1386 147v631h115v-631h-115zM1425 193h37v544h-37v-544zM1593 147v631h93v-631h-93zM1632 193h13v544h-13v-544z" />
<glyph unicode="&#xd1;" horiz-adv-x="1695" d="M35 440l557 592v-248h1069v-639h-1069v-245zM90 440l465 -440v186h1063v557h-1063v185z" />
<glyph unicode="&#xd2;" horiz-adv-x="1699" d="M35 145v639h1071v248l561 -592l-561 -540v245h-1071zM80 186h1067v-186l459 440l-459 488v-185h-1067v-557z" />
<glyph unicode="&#xd3;" horiz-adv-x="1720" d="M35 147v631h92v-631h-92zM78 193h10v544h-10v-544zM219 147v631h119v-631h-119zM260 193h35v544h-35v-544zM401 147v631h152v-631h-152zM444 193h70v544h-70v-544zM588 147v631h196v-631h-196zM633 193h108v544h-108v-544zM784 147v631h357v209h49q84 -180 196 -299 q55 -55 134 -110q72 -51 166 -97v-35q-8 -4 -31 -14t-35 -16q-57 -31 -94 -60q-66 -45 -133 -110l-41 -41q-14 -25 -17 -27q-4 -4 -9 -8l-5 -4l-39 -55l-47 -76q-8 -23 -23 -47q-4 -6 -11 -22.5t-13 -24.5h-47v206h-357zM784 193h402v-207h-21q72 162 199 288q23 23 63 60 q16 14 68 47q72 51 162 94l-12 -20q-78 41 -152 88q-55 43 -129 114l-61 68q-37 45 -56 72q-27 39 -45 71q-23 41 -37 78h21v-209h-402v-544z" />
<glyph unicode="&#xd4;" horiz-adv-x="1646" d="M35 162v604h1071v213l508 -539l-508 -489v211h-1071z" />
<glyph unicode="&#xd5;" horiz-adv-x="1679" d="M35 172v588h51v-588h-51zM219 172v588h74v-588h-74zM399 172v588h115v-588h-115zM588 172v588h153v-588h-153zM784 172v588h357v205h12q35 -84 86 -156q47 -68 117 -137l30 -25l35 -31l37 -30l31 -27l72 -43q47 -23 49 -22.5t6 -3t12 -8.5l17 -11v-16q-23 -10 -72 -39 q-57 -25 -82 -45l-37 -29l-31 -23l-67 -61q-53 -55 -105 -133q-33 -45 -49 -74l-49 -90h-12v211h-357z" />
<glyph unicode="&#xd6;" horiz-adv-x="778" d="M35 -61v1050h233v273l475 -799l-475 -797v273h-233z" />
<glyph unicode="&#xd7;" horiz-adv-x="1630" d="M35 463q0 76 47 123q43 41 137 41l807 -2l-154 147l-18 33l-12 35l-4 32q-2 4 -2 19q0 18 12 45q23 37 41 53q25 20 57 41q27 16 60 17q39 0 71 -23q12 -6 33 -23l37 -36l448 -502l-448 -502q-31 -35 -72 -57l-69 -17q-4 -2 -17 -2q-20 0 -47 11q-6 4 -14 10t-10 8 q-20 16 -29 27q-20 25 -39 59q-6 12 -8 25q0 6 -1 16t-3 16q0 25 14 60q12 31 53 71l121 119l-799 -8q-74 0 -139 39q-53 37 -53 125z" />
<glyph unicode="&#xd8;" horiz-adv-x="1638" d="M35 346v240h1118l-442 426h348l547 -549l-547 -545h-348l442 428h-1118z" />
<glyph unicode="&#xd9;" horiz-adv-x="1552" d="M35 113h766v-248l661 663l-661 666v-246h-766q0 78 51 135q39 39 57 54q28 22 74 43q94 49 211 69q115 20 240 21q172 0 325 -49q147 -47 271 -148q109 -84 186 -231q68 -138 68 -314q0 -174 -70 -311q-72 -139 -184 -231q-115 -92 -267 -146q-154 -53 -329 -53h-33 q-6 0 -18.5 1t-20.5 1q-22 0 -55 6l-111 15q-29 4 -63 16q-10 4 -25.5 8t-22.5 6q-25 8 -40 15q-18 6 -58 24q-25 12 -71 45q-41 29 -60 49q-55 52 -55 140z" />
<glyph unicode="&#xda;" horiz-adv-x="1454" d="M669 1544q25 58 49 104q25 45 60 84q53 61 125 127q8 -8 26 -24q20 -16 43 -29q35 -18 70 -27q-94 -45 -164 -106q-35 -31 -70 -72q-68 -80 -79 -94l-31 22q-9 7 -29 15zM88 1307v53l215 -6l219 6v-53l-119 -21l-12 -121l-6 -168v-462q0 -225 84 -334t266 -109 q168 0 270.5 102.5t102.5 270.5v63q0 76 -4 326q0 55 -1 103.5t-2 72t-1 25.5q0 84 -4 157q-4 59 -9 74l-133 21v53l217 -6l197 6v-53l-119 -21q-3 -18 -6 -104q-4 -115 -4 -127q0 -2 -4 -269q-2 -133 -2 -258v-71q0 -224 -135 -357q-137 -133 -371 -133q-260 0 -383 117 t-123 367v546l-16 289z" />
<glyph unicode="&#xdb;" horiz-adv-x="1454" d="M88 1307v53l215 -6l219 6v-53l-119 -21l-12 -121l-6 -168v-462q0 -225 84 -334t266 -109q168 0 270.5 102.5t102.5 270.5v63q0 76 -4 326q0 55 -1 103.5t-2 72t-1 25.5q0 84 -4 157q-4 59 -9 74l-133 21v53l217 -6l197 6v-53l-119 -21q-3 -18 -6 -104q-4 -115 -4 -127 q0 -2 -4 -269q-2 -133 -2 -258v-71q0 -224 -135 -357q-137 -133 -371 -133q-260 0 -383 117t-123 367v546l-16 289z" />
<glyph unicode="&#xdc;" horiz-adv-x="1454" d="M60 2177q0 133 53 256q29 68 62 115q31 45 83 98q82 88 209 145q119 53 262.5 53.5t258.5 -53.5q66 -31 112.5 -61.5t100.5 -83.5q86 -86 141 -213q57 -131 57 -256q0 -276 -198 -473q-201 -197 -469 -197q-133 0 -258 53.5t-213 141.5q-90 90 -148 213q-53 125 -53 262z M148 2177q0 -127 47 -227q49 -106 125 -185q39 -43 82 -69q59 -37 102 -58q47 -18 111 -33q58 -12 117 -12q230 0 411 172q78 76 125 185q45 104 45 227q0 114 -49 221q-39 100 -125 186q-74 78 -180 127q-100 47 -227 47.5t-226 -45.5q-96 -43 -182 -127q-84 -80 -129 -186 q-47 -110 -47 -223zM359 2214q0 -74 41 -121q43 -68 131 -113q92 -43 192 -43q141 0 240 76l49 41l39 39q16 27 18.5 29t12.5 32.5t10 59.5q0 -86 -23 -164q-16 -45 -30 -72q-15 -31 -43 -61q-41 -51 -113 -84q-31 -14 -74 -25q-33 -8 -82 -8q-147 0 -262 121q-6 8 -13 15 t-10 12l-3 4l-2 4q-2 4 -6.5 10t-8.5 12q-25 31 -39 72l-18 76q-6 33 -6 88zM439 2410q0 35 30 66q29 27 62 27q15 0 31 -7q10 -4 30 -20q33 -29 33 -66q0 -35 -29 -63q-8 -8 -28 -21q-14 -8 -37 -8q-37 0 -66 29q-26 26 -26 63zM832 2406q0 33 27 60q35 29 67.5 28.5 t59.5 -24.5q25 -20 30 -64q0 -33 -26 -61q-29 -29 -64 -29q-39 0 -70 25q-24 24 -24 65zM88 1307v53l215 -6l219 6v-53l-119 -21l-12 -121l-6 -168v-462q0 -225 84 -334t266 -109q168 0 270.5 102.5t102.5 270.5v63q0 76 -4 326q0 55 -1 103.5t-2 72t-1 25.5q0 84 -4 157 q-4 59 -9 74l-133 21v53l217 -6l197 6v-53l-119 -21q-3 -18 -6 -104q-4 -115 -4 -127q0 -2 -4 -269q-2 -133 -2 -258v-71q0 -224 -135 -357q-137 -133 -371 -133q-260 0 -383 117t-123 367v546l-16 289z" />
<glyph unicode="&#xdd;" horiz-adv-x="1312" d="M592 1544q25 58 49 104q25 45 60 84q53 61 125 127q8 -8 26 -24q20 -16 43 -29q35 -18 70 -27q-94 -45 -164 -106q-35 -31 -70 -72q-68 -80 -79 -94l-31 22q-9 7 -29 15zM18 1307v53l213 -6l205 6v-53l-110 -23l350 -641l352 641l-117 23v53l195 -6l180 6v-53l-106 -23 l-447 -717v-211l4 -86q0 -16 1 -35.5t2 -29.5t1 -17q0 -94 15 -120l137 -23v-51l-242 6l-243 -6v51l141 23l12 120l8 168v211l-442 717z" />
<glyph unicode="&#xe0;" d="M268 1478q35 6 76 31q43 27 66 49q53 -41 125 -127q31 -35 57 -80q18 -33 51 -108q-20 -6 -30 -15q-16 -8 -27 -22q-49 61 -80 94q-23 27 -74 72q-45 37 -71 53q-19 10 -93 53zM78 256q0 168 176 284.5t455 116.5h92v68q0 143 -60 203q-57 61 -180 61q-100 0 -186 -33 l-92 -36l4 -107l-41 -14l-90 205q61 27 143 51q102 31 287 30q152 0 250 -73.5t98 -196.5v-477q0 -111 10 -178q6 -29 21 -60q6 -12 24 -30l80 -25v-51l-106 2l-60 2h-35q-10 0 -39 -4q-18 0 -28 78q0 10 -1 30.5t-3 28.5q-6 77 -6 123q-90 -172 -197 -229q-98 -53 -197 -54 q-145 0 -231 84q-88 86 -88 201zM244 274q0 -70 49 -124q53 -53 139 -54q166 0 258 129q46 68 74 154q27 82 27 190l-101 4q-96 0 -182 -24.5t-148 -67.5q-53 -39 -86 -92q-30 -49 -30 -115z" />
<glyph unicode="&#xe1;" d="M526 1243q25 58 49 104q25 45 60 84q53 61 125 127q8 -8 26 -24q20 -16 43 -29q35 -18 70 -27q-94 -45 -164 -106q-35 -31 -70 -72q-68 -80 -79 -94l-31 22q-9 7 -29 15zM78 256q0 168 176 284.5t455 116.5h92v68q0 143 -60 203q-57 61 -180 61q-100 0 -186 -33l-92 -36 l4 -107l-41 -14l-90 205q61 27 143 51q102 31 287 30q152 0 250 -73.5t98 -196.5v-477q0 -111 10 -178q6 -29 21 -60q6 -12 24 -30l80 -25v-51l-106 2l-60 2h-35q-10 0 -39 -4q-18 0 -28 78q0 10 -1 30.5t-3 28.5q-6 77 -6 123q-90 -172 -197 -229q-98 -53 -197 -54 q-145 0 -231 84q-88 86 -88 201zM244 274q0 -70 49 -124q53 -53 139 -54q166 0 258 129q46 68 74 154q27 82 27 190l-101 4q-96 0 -182 -24.5t-148 -67.5q-53 -39 -86 -92q-30 -49 -30 -115z" />
<glyph unicode="&#xe2;" d="M78 256q0 168 176 284.5t455 116.5h92v68q0 143 -60 203q-57 61 -180 61q-100 0 -186 -33l-92 -36l4 -107l-41 -14l-90 205q61 27 143 51q102 31 287 30q152 0 250 -73.5t98 -196.5v-477q0 -111 10 -178q6 -29 21 -60q6 -12 24 -30l80 -25v-51l-106 2l-60 2h-35 q-10 0 -39 -4q-18 0 -28 78q0 10 -1 30.5t-3 28.5q-6 77 -6 123q-90 -172 -197 -229q-98 -53 -197 -54q-145 0 -231 84q-88 86 -88 201zM244 274q0 -70 49 -124q53 -53 139 -54q166 0 258 129q46 68 74 154q27 82 27 190l-101 4q-96 0 -182 -24.5t-148 -67.5 q-53 -39 -86 -92q-30 -49 -30 -115z" />
<glyph unicode="&#xe3;" d="M221 1247q41 68 98 115q59 49 121 49q20 0 61 -10q35 -8 90 -35q53 -25 95 -37q37 -10 73 -14q45 0 78 31l18.5 15t12.5 11l4 5q2 2 16.5 14t20.5 20l41 -39q-43 -68 -101 -114q-29 -25 -59 -37q-27 -12 -57 -12q-47 0 -158 49q-106 47 -164 47q-43 0 -80 -31 q-14 -10 -34 -31l-33 -34zM78 256q0 168 176 284.5t455 116.5h92v68q0 143 -60 203q-57 61 -180 61q-100 0 -186 -33l-92 -36l4 -107l-41 -14l-90 205q61 27 143 51q102 31 287 30q152 0 250 -73.5t98 -196.5v-477q0 -111 10 -178q6 -29 21 -60q6 -12 24 -30l80 -25v-51 l-106 2l-60 2h-35q-10 0 -39 -4q-18 0 -28 78q0 10 -1 30.5t-3 28.5q-6 77 -6 123q-90 -172 -197 -229q-98 -53 -197 -54q-145 0 -231 84q-88 86 -88 201zM244 274q0 -70 49 -124q53 -53 139 -54q166 0 258 129q46 68 74 154q27 82 27 190l-101 4q-96 0 -182 -24.5 t-148 -67.5q-53 -39 -86 -92q-30 -49 -30 -115z" />
<glyph unicode="&#xe4;" d="M-84 1878q0 133 53 256q29 68 62 115q31 45 83 98q82 88 209 145q119 53 262.5 53.5t258.5 -53.5q66 -31 112.5 -61.5t100.5 -83.5q86 -86 141 -213q57 -131 57 -256q0 -276 -198 -473q-201 -197 -469 -197q-133 0 -258 53.5t-213 141.5q-90 90 -148 213q-53 125 -53 262 zM4 1878q0 -127 47 -227q49 -106 125 -185q39 -43 82 -69q59 -37 102 -58q47 -18 111 -33q58 -12 117 -12q230 0 411 172q78 76 125 185q45 104 45 227q0 114 -49 221q-39 100 -125 186q-74 78 -180 127q-100 47 -227 47.5t-226 -45.5q-96 -43 -182 -127q-84 -80 -129 -186 q-47 -110 -47 -223zM215 1915q0 -74 41 -121q43 -68 131 -113q92 -43 192 -43q141 0 240 76l49 41l39 39q16 27 18.5 29t12.5 32.5t10 59.5q0 -86 -23 -164q-16 -45 -30 -72q-15 -31 -43 -61q-41 -51 -113 -84q-31 -14 -74 -25q-33 -8 -82 -8q-147 0 -262 121q-6 8 -13 15 t-10 12l-3 4l-2 4q-2 4 -6.5 10t-8.5 12q-25 31 -39 72l-18 76q-6 33 -6 88zM295 2111q0 35 30 66q29 27 62 27q15 0 31 -7q10 -4 30 -20q33 -29 33 -66q0 -35 -29 -63q-8 -8 -28 -21q-14 -8 -37 -8q-37 0 -66 29q-26 26 -26 63zM688 2107q0 33 27 60q35 29 67.5 28.5 t59.5 -24.5q25 -20 30 -64q0 -33 -26 -61q-29 -29 -64 -29q-39 0 -70 25q-24 24 -24 65zM78 256q0 168 176 284.5t455 116.5h92v68q0 143 -60 203q-57 61 -180 61q-100 0 -186 -33l-92 -36l4 -107l-41 -14l-90 205q61 27 143 51q102 31 287 30q152 0 250 -73.5t98 -196.5 v-477q0 -111 10 -178q6 -29 21 -60q6 -12 24 -30l80 -25v-51l-106 2l-60 2h-35q-10 0 -39 -4q-18 0 -28 78q0 10 -1 30.5t-3 28.5q-6 77 -6 123q-90 -172 -197 -229q-98 -53 -197 -54q-145 0 -231 84q-88 86 -88 201zM244 274q0 -70 49 -124q53 -53 139 -54q166 0 258 129 q46 68 74 154q27 82 27 190l-101 4q-96 0 -182 -24.5t-148 -67.5q-53 -39 -86 -92q-30 -49 -30 -115z" />
<glyph unicode="&#xe5;" d="M326 1469q0 109 75.5 184.5t184.5 75.5q104 0 182 -78q76 -76 76 -182.5t-76 -182.5q-78 -78 -182.5 -77.5t-183.5 75.5q-76 74 -76 185zM426 1468.5q0 -65.5 47 -112.5t113 -47q61 0 108.5 47t47.5 113q0 63 -47.5 110t-108.5 47q-68 0 -113 -45q-47 -47 -47 -112.5z M78 256q0 168 176 284.5t455 116.5h92v68q0 143 -60 203q-57 61 -180 61q-100 0 -186 -33l-92 -36l4 -107l-41 -14l-90 205q61 27 143 51q102 31 287 30q152 0 250 -73.5t98 -196.5v-477q0 -111 10 -178q6 -29 21 -60q6 -12 24 -30l80 -25v-51l-106 2l-60 2h-35 q-10 0 -39 -4q-18 0 -28 78q0 10 -1 30.5t-3 28.5q-6 77 -6 123q-90 -172 -197 -229q-98 -53 -197 -54q-145 0 -231 84q-88 86 -88 201zM244 274q0 -70 49 -124q53 -53 139 -54q166 0 258 129q46 68 74 154q27 82 27 190l-101 4q-96 0 -182 -24.5t-148 -67.5 q-53 -39 -86 -92q-30 -49 -30 -115z" />
<glyph unicode="&#xe8;" horiz-adv-x="1099" d="M280 1478q35 6 76 31q43 27 66 49q53 -41 125 -127q31 -35 57 -80q18 -33 51 -108q-20 -6 -30 -15q-16 -8 -27 -22q-49 61 -80 94q-23 27 -74 72q-45 37 -71 53q-19 10 -93 53zM78 500q0 240 151 413q152 172 369 172q188 0 291 -102q106 -98 106 -276l6 -78h-757l-2 -35 v-78q0 -193 98 -305q98 -115 264 -115q72 0 123 15q53 14 107 51q59 41 86 67q35 35 53 66l53 -43q-55 -111 -186 -199q-59 -39 -133 -61q-63 -20 -144 -21q-227 0 -356 139.5t-129 389.5zM254 717l479 8l96 6q0 131 -59 200.5t-174 69.5q-152 0 -256 -116q-55 -62 -86 -168 z" />
<glyph unicode="&#xe9;" horiz-adv-x="1099" d="M538 1243q25 58 49 104q25 45 60 84q53 61 125 127q8 -8 26 -24q20 -16 43 -29q35 -18 70 -27q-94 -45 -164 -106q-35 -31 -70 -72q-68 -80 -79 -94l-31 22q-9 7 -29 15zM78 500q0 240 151 413q152 172 369 172q188 0 291 -102q106 -98 106 -276l6 -78h-757l-2 -35v-78 q0 -193 98 -305q98 -115 264 -115q72 0 123 15q53 14 107 51q59 41 86 67q35 35 53 66l53 -43q-55 -111 -186 -199q-59 -39 -133 -61q-63 -20 -144 -21q-227 0 -356 139.5t-129 389.5zM254 717l479 8l96 6q0 131 -59 200.5t-174 69.5q-152 0 -256 -116q-55 -62 -86 -168z " />
<glyph unicode="&#xea;" horiz-adv-x="1099" d="M78 500q0 240 151 413q152 172 369 172q188 0 291 -102q106 -98 106 -276l6 -78h-757l-2 -35v-78q0 -193 98 -305q98 -115 264 -115q72 0 123 15q53 14 107 51q59 41 86 67q35 35 53 66l53 -43q-55 -111 -186 -199q-59 -39 -133 -61q-63 -20 -144 -21q-227 0 -356 139.5 t-129 389.5zM254 717l479 8l96 6q0 131 -59 200.5t-174 69.5q-152 0 -256 -116q-55 -62 -86 -168z" />
<glyph unicode="&#xeb;" horiz-adv-x="1099" d="M-71 1878q0 133 53 256q29 68 62 115q31 45 83 98q82 88 209 145q119 53 262.5 53.5t258.5 -53.5q66 -31 112.5 -61.5t100.5 -83.5q86 -86 141 -213q57 -131 57 -256q0 -276 -198 -473q-201 -197 -469 -197q-133 0 -258 53.5t-213 141.5q-90 90 -148 213q-53 125 -53 262 zM17 1878q0 -127 47 -227q49 -106 125 -185q39 -43 82 -69q59 -37 102 -58q47 -18 111 -33q58 -12 117 -12q230 0 411 172q78 76 125 185q45 104 45 227q0 114 -49 221q-39 100 -125 186q-74 78 -180 127q-100 47 -227 47.5t-226 -45.5q-96 -43 -182 -127q-84 -80 -129 -186 q-47 -110 -47 -223zM228 1915q0 -74 41 -121q43 -68 131 -113q92 -43 192 -43q141 0 240 76l49 41l39 39q16 27 18.5 29t12.5 32.5t10 59.5q0 -86 -23 -164q-16 -45 -30 -72q-15 -31 -43 -61q-41 -51 -113 -84q-31 -14 -74 -25q-33 -8 -82 -8q-147 0 -262 121q-6 8 -13 15 t-10 12l-3 4l-2 4q-2 4 -6.5 10t-8.5 12q-25 31 -39 72l-18 76q-6 33 -6 88zM308 2111q0 35 30 66q29 27 62 27q15 0 31 -7q10 -4 30 -20q33 -29 33 -66q0 -35 -29 -63q-8 -8 -28 -21q-14 -8 -37 -8q-37 0 -66 29q-26 26 -26 63zM701 2107q0 33 27 60q35 29 67.5 28.5 t59.5 -24.5q25 -20 30 -64q0 -33 -26 -61q-29 -29 -64 -29q-39 0 -70 25q-24 24 -24 65zM78 500q0 240 151 413q152 172 369 172q188 0 291 -102q106 -98 106 -276l6 -78h-757l-2 -35v-78q0 -193 98 -305q98 -115 264 -115q72 0 123 15q53 14 107 51q59 41 86 67 q35 35 53 66l53 -43q-55 -111 -186 -199q-59 -39 -133 -61q-63 -20 -144 -21q-227 0 -356 139.5t-129 389.5zM254 717l479 8l96 6q0 131 -59 200.5t-174 69.5q-152 0 -256 -116q-55 -62 -86 -168z" />
<glyph unicode="&#xec;" horiz-adv-x="567" d="M-33 1898q35 6 76 31q43 27 66 49q53 -41 125 -127q31 -35 57 -80q18 -33 51 -108q-20 -6 -30 -15q-16 -8 -27 -22q-49 61 -80 94q-23 27 -74 72q-45 37 -71 53q-19 10 -93 53zM63 981v53q14 2 42 5t42 5q45 6 48 9l131 32h39l-5 -280v-408l9 -329l116 -23v-51l-200 6 l-205 -6v51l123 23l4 327v219l-10 347zM176 1399q0 43 28.5 71.5t80.5 34.5q43 0 73 -32q33 -33 33 -74q0 -45 -29 -74q-27 -27 -77 -33q-43 0 -78 31q-31 33 -31 76z" />
<glyph unicode="&#xed;" horiz-adv-x="567" d="M225 1663q25 58 49 104q25 45 60 84q53 61 125 127q8 -8 26 -24q20 -16 43 -29q35 -18 70 -27q-94 -45 -164 -106q-35 -31 -70 -72q-68 -80 -79 -94l-31 22q-9 7 -29 15zM63 981v53q14 2 42 5t42 5q45 6 48 9l131 32h39l-5 -280v-408l9 -329l116 -23v-51l-200 6l-205 -6 v51l123 23l4 327v219l-10 347zM176 1399q0 43 28.5 71.5t80.5 34.5q43 0 73 -32q33 -33 33 -74q0 -45 -29 -74q-27 -27 -77 -33q-43 0 -78 31q-31 33 -31 76z" />
<glyph unicode="&#xee;" horiz-adv-x="567" d="M63 981v53q14 2 42 5t42 5q45 6 48 9l131 32h39l-5 -280v-408l9 -329l116 -23v-51l-200 6l-205 -6v51l123 23l4 327v219l-10 347zM176 1399q0 43 28.5 71.5t80.5 34.5q43 0 73 -32q33 -33 33 -74q0 -45 -29 -74q-27 -27 -77 -33q-43 0 -78 31q-31 33 -31 76z" />
<glyph unicode="&#xef;" horiz-adv-x="567" d="M-385 2298q0 133 53 256q29 68 62 115q31 45 83 98q82 88 209 145q119 53 262.5 53.5t258.5 -53.5q66 -31 112.5 -61.5t100.5 -83.5q86 -86 141 -213q57 -131 57 -256q0 -276 -198 -473q-201 -197 -469 -197q-133 0 -258 53.5t-213 141.5q-90 90 -148 213 q-53 125 -53 262zM-297 2298q0 -127 47 -227q49 -106 125 -185q39 -43 82 -69q59 -37 102 -58q47 -18 111 -33q58 -12 117 -12q230 0 411 172q78 76 125 185q45 104 45 227q0 114 -49 221q-39 100 -125 186q-74 78 -180 127q-100 47 -227 47.5t-226 -45.5q-96 -43 -182 -127 q-84 -80 -129 -186q-47 -110 -47 -223zM-86 2335q0 -74 41 -121q43 -68 131 -113q92 -43 192 -43q141 0 240 76l49 41l39 39q16 27 18.5 29t12.5 32.5t10 59.5q0 -86 -23 -164q-16 -45 -30 -72q-15 -31 -43 -61q-41 -51 -113 -84q-31 -14 -74 -25q-33 -8 -82 -8 q-147 0 -262 121q-6 8 -13 15t-10 12l-3 4l-2 4q-2 4 -6.5 10t-8.5 12q-25 31 -39 72l-18 76q-6 33 -6 88zM-6 2531q0 35 30 66q29 27 62 27q15 0 31 -7q10 -4 30 -20q33 -29 33 -66q0 -35 -29 -63q-8 -8 -28 -21q-14 -8 -37 -8q-37 0 -66 29q-26 26 -26 63zM387 2527 q0 33 27 60q35 29 67.5 28.5t59.5 -24.5q25 -20 30 -64q0 -33 -26 -61q-29 -29 -64 -29q-39 0 -70 25q-24 24 -24 65zM63 981v53q14 2 42 5t42 5q45 6 48 9l131 32h39l-5 -280v-408l9 -329l116 -23v-51l-200 6l-205 -6v51l123 23l4 327v219l-10 347zM176 1399 q0 43 28.5 71.5t80.5 34.5q43 0 73 -32q33 -33 33 -74q0 -45 -29 -74q-27 -27 -77 -33q-43 0 -78 31q-31 33 -31 76z" />
<glyph unicode="&#xf1;" horiz-adv-x="1689" d="M35 55h51l14 -24l19 24h26l54 54h53v53l31 31h51v53h31l137 139v31h55v49l29 29h55l27 30h59v82l78 82h29l26 27h47l29 -27l111 -164v-276h-29l-82 -78l55 -61h60l82 84h84v53h83l54 55h61v57h53v140l-30 30v54l-23 28v54h-61v30l-54 54h-30l-23 26l-252 168h-112 l-109 -111h-26l-109 -112h-57l-111 -109h-27l-28 -28h-25l-84 -84h-28l-27 -27h-55v-51h-29l-53 -60h-29l-51 -26v995h1622v-1681h-1622v407z" />
<glyph unicode="&#xf2;" horiz-adv-x="1206" d="M294 1478q35 6 76 31q43 27 66 49q53 -41 125 -127q31 -35 57 -80q18 -33 51 -108q-20 -6 -30 -15q-16 -8 -27 -22q-49 61 -80 94q-23 27 -74 72q-45 37 -71 53q-19 10 -93 53zM78 528q0 242 151.5 399.5t382.5 157.5q233 0 374.5 -155.5t141.5 -401.5 q0 -242 -151.5 -399.5t-382.5 -157.5q-233 0 -377 156q-63 74 -102 178q-37 100 -37 223zM242 528q0 -109 26 -188q29 -86 82 -154q104 -133 264 -133t256 133q94 131 95 342q0 199 -109 338q-104 135 -264 135q-164 0 -256 -131q-94 -135 -94 -342z" />
<glyph unicode="&#xf3;" horiz-adv-x="1206" d="M553 1243q25 58 49 104q25 45 60 84q53 61 125 127q8 -8 26 -24q20 -16 43 -29q35 -18 70 -27q-94 -45 -164 -106q-35 -31 -70 -72q-68 -80 -79 -94l-31 22q-9 7 -29 15zM78 528q0 242 151.5 399.5t382.5 157.5q233 0 374.5 -155.5t141.5 -401.5q0 -242 -151.5 -399.5 t-382.5 -157.5q-233 0 -377 156q-63 74 -102 178q-37 100 -37 223zM242 528q0 -109 26 -188q29 -86 82 -154q104 -133 264 -133t256 133q94 131 95 342q0 199 -109 338q-104 135 -264 135q-164 0 -256 -131q-94 -135 -94 -342z" />
<glyph unicode="&#xf4;" horiz-adv-x="1206" d="M78 528q0 242 151.5 399.5t382.5 157.5q233 0 374.5 -155.5t141.5 -401.5q0 -242 -151.5 -399.5t-382.5 -157.5q-233 0 -377 156q-63 74 -102 178q-37 100 -37 223zM242 528q0 -109 26 -188q29 -86 82 -154q104 -133 264 -133t256 133q94 131 95 342q0 199 -109 338 q-104 135 -264 135q-164 0 -256 -131q-94 -135 -94 -342z" />
<glyph unicode="&#xf5;" horiz-adv-x="1206" d="M248 1247q41 68 98 115q59 49 121 49q20 0 61 -10q35 -8 90 -35q53 -25 95 -37q37 -10 73 -14q45 0 78 31l18.5 15t12.5 11l4 5q2 2 16.5 14t20.5 20l41 -39q-43 -68 -101 -114q-29 -25 -59 -37q-27 -12 -57 -12q-47 0 -158 49q-106 47 -164 47q-43 0 -80 -31 q-14 -10 -34 -31l-33 -34zM78 528q0 242 151.5 399.5t382.5 157.5q233 0 374.5 -155.5t141.5 -401.5q0 -242 -151.5 -399.5t-382.5 -157.5q-233 0 -377 156q-63 74 -102 178q-37 100 -37 223zM242 528q0 -109 26 -188q29 -86 82 -154q104 -133 264 -133t256 133 q94 131 95 342q0 199 -109 338q-104 135 -264 135q-164 0 -256 -131q-94 -135 -94 -342z" />
<glyph unicode="&#xf6;" horiz-adv-x="1206" d="M-57 1878q0 133 53 256q29 68 62 115q31 45 83 98q82 88 209 145q119 53 262.5 53.5t258.5 -53.5q66 -31 112.5 -61.5t100.5 -83.5q86 -86 141 -213q57 -131 57 -256q0 -276 -198 -473q-201 -197 -469 -197q-133 0 -258 53.5t-213 141.5q-90 90 -148 213q-53 125 -53 262 zM31 1878q0 -127 47 -227q49 -106 125 -185q39 -43 82 -69q59 -37 102 -58q47 -18 111 -33q58 -12 117 -12q230 0 411 172q78 76 125 185q45 104 45 227q0 114 -49 221q-39 100 -125 186q-74 78 -180 127q-100 47 -227 47.5t-226 -45.5q-96 -43 -182 -127q-84 -80 -129 -186 q-47 -110 -47 -223zM242 1915q0 -74 41 -121q43 -68 131 -113q92 -43 192 -43q141 0 240 76l49 41l39 39q16 27 18.5 29t12.5 32.5t10 59.5q0 -86 -23 -164q-16 -45 -30 -72q-15 -31 -43 -61q-41 -51 -113 -84q-31 -14 -74 -25q-33 -8 -82 -8q-147 0 -262 121q-6 8 -13 15 t-10 12l-3 4l-2 4q-2 4 -6.5 10t-8.5 12q-25 31 -39 72l-18 76q-6 33 -6 88zM322 2111q0 35 30 66q29 27 62 27q15 0 31 -7q10 -4 30 -20q33 -29 33 -66q0 -35 -29 -63q-8 -8 -28 -21q-14 -8 -37 -8q-37 0 -66 29q-26 26 -26 63zM715 2107q0 33 27 60q35 29 67.5 28.5 t59.5 -24.5q25 -20 30 -64q0 -33 -26 -61q-29 -29 -64 -29q-39 0 -70 25q-24 24 -24 65zM78 528q0 242 151.5 399.5t382.5 157.5q233 0 374.5 -155.5t141.5 -401.5q0 -242 -151.5 -399.5t-382.5 -157.5q-233 0 -377 156q-63 74 -102 178q-37 100 -37 223zM242 528 q0 -109 26 -188q29 -86 82 -154q104 -133 264 -133t256 133q94 131 95 342q0 199 -109 338q-104 135 -264 135q-164 0 -256 -131q-94 -135 -94 -342z" />
<glyph unicode="&#xf9;" horiz-adv-x="1206" d="M352 1478q35 6 76 31q43 27 66 49q53 -41 125 -127q31 -35 57 -80q18 -33 51 -108q-20 -6 -30 -15q-16 -8 -27 -22q-49 61 -80 94q-23 27 -74 72q-45 37 -71 53q-19 10 -93 53zM41 981v53q25 0 61 4q4 0 74 15q63 8 133 32h37l-10 -354v-287q0 -88 12 -151 q10 -59 41 -109q55 -88 170 -88q143 0 229 121q82 121 82 303v152l-10 289l-131 20v53q23 0 59 4l72 15q80 14 133 32h39l-2 -366v-338l2 -231q0 -80 6 -82l115 -23l2 -51l-104 6h-107l-76 -4l2 231q-76 -127 -176 -192q-96 -63 -209 -64q-131 0 -217 88t-86 232v381 l-10 289z" />
<glyph unicode="&#xfa;" horiz-adv-x="1206" d="M610 1243q25 58 49 104q25 45 60 84q53 61 125 127q8 -8 26 -24q20 -16 43 -29q35 -18 70 -27q-94 -45 -164 -106q-35 -31 -70 -72q-68 -80 -79 -94l-31 22q-9 7 -29 15zM41 981v53q25 0 61 4q4 0 74 15q63 8 133 32h37l-10 -354v-287q0 -88 12 -151q10 -59 41 -109 q55 -88 170 -88q143 0 229 121q82 121 82 303v152l-10 289l-131 20v53q23 0 59 4l72 15q80 14 133 32h39l-2 -366v-338l2 -231q0 -80 6 -82l115 -23l2 -51l-104 6h-107l-76 -4l2 231q-76 -127 -176 -192q-96 -63 -209 -64q-131 0 -217 88t-86 232v381l-10 289z" />
<glyph unicode="&#xfb;" horiz-adv-x="1206" d="M41 981v53q25 0 61 4q4 0 74 15q63 8 133 32h37l-10 -354v-287q0 -88 12 -151q10 -59 41 -109q55 -88 170 -88q143 0 229 121q82 121 82 303v152l-10 289l-131 20v53q23 0 59 4l72 15q80 14 133 32h39l-2 -366v-338l2 -231q0 -80 6 -82l115 -23l2 -51l-104 6h-107l-76 -4 l2 231q-76 -127 -176 -192q-96 -63 -209 -64q-131 0 -217 88t-86 232v381l-10 289z" />
<glyph unicode="&#xfc;" horiz-adv-x="1206" d="M0 1878q0 133 53 256q29 68 62 115q31 45 83 98q82 88 209 145q119 53 262.5 53.5t258.5 -53.5q66 -31 112.5 -61.5t100.5 -83.5q86 -86 141 -213q57 -131 57 -256q0 -276 -198 -473q-201 -197 -469 -197q-133 0 -258 53.5t-213 141.5q-90 90 -148 213q-53 125 -53 262z M88 1878q0 -127 47 -227q49 -106 125 -185q39 -43 82 -69q59 -37 102 -58q47 -18 111 -33q58 -12 117 -12q230 0 411 172q78 76 125 185q45 104 45 227q0 114 -49 221q-39 100 -125 186q-74 78 -180 127q-100 47 -227 47.5t-226 -45.5q-96 -43 -182 -127q-84 -80 -129 -186 q-47 -110 -47 -223zM299 1915q0 -74 41 -121q43 -68 131 -113q92 -43 192 -43q141 0 240 76l49 41l39 39q16 27 18.5 29t12.5 32.5t10 59.5q0 -86 -23 -164q-16 -45 -30 -72q-15 -31 -43 -61q-41 -51 -113 -84q-31 -14 -74 -25q-33 -8 -82 -8q-147 0 -262 121q-6 8 -13 15 t-10 12l-3 4l-2 4q-2 4 -6.5 10t-8.5 12q-25 31 -39 72l-18 76q-6 33 -6 88zM379 2111q0 35 30 66q29 27 62 27q15 0 31 -7q10 -4 30 -20q33 -29 33 -66q0 -35 -29 -63q-8 -8 -28 -21q-14 -8 -37 -8q-37 0 -66 29q-26 26 -26 63zM772 2107q0 33 27 60q35 29 67.5 28.5 t59.5 -24.5q25 -20 30 -64q0 -33 -26 -61q-29 -29 -64 -29q-39 0 -70 25q-24 24 -24 65zM41 981v53q25 0 61 4q4 0 74 15q63 8 133 32h37l-10 -354v-287q0 -88 12 -151q10 -59 41 -109q55 -88 170 -88q143 0 229 121q82 121 82 303v152l-10 289l-131 20v53q23 0 59 4l72 15 q80 14 133 32h39l-2 -366v-338l2 -231q0 -80 6 -82l115 -23l2 -51l-104 6h-107l-76 -4l2 231q-76 -127 -176 -192q-96 -63 -209 -64q-131 0 -217 88t-86 232v381l-10 289z" />
<glyph unicode="&#xfd;" horiz-adv-x="1028" d="M471 1243q25 58 49 104q25 45 60 84q53 61 125 127q8 -8 26 -24q20 -16 43 -29q35 -18 70 -27q-94 -45 -164 -106q-35 -31 -70 -72q-68 -80 -79 -94l-31 22q-9 7 -29 15zM-41 -510l64 227l51 -4v-90l39 -12q25 -8 57 -8q109 0 201 106q88 102 133 238l20 47h-51l-184 504 q-92 258 -191 491l-92 23v49l189 -4l190 4v-49l-98 -21l284 -895l72 226l66 223q82 283 116 444l-94 23v49l164 -4l162 4v-49l-62 -23q-125 -272 -209 -510l-176 -508q-86 -240 -209 -374q-121 -133 -309 -134h-39q-29 8 -35 9l-24 6q-15 4 -35 12z" />
<glyph unicode="&#xff;" horiz-adv-x="1028" d="M-139 1878q0 133 53 256q29 68 62 115q31 45 83 98q82 88 209 145q119 53 262.5 53.5t258.5 -53.5q66 -31 112.5 -61.5t100.5 -83.5q86 -86 141 -213q57 -131 57 -256q0 -276 -198 -473q-201 -197 -469 -197q-133 0 -258 53.5t-213 141.5q-90 90 -148 213 q-53 125 -53 262zM-51 1878q0 -127 47 -227q49 -106 125 -185q39 -43 82 -69q59 -37 102 -58q47 -18 111 -33q58 -12 117 -12q230 0 411 172q78 76 125 185q45 104 45 227q0 114 -49 221q-39 100 -125 186q-74 78 -180 127q-100 47 -227 47.5t-226 -45.5q-96 -43 -182 -127 q-84 -80 -129 -186q-47 -110 -47 -223zM160 1915q0 -74 41 -121q43 -68 131 -113q92 -43 192 -43q141 0 240 76l49 41l39 39q16 27 18.5 29t12.5 32.5t10 59.5q0 -86 -23 -164q-16 -45 -30 -72q-15 -31 -43 -61q-41 -51 -113 -84q-31 -14 -74 -25q-33 -8 -82 -8 q-147 0 -262 121q-6 8 -13 15t-10 12l-3 4l-2 4q-2 4 -6.5 10t-8.5 12q-25 31 -39 72l-18 76q-6 33 -6 88zM240 2111q0 35 30 66q29 27 62 27q15 0 31 -7q10 -4 30 -20q33 -29 33 -66q0 -35 -29 -63q-8 -8 -28 -21q-14 -8 -37 -8q-37 0 -66 29q-26 26 -26 63zM633 2107 q0 33 27 60q35 29 67.5 28.5t59.5 -24.5q25 -20 30 -64q0 -33 -26 -61q-29 -29 -64 -29q-39 0 -70 25q-24 24 -24 65zM-41 -510l64 227l51 -4v-90l39 -12q25 -8 57 -8q109 0 201 106q88 102 133 238l20 47h-51l-184 504q-92 258 -191 491l-92 23v49l189 -4l190 4v-49 l-98 -21l284 -895l72 226l66 223q82 283 116 444l-94 23v49l164 -4l162 4v-49l-62 -23q-125 -272 -209 -510l-176 -508q-86 -240 -209 -374q-121 -133 -309 -134h-39q-29 8 -35 9l-24 6q-15 4 -35 12z" />
<glyph unicode="&#x152;" horiz-adv-x="724" d="M35 928l6 18q16 0 33 -4q20 0 37 -8q14 -2 45 -27q25 -14 57 -53l6 -10q6 -6 8 -13l33 -59l23 -33l39 -77l6 -11.5l6 -11.5q4 -8 20 -25l23 -32l16 -19l6 -12q2 -2 4.5 -5t2.5 -5q2 -6 6 -13l20 -34l8 -13l6 -10l52 -78l34 45l19 54l24 49h13h26l23 -9l41 -26l6 -19 l4 -22q0 -25 -4 -33q0 -27 -6 -41l-68 -172l-18 -2q-9 0 -25 -6l-32 -6q-25 4 -35 6q-12 4 -23 16q-18 22 -31 49l-43 76l-57 103l-39 67l-14 23q-4 10 -8 12l-25 41l-47 74l-33 55l-61 92l-10 15q-2 10 -9 14l-22 24z" />
<glyph unicode="&#x153;" horiz-adv-x="1138" d="M35 -41l26 55q4 14 39 66l35 55l49 72l56 76q6 6 34 45q16 23 26.5 35t14.5 18l78 104l70 82l-154 445l25 47l26 12l13 -6l20 -14l15 16l16 -8l31 33l32 -9l152 -305l303 357h27l43 -29l47 39l12 -29l35 -49l-47 -59l-94 -113q-25 -29 -97 -129l-129 -180l193 -430 l-25 -21v-14l-39 -33l15 -29q-4 -8 -29 -32q-20 -12 -35 -15l-12 6q-6 3 -19 13q-12 10 -22 22q-10 14 -23 35l-90 145l-80 136l-180 -265q-6 -14 -35 -59l-59 -98l-57 -99l-31 -53l-35 -12l-80 -10l-41 55l-14 45l14 55z" />
<glyph unicode="&#x178;" horiz-adv-x="1251" d="M35 6v248h37l14 -14l8 14h19l47 41h33v39l22 20h39v43h20l103 99v24h39v35l18 20h43l21 23h41v57l59 60h16l23 22h37l22 -22l78 -117v-199h-18l-60 -65l35 -39h47l62 59h59v43h62l40 41h37v37h41v107l-20 20v39l-21 18v43h-37v23l-40 37h-25l-21 18l-182 121h-80l-78 -80 h-20l-78 -82h-43l-80 -80h-20l-19 -18h-16l-66 -59h-20l-20 -25h-37v-35h-23l-45 -41h-16l-37 -22v723h1184v-1176h-1184z" />
<glyph unicode="&#x2c6;" horiz-adv-x="0" />
<glyph unicode="&#x2dc;" horiz-adv-x="532" d="M-96 1300q41 68 98 115q59 49 121 49q20 0 61 -10q35 -8 90 -35q53 -25 95 -37q37 -10 73 -14q45 0 78 31l18.5 15t12.5 11l4 5q2 2 16.5 14t20.5 20l41 -39q-43 -68 -101 -114q-29 -25 -59 -37q-27 -12 -57 -12q-47 0 -158 49q-106 47 -164 47q-43 0 -80 -31 q-14 -10 -34 -31l-33 -34z" />
<glyph unicode="&#x2000;" horiz-adv-x="1480" />
<glyph unicode="&#x2001;" horiz-adv-x="2963" />
<glyph unicode="&#x2002;" horiz-adv-x="1480" />
<glyph unicode="&#x2003;" horiz-adv-x="2963" />
<glyph unicode="&#x2004;" horiz-adv-x="987" />
<glyph unicode="&#x2005;" horiz-adv-x="739" />
<glyph unicode="&#x2006;" horiz-adv-x="491" />
<glyph unicode="&#x2007;" horiz-adv-x="491" />
<glyph unicode="&#x2008;" horiz-adv-x="368" />
<glyph unicode="&#x2009;" horiz-adv-x="591" />
<glyph unicode="&#x200a;" horiz-adv-x="163" />
<glyph unicode="&#x2010;" horiz-adv-x="817" d="M84 496l51 106h101l495 2l-49 -106h-102z" />
<glyph unicode="&#x2011;" horiz-adv-x="817" d="M84 496l51 106h101l495 2l-49 -106h-102z" />
<glyph unicode="&#x2012;" horiz-adv-x="817" d="M84 496l51 106h101l495 2l-49 -106h-102z" />
<glyph unicode="&#x2013;" horiz-adv-x="958" d="M-29 496l52 106h475l485 2l-51 -106h-475z" />
<glyph unicode="&#x2014;" horiz-adv-x="1916" d="M-25 496l52 106h1429l488 2l-52 -106h-1429z" />
<glyph unicode="&#x2018;" horiz-adv-x="567" d="M152 885q0 57 18 125q12 47 57 147q70 164 131 229l58 -30q-51 -139 -74 -223q-25 -89 -25 -234l-79 -4z" />
<glyph unicode="&#x2019;" horiz-adv-x="567" d="M152 918q59 162 75 223q25 89 25 233l88 2l76 10q0 -66 -17 -120q-18 -61 -57 -152q-61 -147 -133 -231z" />
<glyph unicode="&#x201a;" horiz-adv-x="567" d="M152 -299q57 156 75 225q25 90 25 232l88 6l76 8q0 -59 -19 -121q-20 -66 -55 -151q-27 -63 -65.5 -131t-67.5 -99z" />
<glyph unicode="&#x201c;" horiz-adv-x="817" d="M84 885q0 59 18 121q20 66 56 151q68 152 133 229l57 -30q-49 -135 -74 -228q-16 -80 -18 -102q-6 -59 -6 -127l-80 -4zM471 885q0 55 18 123q18 66 56 149q72 158 131 229l57 -30q-4 -10 -10 -28.5l-15.5 -47.5t-17.5 -51q-29 -84 -33 -105q-10 -47 -16 -98 q-6 -59 -6 -127l-80 -4z" />
<glyph unicode="&#x201d;" horiz-adv-x="817" d="M84 918q31 84 45 126.5t31 100.5q12 41 18 100q6 55 6 129l88 2l76 10q0 -58 -18 -122q-18 -61 -56 -150q-70 -160 -133 -231zM471 918l43 129q20 55 31 100q14 63 18 98q6 55 6 129l88 2l76 10q0 -58 -18 -122q-18 -61 -56 -150q-66 -156 -131 -231z" />
<glyph unicode="&#x201e;" horiz-adv-x="817" d="M84 -299q23 57 45 129q23 68 31 100q12 43 18 98.5t6 129.5l88 6l76 8q0 -55 -18 -123q-18 -66 -56 -149q-68 -160 -133 -230zM471 -299l23.5 70.5t19.5 60.5q23 63 31 100q14 66 18 97q6 55 6 129l88 6l76 8q0 -55 -18 -123q-18 -66 -56 -149q-68 -160 -131 -230z" />
<glyph unicode="&#x2022;" horiz-adv-x="669" d="M102 673.5q0 100.5 72 168t164 67.5q98 0 170 -71q70 -70 70 -164q0 -98 -70 -170q-72 -70 -170 -70q-96 0 -166 69.5t-70 170z" />
<glyph unicode="&#x2026;" horiz-adv-x="724" d="M35 449q-4 20 18 57l35 26l25 9h22h21l18 -49l8 -29l11 -25l34 -45l52 78l34 57l21 35l12 12l2 7q6 16 31 45l35 59l67 111l6 16q0 2 1 5t4 5l2 3q2 3 4 5l14 23q18 37 76 68q59 25 96 24l4 -18l-39 -56l-22 -24l-82 -121l-31 -55l-51 -74l-84 -143l-80 -148l-33 -53 l-26 -37q-3 -3 -50 -12q-35 0 -57 12h-12l-6 2l-39 100l-23 72z" />
<glyph unicode="&#x202f;" horiz-adv-x="591" />
<glyph unicode="&#x2039;" horiz-adv-x="0" />
<glyph unicode="&#x203a;" horiz-adv-x="0" />
<glyph unicode="&#x205f;" horiz-adv-x="739" />
<glyph unicode="&#x2122;" horiz-adv-x="1067" d="M41 1260v94h371v-94h-31q0 25 -16.5 47t-42.5 22h-64v-340q0 -29 6 -35t47 -12v-20h-172v20q39 0 47.5 8t8.5 39v340h-66q-23 0 -41 -20q-16 -18 -16 -49h-31zM469 922v20q34 0 43 12q8 10 8 35v297q0 29 -8 37q-10 10 -43 10v21h102l174 -348l175 348h98v-21 q-37 0 -47 -8q-6 -10 -6 -39v-297q0 -27 6 -35q4 -6 47 -12v-20h-168v20q35 0 45 12q8 10 8 35v266l-168 -333h-16l-166 333v-266q0 -29 6 -35t49 -12v-20h-139z" />
<glyph unicode="&#xe000;" horiz-adv-x="1060" d="M0 1060h1060v-1060h-1060v1060z" />
<glyph unicode="&#xfb01;" horiz-adv-x="1204" d="M700 981v53q14 2 42 5t42 5q45 6 48 9l131 32h39l-5 -280v-408l9 -329l116 -23v-51l-200 6l-205 -6v51l123 23l4 327v219l-10 347zM813 1399q0 43 28.5 71.5t80.5 34.5q43 0 73 -32q33 -33 33 -74q0 -45 -29 -74q-27 -27 -77 -33q-43 0 -78 31q-31 33 -31 76zM80 -6v51 l123 23l4 327v580l-123 -10v59l123 33v61q0 170 139 291q137 119 281 119q76 0 137 -21l49 -18l-84 -211l-45 10l8 105l-61 26q-37 12 -96 13q-70 0 -125 -60q-49 -57 -50 -170v-145l218 2l-41 -94l-177 8v-576l11 -329l153 -23v-51l-239 6z" />
<glyph unicode="&#xfb02;" horiz-adv-x="1204" d="M705 1421v54l129 18q41 8 131 35h39l-5 -281v-850l7 -329l116 -23v-51l-198 6l-205 -6v51l123 23l4 327v662l-10 344zM80 -6v51l123 23l4 327v580l-123 -10v59l123 33v61q0 170 139 291q137 119 281 119q76 0 137 -21l49 -18l-84 -211l-45 10l8 105l-61 26q-37 12 -96 13 q-70 0 -125 -60q-49 -57 -50 -170v-145l218 2l-41 -94l-177 8v-576l11 -329l153 -23v-51l-239 6z" />
<glyph unicode="&#xfb03;" horiz-adv-x="1843" d="M1339 981v53q14 2 42 5t42 5q45 6 48 9l131 32h39l-5 -280v-408l9 -329l116 -23v-51l-200 6l-205 -6v51l123 23l4 327v219l-10 347zM1452 1399q0 43 28.5 71.5t80.5 34.5q43 0 73 -32q33 -33 33 -74q0 -45 -29 -74q-27 -27 -77 -33q-43 0 -78 31q-31 33 -31 76zM717 -6 v51l123 23l4 327v580l-123 -10v59l123 33v61q0 170 139 291q137 119 281 119q76 0 137 -21l49 -18l-84 -211l-45 10l8 105l-61 26q-37 12 -96 13q-70 0 -125 -60q-49 -57 -50 -170v-145l218 2l-41 -94l-177 8v-576l11 -329l153 -23v-51l-239 6zM80 -6v51l123 23l4 327v580 l-123 -10v59l123 33v61q0 170 139 291q137 119 281 119q76 0 137 -21l49 -18l-84 -211l-45 10l8 105l-61 26q-37 12 -96 13q-70 0 -125 -60q-49 -57 -50 -170v-145l218 2l-41 -94l-177 8v-576l11 -329l153 -23v-51l-239 6z" />
<glyph unicode="&#xfb04;" horiz-adv-x="1843" d="M1344 1421v54l129 18q41 8 131 35h39l-5 -281v-850l7 -329l116 -23v-51l-198 6l-205 -6v51l123 23l4 327v662l-10 344zM717 -6v51l123 23l4 327v580l-123 -10v59l123 33v61q0 170 139 291q137 119 281 119q76 0 137 -21l49 -18l-84 -211l-45 10l8 105l-61 26 q-37 12 -96 13q-70 0 -125 -60q-49 -57 -50 -170v-145l218 2l-41 -94l-177 8v-576l11 -329l153 -23v-51l-239 6zM80 -6v51l123 23l4 327v580l-123 -10v59l123 33v61q0 170 139 291q137 119 281 119q76 0 137 -21l49 -18l-84 -211l-45 10l8 105l-61 26q-37 12 -96 13 q-70 0 -125 -60q-49 -57 -50 -170v-145l218 2l-41 -94l-177 8v-576l11 -329l153 -23v-51l-239 6z" />
</font>
</defs>
</svg>
