<?xml version="1.0" standalone="no"?>
<!DOCTYPE svg PUBLIC "-//W3C//DTD SVG 1.1//EN" "http://www.w3.org/Graphics/SVG/1.1/DTD/svg11.dtd" >
<svg xmlns="http://www.w3.org/2000/svg">
<metadata>
This is a custom SVG webfont generated by Font Squirrel.
Copyright   : Copyright c Fredrick Nader 2003 All rights reserved
Foundry     : Fredrick Nader
</metadata>
<defs>
<font id="webfontPTizIL2C" horiz-adv-x="1044" >
<font-face units-per-em="2048" ascent="1638" descent="-410" />
<missing-glyph horiz-adv-x="512" />
<glyph unicode=" "  horiz-adv-x="512" />
<glyph unicode="&#x09;" horiz-adv-x="512" />
<glyph unicode="&#xa0;" horiz-adv-x="512" />
<glyph unicode="!" horiz-adv-x="577" d="M139 102q10 66 45 94.5t105 28.5q68 0 92.5 -28.5t13.5 -94.5q-10 -68 -43 -95t-100 -27q-72 0 -97.5 28t-15.5 94zM246 395q6 74 14 144l13 126q7 67 18 115l100 637h176l-100 -635l-23 -119q-12 -67 -24 -126l-29 -142h-145z" />
<glyph unicode="&#x22;" horiz-adv-x="806" d="M180 920l78 497h148l-78 -497h-148zM514 920l78 497h147l-77 -497h-148z" />
<glyph unicode="#" horiz-adv-x="1196" d="M37 449l16 110h205l92 311h-188l16 111h203l131 436h158l-131 -436h254l131 436h157l-131 -436h193l-17 -111h-208l-93 -311h193l-17 -110h-206l-133 -449h-158l133 449h-254l-133 -449h-158l133 449h-188zM414 559h254l94 311h-256z" />
<glyph unicode="$" horiz-adv-x="1136" d="M35 88l51 320h53l47 -236q20 -14 50 -25.5t73 -19.5l170 530q-59 29 -116.5 64t-99.5 82t-61.5 113.5t-4.5 160.5q14 90 61 158t114.5 114t148.5 68.5t165 22.5h39l45 143l88 -2l-47 -147q100 -12 154.5 -40t89.5 -53l-51 -325h-54l-53 231q-23 12 -52.5 25.5t-78.5 21.5 l-152 -485l126 -64.5t111 -82t71.5 -116t9.5 -165.5q-16 -94 -62.5 -169t-115 -127t-155.5 -80t-181 -28q-16 0 -32.5 1.5t-33.5 1.5l-49 -162l-90 2l53 170q-96 16 -149 45.5t-82 52.5zM379 1083q-6 -45 3 -79.5t31.5 -62.5t54.5 -50.5t71 -42.5l143 452h-2 q-53 0 -104.5 -13t-92.5 -40.5t-68.5 -68t-35.5 -95.5zM397 121h29q47 0 98 13t97.5 41t79 73t42.5 108q8 51 -4 90t-38.5 70t-64.5 55.5t-81 46.5z" />
<glyph unicode="%" horiz-adv-x="1699" d="M104 841q-2 79 11 154q10 72 38.5 149t77 141.5t117 106.5t160.5 42q96 0 152.5 -40t84 -103.5t30.5 -141.5t-9 -154q-12 -72 -41 -149.5t-77 -142t-116.5 -106.5t-158.5 -42q-96 0 -153.5 40t-85.5 103.5t-30 142.5zM227 -20l1143 1493l92 -39l-1147 -1491zM240 888.5 q-2 -59.5 10 -113.5t44 -91t93 -37t104.5 37t72 91t44 113.5t23.5 106.5q6 45 9 104.5t-9.5 112t-45 88t-93.5 35.5t-104.5 -35.5t-71 -88t-44 -112t-22.5 -104.5q-8 -47 -10 -106.5zM915.5 269q-2.5 79 10.5 155q10 72 37.5 148.5t75.5 141t117 106.5t161 42 q96 0 152.5 -40t84 -103.5t31.5 -141t-8 -153.5q-12 -72 -41 -149.5t-78 -142t-117.5 -106.5t-158.5 -42q-96 0 -153.5 39.5t-84 103t-29 142.5zM1050 317.5q-3 -59.5 9 -113.5t44 -91t93 -37t105.5 37t73 91t44 113.5t23.5 106.5q6 45 9 104.5t-9 111.5t-45 88t-94 36 t-104.5 -36t-71 -88t-44 -111.5t-22.5 -104.5q-8 -47 -11 -106.5z" />
<glyph unicode="&#x26;" horiz-adv-x="1589" d="M131 408q12 86 49 153.5t91.5 121.5t121 99t139.5 88q-23 27 -44 59t-38.5 67.5t-25.5 72.5t-2 78q12 76 46 131t84 91t112.5 53.5t132.5 17.5q63 0 117.5 -14.5t92 -45t55 -80t7.5 -118.5q-10 -59 -41 -106.5t-75 -84.5t-94 -68l-99 -61l319 -424q35 68 53.5 133.5 t30.5 133.5h-2l-170 73l8 53h517l-9 -53l-192 -73q-8 -47 -21.5 -98.5t-32 -102.5t-43 -98.5t-55.5 -86.5l148 -190l153 -76l-8 -53h-268l-137 176q-104 -102 -231.5 -150.5t-262.5 -48.5q-104 0 -190 25t-144.5 77t-84 134t-7.5 195zM315 403q-12 -74 7.5 -128t61.5 -91 t100.5 -55t125.5 -18q104 0 195.5 46t169.5 117l-373 496l-107 -76q-48 -35 -84 -75.5t-60 -92t-36 -123.5zM596 1155q-4 -29 4 -56.5t22.5 -52t31.5 -47.5l34 -43l68 37q37 20 69.5 47t57 57.5t30.5 69.5q10 72 -30.5 112t-112.5 40q-70 0 -117 -47t-57 -117z" />
<glyph unicode="'" horiz-adv-x="387" d="M180 920l78 497h148l-78 -497h-148z" />
<glyph unicode="(" horiz-adv-x="665" d="M139.5 363.5q-10.5 115.5 7.5 238.5q23 139 69 262t112.5 233.5t154.5 213t193 202.5l106 -69q-92 -80 -171 -179.5t-139 -210t-101 -227t-60 -229.5q-16 -109 -8 -214t37 -203.5t75 -190.5t101 -172l-129 -72q-66 90 -118 189.5t-85.5 206t-44 222z" />
<glyph unicode=")" horiz-adv-x="538" d="M-78 -184q92 80 170 179t138.5 209.5t101.5 227.5t59 230q16 109 8 214t-36.5 203.5t-73.5 190.5t-101 172l127 71q66 -90 118 -189t86 -205.5t44 -222.5t-8 -239q-23 -139 -68 -262t-112.5 -233.5t-154.5 -213t-193 -202.5z" />
<glyph unicode="*" horiz-adv-x="686" d="M109 1038l16 109l270 -10l-121 235l119 58l92 -250l177 250l100 -52l-207 -241l276 14l-16 -109l-270 11l121 -236l-117 -57l-92 250l-176 -250l-103 51l207 242z" />
<glyph unicode="+" d="M72 465l22 149h404l67 426h166l-67 -426h403l-23 -149h-403l-70 -445h-165l69 445h-403z" />
<glyph unicode="," horiz-adv-x="460" d="M0 -164q80 33 115 72t49 112h-27q-129 0 -112 109q10 53 49 85t98 32q162 0 133 -172q-12 -78 -44 -134.5t-91 -97.5q-61 -47 -154 -73z" />
<glyph unicode="-" horiz-adv-x="438" d="M-2 444v150h582v-150h-582z" />
<glyph unicode="." horiz-adv-x="479" d="M88 102q10 66 45 94.5t105 28.5q68 0 92 -28.5t14 -94.5q-10 -68 -43 -95t-100 -27q-72 0 -97.5 28t-15.5 94z" />
<glyph unicode="/" horiz-adv-x="509" d="M-68 -12l633 1482l146 -40l-633 -1483z" />
<glyph unicode="0" horiz-adv-x="1173" d="M50 459q-5 131 13 254q18 117 65.5 244.5t125.5 235t186.5 177.5t249.5 70q98 0 171 -31t121 -84t76.5 -125t40 -152.5t8.5 -166.5t-15 -168q-18 -117 -65.5 -246t-124.5 -238.5t-184.5 -180.5t-248.5 -71q-150 0 -239 69t-132 175.5t-48 237.5zM227 459.5 q4 -66.5 18.5 -130t44 -113.5t79 -80t120.5 -30q72 0 129.5 30t102.5 79t76.5 112.5t54 131t38 133t23.5 121.5q12 82 17.5 185t-16 195.5t-78 155t-164.5 62.5q-72 0 -130.5 -30t-103.5 -78t-77.5 -110.5t-56 -129t-39 -132t-23.5 -118.5t-13.5 -120t-1.5 -133.5z" />
<glyph unicode="1" horiz-adv-x="1007" d="M80 1057l567 385l133 -2l-205 -1313l156 -74l-8 -53h-520l8 53l188 74l154 983q4 23 10 50.5t10 51.5l13 56q-18 -18 -41 -39l-40 -36q-22 -19 -42 -34l-303 -211z" />
<glyph unicode="2" horiz-adv-x="1165" d="M-2 123l111 80l129 97l139 109q72 56 139 115q143 125 246.5 249t124.5 261q20 129 -46.5 196.5t-201.5 67.5q-59 0 -114.5 -11t-108.5 -32q-12 -10 -17.5 -8t-13.5 -8l-135 -254h-53l51 326q94 59 206.5 94t221.5 35q98 0 179 -21.5t135 -70t77 -125t6 -185.5 q-12 -76 -48 -148.5t-86 -140t-111.5 -130t-125.5 -119.5l-131 -113l-127 -103l-115 -87q-54 -39 -96 -62q14 2 35 4q16 2 39 2q25 0 53 2h453l105 181h53l-49 -324h-897z" />
<glyph unicode="3" horiz-adv-x="1097" d="M-10 51l26 338h54l84 -250q53 -16 97 -21t103 -5q57 0 117.5 19.5t112 56t88.5 88t47 114.5q14 96 -18.5 148.5t-95 77t-143.5 29.5t-161 5h-14l20 133h23q63 0 140 10.5t144.5 41t117.5 86t65 145.5q10 66 -7.5 111t-53.5 73.5t-87 41t-110 12.5q-98 0 -191 -29 l-153 -281h-58l56 355q94 47 198.5 68.5t190.5 21.5q88 0 167.5 -16.5t137 -56.5t85 -110.5t11.5 -177.5q-10 -70 -43 -126t-79 -98t-101 -71.5t-113 -48.5q80 -12 134.5 -45t86 -78t42 -99t1.5 -105q-16 -102 -70.5 -182.5t-133 -135.5t-173 -84t-190.5 -29q-78 0 -134 7.5 t-118 25.5q-25 4 -51 15.5t-51 25.5z" />
<glyph unicode="4" horiz-adv-x="1155" d="M-47 379l20 127l820 930h165l-143 -916h256l-22 -141h-258l-39 -252l157 -74l-8 -53h-516l8 53l191 76l39 250h-670zM164 514q16 0 35 2q16 2 36.5 3t43.5 1h366l94 584q10 49 23 95l16 63q-8 -14 -34.5 -55.5t-61.5 -82.5l-424 -514l-33 -36l-30 -31q-17 -17 -31 -29z " />
<glyph unicode="5" horiz-adv-x="1161" d="M-18 39l30 346h54l84 -248q41 -10 81.5 -13t81.5 -3q86 0 167 25.5t146.5 75.5t110.5 122t60 164q10 68 -5.5 124t-51 95t-90 60.5t-122.5 21.5q-98 0 -185 -37t-138 -102h-148l277 747h753l-22 -145l-610 -2l-105 -287q-12 -33 -24.5 -56.5t-18.5 -33.5q59 29 136 44 t149 15q100 0 181 -29.5t133 -86t75 -136t6 -178.5q-18 -125 -83.5 -226t-161 -172t-211 -109t-234.5 -38q-70 0 -149.5 13.5t-143.5 38.5h-2q-12 4 -20 10z" />
<glyph unicode="6" horiz-adv-x="1198" d="M50.5 330.5q-15.5 105.5 2.5 224.5q33 209 125 373t231.5 277.5t318.5 174t384 60.5h49l-20 -133h-58q-150 0 -283.5 -40t-244.5 -121t-190.5 -206t-118.5 -295q27 37 70.5 75t101 70.5t123 53t135.5 20.5q82 0 152.5 -23.5t118.5 -72.5t69.5 -125t5.5 -180 q-16 -106 -67.5 -195.5t-125 -154t-167 -100.5t-193.5 -36q-125 0 -213 46.5t-139 124t-66.5 183zM221 444q0 -66 16.5 -125t50.5 -104t87 -71.5t127 -26.5q63 0 121.5 25.5t103.5 69.5t74.5 101.5t40.5 120.5q20 131 -32 211t-183 80t-235.5 -81t-170.5 -200z" />
<glyph unicode="7" horiz-adv-x="1253" d="M102 0l768 1137l43 57l37 47l35 41q-10 -2 -59 -7t-103 -5h-481l-102 -180h-43l51 325h2v2l1007 -2l-974 -1415h-181z" />
<glyph unicode="8" horiz-adv-x="1161" d="M23 346q23 143 125 233.5t251 137.5q-143 53 -202.5 144t-40.5 208q14 92 67 161.5t128 116t162 70t169 23.5q76 0 156 -14.5t141 -53.5t94 -105.5t17 -170.5q-10 -70 -44 -129.5t-83.5 -106.5t-109.5 -81t-128 -54q141 -47 212 -139t50 -221q-16 -104 -69.5 -178 t-128 -120.5t-166 -68t-183.5 -21.5q-82 0 -163.5 18.5t-143 61.5t-94 114t-16.5 175zM188 352q-10 -63 10.5 -110t59.5 -78t92 -45.5t111 -14.5q55 0 112.5 15.5t106.5 46.5t84 77t45 109q10 70 -8.5 116t-57 79t-91.5 57l-109 49q-66 -25 -125.5 -50t-106.5 -59t-80 -80 t-43 -112zM330 1073q-10 -59 12.5 -103t62 -78t89.5 -58l92 -46q57 20 112.5 44t101.5 58t77.5 79t42.5 108q8 61 -9.5 106.5t-53.5 75t-85 44t-102 14.5q-55 0 -111.5 -16.5t-104.5 -48t-82 -77t-42 -102.5z" />
<glyph unicode="9" horiz-adv-x="1179" d="M29 -23l20 134h57q319 0 530.5 171t289.5 500q-25 -35 -67 -73.5t-94 -71.5t-115.5 -54.5t-131.5 -21.5q-82 0 -155.5 23.5t-125 73t-76 124t-7.5 179.5q16 104 68 192t129 151.5t172 99.5t194 36q127 0 212 -46t133 -124t60.5 -183.5t-6.5 -224.5q-33 -209 -122 -372.5 t-224 -277.5t-311 -174.5t-381 -60.5h-49zM336 991q-20 -129 41 -210t190 -81q63 0 118.5 21.5t104 60.5t87 89.5t71.5 109.5q0 63 -13 121.5t-44 102.5t-80 69.5t-123 25.5q-63 0 -122.5 -24.5t-107.5 -66.5t-80 -98.5t-42 -119.5z" />
<glyph unicode=":" horiz-adv-x="520" d="M119 102q10 66 45 94.5t104 28.5q68 0 92.5 -28.5t14.5 -94.5q-10 -68 -43 -95t-101 -27q-72 0 -97 28t-15 94zM246 920q10 66 44 94t103 28q68 0 93.5 -28.5t15.5 -93.5q-10 -68 -44 -95.5t-102 -27.5q-72 0 -96 28.5t-14 94.5z" />
<glyph unicode=";" horiz-adv-x="489" d="M29 -164q80 33 114.5 72t49.5 112h-27q-129 0 -113 109q10 53 49 85t99 32q162 0 133 -172q-12 -78 -44 -134.5t-91 -97.5q-61 -47 -154 -73zM190 920q10 66 44 94t104 28q68 0 93.5 -28.5t14.5 -93.5q-10 -68 -43.5 -95.5t-101.5 -27.5q-72 0 -96.5 28.5t-14.5 94.5z " />
<glyph unicode="&#x37e;" horiz-adv-x="489" d="M29 -164q80 33 114.5 72t49.5 112h-27q-129 0 -113 109q10 53 49 85t99 32q162 0 133 -172q-12 -78 -44 -134.5t-91 -97.5q-61 -47 -154 -73zM190 920q10 66 44 94t104 28q68 0 93.5 -28.5t14.5 -93.5q-10 -68 -43.5 -95.5t-101.5 -27.5q-72 0 -96.5 28.5t-14.5 94.5z " />
<glyph unicode="&#x3c;" d="M47 442l21 127l962 473l45 -131l-702 -342q-23 -12 -48.5 -22t-48.5 -21q-25 -10 -51 -18l45 -16l40 -18q22 -9 42 -19l602 -334l-102 -141z" />
<glyph unicode="=" d="M76 248l24 149h967l-25 -149h-966zM141 645l23 150h964l-22 -150h-965z" />
<glyph unicode="&#x3e;" d="M96 119l703 342l48 21l48 22q25 10 49 18l-45 17l-41 17q-23 9 -41 19l-600 334l102 142l803 -463l-18 -127l-963 -473z" />
<glyph unicode="?" horiz-adv-x="841" d="M135 1016l55 346l90 31q42 14 81.5 24t80.5 16.5t88 6.5q84 0 160 -16.5t130 -57.5t79 -110.5t8 -174.5q-14 -88 -51 -149.5t-86 -106.5t-104.5 -80.5t-103.5 -72.5t-83 -81t-45 -108l-16 -116h-176l16 106q12 82 49 138.5t86 98.5t103.5 76.5t102.5 74.5t84 91.5 t48 126.5q8 57 -7 100.5t-49 72t-81 42t-98 13.5q-66 0 -134 -19q-16 -6 -30 -10l-139 -262h-58zM160 102q10 66 45 94.5t104 28.5q68 0 92.5 -28.5t14.5 -94.5q-10 -68 -43 -95t-101 -27q-72 0 -97 28t-15 94z" />
<glyph unicode="@" horiz-adv-x="2093" d="M94 518q31 197 134.5 365t260 292.5t357.5 195.5t424 71q166 0 311 -51.5t246.5 -150.5t148.5 -247.5t17 -345.5q-20 -133 -80 -256t-146 -217t-191.5 -150.5t-215.5 -56.5q-45 0 -76 17.5t-33 52.5v24q0 16 4 41q-72 -68 -161.5 -109.5t-182.5 -41.5q-115 0 -188.5 41 t-112.5 109.5t-48 158.5t7 189q14 100 58.5 201.5t115 183t169 132t225.5 50.5q94 0 147 -24.5t102 -73.5l175 75l-131 -852q0 -37 12 -47q63 16 126.5 66.5t117 124t91.5 165t52 187.5q27 172 -11 299t-123 212t-207 127t-263 42q-188 0 -351 -58.5t-290 -163t-211 -249 t-111 -316.5q-31 -193 -4 -346t109 -261.5t216 -167t320 -58.5q45 0 100.5 8t111.5 22.5t109.5 35t96.5 44.5l45 -104q-53 -27 -119.5 -50.5t-136.5 -42t-136.5 -28.5t-119.5 -10q-209 0 -367.5 65.5t-257 187.5t-134.5 297t-1 396zM742.5 315.5q5.5 -67.5 31 -121t73.5 -86 t122 -32.5q92 0 173 59.5t138 134.5l74 488q-33 68 -91.5 100.5t-132.5 32.5q-88 0 -154.5 -44t-113.5 -110.5t-75.5 -143.5t-38.5 -140q-11 -70 -5.5 -137.5z" />
<glyph unicode="A" horiz-adv-x="1458" d="M-137 0l10 53l168 78l747 1286h168l314 -1284l149 -80l-6 -53h-522l6 53l176 80l-76 338h-583v-4l-178 -334l151 -80l-6 -53h-518zM498 618h465l-97 410q-6 23 -12 56.5t-11 67.5l-8.5 59.5t-3.5 31.5q-2 -2 -11 -23.5t-24 -53.5l-33 -68q-17 -37 -36 -68z" />
<glyph unicode="B" horiz-adv-x="1239" d="M-29 0l6 53l195 76l180 1167l-170 76l8 53l539 2q31 0 77 -1t96 -10t98.5 -29.5t83 -60.5t51.5 -101q9 -33 8 -74q0 -36 -6 -78q-20 -127 -103.5 -208t-206.5 -113q35 -6 82 -23.5t87 -57.5t61 -107q11 -37 11 -85q0 -39 -7 -86q-16 -109 -71.5 -183.5t-133.5 -121.5 t-169 -67.5t-177 -20.5q-66 0 -200 -2q-45 -1 -97 -1q-105 0 -242 3zM342 127q48 -3 85 -3h17q43 1 78 1h8q132 0 228 69q98 71 121 216q5 32 4 59q0 43 -12 75q-19 52 -61 80.5t-101.5 39t-126.5 10.5h-154zM451 807h133q143 0 243.5 58.5t122.5 197.5q5 29 5 54 q0 37 -11 65q-18 45 -57 70.5t-95.5 33.5t-119.5 8h-146z" />
<glyph unicode="C" horiz-adv-x="1269" d="M72 688q25 160 100.5 297t187 238.5t253 159t298.5 57.5q59 0 104.5 -2t85.5 -10.5t80 -21.5t91 -36l-2 -4h4l-55 -354h-58l-57 262q-43 12 -100.5 17t-122.5 5q-125 0 -230.5 -48t-185.5 -129t-131 -189.5t-70 -229.5q-10 -62 -10 -118q0 -60 11 -114q22 -105 82.5 -182 t154.5 -120t221 -43q61 0 102 11t90 28l170 260h54l-80 -338q-8 -6 -21 -10q-94 -43 -177 -70t-181 -27q-147 0 -270 49.5t-206 141.5t-120 224q-22 79 -22 170q0 60 10 126z" />
<glyph unicode="D" horiz-adv-x="1505" d="M-29 2l9 53l194 76l182 1169l-172 76l11 54h598q168 0 301 -36t221 -115t124 -204q21 -72 20 -161q0 -66 -11 -142q-29 -182 -111 -324.5t-203.5 -243t-277.5 -152.5t-332 -52q-131 0 -276 -1h-58q-114 0 -219 3zM356 139q35 -2 90 -2h91q143 0 264 40t214 119 t155.5 195.5t86.5 270.5q10 66 11 123q0 70 -16 125q-28 100 -98.5 161.5t-180 89t-250.5 27.5q-27 0 -59.5 -1t-61.5 -1h-67z" />
<glyph unicode="E" horiz-adv-x="1165" d="M-29 0l6 53l195 76l180 1159l-170 76l6 53h949l-60 -383h-51l-63 234h-428l-74 -475h299l102 192h45l-82 -530h-45l-43 188h-301l-76 -491h449l166 233h51l-92 -385h-963z" />
<glyph unicode="F" horiz-adv-x="1093" d="M-29 0l6 53l193 76h-2l180 1159l-170 76l6 53h949l-60 -383h-51l-64 234h-428l-73 -475h299l102 192h45l-82 -530h-45l-43 188h-301l-80 -514l213 -76l-6 -53h-588z" />
<glyph unicode="G" horiz-adv-x="1378" d="M72 688q25 160 100.5 297t187 238.5t253 159t298.5 57.5q59 0 104.5 -2t85.5 -10.5t80 -21.5t91 -36l-2 -4h4l-55 -354h-78l-58 262q-43 12 -90 17t-112 5q-125 0 -230.5 -48t-185.5 -129t-131 -189.5t-70 -229.5q-10 -62 -10 -118q0 -60 11 -114q22 -105 82.5 -182 t154.5 -120t221 -43q18 0 34.5 1t37 7t50 17.5l77.5 31.5l55 371l-166 72l6 53h541l-6 -53l-197 -72l-72 -475q-96 -35 -197.5 -67t-205.5 -32q-147 0 -270 49.5t-206 141.5t-120 224q-22 79 -22 170q0 60 10 126z" />
<glyph unicode="H" horiz-adv-x="1568" d="M-29 0l6 53l195 76l180 1159l-170 74l6 53h543l-6 -53l-193 -74l-77 -495h663l78 495l-168 74l6 53h539l-6 -53l-193 -74l-180 -1159l168 -76l-6 -53h-539l6 53l191 74l82 514h-664l-80 -512l168 -76l-6 -53h-543z" />
<glyph unicode="I" horiz-adv-x="722" d="M-29 0l6 53l195 76l180 1159l-170 74l6 53h543l-6 -53l-193 -74l-180 -1159l168 -76l-6 -53h-543z" />
<glyph unicode="J" horiz-adv-x="669" d="M-432 -516l29 139h124h19q166 0 249 71q87 75 115 251l224 1343l-170 74l6 53h541l-7 -53l-190 -74l-225 -1360q-18 -113 -60.5 -193.5t-105 -134t-143 -82t-177.5 -34.5h-229z" />
<glyph unicode="K" horiz-adv-x="1404" d="M-29 0l6 53l195 76l180 1159l-170 74l6 53h543l-6 -53l-193 -74l-180 -1159l168 -76l-6 -53h-543zM477 721l633 573l-139 64l8 53h522l-8 -53l-162 -72l-620 -553l463 -606l153 -76l-8 -53h-293z" />
<glyph unicode="L" horiz-adv-x="1069" d="M-29 0l6 53l195 76l180 1159l-170 76l6 53h547l-6 -53l-192 -76l-179 -1138h433l174 264h53l-94 -414h-953z" />
<glyph unicode="M" horiz-adv-x="1982" d="M-29 0l6 53l195 76l180 1159l-170 74l6 53h424l256 -1024q16 -66 22.5 -125t10.5 -82q14 35 42 92.5t58 112.5l568 1026h411l-6 -53l-192 -74l-180 -1159l167 -76l-6 -53h-542l6 53l194 76l158 1020l-633 -1149h-168l-266 1145h-2l-158 -1016l168 -76l-6 -53h-543z" />
<glyph unicode="N" horiz-adv-x="1617" d="M-29 0l6 53l191 74l182 1161l-168 76l6 53l381 -2l457 -948q18 -41 35 -85l30 -82q13 -38 21 -64.5t8 -32.5q0 2 5 39l12 85q6 48 13 97l11 76l123 788l-166 76l6 53h521l-7 -53l-194 -76l-199 -1288h-209l-448 950q-20 41 -38 85t-30 81l-20 64q-8 27 -11 30l-3 -27 l-7 -65q-4 -37 -9 -77t-9 -64l-133 -848l168 -76l-7 -53h-518z" />
<glyph unicode="O" horiz-adv-x="1529" d="M74 707q25 160 102.5 294t189 232t245.5 152.5t274 54.5q147 0 262 -52.5t187.5 -148.5t100.5 -231q14 -69 14 -146q0 -74 -13 -155q-25 -160 -96.5 -293t-176 -230.5t-235.5 -152t-273 -54.5q-147 0 -266 52.5t-196.5 147.5t-110.5 231q-19 77 -19 163q0 66 11 136z M264 711q-9 -62 -9 -119q0 -60 10 -116q19 -108 73.5 -186.5t140.5 -123.5t199 -45q111 0 207 46t170.5 125t125 184.5t68.5 225.5q10 65 10 127q0 54 -8 105q-16 109 -65 188.5t-132 126.5t-200 47q-104 0 -201.5 -42t-176.5 -118.5t-135.5 -184t-76.5 -240.5z" />
<glyph unicode="P" horiz-adv-x="1185" d="M-29 0l6 53l195 76l178 1159l-168 74l6 53l607 2h71q45 0 95.5 -9t99.5 -30.5t85 -64.5t51 -113q7 -34 7 -75q0 -44 -8 -97q-20 -131 -78.5 -216t-140.5 -134t-176 -68.5t-185 -19.5h-194l-70 -461l168 -76l-6 -53h-543zM444 723h177q63 0 126.5 11t117 44t92 91.5 t53.5 154.5q6 38 6 69q0 45 -12 76q-20 53 -62.5 82t-96.5 37t-106 8q-59 0 -120.5 -1t-86.5 -3z" />
<glyph unicode="Q" horiz-adv-x="1523" d="M74 707q25 160 102.5 294t189 232t245.5 152.5t274 54.5q147 0 262 -52.5t187.5 -148.5t100.5 -231q14 -69 14 -146q0 -74 -13 -155q-31 -209 -137.5 -372t-266.5 -255q-23 -16 -50.5 -30.5t-57 -26t-58 -18.5t-51.5 -7q20 -10 39.5 -21.5t60.5 -32.5l113 -59l197 -100 q23 -12 57.5 -26.5t76.5 -29t85 -23.5t80 -9q66 0 114 22l88 41l29 -45l-71 -56q-40 -32 -85 -59.5t-92 -47t-92 -19.5q-25 0 -50.5 4t-55 13.5t-66.5 24.5t-84 40q-37 18 -85 46l-102 59l-111 67l-105 68l-99 62q-49 32 -127 71q-121 20 -215 80.5t-155.5 152.5t-84.5 215 q-12 63 -12 132q0 67 11 139zM266 711q-9 -62 -9 -119q0 -60 10 -116q19 -108 72.5 -185.5t139.5 -122.5t199 -45q111 0 207 45t170.5 124t125 184.5t68.5 225.5q10 65 10 126q0 54 -8 105q-16 108 -65 187.5t-132 125.5t-200 46q-104 0 -200.5 -41t-176.5 -116.5 t-135.5 -183t-75.5 -240.5z" />
<glyph unicode="R" horiz-adv-x="1232" d="M-29 0l6 53l195 76l178 1159l-168 74l6 53l607 2q27 0 70 1h11q39 0 82 -6q49 -7 97.5 -26.5t83.5 -60.5t50 -110q7 -33 7 -74q0 -44 -8 -97q-16 -96 -49 -159.5t-80 -106.5t-106.5 -68.5t-127.5 -41.5l187 -539l151 -76l-6 -53h-291l-241 645h-193l-80 -516l168 -76 l-6 -53h-543zM455 778h176q63 0 122.5 5t109.5 31t86 78t52 148q6 39 7 71q0 43 -12 73q-19 51 -59 75.5t-93 30.5t-105 6q-59 0 -120.5 -1t-86.5 -3z" />
<glyph unicode="S" horiz-adv-x="1132" d="M49 88l51 320h54l47 -236q33 -23 88 -37t151 -14q47 0 98.5 13t97.5 41t79 73t43 108q3 21 3 41q0 40 -15 71q-22 46 -62.5 81t-95.5 62l-113 57q-57 29 -110.5 62.5t-92.5 80.5t-57 112q-10 36 -10 80q0 35 6 74q14 90 61 158t115 114t149.5 68.5t165.5 22.5t143.5 -9.5 t101.5 -23.5t71 -31.5t51 -34.5l-49 -325h-53l-56 231q-29 18 -77 35.5t-140 17.5q-53 0 -104 -13t-92 -40.5t-69 -67.5t-36 -96q-3 -19 -3 -36q0 -58 32 -97q41 -51 108.5 -90t147.5 -74.5t146.5 -86t103.5 -126.5q25 -51 24 -119q0 -34 -6 -73q-14 -94 -60 -169t-116 -127 t-157 -80t-181 -28q-86 0 -149.5 11.5t-108.5 29t-75 36t-50 34.5z" />
<glyph unicode="T" horiz-adv-x="1093" d="M20 1012l62 405h1071l-61 -405h-56l-59 256h-287l-176 -1139l211 -76l-6 -53h-627l6 53l232 74l178 1141h-293l-137 -256h-58z" />
<glyph unicode="U" horiz-adv-x="1484" d="M88 1364l6 53h541l-6 -53l-195 -76l-123 -794q-10 -59 -10 -110q0 -105 44 -169q65 -94 255 -94q104 0 179 30.5t126 87t82 134.5t47 172q18 129 39 258l37 239l39 246l-164 76l6 53h525l-7 -53l-194 -76l-38 -241l-36 -236l-39 -250q-23 -139 -69 -246.5t-122.5 -183.5 t-184 -115t-251.5 -39q-276 0 -381 137q-74 95 -74 255q0 68 13 149q18 131 41 266l40 251l40 253z" />
<glyph unicode="V" horiz-adv-x="1449" d="M10 1362l6 53h521l-7 -53l-174 -76v-6l217 -889q16 -66 22.5 -125t10.5 -82q14 35 42 92.5t59 112.5l493 897l-149 76l6 53h508l-6 -53l-170 -74l-738 -1288h-168l-325 1288z" />
<glyph unicode="W" horiz-adv-x="2131" d="M10 1366l8 53h519l-9 -53l-176 -76l123 -825q6 -51 10 -100.5t6.5 -89t3.5 -65.5t1 -30q2 2 12 30t28 69l38 91l44 97l443 950h196l150 -958q6 -43 11 -89t8.5 -87t6.5 -69t3 -34q0 2 9 29t24.5 66.5l36 88t42.5 95.5l383 831l-151 76l8 53h508l-8 -53l-179 -76 l-614 -1290h-197l-149 961l-12 94q-6 47 -10 86l-5 65q-2 27 -2 35q-2 -6 -12 -33l-26 -65l-34 -87q-19 -48 -42 -93l-224 -482l-83 -177l-71 -154l-50 -109l-19 -41h-194l-201 1290z" />
<glyph unicode="X" horiz-adv-x="1501" d="M-88 0l8 53l162 72l528 602l-315 561l-143 74l6 53h522l-6 -53l-158 -76l152 -280l32 -66l25 -49l20 -43q16 25 39 51l44 52l55 65l235 270l-133 76l6 53h514l-6 -53l-176 -76l-496 -549l359 -610l147 -74l-6 -53h-543l7 53l178 76l-187 322q-23 39 -37 70l-24 54l-19 46 q-12 -18 -32 -41l-43 -53l-66 -74l-272 -324l147 -76l-6 -53h-518z" />
<glyph unicode="Y" horiz-adv-x="1345" d="M10 1362l6 53h529l-6 -53l-162 -76l176 -321q39 -72 61.5 -120t24.5 -54q0 2 14 19l36 43l49 58l57 66l266 301l6 8l-137 76l6 53h512l-6 -53l-170 -76l-570 -624l-81 -533l217 -76l-7 -53h-638l6 53l241 76l80 518l-362 639z" />
<glyph unicode="Z" horiz-adv-x="1327" d="M-39 0l903 1108l55 64q26 30 48 53l47 49l-78 -4q-35 -2 -74 -2h-76h-362l-135 -256h-58l62 405h1038l-899 -1098q-23 -29 -51 -58l-51 -54l-56 -57h95q39 0 76.5 1t60.5 1h385l174 256h55l-98 -408h-1061z" />
<glyph unicode="[" horiz-adv-x="548" d="M68 -225l12 1716h430v-123h-266l-13 -1470h269v-123h-432z" />
<glyph unicode="\" d="M57 1430l146 40l633 -1482l-146 -41z" />
<glyph unicode="]" horiz-adv-x="548" d="M-68 -102h267l12 1470h-268v123h432l-15 -1716h-428v123z" />
<glyph unicode="^" d="M74 616l428 801h127l422 -792l-158 -58l-275 547q-10 20 -20 44l-18 44q-8 23 -19 47l-20 -47l-22 -44l-21 -46l-287 -545z" />
<glyph unicode="_" d="M-104 -154h1024v-102h-1024v102z" />
<glyph unicode="`" d="M297 1479l164 80l211 -334l-101 -43z" />
<glyph unicode="a" horiz-adv-x="1224" d="M73 287q-3 32 -4 66q0 60 11 122q14 100 58 201.5t115 183.5t169 132t225 50q94 0 147.5 -24.5t102.5 -73.5l174 76l-131 -852q2 -25 6 -38t25 -13q12 0 30.5 16.5t40 41t42.5 52.5l40 52q10 -8 18.5 -15.5t18.5 -15.5q-23 -53 -55.5 -103.5t-73.5 -91.5q-39 -41 -80 -50 t-82 -9q-45 0 -75.5 17.5t-32.5 51.5v25q0 16 4 41q-72 -68 -162 -110t-182 -42q-115 0 -188.5 41t-112.5 110t-48 159zM253 342q5 -68 30.5 -121t74 -86t121.5 -33q92 0 173 59.5t139 135.5l73 487q-33 68 -91 101t-132 33q-88 0 -154.5 -44.5t-113.5 -111t-76 -143 t-39 -140.5q-7 -46 -7 -92q0 -22 2 -45z" />
<glyph unicode="b" horiz-adv-x="1093" d="M33 1407l10 45l369 80l-99 -639q72 70 147 109.5t167 39.5q115 0 192.5 -40.5t121.5 -108.5t56 -158q6 -42 6 -85q0 -51 -8 -103q-16 -104 -59 -205.5t-112.5 -182.5t-165 -131.5t-216.5 -50.5q-96 0 -156.5 24t-107.5 73q-39 41 -71.5 81t-61.5 87l172 1108zM211 238 q33 -68 99.5 -102t140.5 -34q88 0 152.5 45.5t108.5 111t69.5 142t35.5 142.5q5 37 6 72q0 32 -5 64q-9 67 -39.5 119t-83 83.5t-126.5 31.5q-92 0 -160.5 -55t-121.5 -131z" />
<glyph unicode="c" horiz-adv-x="966" d="M73 327q-3 34 -3 65q0 55 8 106q16 104 65.5 201.5t124 174t169.5 122.5t204 46q80 0 156.5 -16t160.5 -90l-40 -248h-54l-49 178q-41 29 -88 40.5t-96 11.5q-80 0 -144.5 -37t-111.5 -96.5t-77 -134.5t-42 -152q-5 -38 -5 -75q0 -33 4 -67q9 -70 41 -125t87 -90t135 -35 q72 0 131.5 29t118.5 82l82 -86q-72 -63 -163 -108.5t-216 -45.5q-139 0 -223 51.5t-126 129.5t-49 169z" />
<glyph unicode="d" horiz-adv-x="1216" d="M74 285q-4 35 -4 70q0 57 10 118q16 104 57 205.5t107.5 182.5t160 131t213.5 50q96 0 162 -22.5t113 -73.5l63 404l-184 57l10 45l363 84l4 2l-213 -1368q2 -25 5 -38t24 -13q12 0 30.5 16.5t41 41t43.5 52.5l40 52q10 -8 18.5 -15.5t18.5 -15.5q-23 -53 -55.5 -103.5 t-73.5 -91.5t-81 -50t-81 -9q-45 0 -75.5 17.5t-32.5 52.5v14q0 12 6 49q-70 -68 -151 -110t-181 -42q-115 0 -190.5 41t-116.5 109t-51 158zM254 341q6 -67 33.5 -120t78 -86t123.5 -33q45 0 87 16.5t81 43t73 62.5t63 73q0 6 2 18.5t9 59.5l21 143l41 268 q-33 68 -106.5 100t-147.5 32q-88 0 -150.5 -45.5t-104.5 -111t-65.5 -143t-33.5 -141.5q-6 -44 -6 -86q0 -25 2 -50z" />
<glyph unicode="e" horiz-adv-x="1017" d="M68 301q-4 34 -4 71q0 65 12 136q14 100 58 194.5t112.5 168t158 120.5t197.5 51q18 1 34 1q113 0 184 -36q81 -42 113 -111q22 -48 22 -104q0 -23 -4 -49q-13 -84 -64 -159q-35 -51 -105.5 -88t-160 -60.5t-188.5 -29.5q-37 -2 -74 -3q-61 0 -119 7q-1 -17 -1 -35 q0 -34 3 -69q4 -52 25.5 -95t66.5 -69.5t125 -26.5q86 0 168 31.5t151 91.5l78 -88q-94 -80 -191.5 -126.5t-213.5 -46.5q-125 0 -206 42t-124 114t-53 168zM254 553q66 0 144.5 4t150.5 17.5t127 37t76 62.5q17 45 17 85q0 46 -21 80q-20 32 -62.5 50t-107.5 18 q-66 0 -119 -33.5t-93 -86t-68 -115t-44 -119.5z" />
<glyph unicode="f" horiz-adv-x="669" d="M-248 -535l23 125l63 -2q23 -4 48.5 2.5t60.5 16.5q43 16 71.5 48t49 73t33 89t20.5 101l147 963h-202l20 77l205 62l18 108q14 94 47 174t88.5 137.5t136.5 89.5t191 32h135l-49 -304h-53l-47 181q-23 4 -47.5 -2t-59.5 -17q-43 -16 -73.5 -48t-50 -73t-32 -90 t-20.5 -100l-14 -88h223l-20 -139h-226l-151 -983q-14 -96 -47 -175t-88.5 -136.5t-135 -89.5t-190.5 -32h-74z" />
<glyph unicode="g" horiz-adv-x="964" d="M-34 287q-3 32 -3 66q0 60 10 122q14 100 58.5 201.5t115 183.5t169 132t225.5 50q94 0 147 -24.5t103 -73.5l174 76l-172 -1104q-16 -96 -48 -175t-87.5 -136.5t-135.5 -89t-190 -31.5h-275l17 123h270q23 -4 47.5 2t59.5 16q43 16 72.5 48t49 73t31.5 89t21 102l28 186 q-72 -66 -161 -106t-177 -40q-115 0 -188.5 41t-112.5 110t-48 159zM146 342q5 -68 31 -121t74 -86t122 -33q45 0 88 15.5t83 42t73.5 60.5t62.5 71l76 495q-33 66 -91.5 99t-129.5 33q-88 0 -155 -44.5t-114 -111t-75.5 -143t-38.5 -140.5q-7 -46 -7 -92q-1 -22 1 -45z" />
<glyph unicode="h" horiz-adv-x="1167" d="M33 -2l211 1360l-183 55l11 47l372 84l-106 -678q72 72 162 124t182 52q156 0 232 -70q57 -52 57 -152q0 -34 -6 -75l-88 -575q2 -25 5 -38t23 -13q12 0 30.5 16.5t41 41t44.5 52.5l40 52q10 -8 18 -15.5t19 -15.5q-23 -53 -55.5 -103.5t-73.5 -91.5t-81 -50t-81 -9 q-45 0 -80 17.5t-37 52.5l4 32q2 16 5 44t11 71l18 113l28 170l39 243q2 16 2 30q0 30 -10 50q-13 31 -38.5 48.5t-56 23.5t-57.5 6q-49 0 -92 -17.5t-82 -45t-76 -62.5t-70 -70l-110 -704h-172z" />
<glyph unicode="i" horiz-adv-x="616" d="M43 807q41 111 129 192q39 41 79 51.5t81 10.5q45 0 79.5 -17.5t39.5 -52.5v-26q0 -12 -3.5 -41t-10.5 -80t-21 -139l-37 -219l-53 -316q2 -25 5 -38t23 -13q12 0 30.5 16.5t41.5 41t44 52.5l40 52q10 -8 18 -16l19 -15q-23 -53 -55.5 -103.5t-73.5 -91.5t-81 -50t-81 -9 q-45 0 -80 17.5t-37 52.5q0 14 2 31.5t7 47.5l14 83l21 138l33 212l48 307q-2 27 -5 40t-23 13q-12 0 -31 -17.5t-41.5 -42t-43.5 -52.5l-40 -50l-19 16zM268 1366q-6 113 123 113t131 -109q0 -5 1 -10q0 -104 -122 -105q-131 0 -133 111z" />
<glyph unicode="j" horiz-adv-x="751" d="M-221 -541l18 125h129q74 0 122 27t80 72t49.5 104t29.5 125l149 973q-2 27 -5 40t-23 13q-12 0 -30.5 -17.5t-41.5 -42t-44 -52.5l-40 -50l-18 16l-19 15q41 111 129 192q39 41 79 51.5t81 10.5q45 0 80 -17.5t39 -52.5l-164 -1075q-16 -96 -49 -180t-88.5 -145.5 t-137 -96.5t-194.5 -35h-131zM362 1366q-6 113 123 113t131 -109q0 -5 1 -10q0 -104 -121 -105q-132 0 -134 111z" />
<glyph unicode="k" horiz-adv-x="1079" d="M33 0l209 1354l-185 55l6 47l379 84l-237 -1540h-172zM297 532l444 386l-133 57l6 49h412l-532 -449l286 -419q6 -4 10.5 -11.5t14.5 -1.5l71 81l72 81l39 -35q-16 -35 -45 -81t-65.5 -88t-78.5 -71.5t-83 -29.5q-39 0 -72 33t-63 84z" />
<glyph unicode="l" horiz-adv-x="509" d="M33 59l4 34q2 17 7 53l14 98l26 166l147 944l-184 55l6 47l379 84l-127 -821l-86 -555q2 -25 6 -38t25 -13q12 0 30.5 16t40 41l43.5 53l39 51l18.5 -15l18.5 -15q-23 -53 -55.5 -103.5t-73.5 -91.5q-39 -41 -80 -50t-81 -9q-45 0 -80 17t-37 52z" />
<glyph unicode="m" horiz-adv-x="1832" d="M39 780q41 111 129 193q39 41 79 51t81 10q45 0 72.5 -17.5t31.5 -51.5q2 -14 1 -34t-7 -65h2v2q74 72 164 123t188 51q47 0 90 -12t77 -35.5t54.5 -59.5t24.5 -83q37 35 81 69.5t91 61.5t96 43t99 16q154 0 213 -80q43 -59 43 -153q0 -36 -7 -76l-92 -575 q2 -25 5.5 -38.5t23.5 -13.5q12 0 30.5 16.5t41 41t44.5 53.5l40 51q10 -8 18 -15t19 -15q-23 -53 -56 -103.5t-74 -91.5t-80.5 -50t-80.5 -9q-45 0 -79 17t-36 52l5 50q3 30 15 102l84 536q3 18 3 35q0 52 -29 84q-39 43 -113 43q-43 0 -83 -17.5t-77.5 -46t-74.5 -63.5 l-74 -71l-109 -705h-172l115 739q3 17 3 32q0 53 -34 88q-43 44 -116 44q-47 0 -88 -17.5t-78 -46t-72 -63.5l-68 -67l-110 -709h-166l133 858q-2 27 -5 40t-24 13q-12 0 -30.5 -17t-41 -42t-43.5 -52l-40 -50l-19 15z" />
<glyph unicode="n" horiz-adv-x="1253" d="M41 778q41 111 129 193q39 41 79 51t81 10q45 0 82 -16.5t37 -52.5q0 -8 -1.5 -12.5t-2.5 -11.5t-4 -22.5t-7 -46.5q72 70 160 121t180 51q156 0 233 -70q57 -52 57 -152q0 -34 -7 -75l-88 -575q2 -25 5 -38t23 -13q12 0 31 16.5t41.5 41t43.5 52.5l40 52 q10 -8 18.5 -15.5t18.5 -15.5q-23 -53 -55.5 -103.5t-73.5 -91.5t-81 -50t-81 -9q-45 0 -80 17.5t-37 52.5l4 32l5.5 44t10.5 71l18 113l28 170l39 243q2 16 2 30q0 30 -9 50q-13 31 -39 48.5t-56.5 23.5t-57.5 6q-49 0 -92 -17.5t-82 -45t-75 -61.5t-68 -68l-113 -707h-172 l141 858q-2 27 -7 40t-26 13q-12 0 -30.5 -17.5t-41 -42t-43.5 -51.5l-40 -50l-19 15z" />
<glyph unicode="o" horiz-adv-x="1140" d="M75 300q-7 47 -8 98q0 54 9 112q16 106 66.5 202.5t126 170t174 116.5t210.5 43q121 0 204 -40.5t130 -112.5t61 -169q6 -41 5 -84q0 -60 -11 -126q-16 -109 -63 -205t-120 -169t-168 -116t-208 -43q-121 0 -205.5 41t-136 113t-66.5 169zM250 366q6 -73 34.5 -131.5 t82 -95.5t139.5 -37q82 0 144.5 37t106.5 95.5t70.5 131t36.5 144.5q10 56 10 113q0 14 -1 29q-3 73 -28.5 132.5t-76.5 96.5t-135 37t-148.5 -37t-112.5 -96.5t-77 -132t-41 -142.5q-6 -45 -6 -90q0 -27 2 -54z" />
<glyph unicode="p" horiz-adv-x="1259" d="M-88 -518l8 53l189 68l196 1257l-3 40q-1 13 -21 13q-12 0 -31 -17t-41.5 -42t-43.5 -52l-40 -50l-19 15l-18 15q41 111 129 193q39 41 79 51t81 10q78 0 96 -36q10 -19 10 -48q0 -26 -8 -61q70 66 148.5 108.5t179.5 42.5q115 0 190.5 -40.5t116.5 -109.5t50 -159 q4 -35 4 -72q0 -57 -9 -116q-16 -104 -58 -205.5t-109.5 -181.5t-162 -130.5t-215.5 -50.5q-96 0 -157.5 21.5t-106.5 71.5l-74 -467l215 -68l-8 -53h-567zM379 233q33 -68 98.5 -99.5t138.5 -31.5q88 0 151.5 44t107 111t68 142.5t34.5 141.5q6 44 6 86q0 26 -2 51 q-6 68 -33.5 121t-77 86t-122.5 33q-90 0 -164 -58.5t-129 -134.5z" />
<glyph unicode="q" horiz-adv-x="1134" d="M69 287q-3 32 -4 66q0 60 11 122q14 100 58 201.5t114.5 183.5t169 132t225.5 50q47 0 83 -6t65.5 -18t54 -30.5t49.5 -43.5l172 76l-221 -1415l170 -70l-8 -53h-529l8 53l191 70l82 524q-72 -68 -161 -110t-181 -42q-115 0 -188.5 41t-112.5 110t-48 159zM249 342 q5 -68 29.5 -121t72.5 -86t122 -33q45 0 89 16.5t85 43t76 62.5t61 73l76 487q-33 68 -91 101t-132 33q-88 0 -155.5 -44.5t-115 -111t-75 -143t-37.5 -140.5q-7 -46 -7 -92q0 -22 2 -45z" />
<glyph unicode="r" horiz-adv-x="786" d="M37 793q41 111 129 192q39 41 79 51.5t81 10.5q45 0 72.5 -17.5t31.5 -52.5q2 -14 2 -35q0 -18 -6 -63l-6 -37q31 39 67.5 75.5t77.5 64.5t86 44t90 16q23 0 43.5 -6t42.5 -14l-53 -330h-53l-47 176q-41 0 -87 -13t-86 -41t-70 -70t-38 -101l-100 -643h-170l135 868 q-2 29 -5 42.5t-24 13.5q-12 0 -30.5 -17.5t-41 -42t-43.5 -52.5l-40 -50l-19 15z" />
<glyph unicode="s" horiz-adv-x="866" d="M20 63l41 261h54l47 -179q35 -20 72.5 -30.5t95.5 -10.5q74 0 136 36t75 118q3 16 2 30q0 43 -23 70q-31 37 -80 62.5t-109.5 46t-109.5 53.5t-78 85q-19 35 -19 85q0 25 5 53q12 82 56 139.5t102.5 93.5t125 51t128.5 15q66 0 140.5 -18t125.5 -51l-41 -260h-53l-49 176 q-61 29 -129 29q-37 0 -74 -6.5t-69 -24t-54.5 -47t-30.5 -76.5q-2 -11 -1 -21q0 -39 25 -63q32 -31 82 -55.5t109.5 -47t108.5 -59.5t77 -93q18 -37 18 -88q0 -26 -5 -56q-12 -78 -53 -135.5t-98.5 -94.5t-123 -55.5t-129.5 -18.5q-90 0 -162 21.5t-135 64.5z" />
<glyph unicode="t" horiz-adv-x="710" d="M70 883l20 75l178 62l54 330h170l-54 -330h297l-20 -137h-299l-99 -627q-4 -22 -3 -41q0 -33 11 -59q17 -41 83 -43q41 0 92 19.5t82 41.5l43 -104q-66 -37 -138.5 -65t-138.5 -28q-125 0 -175 68q-35 47 -35 121q0 33 7 72l101 645h-176z" />
<glyph unicode="u" horiz-adv-x="1259" d="M43 786q23 53 55.5 103.5t73.5 91.5t81 50t81 9q45 0 80 -17t37 -52l-5 -33q-2 -16 -5 -44t-10 -71l-18 -112l-28 -170l-39 -244q-2 -16 -2 -29q0 -30 9 -51q13 -31 39 -48t56.5 -23.5t57.5 -6.5q49 0 92 17.5t82 45t75 61.5t68 69l113 706h172l-141 -858q2 -27 7 -40 t25 -13q12 0 31 17.5t41.5 42t43.5 52.5l40 50q10 -8 18.5 -15.5t18.5 -15.5q-41 -111 -129 -192q-39 -41 -79 -51.5t-81 -10.5q-45 0 -80 17.5t-39 52.5v10q0 4 2 12t5.5 23.5t7.5 46.5q-72 -70 -160 -121t-180 -51q-156 0 -233 71q-57 52 -57 151q0 34 7 75l88 575 q-2 25 -5 38.5t-23 13.5q-12 0 -31 -16.5t-41.5 -41t-43.5 -53.5l-40 -51l-19 15z" />
<glyph unicode="v" horiz-adv-x="1212" d="M10 854q27 29 68 68t88 71.5t95 50.5q33 13 62 13q13 0 25 -2q35 -10 55.5 -50t28.5 -98l117 -551q10 -61 15 -117.5t5 -70.5q2 6 10.5 26.5l20.5 47.5l27 58q14 32 30 60l306 570l-136 69l9 54h358l-578 -1053h-163l-207 920q-6 6 -7 13t-12 5q-6 0 -26 -12l-50 -31 q-30 -18 -62 -41l-58 -43z" />
<glyph unicode="w" horiz-adv-x="1812" d="M12 872q29 27 72 63t91 65.5t96 46.5q28 9 52 9q18 0 35 -5q35 -12 53.5 -53.5t22.5 -98.5l76 -534q10 -70 11 -127.5t1 -73.5q2 10 9.5 31.5t18.5 49t26.5 58.5t33.5 62l326 684h170l102 -678l9 -81q4 -40 6 -69q2 -37 2 -65l6 18q6 18 18 49l29 71q16 40 37 83l256 547 l-131 69l8 54h350l-526 -1047h-174l-105 686q-4 23 -7 53.5t-4 60t0 53.5t1 34q-2 -8 -11 -33l-22 -55l-25 -63q-13 -32 -26 -56l-326 -680h-174l-147 922q-4 8 -5 15t-11 5q-6 0 -28 -10t-51 -28l-64 -38l-62 -39z" />
<glyph unicode="x" horiz-adv-x="1249" d="M57 788q16 37 44 86.5t64 94.5t75 76.5t79 35.5q35 0 70 -31.5t62 -84.5l141 -248q10 -18 19.5 -38t21.5 -48q8 10 26.5 35.5t45.5 58.5l178 215l-88 66l8 53h373l-463 -529l227 -376q8 -4 10 -11.5t13 -1.5q6 2 22 19.5t38 44.5l45 57l44 60l31 -35q-16 -37 -44 -86 t-61.5 -94.5t-73.5 -79t-79 -35.5q-35 2 -69 32.5t-58 84.5l-125 219q-16 29 -27.5 56.5t-13.5 31.5q-2 -2 -23 -32l-45 -62l-168 -203l86 -66l-8 -53h-368l446 514l-246 410q-8 4 -13 9t-15 1q-4 -2 -20.5 -19.5t-39 -44t-46.5 -58.5l-44 -58z" />
<glyph unicode="y" horiz-adv-x="1087" d="M-121 844q25 31 65 69.5t87 72.5t94 53q33 14 63 14q13 0 25 -2q35 -10 55.5 -49t30.5 -95l131 -555q4 -23 8 -52l8 -57l8 -49q3 -22 3 -26q0 2 9 23l21 51q12 29 28 59l28 53l284 572l-129 71v54h361l-369 -713l-95 -169q-48 -83 -93 -169l-64 -124l-65 -124 q-33 -59 -66 -109.5t-65 -76.5q-41 -37 -77 -56.5t-75 -28.5t-83 -10q-15 0 -30 -1q-32 0 -69 2v120q20 -1 40 0q40 0 78 2q56 4 101 44q31 27 62.5 78t59.5 106l50 104q23 49 37 76l-223 913q-8 6 -9.5 13.5t-11.5 5.5q-6 0 -26.5 -12.5t-49.5 -32.5l-59 -44l-57 -44z" />
<glyph unicode="z" horiz-adv-x="1185" d="M2 0l727 813q18 20 37 39l35 35q18 18 35 33l-56 -5q-23 -2 -49 -3t-47 -1h-381l-104 -180h-54l52 320h948l-723 -807q-39 -43 -76 -76l-37 -37q29 0 56 2q23 2 48 3t46 1h379l104 180h53l-49 -317h-944z" />
<glyph unicode="{" d="M305 563v135q61 -4 99 17.5t59.5 54.5t30 73t8.5 77l2 337q0 45 13 87t41 75t70 52.5t101 19.5h176v-123h-114q-78 0 -100.5 -43t-22.5 -102l-2 -340q0 -106 -46.5 -165t-132.5 -81q88 -20 131.5 -71.5t40.5 -157.5l-4 -328q0 -29 1 -60.5t10.5 -59.5t32 -45t67.5 -17 h123v-123h-184q-66 0 -108 21.5t-64.5 56t-30.5 77.5t-8 88l2 344q0 37 -5.5 74t-26 65.5t-58.5 46t-101 15.5z" />
<glyph unicode="|" d="M432 -518v2056h158l2 -2056h-160z" />
<glyph unicode="}" d="M190 -102h119q78 0 100.5 43t22.5 102l2 334q0 106 46 164.5t132 81.5q-88 20 -131 71t-43 158l2 334v59q0 33 -9 60.5t-31.5 45t-67.5 17.5h-125v123h186q66 0 107 -21.5t64.5 -56.5t31.5 -78t8 -88l-2 -350q0 -37 6 -74t25.5 -65.5t57.5 -46t104 -15.5v-135 q-61 2 -100.5 -18.5t-61 -53t-29.5 -72.5t-8 -77l-2 -332q0 -45 -13.5 -87t-40 -74.5t-69.5 -52t-100 -19.5h-181v123z" />
<glyph unicode="~" horiz-adv-x="1386" d="M276 395q18 63 46 125t68 111t95.5 78.5t130.5 29.5q66 0 108 -18.5t70.5 -46t49 -59t41 -59.5t47 -46t69.5 -18q41 0 71 25.5t52.5 62t38 77.5t25.5 72l64 -19q32 -9 65 -16q-18 -63 -46 -124.5t-68 -110.5t-95 -79t-131 -30q-66 0 -108 18.5t-70.5 46t-49 60.5 t-41 60.5t-48 46t-68.5 18.5t-72 -25.5t-53.5 -63.5t-37.5 -79l-26 -72l-62.5 19.5t-64.5 15.5z" />
<glyph unicode="&#xa1;" horiz-adv-x="538" d="M156 -393l100 635q8 51 22 118l25 127q14 70 31 142h145q-6 -74 -14 -144q-6 -59 -15.5 -125.5t-17.5 -115.5l-100 -637h-176zM328 922q10 68 42.5 95t100.5 27q72 0 97.5 -28.5t15.5 -93.5q-10 -66 -44 -94.5t-104 -28.5q-68 0 -93 28.5t-15 94.5z" />
<glyph unicode="&#xa2;" horiz-adv-x="960" d="M169 352q-3 78 7 146q16 104 65.5 201.5t124 174t170 122.5t203.5 46h21l49 156l88 -2l-51 -160q53 -8 104 -29.5t105 -70.5l-39 -248h-53l-48 178q-53 33 -110 43l-252 -796q31 -6 63 -7q72 0 130.5 29t117.5 82l84 -86q-72 -63 -163 -108.5t-216 -45.5h-30q-12 0 -27 3 l-53 -164l-88 4l55 176q-92 25 -146.5 81t-81 126.5t-29.5 148.5zM354 498q-16 -104 12.5 -202.5t108.5 -150.5l246 773q-80 -2 -142.5 -40t-108.5 -96.5t-75 -133t-41 -150.5z" />
<glyph unicode="&#xa3;" horiz-adv-x="958" d="M-84 2l8 53l195 76l47 313h-141l20 129h141l33 201h-143l18 127h144v2q20 125 63 223.5t115.5 167t178 104.5t253.5 36q16 0 37.5 -2t38.5 -5l41 -4l-21 -131q-14 0 -31 2q-14 2 -29.5 3t-29.5 1q-184 0 -286.5 -79.5t-129.5 -223.5l-16 -94h377l-19 -127h-377l-32 -201 h379l-21 -129h-379l-45 -292h430l176 264h54l-97 -414h-952z" />
<glyph unicode="&#xa4;" horiz-adv-x="1386" d="M131 518l19 115h153q0 14 2 27l4 28q4 25 9.5 50.5t13.5 49.5h-156l17 115h176q51 119 130 217.5t179 169t219 110.5t250 40q59 0 104 -2t85 -10.5t81 -21.5t92 -36l-2 -4h4l-55 -354h-78l-57 262q-43 12 -89 17t-112 5q-98 0 -183 -29.5t-156.5 -81.5t-128 -125 t-95.5 -157h457l-17 -115h-479q-4 -23 -9 -44t-9 -44q-4 -16 -6 -33.5t-2 -33.5h479l-19 -115h-458q20 -180 141 -287.5t326 -107.5q31 0 52 3t39.5 8t37 12.5t43.5 15.5l170 260h73l-80 -338q-8 -4 -13 -6t-9 -4q-92 -43 -175 -70t-181 -27q-127 0 -237 37t-191.5 106.5 t-132 170t-58.5 227.5h-168z" />
<glyph unicode="&#xa5;" horiz-adv-x="1067" d="M66 1362l8 53h528l-8 -53l-162 -76l176 -321q39 -72 61.5 -120t24.5 -54q0 2 13.5 19l34.5 43l50 58l56 66l268 301l6 8l-137 76l8 53h512l-8 -53l-170 -76l-463 -506h240l-17 -110h-327l-31 -176h330l-17 -111h-329l-39 -254l219 -76l-8 -53h-639l8 53l240 76l41 254 h-316l17 111h311l24 155l-8 21h-299l17 110h219l-287 506z" />
<glyph unicode="&#xa6;" horiz-adv-x="911" d="M338 -182l80 512h160l-80 -512h-160zM500 842l80 512h155l-80 -512h-155z" />
<glyph unicode="&#xa7;" horiz-adv-x="890" d="M29 -104l39 260h53l45 -172q92 -61 213 -62q49 0 100 8.5t95 30t77 60t43 98.5q10 66 -31.5 103.5t-110.5 63t-151 46t-149.5 52.5t-107.5 83t-25 137q8 53 36.5 94t68.5 72t88 55.5t98 44.5q-72 41 -112 100.5t-26 145.5q14 88 61.5 150.5t115 100.5t147.5 55.5 t160 17.5q98 0 175 -21.5t144 -66.5l-41 -262h-53l-47 170q-49 25 -93 36t-106 11q-113 0 -188.5 -38t-89.5 -124q-12 -74 27.5 -115t105 -66.5t143.5 -45t143.5 -49t103.5 -78t26 -134.5q-8 -51 -37 -90t-69 -69.5t-87 -56t-94 -46.5q39 -16 72.5 -38.5t55 -53.5t30 -73 t0.5 -99q-14 -88 -63.5 -151.5t-120 -105.5t-155.5 -63.5t-167 -21.5q-100 -2 -184 26t-158 81zM289 647q-10 -66 27.5 -98.5t91.5 -48.5l210 -66q27 12 62 30.5t67.5 40t56 49.5t27.5 58q6 43 -6 70t-35.5 43t-54.5 27l-61 20l-166 53q-31 -12 -66.5 -29.5t-67.5 -40 t-55.5 -49t-29.5 -59.5z" />
<glyph unicode="&#xa8;" d="M375 1780q18 113 147 112q125 0 111 -108q-18 -115 -146 -115t-112 111zM852 1776q18 113 147 112q127 0 109 -108q-18 -115 -143 -115q-131 0 -113 111z" />
<glyph unicode="&#xa9;" d="M170 709q25 154 102.5 286.5t193.5 231t258 156t296 57.5q156 0 281.5 -54.5t210.5 -150.5t121 -231.5t12 -294.5q-25 -154 -104 -287t-194.5 -231.5t-258 -156t-295.5 -57.5q-160 0 -286 53.5t-210 151t-118 231.5t-9 296zM283 711q-20 -133 8 -250t98 -203t176.5 -136 t241.5 -50t258 50t219 136t161.5 203t86.5 250q20 133 -8.5 248.5t-99 201.5t-177 135.5t-241.5 49.5t-257 -49.5t-218.5 -135.5t-162 -201.5t-85.5 -248.5zM460 546q-7 85 5 161q14 96 61 188t117 163.5t159 115t191 43.5q37 0 74 -3.5t74 -13.5t73.5 -29.5t75.5 -54.5 l-37 -231h-51l-43 166q-41 27 -84 38t-90 11q-76 0 -136.5 -35t-105.5 -90t-72.5 -126t-39.5 -142q-10 -66 -1 -131.5t38.5 -117.5t82 -85t126.5 -33q66 0 122 27.5t111 74.5l78 -80q-66 -59 -152 -101t-202 -42q-131 0 -209 48t-118 121t-47 158z" />
<glyph unicode="&#xaa;" horiz-adv-x="1224" d="M73 287q-3 32 -4 66q0 60 11 122q14 100 58 201.5t115 183.5t169 132t225 50q94 0 147.5 -24.5t102.5 -73.5l174 76l-131 -852q2 -25 6 -38t25 -13q12 0 30.5 16.5t40 41t42.5 52.5l40 52q10 -8 18.5 -15.5t18.5 -15.5q-23 -53 -55.5 -103.5t-73.5 -91.5q-39 -41 -80 -50 t-82 -9q-45 0 -75.5 17.5t-32.5 51.5v25q0 16 4 41q-72 -68 -162 -110t-182 -42q-115 0 -188.5 41t-112.5 110t-48 159zM253 342q5 -68 30.5 -121t74 -86t121.5 -33q92 0 173 59.5t139 135.5l73 487q-33 68 -91 101t-132 33q-88 0 -154.5 -44.5t-113.5 -111t-76 -143 t-39 -140.5q-7 -46 -7 -92q0 -22 2 -45z" />
<glyph unicode="&#xab;" horiz-adv-x="753" d="M88 539l397 399l74 -47l-299 -352l170 -332l-86 -47zM436 539l398 399l73 -47l-299 -352l170 -332l-86 -47z" />
<glyph unicode="&#xac;" d="M23 645l22 150h922l-90 -574h-160l67 424h-761z" />
<glyph unicode="&#xad;" horiz-adv-x="438" d="M-2 444v150h582v-150h-582z" />
<glyph unicode="&#xae;" d="M109 1063q14 100 66 187t128 151.5t169 102.5t194 38q102 0 185 -36t138 -99.5t79 -151.5t7 -192q-16 -100 -68.5 -187.5t-128 -152t-169 -102t-193.5 -37.5q-104 0 -187 34.5t-137.5 98t-76.5 152t-6 194.5zM182 1063q-16 -98 8.5 -180t81.5 -140l86 33l86 567l-75 35 q-74 -59 -123.5 -139t-63.5 -176zM307 713q45 -31 99.5 -49.5t119.5 -18.5q66 0 126.5 18.5t113.5 49.5h-70l-116 315h-95l-39 -252l84 -37l-4 -26h-219zM408 1405l258 2h55q37 0 70.5 -15.5t55 -54.5t9.5 -114q-14 -92 -62.5 -129t-113.5 -56l88 -262l53 -26q70 59 117 139 t63 174q14 88 -5 164t-65 132t-116 89t-158 33q-70 0 -133 -20.5t-116 -55.5zM496 1094h86q31 0 60.5 3t54 15t43 38t26.5 73q6 45 -3 70.5t-29.5 37.5t-46 14.5t-50.5 2.5q-29 0 -60.5 -1t-41.5 -1z" />
<glyph unicode="&#xaf;" d="M336 1237l18 123h561l-18 -123h-561z" />
<glyph unicode="&#x2c9;" d="M336 1237l18 123h561l-18 -123h-561z" />
<glyph unicode="&#xb0;" d="M307 1147q8 61 40 114.5t78 93.5t104.5 62.5t123.5 22.5q51 0 103.5 -15.5t90.5 -49.5t56.5 -90t5.5 -138q-10 -57 -37.5 -110.5t-70.5 -93.5t-99.5 -64.5t-121.5 -24.5q-72 0 -127.5 22.5t-90 62.5t-50 93.5t-5.5 114.5zM426 1147q-6 -37 3 -73t31.5 -63.5t56.5 -45 t77 -17.5t77 17.5t58.5 45t39.5 63.5t22 73q12 82 -25 140.5t-127 58.5q-43 0 -80 -17.5t-64.5 -45.5t-45 -63.5t-23.5 -72.5z" />
<glyph unicode="&#xb1;" d="M49 0l23 150h972l-22 -150h-973zM139 541l23 149h403l56 334h161l-55 -334h408l-23 -149h-410l-53 -342h-164l56 342h-402z" />
<glyph unicode="&#xb2;" horiz-adv-x="1198" d="M-248 -535l23 125l63 -2q23 -4 48.5 2.5t60.5 16.5q43 16 71.5 48t49 73t33 89t20.5 101l147 963h-202l20 77l205 62l18 108q14 94 47 174t88.5 137.5t136.5 89.5t191 32h135l-49 -304h-53l-47 181q-23 4 -47.5 -2t-59.5 -17q-43 -16 -73.5 -48t-50 -73t-32 -90 t-20.5 -100l-14 -88h323q20 0 37 8t31 18.5t30.5 18.5t39.5 8q45 0 79.5 -23.5t38.5 -58.5v-26q0 -12 -3 -41t-10 -80t-21 -139l-37 -219l-54 -316q2 -25 5.5 -38t23.5 -13q12 0 30.5 16.5t41 41t44.5 52.5l40 52q10 -8 18 -15.5t19 -15.5q-23 -53 -55.5 -103.5t-73.5 -91.5 t-81 -50t-81 -9q-45 0 -80 17.5t-37 52.5q2 14 3 31.5t4 49t10 83.5l20 139l32 213l48 307l-408 -8l-151 -983q-14 -96 -47 -175t-88.5 -136.5t-135 -89.5t-190.5 -32h-74z" />
<glyph unicode="&#xb3;" horiz-adv-x="1144" d="M-248 -535l23 125l63 -2q23 -4 48.5 2.5t60.5 16.5q43 16 71.5 48t49 73t33 89t20.5 101l147 963h-202l20 77l205 62l18 108q14 94 47 173t88.5 135.5t136.5 88t191 36.5l119 4v-72l176 47l-213 -1376q2 -25 6 -38t25 -13q12 0 30.5 16t40 41t42.5 53l40 51l18.5 -15 l18.5 -15q-23 -53 -55.5 -103.5t-73.5 -91.5q-39 -41 -80 -50t-82 -9q-45 0 -79.5 17.5t-36.5 51.5q0 10 2 25.5t8 57.5l18 122l35 220l55 353l80 517q2 23 1 38t-11 24t-33.5 14.5t-64.5 7.5q-23 4 -47.5 -2t-59.5 -17q-43 -16 -73.5 -48t-50 -73t-32 -90t-20.5 -100 l-14 -88h223l-20 -139h-226l-151 -983q-14 -96 -47 -175t-88.5 -136.5t-135 -89.5t-190.5 -32h-74z" />
<glyph unicode="&#xb4;" d="M498 1225l219 334l164 -80l-283 -297z" />
<glyph unicode="&#xb6;" horiz-adv-x="1175" d="M145 1030q16 106 65.5 180t120 120t159 66.5t184.5 20.5h434l-252 -1605h-143l231 1495h-176l-238 -1495h-143l131 843q-82 0 -156.5 19.5t-128 63.5t-79 116t-9.5 176z" />
<glyph unicode="&#xb7;" horiz-adv-x="266" d="M51 551q10 66 44 94.5t104 28.5q68 0 93 -29t15 -94q-10 -68 -44 -95.5t-101 -27.5q-72 0 -96.5 28.5t-14.5 94.5z" />
<glyph unicode="&#x2219;" horiz-adv-x="266" d="M51 551q10 66 44 94.5t104 28.5q68 0 93 -29t15 -94q-10 -68 -44 -95.5t-101 -27.5q-72 0 -96.5 28.5t-14.5 94.5z" />
<glyph unicode="&#xb8;" d="M285 -510q0 -2 5 14.5t13 36t13 36.5l6 17l47 6q29 3 58.5 14t53 33.5t29.5 59.5q6 31 -6 49.5t-31.5 27.5t-42 11t-39.5 2q-6 0 -13 -1t-13 -1h-17l33 117q16 2 29 2h30q27 0 69 -3t81 -20.5t62.5 -54.5t13.5 -106q-12 -74 -55.5 -120t-100.5 -74t-117.5 -37t-107.5 -9z " />
<glyph unicode="&#xb9;" horiz-adv-x="1007" d="M80 1057l567 385l133 -2l-205 -1313l156 -74l-8 -53h-520l8 53l188 74l154 983q4 23 10 50.5t10 51.5l13 56q-18 -18 -41 -39l-40 -36q-22 -19 -42 -34l-303 -211z" />
<glyph unicode="&#xba;" horiz-adv-x="647" d="M164 877q10 63 41 121.5t77 103.5t105 71.5t127 26.5q72 0 122 -25.5t78.5 -68.5t37 -102.5t-1.5 -126.5q-10 -66 -38 -123.5t-71 -102.5t-100.5 -70.5t-124.5 -25.5q-74 0 -126 24.5t-83 68.5t-42 102.5t-1 126.5zM274.5 791q4.5 -43 21.5 -78t50 -57.5t84 -22.5 q49 0 85 22.5t60.5 57.5t40 78t21.5 86q6 41 5 84t-15.5 78.5t-45 58t-79.5 22.5t-88 -22.5t-67 -58t-46 -78.5t-25 -84q-6 -43 -1.5 -86z" />
<glyph unicode="&#xbb;" horiz-adv-x="753" d="M59 209l299 352l-170 332l86 47l256 -379l-397 -399zM408 209l299 352l-170 332l86 47l256 -379l-398 -399z" />
<glyph unicode="&#xbc;" horiz-adv-x="1738" d="M-248 -535l23 125l63 -2q23 -4 48.5 2.5t60.5 16.5q43 16 71.5 48t49 73t33 89t20.5 101l147 963h-202l20 77l205 62l18 108q14 94 47 174t88.5 137.5t136.5 89.5t191 32h135l-49 -304h-53l-47 181q-23 4 -47.5 -2t-59.5 -17q-43 -16 -73.5 -48t-50 -73t-32 -90 t-20.5 -100l-14 -88h223l-6 -62l207 62l18 108q14 94 47 173t88.5 135.5t136 88t191.5 36.5l119 4v-72l176 47l-213 -1376q2 -25 6 -38t25 -13q12 0 30.5 16t40 41t42.5 53l40 51l18.5 -15l18.5 -15q-23 -53 -55.5 -103.5t-73.5 -91.5q-39 -41 -80 -50t-82 -9 q-45 0 -79.5 17.5t-36.5 51.5q0 10 2 25.5t8 57.5l18 122l35 220l55 353l80 517q2 23 1 38t-11 24t-33.5 14.5t-64.5 7.5q-23 4 -47.5 -2t-59.5 -17q-43 -16 -73.5 -48t-50 -73t-32 -90t-20.5 -100l-14 -88h223l-21 -139h-225l-151 -983q-14 -96 -47 -175t-88.5 -136.5 t-135.5 -89.5t-190 -32h-74l23 125l63 -2q23 -4 48.5 2.5t60.5 16.5q43 16 71.5 48t49 73t33 89t20.5 101l147 963h-424l-151 -983q-14 -96 -47 -175t-88.5 -136.5t-135 -89.5t-190.5 -32h-74z" />
<glyph unicode="&#xbd;" horiz-adv-x="1284" d="M-248 -535l23 125l63 -2q23 -4 48.5 2.5t60.5 16.5q43 16 71.5 48t49 73t33 89t20.5 101l147 963h-202l20 77l205 62l18 108q14 94 47 174t88.5 137.5t136.5 89.5t191 32h135l-49 -304h-53l-47 181q-23 4 -47.5 -2t-59.5 -17q-43 -16 -73.5 -48t-50 -73t-32 -90 t-20.5 -100l-14 -88h223l-8 -66l229 66l19 108q14 94 47 174t88 137.5t136 89.5t191 32h136l-49 -304h-54l-47 181q-23 4 -47.5 -2t-58.5 -17q-43 -16 -74 -48t-50.5 -73t-31.5 -90t-20 -100l-15 -88h223l-20 -139h-225l-152 -983q-14 -96 -47 -175t-88 -136.5t-135 -89.5 t-191 -32h-73l22 125l64 -2q23 -4 48 2.5t60 16.5q43 16 72 48t49 73t32.5 89t20.5 101l148 963h-445l-151 -983q-14 -96 -47 -175t-88.5 -136.5t-135 -89.5t-190.5 -32h-74z" />
<glyph unicode="&#xbe;" horiz-adv-x="1804" d="M-248 -535l23 125l63 -2q23 -4 48.5 2.5t60.5 16.5q43 16 71.5 48t49 73t33 89t20.5 101l147 963h-202l20 77l205 62l18 108q14 94 47 174t88.5 137.5t136.5 89.5t191 32h135l-49 -304h-53l-47 181q-23 4 -47.5 -2t-59.5 -17q-43 -16 -73.5 -48t-50 -73t-32 -90 t-20.5 -100l-14 -88h223l-8 -59l221 59l18 108q14 94 47 174t88.5 137.5t136.5 89.5t191 32h135l-49 -304h-53l-47 181q-23 4 -47.5 -2t-59.5 -17q-43 -16 -73.5 -48t-50 -73t-31.5 -90t-21 -100l-14 -88h324q20 0 36.5 8t31 18.5t30.5 18.5t39 8q45 0 79.5 -23.5 t39.5 -58.5v-26q0 -12 -3.5 -41t-10.5 -80t-21 -139l-37 -219l-53 -316q2 -25 5 -38t23 -13q12 0 30.5 16.5t41.5 41t44 52.5l40 52q10 -8 18.5 -15.5t18.5 -15.5q-23 -53 -55.5 -103.5t-73.5 -91.5t-81 -50t-81 -9q-45 0 -80 17.5t-37 52.5q0 14 2 31.5l5.5 49t10.5 83.5 l19 139l32 213l48 307l-408 -8l-151 -983q-14 -96 -47 -175t-88.5 -136.5t-135 -89.5t-190.5 -32h-74l23 125l63 -2q23 -4 48.5 2.5t60.5 16.5q43 16 71.5 48t49 73t33 89t20.5 101l147 963h-436l-151 -983q-14 -96 -47 -175t-88.5 -136.5t-135 -89.5t-190.5 -32h-74z" />
<glyph unicode="&#xbf;" horiz-adv-x="841" d="M63 -74q14 88 51.5 149.5t86.5 106.5t104 81t103.5 73t83 81t45.5 107l16 117h176l-16 -106q-12 -82 -49 -138.5t-86.5 -98.5t-103.5 -77t-102 -75t-84 -92t-48 -126q-10 -59 6 -101t50 -70.5t80 -42t99 -13.5q66 0 133 18q16 6 31 11l139 262h58l-56 -346l-89 -31 q-42 -14 -83 -24.5t-82 -16.5t-88 -6q-84 0 -159.5 16.5t-129 57.5t-78 110.5t-8.5 173.5zM555 905q10 68 43 95.5t100 27.5q72 0 97.5 -28.5t15.5 -94.5t-45 -94.5t-104 -28.5q-68 0 -92.5 28.5t-14.5 94.5z" />
<glyph unicode="&#xc0;" horiz-adv-x="1222" d="M-137 0l10 53l168 78l747 1286h168l314 -1284l149 -80l-6 -53h-522l6 53l176 80l-76 338h-583v-4l-178 -334l151 -80l-6 -53h-518zM498 618h465l-97 410q-6 23 -12 56.5t-11 67.5l-8.5 59.5t-3.5 31.5q-2 -2 -11 -23.5t-24 -53.5l-33 -68q-17 -37 -36 -68zM584 1810 l164 80l219 -334l-101 -43z" />
<glyph unicode="&#xc1;" horiz-adv-x="1222" d="M-137 0l10 53l168 78l747 1286h168l314 -1284l149 -80l-6 -53h-522l6 53l176 80l-76 338h-583v-4l-178 -334l151 -80l-6 -53h-518zM498 618h465l-97 410q-6 23 -12 56.5t-11 67.5l-8.5 59.5t-3.5 31.5q-2 -2 -11 -23.5t-24 -53.5l-33 -68q-17 -37 -36 -68zM727 1571 l211 334l164 -80l-275 -297z" />
<glyph unicode="&#xc2;" horiz-adv-x="1222" d="M-137 0l10 53l168 78l747 1286h168l314 -1284l149 -80l-6 -53h-522l6 53l176 80l-76 338h-583v-4l-178 -334l151 -80l-6 -53h-518zM498 618h465l-97 410q-6 23 -12 56.5t-11 67.5l-8.5 59.5t-3.5 31.5q-2 -2 -11 -23.5t-24 -53.5l-33 -68q-17 -37 -36 -68zM627 1577 l241 317h156l129 -317l-106 -33l-121 232l-205 -230z" />
<glyph unicode="&#xc3;" horiz-adv-x="1222" d="M-137 0l10 53l168 78l747 1286h168l314 -1284l149 -80l-6 -53h-522l6 53l176 80l-76 338h-583v-4l-178 -334l151 -80l-6 -53h-518zM498 618h465l-97 410q-6 23 -12 56.5t-11 67.5l-8.5 59.5t-3.5 31.5q-2 -2 -11 -23.5t-24 -53.5l-33 -68q-17 -37 -36 -68zM518 1546 q10 39 27.5 76t43 65.5t60.5 46t80 17.5q57 0 97 -14.5t71 -32.5l57.5 -32.5t55.5 -14.5q45 0 68.5 30.5t37.5 77.5l94 -24q-12 -41 -29.5 -78t-42 -65.5t-58 -46t-81.5 -17.5q-57 0 -94 14.5t-66.5 32.5l-55 32.5t-60.5 14.5q-41 0 -69.5 -34.5t-35.5 -71.5z" />
<glyph unicode="&#xc4;" horiz-adv-x="1222" d="M-137 0l10 53l168 78l747 1286h168l314 -1284l149 -80l-6 -53h-522l6 53l176 80l-76 338h-583v-4l-178 -334l151 -80l-6 -53h-518zM498 618h465l-97 410q-6 23 -12 56.5t-11 67.5l-8.5 59.5t-3.5 31.5q-2 -2 -11 -23.5t-24 -53.5l-33 -68q-17 -37 -36 -68zM512 1665 q0 113 129 113q127 0 127 -109q0 -115 -127 -115q-129 0 -129 111zM989 1661q0 113 129 113q127 0 127 -109q0 -115 -127 -115q-129 0 -129 111z" />
<glyph unicode="&#xc5;" horiz-adv-x="1222" d="M-137 0l10 53l168 78l747 1286h168l314 -1284l149 -80l-6 -53h-522l6 53l176 80l-76 338h-583v-4l-178 -334l151 -80l-6 -53h-518zM498 618h465l-97 410q-6 23 -12 56.5t-11 67.5l-8.5 59.5t-3.5 31.5q-2 -2 -11 -23.5t-24 -53.5l-33 -68q-17 -37 -36 -68zM682 1729 q0 90 62.5 149t160.5 59t157.5 -54t59.5 -154q0 -90 -60.5 -149.5t-158.5 -59.5q-94 0 -157.5 54.5t-63.5 154.5zM784 1729q0 -63 34 -94t85 -31q53 0 85 35.5t32 89.5q0 63 -33 93.5t-84 30.5q-49 0 -84 -32.5t-35 -91.5z" />
<glyph unicode="&#xc6;" horiz-adv-x="1517" d="M-137 0l10 53l170 78l750 1286h878l-61 -383h-51l-64 234h-428l-74 -475h299l103 192h45l-84 -530h-45l-41 188h-301l-78 -491h448l166 233h51l-92 -385h-962l8 53l192 76l82 516h-266l-4 -4l-276 -508l151 -80l-8 -53h-518zM598 793h209l78 495h-2z" />
<glyph unicode="&#xc7;" horiz-adv-x="1126" d="M72 688q25 160 100.5 297t187 238.5t253 159t298.5 57.5q59 0 104.5 -2t85.5 -10.5t80 -21.5t91 -36l-2 -4h4l-55 -354h-58l-57 262q-43 12 -100.5 17t-122.5 5q-125 0 -230.5 -48t-185.5 -129t-131 -189.5t-70 -229.5q-20 -127 1.5 -232.5t82 -182t154.5 -119.5t221 -43 q61 0 102 11t90 28l170 260h54l-80 -338q-8 -6 -21 -10q-94 -43 -177 -70t-181 -27q-147 0 -270 49.5t-206 141.5t-120 224t-12 296zM559 -510q0 -2 3 14.5t7 36t8 36.5l3 17l47 6q29 3 56.5 14t48 33.5t20.5 59.5q0 31 -14.5 49.5t-36 27.5t-44 11t-39.5 2q-6 0 -13 -1 t-13 -1h-17l15 117q16 2 28 2h31q27 0 70 -3t84 -20.5t70.5 -54.5t29.5 -106q0 -74 -36 -120t-88 -74t-112.5 -37t-107.5 -9z" />
<glyph unicode="&#xc8;" horiz-adv-x="1046" d="M-29 0l6 53l195 76l180 1159l-170 76l6 53h949l-60 -383h-51l-63 234h-428l-74 -475h299l102 192h45l-82 -530h-45l-43 188h-301l-76 -491h449l166 233h51l-92 -385h-963zM381 1806l164 80l219 -334l-100 -43z" />
<glyph unicode="&#xc9;" horiz-adv-x="1046" d="M-29 0l6 53l195 76l180 1159l-170 76l6 53h949l-60 -383h-51l-63 234h-428l-74 -475h299l102 192h45l-82 -530h-45l-43 188h-301l-76 -491h449l166 233h51l-92 -385h-963zM541 1552l211 334l163 -80l-274 -297z" />
<glyph unicode="&#xca;" horiz-adv-x="1046" d="M-29 0l6 53l195 76l180 1159l-170 76l6 53h949l-60 -383h-51l-63 234h-428l-74 -475h299l102 192h45l-82 -530h-45l-43 188h-301l-76 -491h449l166 233h51l-92 -385h-963zM494 1569l241 317h156l129 -317l-107 -33l-120 231l-205 -229z" />
<glyph unicode="&#xcb;" horiz-adv-x="1046" d="M-29 0l6 53l195 76l180 1159l-170 76l6 53h949l-60 -383h-51l-63 234h-428l-74 -475h299l102 192h45l-82 -530h-45l-43 188h-301l-76 -491h449l166 233h51l-92 -385h-963zM225 1675q0 113 129 113q127 0 127 -109q0 -115 -127 -114q-129 -1 -129 110zM702 1671 q0 113 129 113q127 0 127 -109q0 -115 -127 -114q-129 -1 -129 110z" />
<glyph unicode="&#xcc;" horiz-adv-x="636" d="M-29 0l6 53l195 76l180 1159l-170 74l6 53h543l-6 -53l-193 -74l-180 -1159l168 -76l-6 -53h-543zM162 1808l164 80l211 -334l-101 -43z" />
<glyph unicode="&#xcd;" horiz-adv-x="636" d="M-29 0l6 53l195 76l180 1159l-170 74l6 53h543l-6 -53l-193 -74l-180 -1159l168 -76l-6 -53h-543zM373 1554l219 334l164 -80l-283 -297z" />
<glyph unicode="&#xce;" horiz-adv-x="636" d="M-29 0l6 53l195 76l180 1159l-170 74l6 53h543l-6 -53l-193 -74l-180 -1159l168 -76l-6 -53h-543zM215 1573l242 317h155l129 -317l-106 -33l-121 232l-205 -230z" />
<glyph unicode="&#xcf;" horiz-adv-x="636" d="M-29 0l6 53l195 76l180 1159l-170 74l6 53h543l-6 -53l-193 -74l-180 -1159l168 -76l-6 -53h-543zM133 1702q0 113 129 113q127 0 127 -109q0 -115 -127 -115q-129 0 -129 111zM610 1698q0 113 129 112q127 0 127 -108q0 -115 -127 -115q-129 0 -129 111z" />
<glyph unicode="&#xd0;" horiz-adv-x="1509" d="M51 2l8 53l195 76l80 520h-172l24 150h172l78 499l-170 76l8 54h598q168 0 301.5 -36t221.5 -115t123.5 -204t7.5 -303q-29 -182 -110 -324.5t-203.5 -243t-278.5 -152.5t-332 -52q-131 0 -276.5 -1t-274.5 3zM434 139q37 -2 92 -2h90q143 0 264 40t214.5 119t156 195.5 t86.5 270.5q23 147 -4.5 247.5t-98.5 162t-180.5 89t-250.5 27.5q-27 0 -59.5 -1t-61.5 -1h-68l-75 -485h311l-25 -150h-311z" />
<glyph unicode="&#xd1;" horiz-adv-x="1331" d="M-29 0l6 53l191 74l182 1161l-168 76l6 53l381 -2l457 -948q18 -41 35 -85l30 -82q13 -38 21 -64.5t8 -32.5q0 2 5 39l12 85q6 48 13 97l11 76l123 788l-166 76l6 53h521l-7 -53l-194 -76l-199 -1288h-209l-448 950q-20 41 -38 85t-30 81l-20 64q-8 27 -11 30l-3 -27 l-7 -65q-4 -37 -9 -77t-9 -64l-133 -848l168 -76l-7 -53h-518zM596 1546q10 39 27.5 76t43 65.5t60.5 46t80 17.5q57 0 97 -14.5t71 -32.5l57.5 -32.5t54.5 -14.5q45 0 69 30.5t38 77.5l94 -24q-12 -41 -29.5 -78t-42 -65.5t-58.5 -46t-81 -17.5q-57 0 -94 14.5t-66.5 32.5 l-55 32.5t-60.5 14.5q-41 0 -70 -34.5t-35 -71.5z" />
<glyph unicode="&#xd2;" horiz-adv-x="1193" d="M74 707q25 160 102.5 294t189 232t245.5 152.5t274 54.5q147 0 262 -52.5t187.5 -148.5t100 -231.5t1.5 -300.5q-25 -160 -96.5 -293t-176 -230.5t-235.5 -152t-273 -54.5q-147 0 -266 52.5t-196.5 147.5t-110.5 230.5t-8 299.5zM264 711q-18 -127 1.5 -234.5 t73.5 -186.5t140 -124t199 -45q111 0 207 46t170.5 125t125 184.5t68.5 225.5q18 123 2 231.5t-65 188.5t-132 127t-200 47q-104 0 -201.5 -42t-176.5 -118.5t-135.5 -184t-76.5 -240.5zM649 1825l164 80l219 -334l-100 -43z" />
<glyph unicode="&#xd3;" horiz-adv-x="1193" d="M74 707q25 160 102.5 294t189 232t245.5 152.5t274 54.5q147 0 262 -52.5t187.5 -148.5t100 -231.5t1.5 -300.5q-25 -160 -96.5 -293t-176 -230.5t-235.5 -152t-273 -54.5q-147 0 -266 52.5t-196.5 147.5t-110.5 230.5t-8 299.5zM264 711q-18 -127 1.5 -234.5 t73.5 -186.5t140 -124t199 -45q111 0 207 46t170.5 125t125 184.5t68.5 225.5q18 123 2 231.5t-65 188.5t-132 127t-200 47q-104 0 -201.5 -42t-176.5 -118.5t-135.5 -184t-76.5 -240.5zM854 1561l211 333l164 -79l-275 -297z" />
<glyph unicode="&#xd4;" horiz-adv-x="1193" d="M74 707q25 160 102.5 294t189 232t245.5 152.5t274 54.5q147 0 262 -52.5t187.5 -148.5t100 -231.5t1.5 -300.5q-25 -160 -96.5 -293t-176 -230.5t-235.5 -152t-273 -54.5q-147 0 -266 52.5t-196.5 147.5t-110.5 230.5t-8 299.5zM264 711q-18 -127 1.5 -234.5 t73.5 -186.5t140 -124t199 -45q111 0 207 46t170.5 125t125 184.5t68.5 225.5q18 123 2 231.5t-65 188.5t-132 127t-200 47q-104 0 -201.5 -42t-176.5 -118.5t-135.5 -184t-76.5 -240.5zM680 1581l242 317h155l129 -317l-106 -33l-121 232l-205 -230z" />
<glyph unicode="&#xd5;" horiz-adv-x="1193" d="M74 707q25 160 102.5 294t189 232t245.5 152.5t274 54.5q147 0 262 -52.5t187.5 -148.5t100 -231.5t1.5 -300.5q-25 -160 -96.5 -293t-176 -230.5t-235.5 -152t-273 -54.5q-147 0 -266 52.5t-196.5 147.5t-110.5 230.5t-8 299.5zM264 711q-18 -127 1.5 -234.5 t73.5 -186.5t140 -124t199 -45q111 0 207 46t170.5 125t125 184.5t68.5 225.5q18 123 2 231.5t-65 188.5t-132 127t-200 47q-104 0 -201.5 -42t-176.5 -118.5t-135.5 -184t-76.5 -240.5zM598 1573q10 39 27.5 76t43 65.5t60.5 46t80 17.5q57 0 97 -14.5t71 -33l57.5 -33 t55.5 -14.5q45 0 68.5 31t37.5 78l94 -25q-12 -41 -29.5 -77.5t-42 -65.5t-58.5 -46t-81 -17q-57 0 -94 14t-66.5 32.5t-55 33t-60.5 14.5q-41 0 -69.5 -35t-35.5 -72z" />
<glyph unicode="&#xd6;" horiz-adv-x="1193" d="M74 707q25 160 102.5 294t189 232t245.5 152.5t274 54.5q147 0 262 -52.5t187.5 -148.5t100 -231.5t1.5 -300.5q-25 -160 -96.5 -293t-176 -230.5t-235.5 -152t-273 -54.5q-147 0 -266 52.5t-196.5 147.5t-110.5 230.5t-8 299.5zM264 711q-18 -127 1.5 -234.5 t73.5 -186.5t140 -124t199 -45q111 0 207 46t170.5 125t125 184.5t68.5 225.5q18 123 2 231.5t-65 188.5t-132 127t-200 47q-104 0 -201.5 -42t-176.5 -118.5t-135.5 -184t-76.5 -240.5zM397 1704q0 113 129 113q127 0 127 -109q0 -115 -127 -115q-129 0 -129 111zM874 1700 q0 113 130 112q127 0 126 -108q0 -115 -126 -115q-130 0 -130 111z" />
<glyph unicode="&#xd7;" horiz-adv-x="1216" d="M119 143l379 371l-373 369l119 104l362 -362l365 366l108 -96l-370 -373l370 -370l-118 -109l-367 369l-367 -369z" />
<glyph unicode="&#xd8;" horiz-adv-x="1193" d="M63 698q-2 160 53.5 295t149.5 233.5t219 155t265 58.5q117 2 219 -31t184 -96l154 194l86 -47l-166 -209q92 -96 144 -231t54 -305q2 -160 -50 -294t-144 -232.5t-217 -153.5t-266 -58q-125 -2 -232.5 34t-193.5 106l-168 -213l-82 47l182 227q-88 94 -138.5 226 t-52.5 294zM252 705q4 -231 110 -388l689 869q-59 53 -135 82.5t-171 27.5q-104 -2 -194 -45t-157.5 -119.5t-105.5 -185t-36 -241.5zM426 244q61 -59 141 -92t178 -31q111 2 203 48t156.5 126t99.5 186.5t33 227.5q-2 119 -32.5 222t-88.5 181z" />
<glyph unicode="&#xd9;" horiz-adv-x="1331" d="M88 1364l6 53h541l-6 -53l-195 -76l-123 -794q-31 -184 34 -278.5t255 -94.5q104 0 179 30.5t126 87t82 134.5t47 172q18 129 39 258l37 239l39 246l-164 76l6 53h525l-7 -53l-194 -76l-38 -241l-36 -236l-39 -250q-23 -139 -69 -246.5t-122.5 -183.5t-184 -115 t-251.5 -39q-276 0 -381.5 136.5t-60.5 404.5q18 131 41 266l40 251l40 253zM465 1804l164 80l219 -334l-100 -43z" />
<glyph unicode="&#xda;" horiz-adv-x="1331" d="M88 1364l6 53h541l-6 -53l-195 -76l-123 -794q-31 -184 34 -278.5t255 -94.5q104 0 179 30.5t126 87t82 134.5t47 172q18 129 39 258l37 239l39 246l-164 76l6 53h525l-7 -53l-194 -76l-38 -241l-36 -236l-39 -250q-23 -139 -69 -246.5t-122.5 -183.5t-184 -115 t-251.5 -39q-276 0 -381.5 136.5t-60.5 404.5q18 131 41 266l40 251l40 253zM639 1550l211 334l164 -80l-275 -297z" />
<glyph unicode="&#xdb;" horiz-adv-x="1331" d="M88 1364l6 53h541l-6 -53l-195 -76l-123 -794q-31 -184 34 -278.5t255 -94.5q104 0 179 30.5t126 87t82 134.5t47 172q18 129 39 258l37 239l39 246l-164 76l6 53h525l-7 -53l-194 -76l-38 -241l-36 -236l-39 -250q-23 -139 -69 -246.5t-122.5 -183.5t-184 -115 t-251.5 -39q-276 0 -381.5 136.5t-60.5 404.5q18 131 41 266l40 251l40 253zM455 1538l194 317h156l176 -317l-102 -33l-156 232l-170 -230z" />
<glyph unicode="&#xdc;" horiz-adv-x="1331" d="M88 1364l6 53h541l-6 -53l-195 -76l-123 -794q-31 -184 34 -278.5t255 -94.5q104 0 179 30.5t126 87t82 134.5t47 172q18 129 39 258l37 239l39 246l-164 76l6 53h525l-7 -53l-194 -76l-38 -241l-36 -236l-39 -250q-23 -139 -69 -246.5t-122.5 -183.5t-184 -115 t-251.5 -39q-276 0 -381.5 136.5t-60.5 404.5q18 131 41 266l40 251l40 253zM340 1706q0 113 129 113q127 0 127 -109q0 -115 -127 -115q-129 0 -129 111zM817 1702q0 113 129 113q127 0 127 -109q0 -115 -127 -115q-129 0 -129 111z" />
<glyph unicode="&#xdd;" horiz-adv-x="1273" d="M10 1362l6 53h529l-6 -53l-162 -76l176 -321q39 -72 61.5 -120t24.5 -54q0 2 14 19l36 43l49 58l57 66l266 301l6 8l-137 76l6 53h512l-6 -53l-170 -76l-570 -624l-81 -533l217 -76l-7 -53h-638l6 53l241 76l80 518l-362 639zM612 1559l211 333l164 -80l-274 -296z" />
<glyph unicode="&#xde;" horiz-adv-x="665" d="M51 0l8 53l193 76l182 1159l-170 74l8 53h543l-8 -53l-193 -74l-24 -162l244 2h71q45 0 95.5 -9t98.5 -30.5t84 -64.5t51 -112.5t-1 -172.5q-20 -131 -79.5 -216t-140.5 -134t-175.5 -68.5t-184.5 -19.5h-194l-27 -172l170 -76l-8 -53h-543zM481 434h176q63 0 126 11.5 t117 44t93 91t56 154.5q14 92 -7.5 145.5t-63.5 82t-96.5 37t-105.5 8.5q-59 0 -120.5 -1t-86.5 -3z" />
<glyph unicode="&#xdf;" horiz-adv-x="1046" d="M-299 0l8 53l191 76l118 752h-182l21 77l184 62l18 108q14 94 47 174t88.5 137.5t136.5 89.5t191 32q59 0 111.5 -14.5t89.5 -45.5t55.5 -78t7.5 -112q-12 -82 -53 -134.5t-86 -93.5t-83 -79.5t-46 -94.5q-8 -51 17.5 -92t67.5 -79t91 -75.5t90 -82.5t64.5 -100.5 t11.5 -127.5q-18 -111 -63 -184.5t-102.5 -115.5t-118 -54t-109.5 -2q-129 16 -225 84l39 260h53l47 -178q16 -10 24.5 -17.5t17.5 -12.5t23.5 -8t42.5 -3q92 4 134.5 56t60.5 165q8 55 -15.5 99t-64.5 82t-89 76t-88 80t-62.5 94t-12.5 120q10 63 47 109.5t79 88.5t80 89 t48 114q10 66 -20.5 104t-96.5 40q-25 4 -39 -2t-49 -17q-88 -35 -124.5 -121t-53.5 -190l-172 -1108h-350z" />
<glyph unicode="&#xe0;" horiz-adv-x="1224" d="M72.5 287q-9.5 90 7.5 188q14 100 58 201.5t115 183.5t169 132t225 50q94 0 147.5 -24.5t102.5 -73.5l174 76l-131 -852q2 -25 6 -38t25 -13q12 0 30.5 16.5t40 41t42.5 52.5l40 52q10 -8 18.5 -15.5t18.5 -15.5q-23 -53 -55.5 -103.5t-73.5 -91.5q-39 -41 -80 -50 t-82 -9q-45 0 -75.5 17.5t-32.5 51.5v25q0 16 4 41q-72 -68 -162 -110t-182 -42q-115 0 -188.5 41t-112.5 110t-48.5 159zM253 342q5 -68 30.5 -121t74 -86t121.5 -33q92 0 173 59.5t139 135.5l73 487q-33 68 -91 101t-132 33q-88 0 -154.5 -44.5t-113.5 -111t-76 -143 t-39 -140.5q-10 -69 -5 -137zM455 1483l163 80l211 -334l-100 -43z" />
<glyph unicode="&#xe1;" horiz-adv-x="1224" d="M72.5 287q-9.5 90 7.5 188q14 100 58 201.5t115 183.5t169 132t225 50q94 0 147.5 -24.5t102.5 -73.5l174 76l-131 -852q2 -25 6 -38t25 -13q12 0 30.5 16.5t40 41t42.5 52.5l40 52q10 -8 18.5 -15.5t18.5 -15.5q-23 -53 -55.5 -103.5t-73.5 -91.5q-39 -41 -80 -50 t-82 -9q-45 0 -75.5 17.5t-32.5 51.5v25q0 16 4 41q-72 -68 -162 -110t-182 -42q-115 0 -188.5 41t-112.5 110t-48.5 159zM253 342q5 -68 30.5 -121t74 -86t121.5 -33q92 0 173 59.5t139 135.5l73 487q-33 68 -91 101t-132 33q-88 0 -154.5 -44.5t-113.5 -111t-76 -143 t-39 -140.5q-10 -69 -5 -137zM569 1227l211 334l164 -80l-274 -297z" />
<glyph unicode="&#xe2;" horiz-adv-x="1224" d="M72.5 287q-9.5 90 7.5 188q14 100 58 201.5t115 183.5t169 132t225 50q94 0 147.5 -24.5t102.5 -73.5l174 76l-131 -852q2 -25 6 -38t25 -13q12 0 30.5 16.5t40 41t42.5 52.5l40 52q10 -8 18.5 -15.5t18.5 -15.5q-23 -53 -55.5 -103.5t-73.5 -91.5q-39 -41 -80 -50 t-82 -9q-45 0 -75.5 17.5t-32.5 51.5v25q0 16 4 41q-72 -68 -162 -110t-182 -42q-115 0 -188.5 41t-112.5 110t-48.5 159zM253 342q5 -68 30.5 -121t74 -86t121.5 -33q92 0 173 59.5t139 135.5l73 487q-33 68 -91 101t-132 33q-88 0 -154.5 -44.5t-113.5 -111t-76 -143 t-39 -140.5q-10 -69 -5 -137zM418 1223l241 317h156l129 -317l-106 -33l-121 231l-205 -229z" />
<glyph unicode="&#xe3;" horiz-adv-x="1224" d="M72.5 287q-9.5 90 7.5 188q14 100 58 201.5t115 183.5t169 132t225 50q94 0 147.5 -24.5t102.5 -73.5l174 76l-131 -852q2 -25 6 -38t25 -13q12 0 30.5 16.5t40 41t42.5 52.5l40 52q10 -8 18.5 -15.5t18.5 -15.5q-23 -53 -55.5 -103.5t-73.5 -91.5q-39 -41 -80 -50 t-82 -9q-45 0 -75.5 17.5t-32.5 51.5v25q0 16 4 41q-72 -68 -162 -110t-182 -42q-115 0 -188.5 41t-112.5 110t-48.5 159zM253 342q5 -68 30.5 -121t74 -86t121.5 -33q92 0 173 59.5t139 135.5l73 487q-33 68 -91 101t-132 33q-88 0 -154.5 -44.5t-113.5 -111t-76 -143 t-39 -140.5q-10 -69 -5 -137zM311 1204q10 39 27.5 76t43.5 65.5t60.5 46t79.5 17.5q57 0 97 -14.5t71 -33t57.5 -32.5t55.5 -14q45 0 68.5 30.5t37.5 77.5l95 -24q-12 -41 -30 -78t-42.5 -65.5t-58 -46t-80.5 -17.5q-57 0 -94 14.5t-67 32.5l-55.5 32.5t-60.5 14.5 q-41 0 -69.5 -34.5t-34.5 -71.5z" />
<glyph unicode="&#xe4;" horiz-adv-x="1224" d="M72.5 287q-9.5 90 7.5 188q14 100 58 201.5t115 183.5t169 132t225 50q94 0 147.5 -24.5t102.5 -73.5l174 76l-131 -852q2 -25 6 -38t25 -13q12 0 30.5 16.5t40 41t42.5 52.5l40 52q10 -8 18.5 -15.5t18.5 -15.5q-23 -53 -55.5 -103.5t-73.5 -91.5q-39 -41 -80 -50 t-82 -9q-45 0 -75.5 17.5t-32.5 51.5v25q0 16 4 41q-72 -68 -162 -110t-182 -42q-115 0 -188.5 41t-112.5 110t-48.5 159zM253 342q5 -68 30.5 -121t74 -86t121.5 -33q92 0 173 59.5t139 135.5l73 487q-33 68 -91 101t-132 33q-88 0 -154.5 -44.5t-113.5 -111t-76 -143 t-39 -140.5q-10 -69 -5 -137zM365 1288q0 113 129 113q127 0 127 -109q0 -115 -127 -114q-129 -1 -129 110zM842 1284q0 113 129 113q127 0 127 -109q0 -115 -127 -114q-129 -1 -129 110z" />
<glyph unicode="&#xe5;" horiz-adv-x="1224" d="M72.5 287q-9.5 90 7.5 188q14 100 58 201.5t115 183.5t169 132t225 50q94 0 147.5 -24.5t102.5 -73.5l174 76l-131 -852q2 -25 6 -38t25 -13q12 0 30.5 16.5t40 41t42.5 52.5l40 52q10 -8 18.5 -15.5t18.5 -15.5q-23 -53 -55.5 -103.5t-73.5 -91.5q-39 -41 -80 -50 t-82 -9q-45 0 -75.5 17.5t-32.5 51.5v25q0 16 4 41q-72 -68 -162 -110t-182 -42q-115 0 -188.5 41t-112.5 110t-48.5 159zM253 342q5 -68 30.5 -121t74 -86t121.5 -33q92 0 173 59.5t139 135.5l73 487q-33 68 -91 101t-132 33q-88 0 -154.5 -44.5t-113.5 -111t-76 -143 t-39 -140.5q-10 -69 -5 -137zM440 1331q0 90 62.5 149.5t161.5 59.5q98 0 157.5 -54t59.5 -155q0 -90 -60.5 -149.5t-158.5 -59.5q-94 0 -158 54.5t-64 154.5zM543 1331q0 -63 33.5 -94t85.5 -31q53 0 84.5 36t31.5 89q0 63 -32.5 94t-83.5 31q-49 0 -84 -33t-35 -92z" />
<glyph unicode="&#xe6;" horiz-adv-x="1652" d="M102 274q20 109 90 174.5t163.5 102.5t195.5 53.5t188 24.5q4 8 4 10q2 10 5.5 29.5t7.5 38.5q4 23 10 45q6 37 -5 67.5t-36 54t-57.5 37t-69.5 13.5q-66 0 -118 -10.5t-111 -47.5l-107 -176h-53l43 234h2q53 35 99 59.5t93.5 39.5t98.5 22.5t117 7.5q86 0 157.5 -39 t100.5 -107q63 59 143 95t174 40q137 6 218 -35.5t112.5 -110.5t18.5 -153t-64 -159q-35 -51 -105.5 -88t-160 -60.5t-188.5 -30t-194 4.5q-2 -51 2.5 -103.5t26 -95.5t66.5 -69.5t125 -26.5q86 0 167.5 31.5t151.5 91.5l78 -88q-94 -80 -191.5 -126.5t-214.5 -46.5 q-131 0 -218 45.5t-140 151.5q-35 -33 -82 -67.5t-100 -63.5t-106.5 -47.5t-98.5 -18.5q-135 0 -198 80t-40 217zM268 276q-16 -86 22 -132t122 -46q76 0 140 47.5t120 100.5l26 153q4 53 13 109v8q-63 -4 -135 -14t-135.5 -35t-111 -70t-61.5 -121zM889 553q66 0 144.5 4 t150 17.5t127 37t75.5 62.5q18 47 17.5 90t-21 74.5t-62.5 50t-108 18.5t-119 -33.5t-92.5 -86t-67.5 -115t-44 -119.5z" />
<glyph unicode="&#xe7;" horiz-adv-x="763" d="M71 327q-3 34 -3 65q0 55 8 106q16 104 65.5 201.5t124 174t169.5 122.5t204 46q80 0 156.5 -16t160.5 -90l-40 -248h-54l-49 178q-41 29 -88 40.5t-96 11.5q-80 0 -144.5 -37t-111.5 -96.5t-77 -134.5t-42 -152q-5 -38 -5 -75q0 -33 4 -67q9 -70 41 -125t87 -90t135 -35 q72 0 131.5 29t118.5 82l82 -86q-72 -63 -163 -108.5t-216 -45.5q-139 0 -223 51.5t-126 129.5t-49 169zM474.043 -447.472q0 -1.68457 4.22852 12.21t10.9951 30.3154q6.76562 16.4209 10.9951 30.7373l5.07422 14.3154l39.751 5.05273q24.5273 2.52637 49.4775 11.7891 q24.9502 9.26367 44.8252 28.2109q19.876 18.9473 24.9502 50.1045q5.07422 26.1055 -5.07422 41.6846q-10.1494 15.5791 -26.6416 23.1572q-16.4932 7.5791 -35.5225 9.26367t-33.4082 1.68457q-5.07422 0 -10.9941 -0.842773q-5.9209 -0.841797 -10.9951 -0.841797 h-14.3779l27.9102 98.5254q13.5322 1.68457 24.5273 1.68457h25.373q22.835 0 58.3574 -2.52637q35.5215 -2.52637 68.5068 -17.2627q32.9844 -14.7373 52.8604 -45.8945q19.875 -31.1582 11.418 -89.2627q-10.1494 -62.3164 -46.9404 -101.053t-84.999 -62.3154 q-48.209 -23.5791 -99.377 -31.1582q-51.1689 -7.57812 -90.9199 -7.57812z" />
<glyph unicode="&#xe8;" horiz-adv-x="802" d="M63.5 301q-10.5 96 8.5 207q14 100 58 194.5t112.5 168t157.5 120.5t198 51q137 6 218 -35.5t113 -110.5t18.5 -153t-64.5 -159q-35 -51 -105.5 -88t-160 -60.5t-188.5 -30t-193 4.5q-2 -51 2 -103.5t25.5 -95.5t66.5 -69.5t125 -26.5q86 0 168 31.5t151 91.5l78 -88 q-94 -80 -191.5 -126.5t-214.5 -46.5q-125 0 -205.5 42t-123.5 114t-53.5 168zM250 553q66 0 144.5 4t150 17.5t127 37t76.5 62.5q18 47 17 90t-21.5 74.5t-62.5 50t-108 18.5t-119 -33.5t-92.5 -86t-67.5 -115t-44 -119.5zM360 1477l164 79l219 -333l-100 -43z" />
<glyph unicode="&#xe9;" horiz-adv-x="802" d="M63.5 301q-10.5 96 8.5 207q14 100 58 194.5t112.5 168t157.5 120.5t198 51q137 6 218 -35.5t113 -110.5t18.5 -153t-64.5 -159q-35 -51 -105.5 -88t-160 -60.5t-188.5 -30t-193 4.5q-2 -51 2 -103.5t25.5 -95.5t66.5 -69.5t125 -26.5q86 0 168 31.5t151 91.5l78 -88 q-94 -80 -191.5 -126.5t-214.5 -46.5q-125 0 -205.5 42t-123.5 114t-53.5 168zM250 553q66 0 144.5 4t150 17.5t127 37t76.5 62.5q18 47 17 90t-21.5 74.5t-62.5 50t-108 18.5t-119 -33.5t-92.5 -86t-67.5 -115t-44 -119.5zM455 1227l211 334l163 -80l-274 -297z" />
<glyph unicode="&#xea;" horiz-adv-x="802" d="M66 301q-4 34 -4 71q0 65 12 136q14 100 58 194.5t112.5 168t158 120.5t197.5 51q18 1 34 1q113 0 184 -36q81 -42 113 -111q22 -48 22 -104q0 -23 -4 -49q-13 -84 -64 -159q-35 -51 -105.5 -88t-160 -60.5t-188.5 -29.5q-37 -2 -74 -3q-61 0 -119 7q-1 -17 -1 -35 q0 -34 3 -69q4 -52 25.5 -95t66.5 -69.5t125 -26.5q86 0 168 31.5t151 91.5l78 -88q-94 -80 -191.5 -126.5t-213.5 -46.5q-125 0 -206 42t-124 114t-53 168zM252 553q66 0 144.5 4t150.5 17.5t127 37t76 62.5q17 45 17 85q0 46 -21 80q-20 32 -62.5 50t-107.5 18 q-66 0 -119 -33.5t-93 -86t-68 -115t-44 -119.5zM488 1196l243 317h156l127 -317l-109 -33l-118 232l-205 -230z" />
<glyph unicode="&#xeb;" horiz-adv-x="802" d="M66 301q-4 34 -4 71q0 65 12 136q14 100 58 194.5t112.5 168t158 120.5t197.5 51q18 1 34 1q113 0 184 -36q81 -42 113 -111q22 -48 22 -104q0 -23 -4 -49q-13 -84 -64 -159q-35 -51 -105.5 -88t-160 -60.5t-188.5 -29.5q-37 -2 -74 -3q-61 0 -119 7q-1 -17 -1 -35 q0 -34 3 -69q4 -52 25.5 -95t66.5 -69.5t125 -26.5q86 0 168 31.5t151 91.5l78 -88q-94 -80 -191.5 -126.5t-213.5 -46.5q-125 0 -206 42t-124 114t-53 168zM252 553q66 0 144.5 4t150.5 17.5t127 37t76 62.5q17 45 17 85q0 46 -21 80q-20 32 -62.5 50t-107.5 18 q-66 0 -119 -33.5t-93 -86t-68 -115t-44 -119.5zM314 1276q18 113 147 112q125 0 111 -108q-18 -115 -146 -115t-112 111zM791 1272q18 113 147 112q127 0 109 -108q-18 -115 -143 -115q-131 0 -113 111z" />
<glyph unicode="&#xec;" horiz-adv-x="598" d="M33 807q41 111 129 192q39 41 79 51.5t81 10.5q45 0 79.5 -17.5t38.5 -52.5q2 -12 1 -25.5t-4 -42t-10 -79.5t-21 -139l-37 -219l-54 -316q2 -25 5.5 -38t23.5 -13q12 0 30.5 16.5t41 41t44.5 52.5l40 52q10 -8 18 -15.5t19 -15.5q-23 -53 -55.5 -103.5t-73.5 -91.5 t-81 -50t-81 -9q-45 0 -80 17.5t-37 52.5q2 14 3 31.5t6 47.5l14 83l21 138l33 212l48 307q-2 27 -5 40t-24 13q-12 0 -30.5 -17.5t-41 -42t-43.5 -52.5l-40 -50l-19 16zM131 1462l164 80l211 -334l-100 -43z" />
<glyph unicode="&#xed;" horiz-adv-x="598" d="M33 807q41 111 129 192q39 41 79 51.5t81 10.5q45 0 79.5 -17.5t38.5 -52.5q2 -12 1 -25.5t-4 -42t-10 -79.5t-21 -139l-37 -219l-54 -316q2 -25 5.5 -38t23.5 -13q12 0 30.5 16.5t41 41t44.5 52.5l40 52q10 -8 18 -15.5t19 -15.5q-23 -53 -55.5 -103.5t-73.5 -91.5 t-81 -50t-81 -9q-45 0 -80 17.5t-37 52.5q2 14 3 31.5t6 47.5l14 83l21 138l33 212l48 307q-2 27 -5 40t-24 13q-12 0 -30.5 -17.5t-41 -42t-43.5 -52.5l-40 -50l-19 16zM289 1217l219 333l164 -80l-283 -296z" />
<glyph unicode="&#xee;" horiz-adv-x="598" d="M33 807q41 111 129 192q39 41 79 51.5t81 10.5q45 0 79.5 -17.5t38.5 -52.5q2 -12 1 -25.5t-4 -42t-10 -79.5t-21 -139l-37 -219l-54 -316q2 -25 5.5 -38t23.5 -13q12 0 30.5 16.5t41 41t44.5 52.5l40 52q10 -8 18 -15.5t19 -15.5q-23 -53 -55.5 -103.5t-73.5 -91.5 t-81 -50t-81 -9q-45 0 -80 17.5t-37 52.5q2 14 3 31.5t6 47.5l14 83l21 138l33 212l48 307q-2 27 -5 40t-24 13q-12 0 -30.5 -17.5t-41 -42t-43.5 -52.5l-40 -50l-19 16zM104 1223l244 317h156l127 -317l-109 -33l-119 231l-204 -229z" />
<glyph unicode="&#xef;" horiz-adv-x="598" d="M43 1313q18 113 147 112q125 0 111 -108q-18 -115 -145 -115q-129 0 -113 111zM86 807q41 111 129 192q39 41 79 51.5t81 10.5q45 0 79.5 -17.5t39.5 -52.5v-26q0 -12 -3.5 -41t-10.5 -80t-21 -139l-37 -219l-53 -316q2 -25 5 -38t23 -13q12 0 30.5 16.5t41.5 41t44 52.5 l40 52l18 -16l19 -15q-23 -53 -55.5 -103.5t-73.5 -91.5t-81 -50t-81 -9q-45 0 -80 17.5t-37 52.5q2 14 3 31.5t6 47.5l14 83l21 138l33 212l48 307q-2 27 -5 40t-23 13q-12 0 -31 -17.5t-41.5 -42t-43.5 -52.5l-40 -50l-19 16zM520 1309q18 113 148 112q127 0 108 -108 q-18 -115 -143 -115q-131 0 -113 111z" />
<glyph unicode="&#xf0;" horiz-adv-x="1218" d="M187.5 300q-13.5 97 5.5 210q16 104 66 200.5t125 169t173 116.5t211 44q160 0 248 -94q-31 199 -139 322l-281 -142l-37 97l240 118q-49 37 -109.5 67t-132.5 52l84 111q94 -27 170 -66t135 -90l316 158l36 -94l-276 -140q119 -143 152.5 -338.5t-0.5 -420.5 q-47 -291 -205 -447t-385 -156q-121 0 -204 41t-131 113t-61.5 169zM363.5 365.5q3.5 -72.5 28 -132t75.5 -96.5t137 -37q82 0 147.5 37t112.5 96.5t77 132t40 144.5q12 70 9 143.5t-28.5 132t-76.5 96.5t-135 38t-148.5 -38t-113 -96.5t-77 -132t-40.5 -143.5 q-11 -72 -7.5 -144.5z" />
<glyph unicode="&#xf1;" horiz-adv-x="1087" d="M31 778q41 111 129 193q39 41 79 51t81 10q45 0 82 -16.5t37 -52.5q0 -8 -1.5 -12.5t-2.5 -11.5t-4 -22.5t-7 -46.5q72 70 160 121t180 51q156 0 233 -70q57 -52 57 -152q0 -34 -7 -75l-88 -575q2 -25 5 -38t23 -13q12 0 31 16.5t41.5 41t43.5 52.5l40 52 q10 -8 18.5 -15.5t18.5 -15.5q-23 -53 -55.5 -103.5t-73.5 -91.5t-81 -50t-81 -9q-45 0 -80 17.5t-37 52.5l4 32l5.5 44t10.5 71l18 113l28 170l39 243q2 16 2 30q0 30 -9 50q-13 31 -39 48.5t-56.5 23.5t-57.5 6q-49 0 -92 -17.5t-82 -45t-75 -61.5t-68 -68l-113 -707h-172 l141 858q-2 27 -7 40t-26 13q-12 0 -30.5 -17.5t-41 -42t-43.5 -51.5l-40 -50l-19 15zM473 1204q16 39 39.5 76t54.5 65.5t67.5 46t81.5 17.5q57 0 94.5 -14.5t65.5 -32.5l52 -33q24 -14 53 -14q45 0 73.5 30.5t51.5 77.5l90 -24q-18 -41 -41 -78t-52.5 -65.5t-66.5 -46 t-84 -17.5q-57 0 -92 14t-61.5 32.5t-50 33t-58.5 14.5q-41 0 -75 -35t-46 -71z" />
<glyph unicode="&#xf2;" horiz-adv-x="929" d="M72.5 300q-15.5 97 1.5 210q16 106 66 202.5t126 170t174.5 116.5t210.5 43q121 0 204 -40.5t130 -112.5t60.5 -169t-5.5 -210q-16 -109 -63 -205t-120 -169t-168 -116t-208 -43q-121 0 -206 41t-136 113t-66.5 169zM248 365.5q6 -72.5 34.5 -131t82 -95.5t139.5 -37 q82 0 144.5 37t106.5 95.5t70.5 131t36.5 144.5q12 70 9 142.5t-28.5 132t-76.5 96.5t-135 37t-148.5 -37t-112.5 -96.5t-77 -132t-41 -142.5q-10 -72 -4 -144.5zM379 1483l164 80l219 -334l-100 -43z" />
<glyph unicode="&#xf3;" horiz-adv-x="929" d="M72.5 300q-15.5 97 1.5 210q16 106 66 202.5t126 170t174.5 116.5t210.5 43q121 0 204 -40.5t130 -112.5t60.5 -169t-5.5 -210q-16 -109 -63 -205t-120 -169t-168 -116t-208 -43q-121 0 -206 41t-136 113t-66.5 169zM248 365.5q6 -72.5 34.5 -131t82 -95.5t139.5 -37 q82 0 144.5 37t106.5 95.5t70.5 131t36.5 144.5q12 70 9 142.5t-28.5 132t-76.5 96.5t-135 37t-148.5 -37t-112.5 -96.5t-77 -132t-41 -142.5q-10 -72 -4 -144.5zM608 1221l211 333l164 -79l-274 -297z" />
<glyph unicode="&#xf4;" horiz-adv-x="929" d="M75 300q-7 47 -8 98q0 54 9 112q16 106 66.5 202.5t126 170t174 116.5t210.5 43q121 0 204 -40.5t130 -112.5t61 -169q6 -41 5 -84q0 -60 -11 -126q-16 -109 -63 -205t-120 -169t-168 -116t-208 -43q-121 0 -205.5 41t-136 113t-66.5 169zM250 366q6 -73 34.5 -131.5 t82 -95.5t139.5 -37q82 0 144.5 37t106.5 95.5t70.5 131t36.5 144.5q10 56 10 113q0 14 -1 29q-3 73 -28.5 132.5t-76.5 96.5t-135 37t-148.5 -37t-112.5 -96.5t-77 -132t-41 -142.5q-6 -45 -6 -90q0 -27 2 -54zM451 1180l243 317h156l127 -317l-109 -33l-118 232l-205 -230 z" />
<glyph unicode="&#xf5;" horiz-adv-x="929" d="M75 300q-7 47 -8 98q0 54 9 112q16 106 66.5 202.5t126 170t174 116.5t210.5 43q121 0 204 -40.5t130 -112.5t61 -169q6 -41 5 -84q0 -60 -11 -126q-16 -109 -63 -205t-120 -169t-168 -116t-208 -43q-121 0 -205.5 41t-136 113t-66.5 169zM250 366q6 -73 34.5 -131.5 t82 -95.5t139.5 -37q82 0 144.5 37t106.5 95.5t70.5 131t36.5 144.5q10 56 10 113q0 14 -1 29q-3 73 -28.5 132.5t-76.5 96.5t-135 37t-148.5 -37t-112.5 -96.5t-77 -132t-41 -142.5q-6 -45 -6 -90q0 -27 2 -54zM350 1216q16 39 39.5 76t54.5 65.5t67.5 46t81.5 17.5 q57 0 94.5 -14.5t65.5 -32.5l52 -33q24 -14 53 -14q45 0 73.5 30.5t51.5 77.5l90 -24q-18 -41 -41 -78t-52.5 -65.5t-66.5 -46t-84 -17.5q-57 0 -92 14t-61.5 32.5t-50 33t-58.5 14.5q-41 0 -75 -35t-46 -71z" />
<glyph unicode="&#xf6;" horiz-adv-x="929" d="M75 300q-7 47 -8 98q0 54 9 112q16 106 66.5 202.5t126 170t174 116.5t210.5 43q121 0 204 -40.5t130 -112.5t61 -169q6 -41 5 -84q0 -60 -11 -126q-16 -109 -63 -205t-120 -169t-168 -116t-208 -43q-121 0 -205.5 41t-136 113t-66.5 169zM250 366q6 -73 34.5 -131.5 t82 -95.5t139.5 -37q82 0 144.5 37t106.5 95.5t70.5 131t36.5 144.5q10 56 10 113q0 14 -1 29q-3 73 -28.5 132.5t-76.5 96.5t-135 37t-148.5 -37t-112.5 -96.5t-77 -132t-41 -142.5q-6 -45 -6 -90q0 -27 2 -54zM361 1301q18 113 147 112q125 0 111 -108q-18 -115 -146 -115 t-112 111zM838 1297q18 113 147 112q127 0 109 -108q-18 -115 -143 -115q-131 0 -113 111z" />
<glyph unicode="&#xf7;" horiz-adv-x="1196" d="M180 444l25 146h973l-25 -146h-973zM502 0l30 197h189l-31 -197h-188zM635 823l31 197h188l-31 -197h-188z" />
<glyph unicode="&#xf8;" horiz-adv-x="929" d="M63 -49l164 174q-49 72 -63 167t2 210q14 106 63.5 203.5t124 172t172 118.5t209.5 46q176 2 281 -86l149 160l72 -47l-166 -174q49 -72 64.5 -168t-0.5 -209q-16 -109 -64.5 -206t-123.5 -170.5t-172 -117.5t-210 -47q-180 -2 -284 86l-150 -159zM337 379.5 q1 -62.5 21 -117.5l541 576q-29 37 -73 59.5t-109 20.5q-84 -2 -148.5 -40t-110.5 -97.5t-75 -132.5t-39 -142q-8 -64 -7 -126.5zM397 182q29 -37 75 -59.5t112 -20.5q82 2 147.5 40t111.5 96.5t74.5 131t38.5 144.5q8 61 6.5 124.5t-22.5 119.5z" />
<glyph unicode="&#xf9;" horiz-adv-x="1087" d="M27 786q23 53 55.5 103.5t73.5 91.5t80.5 50t80.5 9q45 0 80 -17t37 -52l-4 -33q-2 -16 -5 -44t-10 -71l-19 -112l-27 -170l-39 -244q-6 -49 7 -80t38.5 -48t56.5 -23.5t57 -6.5q49 0 92.5 17.5t82 45t74.5 61.5t69 69l113 706h172l-142 -858q2 -27 7.5 -40t25.5 -13 q12 0 30.5 17.5t41 42t44.5 52.5l40 50q10 -8 18 -15.5t19 -15.5q-41 -111 -129 -192q-39 -41 -79 -51.5t-81 -10.5q-45 0 -80 17.5t-39 52.5v10q0 4 2 12t5 23.5t7 46.5q-72 -70 -159.5 -121t-180.5 -51q-156 0 -232.5 70.5t-49.5 226.5l88 575q-2 25 -5 38.5t-24 13.5 q-12 0 -30.5 -16.5t-41 -41t-44.5 -53.5l-40 -51l-18 15zM389 1481l164 80l219 -334l-100 -43z" />
<glyph unicode="&#xfa;" horiz-adv-x="1087" d="M27 786q23 53 55.5 103.5t73.5 91.5t80.5 50t80.5 9q45 0 80 -17t37 -52l-4 -33q-2 -16 -5 -44t-10 -71l-19 -112l-27 -170l-39 -244q-6 -49 7 -80t38.5 -48t56.5 -23.5t57 -6.5q49 0 92.5 17.5t82 45t74.5 61.5t69 69l113 706h172l-142 -858q2 -27 7.5 -40t25.5 -13 q12 0 30.5 17.5t41 42t44.5 52.5l40 50q10 -8 18 -15.5t19 -15.5q-41 -111 -129 -192q-39 -41 -79 -51.5t-81 -10.5q-45 0 -80 17.5t-39 52.5v10q0 4 2 12t5 23.5t7 46.5q-72 -70 -159.5 -121t-180.5 -51q-156 0 -232.5 70.5t-49.5 226.5l88 575q-2 25 -5 38.5t-24 13.5 q-12 0 -30.5 -16.5t-41 -41t-44.5 -53.5l-40 -51l-18 15zM592 1227l211 334l164 -80l-275 -297z" />
<glyph unicode="&#xfb;" horiz-adv-x="1087" d="M29 786q23 53 55.5 103.5t73.5 91.5t81 50t81 9q45 0 80 -17t37 -52l-5 -33q-2 -16 -5 -44t-10 -71l-18 -112l-28 -170l-39 -244q-2 -16 -2 -29q0 -30 9 -51q13 -31 39 -48t56.5 -23.5t57.5 -6.5q49 0 92 17.5t82 45t75 61.5t68 69l113 706h172l-141 -858q2 -27 7 -40 t25 -13q12 0 31 17.5t41.5 42t43.5 52.5l40 50q10 -8 18.5 -15.5t18.5 -15.5q-41 -111 -129 -192q-39 -41 -79 -51.5t-81 -10.5q-45 0 -80 17.5t-39 52.5v10q0 4 2 12t5.5 23.5t7.5 46.5q-72 -70 -160 -121t-180 -51q-156 0 -233 71q-57 52 -57 151q0 34 7 75l88 575 q-2 25 -5 38.5t-23 13.5q-12 0 -31 -16.5t-41.5 -41t-43.5 -53.5l-40 -51l-19 15zM433 1196l243 317h156l127 -317l-109 -33l-118 232l-205 -230z" />
<glyph unicode="&#xfc;" horiz-adv-x="1087" d="M29 786q23 53 55.5 103.5t73.5 91.5t81 50t81 9q45 0 80 -17t37 -52l-5 -33q-2 -16 -5 -44t-10 -71l-18 -112l-28 -170l-39 -244q-2 -16 -2 -29q0 -30 9 -51q13 -31 39 -48t56.5 -23.5t57.5 -6.5q49 0 92 17.5t82 45t75 61.5t68 69l113 706h172l-141 -858q2 -27 7 -40 t25 -13q12 0 31 17.5t41.5 42t43.5 52.5l40 50q10 -8 18.5 -15.5t18.5 -15.5q-41 -111 -129 -192q-39 -41 -79 -51.5t-81 -10.5q-45 0 -80 17.5t-39 52.5v10q0 4 2 12t5.5 23.5t7.5 46.5q-72 -70 -160 -121t-180 -51q-156 0 -233 71q-57 52 -57 151q0 34 7 75l88 575 q-2 25 -5 38.5t-23 13.5q-12 0 -31 -16.5t-41.5 -41t-43.5 -53.5l-40 -51l-19 15zM342 1340q18 113 147 112q125 0 111 -108q-18 -115 -146 -115t-112 111zM819 1336q18 113 147 112q127 0 109 -108q-18 -115 -143 -115q-131 0 -113 111z" />
<glyph unicode="&#xfd;" horiz-adv-x="1017" d="M-121 844q25 31 65 69.5t87 72.5t94 53.5t88 11.5q35 -10 55.5 -49t30.5 -95l131 -555q4 -23 8 -52l8 -57l8 -49q3 -22 3 -26q0 2 9 23l21 51q12 29 28 59l28 53l284 572l-129 71v54h361l-369 -713l-95 -169q-48 -83 -93 -169l-64 -124l-65 -124q-33 -59 -66 -109.5 t-65 -76.5q-41 -37 -77 -56.5t-75 -28.5t-83 -10t-99 1v120q61 -2 117.5 2.5t101.5 43.5q31 27 62.5 78t59.5 106l50 104q23 49 37 76l-223 913q-8 6 -9.5 13.5t-11.5 5.5q-6 0 -26.5 -12.5t-49.5 -32.5l-59 -44l-57 -44zM422 1229l211 334l164 -80l-275 -297z" />
<glyph unicode="&#xfe;" horiz-adv-x="919" d="M-119 844q25 31 65 69.5t87 72.5t94 53q33 14 63 14q13 0 25 -2q35 -10 55.5 -49t30.5 -95l131 -555q4 -23 8 -52l8 -57l8 -49q3 -22 3 -26q0 2 9 23l21 51q12 29 28 59l28 53l284 572l-129 71v54h361l-369 -713l-95 -169q-48 -83 -93 -169l-64 -124l-65 -124 q-33 -59 -66 -109.5t-65 -76.5q-41 -37 -77 -56.5t-75 -28.5t-83 -10q-15 0 -30 -1q-32 0 -69 2v120q20 -1 40 0q40 0 78 2q56 4 101 44q31 27 62.5 78t59.5 106l50 104q23 49 37 76l-223 913q-8 6 -9.5 13.5t-11.5 5.5q-6 0 -26.5 -12.5t-49.5 -32.5l-59 -44l-57 -44z M236 1321q18 113 147 112q125 0 111 -108q-18 -115 -146 -115t-112 111zM713 1317q18 113 147 112q127 0 109 -108q-18 -115 -143 -115q-131 0 -113 111z" />
<glyph unicode="&#xff;" horiz-adv-x="1087" d="M-127 1291q18 113 147 112q125 0 111 -108q-18 -115 -146 -115t-112 111zM350 1287q18 113 147 112q127 0 109 -108q-18 -115 -143 -115q-131 0 -113 111zM-121 844q25 31 65 69.5t87 72.5t94 53q33 14 63 14q13 0 25 -2q35 -10 55.5 -49t30.5 -95l131 -555q4 -23 8 -52 l8 -57l8 -49q3 -22 3 -26q0 2 9 23l21 51q12 29 28 59l28 53l284 572l-129 71v54h361l-369 -713l-95 -169q-48 -83 -93 -169l-64 -124l-65 -124q-33 -59 -66 -109.5t-65 -76.5q-41 -37 -77 -56.5t-75 -28.5t-83 -10q-15 0 -30 -1q-32 0 -69 2v120q20 -1 40 0q40 0 78 2 q56 4 101 44q31 27 62.5 78t59.5 106l50 104q23 49 37 76l-223 913q-8 6 -9.5 13.5t-11.5 5.5q-6 0 -26.5 -12.5t-49.5 -32.5l-59 -44l-57 -44z" />
<glyph unicode="&#x152;" horiz-adv-x="1673" d="M129 707q25 160 101.5 293t186 229t243 149.5t272.5 53.5q29 0 58.5 1t53.5 -16h766l-61 -383h-51l-64 234h-428l-73 -475h299l102 192h45l-84 -530h-45l-41 188h-301l-78 -491h449l166 233h51l-92 -385h-781l-110 -12q-147 0 -266 50t-198 144t-112 227.5t-8 297.5z M319.5 478.5q20.5 -105.5 75 -183.5t141.5 -121t199 -43q29 0 54.5 -2t54.5 4l178 1149q-27 6 -55 6h-58q-104 0 -201.5 -40t-176 -115.5t-135 -182t-77.5 -239.5q-20 -127 0.5 -232.5z" />
<glyph unicode="&#x153;" horiz-adv-x="1370" d="M107.5 300q-15.5 97 1.5 210q16 106 66 202.5t126 170t174 116.5t211 43q139 0 227 -54t131 -146q70 86 165.5 140t213.5 60q137 6 218 -35.5t113 -110.5t18.5 -153t-64.5 -159q-35 -51 -105.5 -88t-159.5 -60.5t-188.5 -30t-193.5 4.5q-2 -51 2 -103.5t25.5 -95.5 t66.5 -69.5t125 -26.5q86 0 168 31.5t151 91.5l78 -88q-94 -80 -191 -126.5t-214 -46.5q-141 0 -225 51.5t-125 141.5q-74 -88 -177.5 -140.5t-228.5 -52.5q-121 0 -206 41t-136 113t-66.5 169zM282.5 365.5q6.5 -72.5 35 -131t82 -95.5t139.5 -37q82 0 144 37t106.5 95.5 t71 131t36.5 144.5q12 70 9 142.5t-28.5 132t-76.5 96.5t-135 37t-148.5 -37t-113 -96.5t-77 -132t-40.5 -142.5q-11 -72 -4.5 -144.5zM1081 553q66 0 144 4t148.5 17.5t124.5 37t75 62.5q18 47 17 90t-21.5 74.5t-62.5 50t-107 18.5q-61 0 -111.5 -29.5t-89.5 -76.5 t-67.5 -104.5t-47.5 -112.5q0 -8 -1 -15.5t-1 -15.5z" />
<glyph unicode="&#x178;" horiz-adv-x="1116" d="M10 1362l6 53h529l-6 -53l-162 -76l176 -321q39 -72 61.5 -120t24.5 -54q0 2 14 19l36 43l49 58l57 66l266 301l6 8l-137 76l6 53h512l-6 -53l-170 -76l-570 -624l-81 -533l217 -76l-7 -53h-638l6 53l241 76l80 518l-362 639zM451 1683q0 113 129 113q127 0 127 -108 q0 -115 -127 -115q-129 -1 -129 110zM928 1679q0 113 129 113q127 0 127 -109q0 -115 -127 -114q-129 -1 -129 110z" />
<glyph unicode="&#x2c6;" d="M283 1196l243 317h156l127 -317l-109 -33l-118 232l-205 -230z" />
<glyph unicode="&#x2dc;" d="M287 1198q16 39 39.5 76t54.5 65.5t67.5 46t81.5 17.5q57 0 94.5 -14.5t65.5 -32.5l52 -33q24 -14 53 -14q45 0 73.5 30.5t51.5 77.5l90 -24q-18 -41 -41 -78t-52.5 -65.5t-66.5 -46t-84 -17.5q-57 0 -92 14t-61.5 32.5t-50 33t-58.5 14.5q-41 0 -75 -35t-46 -71z" />
<glyph unicode="&#x2000;" horiz-adv-x="968" />
<glyph unicode="&#x2001;" horiz-adv-x="1937" />
<glyph unicode="&#x2002;" horiz-adv-x="968" />
<glyph unicode="&#x2003;" horiz-adv-x="1937" />
<glyph unicode="&#x2004;" horiz-adv-x="645" />
<glyph unicode="&#x2005;" horiz-adv-x="483" />
<glyph unicode="&#x2006;" horiz-adv-x="321" />
<glyph unicode="&#x2007;" horiz-adv-x="321" />
<glyph unicode="&#x2008;" horiz-adv-x="241" />
<glyph unicode="&#x2009;" horiz-adv-x="387" />
<glyph unicode="&#x200a;" horiz-adv-x="106" />
<glyph unicode="&#x2010;" horiz-adv-x="438" d="M-2 444v150h582v-150h-582z" />
<glyph unicode="&#x2011;" horiz-adv-x="438" d="M-2 444v150h582v-150h-582z" />
<glyph unicode="&#x2012;" horiz-adv-x="438" d="M-2 444v150h582v-150h-582z" />
<glyph unicode="&#x2013;" d="M63 457l21 127h1024l-21 -127h-1024z" />
<glyph unicode="&#x2014;" horiz-adv-x="1415" d="M0 457l20 127h1516l-20 -127h-1516z" />
<glyph unicode="&#x2018;" horiz-adv-x="460" d="M156 924l180 495h102l-78 -495h-204z" />
<glyph unicode="&#x2019;" horiz-adv-x="456" d="M143 922l78 495h205l-180 -495h-103z" />
<glyph unicode="&#x201a;" horiz-adv-x="456" d="M0 -299l78 496h205l-185 -496h-98z" />
<glyph unicode="&#x201c;" horiz-adv-x="792" d="M156 924l180 495h102l-78 -495h-204zM489 924l181 495h102l-78 -495h-205z" />
<glyph unicode="&#x201d;" horiz-adv-x="792" d="M143 924l78 495h205l-180 -495h-103zM477 924l78 495h205l-180 -495h-103z" />
<glyph unicode="&#x201e;" horiz-adv-x="792" d="M0 -299l78 496h205l-181 -496h-102zM334 -299l78 496h204l-180 -496h-102z" />
<glyph unicode="&#x2022;" horiz-adv-x="1386" d="M438 709q12 74 50 138t93.5 112.5t124 76t142.5 27.5t134 -27.5t100 -76t58.5 -113t6.5 -137.5q-12 -74 -50 -138.5t-93.5 -112.5t-124 -76t-142.5 -28t-134 28t-100 76t-58.5 112.5t-6.5 138.5z" />
<glyph unicode="&#x2026;" horiz-adv-x="1398" d="M88 102q10 66 45 94.5t105 28.5q68 0 92 -28.5t14 -94.5q-10 -68 -43 -95t-100 -27q-72 0 -97.5 28t-15.5 94zM774 102q10 66 45 94.5t105 28.5q68 0 92 -28.5t14 -94.5q-10 -68 -43 -95t-100 -27q-72 0 -97.5 28t-15.5 94zM1450 102q10 66 45 94.5t104 28.5 q68 0 92.5 -28.5t14.5 -94.5q-10 -68 -43 -95t-100 -27q-72 0 -97.5 28t-15.5 94z" />
<glyph unicode="&#x202f;" horiz-adv-x="387" />
<glyph unicode="&#x2039;" horiz-adv-x="528" d="M88 539l336 399l80 -47l-244 -352l223 -332l-80 -47z" />
<glyph unicode="&#x203a;" horiz-adv-x="528" d="M59 207l299 352l-170 332l86 47l256 -379l-397 -399z" />
<glyph unicode="&#x205f;" horiz-adv-x="483" />
<glyph unicode="&#x20ac;" horiz-adv-x="1413" d="M141 518l19 115h153q0 14 2 27l4 28q4 25 9.5 50.5t13.5 49.5h-156l17 115h176q51 119 130 217.5t179 169t219 110.5t250 40q59 0 104.5 -2t85 -10.5t80.5 -21.5t93 -36l-2 -4h4l-56 -354h-77l-58 262q-43 12 -89 17t-112 5q-98 0 -183 -29.5t-156.5 -81.5t-128 -125 t-95.5 -157h457l-16 -115h-480q-4 -23 -9 -44t-9 -44q-4 -16 -6 -33.5t-2 -33.5h479l-18 -115h-459q20 -180 141 -287.5t326 -107.5q31 0 52 3t39.5 8t37 12.5t43.5 15.5l170 260h73l-79 -338q-8 -4 -13.5 -6t-9.5 -4q-92 -43 -175 -70t-181 -27q-127 0 -236.5 37 t-191.5 106.5t-132.5 170t-58.5 227.5h-168z" />
<glyph unicode="&#x2122;" horiz-adv-x="1544" d="M100 1274l41 266h701l-41 -266h-35l-39 168h-186l-117 -744l135 -49l-6 -35h-408l7 35l151 49l117 744h-191l-90 -168h-39zM725 614l6 35l127 49l119 756l-113 51l6 33h277l168 -668q10 -43 14 -82.5t6 -52.5l28 61q17 38 36 72l373 670h270l-6 -33l-125 -51l-119 -756 l111 -49l-7 -35h-356l6 35l127 49l105 666l-414 -750h-113l-168 748h-2l-104 -664l110 -49l-6 -35h-356z" />
<glyph unicode="&#xe000;" horiz-adv-x="1080" d="M0 1080h1080v-1080h-1080v1080z" />
<glyph unicode="&#xfb01;" horiz-adv-x="1198" d="M-248 -535l23 125l63 -2q23 -4 48.5 2.5t60.5 16.5q43 16 71.5 48t49 73t33 89t20.5 101l147 963h-202l20 77l205 62l18 108q14 94 47 174t88.5 137.5t136.5 89.5t191 32h135l-49 -304h-53l-47 181q-23 4 -47.5 -2t-59.5 -17q-43 -16 -73.5 -48t-50 -73t-32 -90 t-20.5 -100l-14 -88h323q20 0 37 8t31 18.5t30.5 18.5t39.5 8q45 0 79.5 -23.5t38.5 -58.5v-26q0 -12 -3 -41t-10 -80t-21 -139l-37 -219l-54 -316q2 -25 5.5 -38t23.5 -13q12 0 30.5 16.5t41 41t44.5 52.5l40 52q10 -8 18 -15.5t19 -15.5q-23 -53 -55.5 -103.5t-73.5 -91.5 t-81 -50t-81 -9q-45 0 -80 17.5t-37 52.5q2 14 3 31.5t4 49t10 83.5l20 139l32 213l48 307l-408 -8l-151 -983q-14 -96 -47 -175t-88.5 -136.5t-135 -89.5t-190.5 -32h-74z" />
<glyph unicode="&#xfb02;" horiz-adv-x="1144" d="M-248 -535l23 125l63 -2q23 -4 48.5 2.5t60.5 16.5q43 16 71.5 48t49 73t33 89t20.5 101l147 963h-202l20 77l205 62l18 108q14 94 47 173t88.5 135.5t136.5 88t191 36.5l119 4v-72l176 47l-213 -1376q2 -25 6 -38t25 -13q12 0 30.5 16t40 41t42.5 53l40 51l18.5 -15 l18.5 -15q-23 -53 -55.5 -103.5t-73.5 -91.5q-39 -41 -80 -50t-82 -9q-45 0 -79.5 17.5t-36.5 51.5q0 10 2 25.5t8 57.5l18 122l35 220l55 353l80 517q2 23 1 38t-11 24t-33.5 14.5t-64.5 7.5q-23 4 -47.5 -2t-59.5 -17q-43 -16 -73.5 -48t-50 -73t-32 -90t-20.5 -100 l-14 -88h223l-20 -139h-226l-151 -983q-14 -96 -47 -175t-88.5 -136.5t-135 -89.5t-190.5 -32h-74z" />
<glyph unicode="&#xfb03;" horiz-adv-x="1955" d="M1382 807q41 111 129 192q39 41 79 51.5t81 10.5q45 0 79.5 -17.5t39.5 -52.5v-26q0 -12 -3.5 -41t-10.5 -80t-21 -139l-37 -219l-53 -316q2 -25 5 -38t23 -13q12 0 30.5 16.5t41.5 41t44 52.5l40 52q10 -8 18 -16l19 -15q-23 -53 -55.5 -103.5t-73.5 -91.5t-81 -50 t-81 -9q-45 0 -80 17.5t-37 52.5q0 14 2 31.5t7 47.5l14 83l21 138l33 212l48 307q-2 27 -5 40t-23 13q-12 0 -31 -17.5t-41.5 -42t-43.5 -52.5l-40 -50l-19 16zM1607 1366q-6 113 123 113t131 -109q0 -5 1 -10q0 -104 -122 -105q-131 0 -133 111zM422 -535l23 125l63 -2 q23 -4 48.5 2.5t60.5 16.5q43 16 71.5 48t49 73t33 89t20.5 101l147 963h-202l20 77l205 62l18 108q14 94 47 174t88.5 137.5t136.5 89.5t191 32h135l-49 -304h-53l-47 181q-23 4 -47.5 -2t-59.5 -17q-43 -16 -73.5 -48t-50 -73t-32 -90t-20.5 -100l-14 -88h223l-20 -139 h-226l-151 -983q-14 -96 -47 -175t-88.5 -136.5t-135 -89.5t-190.5 -32h-74zM-248 -535l23 125l63 -2q23 -4 48.5 2.5t60.5 16.5q43 16 71.5 48t49 73t33 89t20.5 101l147 963h-202l20 77l205 62l18 108q14 94 47 174t88.5 137.5t136.5 89.5t191 32h135l-49 -304h-53 l-47 181q-23 4 -47.5 -2t-59.5 -17q-43 -16 -73.5 -48t-50 -73t-32 -90t-20.5 -100l-14 -88h223l-20 -139h-226l-151 -983q-14 -96 -47 -175t-88.5 -136.5t-135 -89.5t-190.5 -32h-74z" />
<glyph unicode="&#xfb04;" horiz-adv-x="1849" d="M1372 59l4 34q2 17 7 53l14 98l26 166l147 944l-184 55l6 47l379 84l-127 -821l-86 -555q2 -25 6 -38t25 -13q12 0 30.5 16t40 41l43.5 53l39 51l18.5 -15l18.5 -15q-23 -53 -55.5 -103.5t-73.5 -91.5q-39 -41 -80 -50t-81 -9q-45 0 -80 17t-37 52zM422 -535l23 125 l63 -2q23 -4 48.5 2.5t60.5 16.5q43 16 71.5 48t49 73t33 89t20.5 101l147 963h-202l20 77l205 62l18 108q14 94 47 174t88.5 137.5t136.5 89.5t191 32h135l-49 -304h-53l-47 181q-23 4 -47.5 -2t-59.5 -17q-43 -16 -73.5 -48t-50 -73t-32 -90t-20.5 -100l-14 -88h223 l-20 -139h-226l-151 -983q-14 -96 -47 -175t-88.5 -136.5t-135 -89.5t-190.5 -32h-74zM-248 -535l23 125l63 -2q23 -4 48.5 2.5t60.5 16.5q43 16 71.5 48t49 73t33 89t20.5 101l147 963h-202l20 77l205 62l18 108q14 94 47 174t88.5 137.5t136.5 89.5t191 32h135l-49 -304 h-53l-47 181q-23 4 -47.5 -2t-59.5 -17q-43 -16 -73.5 -48t-50 -73t-32 -90t-20.5 -100l-14 -88h223l-20 -139h-226l-151 -983q-14 -96 -47 -175t-88.5 -136.5t-135 -89.5t-190.5 -32h-74z" />
</font>
</defs>
</svg>
