<?xml version="1.0" standalone="no"?>
<!DOCTYPE svg PUBLIC "-//W3C//DTD SVG 1.1//EN" "http://www.w3.org/Graphics/SVG/1.1/DTD/svg11.dtd" >
<svg xmlns="http://www.w3.org/2000/svg">
<metadata>
This is a custom SVG webfont generated by Font Squirrel.
Copyright   : Copyright c 2001 by Bigelow  Holmes Inc Instructions copyright c 2001 by URW
Designer    : Kris Holmes and Charles Bigelow
Foundry     : Bigelow  Holmes Inc
Foundry URL : httpwwwurwppde
</metadata>
<defs>
<font id="webfontB8BDNSp7" horiz-adv-x="1024" vert-adv-y="2048" >
<font-face units-per-em="2048" ascent="1638" descent="-410" />
<missing-glyph horiz-adv-x="512" />
<glyph unicode=" " horiz-adv-x="512" vert-adv-y="0" />
<glyph unicode="!" horiz-adv-x="681" vert-adv-y="2463" d="M242 0l39 197h198l-41 -197h-196zM389 395l90 789l60 297h196l-59 -297l-225 -789h-62z" />
<glyph unicode="&#x22;" horiz-adv-x="835" vert-adv-y="2463" d="M430 1085l33 494h196l-165 -494h-64zM776 1085l31 494h199l-168 -494h-62z" />
<glyph unicode="#" vert-adv-y="2463" d="M90 457l39 98h213l166 371h-232l39 98h238l205 457h102l-205 -457h265l204 457h103l-205 -457h207l-39 -98h-213l-166 -371h229l-36 -98h-238l-205 -457h-102l205 457h-265l-204 -457h-103l205 457h-207zM444 555h265l165 371h-264z" />
<glyph unicode="$" vert-adv-y="2463" d="M96 86l51 248h111l-2 -19l-2 -10q0 -2 -1 -5t-2 -10t-1 -14l-2 -18l-2 -10q-6 -34 -6 -49q0 -61 92 -105q68 -31 137 -28h39l123 608q-145 94 -211 174q-72 84 -72 211q0 193 152 313q111 84 293 115l22 117h62l-23 -119q170 -10 340 -76l-45 -231h-113l4 18l2 25 q6 39 9 41q6 29 6 41q0 45 -59.5 79.5t-137.5 34.5h-20l-115 -579l18 -17l31 -20l27 -21l22 -16l21 -14q68 -49 102 -91q76 -86 76 -180q0 -199 -172 -346q-113 -98 -295 -135l-23 -121h-61l25 123q-213 0 -400 86zM528 1116q0 -125 144 -237l104 530q-98 -18 -160 -84 q-88 -94 -88 -209zM573 78q109 37 177 112q90 102 90 232q0 98 -123 190q-2 0 -11.5 8.5t-15.5 12.5l-6 4z" />
<glyph unicode="%" horiz-adv-x="1705" vert-adv-y="2463" d="M188 -37l1502 1555h125l-1502 -1555h-125zM334 1020q0 184 119 321q121 139 278 140q250 0 250 -279q0 -188 -121 -325q-119 -137 -282 -138q-101 0 -166 62q-78 72 -78 219zM471 971q0 -168 123 -168q90 0 158 106q92 141 92 338q0 172 -125 172q-100 0 -174 -137 q-74 -139 -74 -311zM1022 281q0 184 119 321q117 137 278 137q250 0 250 -276q0 -188 -121 -326q-119 -137 -282 -137q-102 0 -166 61q-78 77 -78 220zM1159 229q0 -168 123 -168q90 0 158 107q92 141 92 340q0 172 -127 172q-98 0 -172 -137q-74 -139 -74 -314z" />
<glyph unicode="&#x26;" horiz-adv-x="1591" vert-adv-y="2463" d="M188 348q0 217 162 367q115 109 320 174q-72 133 -72 233q0 169 129 283q125 113 326 113q313 0 313 -238q0 -295 -451 -428l41 -76l103 -192l106 -195l56 -102q133 152 155 338q0 6 1 15t3 13q0 8 2 11l2 6l5 8v2q-6 29 -58 39l-86 6h-18l12 61h469l-12 -61h-23l-80 -4 q-43 -2 -51 -21q-10 -16 -20 -59q-41 -176 -267 -405q6 -6 15 -19q4 -4 10 -12l16 -25q6 -6 15 -18q2 -2 6 -7t6 -8v-2q0 -2 2 -4q55 -74 141 -73l25 -2q31 0 45 -3l14 -2l-12 -61h-377l-71 102q-248 -139 -467 -139q-201 0 -318 104.5t-117 280.5zM395 399q0 -150 94 -237 q95 -86 259 -86q157 0 307 80q-180 270 -365 680q-123 -53 -198 -152q-97 -125 -97 -285zM811 1186q0 -121 72 -273l8 -16q135 80 201 158q96 119 96 256q0 139 -148 139q-100 0 -166 -76q-63 -71 -63 -188z" />
<glyph unicode="'" horiz-adv-x="368" vert-adv-y="2463" d="M360 1036l17 543h248l-201 -543h-64z" />
<glyph unicode="(" horiz-adv-x="681" vert-adv-y="2463" d="M227 391q0 416 254 793q164 246 420 395l-10 -61q-252 -244 -361 -557q-59 -176 -98 -402q-33 -178 -33 -321q0 -254 142 -471l-15 -64q-76 59 -120 113q-179 213 -179 575z" />
<glyph unicode=")" horiz-adv-x="681" vert-adv-y="2463" d="M43 -297l12 64q252 244 361 557q55 156 98 401q35 190 35 319q0 254 -143 474l14 61q76 -59 121 -113q178 -213 178 -575q0 -416 -254 -793q-162 -243 -422 -395z" />
<glyph unicode="*" vert-adv-y="2463" d="M348 1143l74 139l256 -131q-35 -31 -37 -70zM387 821l258 228q14 -33 51 -43l-204 -273zM711 1171l24 310h148l-99 -310q-25 10 -36.5 10t-36.5 -10zM731 1006q43 9 68 43l166 -228l-138 -88zM809 1151l307 131l17 -139l-318 -62q6 18 6 31q0 23 -12 39z" />
<glyph unicode="+" horiz-adv-x="1153" vert-adv-y="2463" d="M193 543l20 98h442l90 444h99l-88 -444h442l-18 -98h-445l-88 -445h-98l88 445h-444z" />
<glyph unicode="," horiz-adv-x="512" vert-adv-y="2463" d="M68 -322l12 64q100 8 137 192l14 66h-100l49 248h248l-43 -215q-27 -135 -53 -185q-33 -63 -117 -118q-69 -46 -147 -52z" />
<glyph unicode="-" horiz-adv-x="681" vert-adv-y="2463" d="M190 543l23 123h518l-22 -123h-519z" />
<glyph unicode="." horiz-adv-x="512" vert-adv-y="2463" d="M133 0l49 248h246l-47 -248h-248z" />
<glyph unicode="/" horiz-adv-x="567" vert-adv-y="2463" d="M-90 -297l883 1778h102l-881 -1778h-104z" />
<glyph unicode="0" vert-adv-y="2463" d="M176 467q0 406 197 727q197 324 444 324q156 0 242 -134q86 -131 86 -370q0 -403 -196.5 -727t-446.5 -324q-139 0 -221 107q-105 135 -105 397zM358 319q0 -295 168 -294q86 0 181 131q104 143 174 458q82 354 82 547q0 295 -158 295q-219 0 -346 -512 q-43 -174 -72 -348q-29 -185 -29 -277z" />
<glyph unicode="1" vert-adv-y="2463" d="M129 0l12 61l119 2q92 0 129 19q37 20 51 78l27 98l182 920l15 100l8 37q-8 33 -60 33q-14 0 -116 -19l-105 -18l15 61l503 121l-245 -1235q-18 -86 -19 -137q0 -47 78 -53l68 -5l116 -2l-12 -61h-766z" />
<glyph unicode="2" vert-adv-y="2463" d="M68 0l18 98q55 131 141 234q76 86 293 266l76 64q188 156 264 286.5t76 296.5q0 205 -201 205q-98 0 -184 -49q-45 -25 -68 -78q-27 -66 -47 -141l-6 -25h-98l53 270q201 90 397 91q362 0 363 -291q0 -168 -96 -283q-68 -82 -242 -215l-119 -90l-76 -59 q-279 -213 -348 -408h672l-37 -172h-831z" />
<glyph unicode="3" vert-adv-y="2463" d="M94 10l53 260h99l-4 -20l-11 -68l-1 -6q-1 -6 -1 -12v-8v-9q0 -49 60 -81q63 -35 141 -35q147 0 254 139t107 330q0 123 -82 190q-82 70 -220 70h-108l10 59h68q211 0 332 115q119 113 118 311q0 205 -200 205q-83 0 -154 -31q-37 -16 -59 -53t-43 -117l-4 -14h-99 l45 225q174 57 336 58q377 0 377 -277q0 -166 -133 -293q-96 -90 -260 -147q106 -29 172 -76q115 -84 114 -231q0 -221 -167 -375q-172 -156 -426 -156q-160 0 -314 47z" />
<glyph unicode="4" vert-adv-y="2463" d="M109 420l20 98l864 987h111l-189 -938h175l-31 -147h-172l-33 -162q-16 -86 -16 -135q0 -31 26 -43q18 -10 51 -12l41 -5l19 -2l-12 -61h-519l13 61l18 2l80 5q68 6 88 57q23 53 39 133l33 162h-606zM250 567h493l148 731z" />
<glyph unicode="5" vert-adv-y="2463" d="M129 -2l49 250h101l-5 -25l-14 -76v-12v-6v-4v-2q0 -98 150 -98q157 0 270 153q115 156 115 348q0 293 -439 293h-37l132 662h723l-35 -172h-662l-82 -414h92q514 0 514 -383q0 -233 -178 -391q-180 -158 -446 -158q-109 0 -248 35z" />
<glyph unicode="6" vert-adv-y="2463" d="M160 416q0 209 61 420q61 218 166 368q215 313 526 314q160 0 281 -66l-43 -225h-100l4 20q6 49 6 90q0 113 -156 113q-187 0 -319 -215q-68 -113 -117 -266q-31 -94 -57 -211q66 84 137 129q96 63 219 63q152 0 240 -94q90 -96 90 -258q0 -246 -178.5 -440.5 t-405.5 -194.5q-163 0 -258 123q-96 121 -96 330zM356 369q0 -141 45 -230q55 -109 156 -108q135 0 238 182q102 180 102 414q0 254 -195 254q-150 0 -247 -146q-99 -147 -99 -366z" />
<glyph unicode="7" vert-adv-y="2463" d="M182 0q182 473 768 1096l189 198h-772l36 187h889l-26 -129q-311 -332 -545 -705q-229 -362 -305 -647h-234z" />
<glyph unicode="8" vert-adv-y="2463" d="M113 283q0 180 143 338q98 109 254 176q-78 66 -113 116q-53 74 -53 168q0 178 139 308q138 129 351 129q336 0 335 -261q0 -154 -135 -282q-88 -84 -235 -160l45 -29q131 -86 178 -155q49 -70 49 -170q0 -197 -170 -348q-168 -150 -399 -150q-172 0 -281 88 q-108 91 -108 232zM311 283q0 -119 62 -187q61 -66 164 -65q129 0 227 110q96 109 96 246q0 125 -215 291l-98 76q-102 -84 -158 -176q-78 -133 -78 -295zM530 1153q0 -100 168 -256l11 -10l39 -37q250 170 249 399q0 92 -55 148q-51 53 -139 53q-119 0 -195 -86 q-78 -88 -78 -211z" />
<glyph unicode="9" vert-adv-y="2463" d="M127 29l43 225h98l-2 -23q-8 -66 -8 -88q0 -113 158 -112q186 0 319 215q66 109 117 266q33 106 57 211q-156 -193 -354 -193q-154 0 -242 95q-90 94 -90 256q0 249 178 442q178 195 404 195q166 0 260 -121q96 -125 96 -332q0 -205 -63 -422q-63 -221 -164 -367 q-215 -313 -528 -313q-158 0 -279 66zM424 856q0 -256 194 -256q152 0 248 145q98 147 99 367q0 141 -45 229q-55 109 -158 109q-135 0 -236 -182q-102 -179 -102 -412z" />
<glyph unicode=":" horiz-adv-x="567" vert-adv-y="2463" d="M162 0l49 248h246l-49 -248h-246zM330 840l49 245h246l-50 -245h-245z" />
<glyph unicode=";" horiz-adv-x="567" vert-adv-y="2463" d="M96 -322l13 64q102 10 139 192l12 66h-98l49 248h246l-43 -215q-27 -135 -54 -185q-33 -63 -116 -118q-70 -46 -148 -52zM330 840l49 245h246l-50 -245h-245z" />
<glyph unicode="&#x3c;" horiz-adv-x="1153" vert-adv-y="2463" d="M203 592l1085 493l-22 -110l-840 -381v-2l686 -383l-20 -111z" />
<glyph unicode="=" horiz-adv-x="1153" vert-adv-y="2463" d="M156 358l20 99h987l-20 -99h-987zM229 727l21 100h987l-20 -100h-988z" />
<glyph unicode="&#x3e;" horiz-adv-x="1153" vert-adv-y="2463" d="M104 98l23 111l840 383v2l-688 383l22 108l889 -493z" />
<glyph unicode="?" horiz-adv-x="907" vert-adv-y="2463" d="M270 0l39 197h199l-39 -197h-199zM287 1178l55 272q221 68 375 68q174 0 276.5 -72t102.5 -195q0 -193 -283 -383l-74 -53l-43 -35q-84 -66 -121 -248l-28 -137h-197l2 19q39 203 213 344l47 41q272 227 273 456q0 201 -219 201q-215 0 -250 -151l-25 -107l-6 -20h-98z " />
<glyph unicode="@" horiz-adv-x="1884" vert-adv-y="2463" d="M256 467q0 297 281 620q372 430 866 431q244 0 395.5 -141.5t151.5 -362.5q0 -266 -201 -492q-199 -225 -432 -225q-147 0 -148 102q0 53 27 109l41 86l18 41h-20q-272 -338 -459 -338q-141 0 -141 162q0 229 225 473q223 242 438 242q43 0 80 -13l76 -20l2 -1q2 -1 4 -1 q12 -4 21 -6h94l-229 -574q-35 -88 -35 -125q0 -63 84 -63q166 0 329 209q164 207 164 424q0 203 -141 325q-143 127 -373 127q-433 0 -792 -405q-260 -293 -260 -572q0 -209 135 -331.5t360 -122.5q152 0 344 75l10 -57q-197 -80 -364 -80q-254 0 -401 135 q-150 138 -150 369zM791 512q0 -92 67 -92q141 0 442 399l84 211q-74 43 -163 43q-174 0 -303 -199q-127 -198 -127 -362z" />
<glyph unicode="A" horiz-adv-x="1478" vert-adv-y="2463" d="M0 0l12 61l23 2q65 3 86 25q23 23 49 66l68 104l768 1241h69l271 -1247l28 -102q25 -84 94 -87l23 -2l-12 -61h-490l12 61h21q68 0 88 15q23 16 23 63q0 63 -13 119l-43 199h-635l-125 -199l-10 -16q-10 -16 -20 -37l-37 -70q-14 -27 -14 -41q0 -33 86 -33h16l-12 -61 h-326zM492 537h567l-148 673z" />
<glyph unicode="B" horiz-adv-x="1363" vert-adv-y="2463" d="M47 0l12 61l19 2l69 5q76 6 97 53q18 35 41 137l190 963q18 86 19 139q0 47 -78 53l-68 4l-16 2l10 62h659q231 0 326 -58q94 -55 94 -198q0 -209 -164 -336q-119 -90 -317 -121q188 -25 279 -86q109 -78 108 -236q0 -160 -121 -290q-84 -90 -194.5 -123t-335.5 -33h-629 zM469 133q12 -66 152 -65q283 0 401 131q86 96 86 250q0 188 -168 243q-109 37 -354 41l-94 -475l-15 -86zM600 803h111q492 0 491 401q0 143 -115 180q-90 29 -266 29h-98z" />
<glyph unicode="C" horiz-adv-x="1363" vert-adv-y="2463" d="M215 547q0 395 246 686q240 285 635 285q209 0 442 -74l-55 -285h-123l2 21q2 12 4 30q2 10 4 18.5t2 18.5q6 25 6 43q0 68 -82 113q-84 47 -200 47q-279 0 -463 -274q-190 -283 -191 -639q0 -227 123 -351q125 -125 334 -125q180 0 412 113l-19 -94q-233 -117 -485 -117 q-287 0 -438 150q-154 149 -154 434z" />
<glyph unicode="D" horiz-adv-x="1478" vert-adv-y="2463" d="M41 0l12 61l19 2l69 5q76 6 97 53q18 35 41 137l190 963q18 86 18 139q0 47 -77 53l-68 4l-16 2l12 62h424h72l71 4h74h16q222 0 363 -82q215 -125 215 -447q0 -338 -207 -616q-252 -340 -680 -340h-645zM469 147q14 -80 168 -79q324 0 508 241q88 115 143 307 q57 190 58 371q0 426 -533 426h-94l-232 -1155l-12 -78z" />
<glyph unicode="E" horiz-adv-x="1249" vert-adv-y="2463" d="M43 0l12 61l19 2l69 5q76 6 97 53q18 35 41 137l190 963q18 86 18 139q0 47 -77 53l-68 4l-16 2l12 62h1102l-51 -260h-111l2 18l12 84l6 39q-8 39 -167 39h-414l-121 -592h365l63 2q53 0 66 16q10 14 16 43l2 9q0 2 3 14l5 20l4 19h80l-63 -328h-82l4 19q0 2 1 7t2 14 t1 20l2 24q0 33 -49 35l-72 4h-362l-95 -469q-12 -61 -12 -104q0 -47 39 -60q27 -8 109 -8h249q152 0 189 14q43 12 55 62l23 92l4 16h110l-53 -270h-1159z" />
<glyph unicode="F" horiz-adv-x="1138" vert-adv-y="2463" d="M43 0l12 61l19 2l69 5q76 6 97 53q18 35 41 137l190 963q18 86 18 139q0 47 -77 53l-68 4l-16 2l12 62h1014l-51 -260h-111l2 18l12 84l6 39q-8 39 -168 39h-325l-121 -602h287l63 2q49 0 64 14q10 14 16 41q0 4 2 8l2 8l2 15l6 16l4 19h80l-63 -328h-80v18q2 14 4 30.5 l3 25t1 12.5q0 29 -49 33l-72 6h-286l-93 -461q-14 -66 -14 -127q0 -43 23 -53q20 -10 55 -10h14q14 0 74 -5l18 -2l-12 -61h-604z" />
<glyph unicode="G" horiz-adv-x="1478" vert-adv-y="2463" d="M219 545q0 350 207 635q246 338 700 338q231 0 451 -76l-55 -271h-111l2 21l10 57q6 34 7 56q0 59 -94.5 102t-219.5 43q-301 0 -481 -272q-80 -119 -139 -324q-57 -207 -58 -362q0 -197 125 -322q126 -123 314 -123q90 0 221 33l57 291q16 86 16 139q0 31 -28 43 q-12 4 -47 8l-68 6l-18 2l14 62h565l-10 -62l-20 -2l-56 -6q-70 -6 -84 -22q-16 -18 -28 -70l-25 -98l-68 -334q-307 -74 -497 -74q-276 0 -428 152q-154 150 -154 430z" />
<glyph unicode="H" horiz-adv-x="1478" vert-adv-y="2463" d="M41 0l12 61l19 2l69 5q76 6 97 53q18 35 41 137l190 963q18 86 18 139q0 47 -77 53l-68 4l-16 2l12 62h580l-13 -62l-18 -2l-70 -4q-68 -4 -82 -24q-12 -14 -28 -68l-27 -100l-82 -410h608l82 410q16 86 17 139q0 47 -78 53l-66 4l-18 2l10 62h582l-13 -62l-18 -2l-70 -4 q-68 -4 -82 -24q-16 -16 -28 -68l-27 -100l-192 -963q-16 -76 -17 -135q0 -49 78 -55l66 -5l18 -2l-12 -61h-580l12 61l21 2l67 5q76 6 97 53q23 43 41 137l94 467h-608l-95 -467q-16 -76 -16 -135q0 -49 78 -55l65 -5l19 -2l-12 -61h-580z" />
<glyph unicode="I" horiz-adv-x="681" vert-adv-y="2463" d="M51 0l12 61l19 2l70 5q76 6 96 53q18 35 41 137l190 963q18 86 19 139q0 47 -78 53l-68 4l-16 2l10 62h582l-13 -62l-18 -2l-70 -4q-68 -4 -82 -24q-12 -14 -28 -68l-27 -100l-192 -963q-16 -76 -17 -135q0 -49 76 -55l68 -5l18 -2l-12 -61h-580z" />
<glyph unicode="J" horiz-adv-x="796" vert-adv-y="2463" d="M-55 -276l47 231h117l-5 -25q-8 -49 -8 -80q0 -66 94 -65q100 0 140 94q37 86 71 268l213 1074q18 86 19 139q0 47 -78 53l-68 4l-18 2l12 62h582l-12 -62l-21 -2l-67 -4q-68 -4 -82 -24q-16 -16 -29 -68l-27 -100l-190 -951q-61 -303 -184 -426q-144 -141 -351 -141 q-67 1 -155 21z" />
<glyph unicode="K" horiz-adv-x="1478" vert-adv-y="2463" d="M55 0l13 61l18 2l70 5q78 6 98 53q14 29 39 137l192 963q16 76 17 139q0 47 -76 53l-68 4l-18 2l12 62h580l-12 -62l-19 -2l-70 -4q-65 -3 -79 -24q-15 -18 -31 -68l-27 -100l-92 -467l541 467q59 53 104 102q47 51 66 63q14 12 14 17q0 14 -51 14l-90 2h-19l13 62h454 l-12 -62l-16 -2l-62 -2q-55 0 -108 -39q-66 -47 -197 -155l-455 -385l404 -578l82 -108q53 -68 78 -74q27 -8 106 -13l21 -2l-13 -61h-604l12 61h19q129 0 129 31q0 37 -90 170l-328 486l-96 -490l-17 -98l-6 -33q6 -55 123 -64l21 -2l-15 -61h-555z" />
<glyph unicode="L" horiz-adv-x="1249" vert-adv-y="2463" d="M55 0l13 61l18 2l70 5q78 6 98 53q14 29 39 137l192 963q16 76 17 139q0 47 -76 53l-68 4l-18 2l12 62h580l-12 -62l-19 -2l-70 -4q-65 -3 -79 -24q-15 -18 -31 -68l-27 -100l-190 -963q-18 -89 -19 -123q0 -37 33 -43q31 -6 121 -6h238q147 0 190 16q49 18 61 72l23 102 l6 21h105l-60 -297h-1147z" />
<glyph unicode="M" horiz-adv-x="1820" vert-adv-y="2463" d="M47 0l14 61l19 2l67 5q78 6 99 53q20 37 39 137l192 963q16 86 17 137q0 49 -76 55l-68 4l-18 2l12 62h414l254 -1092l684 1092h372l-12 -62l-18 -2l-70 -4q-68 -4 -82 -24q-16 -20 -28 -68l-25 -100l-195 -963q-16 -86 -16 -137q0 -47 78 -53l67 -5l19 -2l-12 -61h-566 l13 61l18 2l70 5q65 6 80 24q16 20 28 68l27 98l203 1018l-723 -1157h-72l-262 1112l-195 -973q-16 -76 -16 -135q0 -49 76 -55l67 -5l19 -2l-13 -61h-481z" />
<glyph unicode="N" horiz-adv-x="1478" vert-adv-y="2463" d="M43 0l14 61l19 2l67 5q76 6 99 53q20 37 39 137l192 963q16 86 16 137q0 53 -75 55l-68 4l-18 2l12 62h334l553 -1149l178 889q16 86 16 139q0 49 -78 53l-65 4l-18 2l12 62h461l-13 -62l-18 -2l-70 -4q-68 -4 -82 -24q-16 -16 -28 -68l-27 -100l-248 -1241h-69 l-611 1241l-192 -963q-16 -86 -17 -137q0 -47 78 -53l68 -5l16 -2l-10 -61h-467z" />
<glyph unicode="O" horiz-adv-x="1478" vert-adv-y="2463" d="M207 520q0 412 242 707q242 291 593 291q250 0 392 -144q141 -145 141 -413q0 -401 -232 -693q-244 -305 -618 -305q-217 0 -350 119q-168 149 -168 438zM428 467q0 -207 84 -321.5t231 -114.5q223 0 387 231q106 147 166 350q55 190 56 400q0 217 -86 327.5t-240 110.5 q-242 0 -420 -299q-178 -301 -178 -684z" />
<glyph unicode="P" horiz-adv-x="1138" vert-adv-y="2463" d="M31 0l12 61l18 2l70 5q76 6 96 53q18 35 41 137l193 963q16 76 16 139q0 47 -78 53l-65 4l-19 2l13 62h430l147 4l68 2h16q134 0 225 -51q123 -72 123 -244q0 -205 -139 -367q-182 -209 -598 -209h-51l-74 -358q-14 -74 -14 -137q0 -47 76 -53l65 -5l43 -2l-10 -61h-604z M561 684h66q219 0 354 143.5t135 366.5q0 123 -61 172q-59 47 -213 47h-135z" />
<glyph unicode="Q" horiz-adv-x="1478" vert-adv-y="2463" d="M207 520q0 416 242 707q240 291 593 291q250 0 392 -144q141 -145 141 -409q0 -387 -225 -691q-147 -197 -373 -274q207 -137 702 -174l-272 -125q-236 74 -487 250l-37 24q-76 -12 -150 -12q-246 0 -387 143q-139 146 -139 414zM428 463q0 -190 72 -299 q86 -133 256 -133q240 0 418 299q178 298 178 682q0 217 -86 327.5t-242 110.5q-240 0 -418 -299q-178 -301 -178 -688z" />
<glyph unicode="R" horiz-adv-x="1363" vert-adv-y="2463" d="M31 0l12 61l18 2l70 5q76 6 96 53q18 35 41 137l193 963q16 76 16 139q0 47 -78 53l-65 4l-19 2l13 62h354l98 2l84 2l82 2h19q125 0 215 -39q158 -68 157 -254q0 -190 -143 -340q-98 -104 -256 -158l205 -436l67 -129q23 -43 39 -53q14 -8 56 -12l41 -3l20 -2l-12 -61 h-353l-274 651h-172l-78 -393l-14 -98l-6 -33q6 -55 123 -64l18 -2l-12 -61h-555zM569 719h74q224 0 350 129q127 131 127 348q0 125 -59 170q-59 47 -209 47h-143z" />
<glyph unicode="S" horiz-adv-x="1138" vert-adv-y="2463" d="M125 31l55 284h107l-4 -18q0 -12 -2 -27q-8 -49 -11 -55q-6 -23 -6 -33q0 -59 86 -102t203 -43q162 0 258 102.5t96 263.5q0 82 -47 134q-39 43 -133 100l-117 70q-264 160 -264 352q0 186 158 321q160 137 383 138q160 0 364 -64l-53 -262h-111l5 16q0 12 2 27 q2 25 10 51q6 31 6 51q0 113 -229 113q-147 0 -233.5 -94t-86.5 -234q0 -119 164 -217l117 -69q168 -100 229 -179q59 -72 59 -186q0 -206 -172 -356q-174 -152 -430 -152q-231 0 -403 68z" />
<glyph unicode="T" horiz-adv-x="1249" vert-adv-y="2463" d="M272 1208l56 273h1190l-56 -273h-104l4 23l4 33q6 43 8 49q0 6 4 10q6 16 6 20q0 57 -176 58h-196l-230 -1143q-14 -74 -14 -137q0 -47 76 -53l65 -5l43 -2l-12 -61h-629l13 61l45 2q65 0 116 13q23 6 33 16q31 37 55 166l228 1143h-197l-102 -6q-65 0 -80 -25 q-14 -25 -23 -65q-6 -33 -16 -74l-4 -23h-107z" />
<glyph unicode="U" horiz-adv-x="1478" vert-adv-y="2463" d="M293 340q0 95 24 215l134 666q16 76 16 139q0 47 -78 53l-65 4l-19 2l12 62h584l-12 -62l-21 -2l-67 -4q-70 -6 -84 -27q-16 -20 -29 -65l-24 -100l-127 -633q-47 -229 -48 -299q0 -117 80 -187q82 -72 217 -71q199 0 334 129q72 66 103 159q25 72 55 226l135 676 q16 86 17 139q0 47 -78 53l-68 4l-16 2l12 62h473l-12 -62l-19 -2l-67 -4q-68 -4 -82 -24q-18 -18 -31 -68l-24 -100l-125 -621q-41 -209 -82 -301q-43 -96 -127 -178q-164 -158 -447 -158q-444 0 -444 377z" />
<glyph unicode="V" horiz-adv-x="1478" vert-adv-y="2463" d="M285 1419l12 62h543l-13 -62h-20q-166 0 -166 -47q0 -18 16 -90l15 -65l213 -932l567 932q86 141 86 169q0 31 -61 31l-76 2h-23l13 62h385l-13 -62l-22 -2q-88 -6 -133 -82l-72 -118l-748 -1235h-67l-285 1235l-30 124q-12 57 -33 66q-16 6 -68 10z" />
<glyph unicode="W" horiz-adv-x="1931" vert-adv-y="2463" d="M285 1419l12 62h534l-12 -62h-18l-56 -2q-84 -4 -96 -28q-12 -28 -12 -93q0 -47 2 -82l61 -860l582 1108h70l94 -1138l455 890l12 24.5t10 23.5l8 16l4 10l7 15q8 14 18 34l6 15q0 4 3 6q1 2 1 4q8 14 8 24q0 28 -73 31l-76 2h-19l13 62h405l-10 -62l-18 -2l-62 -2 q-59 -2 -90 -63l-72 -138l-628 -1232h-68l-92 1138l-598 -1138h-70l-90 1232q-2 41 -6 99q0 10 -1 20t-1 15q0 68 -57 67l-60 2z" />
<glyph unicode="X" horiz-adv-x="1478" vert-adv-y="2463" d="M12 0l13 61l14 2l43 3q68 6 133 77l115 117l448 469l-231 494l-58 110q-25 52 -43 68q-14 14 -57 14l-49 2l-21 2l13 62h583l-12 -62h-18l-68 -2q-84 0 -84 -37q0 -14 35 -77q0 -2 3 -7.5t7 -15.5t10 -23l17 -34l168 -365l362 365q143 143 144 174q0 18 -58 20l-49 2h-18 l12 62h371l-13 -62l-22 -2q-94 -6 -172 -90l-19 -18l-81 -86l-412 -410l256 -553l59 -123q31 -66 74 -71l51 -3l21 -2l-13 -61h-567l12 61h19l59 2q94 0 94 41q0 23 -24 76l-39 80l-195 416l-397 -416l-78 -80q-66 -68 -65 -90q0 -27 71 -27l62 -2h20l-12 -61h-414z" />
<glyph unicode="Y" horiz-adv-x="1478" vert-adv-y="2463" d="M285 1419l12 62h573l-12 -62h-18l-72 -2q-84 -4 -84 -47q0 -25 31 -90l30 -66l222 -466l407 466q131 150 131 177q0 23 -73 26l-60 2h-18l12 62h410l-13 -62l-20 -2l-45 -2q-72 -4 -133 -82q0 -2 -2 -2q-4 -4 -9 -10l-18 -18q-23 -25 -42 -48.5l-34 -40.5l-491 -559 l-80 -397q-16 -86 -17 -137q0 -47 78 -53l68 -5l16 -2l-10 -61h-582l13 61l18 2l70 5q76 6 96 53q18 35 41 137l80 397l-264 559l-41 89q-51 106 -95 112l-57 2z" />
<glyph unicode="Z" horiz-adv-x="1249" vert-adv-y="2463" d="M92 0l17 80l1058 1321h-450l-111 -4q-63 0 -80 -23q-8 -12 -22 -71l-12 -52q-2 -10 -5.5 -24.5t-5.5 -18.5l-8 -24h-111l62 297h993l-12 -68l-1055 -1321h449l166 6q63 0 79 68l25 98l4 21h113l-58 -285h-1036z" />
<glyph unicode="[" horiz-adv-x="681" vert-adv-y="2463" d="M127 -297l375 1876h403l-12 -61h-231l-351 -1751h232l-13 -64h-403z" />
<glyph unicode="\" horiz-adv-x="567" vert-adv-y="2463" d="M266 1481h105l170 -1778h-105z" />
<glyph unicode="]" horiz-adv-x="681" vert-adv-y="2463" d="M33 -297l12 64h231l351 1751h-232l13 61h403l-375 -1876h-403z" />
<glyph unicode="^" horiz-adv-x="958" vert-adv-y="2463" d="M154 592l622 889l266 -889h-127l-190 633l-444 -633h-127z" />
<glyph unicode="_" vert-adv-y="2463" d="M-25 -123l25 123h1024l-25 -123h-1024z" />
<glyph unicode="`" horiz-adv-x="681" vert-adv-y="2463" d="M412 1604h260l176 -322h-92z" />
<glyph unicode="a" horiz-adv-x="907" vert-adv-y="2463" d="M123 195q0 206 147 325q150 121 404 121h41l26 135q25 125 25 170q0 88 -113 88q-77 0 -123 -43q-47 -45 -63 -129l-2 -16h-137l34 174q162 90 334 90q260 0 260 -192q0 -59 -16 -134l-96 -483q-27 -139 -27 -180q0 -55 45 -55q20 0 53 8l-10 -74q-80 -25 -117 -25 q-121 0 -126 175q-150 -174 -322 -175q-217 1 -217 220zM342 223q0 -131 109 -131q70 0 170 78l81 410h-47q-145 0 -229 -96.5t-84 -260.5z" />
<glyph unicode="b" vert-adv-y="2463" d="M119 -12l266 1333l18 98q8 31 9 41q0 51 -90 56l-19 2l12 61h320l-135 -672q74 90 141 137q96 66 195 66q258 0 258 -338q0 -332 -172 -565q-170 -231 -426 -232q-74 0 -179 25zM334 78q84 -25 125 -25q168 0 293 205q123 205 122 487q0 238 -135 238q-96 0 -254 -145z " />
<glyph unicode="c" horiz-adv-x="907" vert-adv-y="2463" d="M170 410q0 289 180 493q182 207 438 207q129 0 279 -49l-53 -258h-123l4 16q8 55 8 113q0 111 -129 110q-156 0 -272 -198q-117 -201 -117 -453q0 -151 74 -233q72 -84 194 -84q76 0 226 49l-17 -86q-169 -61 -295 -62q-181 0 -288 117q-109 119 -109 318z" />
<glyph unicode="d" vert-adv-y="2463" d="M150 313q0 335 172 566q170 231 426 231q72 0 176 -25l47 236l18 98q8 31 8 41q0 51 -90 56l-18 2l12 61h320l-265 -1321l-18 -98l-2 -15q-6 -23 -6 -26q0 -49 90 -56l16 -2l-12 -61h-317l36 178q-72 -86 -143 -137q-96 -66 -192 -66q-258 0 -258 338zM369 340 q0 -238 135 -238q92 0 254 146l151 760q-78 25 -125 24q-174 0 -292 -205q-123 -204 -123 -487z" />
<glyph unicode="e" horiz-adv-x="907" vert-adv-y="2463" d="M160 373q0 291 166 514t397 223q276 0 276 -283q0 -98 -26 -223l-4 -18h-566q-27 -145 -26 -232q0 -279 237 -278q123 0 267 74l-21 -101q-181 -74 -319 -74q-174 0 -279 105q-102 103 -102 293zM416 647h354l10 45q31 147 31 209q0 141 -117 141q-109 0 -182 -124 q-53 -93 -96 -271z" />
<glyph unicode="f" horiz-adv-x="681" vert-adv-y="2463" d="M55 0l13 61l18 2q76 6 92 25q16 16 29 72l20 98l150 741h-139l16 86h139l10 54q55 262 144 364q88 100 264 101q123 0 213 -74l-45 -236h-113l4 21l2 18q0 2 3.5 20.5t5.5 30.5q10 61 10 84q0 72 -86 72q-90 0 -121 -67q-29 -66 -59 -216l-33 -172h221l-16 -79h-222 l-149 -748l-18 -98l-5 -15q-4 -25 -4 -26q0 -53 113 -56l43 -2l-10 -61h-490z" />
<glyph unicode="g" vert-adv-y="2463" d="M16 -221q0 158 254 264q-86 47 -86 115q0 100 195 209l29 18q-68 37 -103 84q-51 63 -51 166q0 199 127 338q125 137 309 137q74 0 168 -41l356 29l-73 -119l-230 41q80 -101 80 -209q0 -180 -135 -324q-133 -145 -303 -145q-41 0 -82 18q-100 -70 -100 -129t168 -59h61 q330 0 330 -195q0 -162 -164 -278q-166 -119 -399 -119q-154 0 -252.5 55.5t-98.5 143.5zM219 -188q0 -76 55 -119q57 -45 144 -45q119 0 213 82t94 184q0 111 -174 111h-232q-100 -86 -100 -213zM446 584q0 -174 113 -174q96 0 168 141q72 143 72 317t-115 174 q-96 0 -166 -139q-72 -143 -72 -319z" />
<glyph unicode="h" vert-adv-y="2463" d="M37 0l12 61l21 2q72 2 90 25q16 16 28 72l23 98l211 1063l18 98q8 31 9 43q0 47 -91 54l-16 2l10 61h320l-135 -672q184 203 352 203q184 0 184 -170q0 -51 -22 -174l-103 -508l-16 -98l-4 -15q-4 -14 -4 -26q0 -49 88 -56l18 -2l-12 -61h-438l12 61l18 2q76 6 92 25 q12 12 27 72l23 98l96 475l12 78q10 53 10 92q0 78 -79 78q-119 0 -267 -141l-116 -582l-19 -98q0 -1 -1 -5q-2 -5 -3 -10q-4 -12 -4 -26q0 -53 88 -56l20 -2l-12 -61h-440z" />
<glyph unicode="i" horiz-adv-x="567" vert-adv-y="2463" d="M47 0l12 61l21 2q111 6 119 23q10 14 24 74l23 98l112 569l19 99q8 31 8 41q0 51 -115 57h-18l12 61h344l-166 -827l-18 -98q-8 -31 -8 -41q0 -49 114 -56l19 -2l-12 -61h-490zM451 1282l38 199h197l-39 -199h-196z" />
<glyph unicode="j" horiz-adv-x="567" vert-adv-y="2463" d="M-154 -381l50 246h98l-2 -19q-12 -72 -12 -118q0 -80 81 -80q133 0 164 168l21 102l180 909l18 99q8 33 9 43q0 49 -88 55h-19l12 61h318l-215 -1073q-86 -432 -418 -432q-78 0 -197 39zM518 1282l39 199h199l-39 -199h-199z" />
<glyph unicode="k" vert-adv-y="2463" d="M31 0l12 61l18 2q76 6 93 25q16 16 28 72l23 98l211 1063l18 98q8 31 8 43q0 47 -90 54l-16 2l10 61h320l-199 -995h45l240 241l98 101l49 53q12 12 19 25l2 4q0 14 -31 14h-6h-6l-7 2h-6h-4h-4h-6h-6h-6h-2h-23l12 61h338l-12 -61h-18q-88 -6 -113 -27q-39 -27 -78 -69 l-88 -92l-186 -197l192 -385q63 -123 90 -156q29 -33 68 -35l18 -2l-12 -61h-256l-266 535h-45l-56 -277l-18 -98l-4 -15q-4 -25 -4 -28q0 -49 90 -54l18 -2l-14 -61h-438z" />
<glyph unicode="l" horiz-adv-x="567" vert-adv-y="2463" d="M47 0l12 61l21 2q111 6 119 23q10 14 24 74l23 98l211 1063l18 98q8 31 8 41q0 49 -114 56l-19 2l12 61h345l-265 -1321l-18 -98q-8 -31 -8 -41q0 -49 114 -56l19 -2l-12 -61h-490z" />
<glyph unicode="m" horiz-adv-x="1591" vert-adv-y="2463" d="M37 0l12 61l19 2q76 6 92 25q16 16 28 72l23 98l113 569l18 99q6 23 6 43q0 49 -88 55h-18l12 61h319l-36 -178q180 203 356 203q98 0 149 -55q45 -47 48 -152q80 92 151 139q102 68 207 68q190 0 190 -172q0 -53 -22 -172l-100 -508l-19 -98q-8 -31 -8 -43q0 -49 90 -54 l18 -2l-14 -61h-438l12 61l19 2q76 6 92 24.5t28 72.5l23 98l94 475l12 78q12 66 13 92q0 78 -88 78q-121 0 -273 -141l-116 -582l-19 -98q-6 -23 -6 -41q0 -53 88 -56l18 -2l-12 -61h-438l10 61l21 2q74 3 92 25q12 12 26 72l23 98l94 475l14 78q10 53 11 92q0 78 -86 78 q-125 0 -275 -141l-114 -582l-19 -98l-4 -15q-4 -25 -4 -28q0 -51 88 -54l20 -2l-14 -61h-438z" />
<glyph unicode="n" vert-adv-y="2463" d="M37 0l12 61l21 2q72 2 90 25q16 16 28 72l23 98l113 569l18 99q8 31 8 43q0 51 -90 55h-18l12 61h319l-36 -178q184 203 352 203q184 0 184 -170q0 -51 -22 -174l-103 -508l-16 -98l-4 -15q-4 -14 -4 -26q0 -49 88 -56l18 -2l-12 -61h-438l12 61l18 2q76 6 92 25 q12 12 27 72l23 98l96 475l12 78q10 53 10 92q0 78 -79 78q-119 0 -267 -141l-116 -582l-19 -98q0 -1 -1 -5q-2 -5 -3 -10q-4 -12 -4 -26q0 -53 88 -56l20 -2l-12 -61h-440z" />
<glyph unicode="o" vert-adv-y="2463" d="M158 379q0 305 168 518t413 213q352 0 353 -405q0 -305 -170 -519q-168 -211 -422 -211q-342 1 -342 404zM367 315q0 -272 165 -272q115 0 213 174q137 244 138 555q0 270 -158 270q-141 0 -248 -223q-110 -228 -110 -504z" />
<glyph unicode="p" vert-adv-y="2463" d="M-80 -395l12 61l21 2q72 6 90 27q16 20 29 72l22 98l193 962l16 99q8 33 8 41q0 51 -88 57h-18l12 61h318l-35 -178q74 90 141 137q94 66 195 66q258 0 258 -338q0 -332 -172 -565q-170 -231 -426 -232q-74 0 -179 25l-26 -135l-19 -98l-4 -17q-4 -25 -4 -29 q0 -49 90 -53l19 -2l-13 -61h-440zM334 78q84 -25 125 -25q168 0 293 205q123 205 122 487q0 238 -135 238q-96 0 -254 -145z" />
<glyph unicode="q" vert-adv-y="2463" d="M150 313q0 335 172 566q170 231 426 231q72 0 176 -25h196l-243 -1220l-19 -98l-4 -17q-2 -12 -2 -29q0 -51 88 -53l18 -2l-12 -61h-438l10 61l21 2q74 6 92 27q14 16 26 72l23 98l63 313q-72 -86 -143 -137q-96 -66 -192 -66q-258 0 -258 338zM369 342q0 -240 135 -240 q92 0 254 146l151 760q-78 25 -125 24q-170 0 -292 -205q-123 -205 -123 -485z" />
<glyph unicode="r" horiz-adv-x="681" vert-adv-y="2463" d="M31 0l12 61l18 2q76 6 93 25q16 16 28 72l23 98l112 569l19 99q6 23 6 43q0 49 -88 55h-18l12 61h319l-37 -178q150 203 304 203q35 0 57 -10l-60 -297h-94l2 16l2 6v13l2 8q0 10 2 16q4 20 5 35q0 41 -43 41q-84 0 -195 -125l-111 -555l-18 -98l-4 -15q-4 -25 -4 -28 q0 -49 90 -54l18 -2l-14 -61h-438z" />
<glyph unicode="s" horiz-adv-x="796" vert-adv-y="2463" d="M106 55l50 252h100l-2 -18l-12 -72q-4 -29 -4 -41q0 -133 147 -133q96 0 150 59q55 61 55 179q0 92 -109 176l-51 39q-174 131 -174 256q0 154 106 256q102 102 273 102q123 0 231 -61l-47 -236h-98l4 18q10 45 10 115q0 96 -94 96q-84 0 -133 -61q-51 -63 -51 -160 q0 -76 61 -121l76 -55l47 -39q96 -76 127 -121q33 -49 33 -118q0 -170 -115 -281q-114 -111 -295 -111q-142 0 -285 80z" />
<glyph unicode="t" horiz-adv-x="567" vert-adv-y="2463" d="M178 156q0 47 27 184l131 659h-111l17 86h112l39 197l207 49l-49 -246h223l-16 -86h-223l-140 -686l-14 -88q-12 -61 -12 -92q0 -78 80 -78q41 0 102 31l-16 -80q-84 -31 -150 -31q-207 1 -207 181z" />
<glyph unicode="u" vert-adv-y="2463" d="M176 145q0 63 23 177l100 505l18 99q0 6 5 18q0 6 2 13t2 10q0 51 -90 57h-19l12 61h320l-148 -733l-12 -78q-10 -53 -10 -92q0 -78 80 -78q115 0 266 142l117 581l16 99q8 31 8 43q0 49 -88 55h-18l12 61h318l-164 -827l-19 -98l-4 -15q-4 -14 -4 -26q0 -49 88 -56 l19 -2l-13 -61h-317l37 178q-184 -203 -353 -203q-184 0 -184 170z" />
<glyph unicode="v" vert-adv-y="2463" d="M205 1024l12 61h438l-14 -61h-18h-29q-88 -2 -88 -55q0 -18 12 -78l10 -43q3 -12 7 -31l110 -545l313 545l39 68l39 67q12 22 13 37q0 31 -62 35h-24h-23l12 61h289l-12 -61h-17q-63 -6 -114 -92l-68 -115l-479 -829h-62l-170 831q-25 125 -43 164t-55 41h-16z" />
<glyph unicode="w" horiz-adv-x="1478" vert-adv-y="2463" d="M205 1024l12 61h447l-15 -61h-20q-90 0 -103 -23q-12 -22 -12 -79q0 -25 4 -95l39 -503l416 755h65l117 -794l268 542l29 58l35 69q10 18 10 33q0 33 -70 37h-28h-21l13 61h305l-13 -61h-22q-68 -6 -127 -117l-41 -80l-426 -839h-55l-125 813l-447 -813h-61l-62 839 q-10 125 -24 158q-16 35 -70 39h-18z" />
<glyph unicode="x" vert-adv-y="2463" d="M6 0l14 61l17 2q66 6 127 74l106 119l242 266l-127 301q-68 156 -82 172q-23 27 -80 29h-16l10 61h494l-13 -61h-20l-41 -2q-76 -4 -76 -39q0 -4 8 -29l4 -12l5 -8l4 -12l6 -15q6 -23 33 -84l81 -196l156 192l70 90q55 74 55 90q0 25 -47 25h-39h-23l13 61h317l-10 -61 h-23q-57 -2 -98 -41q-43 -43 -139 -160l-207 -254l131 -311q53 -125 80 -157.5t84 -37.5l14 -2l-12 -61h-494l13 61h18l45 2q80 2 80 33q0 14 -10 33q-10 25 -19 51q-10 27 -30 76l-90 213l-193 -213q-49 -55 -68 -82l-10 -14l-10 -13l-8 -12l-3 -4q-3 -4 -5 -6 q-18 -23 -19 -35q0 -23 70 -27l39 -2h22l-12 -61h-334z" />
<glyph unicode="y" vert-adv-y="2463" d="M84 -395l403 395l-168 819q-25 121 -43 162q-20 41 -55 43h-16l12 61h436l-12 -61h-18h-29q-88 -4 -88 -55q0 -16 12 -78l4 -12l2 -17l5 -19.5t6 -25.5l110 -545l313 545l39 68l39 67q12 22 13 37q0 31 -62 35h-24h-23l12 61h289l-12 -61h-19q-59 -6 -112 -92l-68 -115 l-696 -1212h-250z" />
<glyph unicode="z" horiz-adv-x="907" vert-adv-y="2463" d="M61 0l15 61l719 957h-197h-94q-78 0 -94 -23q-14 -16 -27 -71q-9 -40 -12 -56l-6 -20h-105l47 237h729l-12 -61l-715 -950h242q132 0 172 12q35 12 47 66l14 73l7 25h106l-51 -250h-785z" />
<glyph unicode="{" horiz-adv-x="980" vert-adv-y="2463" d="M270 610l13 62h77q223 0 224 280v52l2 96q0 231 110 354q113 125 322 125h59l-12 -61h-59q-236 0 -236 -222l2 -57v-70q-4 -182 -51 -284q-78 -170 -256 -244q162 -82 162 -246q0 -109 -66 -280l-26 -70l-23 -47q-25 -59 -25 -109q0 -123 168 -122h60l-13 -64h-61 q-135 0 -217 69.5t-82 182.5q0 72 59 227l37 99l21 49q41 104 41 153q0 127 -152 127h-78z" />
<glyph unicode="|" horiz-adv-x="409" vert-adv-y="2463" d="M96 -297l375 1876h98l-374 -1876h-99z" />
<glyph unicode="}" horiz-adv-x="980" vert-adv-y="2463" d="M164 -297l10 64h62q233 0 233 219l-2 59l2 70q4 186 49 284q76 168 256 242q-162 80 -162 248q0 100 68 280l27 70l20 47q27 63 27 109q0 123 -168 123h-60l13 61h59q137 0 219 -70q80 -68 80 -182q0 -72 -59 -227l-37 -96l-21 -52q-39 -98 -39 -153q0 -127 152 -127h78 l-15 -62h-75q-225 0 -226 -280v-49v-99q0 -227 -112 -352q-115 -127 -320 -127h-59z" />
<glyph unicode="~" horiz-adv-x="1107" vert-adv-y="2463" d="M150 444q35 125 81 191q88 129 244 129q125 0 238 -117l32 -33q86 -90 175 -90q154 0 213 215h61q-34 -123 -80 -190q-90 -127 -246 -127q-125 0 -235 115l-35 32q-90 92 -174 93q-156 0 -213 -218h-61z" />
<glyph vert-adv-y="2463" d="M117 580l37 61h98q12 98 43 211h-125l39 61h104q59 168 113 258q205 346 549 347q152 0 280 -74l-51 -260h-98q0 4 4 20v13q0 6 4 18q12 55 12 92q0 123 -153 123q-186 0 -316 -190q-78 -115 -149 -347h528l-37 -61h-510q-27 -111 -43 -211h424l-39 -61h-391l-2 -17 q-2 -29 -2 -76v-26q0 -178 82 -287q82 -113 213 -113q121 0 254 76l-18 -92q-139 -82 -305 -82q-182 0 -304 139q-119 141 -118 355q0 43 6 123h-129z" />
<glyph unicode="&#xa0;" horiz-adv-x="512" vert-adv-y="2463" />
<glyph unicode="&#xa1;" horiz-adv-x="681" vert-adv-y="2463" d="M164 -395l57 297l228 788h61l-90 -788l-60 -297h-196zM420 889l39 196h198l-41 -196h-196z" />
<glyph unicode="&#xa2;" vert-adv-y="2463" d="M262 612q0 205 100 375q98 168 263 250q102 51 239 72l33 172h64l-35 -168q160 -16 291 -62l-52 -252h-110l2 19q0 2 1 5t2 9t1 12q0 2 1 9.5t1 11.5q4 12 4 18q0 8 2 13q6 27 6 45q0 84 -164 100l-192 -969q23 -2 49 -2q89 0 264 62l-18 -99q-154 -55 -316 -63l-34 -170 h-62l35 176q-164 18 -254 109q-121 116 -121 327zM467 582q0 -150 63 -226q43 -51 127 -75l195 962q-98 -23 -174 -92q-101 -98 -166 -307q-45 -141 -45 -262z" />
<glyph unicode="&#xa3;" vert-adv-y="2463" d="M74 0l30 147q119 31 179 101q68 78 110 299l39 192h-174l12 64h174l45 221q98 481 472 481q131 0 251 -69l-43 -215h-98l2 18l10 76q4 29 4 37q0 92 -135 92q-119 0 -170 -82q-43 -68 -73 -223l-68 -336h236l-13 -64h-235l-31 -153q-55 -283 -369 -439h725l-28 -147h-852 z" />
<glyph unicode="&#xa4;" vert-adv-y="2463" d="M225 475l158 131q-33 66 -33 127q0 133 109 252l-107 131l74 62l106 -131q106 63 201 63q98 0 176 -63l158 131l49 -62l-158 -131q33 -61 33 -127q0 -137 -106 -252l104 -131l-74 -61l-104 131q-102 -63 -203 -64q-98 0 -176 64l-158 -131zM451 752q0 -172 176 -172 q104 0 184 79q80 78 80 181q0 172 -174 172q-104 0 -187 -78q-79 -78 -79 -182z" />
<glyph unicode="&#xa5;" vert-adv-y="2463" d="M184 395l13 62h309l41 209h-307l12 61h307l-102 455q-35 156 -78 196q-37 37 -94 39l12 64h502l-13 -62l-55 -2q-82 0 -82 -61q0 -20 8 -66l86 -436l287 459q35 57 35 80q0 25 -45 24h-29h-10q-6 0 -17.5 1t-15.5 1l13 62h360l-12 -64q-94 -10 -140 -57 q-39 -39 -129 -180l-282 -453h307l-12 -61h-308l-43 -209h310l-13 -62h-309l-26 -137q-16 -86 -17 -137q0 -47 78 -53l66 -5l18 -2l-12 -61h-568l13 61l18 2l70 5q76 6 96 53q18 35 41 137l27 137h-310z" />
<glyph unicode="&#xa6;" horiz-adv-x="409" vert-adv-y="2463" d="M96 -297l148 741h98l-147 -741h-99zM324 840l147 739h98l-147 -739h-98z" />
<glyph unicode="&#xa7;" vert-adv-y="2463" d="M25 -258l43 221h100l-4 -18l-6 -49q-2 -14 -2 -35q0 -39 82 -76q102 -45 211 -45q137 0 239 84q100 82 100 192q0 70 -53 107q-43 31 -139 76l-98 45q-299 139 -299 297q0 176 235 348q-121 76 -121 203q0 147 127 274q152 152 432 152q158 0 334 -58l-45 -225h-98l2 16 l8 62q4 25 4 33q0 43 -73 75q-76 35 -166 35q-139 0 -240 -88q-98 -86 -98 -205q0 -106 166 -180l98 -43q190 -86 246 -141q57 -57 57 -152q0 -180 -225 -356q133 -86 133 -213q0 -170 -155.5 -285t-395.5 -115q-188 1 -399 64zM385 627q0 -76 80 -131q66 -45 203 -109 l127 -57q106 119 106 231q0 80 -108 135l-193 95l-125 61q-90 -121 -90 -225z" />
<glyph unicode="&#xa8;" horiz-adv-x="681" vert-adv-y="2463" d="M313 1282l35 174h172l-35 -174h-172zM709 1282l34 174h172l-34 -174h-172z" />
<glyph unicode="&#xa9;" horiz-adv-x="1554" vert-adv-y="2463" d="M229 606q0 322 258 574t586 252q244 0 406 -158q160 -156 159 -400q0 -322 -258 -573q-261 -252 -589 -252q-218 0 -369 129q-193 164 -193 428zM293 618q0 -219 143 -362q145 -145 371 -145q262 0 483 186q287 244 287 565q0 217 -145 363q-145 143 -369 143 q-305 0 -535 -227q-235 -230 -235 -523zM510 639q0 229 147.5 378.5t380.5 149.5q125 0 252 -34l-33 -168h-81l2 10l6 31q2 12 2 28q0 78 -151.5 78t-248.5 -145q-100 -152 -100 -355q0 -231 234 -231q100 0 247 61l-16 -77q-141 -51 -285 -52q-356 0 -356 326z" />
<glyph unicode="&#xaa;" horiz-adv-x="563" vert-adv-y="2463" d="M223 967q0 256 340 256h47l13 59q12 66 12 109q0 74 -82 73q-94 0 -119 -108l-4 -19h-100l22 125q106 55 228 56q190 0 190 -129q0 -41 -12 -107l-51 -258q-12 -55 -13 -74q0 -31 33 -30q12 0 21 2l-13 -56q-55 -37 -102 -37q-72 0 -82 97q-100 -96 -189 -97 q-139 1 -139 138zM375 981q0 -66 57 -66q55 0 131 74l35 182h-37q-82 0 -135 -53q-51 -51 -51 -137z" />
<glyph unicode="&#xab;" vert-adv-y="2463" d="M182 543l510 432l41 -39l-350 -393l195 -391l-60 -41zM573 543l510 432l41 -39l-352 -393l197 -391l-60 -41z" />
<glyph unicode="&#xac;" horiz-adv-x="1153" vert-adv-y="2463" d="M221 690l21 101h938l-21 -101l-78 -393h-100l80 393h-840z" />
<glyph unicode="&#xad;" horiz-adv-x="681" vert-adv-y="2463" d="M190 543l23 123h518l-22 -123h-519z" />
<glyph unicode="&#xae;" horiz-adv-x="1554" vert-adv-y="2463" d="M229 606q0 322 258 574t586 252q244 0 406 -158q160 -156 159 -400q0 -322 -258 -573q-261 -252 -589 -252q-218 0 -369 129q-193 164 -193 428zM293 618q0 -219 143 -362q145 -145 371 -145q262 0 483 186q287 244 287 565q0 217 -145 363q-145 143 -369 143 q-305 0 -535 -227q-235 -230 -235 -523zM528 328l11 51l28 2q41 4 54 51l14 53l98 496l8 55l4 21q-2 33 -63 33l8 51h223l52 2l51 2h49q215 2 215 -162q0 -98 -76 -186q-49 -55 -131 -90l115 -222l31 -57q20 -37 45 -43l-13 -57h-190l-156 354h-69l-39 -197l-9 -53l-4 -22 q2 -31 60 -31l-10 -51h-306zM848 737h29q100 0 165.5 70t65.5 170q0 111 -129 110h-61z" />
<glyph unicode="&#xaf;" vert-adv-y="2463" d="M395 1481l25 123h825l-22 -123h-828z" />
<glyph unicode="&#xb0;" horiz-adv-x="817" vert-adv-y="2463" d="M358 1163q0 138 111 246q113 109 252 109q104 0 172 -68q70 -70 70 -172q0 -137 -113 -246q-109 -106 -252 -106q-95 0 -160 55q-80 71 -80 182zM446 1182q0 -76 48 -121q49 -49 122 -49q88 0 162 61q94 80 94 189q0 72 -49 121t-121 49q-102 0 -178 -76 q-78 -78 -78 -174z" />
<glyph unicode="&#xb1;" horiz-adv-x="1153" vert-adv-y="2463" d="M84 0l20 98h988l-21 -98h-987zM221 690l21 101h444l80 393h98l-80 -393h445l-21 -101h-442l-80 -393h-98l78 393h-445z" />
<glyph unicode="&#xb2;" horiz-adv-x="612" vert-adv-y="2463" d="M238 760l10 49q63 113 194 217l50 39q201 158 200 299q0 113 -108 113q-61 0 -135 -50l-19 -90h-57l26 138q117 43 222 43q203 0 202 -158q0 -137 -176 -246l-43 -27l-8 -4t-7 -4l-3 -2l-58 -37q-131 -84 -157 -176h354l-20 -104h-467z" />
<glyph unicode="&#xb3;" horiz-adv-x="612" vert-adv-y="2463" d="M240 766l26 135h60l-2 -10v-10l-2 -11q0 -2 -1 -6l-2 -4v-6q-2 -6 -2 -16q0 -59 107 -60q74 0 131 68q55 63 55 151q0 135 -174 136h-55l8 38h37q242 0 242 201q0 106 -107 107q-104 0 -123 -64l-12 -45v-8h-61l24 125q106 31 201 31q203 0 203 -144q0 -150 -201 -217 q147 -39 147 -160q0 -109 -90 -182q-88 -74 -229 -74q-96 0 -180 25z" />
<glyph unicode="&#xb4;" horiz-adv-x="681" vert-adv-y="2463" d="M348 1282l303 322h260l-471 -322h-92z" />
<glyph unicode="&#xb5;" vert-adv-y="2463" d="M74 -297l123 619l102 505l16 99l7 18q4 20 4 23q0 51 -90 57h-19l12 61h320l-148 -733l-14 -78q-10 -53 -10 -92q0 -78 80 -78q117 0 268 142l115 581l18 99q8 33 8 41q0 51 -90 57h-16l10 61h320l-166 -827l-19 -98l-2 -15q-6 -23 -6 -26q0 -49 90 -56l19 -2l-13 -61 h-317l35 178q-184 -203 -349 -203q-23 0 -36 2l-56 -274h-196z" />
<glyph unicode="&#xb6;" horiz-adv-x="927" vert-adv-y="2463" d="M240 1071q0 223 147 334q111 84 272 82h70l105 -4l116 -2h154l-356 -1778h-74l336 1679h-174l-334 -1679h-76l209 1036q-168 4 -268 74q-127 88 -127 258z" />
<glyph unicode="&#xb7;" horiz-adv-x="512" vert-adv-y="2463" d="M231 492l50 245h245l-49 -245h-246z" />
<glyph unicode="&#xb8;" horiz-adv-x="681" vert-adv-y="2463" d="M86 -412l12 70q61 -16 99 -16q127 0 127 100q0 45 -54 68q-39 16 -116 16l131 174h77l-88 -119q190 -18 191 -125q0 -70 -74 -131q-70 -57 -166 -57q-71 0 -139 20z" />
<glyph unicode="&#xb9;" horiz-adv-x="612" vert-adv-y="2463" d="M291 772l8 39h33l47 4q41 2 53 25q12 25 21 69l88 434l8 52l2 18q-4 16 -29 17q-18 0 -59 -9l-43 -8l6 39l272 66l-120 -609q-8 -35 -9 -67q0 -27 45 -29l45 -2h33l-8 -39h-393z" />
<glyph unicode="&#xba;" horiz-adv-x="634" vert-adv-y="2463" d="M254 1081q0 184 106 310q109 127 265 127q233 0 233 -254q0 -180 -108.5 -307.5t-270.5 -127.5q-225 0 -225 252zM403 1038q0 -156 99 -155q61 0 116 88q88 143 89 338q0 156 -93 155q-80 0 -145 -133q-66 -135 -66 -293z" />
<glyph unicode="&#xbb;" vert-adv-y="2463" d="M117 150l352 393l-197 391l60 41l336 -432l-510 -432zM508 150l350 393l-194 391l59 41l336 -432l-510 -432z" />
<glyph unicode="&#xbc;" horiz-adv-x="1536" vert-adv-y="2463" d="M166 -37l1399 1555h86l-1399 -1555h-86zM326 772l8 39h35l45 4q43 3 55 25q12 25 20 69l86 434l9 52l4 18q-4 16 -31 17q-18 0 -57 -9l-45 -8l8 39l270 66l-121 -609q-8 -35 -8 -67q0 -25 47 -29l43 -2h35l-8 -39h-395zM854 205l12 65l463 482h90l-90 -457h92l-16 -90 h-94l-13 -68q-10 -51 -10 -71q0 -18 35 -23l33 -4h8l-6 -39h-293l6 39h10q51 0 65.5 8t24.5 41l13 49l14 68h-344zM936 295h281l71 362z" />
<glyph unicode="&#xbd;" horiz-adv-x="1536" vert-adv-y="2463" d="M166 -37l1399 1555h86l-1399 -1555h-86zM326 772l8 39h35l45 4q43 3 55 25q12 25 20 69l86 434l9 52l4 18q-4 16 -31 17q-18 0 -57 -9l-45 -8l8 39l270 66l-121 -609q-8 -35 -8 -67q0 -25 47 -29l43 -2h35l-8 -39h-395zM918 0l10 49q63 113 194 217l49 39 q201 156 201 297q0 117 -110 117q-57 0 -134 -49l-18 -90h-59l26 135q117 43 221 43q205 0 205 -158q0 -139 -176 -244l-61 -39l-60 -36q-127 -80 -155 -177h356l-23 -104h-466z" />
<glyph unicode="&#xbe;" horiz-adv-x="1536" vert-adv-y="2463" d="M166 -37l1399 1555h86l-1399 -1555h-86zM326 766l26 135h60l-2 -10q0 -4 -2 -10q0 -2 -1 -7l-1 -4v-6l-2 -2q-1 -2 -1 -4q-2 -6 -2 -20q0 -59 107 -60q76 0 133 68q55 68 55 151q0 135 -174 136h-55l6 38h39q242 0 242 201q0 106 -109 107q-102 0 -121 -64l-12 -45l-2 -8 h-59l24 125q106 31 199 31q205 0 205 -144q0 -150 -203 -217q150 -39 149 -160q0 -109 -90 -182q-88 -74 -229 -74q-96 0 -180 25zM854 205l12 65l463 482h90l-90 -457h92l-16 -90h-94l-13 -68q-10 -51 -10 -71q0 -18 35 -23l33 -4h8l-6 -39h-293l6 39h10q51 0 65.5 8 t24.5 41l15 49l12 68h-344zM936 295h281l71 362z" />
<glyph unicode="&#xbf;" horiz-adv-x="907" vert-adv-y="2463" d="M111 229q0 197 278 383q70 47 76 54l43 34q86 68 123 248l26 137h197l-2 -18q-39 -199 -213 -344l-47 -41q-272 -221 -273 -457q0 -201 222 -200q211 0 247 151l25 107l6 20h99l-54 -272q-205 -68 -377 -68q-174 0 -276 72q-100 69 -100 194zM696 1282l41 199h197 l-39 -199h-199z" />
<glyph unicode="&#xc0;" horiz-adv-x="1478" vert-adv-y="2463" d="M0 0l12 61l23 2q65 3 86 25q23 23 49 66l68 104l768 1241h69l271 -1247l28 -102q25 -84 94 -87l23 -2l-12 -61h-490l12 61h21q68 0 88 15q23 16 23 63q0 63 -13 119l-43 199h-635l-125 -199l-10 -16q-10 -16 -20 -37l-37 -70q-14 -27 -14 -41q0 -33 86 -33h16l-12 -61 h-326zM492 537h567l-148 673zM760 1925h258l176 -321h-92z" />
<glyph unicode="&#xc1;" horiz-adv-x="1478" vert-adv-y="2463" d="M0 0l12 61l23 2q65 3 86 25q23 23 49 66l68 104l768 1241h69l271 -1247l28 -102q25 -84 94 -87l23 -2l-12 -61h-490l12 61h21q68 0 88 15q23 16 23 63q0 63 -13 119l-43 199h-635l-125 -199l-10 -16q-10 -16 -20 -37l-37 -70q-14 -27 -14 -41q0 -33 86 -33h16l-12 -61 h-326zM492 537h567l-148 673zM934 1604l305 321h258l-471 -321h-92z" />
<glyph unicode="&#xc2;" horiz-adv-x="1478" vert-adv-y="2463" d="M0 0l12 61l23 2q65 3 86 25q23 23 49 66l68 104l768 1241h69l271 -1247l28 -102q25 -84 94 -87l23 -2l-12 -61h-490l12 61h21q68 0 88 15q23 16 23 63q0 63 -13 119l-43 199h-635l-125 -199l-10 -16q-10 -16 -20 -37l-37 -70q-14 -27 -14 -41q0 -33 86 -33h16l-12 -61 h-326zM492 537h567l-148 673zM711 1604l305 321h221l176 -321h-86l-221 223l-309 -223h-86z" />
<glyph unicode="&#xc3;" horiz-adv-x="1478" vert-adv-y="2463" d="M0 0l12 61l23 2q65 3 86 25q23 23 49 66l68 104l768 1241h69l271 -1247l28 -102q25 -84 94 -87l23 -2l-12 -61h-490l12 61h21q68 0 88 15q23 16 23 63q0 63 -13 119l-43 199h-635l-125 -199l-10 -16q-10 -16 -20 -37l-37 -70q-14 -27 -14 -41q0 -33 86 -33h16l-12 -61 h-326zM492 537h567l-148 673zM729 1604q92 233 272 233q68 0 111 -37l31 -24q45 -37 98 -37q96 0 139 98h62q-92 -233 -275 -233q-57 0 -108 38l-33 23q-51 39 -98 39q-86 0 -137 -100h-62z" />
<glyph unicode="&#xc4;" horiz-adv-x="1478" vert-adv-y="2463" d="M0 0l12 61l23 2q65 3 86 25q23 23 49 66l68 104l768 1241h69l271 -1247l28 -102q25 -84 94 -87l23 -2l-12 -61h-490l12 61h21q68 0 88 15q23 16 23 63q0 63 -13 119l-43 199h-635l-125 -199l-10 -16q-10 -16 -20 -37l-37 -70q-14 -27 -14 -41q0 -33 86 -33h16l-12 -61 h-326zM492 537h567l-148 673zM778 1604l33 174h174l-35 -174h-172zM1174 1604l32 174h174l-34 -174h-172z" />
<glyph unicode="&#xc5;" horiz-adv-x="1478" vert-adv-y="2463" d="M0 0l12 61l23 2q65 3 86 25q23 23 49 66l68 104l768 1241h69l271 -1247l28 -102q25 -84 94 -87l23 -2l-12 -61h-490l12 61h21q68 0 88 15q23 16 23 63q0 63 -13 119l-43 199h-635l-125 -199l-10 -16q-10 -16 -20 -37l-37 -70q-14 -27 -14 -41q0 -33 86 -33h16l-12 -61 h-326zM492 537h567l-148 673zM852 1663q0 106 84 188t192 82q76 0 123 -41q63 -51 64 -141q0 -104 -86 -188q-82 -82 -193 -82q-82 0 -133 51t-51 131zM920 1673q0 -125 129 -125q68 0 125 47q72 61 71 146q0 127 -129 127q-76 0 -135 -60q-61 -58 -61 -135z" />
<glyph unicode="&#xc6;" horiz-adv-x="1820" vert-adv-y="2463" d="M0 0l12 61l17 2q66 6 129 89l88 106l989 1223h776l-51 -260h-111l2 18l13 84l8 39q-8 39 -170 39h-270l-119 -592h227l64 2q49 0 63 14q10 14 16 41l1 4q1 4 2 7l4 8l2 12l4 16l6 19h90l-63 -328h-93l2 19q6 53 7 65q0 33 -50 35l-69 4h-230l-94 -469q-10 -51 -10 -104 q0 -51 39 -60q27 -8 106 -8h107q152 0 188 14q43 12 56 62l22 92l4 16h113l-55 -270h-1016l12 61l18 2l70 5q68 6 82 24q16 16 29 68l26 98l39 199h-538l-162 -199q-40 -49 -62 -80l-8 -10q-4 -6 -10 -14q-6 -6 -14.5 -17.5t-12.5 -15.5q-14 -16 -14 -33q0 -23 68 -22h2 q31 0 61 -3l20 -2l-12 -61h-350zM561 537h488l159 800z" />
<glyph unicode="&#xc7;" horiz-adv-x="1363" vert-adv-y="2463" d="M215 547q0 395 246 686q240 285 635 285q209 0 442 -74l-55 -285h-123l2 21q2 12 4 30l6 37q6 25 6 43q0 68 -82 113q-84 47 -198 47q-274 0 -467 -272q-195 -274 -195 -637q0 -229 125 -355q123 -125 338 -125q180 0 412 113l-19 -94q-233 -117 -485 -117 q-287 0 -438 150q-154 149 -154 434zM543 -412l14 70q61 -16 96 -16q127 0 127 100q0 45 -53 68q-31 12 -117 16l131 174h78l-88 -119q190 -18 191 -125q0 -72 -72 -131q-70 -57 -168 -57q-69 0 -139 20z" />
<glyph unicode="&#xc8;" horiz-adv-x="1249" vert-adv-y="2463" d="M43 0l12 61l19 2l69 5q76 6 97 53q18 35 41 137l190 963q18 86 18 139q0 47 -77 53l-68 4l-16 2l12 62h1102l-51 -260h-111l2 18l12 84l6 39q-8 39 -167 39h-414l-121 -592h365l63 2q53 0 66 16q10 14 16 43l2 9q0 2 3 14l5 20l4 19h80l-63 -328h-82l4 19q0 2 1 7t2 14 t1 20l2 24q0 33 -49 35l-72 4h-362l-95 -469q-12 -61 -12 -104q0 -47 39 -60q27 -8 109 -8h249q152 0 189 14q43 12 55 62l23 92l4 16h110l-53 -270h-1159zM678 1925h258l176 -321h-92z" />
<glyph unicode="&#xc9;" horiz-adv-x="1249" vert-adv-y="2463" d="M43 0l12 61l19 2l69 5q76 6 97 53q18 35 41 137l190 963q18 86 18 139q0 47 -77 53l-68 4l-16 2l12 62h1102l-51 -260h-111l2 18l12 84l6 39q-8 39 -167 39h-414l-121 -592h365l63 2q53 0 66 16q10 14 16 43l2 9q0 2 3 14l5 20l4 19h80l-63 -328h-82l4 19q0 2 1 7t2 14 t1 20l2 24q0 33 -49 35l-72 4h-362l-95 -469q-12 -61 -12 -104q0 -47 39 -60q27 -8 109 -8h249q152 0 189 14q43 12 55 62l23 92l4 16h110l-53 -270h-1159zM733 1604l305 321h260l-473 -321h-92z" />
<glyph unicode="&#xca;" horiz-adv-x="1249" vert-adv-y="2463" d="M43 0l12 61l19 2l69 5q76 6 97 53q18 35 41 137l190 963q18 86 18 139q0 47 -77 53l-68 4l-16 2l12 62h1102l-51 -260h-111l2 18l12 84l6 39q-8 39 -167 39h-414l-121 -592h365l63 2q53 0 66 16q10 14 16 43l2 9q0 2 3 14l5 20l4 19h80l-63 -328h-82l4 19q0 2 1 7t2 14 t1 20l2 24q0 33 -49 35l-72 4h-362l-95 -469q-12 -61 -12 -104q0 -47 39 -60q27 -8 109 -8h249q152 0 189 14q43 12 55 62l23 92l4 16h110l-53 -270h-1159zM586 1604l305 321h221l176 -321h-86l-221 223l-309 -223h-86z" />
<glyph unicode="&#xcb;" horiz-adv-x="1249" vert-adv-y="2463" d="M43 0l12 61l19 2l69 5q76 6 97 53q18 35 41 137l190 963q18 86 18 139q0 47 -77 53l-68 4l-16 2l12 62h1102l-51 -260h-111l2 18l12 84l6 39q-8 39 -167 39h-414l-121 -592h365l63 2q53 0 66 16q10 14 16 43l2 9q0 2 3 14l5 20l4 19h80l-63 -328h-82l4 19q0 2 1 7t2 14 t1 20l2 24q0 33 -49 35l-72 4h-362l-95 -469q-12 -61 -12 -104q0 -47 39 -60q27 -8 109 -8h249q152 0 189 14q43 12 55 62l23 92l4 16h110l-53 -270h-1159zM647 1604l35 174h172l-35 -174h-172zM1040 1604l35 174h174l-35 -174h-174z" />
<glyph unicode="&#xcc;" horiz-adv-x="681" vert-adv-y="2463" d="M51 0l12 61l19 2l70 5q76 6 96 53q18 35 41 137l190 963q18 86 19 139q0 47 -78 53l-68 4l-16 2l10 62h582l-13 -62l-18 -2l-70 -4q-68 -4 -82 -24q-12 -14 -28 -68l-27 -100l-192 -963q-16 -76 -17 -135q0 -49 76 -55l68 -5l18 -2l-12 -61h-580zM424 1925h258l176 -321 h-90z" />
<glyph unicode="&#xcd;" horiz-adv-x="681" vert-adv-y="2463" d="M51 0l12 61l19 2l70 5q76 6 96 53q18 35 41 137l190 963q18 86 19 139q0 47 -78 53l-68 4l-16 2l10 62h582l-13 -62l-18 -2l-70 -4q-68 -4 -82 -24q-12 -14 -28 -68l-27 -100l-192 -963q-16 -76 -17 -135q0 -49 76 -55l68 -5l18 -2l-12 -61h-580zM459 1604l305 321h258 l-471 -321h-92z" />
<glyph unicode="&#xce;" horiz-adv-x="681" vert-adv-y="2463" d="M51 0l12 61l19 2l70 5q76 6 96 53q18 35 41 137l190 963q18 86 19 139q0 47 -78 53l-68 4l-16 2l10 62h582l-13 -62l-18 -2l-70 -4q-68 -4 -82 -24q-12 -14 -28 -68l-27 -100l-192 -963q-16 -76 -17 -135q0 -49 76 -55l68 -5l18 -2l-12 -61h-580zM309 1604l305 321h224 l176 -321h-86l-221 223l-310 -223h-88z" />
<glyph unicode="&#xcf;" horiz-adv-x="681" vert-adv-y="2463" d="M51 0l12 61l19 2l70 5q76 6 96 53q18 35 41 137l190 963q18 86 19 139q0 47 -78 53l-68 4l-16 2l10 62h582l-13 -62l-18 -2l-70 -4q-68 -4 -82 -24q-12 -14 -28 -68l-27 -100l-192 -963q-16 -76 -17 -135q0 -49 76 -55l68 -5l18 -2l-12 -61h-580zM379 1604l33 174h174 l-35 -174h-172zM772 1604l35 174h174l-37 -174h-172z" />
<glyph unicode="&#xd0;" horiz-adv-x="1478" vert-adv-y="2463" d="M41 0l12 61l19 2l69 5q76 6 97 53q18 35 41 137l90 459h-185l15 65h184l86 439q18 86 18 139q0 47 -77 53l-68 4l-16 2l12 62h424h72l71 4h74q233 4 379 -82q215 -125 215 -447q0 -338 -207 -616q-248 -340 -680 -340h-645zM469 147q14 -80 168 -79q324 0 508 241 q88 115 143 307q57 190 58 371q0 426 -533 426h-94l-127 -631h346l-14 -65h-344l-93 -459l-12 -78z" />
<glyph unicode="&#xd1;" horiz-adv-x="1478" vert-adv-y="2463" d="M43 0l14 61l19 2l67 5q76 6 99 53q20 37 39 137l192 963q16 86 16 137q0 53 -75 55l-68 4l-18 2l12 62h334l553 -1149l178 889q16 86 16 139q0 49 -78 53l-65 4l-18 2l12 62h461l-13 -62l-18 -2l-70 -4q-68 -4 -82 -24q-16 -16 -28 -68l-27 -100l-248 -1241h-69 l-611 1241l-192 -963q-16 -86 -17 -137q0 -47 78 -53l68 -5l16 -2l-10 -61h-467zM748 1604q45 109 94 157q74 76 180 76q68 0 111 -37l28 -24q43 -37 101 -37q94 0 137 98h61q-43 -106 -94 -158q-74 -76 -178 -75q-61 0 -113 38l-28 23q-49 39 -99 39q-88 0 -139 -100h-61z " />
<glyph unicode="&#xd2;" horiz-adv-x="1478" vert-adv-y="2463" d="M207 520q0 414 242 705q244 293 593 293q252 0 392 -146q139 -141 139 -411q0 -406 -230 -693q-244 -305 -620 -305q-219 0 -350 119q-166 147 -166 438zM424 471q0 -211 84 -326q86 -115 235 -114q225 0 392 231q223 309 223 746q0 217 -88 329q-90 113 -246 113 q-244 0 -422 -297q-178 -293 -178 -682zM780 1925h260l177 -321h-93z" />
<glyph unicode="&#xd3;" horiz-adv-x="1478" vert-adv-y="2463" d="M207 520q0 412 242 707q242 291 593 291q250 0 392 -144q141 -145 141 -413q0 -401 -232 -693q-244 -305 -618 -305q-217 0 -350 119q-168 149 -168 438zM428 467q0 -207 84 -321.5t231 -114.5q223 0 387 231q106 147 166 350q55 190 56 400q0 217 -86 327.5t-240 110.5 q-242 0 -420 -299q-178 -301 -178 -684zM909 1604l303 321h261l-472 -321h-92z" />
<glyph unicode="&#xd4;" horiz-adv-x="1478" vert-adv-y="2463" d="M207 520q0 412 242 707q242 291 593 291q250 0 392 -144q141 -145 141 -413q0 -401 -232 -693q-244 -305 -618 -305q-217 0 -350 119q-168 149 -168 438zM428 467q0 -207 84 -321.5t231 -114.5q223 0 387 231q106 147 166 350q55 190 56 400q0 217 -86 327.5t-240 110.5 q-242 0 -420 -299q-178 -301 -178 -684zM711 1604l305 321h221l176 -321h-86l-219 223l-309 -223h-88z" />
<glyph unicode="&#xd5;" horiz-adv-x="1478" vert-adv-y="2463" d="M207 520q0 412 242 707q242 291 593 291q250 0 392 -144q141 -145 141 -413q0 -401 -232 -693q-244 -305 -618 -305q-217 0 -350 119q-168 149 -168 438zM428 467q0 -207 84 -321.5t231 -114.5q223 0 387 231q106 147 166 350q55 190 56 400q0 217 -86 327.5t-240 110.5 q-242 0 -420 -299q-178 -301 -178 -684zM729 1604q92 233 275 233q68 0 110 -37l31 -24q47 -37 98 -37q94 0 137 98h64q-92 -233 -275 -233q-59 0 -110 38l-31 23q-51 39 -98 39q-88 0 -137 -100h-64z" />
<glyph unicode="&#xd6;" horiz-adv-x="1478" vert-adv-y="2463" d="M207 520q0 412 242 707q242 291 593 291q250 0 392 -144q141 -145 141 -413q0 -401 -232 -693q-244 -305 -618 -305q-217 0 -350 119q-168 149 -168 438zM428 467q0 -207 84 -321.5t231 -114.5q223 0 387 231q106 147 166 350q55 190 56 400q0 217 -86 327.5t-240 110.5 q-242 0 -420 -299q-178 -301 -178 -684zM778 1604l35 174h172l-33 -174h-174zM1174 1604l34 174h172l-32 -174h-174z" />
<glyph unicode="&#xd7;" horiz-adv-x="1153" vert-adv-y="2463" d="M119 170l508 422l-340 424l84 69l340 -423l508 423l55 -69l-508 -424l338 -422l-82 -72l-340 424l-510 -424z" />
<glyph unicode="&#xd8;" horiz-adv-x="1478" vert-adv-y="2463" d="M74 -37l215 217q-84 143 -84 340q0 414 239 707q240 291 594 291q166 0 281 -64q66 -33 129 -102l166 166h88l-215 -220q84 -150 84 -340q0 -408 -242 -702q-240 -293 -594 -293q-256 0 -405 162l-160 -162h-96zM426 469q0 -68 12 -137l881 889q-35 100 -92 153 q-82 76 -205 76q-240 0 -418 -299q-178 -298 -178 -682zM459 254q37 -102 90 -150q80 -74 203 -73q240 0 417 299q180 301 181 680q0 63 -13 137z" />
<glyph unicode="&#xd9;" horiz-adv-x="1478" vert-adv-y="2463" d="M293 340q0 95 24 215l134 666q16 76 16 139q0 47 -78 53l-65 4l-19 2l12 62h584l-12 -62l-21 -2l-67 -4q-70 -6 -84 -27q-16 -20 -29 -65l-24 -100l-127 -633q-49 -246 -50 -301q0 -115 82 -186.5t217 -71.5q193 0 334 131q72 66 103 157q25 74 55 228l135 676 q16 86 17 139q0 47 -78 53l-68 4l-16 2l12 62h473l-12 -62l-19 -2l-67 -4q-68 -4 -82 -24q-18 -18 -31 -68l-24 -100l-125 -621q-41 -209 -82 -301q-43 -96 -127 -178q-164 -158 -447 -158q-444 0 -444 377zM821 1925h258l178 -321h-94z" />
<glyph unicode="&#xda;" horiz-adv-x="1478" vert-adv-y="2463" d="M293 340q0 95 24 215l134 666q16 76 16 139q0 47 -78 53l-65 4l-19 2l12 62h584l-12 -62l-21 -2l-67 -4q-70 -6 -84 -27q-16 -20 -29 -65l-24 -100l-127 -633q-49 -246 -50 -301q0 -115 82 -186.5t217 -71.5q193 0 334 131q72 66 103 157q25 74 55 228l135 676 q16 86 17 139q0 47 -78 53l-68 4l-16 2l12 62h473l-12 -62l-19 -2l-67 -4q-68 -4 -82 -24q-18 -18 -31 -68l-24 -100l-125 -621q-41 -209 -82 -301q-43 -96 -127 -178q-164 -158 -447 -158q-444 0 -444 377zM973 1604l305 321h258l-471 -321h-92z" />
<glyph unicode="&#xdb;" horiz-adv-x="1478" vert-adv-y="2463" d="M293 340q0 95 24 215l134 666q16 76 16 139q0 47 -78 53l-65 4l-19 2l12 62h584l-12 -62l-21 -2l-67 -4q-70 -6 -84 -27q-16 -20 -29 -65l-24 -100l-127 -633q-49 -246 -50 -301q0 -115 82 -186.5t217 -71.5q193 0 334 131q72 66 103 157q25 74 55 228l135 676 q16 86 17 139q0 47 -78 53l-68 4l-16 2l12 62h473l-12 -62l-19 -2l-67 -4q-68 -4 -82 -24q-18 -18 -31 -68l-24 -100l-125 -621q-41 -209 -82 -301q-43 -96 -127 -178q-164 -158 -447 -158q-444 0 -444 377zM764 1604l303 321h223l176 -321h-86l-221 223l-309 -223h-86z" />
<glyph unicode="&#xdc;" horiz-adv-x="1478" vert-adv-y="2463" d="M293 340q0 95 24 215l134 666q16 76 16 139q0 47 -78 53l-65 4l-19 2l12 62h584l-12 -62l-21 -2l-67 -4q-70 -6 -84 -27q-16 -20 -29 -65l-24 -100l-127 -633q-49 -246 -50 -301q0 -115 82 -186.5t217 -71.5q193 0 334 131q72 66 103 157q25 74 55 228l135 676 q16 86 17 139q0 47 -78 53l-68 4l-16 2l12 62h473l-12 -62l-19 -2l-67 -4q-68 -4 -82 -24q-18 -18 -31 -68l-24 -100l-125 -621q-41 -209 -82 -301q-43 -96 -127 -178q-164 -158 -447 -158q-444 0 -444 377zM831 1604l33 174h174l-34 -174h-173zM1227 1604l33 174h174 l-35 -174h-172z" />
<glyph unicode="&#xdd;" horiz-adv-x="1478" vert-adv-y="2463" d="M285 1419l12 62h573l-12 -62h-18l-72 -2q-84 -4 -84 -47q0 -25 31 -90l30 -66l222 -466l407 466q131 150 131 177q0 23 -73 26l-60 2h-18l12 62h410l-13 -62l-20 -2l-45 -2q-72 -4 -133 -82q0 -2 -2 -2q-4 -4 -9 -10l-18 -18q-23 -25 -42 -48.5l-34 -40.5l-491 -559 l-80 -397q-16 -86 -17 -137q0 -47 78 -53l68 -5l16 -2l-10 -61h-582l13 61l18 2l70 5q76 6 96 53q18 35 41 137l80 397l-264 559l-41 89q-51 106 -95 112l-57 2zM971 1604l305 321h260l-473 -321h-92z" />
<glyph unicode="&#xde;" horiz-adv-x="1138" vert-adv-y="2463" d="M43 0l12 61l19 2l69 5q76 6 97 53q18 35 41 137l190 963q18 86 18 139q0 47 -77 53l-68 4l-16 2l12 62h580l-13 -62l-18 -2l-70 -4q-68 -4 -82 -24q-12 -14 -28 -68l-27 -100l-8 -43l104 2q231 4 342 -56q125 -63 125 -239q0 -205 -139 -363q-182 -207 -600 -207h-4 l-13 -57q-16 -76 -16 -135q0 -49 78 -55l65 -5l19 -2l-12 -61h-580zM514 383h16q219 0 356.5 145.5t137.5 360.5q0 127 -90 178q-78 43 -217 43h-58z" />
<glyph unicode="&#xdf;" vert-adv-y="2463" d="M27 0l12 61l18 2q74 3 93 25q16 18 28 72l23 98l170 854q55 274 153 381q101 111 295 111q283 0 283 -201q0 -94 -51 -160q-43 -55 -136 -135l-47 -41l-39 -33q-66 -59 -65 -121q0 -45 41 -102l47 -66l78 -114q127 -193 127 -289q0 -141 -110.5 -254t-252.5 -113 q-49 0 -164 29l45 223h87l-3 -16l-10 -72v-14l-2 -8v-8q0 -72 72 -72q63 0 112.5 67.5t49.5 153.5q0 74 -78 193l-88 131q-100 150 -101 215q0 94 125 221l33 33q139 141 139 352q0 139 -110 139q-100 0 -146 -96q-37 -78 -67 -229l-191 -959l-14 -98q-2 -8 -4 -18.5 t-3 -16.5t-1 -8q0 -49 76 -54l18 -2l-12 -61h-430z" />
<glyph unicode="&#xe0;" horiz-adv-x="907" vert-adv-y="2463" d="M123 195q0 206 147 325q150 121 404 121h41l26 135q25 125 25 170q0 88 -113 88q-77 0 -123 -43q-47 -45 -63 -129l-2 -16h-137l34 174q162 90 334 90q260 0 260 -192q0 -59 -16 -134l-96 -483q-27 -139 -27 -180q0 -55 45 -55q20 0 53 8l-10 -74q-80 -25 -117 -25 q-121 0 -126 175q-150 -174 -322 -175q-217 1 -217 220zM342 223q0 -131 109 -131q70 0 170 78l81 410h-47q-145 0 -229 -96.5t-84 -260.5zM490 1604h260l176 -322h-92z" />
<glyph unicode="&#xe1;" horiz-adv-x="907" vert-adv-y="2463" d="M123 195q0 206 147 325q150 121 404 121h41l26 135q25 125 25 170q0 88 -113 88q-77 0 -123 -43q-47 -45 -63 -129l-2 -16h-137l34 174q162 90 334 90q260 0 260 -192q0 -59 -16 -134l-96 -483q-27 -139 -27 -180q0 -55 45 -55q20 0 53 8l-10 -74q-80 -25 -117 -25 q-121 0 -126 175q-150 -174 -322 -175q-217 1 -217 220zM342 223q0 -131 109 -131q70 0 170 78l81 410h-47q-145 0 -229 -96.5t-84 -260.5zM543 1282l303 322h260l-471 -322h-92z" />
<glyph unicode="&#xe2;" horiz-adv-x="907" vert-adv-y="2463" d="M123 195q0 206 147 325q150 121 404 121h41l26 135q25 125 25 170q0 88 -113 88q-77 0 -123 -43q-47 -45 -63 -129l-2 -16h-137l34 174q162 90 334 90q260 0 260 -192q0 -59 -16 -134l-96 -483q-27 -139 -27 -180q0 -55 45 -55q20 0 53 8l-10 -74q-80 -25 -117 -25 q-121 0 -126 175q-150 -174 -322 -175q-217 1 -217 220zM342 223q0 -131 109 -131q70 0 170 78l81 410h-47q-145 0 -229 -96.5t-84 -260.5zM381 1282l305 322h221l176 -322h-86l-221 223l-309 -223h-86z" />
<glyph unicode="&#xe3;" horiz-adv-x="907" vert-adv-y="2463" d="M123 195q0 206 147 325q150 121 404 121h41l26 135q25 125 25 170q0 88 -113 88q-77 0 -123 -43q-47 -45 -63 -129l-2 -16h-137l34 174q162 90 334 90q260 0 260 -192q0 -59 -16 -134l-96 -483q-27 -139 -27 -180q0 -55 45 -55q20 0 53 8l-10 -74q-80 -25 -117 -25 q-121 0 -126 175q-150 -174 -322 -175q-217 1 -217 220zM342 223q0 -131 109 -131q70 0 170 78l81 410h-47q-145 0 -229 -96.5t-84 -260.5zM385 1282q43 109 94 160q74 76 181 76q65 0 110 -37l31 -27q45 -37 98 -37q96 0 140 101h61q-45 -109 -94 -158q-74 -78 -180 -78 q-61 0 -111 39l-31 25q-49 37 -98 36q-88 0 -137 -100h-64z" />
<glyph unicode="&#xe4;" horiz-adv-x="907" vert-adv-y="2463" d="M123 195q0 206 147 325q150 121 404 121h41l26 135q25 125 25 170q0 88 -113 88q-77 0 -123 -43q-47 -45 -63 -129l-2 -16h-137l34 174q162 90 334 90q260 0 260 -192q0 -59 -16 -134l-96 -483q-27 -139 -27 -180q0 -55 45 -55q20 0 53 8l-10 -74q-80 -25 -117 -25 q-121 0 -126 175q-150 -174 -322 -175q-217 1 -217 220zM342 223q0 -131 109 -131q70 0 170 78l81 410h-47q-145 0 -229 -96.5t-84 -260.5zM448 1282l35 174h172l-35 -174h-172zM844 1282l34 174h172l-34 -174h-172z" />
<glyph unicode="&#xe5;" horiz-adv-x="907" vert-adv-y="2463" d="M123 195q0 206 147 325q150 121 404 121h41l26 135q25 125 25 170q0 88 -113 88q-77 0 -123 -43q-47 -45 -63 -129l-2 -16h-137l34 174q162 90 334 90q260 0 260 -192q0 -59 -16 -134l-96 -483q-27 -139 -27 -180q0 -55 45 -55q20 0 53 8l-10 -74q-80 -25 -117 -25 q-121 0 -126 175q-150 -174 -322 -175q-217 1 -217 220zM342 223q0 -131 109 -131q70 0 170 78l81 410h-47q-145 0 -229 -96.5t-84 -260.5zM547 1464q0 108 86 191q82 82 192 82q80 0 131 -51q53 -53 54 -132q0 -106 -84 -188q-88 -84 -195 -84q-72 0 -121 43 q-63 51 -63 139zM616 1477q0 -125 129 -125q66 0 123 47q72 61 72 145q0 125 -129 125q-78 0 -135 -57q-60 -57 -60 -135z" />
<glyph unicode="&#xe6;" horiz-adv-x="1363" vert-adv-y="2463" d="M123 195q0 206 147 325q150 121 404 121h41l26 135q25 121 25 170q0 88 -113 88q-145 0 -186 -172l-4 -16h-135l34 174q162 90 332 90q174 0 242 -100q133 100 262 100q115 0 186.5 -78t71.5 -207q0 -82 -29 -221l-4 -18h-524q-27 -139 -27 -236q0 -274 211 -274 q92 0 252 74l-18 -101q-160 -74 -293 -74q-137 0 -231 76q-59 49 -105 129q-90 -109 -156 -153q-76 -51 -190 -52q-219 1 -219 220zM342 223q0 -131 109 -131q70 0 170 78l79 410h-45q-147 0 -229 -97q-84 -96 -84 -260zM911 647h316l8 45q31 166 31 215q0 135 -94.5 135 t-159.5 -114q-56 -95 -101 -281z" />
<glyph unicode="&#xe7;" horiz-adv-x="907" vert-adv-y="2463" d="M170 410q0 289 180 493q182 207 438 207q129 0 279 -49l-53 -258h-123l4 16q8 55 8 113q0 111 -129 110q-156 0 -272 -198q-117 -201 -117 -453q0 -151 74 -233q72 -84 194 -84q76 0 226 49l-17 -86q-169 -61 -295 -62q-181 0 -288 117q-109 119 -109 318zM291 -412 l12 70q61 -16 99 -16q127 0 127 100q0 45 -54 68q-39 16 -116 16l131 174h77l-88 -119q190 -18 191 -125q0 -70 -74 -131q-70 -57 -166 -57q-71 0 -139 20z" />
<glyph unicode="&#xe8;" horiz-adv-x="907" vert-adv-y="2463" d="M160 373q0 291 166 514t397 223q276 0 276 -283q0 -98 -26 -223l-4 -18h-566q-27 -145 -26 -232q0 -279 237 -278q123 0 267 74l-21 -101q-181 -74 -319 -74q-174 0 -279 105q-102 103 -102 293zM416 647h354l10 45q31 147 31 209q0 141 -117 141q-109 0 -182 -124 q-53 -93 -96 -271zM508 1604h260l176 -322h-92z" />
<glyph unicode="&#xe9;" horiz-adv-x="907" vert-adv-y="2463" d="M160 373q0 291 166 514t397 223q276 0 276 -283q0 -98 -26 -223l-4 -18h-566q-27 -145 -26 -232q0 -279 237 -278q123 0 267 74l-21 -101q-181 -74 -319 -74q-174 0 -279 105q-102 103 -102 293zM416 647h354l10 45q31 147 31 209q0 141 -117 141q-109 0 -182 -124 q-53 -93 -96 -271zM561 1282l303 322h260l-471 -322h-92z" />
<glyph unicode="&#xea;" horiz-adv-x="907" vert-adv-y="2463" d="M160 373q0 291 166 514t397 223q276 0 276 -283q0 -98 -26 -223l-4 -18h-566q-27 -145 -26 -232q0 -279 237 -278q123 0 267 74l-21 -101q-181 -74 -319 -74q-174 0 -279 105q-102 103 -102 293zM416 647h354l10 45q31 147 31 209q0 141 -117 141q-109 0 -182 -124 q-53 -93 -96 -271zM402 1282l305 322h221l176 -322h-86l-221 223l-309 -223h-86z" />
<glyph unicode="&#xeb;" horiz-adv-x="907" vert-adv-y="2463" d="M160 373q0 291 166 514t397 223q276 0 276 -283q0 -98 -26 -223l-4 -18h-566q-27 -145 -26 -232q0 -279 237 -278q123 0 267 74l-21 -101q-181 -74 -319 -74q-174 0 -279 105q-102 103 -102 293zM416 647h354l10 45q31 147 31 209q0 141 -117 141q-109 0 -182 -124 q-53 -93 -96 -271zM469 1282l35 174h172l-35 -174h-172zM865 1282l34 174h172l-34 -174h-172z" />
<glyph unicode="&#xec;" horiz-adv-x="567" vert-adv-y="2463" d="M549 61l-12 -61h-490l12 61l21 2q111 6 119 23q10 14 24 74l23 98l112 569l19 99q8 31 8 41q0 51 -115 57h-18l12 61h344l-166 -827l-18 -98q-8 -31 -8 -41q0 -49 114 -56zM328 1604h260l176 -322h-92z" />
<glyph unicode="&#xed;" horiz-adv-x="567" vert-adv-y="2463" d="M549 61l-12 -61h-490l12 61l21 2q111 6 119 23q10 14 24 74l23 98l112 569l19 99q8 31 8 41q0 51 -115 57h-18l12 61h344l-166 -827l-18 -98q-8 -31 -8 -41q0 -49 114 -56zM332 1282l303 322h260l-471 -322h-92z" />
<glyph unicode="&#xee;" horiz-adv-x="567" vert-adv-y="2463" d="M549 61l-12 -61h-490l12 61l21 2q111 6 119 23q10 14 24 74l23 98l112 569l19 99q8 31 8 41q0 51 -115 57h-18l12 61h344l-166 -827l-18 -98q-8 -31 -8 -41q0 -49 114 -56zM197 1282l305 322h221l176 -322h-86l-221 223l-309 -223h-86z" />
<glyph unicode="&#xef;" horiz-adv-x="567" vert-adv-y="2463" d="M47 0l12 61l21 2q111 6 119 23q10 14 24 74l23 98l112 569l19 99q8 31 8 41q0 51 -115 57h-18l12 61h344l-166 -827l-18 -98q-8 -31 -8 -41q0 -49 114 -56l19 -2l-12 -61h-490zM264 1282l35 174h172l-35 -174h-172zM659 1282l35 174h172l-35 -174h-172z" />
<glyph unicode="&#xf0;" vert-adv-y="2463" d="M158 381q0 289 168 496q169 209 399 208q43 0 92 -8q-47 111 -149 240l-332 -199l-27 53l318 187q-129 135 -303 149l14 72q248 0 434 -135l240 141l24 -49l-223 -131q129 -109 201 -225q96 -162 96 -381q0 -344 -172 -584t-430 -240q-350 0 -350 406zM369 315.5 q0 -272.5 155 -272.5q138 0 246 215q109 221 109 490q0 270 -158 270q-138 0 -246 -215q-106 -215 -106 -487.5z" />
<glyph unicode="&#xf1;" vert-adv-y="2463" d="M37 0l12 61l21 2q72 2 90 25q16 16 28 72l23 98l113 569l18 99q8 31 8 43q0 51 -90 55h-18l12 61h319l-36 -178q184 203 352 203q184 0 184 -170q0 -51 -22 -174l-103 -508l-16 -98l-4 -15q-4 -14 -4 -26q0 -49 88 -56l18 -2l-12 -61h-438l12 61l18 2q76 6 92 25 q12 12 27 72l23 98l96 475l12 78q10 53 10 92q0 78 -79 78q-119 0 -267 -141l-116 -582l-19 -98q0 -1 -1 -5q-2 -5 -3 -10q-4 -12 -4 -26q0 -53 88 -56l20 -2l-12 -61h-440zM438 1282q43 109 94 160q74 76 181 76q65 0 110 -37l31 -27q45 -37 98 -37q96 0 140 101h61 q-45 -109 -94 -158q-74 -78 -180 -78q-61 0 -111 39l-31 25q-49 37 -98 36q-88 0 -137 -100h-64z" />
<glyph unicode="&#xf2;" vert-adv-y="2463" d="M158 379q0 305 168 518t413 213q352 0 353 -405q0 -305 -170 -519q-168 -211 -422 -211q-342 1 -342 404zM367 315q0 -272 165 -272q115 0 213 174q137 244 138 555q0 270 -158 270q-141 0 -248 -223q-110 -228 -110 -504zM504 1604h260l176 -322h-92z" />
<glyph unicode="&#xf3;" vert-adv-y="2463" d="M158 379q0 305 168 518t413 213q352 0 353 -405q0 -305 -170 -519q-168 -211 -422 -211q-342 1 -342 404zM367 315q0 -272 165 -272q115 0 213 174q137 244 138 555q0 270 -158 270q-141 0 -248 -223q-110 -228 -110 -504zM606 1282l303 322h260l-471 -322h-92z" />
<glyph unicode="&#xf4;" vert-adv-y="2463" d="M158 379q0 305 168 518t413 213q352 0 353 -405q0 -305 -170 -519q-168 -211 -422 -211q-342 1 -342 404zM367 315q0 -272 165 -272q115 0 213 174q137 244 138 555q0 270 -158 270q-141 0 -248 -223q-110 -228 -110 -504zM420 1282l305 322h221l176 -322h-86l-221 223 l-309 -223h-86z" />
<glyph unicode="&#xf5;" vert-adv-y="2463" d="M158 379q0 305 168 518t413 213q352 0 353 -405q0 -305 -170 -519q-168 -211 -422 -211q-342 1 -342 404zM367 315q0 -272 165 -272q115 0 213 174q137 244 138 555q0 270 -158 270q-141 0 -248 -223q-110 -228 -110 -504zM438 1282q43 109 94 160q74 76 181 76 q65 0 110 -37l31 -27q45 -37 98 -37q96 0 140 101h61q-45 -109 -94 -158q-74 -78 -180 -78q-61 0 -111 39l-31 25q-49 37 -98 36q-88 0 -137 -100h-64z" />
<glyph unicode="&#xf6;" vert-adv-y="2463" d="M158 379q0 305 168 518t413 213q352 0 353 -405q0 -305 -170 -519q-168 -211 -422 -211q-342 1 -342 404zM367 315q0 -272 165 -272q115 0 213 174q137 244 138 555q0 270 -158 270q-141 0 -248 -223q-110 -228 -110 -504zM487 1282l35 174h172l-35 -174h-172zM883 1282 l34 174h172l-34 -174h-172z" />
<glyph unicode="&#xf7;" horiz-adv-x="1153" vert-adv-y="2463" d="M193 543l20 98h985l-18 -98h-987zM498 98l41 199h196l-39 -199h-198zM655 889l41 196h197l-39 -196h-199z" />
<glyph unicode="&#xf8;" vert-adv-y="2463" d="M57 -25l148 162q-51 104 -51 246q0 297 170 514q168 213 411 213q164 0 262 -102l93 102h96l-150 -162q51 -104 51 -243q0 -303 -167.5 -516.5t-413.5 -213.5q-164 0 -260 103l-92 -103h-97zM362 311l510 561q-25 170 -147 170q-166 0 -283 -292q-78 -199 -80 -439z M369 213q25 -170 149 -170q164 0 281 293q78 195 80 436z" />
<glyph unicode="&#xf9;" vert-adv-y="2463" d="M176 145q0 63 23 177l100 505l18 99q0 6 5 18q0 6 2 13t2 10q0 51 -90 57h-19l12 61h320l-148 -733l-12 -78q-10 -53 -10 -92q0 -78 80 -78q115 0 266 142l117 581l16 99q8 31 8 43q0 49 -88 55h-18l12 61h318l-164 -827l-19 -98l-4 -15q-4 -14 -4 -26q0 -49 88 -56 l19 -2l-13 -61h-317l37 178q-184 -203 -353 -203q-184 0 -184 170zM492 1604h260l176 -322h-92z" />
<glyph unicode="&#xfa;" vert-adv-y="2463" d="M176 145q0 63 23 177l100 505l18 99q0 6 5 18q0 6 2 13t2 10q0 51 -90 57h-19l12 61h320l-148 -733l-12 -78q-10 -53 -10 -92q0 -78 80 -78q115 0 266 142l117 581l16 99q8 31 8 43q0 49 -88 55h-18l12 61h318l-164 -827l-19 -98l-4 -15q-4 -14 -4 -26q0 -49 88 -56 l19 -2l-13 -61h-317l37 178q-184 -203 -353 -203q-184 0 -184 170zM545 1282l303 322h260l-471 -322h-92z" />
<glyph unicode="&#xfb;" vert-adv-y="2463" d="M176 145q0 63 23 177l100 505l18 99q0 6 5 18q0 6 2 13t2 10q0 51 -90 57h-19l12 61h320l-148 -733l-12 -78q-10 -53 -10 -92q0 -78 80 -78q115 0 266 142l117 581l16 99q8 31 8 43q0 49 -88 55h-18l12 61h318l-164 -827l-19 -98l-4 -15q-4 -14 -4 -26q0 -49 88 -56 l19 -2l-13 -61h-317l37 178q-184 -203 -353 -203q-184 0 -184 170zM391 1282l305 322h221l176 -322h-86l-221 223l-309 -223h-86z" />
<glyph unicode="&#xfc;" vert-adv-y="2463" d="M176 145q0 63 23 177l100 505l18 99q0 6 5 18q0 6 2 13t2 10q0 51 -90 57h-19l12 61h320l-148 -733l-12 -78q-10 -53 -10 -92q0 -78 80 -78q115 0 266 142l117 581l16 99q8 31 8 43q0 49 -88 55h-18l12 61h318l-164 -827l-19 -98l-4 -15q-4 -14 -4 -26q0 -49 88 -56 l19 -2l-13 -61h-317l37 178q-184 -203 -353 -203q-184 0 -184 170zM477 1282l35 174h172l-35 -174h-172zM873 1282l34 174h172l-34 -174h-172z" />
<glyph unicode="&#xfd;" vert-adv-y="2463" d="M84 -395l403 395l-168 819q-25 121 -43 162q-20 41 -55 43h-16l12 61h436l-12 -61h-18h-29q-88 -4 -88 -55q0 -16 12 -78l4 -12l2 -17l5 -19.5t6 -25.5l110 -545l313 545l39 68l39 67q12 22 13 37q0 31 -62 35h-24h-23l12 61h289l-12 -61h-19q-59 -6 -112 -92l-68 -115 l-696 -1212h-250zM655 1282l303 322h260l-471 -322h-92z" />
<glyph unicode="&#xfe;" vert-adv-y="2463" d="M-80 -395l12 61l21 2q72 6 90 27q16 20 29 72l22 98l309 1554q8 27 9 39q0 53 -90 58l-19 2l12 61h320l-135 -672q74 90 141 137q94 66 195 66q258 0 258 -338q0 -332 -172 -565q-170 -231 -426 -232q-74 0 -179 25l-26 -135l-19 -98l-4 -17q-4 -25 -4 -29q0 -49 90 -53 l19 -2l-13 -61h-440zM334 78q84 -25 125 -25q168 0 293 205q123 205 122 487q0 238 -135 238q-96 0 -254 -145z" />
<glyph unicode="&#xff;" vert-adv-y="2463" d="M84 -395l403 395l-168 819q-25 121 -43 162q-20 41 -55 43h-16l12 61h436l-12 -61h-18h-29q-88 -4 -88 -55q0 -16 12 -78l4 -12l2 -17l5 -19.5t6 -25.5l110 -545l313 545l39 68l39 67q12 22 13 37q0 31 -62 35h-24h-23l12 61h289l-12 -61h-19q-59 -6 -112 -92l-68 -115 l-696 -1212h-250zM563 1282l35 174h172l-33 -174h-174zM958 1282l35 174h172l-35 -174h-172z" />
<glyph unicode="&#x131;" horiz-adv-x="567" vert-adv-y="2463" d="M549 61l-12 -61h-490l12 61l21 2q111 6 119 23q10 14 24 74l23 98l112 569l19 99q8 31 8 41q0 51 -115 57h-18l12 61h344l-166 -827l-18 -98q-8 -31 -8 -41q0 -49 114 -56z" />
<glyph unicode="&#x152;" horiz-adv-x="1820" vert-adv-y="2463" d="M207 518q0 403 231 703q229 297 547 297q160 0 272 -109l15 72h741l-51 -260h-111l2 18l7 37q6 51 8 53q6 18 6 23q0 49 -168 49h-225l-117 -592h182l64 2q49 0 61 12q10 14 19 43q0 2 1 4t1 4q0 4 6 23l4 16l4 19h94l-65 -328h-93l3 19q0 12 2 22q4 41 4 43q0 33 -47 35 l-72 4h-184l-95 -469q-12 -55 -12 -106q0 -47 39 -58q27 -8 109 -8h98q115 0 151 14q41 16 54 62l16 71l4 21h113l-51 -254h-797l12 74q-82 -59 -131 -80q-35 -14 -74 -21q-55 -10 -108 -10q-77 0 -191 37q-119 41 -190 156q-88 139 -88 362zM424 467q0 -209 74 -324 q74 -113 207 -112q152 0 241 131q88 129 152 448l53 260q43 221 43 326q0 254 -209 254q-217 0 -389 -305q-172 -307 -172 -678z" />
<glyph unicode="&#x153;" horiz-adv-x="1478" vert-adv-y="2463" d="M158 387q0 287 170 506q168 217 391 217q121 0 192 -68q45 -45 70 -114q152 182 315 182q123 0 195 -84t72 -227q0 -109 -21 -197l-4 -16h-514q-27 -133 -27 -234q0 -279 205 -278q98 0 248 71l-20 -100q-164 -70 -289 -70q-135 0 -219 78q-51 47 -91 135 q-100 -125 -157 -161q-72 -51 -182 -52q-154 0 -244 108.5t-90 303.5zM352 301q0 -262 162 -262q170 0 254 336q31 133 53 262q27 160 27 207q0 203 -137 203q-154 0 -248 -228q-53 -127 -84 -280q-27 -138 -27 -238zM1038 647h303l9 45q27 139 26 205q0 152 -96 152 q-90 0 -154 -131q-49 -101 -88 -271z" />
<glyph unicode="&#x178;" horiz-adv-x="1478" vert-adv-y="2463" d="M285 1419l12 62h573l-12 -62h-18l-72 -2q-84 -4 -84 -47q0 -25 31 -90l30 -66l222 -466l407 466q131 150 131 177q0 23 -73 26l-60 2h-18l12 62h410l-13 -62l-20 -2l-45 -2q-72 -4 -133 -82q0 -2 -2 -2q-4 -4 -9 -10l-18 -18q-23 -25 -42 -48.5l-34 -40.5l-491 -559 l-80 -397q-16 -86 -17 -137q0 -47 78 -53l68 -5l16 -2l-10 -61h-582l13 61l18 2l70 5q76 6 96 53q18 35 41 137l80 397l-264 559l-41 89q-51 106 -95 112l-57 2zM858 1604l37 174h172l-35 -174h-174zM1253 1604l35 174h172l-33 -174h-174z" />
<glyph unicode="&#x2c6;" horiz-adv-x="681" vert-adv-y="2463" d="M246 1282l305 322h221l176 -322h-86l-221 223l-309 -223h-86z" />
<glyph unicode="&#x2dc;" horiz-adv-x="681" vert-adv-y="2463" d="M264 1282q43 109 94 160q74 76 181 76q65 0 110 -37l31 -27q45 -37 98 -37q96 0 140 101h61q-45 -109 -94 -158q-74 -78 -180 -78q-61 0 -111 39l-31 25q-49 37 -98 36q-88 0 -137 -100h-64z" />
<glyph unicode="&#x2000;" horiz-adv-x="966" vert-adv-y="0" />
<glyph unicode="&#x2001;" horiz-adv-x="1933" vert-adv-y="0" />
<glyph unicode="&#x2002;" horiz-adv-x="966" vert-adv-y="0" />
<glyph unicode="&#x2003;" horiz-adv-x="1933" vert-adv-y="0" />
<glyph unicode="&#x2004;" horiz-adv-x="643" vert-adv-y="0" />
<glyph unicode="&#x2005;" horiz-adv-x="481" vert-adv-y="0" />
<glyph unicode="&#x2006;" horiz-adv-x="321" vert-adv-y="0" />
<glyph unicode="&#x2007;" horiz-adv-x="321" vert-adv-y="0" />
<glyph unicode="&#x2008;" horiz-adv-x="239" vert-adv-y="0" />
<glyph unicode="&#x2009;" horiz-adv-x="385" vert-adv-y="0" />
<glyph unicode="&#x200a;" horiz-adv-x="106" vert-adv-y="0" />
<glyph unicode="&#x2010;" horiz-adv-x="681" vert-adv-y="2463" d="M190 543l23 123h518l-22 -123h-519z" />
<glyph unicode="&#x2011;" horiz-adv-x="681" vert-adv-y="2463" d="M190 543l23 123h518l-22 -123h-519z" />
<glyph unicode="&#x2012;" horiz-adv-x="681" vert-adv-y="2463" d="M190 543l23 123h518l-22 -123h-519z" />
<glyph unicode="&#x2013;" vert-adv-y="2463" d="M195 543l24 123h852l-24 -123h-852z" />
<glyph unicode="&#x2014;" horiz-adv-x="2048" vert-adv-y="2463" d="M207 543l18 98h1852l-21 -98h-1849z" />
<glyph unicode="&#x2018;" horiz-adv-x="681" vert-adv-y="2463" d="M408 1012l43 215q27 135 53 182q37 70 117 121q66 43 147 49l-12 -61q-100 -8 -138 -195l-12 -66h99l-50 -245h-247z" />
<glyph unicode="&#x2019;" horiz-adv-x="681" vert-adv-y="2463" d="M432 1012l12 61q100 8 138 195l14 63h-100l51 248h246l-43 -213q-27 -139 -54 -184q-33 -59 -116 -119q-72 -49 -148 -51z" />
<glyph unicode="&#x201a;" horiz-adv-x="681" vert-adv-y="2463" d="M166 -322l12 64q100 8 137 192l15 66h-101l50 248h247l-43 -215q-27 -135 -53 -185q-33 -63 -117 -118q-69 -46 -147 -52z" />
<glyph unicode="&#x201c;" horiz-adv-x="907" vert-adv-y="2463" d="M324 1012l43 215q27 135 53 182q37 70 117 121q66 43 147 49l-12 -61q-100 -8 -137 -195l-13 -66h99l-50 -245h-247zM719 1012l43 215q27 137 53 182q20 37 55 70q94 94 209 100l-12 -61q-100 -8 -137 -195l-12 -66h98l-49 -245h-248z" />
<glyph unicode="&#x201d;" horiz-adv-x="907" vert-adv-y="2463" d="M348 1012l14 61q100 8 138 195l12 63h-98l49 248h248l-43 -213q-27 -133 -56 -184q-33 -59 -116 -119q-72 -49 -148 -51zM743 1012l13 61q102 10 139 195l12 63h-98l49 248h246l-43 -213q-27 -135 -53 -184q-33 -59 -117 -119q-72 -49 -148 -51z" />
<glyph unicode="&#x201e;" horiz-adv-x="907" vert-adv-y="2463" d="M82 -322l12 64q100 8 137 192l15 66h-101l50 248h247l-43 -215q-27 -135 -53 -185q-33 -63 -117 -118q-69 -46 -147 -52zM477 -322l12 64q100 8 138 192l12 66h-98l49 248h248l-43 -215q-29 -139 -54 -185q-33 -63 -116 -118q-70 -46 -148 -52z" />
<glyph unicode="&#x2022;" horiz-adv-x="716" vert-adv-y="2463" d="M248 780q0 129 102.5 229.5t237.5 100.5q98 0 161.5 -63.5t63.5 -159.5q0 -129 -104 -232q-102 -100 -236 -100q-90 0 -149 51q-76 63 -76 174z" />
<glyph unicode="&#x2026;" horiz-adv-x="2048" vert-adv-y="2463" d="M244 0l39 197h196l-39 -197h-196zM926 0l39 197h198l-41 -197h-196zM1608 0l41 197h196l-39 -197h-198z" />
<glyph unicode="&#x202f;" horiz-adv-x="385" vert-adv-y="0" />
<glyph unicode="&#x2039;" horiz-adv-x="681" vert-adv-y="2463" d="M195 543l510 432l40 -39l-352 -393l197 -391l-60 -41z" />
<glyph unicode="&#x203a;" horiz-adv-x="681" vert-adv-y="2463" d="M154 150l352 393l-197 391l60 41l336 -432l-510 -432z" />
<glyph unicode="&#x205f;" horiz-adv-x="481" vert-adv-y="0" />
<glyph unicode="&#x20ac;" vert-adv-y="2463" d="M117 580l37 61h98q12 98 43 211h-125l39 61h104q59 168 113 258q205 346 549 347q152 0 280 -74l-51 -260h-98q0 4 4 20v13q0 6 4 18q12 55 12 92q0 123 -153 123q-186 0 -316 -190q-78 -115 -149 -347h528l-37 -61h-510q-27 -111 -43 -211h424l-39 -61h-391l-2 -17 q-2 -29 -2 -76v-26q0 -178 82 -287q82 -113 213 -113q121 0 254 76l-18 -92q-139 -82 -305 -82q-182 0 -304 139q-119 141 -118 355q0 43 6 123h-129z" />
<glyph unicode="&#x2122;" horiz-adv-x="2004" vert-adv-y="2463" d="M397 1282l39 199h678l-39 -199h-86l27 137h-185l-126 -628h122l-12 -64h-381l12 64h123l125 628h-184l-27 -137h-86zM1051 727l12 64h123l127 628h-137l14 62h354l78 -443l242 443h299l-13 -62h-122l-125 -628h122l-12 -64h-260l137 686l-336 -618h-36l-109 618 l-135 -686h-223z" />
<glyph unicode="&#xe000;" horiz-adv-x="1085" vert-adv-y="2169" d="M0 1085h1085v-1085h-1085v1085z" />
<glyph unicode="&#xf001;" horiz-adv-x="1138" vert-adv-y="2463" d="M55 0l13 61l18 2q76 6 92 25q16 16 29 72l20 98l150 741h-139l16 86h139l10 54q55 260 140 360q88 104 250 105q115 0 200 -74l-45 -221h-110l2 12l2 16l2 17l4 12l2 12q8 49 8 92q0 70 -70 70q-78 0 -108 -76q-29 -66 -55 -207l-33 -172h584l-164 -827l-19 -98 q-8 -31 -8 -41q0 -49 113 -56l18 -2l-12 -61h-488l13 61l61 2q82 0 103 97l20 98l150 748h-388l-149 -748l-18 -98l-5 -15q-4 -25 -4 -26q0 -53 113 -56l43 -2l-10 -61h-490zM1042 1282l39 199h174l-41 -199h-172z" />
<glyph unicode="&#xfb01;" horiz-adv-x="1138" vert-adv-y="2463" d="M55 0l13 61l18 2q76 6 92 25q16 16 29 72l20 98l150 741h-139l16 86h139l10 54q55 260 140 360q88 104 250 105q115 0 200 -74l-45 -221h-110l2 12l2 16l2 17l4 12l2 12q8 49 8 92q0 70 -70 70q-78 0 -108 -76q-29 -66 -55 -207l-33 -172h584l-164 -827l-19 -98 q-8 -31 -8 -41q0 -49 113 -56l18 -2l-12 -61h-488l13 61l61 2q82 0 103 97l20 98l150 748h-388l-149 -748l-18 -98l-5 -15q-4 -25 -4 -26q0 -53 113 -56l43 -2l-10 -61h-490zM1042 1282l39 199h174l-41 -199h-172z" />
<glyph unicode="&#xf002;" horiz-adv-x="1138" vert-adv-y="2463" d="M55 0l13 61l18 2q76 6 92 25q16 16 29 72l20 98l150 741h-139l16 86h139l10 54q55 260 140 358q88 106 245 107q52 0 160 -25h328l-264 -1321l-19 -98q-8 -31 -8 -41q0 -49 113 -56l18 -2l-12 -61h-488l13 61l61 2q82 0 103 97l20 98l236 1180q-133 102 -258 102 q-78 0 -109 -76q-33 -76 -57 -207l-33 -172h172l-16 -79h-173l-149 -748l-18 -98l-5 -15q-4 -25 -4 -26q0 -53 113 -56l43 -2l-10 -61h-490z" />
<glyph unicode="&#xfb02;" horiz-adv-x="1138" vert-adv-y="2463" d="M55 0l13 61l18 2q76 6 92 25q16 16 29 72l20 98l150 741h-139l16 86h139l10 54q55 260 140 358q88 106 245 107q52 0 160 -25h328l-264 -1321l-19 -98q-8 -31 -8 -41q0 -49 113 -56l18 -2l-12 -61h-488l13 61l61 2q82 0 103 97l20 98l236 1180q-133 102 -258 102 q-78 0 -109 -76q-33 -76 -57 -207l-33 -172h172l-16 -79h-173l-149 -748l-18 -98l-5 -15q-4 -25 -4 -26q0 -53 113 -56l43 -2l-10 -61h-490z" />
<glyph unicode="&#xfb03;" horiz-adv-x="1931" vert-adv-y="2463" d="M1411 0l12 61l21 2q111 6 119 23q10 14 24 74l23 98l112 569l19 99q8 31 8 41q0 51 -115 57h-18l12 61h344l-166 -827l-18 -98q-8 -31 -8 -41q0 -49 114 -56l19 -2l-12 -61h-490zM1815 1282l38 199h197l-39 -199h-196zM737 0l13 61l18 2q76 6 92 25q16 16 29 72l20 98 l150 741h-139l16 86h139l10 54q55 262 144 364q88 100 264 101q123 0 213 -74l-45 -236h-113l4 21l2 18q0 2 3.5 20.5t5.5 30.5q10 61 10 84q0 72 -86 72q-90 0 -121 -67q-29 -66 -59 -216l-33 -172h221l-16 -79h-222l-149 -748l-18 -98l-5 -15q-4 -25 -4 -26q0 -53 113 -56 l43 -2l-10 -61h-490zM55 0l13 61l18 2q76 6 92 25q16 16 29 72l20 98l150 741h-139l16 86h139l10 54q55 262 144 364q88 100 264 101q123 0 213 -74l-45 -236h-113l4 21l2 18q0 2 3.5 20.5t5.5 30.5q10 61 10 84q0 72 -86 72q-90 0 -121 -67q-29 -66 -59 -216l-33 -172h221 l-16 -79h-222l-149 -748l-18 -98l-5 -15q-4 -25 -4 -26q0 -53 113 -56l43 -2l-10 -61h-490z" />
<glyph unicode="&#xfb04;" horiz-adv-x="1931" vert-adv-y="2463" d="M1411 0l12 61l21 2q111 6 119 23q10 14 24 74l23 98l211 1063l18 98q8 31 8 41q0 49 -114 56l-19 2l12 61h345l-265 -1321l-18 -98q-8 -31 -8 -41q0 -49 114 -56l19 -2l-12 -61h-490zM737 0l13 61l18 2q76 6 92 25q16 16 29 72l20 98l150 741h-139l16 86h139l10 54 q55 262 144 364q88 100 264 101q123 0 213 -74l-45 -236h-113l4 21l2 18q0 2 3.5 20.5t5.5 30.5q10 61 10 84q0 72 -86 72q-90 0 -121 -67q-29 -66 -59 -216l-33 -172h221l-16 -79h-222l-149 -748l-18 -98l-5 -15q-4 -25 -4 -26q0 -53 113 -56l43 -2l-10 -61h-490zM55 0 l13 61l18 2q76 6 92 25q16 16 29 72l20 98l150 741h-139l16 86h139l10 54q55 262 144 364q88 100 264 101q123 0 213 -74l-45 -236h-113l4 21l2 18q0 2 3.5 20.5t5.5 30.5q10 61 10 84q0 72 -86 72q-90 0 -121 -67q-29 -66 -59 -216l-33 -172h221l-16 -79h-222l-149 -748 l-18 -98l-5 -15q-4 -25 -4 -26q0 -53 113 -56l43 -2l-10 -61h-490z" />
</font>
</defs>
</svg>
