<?xml version="1.0" standalone="no"?>
<!DOCTYPE svg PUBLIC "-//W3C//DTD SVG 1.1//EN" "http://www.w3.org/Graphics/SVG/1.1/DTD/svg11.dtd" >
<svg xmlns="http://www.w3.org/2000/svg">
<metadata>
This is a custom SVG webfont generated by Font Squirrel.
Copyright   : Copyright c 2001 by Bigelow  Holmes Inc Instructions copyright c 2001 by URW
Designer    : Kris Holmes and Charles Bigelow
Foundry     : Bigelow  Holmes Inc
Foundry URL : httpwwwurwppde
</metadata>
<defs>
<font id="webfontza2Xtvpq" horiz-adv-x="1024" vert-adv-y="2048" >
<font-face units-per-em="2048" ascent="1638" descent="-410" />
<missing-glyph horiz-adv-x="512" />
<glyph unicode=" " horiz-adv-x="512" vert-adv-y="0" />
<glyph unicode="!" horiz-adv-x="681" vert-adv-y="2504" d="M193 0v248h296v-248h-296zM193 1184v297h296v-297l-102 -764h-92z" />
<glyph unicode="&#x22;" horiz-adv-x="1136" vert-adv-y="2504" d="M199 1579h295l-99 -592h-98zM641 1579h297l-98 -592h-99z" />
<glyph unicode="#" vert-adv-y="2504" d="M23 432l24 123h174l90 371h-192l26 123h197l111 432h127l-111 -432h240l110 432h127l-110 -432h165l-22 -123h-174l-90 -371h190l-22 -123h-199l-109 -432h-129l111 432h-240l-108 -432h-129l110 432h-167zM348 555h240l92 371h-240z" />
<glyph unicode="$" vert-adv-y="2504" d="M72 74v284h135l2 -18l2 -61q6 -158 256 -177v545l-86 64q-174 127 -223 194q-45 63 -45 185q0 197 141 311q98 78 244 80v159h92v-159q169 -9 319 -68v-278h-135l-2 18l-4 70q-8 152 -178 168v-514l112 -76q254 -172 254 -400q0 -194 -135 -301q-98 -80 -262 -100v-160 h-92v160q-223 13 -395 74zM362 1167q0 -135 130 -231v448q-130 -37 -130 -217zM559 109q68 12 103 57q43 55 43 157.5t-56 180.5q-31 45 -90 88v-483z" />
<glyph unicode="%" horiz-adv-x="2048" vert-adv-y="2504" d="M182 1106q0 375 354.5 375t354.5 -371q0 -373 -361 -373q-348 0 -348 369zM291 -37l1270 1555h194l-1278 -1555h-186zM406 1110q0 -279 129 -279q133 0 133 276.5t-131 276.5t-131 -274zM1157 369q0 373 354.5 372.5t354.5 -368.5q0 -373 -361 -373q-348 0 -348 369z M1380 370.5q0 -276.5 129 -276.5q133 0 133 276.5t-131 276.5t-131 -276.5z" />
<glyph unicode="&#x26;" horiz-adv-x="1705" vert-adv-y="2504" d="M86 444q0 193 145 314q84 72 252 131q-131 188 -131 311q0 152 113 234q113 84 321.5 84t319.5 -80q113 -82 113 -226q0 -150 -136 -247q-84 -61 -241 -111q168 -240 315 -426l74 -92q76 129 76 274q0 70 -19 95q-16 23 -65 24l-43 4h-19v94h481v-94h-18l-43 -2 q-53 0 -70 -31q-12 -25 -18 -82q-14 -168 -197 -352l60 -71q63 -76 98 -84q31 -10 127 -17l18 -2v-92h-428l-77 84q-182 -121 -428 -121q-262 0 -420 133q-160 137 -160 348zM369 510q0 -190 110 -301q111 -111 309 -111q117 0 228 56q-225 279 -416 557l-63 96 q-76 -37 -113 -90q-55 -78 -55 -207zM633 1260q0 -119 155 -332q184 145 185 315q0 182 -168 182q-172 1 -172 -165z" />
<glyph unicode="'" horiz-adv-x="567" vert-adv-y="2504" d="M125 1579h319l-110 -616h-98z" />
<glyph unicode="(" horiz-adv-x="681" vert-adv-y="2504" d="M68 643q0 344 196 637q131 195 338 311v-92q-113 -104 -170 -274q-68 -209 -67 -584q0 -393 73 -602q53 -147 164 -254v-92q-219 123 -356 338q-178 280 -178 612z" />
<glyph unicode=")" horiz-adv-x="681" vert-adv-y="2504" d="M80 -215q117 113 170 274q68 209 67 582q0 385 -75 602q-51 150 -162 256v92q224 -126 356 -338q178 -279 178 -614q0 -344 -196 -637q-127 -193 -338 -309v92z" />
<glyph unicode="*" vert-adv-y="2504" d="M119 1112l69 213l252 -154q-29 -31 -28 -65v-6v-2l1 -5q1 -5 1 -10zM201 856l221 197q27 -43 74 -54l-119 -272zM403 1481h220l-66 -291q-27 10 -45 10q-14 0 -45 -10zM526 999q43 8 74 54l221 -197l-178 -129zM582 1169l256 154l67 -213l-295 -27v7v2v4v6q1 28 -28 67z " />
<glyph unicode="+" horiz-adv-x="1165" vert-adv-y="2504" d="M90 518v148h420v419h147v-419h420v-148h-420v-420h-147v420h-420z" />
<glyph unicode="," horiz-adv-x="512" vert-adv-y="2504" d="M96 0v322h322v-248q0 -342 -322 -371v92q123 0 123 170v35h-123z" />
<glyph unicode="-" horiz-adv-x="681" vert-adv-y="2504" d="M49 518v148h584v-148h-584z" />
<glyph unicode="." horiz-adv-x="512" vert-adv-y="2504" d="M96 0v322h322v-322h-322z" />
<glyph unicode="/" horiz-adv-x="567" vert-adv-y="2504" d="M-59 -297l532 1778h156l-533 -1778h-155z" />
<glyph unicode="0" vert-adv-y="2504" d="M49 741q0 373 121 572q125 205 342 205t340 -203t123 -572q0 -375 -123 -577.5t-346 -202.5q-195 0 -309 164q-148 208 -148 614zM365 737q0 -459 41 -581q33 -100 108 -101q94 0 121 168q25 158 24 539q0 383 -30 524q-31 139 -117 139q-102 0 -127 -194 q-20 -146 -20 -494z" />
<glyph unicode="1" vert-adv-y="2504" d="M119 0v92l18 2l115 10q74 6 90 15q16 12 25 55q12 61 12 117v825l-6 101q-4 72 -43 71q-45 0 -137 -18l-74 -15v99l555 139v-1202q0 -151 31 -166q29 -20 102 -23l108 -8l19 -2v-92h-815z" />
<glyph unicode="2" vert-adv-y="2504" d="M39 0v98q68 186 194 334l97 113l55 63l133 162q127 156 127 352q0 297 -235 297q-190 0 -195 -157l-2 -84v-19h-135v277q236 82 430 82q449 0 448 -383q0 -139 -73 -236q-53 -68 -213 -190q-92 -68 -144 -119l-71 -76q-121 -127 -131 -266h628v-248h-913z" />
<glyph unicode="3" vert-adv-y="2504" d="M74 16v281h135l2 -18l2 -17q4 -102 27 -137q45 -70 163 -70q258 0 259 332q0 168 -92.5 260t-260.5 92h-100v92h86q326 0 326 320q0 274 -224 274q-160 0 -166 -139l-4 -90l-2 -18h-141v274q209 66 371 66q221 0 342 -92.5t121 -258.5q0 -164 -121 -266 q-74 -61 -213 -104q111 -25 184 -64q199 -113 199 -346q0 -190 -141.5 -307t-381.5 -117q-204 0 -370 53z" />
<glyph unicode="4" vert-adv-y="2504" d="M25 401v166l596 932h219v-889h147v-209h-147v-110l4 -101q4 -51 22 -71q20 -20 90 -25l19 -2v-92h-543v92l19 2q113 6 122 29q14 25 15 67l4 101v110h-567zM174 610h418v654z" />
<glyph unicode="5" vert-adv-y="2504" d="M117 10v275h135l2 -21l4 -59q6 -86 37 -117q33 -33 104 -33q217 0 217 340q0 397 -360 398q-47 0 -113 -7v695h760v-230h-639l-24 -364l77 2q255 3 418 -105q197 -125 197 -364q0 -203 -145.5 -330t-370.5 -127q-100 0 -299 47z" />
<glyph unicode="6" vert-adv-y="2504" d="M49 688q0 379 156 602q156 227 428 228q147 0 272 -60v-266h-135l-2 16q-2 20 -2 43v13v20q0 74 -25 105q-25 37 -106 36q-141 0 -221 -215q-61 -164 -58 -376l2 -52q114 172 271 172q154 0 250 -123q96 -121 96 -323q0 -238 -127 -389q-131 -156 -326 -156 q-215 0 -344 199q-129 196 -129 526zM367 481q0 -426 165 -426q145 0 146 385q0 389 -155.5 389t-155.5 -348z" />
<glyph unicode="7" vert-adv-y="2504" d="M82 1235v246h895v-189q-465 -588 -508 -1292h-322q41 229 140 420q109 211 399 641l117 174h-721z" />
<glyph unicode="8" vert-adv-y="2504" d="M49 346q0 158 111 281q72 78 196 149l-43 37q-184 162 -184 348q0 160 109 258q108 98 294 99q174 0 274.5 -88.5t100.5 -235.5q0 -137 -100 -240q-59 -61 -174 -127l35 -30l12 -11l10 -10q195 -170 234 -229q51 -72 51 -185q0 -178 -133 -286q-133 -113 -342 -113 q-205 0 -328 105q-123 108 -123 278zM328 379q0 -324 209 -324q80 0 129 62q49 63 49 164q0 141 -121 266l-102 104l-66 72l-8 -18q-90 -152 -90 -326zM377 1243q0 -92 31 -156q27 -57 118 -157l35 -39q90 123 90 289q0 246 -141 245q-133 0 -133 -182z" />
<glyph unicode="9" vert-adv-y="2504" d="M49 973q0 236 129 389q131 156 324 156q215 0 344 -199q131 -199 131 -526q0 -375 -158 -605q-156 -225 -428 -225q-150 0 -272 60v268h135l2 -21v-22q0 -4 1 -15.5t1 -17.5v-8q0 -72 18 -107q25 -45 113 -45q123 0 201 166q78 168 78 424v51q-115 -170 -271 -170 q-154 0 -252 123q-96 121 -96 324zM346 1040q0 -389 155.5 -389t155.5 348q0 426 -165 426q-146 0 -146 -385z" />
<glyph unicode=":" horiz-adv-x="681" vert-adv-y="2504" d="M193 0v297h296v-297h-296zM193 803v295h296v-295h-296z" />
<glyph unicode=";" horiz-adv-x="681" vert-adv-y="2504" d="M193 0v297h296v-219q0 -334 -296 -375v92q115 23 114 162l-1 5q-1 5 -1 9q0 16 -2 29h-110zM193 803v295h296v-295h-296z" />
<glyph unicode="&#x3c;" horiz-adv-x="1165" vert-adv-y="2504" d="M90 592l987 493v-165l-653 -326v-2l653 -328v-166z" />
<glyph unicode="=" horiz-adv-x="1165" vert-adv-y="2504" d="M90 334v147h987v-147h-987zM90 702v150h987v-150h-987z" />
<glyph unicode="&#x3e;" horiz-adv-x="1165" vert-adv-y="2504" d="M90 98v166l653 328v2l-653 326v165l987 -493z" />
<glyph unicode="?" vert-adv-y="2504" d="M63 1178v276q190 63 396 64q231 0 366 -91q137 -92 138 -239q0 -96 -72 -184q-33 -39 -100 -89l-23 -18l-51 -41l-47 -39q-90 -80 -92 -262l-3 -117v-18h-296v16q0 166 151 297l64 55q158 139 157 332q0 138 -67 221q-68 84 -187 84q-86 0 -141 -43q-55 -39 -55 -106v-80 l-2 -18h-136zM279 0v248h296v-248h-296z" />
<glyph unicode="@" horiz-adv-x="1904" vert-adv-y="2504" d="M162 584q0 344 260 624q285 309 678 310q287 0 475 -181q190 -178 190 -444q0 -248 -155 -422q-154 -174 -375 -174q-166 0 -166 109q0 63 55 223h-37q-106 -160 -178 -228q-106 -104 -215 -104q-172 0 -172 229q0 244 164 445q162 201 361 200q68 0 157 -30l23 -8h4h129 l-105 -523q-14 -76 -14 -112q0 -88 84 -88q125 0 238 155q111 154 110 334q0 223 -168 374.5t-409 151.5q-332 0 -588 -260q-254 -256 -254 -590q0 -225 158 -372q157 -147 387 -148q150 0 342 78l30 -88q-195 -82 -360 -82q-274 0 -463 176q-186 175 -186 445zM698 584 q0 -139 86 -140q61 0 152 97q88 94 176 250l49 233q-80 59 -176 59q-115 0 -201 -151q-86 -149 -86 -348z" />
<glyph unicode="A" horiz-adv-x="1478" vert-adv-y="2504" d="M0 0v92l18 2q82 6 121 96l45 103l508 1200h103l510 -1202q80 -188 135 -195l26 -2l13 -2v-92h-531v92l21 2l32 2q45 4 46 33q0 20 -29 94l-29 70l-67 158h-549l-68 -160q-55 -129 -55 -158q0 -35 51 -37l27 -2l16 -2v-92h-344zM416 549h465l-234 549z" />
<glyph unicode="B" horiz-adv-x="1363" vert-adv-y="2504" d="M43 0v92l18 2q113 6 123 29q14 25 15 67l4 101v901l-4 96q-2 68 -29 80q-25 12 -109 18l-18 3v92h748q209 0 321 -84q111 -82 111 -242t-129 -266q-80 -68 -224 -121q164 -37 248 -94q164 -109 164 -309q0 -365 -487 -365h-752zM500 289q0 -135 41 -158q35 -20 127 -20 q301 0 301 274q0 147 -99 236q-94 88 -252 88h-118v-420zM500 809h118q139 0 218 78q80 80 79 219q0 276 -297 276h-118v-573z" />
<glyph unicode="C" horiz-adv-x="1478" vert-adv-y="2504" d="M74 741q0 375 206.5 576t596.5 201q223 0 489 -66v-305h-172v18l-4 60q-6 104 -94 149q-82 45 -211 45q-270 0 -385 -200q-98 -172 -99 -467q0 -666 547 -666q195 0 445 111v-140q-238 -94 -506 -94q-387 0 -600 202.5t-213 575.5z" />
<glyph unicode="D" horiz-adv-x="1478" vert-adv-y="2504" d="M43 0v92l18 2q66 6 78 29q10 20 11 67l2 101v901l-2 96q0 72 -23 84q-16 12 -66 14l-18 3v92h432h76l90 2l76 2h10q276 0 457 -156q221 -190 221 -559q0 -352 -190.5 -561t-512.5 -209h-659zM459 291q0 -139 53 -164q49 -23 152 -23q199 0 305 175q109 176 108 481 q0 330 -131 475q-129 147 -424 147h-63v-1091z" />
<glyph unicode="E" horiz-adv-x="1363" vert-adv-y="2504" d="M55 0v92l19 2q115 6 125 29q12 18 12 67l4 101v901l-4 96q-4 72 -27 80q-25 12 -110 18l-19 3v92h1209v-267h-172l-2 21v25q0 6 -1.5 14t-1.5 12v10q0 53 -18 68q-16 12 -59 14l-70 4h-416v-563h305l99 2q35 0 47 13q2 4 6 30v6v4q2 2 2 7q0 8 1 21t1 18l2 18h129v-322 h-129l-2 19l-1 5q-1 5 -1 9v25v2q0 53 -59 53l-95 4h-305v-442l4 -88q6 -74 29 -84q29 -12 78 -13l82 -2h221l115 5q70 0 75 55l5 94l2 21h172v-279h-1252z" />
<glyph unicode="F" horiz-adv-x="1249" vert-adv-y="2504" d="M55 0v92l19 2q115 6 125 29q12 18 12 67l4 101v901l-4 96q-4 72 -27 80q-25 12 -110 18l-19 3v92h1123v-279h-172l-2 19q-2 25 -3 61v4q0 66 -32 82q-35 14 -115 14h-330v-600h224l98 2q45 0 51 13q4 8 4 39v2v12q0 6 1 17.5t1 15.5l2 18h129v-321h-129l-2 18v14 q0 6 -1 14.5t-1 10.5v2q0 53 -57 53l-94 4h-226v-405l6 -101q6 -66 27 -77q16 -10 66 -15l67 -4l19 -2v-92h-654z" />
<glyph unicode="G" horiz-adv-x="1591" vert-adv-y="2504" d="M74 739q0 350 190 559q201 219 635 220q238 0 506 -66v-293h-174v19q0 121 -33 153q-88 88 -305 88q-276 0 -393 -207q-98 -169 -99 -467q0 -684 529 -684q82 0 168 27v274l-6 99q-2 70 -27 82q-16 8 -111 14l-16 2v92h629v-92l-21 -2q-115 -6 -123 -27q-12 -18 -12 -69 l-6 -99v-331q-311 -68 -531 -68q-379 0 -589.5 204.5t-210.5 571.5z" />
<glyph unicode="H" horiz-adv-x="1591" vert-adv-y="2504" d="M43 0v92l18 2q113 6 123 29q14 25 15 67l4 101v901l-4 96q-2 68 -29 80q-25 12 -109 18l-18 3v92h629v-92l-19 -3q-115 -8 -123 -26q-14 -20 -14 -72l-4 -96v-361h569v361l-4 96q-4 68 -26 80q-20 12 -111 18l-18 3v92h628v-92l-18 -3q-117 -10 -123 -26q-12 -18 -12 -72 l-6 -96v-901l6 -101q4 -68 26 -79q20 -10 109 -17l18 -2v-92h-628v92l18 2q115 6 125 29q12 20 12 67l4 101v434h-569v-434l4 -101q2 -68 29 -79q29 -10 108 -17l19 -2v-92h-629z" />
<glyph unicode="I" horiz-adv-x="796" vert-adv-y="2504" d="M84 0v92l18 2q113 6 123 29q14 25 15 67l4 101v901l-4 96q-4 68 -27 80q-25 12 -111 18l-18 3v92h629v-92l-19 -3q-115 -8 -123 -26q-14 -20 -14 -72l-4 -96v-901l4 -101q2 -68 29 -79q29 -10 108 -17l19 -2v-92h-629z" />
<glyph unicode="J" vert-adv-y="2504" d="M-6 43h184l2 -43l2 -55q10 -141 152 -142q113 0 143 97q23 78 23 227v1065l-4 96q-4 72 -27 80q-22 12 -111 18l-18 3v92h629v-92l-19 -3q-115 -8 -123 -26q-14 -20 -14 -72l-4 -96v-961q0 -281 -111 -403q-113 -125 -356 -125q-131 0 -348 51v289z" />
<glyph unicode="K" horiz-adv-x="1591" vert-adv-y="2504" d="M43 0v92l18 2q113 6 123 29q14 25 15 67l4 101v901l-4 96q-2 68 -29 80q-25 12 -109 18l-18 3v92h592v-92l-19 -3q-92 -6 -100 -26q-12 -20 -12 -72l-4 -96v-395l491 395q164 131 164 170q0 23 -55 24l-45 3h-19v92h451v-92l-19 -3l-41 -2q-68 -3 -165 -92 q-47 -43 -121 -102l-404 -324l561 -579l119 -119q68 -68 158 -74l18 -2v-92h-714v92h18l45 2q82 4 82 37q0 37 -119 160l-405 422v-422l6 -101q4 -61 28.5 -77.5t81.5 -18.5l19 -2v-92h-592z" />
<glyph unicode="L" horiz-adv-x="1363" vert-adv-y="2504" d="M55 0v92l19 2q115 6 125 29q12 18 12 67l4 101v901l-4 96q-4 72 -27 80q-25 12 -110 18l-19 3v92h629v-92l-18 -3q-117 -10 -123 -26q-14 -20 -15 -72l-4 -96v-901l4 -88q4 -74 29 -84q29 -12 76 -13l90 -2h221l86 5q86 4 96 22q10 25 11 76l4 121v43h196v-371h-1282z " />
<glyph unicode="M" horiz-adv-x="1931" vert-adv-y="2504" d="M55 0v92l19 2q113 6 123 29q14 25 14 67l4 101v901l-4 96q-2 68 -29 80q-20 12 -108 18l-19 3v92h498l432 -959l467 959h426v-92l-18 -3q-119 -10 -125 -26q-14 -20 -15 -72l-4 -96v-901l4 -101q2 -68 29 -79q20 -10 109 -17l18 -2v-92h-580v92l19 2q90 6 102 29 q12 20 13 67l4 101v876l-492 -1001h-98l-482 1065v-940l5 -101q0 -68 26 -79q16 -10 86 -17l21 -2v-92h-445z" />
<glyph unicode="N" horiz-adv-x="1478" vert-adv-y="2504" d="M43 0v92l20 2q113 6 123 29q12 18 13 67l6 101v901l-6 96q-4 72 -27 80q-29 12 -109 18l-20 3v92h385l670 -1100v811l-6 96q-4 72 -25 80q-27 12 -113 18l-16 3v92h465v-92l-19 -3q-115 -10 -122 -26q-12 -20 -13 -72l-6 -96v-1212h-217l-676 1101v-790l6 -101 q2 -68 29 -79q23 -10 109 -17l18 -2v-92h-469z" />
<glyph unicode="O" horiz-adv-x="1591" vert-adv-y="2504" d="M74 741q0 353 196 566q197 211 526.5 211t526.5 -211q197 -209 197 -566q0 -360 -197 -569t-537 -209q-291 0 -477 172q-235 219 -235 606zM401 739q0 -317 102.5 -497.5t293.5 -180.5q201 0 299 177q96 172 96 501q0 326 -105 502q-104 178 -290 178q-188 0 -293 -178 q-103 -174 -103 -502z" />
<glyph unicode="P" horiz-adv-x="1249" vert-adv-y="2504" d="M43 0v92l18 2q113 6 123 29q14 25 15 67l4 101v901l-4 96q-2 68 -29 80q-25 12 -109 18l-18 3v92h457l90 2l100 2l80 2h16q155 0 261 -60q164 -96 163 -335q0 -485 -618 -486h-92v-315q0 -61 8 -113q6 -43 12 -51q18 -25 78 -29l68 -4l18 -2v-92h-641zM500 705h57 q340 0 340 364q0 313 -291 313h-106v-677z" />
<glyph unicode="Q" horiz-adv-x="1591" vert-adv-y="2504" d="M74 739q0 354 196 568q197 211 526.5 211t526.5 -211q197 -213 197 -568q0 -324 -158 -522q-57 -72 -143 -131q-49 -35 -123 -70q276 -104 546 -129l-190 -190q-211 76 -459 254l-37 26q-92 -14 -168 -14q-324 0 -518 213q-196 213 -196 563zM401 739q0 -324 103 -497 q102 -180 293 -181q201 0 299 177q96 172 96 501q0 326 -105 502q-104 178 -290 178q-188 0 -293 -178q-103 -174 -103 -502z" />
<glyph unicode="R" horiz-adv-x="1478" vert-adv-y="2504" d="M43 0v92l18 2q113 6 123 29q14 25 15 67l4 101v901l-4 96q-2 68 -29 80q-25 12 -109 18l-18 3v92h430l94 2l90 2l88 2h16q172 0 288 -66q158 -90 157 -311q0 -184 -104 -301q-59 -63 -180 -119l288 -403l78 -103q63 -82 121 -88l49 -2l19 -2v-92h-441l-409 647h-127v-356 l4 -101q3 -68 24 -79q16 -10 88 -17l19 -2v-92h-592zM500 748h55q156 0 248 92t92 254q0 289 -285 288h-110v-634z" />
<glyph unicode="S" horiz-adv-x="1138" vert-adv-y="2504" d="M100 18v310h160l2 -25l2 -65q2 -78 76 -129q66 -47 174 -48q121 0 194.5 74t73.5 193q0 86 -45 147q-49 61 -166 125l-98 53q-371 203 -371 457q0 180 134 293q137 115 356 115q164 0 397 -66v-299h-160l-2 18l-2 68q-8 180 -200 180q-104 0 -172 -67q-68 -66 -68 -170 q0 -74 45 -129q45 -51 166 -121l98 -60q219 -127 299 -223q82 -104 82 -241q0 -201 -151 -322q-151 -123 -406 -123q-178 0 -418 55z" />
<glyph unicode="T" horiz-adv-x="1363" vert-adv-y="2504" d="M41 1171v310h1284v-310h-160l-2 31l-4 92q0 68 -33 76q-31 12 -108 12h-180v-1091l6 -101q6 -66 26.5 -78t65.5 -14l68 -4l18 -2v-92h-678v92l18 2l68 4q74 6 84 47q14 57 14 146v1091h-180q-106 0 -125 -20q-18 -18 -18 -68v-12q0 -37 -4 -90v-21h-160z" />
<glyph unicode="U" horiz-adv-x="1478" vert-adv-y="2504" d="M18 1382v99h629v-92l-16 -3q-117 -10 -123 -26q-14 -20 -14 -72l-5 -96v-641q0 -273 68 -381q72 -111 246 -111q182 0 266 121t84 379v633l-4 96q-4 72 -27 80q-22 12 -110 18l-19 3v92h465v-92l-18 -3q-115 -10 -119 -26q-14 -20 -14 -72l-7 -96v-608q0 -319 -131 -469 q-133 -152 -407 -152q-584 0 -584 600v621l-4 98q-4 70 -31 82q-23 10 -106 16z" />
<glyph unicode="V" horiz-adv-x="1478" vert-adv-y="2504" d="M0 1389v92h616v-92l-18 -3q-12 -2 -39 -2h-4q-74 0 -74 -38q0 -35 51 -152l324 -764l313 764q14 29 27 76l21 61q4 12 4 21q0 35 -62 34h-43h-4h-10l-19 3v92h396v-92l-19 -3q-74 -6 -82 -20q-12 -12 -28 -51l-56 -121l-495 -1212h-101l-516 1212l-47 104q-27 66 -47 76 q-23 10 -70 12z" />
<glyph unicode="W" horiz-adv-x="2048" vert-adv-y="2504" d="M12 1389v92h594v-92h-18l-56 -3q-66 0 -65 -43q0 -47 33 -153l207 -676l315 948h125l350 -981l219 705q39 125 39 164t-106 39h-21v92h408v-92l-19 -3h-14q-2 0 -9 -1t-12 -1h-10q-39 0 -57 -14q-16 -12 -31 -59l-41 -125l-379 -1204h-98l-369 1026l-342 -1026h-98 l-362 1208l-35 110q-20 63 -41 72q-18 8 -86 14z" />
<glyph unicode="X" horiz-adv-x="1478" vert-adv-y="2504" d="M20 0v92l21 2q86 6 102 23q27 23 54 65l73 111l301 446l-270 447l-63 98q-45 76 -72 88q-23 10 -82 14l-21 3v92h637v-92h-18l-51 -3q-63 0 -64 -28q0 -12 6 -25l25 -53q12 -27 51 -94l185 -309l227 311q98 135 98 170q0 29 -53 28l-43 3h-19v92h414v-92l-3 -1 q-3 -1 -5 -2h-10l-10 3q-2 0 -7 -3q-4 -4 -28 -4q-45 -6 -57.5 -16t-39.5 -43l-100 -137l-283 -398l299 -495l84 -127q45 -68 93 -70l43 -2l18 -2v-92h-635v92h19l53 2q63 0 63 31t-82 168l-217 358l-243 -358q-90 -133 -91 -168q0 -31 60 -31l43 -2h18v-92h-420z" />
<glyph unicode="Y" horiz-adv-x="1478" vert-adv-y="2504" d="M2 1389v92h641v-92h-14l-51 -3q-68 0 -68 -32q0 -34 86 -172l250 -414l258 414q84 131 84 168q0 39 -96 39h-23v92h408v-92l-19 -3l-43 -4q-59 -6 -94 -65l-88 -135l-344 -541v-350l6 -101q2 -68 27 -79q20 -10 108 -17l19 -2v-92h-629v92l18 2q115 6 125 29q12 20 12 67 l7 101v348l-336 543l-29 45l-20 35q-20 31 -23 36q-43 80 -98 86l-53 2z" />
<glyph unicode="Z" horiz-adv-x="1363" vert-adv-y="2504" d="M90 0v111l815 1257h-434q-94 0 -115 -12q-23 -14 -22 -72l-2 -96v-41h-187v334h1098v-113l-809 -1257h432q154 0 170 16q18 18 19 72l6 82v47h184v-328h-1155z" />
<glyph unicode="[" horiz-adv-x="681" vert-adv-y="2504" d="M141 -297v1876h463v-92h-209v-1692h209v-92h-463z" />
<glyph unicode="\" horiz-adv-x="567" vert-adv-y="2504" d="M-59 1481h155l533 -1778h-156z" />
<glyph unicode="]" horiz-adv-x="681" vert-adv-y="2504" d="M78 -205h209v1692h-209v92h463v-1876h-463v92z" />
<glyph unicode="^" horiz-adv-x="1189" vert-adv-y="2504" d="M152 592l444 889l442 -889h-166l-276 557l-281 -557h-163z" />
<glyph unicode="_" vert-adv-y="2504" d="M0 0h1024v-147h-1024v147z" />
<glyph unicode="`" horiz-adv-x="681" vert-adv-y="2504" d="M72 1604h299l239 -322h-133z" />
<glyph unicode="a" vert-adv-y="2504" d="M53 289q0 365 508 364h51v133q0 147 -26 195q-29 49 -107 49q-135 0 -141 -133l-2 -63l-2 -21h-184v223q186 86 368 86q389 0 389 -331v-484l4 -86l2 -59q4 -74 64 -74q18 0 31 4v-96q-70 -20 -125 -21q-145 0 -230 152q-129 -152 -291 -152q-137 0 -223 86.5t-86 227.5z M350 328q0 -195 131 -195q55 0 131 68v362h-39q-223 1 -223 -235z" />
<glyph unicode="b" horiz-adv-x="1138" vert-adv-y="2504" d="M0 1487v92h403v-664q47 96 101 140q80 68 192 67q178 0 289 -149q111 -151 111 -400q0 -279 -135.5 -438.5t-364.5 -159.5q-82 0 -193 25l-294 -12v1300l-3 101q0 70 -22 81q-16 10 -66 15zM403 166q98 -49 158 -49q219 0 219 409q0 406 -198 406q-102 0 -179 -119v-647z " />
<glyph unicode="c" horiz-adv-x="907" vert-adv-y="2504" d="M43 541q0 270 137 425.5t375 155.5q137 0 281 -49v-282h-168v18l-4 74q-2 59 -31 102q-27 45 -86 45q-100 0 -146 -131q-45 -125 -45 -332q0 -223 64 -334q63 -113 198 -112q98 0 220 53v-147q-160 -51 -283 -52q-240 0 -375 150q-137 150 -137 416z" />
<glyph unicode="d" horiz-adv-x="1138" vert-adv-y="2504" d="M43 524q0 279 135 438.5t365 159.5q80 0 190 -24v190l-4 101q-2 68 -29 79q-29 10 -106 17l-21 2v92h457v-1288l2 -101q0 -70 23 -81q16 -10 65 -15l19 -2v-92h-406v182q-45 -96 -96 -139q-76 -68 -195 -68q-178 0 -288 150q-111 150 -111 399zM358 571q0 -406 199 -405 q100 0 176 119v647q-98 49 -155 49q-220 0 -220 -410z" />
<glyph unicode="e" horiz-adv-x="907" vert-adv-y="2504" d="M43 553q0 264 123 418q119 152 326 151q195 0 276 -131q86 -129 86 -430v-22h-508q2 -180 45 -277q61 -137 211 -137q111 0 252 68v-150q-166 -68 -326 -68q-485 0 -485 578zM354 633h209v39v18q0 340 -90 340q-117 0 -119 -397z" />
<glyph unicode="f" horiz-adv-x="681" vert-adv-y="2504" d="M37 0v92l18 2q66 6 78 29q10 20 10 67l2 101v708h-108v99h108v45q0 461 363 461q125 0 231 -64v-231h-129l-2 16l-4 61q-10 121 -80 121q-57 0 -71 -73q-10 -49 -11 -193v-143h191v-99h-191v-708l2 -101q0 -74 27 -86q20 -10 84 -10l45 -2v-92h-563z" />
<glyph unicode="g" vert-adv-y="2504" d="M18 -188q0 141 244 227q-115 66 -115 143q0 111 193 197q-113 45 -174 113q-86 98 -86 258q0 373 381 372q114 0 215 -37l344 31l-62 -158l-186 31q94 -119 94 -254q0 -164 -106 -270q-109 -111 -266 -111q-18 0 -68 6q-55 -45 -55 -94q0 -61 127 -61h116q371 0 371 -260 q0 -164 -145.5 -264.5t-386.5 -100.5q-197 0 -316 64t-119 168zM305 -150q0 -178 193 -178q215 0 215 185q0 106 -76 135q-55 20 -180 20h-99q-53 -82 -53 -162zM358 737q0 -297 115 -297q117 0 117 293t-117 293q-115 0 -115 -289z" />
<glyph unicode="h" horiz-adv-x="1138" vert-adv-y="2504" d="M31 0v92l18 2q68 6 78 29q10 25 10 67l2 101v997l-2 101q0 70 -20 81q-20 10 -68 15l-18 2v92h405v-664q51 96 107 140q86 68 202 67q279 0 279 -346v-485l2 -101q0 -70 23 -81q16 -12 65 -15l19 -2v-92h-500v92l18 2q76 6 76 96l2 101v452q0 120 -24 160q-20 39 -91 39 q-102 0 -178 -137v-514l2 -101q0 -90 76 -96l18 -2v-92h-501z" />
<glyph unicode="i" horiz-adv-x="567" vert-adv-y="2504" d="M41 0v92l16 2q68 6 80 29q10 20 10 67v101v518v98q0 70 -22 82q-16 10 -68 15l-16 2v92h403v-807l2 -101q0 -70 23 -81q16 -10 66 -15l18 -2v-92h-512zM147 1282v297h297v-297h-297z" />
<glyph unicode="j" horiz-adv-x="681" vert-adv-y="2504" d="M-104 -111h161v-18l4 -70q6 -129 105 -129q96 0 96 176v99v862v98q0 70 -22 82q-16 10 -68 15l-16 2v92h403v-1075q0 -442 -418 -443q-100 0 -245 41v268zM262 1282v297h297v-297h-297z" />
<glyph unicode="k" horiz-adv-x="1138" vert-adv-y="2504" d="M31 0v92l18 2q66 6 78 29q10 20 10 67l2 101v997l-2 101q0 68 -18 79q-20 14 -70 17l-18 2v92h403v-987h17l215 227q29 29 65 72l45 57q16 20 17 33q0 23 -48 23l-40 2h-19v92h371v-92l-21 -2q-78 -6 -166 -107l-82 -90l-114 -121l248 -399q117 -186 168 -193h20l18 -2 v-92h-350l-329 530h-15v-239l2 -101q0 -68 25 -81q16 -10 63 -15l21 -2v-92h-514z" />
<glyph unicode="l" horiz-adv-x="567" vert-adv-y="2504" d="M41 0v92l16 2q68 6 80 29q10 20 10 67v101v997v101q0 66 -20.5 80t-69.5 16l-16 2v92h403v-1288l2 -101q0 -70 23 -81q16 -10 66 -15l18 -2v-92h-512z" />
<glyph unicode="m" horiz-adv-x="1705" vert-adv-y="2504" d="M31 0v92l18 2q68 6 78 29q10 25 10 67l2 101v518l-2 98q0 70 -20 82q-16 10 -68 15l-18 2v92h405v-183q51 98 105 142q78 66 192.5 65.5t186.5 -61.5q59 -53 86 -162q61 123 114 168q63 55 189 55q283 0 282 -346v-485l2 -101q0 -70 23 -81q16 -10 65 -15l19 -2v-92h-500 v92l19 2q76 6 75 96l2 101v452q0 117 -22.5 158t-85.5 41q-98 0 -174 -137v-514l2 -101q0 -70 22 -81q16 -12 66 -15l18 -2v-92h-499v92l16 2q78 6 78 96l2 101v452q0 113 -25 158q-23 41 -86 41q-96 0 -172 -137v-514l2 -101q0 -90 76 -96l18 -2v-92h-501z" />
<glyph unicode="n" horiz-adv-x="1138" vert-adv-y="2504" d="M31 0v92l18 2q68 6 78 29q10 25 10 67l2 101v518l-2 98q0 70 -20 82q-16 10 -68 15l-18 2v92h405v-183q51 96 107 140q86 68 202 67q279 0 279 -346v-485l2 -101q0 -70 23 -81q16 -12 65 -15l19 -2v-92h-500v92l18 2q76 6 76 96l2 101v452q0 120 -24 160q-20 39 -91 39 q-102 0 -178 -137v-514l2 -101q0 -90 76 -96l18 -2v-92h-501z" />
<glyph unicode="o" vert-adv-y="2504" d="M43 551q0 270 125 420q125 152 344 151q217 0 342 -151q127 -156 127 -420q0 -272 -127 -424t-348 -152q-193 0 -311 125q-152 158 -152 451zM358 551q0 -471 154 -471t154 481q0 457 -154 457t-154 -467z" />
<glyph unicode="p" horiz-adv-x="1138" vert-adv-y="2504" d="M0 -301h18q66 6 78 29q10 25 10 67l3 101v913l-3 98q0 70 -22 82q-16 12 -66 15l-18 2v92h403v-183q47 96 101 140q80 68 192 67q178 0 289 -149q111 -151 111 -400q0 -279 -135.5 -438.5t-364.5 -159.5q-82 0 -193 25v-104l3 -101q0 -70 22 -82q16 -10 66 -14h18v-94 h-512v94zM403 166q98 -49 158 -49q219 0 219 409q0 406 -198 406q-102 0 -179 -119v-647z" />
<glyph unicode="q" horiz-adv-x="1138" vert-adv-y="2504" d="M43 524q0 279 135 438.5t365 159.5q80 0 190 -24h297v-1202l2 -101q0 -70 23 -82q16 -12 65 -14h19v-94h-512v94h18q66 6 78 29q10 25 10 67l2 101l-2 286q-45 -96 -96 -139q-76 -68 -195 -68q-178 0 -288 150q-111 150 -111 399zM358 571q0 -406 199 -405q100 0 176 119 v647q-98 49 -155 49q-220 0 -220 -410z" />
<glyph unicode="r" horiz-adv-x="907" vert-adv-y="2504" d="M31 0v92l18 2q66 6 78 29q10 20 10 67l2 101v518l-2 98q0 70 -22 82q-16 12 -66 15l-18 2v92h403v-207q143 231 352 231q37 0 70 -8v-348h-135v16l-4 47q-6 74 -19 84q-10 8 -45 9q-137 0 -219 -138v-493q0 -63 8 -113q6 -41 15 -51q18 -25 78 -29l67 -4l19 -2v-92h-590z " />
<glyph unicode="s" horiz-adv-x="796" vert-adv-y="2504" d="M43 49v258h147l3 -16v-3q0 -3 1 -9.5t1 -12.5v-10v-10q0 -178 145 -178q129 0 129 145q0 127 -125 207l-76 49q-133 84 -180 154q-45 66 -45 178q0 150 96 235q98 86 264 86q115 0 269 -43v-245h-148l-2 18l-1 3q-1 3 -1 8v11v11v8q0 137 -90 137q-106 0 -106 -149 q0 -121 120 -201l56 -39q168 -115 209 -168q45 -59 45 -162q0 -150 -115 -241q-113 -94 -287 -95q-119 0 -309 74z" />
<glyph unicode="t" horiz-adv-x="681" vert-adv-y="2504" d="M37 999v99h110v184l297 53v-237h189v-99h-189v-665v-84q0 -158 103 -158q29 0 96 25v-109q-92 -33 -178 -33q-164 0 -240 88q-78 90 -78 279v657h-110z" />
<glyph unicode="u" horiz-adv-x="1138" vert-adv-y="2504" d="M6 1006v92h406v-744q0 -119 22 -159q20 -39 90 -39q104 0 181 137v516l-3 98q0 90 -75 97l-21 2v92h393v-807l2 -101q0 -70 23 -81q16 -12 66 -15l18 -2v-92h-403v182q-51 -96 -107 -139q-82 -68 -205 -68q-279 0 -278 347v487l-2 98q0 70 -23 82q-16 10 -65 15z" />
<glyph unicode="v" vert-adv-y="2504" d="M0 1006v92h516v-92l-18 -2h-27q-59 -2 -59 -46q0 -31 47 -153l164 -416l145 416q43 121 43 160q0 35 -49 36l-29 3l-18 2v92h309v-92l-18 -2h-29q-51 -4 -78 -101q-4 -10 -15.5 -44l-17.5 -52l-291 -819h-90l-325 817l-43 102q-37 94 -99 97z" />
<glyph unicode="w" horiz-adv-x="1478" vert-adv-y="2504" d="M12 1006v92h525v-92h-21q-80 0 -80 -60q0 -55 21 -135l84 -354l223 635h106l207 -635l88 348l17 61l14 62q6 25 6 37q0 41 -76 41h-18v92h358v-92l-18 -2q-98 -6 -113 -39q-18 -39 -49 -156l-205 -821h-92l-250 772l-272 -772h-96l-195 819l-20 96q-20 94 -125 101z" />
<glyph unicode="x" vert-adv-y="2504" d="M0 0v92l12 2l27 2q58 6 92 49q23 27 92 142l154 252l-146 278q-66 131 -94 160q-23 23 -100 27l-19 2v92h555v-92h-18l-27 -2q-63 -2 -63 -46q0 -45 51 -145l66 -125l73 125q70 117 70 154q0 39 -72 39h-18v92h371v-92l-19 -2h-26q-63 0 -113 -82l-66 -111l-141 -238 l156 -301q86 -169 209 -178l18 -2v-92h-549v92h19h2h2q4 0 7 1l3 1l45 6q18 9 18 31q0 33 -65 158l-70 133l-76 -131q-10 -18 -36 -72l-27 -49q-12 -25 -12 -45q0 -27 47 -31l12 -2h21v-92h-365z" />
<glyph unicode="y" vert-adv-y="2504" d="M0 1006v92h522v-92l-18 -2h-10h-15h-8h-6q-49 -8 -49 -46l4 -12l2 -12q14 -53 45 -129l160 -412l145 412q45 123 45 160q0 34 -49 36l-29 3l-18 2v92h303v-92l-18 -2h-29q-49 -4 -78 -103l-4 -12q-6 -18 -29 -82l-430 -1202h-286l325 401l-315 799l-43 102q-37 94 -99 97 z" />
<glyph unicode="z" horiz-adv-x="907" vert-adv-y="2504" d="M51 0v104l477 902h-143q-92 0 -125 -15q-29 -12 -31 -57l-4 -82v-18h-137v264h743v-92l-473 -902h191q123 0 141 23q16 16 21 61v27q0 14 2 33l2 16h135v-264h-799z" />
<glyph unicode="{" horiz-adv-x="806" vert-adv-y="2504" d="M98 596v92h62q168 0 168 141q0 27 -11 68l-18 76l-23 104q-29 127 -28 193q0 137 104 223q102 86 269 86h100v-92q-111 -10 -150 -35q-47 -31 -47 -125q0 -20 8 -70l9 -40l12 -72q18 -104 18 -180q0 -143 -82 -232q-45 -51 -139 -92q102 -47 148 -104q72 -88 71 -222 q0 -96 -18 -188l-14 -72l-7 -41q-10 -57 -10 -71q0 -131 160 -144q6 -2 19.5 -3t21.5 -1v-92h-105q-168 0 -270 84q-100 82 -100 217q0 80 26 193l27 104l16 76q8 35 9 84q0 135 -164 135h-62z" />
<glyph unicode="|" horiz-adv-x="450" vert-adv-y="2504" d="M152 -297v1876h147v-1876h-147z" />
<glyph unicode="}" horiz-adv-x="806" vert-adv-y="2504" d="M86 -203q111 10 150 33q45 31 45 127q0 31 -7 68l-8 43l-12 69q-20 117 -21 182q0 141 82 230q49 52 142 92q-100 47 -148 107q-72 88 -71 219q0 89 18 190l12 70l8 41q8 35 9 73q0 129 -158 142q-8 0 -41 4v92h104q168 0 271 -82q100 -82 100 -217q0 -63 -29 -195 l-22 -104l-18 -76q-8 -31 -9 -84q0 -133 164 -133h62v-92h-62q-168 0 -168 -141q0 -18 10 -70l17 -74l24 -106q29 -133 29 -193q0 -137 -104 -223q-102 -86 -269 -86h-100v94z" />
<glyph unicode="~" horiz-adv-x="1064" vert-adv-y="2504" d="M39 444q4 102 20 152q61 170 260 170q125 0 234 -88l47 -39q100 -78 176 -78q152 0 152 170v8h98q-4 -102 -20 -151q-61 -168 -261 -168q-121 0 -233 88l-49 39q-96 76 -176 76q-150 0 -150 -170v-9h-98z" />
<glyph vert-adv-y="2504" d="M0 555l20 98h74q-4 66 -4 90q0 39 6 97h-96l20 98h86q47 233 125 352q145 227 414 228q111 0 330 -66v-281h-148v21q0 229 -168 229q-137 0 -204 -153q-47 -104 -64 -330h436l-32 -98h-406l-2 -41v-58v-61v-27h346l-33 -98h-309q14 -199 70 -307q84 -162 256 -162 q109 0 244 80v-131q-154 -72 -285 -72q-266 0 -420 199q-109 143 -152 393h-104z" />
<glyph unicode="&#xa0;" horiz-adv-x="512" vert-adv-y="2504" />
<glyph unicode="&#xa1;" horiz-adv-x="681" vert-adv-y="2504" d="M193 -86l102 766h92l102 -766v-297h-296v297zM193 852v246h296v-246h-296z" />
<glyph unicode="&#xa2;" vert-adv-y="2504" d="M98 743q0 293 162 441q113 102 318 125v172h98v-172l39 -6q137 -16 229 -41v-293h-117v10v4v4q-4 49 -4 62q-2 152 -147 163v-923q127 0 268 53v-133q-137 -41 -268 -53v-156h-98v158q-211 25 -328 143q-152 155 -152 442zM371 752q0 -231 78 -346q46 -65 129 -99v903 q-70 -25 -105 -63q-102 -110 -102 -395z" />
<glyph unicode="&#xa3;" vert-adv-y="2504" d="M49 0v233q172 37 172 308v182h-160v104h160v162q0 252 107 389q109 139 299 140q98 0 299 -60v-262h-138q-4 102 -22 147q-33 74 -113 74q-90 0 -114 -88q-20 -61 -21 -194v-308h209v-94h-209v-117q0 -256 -301 -383h709v-233h-877z" />
<glyph unicode="&#xa4;" vert-adv-y="2504" d="M57 344l144 141q-84 115 -84 242q0 129 84 244l-144 141l70 70l141 -142q109 82 244 82q129 0 242 -82l141 142l70 -70l-142 -141q82 -113 82 -242q0 -131 -82 -244l142 -141l-70 -70l-141 142q-109 -82 -242 -82q-129 0 -242 82l-143 -142zM264 731q0 -92 60 -162 q74 -88 188 -88q102 0 174 72t72 176q0 102 -72 174t-174 72t-174 -72q-74 -74 -74 -172z" />
<glyph unicode="&#xa5;" vert-adv-y="2504" d="M0 1389v92h459v-92q-2 0 -6 -1.5t-7 -1.5h-4h-2l-8 3l-6 -3q-47 -10 -47 -26q0 -18 10 -37l31 -61l12 -25l10 -20l13 -23l151 -307h4l154 307q61 123 61 168q0 27 -41 27h-16h-12v92h268v-92q-53 -4 -150 -195l-227 -455h240v-92h-240v-172h240v-92h-240v-92l6 -101 q2 -68 27 -79q16 -10 98 -17l17 -2v-92h-566v92l19 2q102 6 112 29q12 18 13 67l4 101v92h-238v92h238v172h-238v92h238l-227 455q-99 195 -150 195z" />
<glyph unicode="&#xa6;" horiz-adv-x="450" vert-adv-y="2504" d="M152 -297v741h147v-741h-147zM152 840v739h147v-739h-147z" />
<glyph unicode="&#xa7;" vert-adv-y="2504" d="M82 1157q0 169 117 264q119 96 336 97q172 0 350 -56v-291h-135l-2 21q-2 31 -3 65v9q0 160 -204 159q-100 0 -160 -59q-61 -61 -62 -149q0 -98 156 -173l111 -51q178 -82 254 -170q78 -90 78 -209q0 -139 -140 -309q164 -106 164 -287q0 -160 -121 -250t-342 -90 q-184 0 -393 62v278h137v-18l2 -23q0 -4 1 -15t1 -19v-4q0 -68 58 -111q74 -55 204 -55q219 0 220 198q0 72 -52 111q-45 35 -133 76l-118 55q-172 82 -246 168t-74 199q0 150 162 301q-166 101 -166 276zM287 698q0 -94 69 -151q49 -39 174 -103l177 -86q29 63 28 142 q0 119 -110 176l-152 76l-151 79q-35 -57 -35 -133z" />
<glyph unicode="&#xa8;" horiz-adv-x="681" vert-adv-y="2504" d="M33 1282v211h211v-211h-211zM440 1282v211h209v-211h-209z" />
<glyph unicode="&#xa9;" horiz-adv-x="1529" vert-adv-y="2504" d="M25 741q0 307 217 523q217 217 524 217q305 0 522 -217q217 -215 217 -523q0 -311 -219 -526q-217 -215 -530 -215q-268 0 -469 176q-262 227 -262 565zM125 739q0 -262 186 -450q187 -190 449 -191q240 0 420 152q227 194 227 491q0 266 -188 453q-193 188 -453 188 q-266 0 -455 -188q-186 -187 -186 -455zM383 743q0 190 117 301q119 113 311 113q111 0 272 -35v-182h-98v96q-92 39 -164 39q-117 0 -188.5 -90t-71.5 -237q0 -150 82 -240q82 -94 213 -94q106 0 229 53v-111q-141 -39 -264 -39q-199 0 -317 117q-121 116 -121 309z" />
<glyph unicode="&#xaa;" horiz-adv-x="612" vert-adv-y="2504" d="M39 1014q0 221 307 221h25v80q0 145 -78 145q-76 0 -78 -80l-2 -39v-10h-117v133q117 53 223 54q236 0 236 -201v-293l2 -51v-37q0 -43 41 -43q4 0 10 2h6v-59q-43 -12 -77 -13q-90 0 -142 92q-59 -92 -168 -92q-84 0 -137 54q-51 53 -51 137zM225 1036q0 -117 78 -116 q53 0 68 38v222h-19q-127 -1 -127 -144z" />
<glyph unicode="&#xab;" vert-adv-y="2504" d="M10 549l447 438l75 -61l-221 -377l219 -377l-75 -61zM479 549l445 434l75 -57l-221 -377l221 -373l-75 -55z" />
<glyph unicode="&#xac;" horiz-adv-x="1165" vert-adv-y="2504" d="M90 739v150h987v-592h-147v442h-840z" />
<glyph unicode="&#xad;" horiz-adv-x="681" vert-adv-y="2504" d="M49 518v148h584v-148h-584z" />
<glyph unicode="&#xae;" horiz-adv-x="1529" vert-adv-y="2504" d="M25 741q0 307 217 523q217 217 524 217q305 0 522 -217q217 -215 217 -523q0 -311 -219 -526q-217 -215 -530 -215q-268 0 -469 176q-262 227 -262 565zM125 739q0 -262 186 -450q187 -190 449 -191q240 0 420 152q227 194 227 491q0 266 -188 453q-193 188 -453 188 q-266 0 -455 -188q-186 -187 -186 -455zM432 344v57h10q61 6 68 17q6 9 6 37l2 53v475l-2 53q0 37 -12 43q-18 8 -62 11h-10v57h242h49l47 2h49q98 2 164 -35q84 -47 84 -170q0 -158 -154 -225l156 -215l43 -55q31 -41 66 -48v-57h-213l-211 352h-68v-188l2 -53 q0 -37 14 -43q14 -8 48 -11h10v-57h-328zM686 752h31q178 0 178 182q0 152 -150 151h-59v-333z" />
<glyph unicode="&#xaf;" vert-adv-y="2504" d="M86 1456v148h852v-148h-852z" />
<glyph unicode="&#xb0;" horiz-adv-x="817" vert-adv-y="2504" d="M115 1223q0 123 86 209t209 86q125 0 211 -86t86 -209t-89 -211q-86 -86 -210 -86q-113 0 -191 69q-102 91 -102 228zM225 1222.5q0 -77.5 54 -130.5q52 -55 129 -56q71 0 122 43q66 55 66 144q0 77 -55 129q-55 55 -131 55t-131 -55q-54 -52 -54 -129.5z" />
<glyph unicode="&#xb1;" horiz-adv-x="1165" vert-adv-y="2504" d="M90 0v147h987v-147h-987zM90 666v147h420v371h147v-371h420v-147h-420v-369h-147v369h-420z" />
<glyph unicode="&#xb2;" horiz-adv-x="612" vert-adv-y="2504" d="M29 592v119q47 117 180 237l45 41q135 126 135 277q0 166 -127 166q-55 0 -133 -46v-94h-86v164q129 47 256 47q133 0 211 -65q76 -63 76 -174q0 -137 -168 -254q-10 -6 -19.5 -14.5t-15.5 -12.5l-21 -14l-45 -31q-125 -94 -131 -186h398v-160h-555z" />
<glyph unicode="&#xb3;" horiz-adv-x="612" vert-adv-y="2504" d="M35 604v156h80l2 -12q4 -41 8 -52q27 -57 115 -57q139 0 139 180q0 205 -223 205h-52v70h56q195 0 194 178q0 162 -123 162q-55 0 -84 -31q-18 -18 -24 -82v-10h-82v149q106 43 242 43q270 0 270 -211q0 -109 -94 -172q-41 -29 -123 -51q143 -27 199 -98q45 -57 45 -144 q0 -123 -84 -188q-86 -70 -240 -70q-129 0 -221 35z" />
<glyph unicode="&#xb4;" horiz-adv-x="681" vert-adv-y="2504" d="M72 1282l239 322h299l-407 -322h-131z" />
<glyph unicode="&#xb5;" horiz-adv-x="1138" vert-adv-y="2504" d="M12 1006v92h406v-744q0 -119 22 -159q20 -39 90 -39q104 0 181 137v805h295v-807l2 -101q0 -70 22 -81q16 -12 66 -15l18 -2v-92h-403v182q-63 -121 -103 -159q-41 -41 -119 -41q-31 0 -71 18v-344h-297v1153l-2 98q0 70 -23 82q-16 10 -65 15z" />
<glyph unicode="&#xb6;" horiz-adv-x="1105" vert-adv-y="2504" d="M80 1155q0 213 133 289q84 47 195 45l81 -2l93 -4l102 -2h225v-1778h-94v1655h-240v-1655h-86v1036q-174 18 -278 107q-131 112 -131 309z" />
<glyph unicode="&#xb7;" horiz-adv-x="512" vert-adv-y="2504" d="M109 469v297h294v-297h-294z" />
<glyph unicode="&#xb8;" horiz-adv-x="681" vert-adv-y="2504" d="M139 -322q70 -20 117 -20q90 0 90 68q0 86 -180 88l92 186h111l-58 -115q102 -6 152 -30q82 -41 82 -131q0 -156 -238 -156q-76 0 -168 24v86z" />
<glyph unicode="&#xb9;" horiz-adv-x="612" vert-adv-y="2504" d="M123 592v74q2 0 5 1l3 1h14l9 2l6 -2q6 0 8 2l6 -2l4 2q37 4 47 28q8 23 8 82v455q0 68 -10 92q-10 18 -45 19h-8q-14 0 -27 -3q-6 0 -12 -1t-8 -1v72l295 90v-723q0 -84 14 -98q12 -14 49 -14h2h15h10q6 0 12 -1t8 -1v-74h-405z" />
<glyph unicode="&#xba;" horiz-adv-x="675" vert-adv-y="2504" d="M33 1174q0 344 305 344t305 -347q0 -348 -309 -348q-129 0 -205 74q-96 95 -96 277zM229 1171q0 -268 113 -268q104 0 104 268q0 266 -108.5 266t-108.5 -266z" />
<glyph unicode="&#xbb;" vert-adv-y="2504" d="M25 926l75 57l447 -434l-445 -428l-75 55l219 373zM494 926l73 61l447 -438l-445 -438l-75 61l219 377z" />
<glyph unicode="&#xbc;" horiz-adv-x="1536" vert-adv-y="2504" d="M98 592v74l25 2h12l3 1q3 1 5 1l7 -2l6 2q37 4 47 28q8 18 8 82v455q0 70 -10 90q-8 20 -45 21q-20 0 -35 -3q-6 0 -13.5 -1t-9.5 -1v72l297 90v-723q0 -84 15 -98q12 -14 49 -14h2h14h10q6 0 12.5 -1t8.5 -1v-74h-408zM172 -37l1108 1555h125l-1108 -1555h-125zM834 238 v124l333 537h172v-514h99v-147h-99v-56q0 -74 13 -92q12 -16 59 -20h12v-70h-356v70h12q57 4 65.5 26.5t8.5 85.5v56h-319zM934 385h219v352z" />
<glyph unicode="&#xbd;" horiz-adv-x="1536" vert-adv-y="2504" d="M49 592v74q2 0 6 1l4 1h13q2 0 6 1l4 1q0 -2 4 -2q6 0 8 2l6 -2l6 2q35 2 46 28q8 23 8 82v455q0 70 -10 90q-8 20 -44 21q-20 0 -34 -3q-6 0 -13.5 -1t-9.5 -1v72l295 90v-723q0 -82 16 -98q12 -14 50 -14h2h14h8q6 0 13.5 -1t9.5 -1v-74h-408zM92 -37l1108 1555h123 l-1108 -1555h-123zM928 35v153h82v-10q0 -109 123 -108q141 0 141 180q0 205 -225 205h-50v69h54q195 0 194 176q0 164 -121 164q-111 0 -110 -112v-13h-82v152q111 43 244 43q268 0 268 -211q0 -109 -94 -172q-41 -29 -123 -51q143 -27 201 -101q45 -57 45 -143 q0 -119 -86 -186q-86 -70 -238 -70q-131 0 -223 35z" />
<glyph unicode="&#xbe;" horiz-adv-x="1536" vert-adv-y="2504" d="M86 604v156h82v-12q0 -109 123 -109q141 0 141 180q0 205 -223 205h-51v70h53q197 0 197 176q0 164 -123 164q-111 0 -111 -113v-10h-82v149q111 43 242 43q270 0 270 -211q0 -111 -92 -172q-39 -29 -125 -51q145 -29 201 -98q45 -57 45 -144q0 -123 -84 -188 q-86 -70 -240 -70q-129 0 -223 35zM211 -37l1106 1555h125l-1108 -1555h-123zM846 238v124l334 537h172v-514h98v-147h-98v-56q0 -71 12 -92q14 -16 61 -20h11v-70h-355v70h11q57 4 65 26.5t8 85.5v56h-319zM946 385h219v352z" />
<glyph unicode="&#xbf;" vert-adv-y="2504" d="M59 -90q0 96 72 184q25 29 100 88q29 20 41 31q16 12 24.5 19.5t10.5 9.5l45 39q90 80 92 262l5 116v21h296v-16q0 -168 -153 -299l-64 -56q-158 -139 -157 -332q0 -135 69 -221q68 -84 187 -84q86 0 141 43q53 41 53 109l2 78v18h138v-276q-190 -63 -398 -64 q-231 0 -366 90q-138 93 -138 240zM449 852v246h296v-246h-296z" />
<glyph unicode="&#xc0;" horiz-adv-x="1478" vert-adv-y="2504" d="M0 0v92l18 2q82 6 121 96l45 103l508 1200h103l510 -1202q80 -188 135 -195l26 -2l13 -2v-92h-531v92l21 2l32 2q45 4 46 33q0 20 -29 94l-29 70l-67 158h-549l-68 -160q-55 -129 -55 -158q0 -35 51 -37l27 -2l16 -2v-92h-344zM387 1925h299l242 -321h-133zM416 549h465 l-234 549z" />
<glyph unicode="&#xc1;" horiz-adv-x="1478" vert-adv-y="2504" d="M0 0v92l18 2q82 6 121 96l45 103l508 1200h103l510 -1202q80 -188 135 -195l26 -2l13 -2v-92h-531v92l21 2l32 2q45 4 46 33q0 20 -29 94l-29 70l-67 158h-549l-68 -160q-55 -129 -55 -158q0 -35 51 -37l27 -2l16 -2v-92h-344zM416 549h465l-234 549zM559 1604l240 321 h301l-410 -321h-131z" />
<glyph unicode="&#xc2;" horiz-adv-x="1478" vert-adv-y="2504" d="M0 0v92l18 2q82 6 121 96l45 103l508 1200h103l510 -1202q80 -188 135 -195l26 -2l13 -2v-92h-531v92l21 2l32 2q45 4 46 33q0 20 -29 94l-29 70l-67 158h-549l-68 -160q-55 -129 -55 -158q0 -35 51 -37l27 -2l16 -2v-92h-344zM379 1604l242 321h245l242 -321h-119 l-246 194l-247 -194h-117zM416 549h465l-234 549z" />
<glyph unicode="&#xc3;" horiz-adv-x="1478" vert-adv-y="2504" d="M0 0v92l18 2q82 6 121 96l45 103l508 1200h103l510 -1202q80 -188 135 -195l26 -2l13 -2v-92h-531v92l21 2l32 2q45 4 46 33q0 20 -29 94l-29 70l-67 158h-549l-68 -160q-55 -129 -55 -158q0 -35 51 -37l27 -2l16 -2v-92h-344zM395 1604q4 119 43 180q55 86 156 86 q59 0 133 -35l76 -35q74 -35 110 -35q83 0 86 105h93q-4 -115 -43 -178q-57 -88 -152 -88q-63 0 -137 34l-76 35q-72 35 -111 35q-83 0 -86 -104h-92zM416 549h465l-234 549z" />
<glyph unicode="&#xc4;" horiz-adv-x="1478" vert-adv-y="2504" d="M0 0v92l18 2q82 6 121 96l45 103l508 1200h103l510 -1202q80 -188 135 -195l26 -2l13 -2v-92h-531v92l21 2l32 2q45 4 46 33q0 20 -29 94l-29 70l-67 158h-549l-68 -160q-55 -129 -55 -158q0 -35 51 -37l27 -2l16 -2v-92h-344zM416 549h465l-234 549zM434 1604v211h211 v-211h-211zM842 1604v211h211v-211h-211z" />
<glyph unicode="&#xc5;" horiz-adv-x="1478" vert-adv-y="2504" d="M0 0v92l18 2q82 6 121 96l45 103l508 1200h103l510 -1202q80 -188 135 -195l26 -2l13 -2v-92h-531v92l21 2l32 2q45 4 46 33q0 20 -29 94l-29 70l-67 158h-549l-68 -160q-55 -129 -55 -158q0 -35 51 -37l27 -2l16 -2v-92h-344zM416 549h465l-234 549zM510 1729 q0 98 68 165q70 70 166 70t165.5 -69.5t69.5 -163.5q0 -98 -70 -168q-68 -68 -168 -68q-86 0 -149 55q-82 75 -82 179zM602 1731q0 -59 41 -101q40 -43 98 -43q53 0 95 35q49 43 49 109q0 61 -41 100q-45 41 -101 41q-59 0 -100 -41t-41 -100z" />
<glyph unicode="&#xc6;" horiz-adv-x="2048" vert-adv-y="2504" d="M0 0v92l18 2q63 2 117 90l62 101l735 1196h1014v-267h-172l-2 21v25q0 6 -1.5 14t-1.5 12v10q0 53 -18 68q-16 12 -59 14l-70 4h-393v-563h282l99 2q35 0 47 13q2 4 6 30v6v4q2 2 2 7q0 6 1 18t1 21v18h131v-322h-131v19q0 4 -1 12t-1 15v12v2q0 53 -59 53l-95 4h-282 v-442l6 -88q4 -74 27 -84q29 -12 75 -13l82 -2h203l113 5q70 0 75 55l5 94l2 21h172v-279h-1217v92l19 2q111 6 122 29q14 20 15 67l4 101v147h-524l-95 -153q-82 -131 -82 -158q0 -29 64 -31l45 -2h18v-94h-358zM473 530h459v746z" />
<glyph unicode="&#xc7;" horiz-adv-x="1478" vert-adv-y="2504" d="M74 741q0 375 206.5 576t596.5 201q223 0 489 -66v-305h-172v18l-4 60q-6 104 -94 149q-86 45 -211 45q-270 0 -385 -200q-98 -172 -99 -467q0 -666 547 -666q195 0 445 111v-140q-240 -94 -506 -94q-387 0 -600 202.5t-213 575.5zM657 -322q70 -20 115 -20q92 0 92 68 q0 86 -180 88l92 186h111l-58 -115q102 -6 152 -30q82 -41 82 -131q0 -156 -238 -156q-76 0 -168 24v86z" />
<glyph unicode="&#xc8;" horiz-adv-x="1363" vert-adv-y="2504" d="M55 0v92l19 2q115 6 125 29q12 18 12 67l4 101v901l-4 96q-4 72 -27 80q-25 12 -110 18l-19 3v92h1209v-267h-172l-2 21v25q0 6 -1.5 14t-1.5 12v10q0 53 -18 68q-16 12 -59 14l-70 4h-416v-563h305l99 2q35 0 47 13q2 4 6 30v6v4q2 2 2 7q0 8 1 21t1 18l2 18h129v-322 h-129l-2 19l-1 5q-1 5 -1 9v25v2q0 53 -59 53l-95 4h-305v-442l4 -88q6 -74 29 -84q29 -12 78 -13l82 -2h221l115 5q70 0 75 55l5 94l2 21h172v-279h-1252zM301 1925h299l242 -321h-133z" />
<glyph unicode="&#xc9;" horiz-adv-x="1363" vert-adv-y="2504" d="M55 0v92l19 2q115 6 125 29q12 18 12 67l4 101v901l-4 96q-4 72 -27 80q-25 12 -110 18l-19 3v92h1209v-267h-172l-2 21v25q0 6 -1.5 14t-1.5 12v10q0 53 -18 68q-16 12 -59 14l-70 4h-416v-563h305l99 2q35 0 47 13q2 4 6 30v6v4q2 2 2 7q0 8 1 21t1 18l2 18h129v-322 h-129l-2 19l-1 5q-1 5 -1 9v25v2q0 53 -59 53l-95 4h-305v-442l4 -88q6 -74 29 -84q29 -12 78 -13l82 -2h221l115 5q70 0 75 55l5 94l2 21h172v-279h-1252zM524 1604l240 321h301l-410 -321h-131z" />
<glyph unicode="&#xca;" horiz-adv-x="1363" vert-adv-y="2504" d="M55 0v92l19 2q115 6 125 29q12 18 12 67l4 101v901l-4 96q-4 72 -27 80q-25 12 -110 18l-19 3v92h1209v-267h-172l-2 21v25q0 6 -1.5 14t-1.5 12v10q0 53 -18 68q-16 12 -59 14l-70 4h-416v-563h305l99 2q35 0 47 13q2 4 6 30v6v4q2 2 2 7q0 8 1 21t1 18l2 18h129v-322 h-129l-2 19l-1 5q-1 5 -1 9v25v2q0 53 -59 53l-95 4h-305v-442l4 -88q6 -74 29 -84q29 -12 78 -13l82 -2h221l115 5q70 0 75 55l5 94l2 21h172v-279h-1252zM371 1604l239 321h246l242 -321h-117l-248 194l-246 -194h-116z" />
<glyph unicode="&#xcb;" horiz-adv-x="1363" vert-adv-y="2504" d="M55 0v92l19 2q115 6 125 29q12 18 12 67l4 101v901l-4 96q-4 72 -27 80q-25 12 -110 18l-19 3v92h1209v-267h-172l-2 21v25q0 6 -1.5 14t-1.5 12v10q0 53 -18 68q-16 12 -59 14l-70 4h-416v-563h305l99 2q35 0 47 13q2 4 6 30v6v4q2 2 2 7q0 8 1 21t1 18l2 18h129v-322 h-129l-2 19l-1 5q-1 5 -1 9v25v2q0 53 -59 53l-95 4h-305v-442l4 -88q6 -74 29 -84q29 -12 78 -13l82 -2h221l115 5q70 0 75 55l5 94l2 21h172v-279h-1252zM426 1604v211h209v-211h-209zM831 1604v211h211v-211h-211z" />
<glyph unicode="&#xcc;" horiz-adv-x="796" vert-adv-y="2504" d="M84 0v92l18 2q113 6 123 29q14 25 15 67l4 101v901l-4 96q-4 68 -27 80q-25 12 -111 18l-18 3v92h629v-92l-19 -3q-115 -8 -123 -26q-14 -20 -14 -72l-4 -96v-901l4 -101q2 -68 29 -79q29 -10 108 -17l19 -2v-92h-629zM84 1925h299l242 -321h-133z" />
<glyph unicode="&#xcd;" horiz-adv-x="796" vert-adv-y="2504" d="M84 0v92l18 2q113 6 123 29q14 25 15 67l4 101v901l-4 96q-4 68 -27 80q-25 12 -111 18l-18 3v92h629v-92l-19 -3q-115 -8 -123 -26q-14 -20 -14 -72l-4 -96v-901l4 -101q2 -68 29 -79q29 -10 108 -17l19 -2v-92h-629zM172 1604l242 321h299l-408 -321h-133z" />
<glyph unicode="&#xce;" horiz-adv-x="796" vert-adv-y="2504" d="M35 1604l239 321h246l242 -321h-117l-248 194l-245 -194h-117zM84 0v92l18 2q113 6 123 29q12 20 13 67l6 101v901l-6 96q-4 68 -27 80q-25 12 -109 18l-18 3v92h629v-92l-19 -3q-119 -10 -125 -26q-12 -18 -12 -72l-4 -96v-901l4 -101q2 -68 29 -79q29 -10 108 -17 l19 -2v-92h-629z" />
<glyph unicode="&#xcf;" horiz-adv-x="796" vert-adv-y="2504" d="M84 0v92l18 2q113 6 123 29q14 25 15 67l4 101v901l-4 96q-4 68 -27 80q-25 12 -111 18l-18 3v92h629v-92l-19 -3q-115 -8 -123 -26q-14 -20 -14 -72l-4 -96v-901l4 -101q2 -68 29 -79q29 -10 108 -17l19 -2v-92h-629zM90 1604v211h209v-211h-209zM498 1604v211h209v-211 h-209z" />
<glyph unicode="&#xd0;" horiz-adv-x="1478" vert-adv-y="2504" d="M43 0v92l18 2q66 6 78 29q10 20 11 67l2 101v411h-109v101h109v389l-2 96q0 72 -23 84q-16 10 -66 14l-18 3v92h434h74l90 2l76 2q281 2 467 -156q221 -190 221 -559q0 -352 -190.5 -561t-509.5 -209h-662zM459 291q0 -82 20 -131q16 -35 56 -43q49 -12 127 -13 q201 0 307 175q109 176 108 481q0 330 -131 475q-132 147 -424 147h-63v-579h297v-101h-297v-411z" />
<glyph unicode="&#xd1;" horiz-adv-x="1478" vert-adv-y="2504" d="M43 0v92l20 2q113 6 123 29q12 18 13 67l6 101v901l-6 96q-4 72 -27 80q-29 12 -109 18l-20 3v92h385l670 -1100v811l-6 96q-4 72 -25 80q-27 12 -113 18l-16 3v92h465v-92l-19 -3q-115 -10 -122 -26q-12 -20 -13 -72l-6 -96v-1212h-217l-676 1101v-790l6 -101 q2 -68 29 -79q23 -10 109 -17l18 -2v-92h-469zM385 1604q4 115 45 180q55 86 154 86q61 0 135 -35l74 -35q74 -35 112 -35q83 0 86 105h92q-4 -115 -45 -178q-57 -88 -151 -88q-63 0 -137 34l-74 35q-72 35 -113 35q-80 0 -84 -104h-94z" />
<glyph unicode="&#xd2;" horiz-adv-x="1591" vert-adv-y="2504" d="M74 741q0 353 196 566q197 211 526.5 211t526.5 -211q197 -209 197 -566q0 -360 -197 -569t-537 -209q-291 0 -477 172q-235 219 -235 606zM389 1925h299l242 -321h-133zM401 739q0 -317 102.5 -497.5t293.5 -180.5q201 0 299 177q96 172 96 501q0 326 -105 502 q-104 178 -290 178q-188 0 -293 -178q-103 -174 -103 -502z" />
<glyph unicode="&#xd3;" horiz-adv-x="1591" vert-adv-y="2504" d="M74 741q0 353 196 566q197 211 526.5 211t526.5 -211q197 -209 197 -566q0 -360 -197 -569t-537 -209q-291 0 -477 172q-235 219 -235 606zM401 739q0 -317 102.5 -497.5t293.5 -180.5q201 0 299 177q96 172 96 501q0 326 -105 502q-104 178 -290 178q-188 0 -293 -178 q-103 -174 -103 -502zM664 1604l239 321h301l-407 -321h-133z" />
<glyph unicode="&#xd4;" horiz-adv-x="1591" vert-adv-y="2504" d="M74 741q0 353 196 566q197 211 526.5 211t526.5 -211q197 -209 197 -566q0 -360 -197 -569t-537 -209q-291 0 -477 172q-235 219 -235 606zM401 739q0 -317 102.5 -497.5t293.5 -180.5q201 0 299 177q96 172 96 501q0 326 -105 502q-104 178 -290 178q-188 0 -293 -178 q-103 -174 -103 -502zM432 1604l242 321h246l241 -321h-117l-247 194l-246 -194h-119z" />
<glyph unicode="&#xd5;" horiz-adv-x="1591" vert-adv-y="2504" d="M74 741q0 353 196 566q197 211 526.5 211t526.5 -211q197 -209 197 -566q0 -360 -197 -569t-537 -209q-291 0 -477 172q-235 219 -235 606zM401 739q0 -317 102.5 -497.5t293.5 -180.5q201 0 299 177q96 172 96 501q0 326 -105 502q-104 178 -290 178q-188 0 -293 -178 q-103 -174 -103 -502zM449 1604q4 119 43 180q55 86 153 86q61 0 135 -35l74 -35q74 -35 113 -35q83 0 86 105h92q-4 -119 -43 -178q-57 -88 -154 -88q-63 0 -137 34l-74 35q-72 35 -110 35q-83 0 -86 -104h-92z" />
<glyph unicode="&#xd6;" horiz-adv-x="1591" vert-adv-y="2504" d="M74 741q0 353 196 566q197 211 526.5 211t526.5 -211q197 -209 197 -566q0 -360 -197 -569t-537 -209q-291 0 -477 172q-235 219 -235 606zM401 739q0 -317 102.5 -497.5t293.5 -180.5q201 0 299 177q96 172 96 501q0 326 -105 502q-104 178 -290 178q-188 0 -293 -178 q-103 -174 -103 -502zM487 1604v211h211v-211h-211zM895 1604v211h211v-211h-211z" />
<glyph unicode="&#xd7;" horiz-adv-x="1165" vert-adv-y="2504" d="M104 244l375 374l-375 375l105 105l375 -375l374 375l107 -105l-377 -375l377 -374l-107 -107l-374 375l-375 -375z" />
<glyph unicode="&#xd8;" horiz-adv-x="1591" vert-adv-y="2504" d="M74 -37l188 223q-82 106 -125 211q-63 154 -63 348q0 348 196 562q197 211 523 211q264 0 467 -154l131 154h129l-189 -224q82 -106 125 -211q63 -162 64 -348q0 -350 -197 -561t-522 -211q-255 0 -467 154l-131 -154h-129zM401 739q0 -166 41 -342l670 795 q-51 104 -108 154q-86 74 -207 73q-190 0 -293 -178q-103 -180 -103 -502zM479 291q49 -100 111 -156q86 -74 207 -74q190 0 293 179q102 180 102 499q0 164 -41 344z" />
<glyph unicode="&#xd9;" horiz-adv-x="1478" vert-adv-y="2504" d="M18 1382v99h629v-92l-16 -3q-117 -10 -123 -26q-14 -20 -14 -72l-5 -96v-641q0 -273 68 -381q72 -111 246 -111q182 0 266 121t84 379v633l-4 96q-4 72 -27 80q-22 12 -110 18l-19 3v92h465v-92l-18 -3q-115 -10 -119 -26q-14 -20 -14 -72l-7 -96v-608q0 -319 -131 -469 q-133 -152 -407 -152q-584 0 -584 600v621l-4 98q-4 70 -31 82q-23 10 -106 16zM389 1925h299l242 -321h-133z" />
<glyph unicode="&#xda;" horiz-adv-x="1478" vert-adv-y="2504" d="M18 1382v99h629v-92l-16 -3q-117 -10 -123 -26q-14 -20 -14 -72l-5 -96v-641q0 -273 68 -381q72 -111 246 -111q182 0 266 121t84 379v633l-4 96q-4 72 -27 80q-22 12 -110 18l-19 3v92h465v-92l-18 -3q-115 -10 -119 -26q-14 -20 -14 -72l-7 -96v-608q0 -319 -131 -469 q-133 -152 -407 -152q-584 0 -584 600v621l-4 98q-4 70 -31 82q-23 10 -106 16zM664 1604l239 321h299l-407 -321h-131z" />
<glyph unicode="&#xdb;" horiz-adv-x="1478" vert-adv-y="2504" d="M18 1382v99h629v-92l-16 -3q-117 -10 -123 -26q-14 -20 -14 -72l-5 -96v-641q0 -273 68 -381q72 -111 246 -111q182 0 266 121t84 379v633l-4 96q-4 72 -27 80q-22 12 -110 18l-19 3v92h465v-92l-18 -3q-115 -10 -119 -26q-14 -20 -14 -72l-7 -96v-608q0 -319 -131 -469 q-133 -152 -407 -152q-584 0 -584 600v621l-4 98q-4 70 -31 82q-23 10 -106 16zM432 1604l242 321h246l239 -321h-117l-245 194l-248 -194h-117z" />
<glyph unicode="&#xdc;" horiz-adv-x="1478" vert-adv-y="2504" d="M18 1382v99h629v-92l-16 -3q-117 -10 -123 -26q-14 -20 -14 -72l-5 -96v-641q0 -273 68 -381q72 -111 246 -111q182 0 266 121t84 379v633l-4 96q-4 72 -27 80q-22 12 -110 18l-19 3v92h465v-92l-18 -3q-115 -10 -119 -26q-14 -20 -14 -72l-7 -96v-608q0 -319 -131 -469 q-133 -152 -407 -152q-584 0 -584 600v621l-4 98q-4 70 -31 82q-23 10 -106 16zM487 1604v211h209v-211h-209zM895 1604v211h209v-211h-209z" />
<glyph unicode="&#xdd;" horiz-adv-x="1478" vert-adv-y="2504" d="M2 1389v92h641v-92h-14l-51 -3q-68 0 -68 -32q0 -34 86 -172l250 -414l258 414q84 131 84 168q0 39 -96 39h-23v92h408v-92l-19 -3l-43 -4q-59 -6 -94 -65l-88 -135l-344 -541v-350l6 -101q2 -68 27 -79q20 -10 108 -17l19 -2v-92h-629v92l18 2q115 6 125 29q12 20 12 67 l7 101v348l-336 543l-29 45l-20 35q-20 31 -23 36q-43 80 -98 86l-53 2zM606 1604l242 321h299l-408 -321h-133z" />
<glyph unicode="&#xde;" horiz-adv-x="1257" vert-adv-y="2504" d="M43 0v92l18 2q113 6 123 29q14 25 15 67l4 101v901l-4 96q-2 68 -29 80q-25 12 -109 18l-18 3v92h616v-92l-18 -3q-106 -10 -121 -51q-14 -33 -20 -151h96q330 0 432 -51q186 -92 186 -340q0 -485 -618 -486h-96l2 -117q0 -68 28 -79q18 -10 111 -17l18 -2v-92h-616z M500 408h61q340 0 340 364q0 313 -291 313h-110v-677z" />
<glyph unicode="&#xdf;" horiz-adv-x="1138" vert-adv-y="2504" d="M31 0v92l18 2q76 6 76 96l2 101v823q0 252 106 371q109 121 326 121q166 0 272 -76q109 -74 109 -187q0 -111 -137 -215l-43 -32q-109 -84 -109 -140q0 -59 94 -135q61 -53 66 -57l115 -111l88 -82q113 -106 112 -258q0 -141 -100 -239.5t-248 -98.5q-114 0 -215 43v240 h101v-16q0 -4 1 -12.5t1 -12.5t1 -10t1 -8v-15l2 -4l-2 -12l2 -14q12 -49 32 -66q20 -20 62 -20q59 0 92 38q37 41 37 107q0 96 -119 217l-106 111l-105 92q-86 76 -86 192q0 96 111 215l28 31q66 72 66 223q0 217 -141 217q-86 0 -111 -98q-18 -74 -18 -219v-903l2 -101 q0 -90 61 -96l21 -2v-92h-465z" />
<glyph unicode="&#xe0;" vert-adv-y="2504" d="M53 289q0 365 508 364h51v133q0 147 -26 195q-29 49 -107 49q-135 0 -141 -133l-2 -63l-2 -21h-184v223q186 86 368 86q389 0 389 -331v-484l4 -86l2 -59q4 -74 64 -74q18 0 31 4v-96q-70 -20 -125 -21q-145 0 -230 152q-129 -152 -291 -152q-137 0 -223 86.5t-86 227.5z M350 328q0 -195 131 -195q55 0 131 68v362h-39q-223 1 -223 -235zM117 1604h299l239 -322h-133z" />
<glyph unicode="&#xe1;" vert-adv-y="2504" d="M53 289q0 365 508 364h51v133q0 147 -26 195q-29 49 -107 49q-135 0 -141 -133l-2 -63l-2 -21h-184v223q186 86 368 86q389 0 389 -331v-484l4 -86l2 -59q4 -74 64 -74q18 0 31 4v-96q-70 -20 -125 -21q-145 0 -230 152q-129 -152 -291 -152q-137 0 -223 86.5t-86 227.5z M350 328q0 -195 131 -195q55 0 131 68v362h-39q-223 1 -223 -235zM342 1282l239 322h299l-407 -322h-131z" />
<glyph unicode="&#xe2;" vert-adv-y="2504" d="M53 289q0 365 508 364h51v133q0 147 -26 195q-29 49 -107 49q-135 0 -141 -133l-2 -63l-2 -21h-184v223q186 86 368 86q389 0 389 -331v-484l4 -86l2 -59q4 -74 64 -74q18 0 31 4v-96q-70 -20 -125 -21q-145 0 -230 152q-129 -152 -291 -152q-137 0 -223 86.5t-86 227.5z M350 328q0 -195 131 -195q55 0 131 68v362h-39q-223 1 -223 -235zM155 1282l240 322h248l240 -322h-117l-246 195l-248 -195h-117z" />
<glyph unicode="&#xe3;" vert-adv-y="2504" d="M53 289q0 365 508 364h51v133q0 147 -26 195q-29 49 -107 49q-135 0 -141 -133l-2 -63l-2 -21h-184v223q186 86 368 86q389 0 389 -331v-484l4 -86l2 -59q4 -74 64 -74q18 0 31 4v-96q-70 -20 -125 -21q-145 0 -230 152q-129 -152 -291 -152q-137 0 -223 86.5t-86 227.5z M350 328q0 -195 131 -195q55 0 131 68v362h-39q-223 1 -223 -235zM162 1282q4 115 45 180q55 86 153 86q68 0 136 -32l73 -37q74 -35 113 -35q83 0 86 104h90q-4 -115 -43 -178q-57 -88 -151 -88q-63 0 -138 35l-73 35q-78 37 -113 37q-80 0 -84 -107h-94z" />
<glyph unicode="&#xe4;" vert-adv-y="2504" d="M53 289q0 365 508 364h51v133q0 147 -26 195q-29 49 -107 49q-135 0 -141 -133l-2 -63l-2 -21h-184v223q186 86 368 86q389 0 389 -331v-484l4 -86l2 -59q4 -74 64 -74q18 0 31 4v-96q-70 -20 -125 -21q-145 0 -230 152q-129 -152 -291 -152q-137 0 -223 86.5t-86 227.5z M350 328q0 -195 131 -195q55 0 131 68v362h-39q-223 1 -223 -235zM205 1282v211h211v-211h-211zM612 1282v211h209v-211h-209z" />
<glyph unicode="&#xe5;" vert-adv-y="2504" d="M53 289q0 365 508 364h51v133q0 147 -26 195q-29 49 -107 49q-135 0 -141 -133l-2 -63l-2 -21h-184v223q186 86 368 86q389 0 389 -331v-484l4 -86l2 -59q4 -74 64 -74q18 0 31 4v-96q-70 -20 -125 -21q-145 0 -230 152q-129 -152 -291 -152q-137 0 -223 86.5t-86 227.5z M350 328q0 -195 131 -195q55 0 131 68v362h-39q-223 1 -223 -235zM500 1751q98 0 165.5 -67.5t67.5 -166t-67 -165.5q-70 -70 -168 -70q-82 0 -150 57q-84 72 -84 179q0 96 70 165q68 68 166 68zM500 1659q-59 0 -100 -41t-41 -100.5t41 -100.5t98 -41q53 0 92 33 q51 45 51 109q0 59 -43 100q-41 41 -98 41z" />
<glyph unicode="&#xe6;" horiz-adv-x="1478" vert-adv-y="2504" d="M53 289q0 365 508 364h51v133q0 147 -26 195q-29 49 -107 49q-135 0 -141 -133l-2 -63l-2 -21h-184v223q186 86 366 86q172 0 287 -80q111 80 252 80q190 0 276 -131q84 -133 84 -430v-22h-508q2 -180 45 -277q61 -137 211 -137q111 0 252 68v-150q-166 -68 -325 -68 q-158 0 -248 58q-76 45 -152 145q-145 -203 -328 -203q-137 0 -223 86.5t-86 227.5zM350 328q0 -195 131 -195q55 0 131 68v362h-39q-223 1 -223 -235zM915 633h209v39v18q0 340 -90 340q-117 0 -119 -397z" />
<glyph unicode="&#xe7;" horiz-adv-x="907" vert-adv-y="2504" d="M43 541q0 270 137 425.5t375 155.5q137 0 281 -49v-282h-168v18l-4 74q-2 59 -31 102q-27 45 -86 45q-100 0 -146 -131q-45 -125 -45 -332q0 -223 64 -334q63 -113 198 -112q98 0 220 53v-147q-160 -51 -283 -52q-240 0 -375 150q-137 150 -137 416zM352 -322 q70 -20 117 -20q90 0 90 68q0 86 -180 88l92 186h111l-58 -115q102 -6 152 -30q82 -41 82 -131q0 -156 -238 -156q-76 0 -168 24v86z" />
<glyph unicode="&#xe8;" horiz-adv-x="907" vert-adv-y="2504" d="M43 553q0 264 123 418q119 152 326 151q195 0 276 -131q86 -129 86 -430v-22h-508q2 -180 45 -277q61 -137 211 -137q111 0 252 68v-150q-166 -68 -326 -68q-485 0 -485 578zM354 633h209v39v18q0 340 -90 340q-117 0 -119 -397zM123 1604h299l239 -322h-133z" />
<glyph unicode="&#xe9;" horiz-adv-x="907" vert-adv-y="2504" d="M43 553q0 264 123 418q119 152 326 151q195 0 276 -131q86 -129 86 -430v-22h-508q2 -180 45 -277q61 -137 211 -137q111 0 252 68v-150q-166 -68 -326 -68q-485 0 -485 578zM354 633h209v39v18q0 340 -90 340q-117 0 -119 -397zM324 1282l239 322h299l-407 -322h-131z " />
<glyph unicode="&#xea;" horiz-adv-x="907" vert-adv-y="2504" d="M43 553q0 264 123 418q119 152 326 151q195 0 276 -131q86 -129 86 -430v-22h-508q2 -180 45 -277q61 -137 211 -137q111 0 252 68v-150q-166 -68 -326 -68q-485 0 -485 578zM354 633h209v39v18q0 340 -90 340q-117 0 -119 -397zM129 1282l240 322h248l240 -322h-117 l-246 195l-248 -195h-117z" />
<glyph unicode="&#xeb;" horiz-adv-x="907" vert-adv-y="2504" d="M43 553q0 264 123 418q119 152 326 151q195 0 276 -131q86 -129 86 -430v-22h-508q2 -180 45 -277q61 -137 211 -137q111 0 252 68v-150q-166 -68 -326 -68q-485 0 -485 578zM354 633h209v39v18q0 340 -90 340q-117 0 -119 -397zM185 1282v211h211v-211h-211zM592 1282 v211h209v-211h-209z" />
<glyph unicode="&#xec;" horiz-adv-x="567" vert-adv-y="2504" d="M41 0v92l16 2q68 6 80 29q10 20 10 67v101v518v98q0 70 -22 82q-16 10 -68 15l-16 2v92h403v-807l2 -101q0 -70 23 -81q16 -10 66 -15l18 -2v-92h-512zM0 1604h299l239 -322h-133z" />
<glyph unicode="&#xed;" horiz-adv-x="567" vert-adv-y="2504" d="M41 0v92l16 2q68 6 80 29q10 20 10 67v101v518v98q0 70 -22 82q-16 10 -68 15l-16 2v92h403v-807l2 -101q0 -70 23 -81q16 -10 66 -15l18 -2v-92h-512zM29 1282l239 322h299l-407 -322h-131z" />
<glyph unicode="&#xee;" horiz-adv-x="567" vert-adv-y="2504" d="M41 0v92l16 2q68 6 80 29q10 20 10 67v101v518v98q0 70 -22 82q-16 10 -68 15l-16 2v92h403v-807l2 -101q0 -70 23 -81q16 -10 66 -15l18 -2v-92h-512zM-78 1282l240 322h248l240 -322h-117l-246 195l-248 -195h-117z" />
<glyph unicode="&#xef;" horiz-adv-x="567" vert-adv-y="2504" d="M-25 1282v211h211v-211h-211zM41 0v92l16 2q68 6 80 29q10 25 10 67v101v518v98q0 70 -22 82q-16 10 -68 15l-16 2v92h403v-807l2 -101q0 -70 23 -81q16 -10 66 -15l18 -2v-92h-512zM383 1282v211h211v-211h-211z" />
<glyph unicode="&#xf0;" vert-adv-y="2504" d="M43 528q0 240 121 392q120 154 307 153q61 0 137 -29q-71 154 -196 277l-240 -236l-49 68l221 219q-137 94 -301 115v92h31q195 0 383 -96l198 194l52 -67l-170 -168q123 -92 188 -164q256 -281 256 -682q0 -279 -131 -449q-132 -172 -344 -172q-205 0 -334 153.5 t-129 399.5zM358 528q0 -297 45 -385q39 -76 121 -75q88 0 117 120q25 106 25 373q0 420 -150 420q-158 0 -158 -453z" />
<glyph unicode="&#xf1;" horiz-adv-x="1138" vert-adv-y="2504" d="M31 0v92l18 2q68 6 78 29q10 25 10 67l2 101v518l-2 98q0 70 -20 82q-16 10 -68 15l-18 2v92h405v-183q51 96 107 140q86 68 202 67q279 0 279 -346v-485l2 -101q0 -70 23 -81q16 -12 65 -15l19 -2v-92h-500v92l18 2q76 6 76 96l2 101v452q0 120 -24 160q-20 39 -91 39 q-102 0 -178 -137v-514l2 -101q0 -90 76 -96l18 -2v-92h-501zM213 1282q4 115 45 180q55 86 153 86q68 0 136 -32l73 -37q74 -35 113 -35q83 0 86 104h90q-4 -115 -43 -178q-57 -88 -151 -88q-63 0 -138 35l-73 35q-78 37 -113 37q-80 0 -84 -107h-94z" />
<glyph unicode="&#xf2;" vert-adv-y="2504" d="M43 551q0 270 125 420q125 152 344 151q217 0 342 -151q127 -156 127 -420q0 -272 -127 -424t-348 -152q-193 0 -311 125q-152 158 -152 451zM358 551q0 -471 154 -471t154 481q0 457 -154 457t-154 -467zM144 1604h299l239 -322h-133z" />
<glyph unicode="&#xf3;" vert-adv-y="2504" d="M43 551q0 270 125 420q125 152 344 151q217 0 342 -151q127 -156 127 -420q0 -272 -127 -424t-348 -152q-193 0 -311 125q-152 158 -152 451zM358 551q0 -471 154 -471t154 481q0 457 -154 457t-154 -467zM342 1282l239 322h299l-407 -322h-131z" />
<glyph unicode="&#xf4;" vert-adv-y="2504" d="M43 551q0 270 125 420q125 152 344 151q217 0 342 -151q127 -156 127 -420q0 -272 -127 -424t-348 -152q-193 0 -311 125q-152 158 -152 451zM358 551q0 -471 154 -471t154 481q0 457 -154 457t-154 -467zM147 1282l240 322h248l240 -322h-117l-246 195l-248 -195h-117z " />
<glyph unicode="&#xf5;" vert-adv-y="2504" d="M43 551q0 270 125 420q125 152 344 151q217 0 342 -151q127 -156 127 -420q0 -272 -127 -424t-348 -152q-193 0 -311 125q-152 158 -152 451zM358 551q0 -471 154 -471t154 481q0 457 -154 457t-154 -467zM162 1282q4 115 45 180q55 86 153 86q68 0 136 -32l73 -37 q74 -35 113 -35q83 0 86 104h90q-4 -115 -43 -178q-57 -88 -151 -88q-63 0 -138 35l-73 35q-78 37 -113 37q-80 0 -84 -107h-94z" />
<glyph unicode="&#xf6;" vert-adv-y="2504" d="M43 551q0 270 125 420q125 152 344 151q217 0 342 -151q127 -156 127 -420q0 -272 -127 -424t-348 -152q-193 0 -311 125q-152 158 -152 451zM358 551q0 -471 154 -471t154 481q0 457 -154 457t-154 -467zM203 1282v211h211v-211h-211zM610 1282v211h209v-211h-209z" />
<glyph unicode="&#xf7;" horiz-adv-x="1165" vert-adv-y="2504" d="M90 518v148h987v-148h-987zM461 25v245h246v-245h-246zM461 913v246h246v-246h-246z" />
<glyph unicode="&#xf8;" vert-adv-y="2504" d="M43 -25l119 164q-119 170 -119 414q0 268 125 418q125 152 344 151q172 0 293 -100l72 100h104l-121 -164q121 -174 121 -411q0 -268 -127 -420q-125 -152 -342 -152q-172 0 -293 101l-72 -101h-104zM358 551q0 -86 2 -137l287 395q-45 209 -135 209q-154 0 -154 -467z M375 291q47 -211 137 -211q154 0 154 465q0 72 -2 123l-2 16z" />
<glyph unicode="&#xf9;" horiz-adv-x="1138" vert-adv-y="2504" d="M6 1006v92h406v-744q0 -119 22 -159q20 -39 90 -39q104 0 181 137v516l-3 98q0 90 -75 97l-21 2v92h393v-807l2 -101q0 -70 23 -81q16 -12 66 -15l18 -2v-92h-403v182q-51 -96 -107 -139q-82 -68 -205 -68q-279 0 -278 347v487l-2 98q0 70 -23 82q-16 10 -65 15z M224 1604h299l239 -322h-133z" />
<glyph unicode="&#xfa;" horiz-adv-x="1138" vert-adv-y="2504" d="M6 1006v92h406v-744q0 -119 22 -159q20 -39 90 -39q104 0 181 137v516l-3 98q0 90 -75 97l-21 2v92h393v-807l2 -101q0 -70 23 -81q16 -12 66 -15l18 -2v-92h-403v182q-51 -96 -107 -139q-82 -68 -205 -68q-279 0 -278 347v487l-2 98q0 70 -23 82q-16 10 -65 15z M355 1282l239 322h299l-407 -322h-131z" />
<glyph unicode="&#xfb;" horiz-adv-x="1138" vert-adv-y="2504" d="M6 1006v92h406v-744q0 -119 22 -159q20 -39 90 -39q104 0 181 137v516l-3 98q0 90 -75 97l-21 2v92h393v-807l2 -101q0 -70 23 -81q16 -12 66 -15l18 -2v-92h-403v182q-51 -96 -107 -139q-82 -68 -205 -68q-279 0 -278 347v487l-2 98q0 70 -23 82q-16 10 -65 15z M192 1282l240 322h248l240 -322h-117l-246 195l-248 -195h-117z" />
<glyph unicode="&#xfc;" horiz-adv-x="1138" vert-adv-y="2504" d="M6 1006v92h406v-744q0 -119 22 -159q20 -39 90 -39q104 0 181 137v516l-3 98q0 90 -75 97l-21 2v92h393v-807l2 -101q0 -70 23 -81q16 -12 66 -15l18 -2v-92h-403v182q-51 -96 -107 -139q-82 -68 -205 -68q-279 0 -278 347v487l-2 98q0 70 -23 82q-16 10 -65 15z M238 1282v211h211v-211h-211zM645 1282v211h209v-211h-209z" />
<glyph unicode="&#xfd;" vert-adv-y="2504" d="M0 1006v92h522v-92l-18 -2h-10h-15h-8h-6q-49 -8 -49 -46l4 -12l2 -12q14 -53 45 -129l160 -412l145 412q45 123 45 160q0 34 -49 36l-29 3l-18 2v92h303v-92l-18 -2h-29q-49 -4 -78 -103l-4 -12q-6 -18 -29 -82l-430 -1202h-286l325 401l-315 799l-43 102q-37 94 -99 97 zM445 1282l239 322h299l-407 -322h-131z" />
<glyph unicode="&#xfe;" horiz-adv-x="1138" vert-adv-y="2504" d="M0 -301h18q66 6 78 29q10 25 10 67l3 101v1392l-3 101q0 70 -22 81q-16 10 -66 15l-18 2v92h403v-664q47 96 101 140q80 68 192 67q178 0 289 -149q111 -151 111 -400q0 -279 -135.5 -438.5t-364.5 -159.5q-82 0 -193 25v-104l3 -101q0 -70 22 -82q16 -10 66 -14h18v-94 h-512v94zM403 166q98 -49 158 -49q219 0 219 409q0 406 -198 406q-102 0 -179 -119v-647z" />
<glyph unicode="&#xff;" vert-adv-y="2504" d="M0 1006v92h522v-92l-18 -2h-10h-15h-8h-6q-49 -8 -49 -46l4 -12l2 -12q14 -53 45 -129l160 -412l145 412q45 123 45 160q0 34 -49 36l-29 3l-18 2v92h303v-92l-18 -2h-29q-49 -4 -78 -103l-4 -12q-6 -18 -29 -82l-430 -1202h-286l325 401l-315 799l-43 102q-37 94 -99 97 zM314 1282v211h211v-211h-211zM721 1282v211h209v-211h-209z" />
<glyph unicode="&#x131;" horiz-adv-x="567" vert-adv-y="2504" d="M41 0v92l16 2q68 6 80 29q10 20 10 67v101v518v98q0 70 -22 82q-16 10 -68 15l-16 2v92h403v-807l2 -101q0 -70 23 -81q16 -10 66 -15l18 -2v-92h-512z" />
<glyph unicode="&#x152;" horiz-adv-x="2048" vert-adv-y="2504" d="M74 739.5q0 352.5 182 565.5t475 213q147 0 307 -80v43h908v-267h-148l-2 21q-2 20 -2 43v8q0 2 -1 5l-1 3q0 52 -12 68q-10 12 -64 16l-67 4h-301v-563h200l99 2q43 0 49 17q6 9 6 36v3q0 14 2 43l2 18h135v-322h-135l-2 19v14v10q0 4 -1 9l-1 4v4q0 53 -60 53l-94 4 h-207v-442l5 -88q6 -76 28 -84q29 -12 76 -13l72 -2h123l114 5q70 0 76 55l4 78l2 16h148v-258h-951v43q-160 -80 -307 -80q-295 0 -475 211q-182 213 -182 565.5zM401 745q0 -684 340 -684q115 0 203 84q55 55 76 162q18 102 18 268v322q0 313 -63 403q-43 59 -105 89 q-61 31 -135 30q-160 0 -246 -178q-88 -177 -88 -496z" />
<glyph unicode="&#x153;" horiz-adv-x="1478" vert-adv-y="2504" d="M43 549q0 266 121 422q119 152 330 151q180 0 299 -118q121 119 282 118q184 0 266 -131t82 -430v-22h-487q2 -184 45 -281q61 -133 201 -133q106 0 241 68v-150q-160 -68 -311 -68q-193 0 -319 119q-121 -119 -299 -119q-211 0 -330 152q-121 156 -121 422zM344 551 q0 -471 152 -471q145 0 145 481q0 457 -147 457q-150 0 -150 -467zM942 633h201v57q0 340 -86 340q-113 0 -115 -397z" />
<glyph unicode="&#x178;" horiz-adv-x="1478" vert-adv-y="2504" d="M2 1389v92h641v-92h-14l-51 -3q-68 0 -68 -32q0 -34 86 -172l250 -414l258 414q84 131 84 168q0 39 -96 39h-23v92h408v-92l-19 -3l-43 -4q-59 -6 -94 -65l-88 -135l-344 -541v-350l6 -101q2 -68 27 -79q20 -10 108 -17l19 -2v-92h-629v92l18 2q115 6 125 29q12 20 12 67 l7 101v348l-336 543l-29 45l-20 35q-20 31 -23 36q-43 80 -98 86l-53 2zM539 1604v211h209v-211h-209zM944 1604v211h211v-211h-211z" />
<glyph unicode="&#x2c6;" horiz-adv-x="681" vert-adv-y="2504" d="M-23 1282l240 322h248l240 -322h-117l-246 195l-248 -195h-117z" />
<glyph unicode="&#x2da;" horiz-adv-x="681" vert-adv-y="2504" d="M342 1751q98 0 165.5 -67.5t67.5 -166t-67 -165.5q-70 -70 -168 -70q-82 0 -150 57q-84 72 -84 179q0 96 70 165q68 68 166 68zM342 1659q-59 0 -100 -41t-41 -100.5t41 -100.5t98 -41q53 0 92 33q51 45 51 109q0 59 -43 100q-41 41 -98 41z" />
<glyph unicode="&#x2dc;" horiz-adv-x="681" vert-adv-y="2504" d="M-8 1282q4 115 45 180q55 86 153 86q68 0 136 -32l73 -37q74 -35 113 -35q83 0 86 104h90q-4 -115 -43 -178q-57 -88 -151 -88q-63 0 -138 35l-73 35q-78 37 -113 37q-80 0 -84 -107h-94z" />
<glyph unicode="&#x2000;" horiz-adv-x="980" vert-adv-y="0" />
<glyph unicode="&#x2001;" horiz-adv-x="1961" vert-adv-y="0" />
<glyph unicode="&#x2002;" horiz-adv-x="980" vert-adv-y="0" />
<glyph unicode="&#x2003;" horiz-adv-x="1961" vert-adv-y="0" />
<glyph unicode="&#x2004;" horiz-adv-x="653" vert-adv-y="0" />
<glyph unicode="&#x2005;" horiz-adv-x="489" vert-adv-y="0" />
<glyph unicode="&#x2006;" horiz-adv-x="325" vert-adv-y="0" />
<glyph unicode="&#x2007;" horiz-adv-x="325" vert-adv-y="0" />
<glyph unicode="&#x2008;" horiz-adv-x="243" vert-adv-y="0" />
<glyph unicode="&#x2009;" horiz-adv-x="391" vert-adv-y="0" />
<glyph unicode="&#x200a;" horiz-adv-x="108" vert-adv-y="0" />
<glyph unicode="&#x2010;" horiz-adv-x="681" vert-adv-y="2504" d="M49 518v148h584v-148h-584z" />
<glyph unicode="&#x2011;" horiz-adv-x="681" vert-adv-y="2504" d="M49 518v148h584v-148h-584z" />
<glyph unicode="&#x2012;" horiz-adv-x="681" vert-adv-y="2504" d="M49 518v148h584v-148h-584z" />
<glyph unicode="&#x2013;" vert-adv-y="2504" d="M74 537v159h876v-159h-876z" />
<glyph unicode="&#x2014;" horiz-adv-x="2048" vert-adv-y="2504" d="M98 537v122h1852v-122h-1852z" />
<glyph unicode="&#x2018;" horiz-adv-x="681" vert-adv-y="2504" d="M168 963v247q0 340 321 369v-92q-125 -12 -124 -172v-33h124v-319h-321z" />
<glyph unicode="&#x2019;" horiz-adv-x="681" vert-adv-y="2504" d="M193 963v92q125 16 124 170l-2 32h-122v322h321v-248q1 -339 -321 -368z" />
<glyph unicode="&#x201a;" horiz-adv-x="681" vert-adv-y="2504" d="M193 0v322h321v-248q0 -342 -321 -371v94q125 16 124 168l-2 35h-122z" />
<glyph unicode="&#x201c;" vert-adv-y="2504" d="M117 987v217q0 334 297 375v-92q-115 -23 -115 -162v-14q0 -16 2 -29h113v-295h-297zM586 987v217q0 334 297 375v-92q-115 -23 -115 -162v-14q0 -16 2 -29h113v-295h-297z" />
<glyph unicode="&#x201d;" vert-adv-y="2504" d="M141 987v92q115 23 115 162v14q0 14 -2 27h-113v297h297v-217q0 -334 -297 -375zM610 987v92q115 23 115 162v14q0 14 -2 27h-113v297h297v-217q0 -334 -297 -375z" />
<glyph unicode="&#x201e;" vert-adv-y="2504" d="M141 0v297h297v-219q0 -334 -297 -375v92q115 23 115 162v14q0 16 -2 29h-113zM610 0v297h297v-219q0 -334 -297 -375v92q115 23 115 162v14q0 16 -2 29h-113z" />
<glyph unicode="&#x2022;" horiz-adv-x="716" vert-adv-y="2504" d="M82 846q0 115 82 194q82 82 196 82q113 0 195 -82t82 -196q0 -117 -82 -197q-84 -80 -201 -80q-98 0 -176 66q-96 84 -96 213z" />
<glyph unicode="&#x2026;" horiz-adv-x="2048" vert-adv-y="2504" d="M229 0v221h224v-221h-224zM913 0v221h222v-221h-222zM1595 0v221h222v-221h-222z" />
<glyph unicode="&#x202f;" horiz-adv-x="391" vert-adv-y="0" />
<glyph unicode="&#x2039;" horiz-adv-x="681" vert-adv-y="2504" d="M68 549l444 438l78 -61l-221 -377l219 -377l-76 -61z" />
<glyph unicode="&#x203a;" horiz-adv-x="681" vert-adv-y="2504" d="M92 172l221 377l-219 377l76 61l444 -438l-444 -438z" />
<glyph unicode="&#x205f;" horiz-adv-x="489" vert-adv-y="0" />
<glyph unicode="&#x20ac;" vert-adv-y="2504" d="M0 555l20 98h74q-4 66 -4 90q0 39 6 97h-96l20 98h86q47 233 125 352q145 227 414 228q111 0 330 -66v-281h-148v21q0 229 -168 229q-137 0 -204 -153q-47 -104 -64 -330h436l-32 -98h-406l-2 -41v-58v-61v-27h346l-33 -98h-309q14 -199 70 -307q84 -162 256 -162 q109 0 244 80v-131q-154 -72 -285 -72q-266 0 -420 199q-109 143 -152 393h-104z" />
<glyph unicode="&#x2122;" horiz-adv-x="2048" vert-adv-y="2504" d="M37 1245v236h840v-236h-107v137h-203v-555h117v-100h-457v100h117v555h-203v-137h-104zM975 727v100h110v555h-110v99h371l163 -412l156 412h358v-99h-116v-555h116v-100h-346v490l-176 -426h-92l-164 389v-453h-270z" />
<glyph unicode="&#xe000;" horiz-adv-x="1100" vert-adv-y="2200" d="M0 1100h1100v-1100h-1100v1100z" />
<glyph unicode="&#xf001;" horiz-adv-x="1138" vert-adv-y="2504" d="M45 0v92l21 2q66 6 77 29q10 20 11 67l2 101v708h-111v99h111v53q0 453 385 453q117 0 227 -48v-247h-125v16l-4 76q-4 53 -14 74q-18 31 -60 30q-115 0 -114 -225v-182h555v-807l2 -101q0 -70 22 -81q16 -10 66 -15l18 -2v-92h-504v92q52 0 74 19q25 18 25 79l2 101v708 h-260v-708l2 -101q0 -63 24 -81q23 -16 72 -17v-92h-504z" />
<glyph unicode="&#xfb01;" horiz-adv-x="1138" vert-adv-y="2504" d="M45 0v92l21 2q66 6 77 29q10 20 11 67l2 101v708h-111v99h111v53q0 453 385 453q117 0 227 -48v-247h-125v16l-4 76q-4 53 -14 74q-18 31 -60 30q-115 0 -114 -225v-182h555v-807l2 -101q0 -70 22 -81q16 -10 66 -15l18 -2v-92h-504v92q52 0 74 19q25 18 25 79l2 101v708 h-260v-708l2 -101q0 -63 24 -81q23 -16 72 -17v-92h-504z" />
<glyph unicode="&#xf002;" horiz-adv-x="1138" vert-adv-y="2504" d="M45 0v92l18 2q68 6 80 29q10 20 11 67v101v708h-109v99h109l2 53q2 162 43 254q88 199 346 199q88 0 168 -25h293v-1288l2 -101q0 -70 22 -81q16 -10 66 -15l18 -2v-92h-504v92q52 0 74 19q25 18 25 79l2 101v1143q-66 72 -133 71q-127 0 -127 -225v-182h108v-99h-108 v-708l2 -101q0 -63 24 -81q23 -16 72 -17v-92h-504z" />
<glyph unicode="&#xfb02;" horiz-adv-x="1138" vert-adv-y="2504" d="M45 0v92l18 2q68 6 80 29q10 20 11 67v101v708h-109v99h109l2 53q2 162 43 254q88 199 346 199q88 0 168 -25h293v-1288l2 -101q0 -70 22 -81q16 -10 66 -15l18 -2v-92h-504v92q52 0 74 19q25 18 25 79l2 101v1143q-66 72 -133 71q-127 0 -127 -225v-182h108v-99h-108 v-708l2 -101q0 -63 24 -81q23 -16 72 -17v-92h-504z" />
<glyph unicode="&#xfb03;" horiz-adv-x="1931" vert-adv-y="2504" d="M1405 0v92l16 2q68 6 80 29q10 20 10 67v101v518v98q0 70 -22 82q-16 10 -68 15l-16 2v92h403v-807l2 -101q0 -70 23 -81q16 -10 66 -15l18 -2v-92h-512zM1511 1282v297h297v-297h-297zM719 0v92l18 2q66 6 78 29q10 20 10 67l2 101v708h-108v99h108v45q0 461 363 461 q125 0 231 -64v-231h-129l-2 16l-4 61q-10 121 -80 121q-57 0 -71 -73q-10 -49 -11 -193v-143h191v-99h-191v-708l2 -101q0 -74 27 -86q20 -10 84 -10l45 -2v-92h-563zM37 0v92l18 2q66 6 78 29q10 20 10 67l2 101v708h-108v99h108v45q0 461 363 461q125 0 231 -64v-231 h-129l-2 16l-4 61q-10 121 -80 121q-57 0 -71 -73q-10 -49 -11 -193v-143h191v-99h-191v-708l2 -101q0 -74 27 -86q20 -10 84 -10l45 -2v-92h-563z" />
<glyph unicode="&#xfb04;" horiz-adv-x="1931" vert-adv-y="2504" d="M1405 0v92l16 2q68 6 80 29q10 20 10 67v101v997v101q0 66 -20.5 80t-69.5 16l-16 2v92h403v-1288l2 -101q0 -70 23 -81q16 -10 66 -15l18 -2v-92h-512zM719 0v92l18 2q66 6 78 29q10 20 10 67l2 101v708h-108v99h108v45q0 461 363 461q125 0 231 -64v-231h-129l-2 16 l-4 61q-10 121 -80 121q-57 0 -71 -73q-10 -49 -11 -193v-143h191v-99h-191v-708l2 -101q0 -74 27 -86q20 -10 84 -10l45 -2v-92h-563zM37 0v92l18 2q66 6 78 29q10 20 10 67l2 101v708h-108v99h108v45q0 461 363 461q125 0 231 -64v-231h-129l-2 16l-4 61q-10 121 -80 121 q-57 0 -71 -73q-10 -49 -11 -193v-143h191v-99h-191v-708l2 -101q0 -74 27 -86q20 -10 84 -10l45 -2v-92h-563z" />
</font>
</defs>
</svg>
