<?xml version="1.0" standalone="no"?>
<!DOCTYPE svg PUBLIC "-//W3C//DTD SVG 1.1//EN" "http://www.w3.org/Graphics/SVG/1.1/DTD/svg11.dtd" >
<svg xmlns="http://www.w3.org/2000/svg">
<metadata>
This is a custom SVG webfont generated by Font Squirrel.
Copyright   : Copyright c 2001 by Bigelow  Holmes Inc Instructions copyright c 2001 by URW
Designer    : Kris Holmes and Charles Bigelow
Foundry     : Bigelow  Holmes Inc
Foundry URL : httpwwwurwppde
</metadata>
<defs>
<font id="webfontatlHOtpC" horiz-adv-x="1024" vert-adv-y="2048" >
<font-face units-per-em="2048" ascent="1638" descent="-410" />
<missing-glyph horiz-adv-x="512" />
<glyph unicode=" " horiz-adv-x="512" vert-adv-y="0" />
<glyph unicode="!" horiz-adv-x="681" vert-adv-y="2504" d="M193 0l49 248h297l-50 -248h-296zM379 420l51 764l59 297h295l-59 -297l-254 -764h-92z" />
<glyph unicode="&#x22;" horiz-adv-x="1136" vert-adv-y="2504" d="M494 987l20 592h297l-217 -592h-100zM938 987l20 592h295l-217 -592h-98z" />
<glyph unicode="#" vert-adv-y="2504" d="M78 0l198 432h-167l49 123h174l164 371h-195l53 123h199l195 432h126l-194 -432h238l196 432h127l-197 -432h166l-49 -123h-172l-164 -371h191l-47 -123h-199l-197 -432h-127l197 432h-240l-196 -432h-129zM459 555h239l164 371h-237z" />
<glyph unicode="$" vert-adv-y="2504" d="M86 74l57 284h136l-3 -18l-10 -61q-4 -37 -4 -43q0 -111 225 -134l109 545l-74 64q-131 113 -166 163q-37 51 -37 134q0 219 189 370q121 100 285 103l32 159h93l-31 -159q164 -8 305 -68l-55 -278h-136l3 18l10 70q2 14 2 37q0 113 -148 131l-102 -514l96 -76 q184 -144 185 -314q0 -217 -177 -362q-119 -100 -311 -125l-33 -160h-92l33 160q-218 13 -381 74zM580 109q80 14 133 79q66 88 65 213q0 104 -100 191zM586 1094q0 -82 92 -158l90 448q-72 -18 -119 -84q-63 -87 -63 -206z" />
<glyph unicode="%" horiz-adv-x="2048" vert-adv-y="2504" d="M283 -37l1581 1555h194l-1589 -1555h-186zM391 999q0 213 121 347q119 135 324 135q289 0 288 -264q0 -213 -123 -347q-121 -133 -325 -133q-285 0 -285 262zM606 948q0 -117 94 -117q106 0 156 150q23 70 33 125q18 82 18 154q0 125 -96 124q-82 0 -137 -116 q-31 -63 -45 -138q-23 -108 -23 -182zM1221 262q0 213 120 346q119 133 322 133q289 0 289 -262q0 -217 -121 -346q-121 -133 -328 -133q-282 0 -282 262zM1436 211q0 -117 92 -117q106 0 155 150q16 47 33 125q20 90 21 153q0 125 -99 125q-84 0 -139 -117 q-20 -43 -43 -137q-20 -96 -20 -182z" />
<glyph unicode="&#x26;" horiz-adv-x="1705" vert-adv-y="2504" d="M174 356q0 227 178 375q80 63 170 105q57 25 148 53q-78 160 -78 246q0 170 137 276.5t375 106.5q369 0 369 -252q0 -156 -156 -275q-113 -86 -297 -137q106 -215 231 -426l54 -92q137 170 137 330q0 59 -74 63q-2 0 -8 1t-10 1l-9 2h-8h-16l16 94h482l-19 -94h-18 l-43 -2q-55 0 -76 -31q-16 -20 -35 -82q-49 -168 -266 -352q86 -137 110 -149q33 -16 140 -23l16 -2l-16 -92h-430l-62 84q-205 -121 -452 -121q-231 0 -360.5 104.5t-129.5 288.5zM469 416q0 -317 342 -318q119 0 242 56q-162 262 -348 653q-102 -47 -158 -121 q-78 -108 -78 -270zM885 1206q0 -96 96 -278q254 168 254 377q0 121 -139 120q-109 0 -160 -59q-51 -54 -51 -160z" />
<glyph unicode="'" horiz-adv-x="567" vert-adv-y="2504" d="M428 963l12 616h322l-236 -616h-98z" />
<glyph unicode="(" horiz-adv-x="681" vert-adv-y="2504" d="M188 422q0 408 281 780q182 244 465 389l-19 -92q-117 -92 -176 -184q-78 -117 -157 -379q-129 -424 -129 -766q0 -158 47 -268q25 -59 71 -117l-16 -92q-164 104 -252 258q-115 205 -115 471z" />
<glyph unicode=")" horiz-adv-x="681" vert-adv-y="2504" d="M18 -307l21 92q113 90 174 184q82 123 160 379q127 414 127 764q0 166 -45 270q-23 55 -74 117l18 92q158 -98 250 -260q115 -205 115 -471q0 -408 -281 -780q-180 -240 -465 -387z" />
<glyph unicode="*" vert-adv-y="2504" d="M342 1112l113 213l221 -154q-45 -39 -45 -88zM373 856l260 197q20 -45 61 -54l-172 -272zM698 1481h222l-123 -291q-25 10 -43.5 10t-48.5 -10zM727 999q43 10 84 54l180 -197l-203 -129zM815 1169l287 154l24 -213l-299 -27q6 23 7 31q-1 27 -19 55z" />
<glyph unicode="+" horiz-adv-x="1165" vert-adv-y="2504" d="M195 518l28 148h420l84 419h147l-81 -419h417l-28 -148h-420l-84 -420h-148l84 420h-419z" />
<glyph unicode="," horiz-adv-x="512" vert-adv-y="2504" d="M37 -297l16 92q129 0 164 205h-123l66 322h319l-49 -248q-71 -344 -393 -371z" />
<glyph unicode="-" horiz-adv-x="681" vert-adv-y="2504" d="M154 518l28 148h584l-31 -148h-581z" />
<glyph unicode="." horiz-adv-x="512" vert-adv-y="2504" d="M96 0l64 322h321l-63 -322h-322z" />
<glyph unicode="/" horiz-adv-x="567" vert-adv-y="2504" d="M-119 -297l889 1778h156l-889 -1778h-156z" />
<glyph unicode="0" vert-adv-y="2504" d="M166 432q0 494 235 834q176 252 410 252q342 0 342 -463q0 -223 -63 -453q-63 -231 -172 -389q-172 -250 -426 -250q-326 0 -326 469zM432 186q0 -131 94 -131q68 0 111 74q39 70 84 229q74 266 117 506q49 266 49 428q0 133 -92 133q-68 0 -115 -77q-80 -137 -168 -609 l-47 -258q-33 -184 -33 -295z" />
<glyph unicode="1" vert-adv-y="2504" d="M119 0l18 92l19 2l116 10q76 6 93 15q18 12 36 55q27 70 35 117l164 825l14 101l9 34q-10 35 -58 35q-35 0 -119 -16l-75 -15l18 99l584 139l-242 -1202q-16 -76 -16 -135q0 -31 35 -43q23 -8 77 -11l107 -8l18 -2l-18 -92h-815z" />
<glyph unicode="2" vert-adv-y="2504" d="M39 0l18 98q96 174 262 334l119 113l68 63l166 162q209 203 209 453q0 197 -187 196q-190 0 -225 -157l-18 -84l-7 -19h-135l56 277q246 82 448 82q381 0 381 -299q0 -166 -104 -287q-76 -86 -279 -223q-121 -80 -168 -119l-86 -76q-145 -127 -182 -266h626l-49 -248 h-913z" />
<glyph unicode="3" vert-adv-y="2504" d="M78 16l55 281h135l-2 -18l-10 -66q-2 -18 -2 -49q0 -109 156 -109q143 0 241 125q98 127 99 299q0 260 -291 260h-103l21 92h84q184 0 291 107q106 109 106 293q0 195 -176 194q-160 0 -195 -139l-20 -90l-6 -18h-142l56 274q221 66 385 66q397 0 397 -285 q0 -170 -147 -299q-100 -88 -267 -137q100 -25 150 -52q160 -90 160 -278q0 -215 -174 -358q-172 -145 -445 -146q-198 0 -356 53z" />
<glyph unicode="4" vert-adv-y="2504" d="M104 401l33 166l785 932h217l-178 -889h149l-43 -209h-147l-23 -110l-14 -101l-9 -34q6 -55 101 -62l18 -2l-18 -92h-543l19 92l18 2q113 6 127 27q16 20 29 69l24 101l23 110h-568zM297 610h418l131 654z" />
<glyph unicode="5" vert-adv-y="2504" d="M119 10l53 275h137l-2 -21l-8 -59q-8 -51 -8 -68q0 -82 121 -82q125 0 211 138q86 139 86 321q0 279 -291 279q-53 0 -117 -7l139 695h758l-45 -230h-637l-98 -364l78 2q223 2 364 -76q164 -92 164 -307q0 -223 -182.5 -383t-431.5 -160q-103 0 -291 47z" />
<glyph unicode="6" vert-adv-y="2504" d="M162 436q0 203 74 426q72 225 190 377q213 279 514 279q147 0 260 -60l-53 -266h-135l2 16l4 23l2 20q3 22 6 37q6 37 6 64q0 74 -110 73q-147 0 -269 -225q-86 -158 -135 -418q147 172 305 172q270 0 271 -317q0 -268 -174 -469q-174 -205 -400 -205q-166 0 -262 127 t-96 346zM440 279q0 -223 107 -224q88 0 158 160q86 190 86 426q0 188 -99 188q-96 0 -174 -170q-78 -171 -78 -380z" />
<glyph unicode="7" vert-adv-y="2504" d="M147 0q82 223 224 420q131 184 528 641l152 174h-721l49 246h895l-39 -189q-580 -584 -766 -1292h-322z" />
<glyph unicode="8" vert-adv-y="2504" d="M121 264q0 188 143 334q88 88 256 178l-35 37q-125 133 -125 268q0 184 140 312q137 125 348 125q313 0 313 -258q0 -160 -129 -283q-80 -78 -225 -150l18 -18q8 -8 14.5 -15.5t12.5 -13.5q102 -102 158 -178q55 -78 55 -170q0 -190 -168 -329.5t-395 -139.5 q-174 0 -279 80q-102 78 -102 221zM397 248q0 -193 160 -193q98 0 164 90q68 89 67 209q0 94 -75 193l-82 104l-49 72l-15 -18q-170 -207 -170 -457zM625 1155q0 -98 96 -225l29 -39q162 176 161 395q0 139 -104 139q-78 0 -131 -79q-51 -78 -51 -191z" />
<glyph unicode="9" vert-adv-y="2504" d="M123 23l51 268h137l-2 -21l-4 -20q-4 -29 -6 -41v-6l-2 -13q-6 -43 -6 -63q0 -72 110 -72q147 0 269 226q84 158 135 415q-152 -170 -305 -170q-270 0 -271 318q0 268 174 469q176 205 400 205q166 0 262 -127q94 -125 94 -347q0 -209 -72 -426q-68 -215 -190 -376 q-213 -279 -514 -279q-147 1 -260 60zM530 838q0 -186 101 -187q96 0 174 170q78 172 78 381q0 223 -109 223q-86 0 -158 -159q-86 -190 -86 -428z" />
<glyph unicode=":" horiz-adv-x="681" vert-adv-y="2504" d="M193 0l59 297h297l-60 -297h-296zM352 803l62 295h295l-60 -295h-297z" />
<glyph unicode=";" horiz-adv-x="681" vert-adv-y="2504" d="M133 -297l19 92q137 20 151 205h-110l59 297h297l-43 -219q-68 -332 -373 -375zM352 803l62 295h295l-60 -295h-297z" />
<glyph unicode="&#x3c;" horiz-adv-x="1165" vert-adv-y="2504" d="M209 592l1085 493l-32 -165l-719 -326v-2l587 -328l-32 -166z" />
<glyph unicode="=" horiz-adv-x="1165" vert-adv-y="2504" d="M158 334l28 147h988l-29 -147h-987zM231 702l29 150h987l-28 -150h-988z" />
<glyph unicode="&#x3e;" horiz-adv-x="1165" vert-adv-y="2504" d="M111 98l32 166l719 328v2l-588 326l33 165l887 -493z" />
<glyph unicode="?" vert-adv-y="2504" d="M279 0l51 248h295l-50 -248h-296zM299 1178l55 276q203 63 410 64q206 0 326 -74q117 -74 116 -205q0 -115 -96 -217q-49 -51 -135 -107l-25 -18q-31 -18 -61 -41l-53 -39q-102 -74 -146 -262l-26 -117l-5 -18h-297l5 16q33 164 211 297l75 55q231 168 232 416 q0 221 -203 221q-193 0 -225 -149l-17 -80l-6 -18h-135z" />
<glyph unicode="@" horiz-adv-x="1904" vert-adv-y="2504" d="M279 469q0 301 282 623q178 205 404 313q227 113 460 113q236 0 392 -144q154 -141 153 -360q0 -272 -207 -496q-203 -221 -460 -221q-143 0 -144 82q0 59 105 250h-39q-287 -332 -459 -332q-133 0 -133 156q0 190 170 411q233 307 489 307q66 0 156 -32l6 -2q2 0 10 -4 h4h129l-208 -523q-39 -96 -39 -145q0 -55 67 -55q152 0 305.5 194.5t153.5 390.5q0 188 -133 310q-137 121 -350 120q-434 0 -768 -387q-254 -293 -254 -569q0 -186 123 -299q127 -115 327 -115q147 0 357 78l14 -88q-209 -82 -375 -82q-246 0 -391 137q-147 136 -147 369z M821 524q0 -80 64 -80q127 0 397 347l96 233q-68 59 -161 59q-135 0 -263 -194q-133 -205 -133 -365z" />
<glyph unicode="A" horiz-adv-x="1478" vert-adv-y="2504" d="M0 0l18 92l19 2q82 6 139 96l68 103l745 1200h105l270 -1202q39 -186 94 -195l27 -2l12 -2l-18 -92h-531l19 92l18 2l37 2q51 2 51 51q0 27 -10 76l-16 70l-35 158h-549l-101 -160q-86 -138 -86 -166q0 -27 43 -29l27 -2l19 -2l-21 -92h-344zM524 549h465l-121 549z" />
<glyph unicode="B" horiz-adv-x="1363" vert-adv-y="2504" d="M43 0l18 92l19 2q113 6 127 27q16 20 29 69l24 101l180 901l17 96l6 35q-6 55 -123 63l-18 3l18 92h747q371 0 371 -273q0 -174 -158 -301q-98 -76 -276 -139q137 -31 211 -80q131 -86 131 -246q0 -151 -111 -276q-80 -92 -184 -129t-276 -37h-752zM545 184q0 -49 41 -63 q35 -10 100 -10q166 0 266 96q100 94 101 250q0 117 -80 184.5t-211 67.5h-121l-84 -420q-12 -65 -12 -105zM662 809h118q162 0 262 106q102 104 103 269q0 199 -248 198h-121z" />
<glyph unicode="C" horiz-adv-x="1478" vert-adv-y="2504" d="M211 551q0 367 227 647q262 319 752 320q223 0 475 -66l-61 -305h-172l4 18l8 60l2 16q4 33 4 35q0 57 -86 100t-207 43q-276 0 -446 -266q-80 -127 -127 -305q-51 -184 -52 -350q0 -412 439 -412q199 0 469 111l-29 -140q-256 -94 -528 -94q-672 0 -672 588z" />
<glyph unicode="D" horiz-adv-x="1478" vert-adv-y="2504" d="M43 0l18 92l19 2q68 4 82 25q14 16 26 71l21 101l180 901l19 96q6 35 6 45q0 51 -74 53l-21 3l21 92h432h76l90 2l76 2h15q200 0 335 -78q215 -125 215 -453q0 -313 -186 -585q-252 -369 -691 -369h-659zM506 186q0 -55 55 -69q43 -12 121 -13q246 0 414 279 q160 270 159 600q0 199 -110 297q-113 102 -346 102h-64l-219 -1091q-10 -46 -10 -105z" />
<glyph unicode="E" horiz-adv-x="1363" vert-adv-y="2504" d="M55 0l19 92l18 2q113 6 127 27q20 23 31 69l24 101l181 901l14 96l6 35q-2 53 -125 63l-16 3l16 92h1211l-54 -267h-174l4 21l4 25q0 6 1 11t1 9t1.5 7t1.5 5v2q1 4 2 10q1 4 2 5q0 2 1 5l1 3q2 4 2 6q0 59 -135 59h-418l-113 -563h305l99 2q43 0 53 15q4 4 12 38 q8 29 12 46l5 18h131l-66 -322h-129l2 19q0 4 2 10v10q0 2 1 7.5t1 9.5l2 4q2 10 2 29q0 23 -51 24l-92 4h-305l-90 -442q-16 -86 -17 -133q0 -31 31 -43q25 -8 59 -9l82 -2h224l112 5q70 0 88 55l25 94l4 21h174l-57 -279h-1252z" />
<glyph unicode="F" horiz-adv-x="1249" vert-adv-y="2504" d="M55 0l19 92l18 2q113 6 127 27q20 23 31 69l24 101l181 901l14 96l6 35q-2 53 -125 63l-16 3l16 92h1125l-58 -279h-172l2 19q6 57 10 65q2 4 7 17q4 10 4 20q0 59 -138 59h-329l-119 -600h223l99 2q39 0 49 11q8 10 12 28q1 4 3 10q1 4 1 5q4 12 12 45l4 18h129 l-63 -321h-129l2 18v10q8 53 8 60q0 23 -51 24l-92 4h-225l-82 -405q-16 -86 -17 -137q0 -33 31 -45q18 -8 47 -11l66 -4l18 -2l-18 -92h-654z" />
<glyph unicode="G" horiz-adv-x="1591" vert-adv-y="2504" d="M211 551q0 365 227 647q141 172 318 244q186 76 456 76q238 0 490 -66l-57 -293h-175l5 19l8 57q6 35 6 45q0 59 -90 100q-90 39 -232 39q-371 0 -530 -403q-49 -123 -80 -281q-29 -154 -29 -272q0 -401 420 -402q80 0 174 27l56 274l14 99l6 35q-6 53 -123 61l-18 2 l18 92h629l-18 -92l-19 -2q-115 -6 -127 -25q-16 -18 -29 -71l-24 -99l-68 -331q-322 -68 -549 -68q-659 0 -659 588z" />
<glyph unicode="H" horiz-adv-x="1591" vert-adv-y="2504" d="M43 0l18 92l19 2q113 6 127 27q16 20 29 69l24 101l180 901l17 96l6 35q-6 55 -123 63l-18 3l18 92h629l-19 -92l-18 -3q-119 -10 -127 -26q-18 -23 -31 -72l-24 -96l-72 -361h569l74 361l14 96l6 35q-2 53 -124 63l-19 3l21 92h628l-18 -92l-19 -3q-121 -10 -129 -26 q-14 -16 -26 -72l-27 -96l-180 -901l-14 -101l-7 -32q6 -55 123 -64l19 -2l-19 -92h-628l18 92l18 2q113 6 127 27q16 16 29 69l27 101l86 434h-570l-88 -434l-14 -101l-6 -32q2 -53 123 -64l18 -2l-18 -92h-629z" />
<glyph unicode="I" horiz-adv-x="796" vert-adv-y="2504" d="M84 0l18 92l19 2q113 6 127 27q16 20 28 69l25 101l180 901l17 96l6 35q-6 55 -123 63l-19 3l19 92h629l-19 -92l-18 -3q-119 -10 -127 -26q-18 -23 -31 -72l-24 -96l-181 -901l-14 -101l-6 -32q2 -53 123 -64l18 -2l-18 -92h-629z" />
<glyph unicode="J" vert-adv-y="2504" d="M-55 -246l57 289h186l-8 -43l-8 -55q-4 -37 -4 -49q0 -92 125 -93q117 0 164 97q41 80 69 227l211 1065l17 96l6 35q-6 55 -123 63l-19 3l19 92h629l-19 -92l-18 -3q-119 -10 -127 -26q-16 -20 -31 -72l-24 -96l-193 -961q-55 -281 -190 -403q-137 -125 -383 -125 q-131 0 -336 51z" />
<glyph unicode="K" horiz-adv-x="1591" vert-adv-y="2504" d="M43 0l18 92l19 2q113 6 127 27q16 20 29 69l24 101l180 901l17 96l6 35q-6 55 -123 63l-18 3l18 92h592l-19 -92l-18 -3q-94 -6 -107 -26q-14 -16 -26 -72l-25 -96l-78 -395l570 395q199 137 198 172q0 20 -51 22l-45 3h-16l18 92h451l-19 -92l-18 -3l-41 -2 q-65 0 -184 -92l-41 -28l-103 -74l-469 -324l447 -579l96 -119q55 -68 141 -74l19 -2l-19 -92h-714l18 92h18l46 2q90 4 90 43q0 43 -86 154l-324 422l-84 -422l-14 -101l-6 -34q6 -55 98 -62l18 -2l-18 -92h-592z" />
<glyph unicode="L" horiz-adv-x="1363" vert-adv-y="2504" d="M55 0l19 92l18 2q113 6 127 27q20 23 31 69l24 101l181 901l14 96l6 35q-2 53 -125 63l-16 3l16 92h631l-18 -92l-21 -3q-119 -10 -127 -26q-16 -20 -29 -72l-24 -96l-180 -901q-16 -86 -17 -135q0 -47 88 -50l90 -2h224l86 5q84 4 98 20q18 25 29 78l26 121l8 43h197 l-74 -371h-1282z" />
<glyph unicode="M" horiz-adv-x="1931" vert-adv-y="2504" d="M55 0l19 92l18 2q113 6 127 27q16 20 29 69l24 101l181 901l16 96l4 35q-2 53 -123 63l-18 3l18 92h500l240 -959l659 959h424l-19 -92l-18 -3q-121 -10 -129 -26q-16 -20 -29 -72l-24 -96l-180 -901l-15 -101l-6 -32q2 -53 123 -64l18 -2l-18 -92h-580l19 92l18 2 q94 6 107 27q14 20 26 69l25 101l174 876l-690 -1001h-98l-269 1065l-186 -940l-16 -101q-6 -31 -9 -38q2 -6 4 -13.5t5 -11.5l2 -4q29 -27 92 -29l16 -2l-16 -92h-445z" />
<glyph unicode="N" horiz-adv-x="1478" vert-adv-y="2504" d="M43 0l20 92l19 2q113 6 127 27q16 20 29 69l24 101l180 901l15 96l8 35q-6 55 -125 63l-18 3l18 92h385l449 -1100l161 811l15 96l8 35q-6 55 -125 63l-19 3l19 92h467l-19 -92l-18 -3q-119 -10 -127 -26q-16 -20 -29 -72l-24 -96l-244 -1212h-217l-455 1101l-157 -790 l-15 -101l-8 -32q2 -53 125 -64l18 -2l-18 -92h-469z" />
<glyph unicode="O" horiz-adv-x="1591" vert-adv-y="2504" d="M207 545q0 403 260 688t635 285q279 0 436.5 -152t157.5 -430q0 -410 -262 -690q-264 -283 -652 -283q-240 0 -389 125q-186 154 -186 457zM524 465q0 -403 287 -404q213 0 365 228q96 145 149 344q51 180 51 381q0 406 -295 405q-233 0 -391 -282q-166 -301 -166 -672z " />
<glyph unicode="P" horiz-adv-x="1249" vert-adv-y="2504" d="M43 0l18 92l19 2q113 6 127 27q16 20 29 69l24 101l180 901l17 96l6 35q-6 55 -123 63l-18 3l18 92h457l90 2l100 2l84 2h16q138 0 230 -51q123 -72 123 -246q0 -203 -137 -365q-184 -219 -590 -219h-92l-64 -315q-16 -86 -16 -137q0 -49 77 -56l66 -4l18 -2l-18 -92 h-641zM639 705h59q190 0 308 133q119 135 118 333q0 211 -241 211h-107z" />
<glyph unicode="Q" horiz-adv-x="1591" vert-adv-y="2504" d="M207 543q0 406 260 690q258 285 637 285q276 0 434 -152t158 -428q0 -356 -209 -629q-145 -188 -381 -293q254 -104 520 -129l-229 -190q-197 76 -408 254l-31 26q-94 -14 -172 -14q-270 0 -424 154q-155 156 -155 426zM524 465q0 -403 287 -404q213 0 365 228 q94 141 151 344q49 184 49 381q0 406 -295 405q-233 0 -391 -282q-166 -301 -166 -672z" />
<glyph unicode="R" horiz-adv-x="1478" vert-adv-y="2504" d="M43 0l18 92l19 2q113 6 127 27q16 20 29 69l24 101l180 901l17 96l6 35q-6 55 -123 63l-18 3l18 92h430l92 2l90 2l92 2h18q156 0 251 -55q125 -72 125 -238q0 -186 -140 -342q-90 -102 -239 -162l209 -403l57 -103q45 -82 105 -88l47 -2l18 -2l-18 -92h-441l-280 647 h-127l-72 -356l-14 -101q0 -6 -3 -18l-5 -20q2 -6 4 -13.5t4 -11.5l2 -4q29 -27 90 -29l18 -2l-18 -92h-592zM649 748h53q182 0 301 124.5t119 309.5q0 201 -235 200h-111z" />
<glyph unicode="S" horiz-adv-x="1138" vert-adv-y="2504" d="M104 18l62 310h160l-4 -25l-11 -65q-2 -8 -2 -35q0 -61 64 -101q66 -41 155 -41q135 0 230 97q96 96 96 227q0 115 -162 215l-88 53q-291 180 -291 385q0 195 170 336q172 143 414 144q162 0 383 -66l-59 -299h-160l2 18l10 68v18l2 11v8v4q0 139 -166 139 q-119 0 -204 -86q-86 -84 -87 -194q0 -100 162 -207l88 -60q178 -117 234 -190q63 -82 63 -197q0 -221 -186 -370q-188 -152 -469 -152q-176 0 -406 55z" />
<glyph unicode="T" horiz-adv-x="1363" vert-adv-y="2504" d="M274 1171l64 310h1284l-61 -310h-160l6 31l12 92q4 37 4 43q0 45 -129 45h-180l-217 -1091q-16 -86 -16 -137q0 -33 28 -45q18 -8 47 -11l68 -4l18 -2l-18 -92h-680l18 92l21 2l68 4q76 6 98 54q16 29 39 139l219 1091h-180q-109 0 -129 -20q-20 -16 -33 -68 q-10 -43 -16 -73q-8 -29 -9 -29l-4 -21h-162z" />
<glyph unicode="U" horiz-adv-x="1478" vert-adv-y="2504" d="M266 348q0 78 27 215l123 621l14 98l6 35q-2 53 -123 63l-18 2l20 99h629l-18 -92l-19 -3q-119 -10 -127 -26q-16 -20 -28 -72l-25 -96l-129 -641q-33 -164 -33 -254q0 -238 248 -238q182 0 291 121q111 123 162 379l125 633l16 96l6 35q-6 55 -125 63l-16 3l16 92h467 l-18 -92l-21 -3q-113 -8 -123 -24q-16 -18 -28 -74l-27 -96l-121 -608q-66 -324 -223 -469q-164 -152 -442 -152q-227 0 -355 103q-131 100 -131 282z" />
<glyph unicode="V" horiz-adv-x="1478" vert-adv-y="2504" d="M279 1389l18 92h616l-18 -92l-21 -3h-6h-14q-4 0 -9 -1t-7 -1h-9q-80 0 -79 -57q0 -27 22 -133l170 -764l467 764q2 4 41 76l6 12l9 18.5t8 12.5l8 14q0 2 2 4q8 14 8 27q0 29 -53 28h-43h-4h-11l-18 3l18 92h396l-21 -92l-18 -3q-72 -6 -84 -18q-20 -20 -41 -53 l-78 -121l-739 -1212h-101l-274 1212l-25 104q-16 68 -33 74q-23 12 -65 14z" />
<glyph unicode="W" horiz-adv-x="2048" vert-adv-y="2504" d="M291 1389l18 92h592l-18 -92h-19l-53 -3q-59 0 -70 -22q-10 -25 -10 -68q0 -51 6 -106l72 -676l504 948h127l153 -981l359 705l33 65l6 17l10 18q6 12 10 25l4 12q10 20 10 33q0 31 -55 30l-47 3h-16l16 92h408l-19 -92l-18 -3h-17q-12 -2 -28 -2q-45 0 -66 -16 q-16 -16 -37 -57l-65 -125l-623 -1204h-94l-166 1026l-547 -1026h-96l-123 1208l-12 110q-6 66 -29 72q-18 8 -84 14z" />
<glyph unicode="X" horiz-adv-x="1478" vert-adv-y="2504" d="M20 0l21 92l16 2q92 6 111 23q25 18 65 65l97 111l389 446l-180 447l-43 98q-31 76 -56 88q-18 8 -80 14l-18 3l18 92h635l-18 -92h-19l-51 -3q-70 0 -69 -38q0 -41 49 -162l123 -309l288 311q133 145 134 174q0 25 -50 24l-41 3h-18l18 92h412l-16 -92l-4 -1l-4 -2h-11 l-12 3q-2 0 -6 -3l-4 -1q-4 -1 -11.5 -2t-13.5 -1q-47 -6 -61 -16q-12 -8 -47 -43l-127 -137l-365 -398l203 -495l57 -127q31 -68 80 -70l41 -2l18 -2l-18 -92h-635l19 92h18l53 2q72 0 72 37q0 35 -51 162l-144 358l-315 -358q-125 -143 -125 -174q0 -25 51 -25l45 -2h19 l-19 -92h-420z" />
<glyph unicode="Y" horiz-adv-x="1478" vert-adv-y="2504" d="M281 1389l18 92h641l-18 -92h-17l-51 -3q-74 0 -74 -38q0 -43 51 -166l168 -414l340 414q119 145 119 176t-90 31h-20l18 92h406l-19 -92l-18 -3l-43 -4q-61 -6 -109 -65l-115 -135l-450 -541l-72 -350l-12 -101l-8 -32q2 -53 125 -64l16 -2l-18 -92h-629l18 92l21 2 q111 6 125 27q20 23 30 69l25 101l70 348l-228 543l-18 45l-14 33q-6 12 -15 38q-29 84 -82 86l-53 2z" />
<glyph unicode="Z" horiz-adv-x="1363" vert-adv-y="2504" d="M90 0l23 111l1067 1257h-435q-96 0 -116 -12q-27 -16 -39 -72l-21 -96l-10 -41h-184l67 334h1096l-20 -113l-1061 -1257h432q135 0 164 12q29 14 43 76l20 82l10 47h187l-68 -328h-1155z" />
<glyph unicode="[" horiz-adv-x="681" vert-adv-y="2504" d="M84 -297l375 1876h461l-19 -92h-209l-338 -1692h209l-18 -92h-461z" />
<glyph unicode="\" horiz-adv-x="567" vert-adv-y="2504" d="M238 1481h153l178 -1778h-153z" />
<glyph unicode="]" horiz-adv-x="681" vert-adv-y="2504" d="M18 -297l19 92h209l338 1692h-209l18 92h461l-375 -1876h-461z" />
<glyph unicode="^" horiz-adv-x="1189" vert-adv-y="2504" d="M268 592l623 889l266 -889h-166l-166 557l-391 -557h-166z" />
<glyph unicode="_" vert-adv-y="2504" d="M-31 -147l31 147h1024l-31 -147h-1024z" />
<glyph unicode="`" horiz-adv-x="681" vert-adv-y="2504" d="M391 1604h299l176 -322h-131z" />
<glyph unicode="a" vert-adv-y="2504" d="M109 217q0 203 157 318q156 119 432 118h50l26 133q20 102 21 144q0 100 -107 100q-135 0 -166 -133l-14 -63l-6 -21h-185l43 223q203 86 390 86q330 0 329 -243q0 -47 -8 -88l-96 -484l-14 -86l-11 -59q-2 -8 -2 -23q0 -51 51 -51q18 0 31 4l-18 -96q-74 -20 -129 -21 q-145 0 -199 152q-162 -152 -319 -152q-117 0 -187 66q-69 63 -69 176zM414 256q0 -123 100 -123q55 0 125 53l18 15l72 362h-39q-125 0 -201 -86q-75 -84 -75 -221z" />
<glyph unicode="b" horiz-adv-x="1138" vert-adv-y="2504" d="M106 -12l261 1300l18 101q6 33 6 43q0 47 -76 53l-18 2l18 92h406l-133 -664q68 96 125 140q92 68 207 67q309 0 309 -381q0 -319 -187 -542q-184 -223 -452 -224q-78 0 -187 25zM438 166q89 -49 148 -49q131 0 227 182q98 184 98 426q0 207 -143 207q-100 0 -201 -119z " />
<glyph unicode="c" horiz-adv-x="907" vert-adv-y="2504" d="M141 385q0 309 187 522q188 215 460 215q135 0 271 -49l-58 -282h-167l4 18l10 74v16v6q0 125 -88 125q-117 0 -203 -199q-106 -244 -106 -479q0 -231 198 -231q100 0 232 53l-29 -147q-172 -51 -293 -52q-197 0 -307.5 104.5t-110.5 305.5z" />
<glyph unicode="d" horiz-adv-x="1138" vert-adv-y="2504" d="M133 356q0 319 184 545q184 221 453 221q78 0 186 -24l37 190l17 101l6 34q-6 52 -123 62l-21 2l21 92h455l-258 -1288l-17 -101l-4 -16q-2 -12 -2 -27q0 -49 74 -53l18 -2l-18 -92h-406l37 182q-68 -96 -125 -139q-92 -68 -207 -68q-307 0 -307 381zM451 375 q0 -209 141 -209q100 0 201 119l131 647q-89 49 -148 49q-135 0 -229 -182q-96 -180 -96 -424z" />
<glyph unicode="e" horiz-adv-x="907" vert-adv-y="2504" d="M139 377q0 309 170 528q168 217 414 217q279 0 278 -301q0 -139 -28 -260l-6 -22h-506q-25 -152 -25 -203q0 -211 193 -211q115 0 268 68l-29 -150q-181 -68 -338 -68q-391 1 -391 402zM485 633h209q45 225 45 309q0 88 -53 88q-109 0 -201 -397z" />
<glyph unicode="f" horiz-adv-x="681" vert-adv-y="2504" d="M37 0l18 92l19 2q68 6 84 28.5t24 67.5l23 101l139 708h-106l18 99h109l10 45q96 461 452 461q127 0 222 -64l-48 -231h-129l2 16l9 61q4 37 4 52q0 70 -60 69q-61 0 -88 -73q-23 -57 -49 -193l-28 -143h190l-18 -99h-193l-141 -708l-19 -101q-6 -34 -6 -43 q0 -51 100 -53l43 -2l-18 -92h-563z" />
<glyph unicode="g" vert-adv-y="2504" d="M-18 -219q0 162 292 258q-90 55 -90 123q0 119 236 217q-86 37 -131 88q-66 76 -66 195q0 201 131 331q129 129 338 129q111 0 205 -37l350 31l-92 -158l-180 31q51 -84 51 -176q0 -180 -137 -317q-138 -141 -320 -142q-18 0 -67 6q-76 -57 -76 -104q0 -51 117 -51h116 q324 0 324 -207q0 -178 -174 -297q-172 -121 -434 -121q-182 0 -287 53q-106 52 -106 148zM274 -199q0 -129 158 -129q117 0 188.5 65.5t71.5 164.5q0 78 -67 96q-49 14 -162 14h-98q-91 -102 -91 -211zM485 569q0 -129 80 -129q68 0 127 127q72 156 72 332q0 127 -82 127 q-68 0 -127 -127q-70 -152 -70 -330z" />
<glyph unicode="h" horiz-adv-x="1138" vert-adv-y="2504" d="M31 0l18 92l21 2q66 6 82 28.5t24 67.5l23 101l198 997l19 101q2 8 4 18l3 15t1 10q0 43 -78 53l-16 2l16 92h406l-134 -664q70 94 136 140q98 68 217 67q223 0 223 -211q0 -66 -14 -135l-97 -485l-18 -101q-6 -34 -6 -43q0 -49 74 -53l18 -2l-18 -92h-500l18 92l19 2 q76 6 96 96l20 101l91 452q18 86 18 115q0 84 -92 84q-100 0 -205 -137l-104 -514l-19 -101q-6 -35 -6 -47q0 -47 63 -49l19 -2l-19 -92h-501z" />
<glyph unicode="i" horiz-adv-x="567" vert-adv-y="2504" d="M41 0l16 92l21 2q65 3 80 25q14 16 26 71l23 101l102 518l19 98q2 8 4 18.5t3 16.5t1 8q0 49 -78 54l-16 2l16 92h406l-162 -807l-17 -101q-2 -8 -4 -18t-3 -16t-1 -9q0 -49 76 -53l18 -2l-18 -92h-512zM406 1282l59 297h295l-60 -297h-294z" />
<glyph unicode="j" horiz-adv-x="681" vert-adv-y="2504" d="M-180 -379l53 268h162l-2 -18l-10 -70q-4 -25 -5 -45q0 -84 82 -84q96 0 133 176l21 99l172 862l16 98l4.5 18.5t3.5 15.5t1 9q0 51 -76 54l-19 2l19 92h403l-215 -1075q-88 -442 -504 -443q-100 0 -239 41zM520 1282l60 297h294l-59 -297h-295z" />
<glyph unicode="k" horiz-adv-x="1138" vert-adv-y="2504" d="M31 0l18 92l19 2q68 4 82 25q14 16 26 71l21 101l200 997l19 101q6 34 6 43q0 43 -76 53l-18 2l18 92h406l-197 -987h14l260 227q78 70 80 72l58 57q20 20 20 35q0 20 -41 21l-41 2h-18l18 92h371l-19 -92l-20 -2q-82 -6 -188 -107l-99 -90l-139 -121l168 -399 q76 -186 131 -193h18l19 -2l-19 -92h-350l-223 530h-12l-49 -239l-19 -101q-6 -34 -6 -43q0 -49 76 -53l18 -2l-18 -92h-514z" />
<glyph unicode="l" horiz-adv-x="567" vert-adv-y="2504" d="M41 0l16 92l21 2q65 3 80 25q14 16 26 71l23 101l199 997l18 101q6 34 6 43q0 43 -74 53l-18 2l18 92h404l-258 -1288l-17 -101q-2 -8 -4 -18t-3 -16t-1 -9q0 -49 76 -53l18 -2l-18 -92h-512z" />
<glyph unicode="m" horiz-adv-x="1705" vert-adv-y="2504" d="M31 0l18 92l21 2q66 6 82 28.5t24 67.5l23 101l102 518l18 98l4.5 18.5t3.5 16.5t1 8q0 51 -76 54l-19 2l19 92h403l-37 -183q68 92 134 140q95 68 209 67q119 0 174 -61q49 -55 51 -162q90 125 147 168q76 55 203 55q225 0 225 -211q0 -66 -14 -135l-96 -485l-19 -101 q-2 -8 -4 -18l-3 -15t-1 -10q0 -49 78 -53l16 -2l-18 -92h-500l19 92l18 2q74 6 94 96l23 101l92 452q14 74 14 115q0 84 -86 84q-94 0 -198 -137l-105 -514l-16 -101q-2 -8 -4 -18t-3 -16t-1 -9q0 -51 75 -53l19 -2l-19 -92h-499l16 92l20 2q74 6 95 96l22 101l90 452 q18 86 19 115q0 84 -88 84q-94 0 -199 -137l-104 -514l-19 -101q-6 -35 -6 -47q0 -47 63 -49l19 -2l-19 -92h-501z" />
<glyph unicode="n" horiz-adv-x="1138" vert-adv-y="2504" d="M31 0l18 92l21 2q66 6 82 28.5t24 67.5l23 101l102 518l18 98l4.5 18.5t3.5 16.5t1 8q0 51 -76 54l-19 2l19 92h403l-37 -183q70 94 136 140q98 68 217 67q223 0 223 -211q0 -66 -14 -135l-97 -485l-18 -101q-6 -34 -6 -43q0 -49 74 -53l18 -2l-18 -92h-500l18 92l19 2 q76 6 96 96l20 101l91 452q18 86 18 115q0 84 -92 84q-100 0 -205 -137l-104 -514l-19 -101q-6 -35 -6 -47q0 -47 63 -49l19 -2l-19 -92h-501z" />
<glyph unicode="o" vert-adv-y="2504" d="M141 387q0 311 174 522q174 213 433 213q367 0 366 -411q0 -309 -176 -522.5t-436 -213.5q-361 0 -361 412zM438 281q0 -201 99 -201q74 0 151 164q127 272 127 575q0 199 -92 199q-80 0 -158 -166q-127 -272 -127 -571z" />
<glyph unicode="p" horiz-adv-x="1138" vert-adv-y="2504" d="M-80 -395l19 94h18q68 4 82 25q14 16 27 71l20 101l184 913l19 98q6 35 6 43q0 51 -76 54l-18 2l18 92h406l-37 -183q68 96 125 140q92 68 207 67q309 0 309 -381q0 -319 -187 -542q-184 -223 -452 -224q-78 0 -187 25l-18 -104l-18 -101l-4.5 -18t-3.5 -16.5t-1 -8.5 q0 -49 76 -53h19l-19 -94h-514zM438 166q89 -49 148 -49q131 0 227 182q98 184 98 426q0 207 -143 207q-100 0 -201 -119z" />
<glyph unicode="q" horiz-adv-x="1138" vert-adv-y="2504" d="M133 356q0 319 184 545q184 221 453 221q78 0 186 -24h295l-239 -1202l-19 -101q-6 -33 -6 -43q0 -49 76 -53h18l-18 -94h-514l18 94h19q68 6 84 28.5t24 67.5l23 101l55 286q-68 -96 -125 -139q-92 -68 -207 -68q-307 0 -307 381zM451 375q0 -209 141 -209 q100 0 201 119l131 647q-89 49 -148 49q-133 0 -229 -182q-96 -180 -96 -424z" />
<glyph unicode="r" horiz-adv-x="907" vert-adv-y="2504" d="M31 0l18 92l19 2q68 4 82 25q14 16 26 71l21 101l104 518l18 98q6 34 7 43q0 51 -76 54l-19 2l19 92h405l-41 -207q188 231 398 231q35 0 67 -8l-69 -348h-136l3 16l6 47q6 49 6 60q0 33 -51 33q-133 0 -244 -138l-100 -493q-16 -86 -17 -139q0 -47 78 -54l66 -4l18 -2 l-18 -92h-590z" />
<glyph unicode="s" horiz-adv-x="796" vert-adv-y="2504" d="M53 49l51 258h150l-2 -16q-16 -88 -16 -113q0 -111 118 -110q76 0 119 47q47 53 47 153q0 84 -92 152l-66 49q-166 123 -165 262q0 170 120.5 280.5t309.5 110.5q115 0 260 -43l-49 -245h-148l2 18q2 12 4 21.5t2 19.5q10 47 11 76q0 61 -70 61q-61 0 -104 -61 q-41 -59 -41 -146q0 -78 86 -143l49 -39q119 -90 159 -143q35 -51 35 -123q0 -168 -141 -285q-139 -115 -334 -115q-120 0 -295 74z" />
<glyph unicode="t" horiz-adv-x="681" vert-adv-y="2504" d="M199 186q0 59 18 156l131 657h-110l18 99h113l37 184l307 53l-49 -237h190l-20 -99h-189l-133 -665l-16 -84q-8 -35 -9 -70q0 -88 78 -88q29 0 103 25l-21 -109q-98 -33 -182 -33q-121 0 -193 58q-73 58 -73 153z" />
<glyph unicode="u" horiz-adv-x="1138" vert-adv-y="2504" d="M166 188q0 76 12 134l98 487l19 98q6 35 6 43q0 51 -76 54l-16 2l16 92h406l-150 -744q-16 -76 -16 -114q0 -84 90 -84q102 0 207 137l102 516l19 98q8 45 8 47q0 47 -64 50l-18 2l18 92h392l-160 -807l-19 -101q-2 -8 -4 -18t-3 -16t-1 -9q0 -49 76 -53l18 -2l-18 -92 h-403l34 182q-152 -207 -352 -207q-221 0 -221 213z" />
<glyph unicode="v" vert-adv-y="2504" d="M201 1006l18 92h518l-18 -92l-21 -2h-14q-39 0 -55 -11q-29 -18 -29 -59q0 -20 21 -129l79 -416l228 416l12 20l23 41l30 64q12 25 13 47q0 22 -43 24l-29 3l-19 2l21 92h307l-18 -92l-19 -2h-28q-49 -2 -95 -95l-10 -20q-2 -8 -8 -17l-37 -65l-455 -819h-90l-164 817 l-20 102q-18 94 -80 97z" />
<glyph unicode="w" horiz-adv-x="1478" vert-adv-y="2504" d="M213 1006l18 92h525l-19 -92h-18q-76 0 -88 -41q-12 -37 -13 -138v-16l15 -354l350 635h107l77 -635l158 348l31 61l26 62q14 29 15 47q0 31 -70 31h-18l18 92h359l-19 -92l-18 -2q-98 -6 -119 -39q-27 -35 -82 -156l-371 -821h-90l-96 772l-426 -772h-96l-31 819l-2 96 q-2 94 -105 101z" />
<glyph unicode="x" vert-adv-y="2504" d="M0 0l18 92l13 2l26 2q76 6 148 97l78 94l200 252l-88 278q-45 147 -67 164q-23 18 -90 23l-19 2l19 92h555l-19 -92h-18l-27 -2q-74 -3 -74 -68q0 -46 25 -123l39 -125l100 125q100 125 101 164q0 29 -66 29h-16l16 92h371l-19 -92l-18 -2h-27q-61 0 -129 -82l-88 -111 l-186 -238l94 -301q55 -170 172 -178l18 -2l-18 -92h-549l19 92h18h6q2 0 5 1l3 1l45 6q27 14 27 45q0 35 -35 144l-43 133l-102 -131q-31 -39 -51 -72l-7 -8l-10 -14l-12 -19q-4 -4 -6 -8q-23 -29 -23 -51q0 -20 41 -25l15 -2h18l-18 -92h-365z" />
<glyph unicode="y" vert-adv-y="2504" d="M72 -395l405 401l-158 799l-20 102q-18 94 -80 97l-18 2l18 92h524l-18 -92l-20 -2h-11h-14h-10l-8 -3q-25 -8 -33 -12q-6 -4 -13 -14q-10 -18 -10 -39q0 -6 2 -14v-13q4 -37 19 -104l78 -412l229 412l10 18l10 17q8 16 15 26l30 64q12 25 13 47q0 22 -43 24l-29 3l-18 2 l18 92h303l-18 -92l-19 -2h-28q-49 -2 -95 -95l-10 -20l-45 -82l-670 -1202h-286z" />
<glyph unicode="z" horiz-adv-x="907" vert-adv-y="2504" d="M51 0l23 104l655 902h-143q-90 0 -125 -15q-33 -14 -45 -57l-21 -82l-4 -18h-135l53 264h742l-19 -92l-653 -902h190q125 0 148 23q22 18 31 61l4 15l12 45l4 16h135l-53 -264h-799z" />
<glyph unicode="{" horiz-adv-x="806" vert-adv-y="2504" d="M217 596l19 92h61q201 0 201 195l-4 90l-2 104l-3 68q0 182 99 293q123 141 348 141h100l-18 -92q-121 -10 -172 -49q-57 -49 -62 -181l-2 -40v-72q-4 -176 -51 -273q-80 -164 -252 -231q162 -82 162 -250q0 -90 -66 -264l-26 -72l-17 -41q-25 -71 -24 -104 q0 -102 131 -111q8 0 41 -4l-18 -92h-105q-143 0 -231 66q-86 65 -86 172q0 94 71 256l47 104l33 76q29 68 29 119q0 100 -141 100h-62z" />
<glyph unicode="|" horiz-adv-x="450" vert-adv-y="2504" d="M92 -297l375 1876h147l-374 -1876h-148z" />
<glyph unicode="}" horiz-adv-x="806" vert-adv-y="2504" d="M27 -297l18 94q119 6 174 49q58 49 62 179v43l2 69q4 178 51 275q76 162 252 229q-162 80 -162 252q0 90 65 264l27 70l14 41q27 76 27 106q0 98 -133 109q-6 0 -39 4l16 92h105q145 0 233 -66q86 -65 86 -172q0 -90 -73 -256l-45 -104l-33 -76q-31 -72 -31 -117 q0 -100 143 -100h62l-19 -92h-61q-201 0 -201 -197l2 -88l2 -106l2 -66q0 -186 -96 -295q-123 -141 -350 -141h-100z" />
<glyph unicode="~" horiz-adv-x="1064" vert-adv-y="2504" d="M127 444q25 101 55 154q94 168 291 168q119 0 213 -88l43 -39q84 -78 160 -78q147 0 186 178h99q-23 -94 -54 -151q-94 -168 -293 -168q-119 0 -213 88l-43 39q-82 76 -157 76q-147 0 -189 -179h-98z" />
<glyph vert-adv-y="2504" d="M111 555l41 98h73q12 102 39 187h-96l41 98h86q61 152 121 248q209 332 532 332q115 0 318 -66l-58 -281h-147l4 21q10 43 10 108q0 121 -129 121q-137 0 -239 -157q-70 -111 -127 -326h436l-53 -98h-406l-10 -41q-3 -9 -12 -56q-2 -18 -13 -63l-4 -27h346l-53 -98h-307 q-14 -98 -15 -156q0 -313 244 -313q111 0 260 80l-24 -131q-168 -72 -301 -72q-203 0 -328 133q-127 137 -127 363q0 57 2 96h-104z" />
<glyph unicode="&#xa0;" horiz-adv-x="512" vert-adv-y="2504" />
<glyph unicode="&#xa1;" horiz-adv-x="681" vert-adv-y="2504" d="M117 -383l57 297l254 766h94l-51 -766l-59 -297h-295zM362 852l50 246h297l-52 -246h-295z" />
<glyph unicode="&#xa2;" vert-adv-y="2504" d="M246 596q0 215 108.5 397.5t263.5 255.5q90 43 236 60l33 172h98l-33 -172l37 -6q133 -16 221 -41l-59 -293h-117q0 2 4 18q0 10 2 25q0 2 1 7t1 9q4 12 5 21q6 43 6 61q0 90 -119 102l-186 -923q125 0 278 53l-27 -133q-143 -41 -278 -53l-31 -156h-98l31 158 q-104 14 -168 41q-209 98 -209 397zM512 567q0 -133 53 -198q31 -41 88 -62l181 903q-127 -41 -209 -186q-113 -201 -113 -457z" />
<glyph unicode="&#xa3;" vert-adv-y="2504" d="M49 0l47 233q178 40 234 308l37 182h-160l20 104h160l33 162q53 256 184 391q135 137 330 138q94 0 283 -60l-54 -262h-135q14 94 14 129q0 92 -102 92q-88 0 -131 -78q-35 -61 -64 -204l-63 -308h211l-19 -94h-208l-25 -117q-53 -256 -377 -383h709l-47 -233h-877z" />
<glyph unicode="&#xa4;" vert-adv-y="2504" d="M127 344l170 141q-43 80 -43 164q0 174 139 322l-112 141l84 70l112 -142q127 82 260 82q129 0 226 -82l170 142l55 -70l-170 -141q43 -80 43 -164q0 -170 -139 -322l112 -141l-84 -70l-112 142q-125 -82 -258 -82q-131 0 -228 82l-170 -142zM406 680q0 -78 47 -131 q59 -68 155 -68q119 0 209 90q92 88 92 205q0 88 -57 144q-58 55 -147 55q-117 0 -207 -90q-92 -90 -92 -205z" />
<glyph unicode="&#xa5;" vert-adv-y="2504" d="M215 383l18 92h238l35 172h-238l19 92h237l-137 455q-59 195 -111 195l21 92h457l-19 -92q-2 0 -6 -1.5t-6 -1.5h-4h-2l-8 3l-9 -3q-20 -2 -32 -8q-23 -12 -19 -26v-9q0 -4 1 -10t3 -10l19 -61q0 -4 3 -12.5l5 -14.5q4 -10 7 -23.5t5 -17.5l92 -307h2l215 307l48 70 q37 58 43 79l6 19l2 8q-2 18 -45 19h-19h-4l19 92h270l-21 -92q-53 -2 -188 -195l-317 -455h237l-18 -92h-238l-35 -172h240l-20 -92h-236l-20 -92l-15 -101l-8 -36q6 -53 115 -60h2l4 -1l4 -1h4l-16 -92h-566l19 92l16 2q104 6 117 27q16 20 29 69l24 101l19 92h-238z" />
<glyph unicode="&#xa6;" horiz-adv-x="450" vert-adv-y="2504" d="M92 -297l148 741h147l-147 -741h-148zM319 840l148 739h147l-147 -739h-148z" />
<glyph unicode="&#xa7;" vert-adv-y="2504" d="M35 -260l55 278h135l-2 -18q0 -12 -2 -23q-4 -12 -4 -18l-4 -20q-4 -16 -4 -41q0 -53 72 -88q72 -37 168 -37q106 0 182 69.5t76 159.5q0 76 -152 156l-106 55q-135 70 -195 141q-57 66 -57 166q0 180 227 361q-119 82 -119 211q0 186 148 305q150 121 385 121 q170 0 340 -56l-60 -291h-135l2 21q10 66 14 80q6 22 7 37q0 47 -56 82q-57 35 -133 34q-98 0 -180 -75q-80 -74 -80 -166q0 -74 127 -140l100 -51q143 -74 203 -145q59 -76 60 -174q0 -162 -207 -369q113 -86 112 -223q0 -180 -147 -291q-150 -113 -391 -113 q-182 1 -379 62zM422 655q0 -72 57 -120q39 -35 142 -91l157 -86q63 96 63.5 184.5t-81.5 133.5l-135 76l-138 79q-65 -84 -65 -176z" />
<glyph unicode="&#xa8;" horiz-adv-x="681" vert-adv-y="2504" d="M289 1282l43 211h209l-43 -211h-209zM696 1282l41 211h209l-41 -211h-209z" />
<glyph unicode="&#xa9;" horiz-adv-x="1529" vert-adv-y="2504" d="M168 596q0 344 276.5 614.5t628.5 270.5q258 0 432 -170q172 -168 172 -426q0 -344 -276.5 -614.5t-632.5 -270.5q-233 0 -395 137q-205 174 -205 459zM268 616q0 -223 147.5 -370.5t377.5 -147.5q268 0 491 189q293 250 293 577q0 223 -149.5 370.5t-374.5 147.5 q-305 0 -545 -233.5t-240 -532.5zM532 649q0 219 150 363q145 145 371 145q113 0 264 -35l-37 -182h-98l18 96q-84 39 -156 39q-135 0 -233 -123q-100 -125 -100 -293q0 -109 65 -178q65 -68 172 -67q109 0 240 53l-23 -111q-147 -39 -272 -39q-361 0 -361 332z" />
<glyph unicode="&#xaa;" horiz-adv-x="612" vert-adv-y="2504" d="M238 969q0 123 96 194.5t262 71.5h22l17 80q12 66 12 86q0 61 -57 61q-78 0 -96 -82l-9 -39l-4 -10h-116l26 133q125 53 234 54q201 0 200 -150q0 -35 -4 -51l-59 -293l-8 -51l-6 -37v-6v-2v-4q0 -31 30 -31q6 0 13 2h6l-13 -59q-47 -12 -82 -13q-92 0 -122 92 q-76 -92 -189 -92q-153 1 -153 146zM430 991q0 -74 55.5 -73.5t77.5 40.5l45 222h-16q-162 -1 -162 -189z" />
<glyph unicode="&#xab;" vert-adv-y="2504" d="M121 549l532 438l64 -61l-297 -377l145 -377l-88 -61zM588 549l532 434l64 -57l-295 -377l143 -373l-86 -55z" />
<glyph unicode="&#xac;" horiz-adv-x="1165" vert-adv-y="2504" d="M238 739l30 150h987l-118 -592h-150l90 442h-839z" />
<glyph unicode="&#xad;" horiz-adv-x="681" vert-adv-y="2504" d="M154 518l28 148h584l-31 -148h-581z" />
<glyph unicode="&#xae;" horiz-adv-x="1529" vert-adv-y="2504" d="M168 596q0 344 276.5 614.5t628.5 270.5q258 0 432 -170q172 -168 172 -426q0 -344 -276.5 -614.5t-632.5 -270.5q-233 0 -395 137q-205 174 -205 459zM268 616q0 -223 147.5 -370.5t377.5 -147.5q268 0 491 189q293 250 293 577q0 223 -149.5 370.5t-374.5 147.5 q-305 0 -545 -233.5t-240 -532.5zM512 344l10 57h10q61 6 68 15q10 10 16 39l15 53l94 475l8 53l4 21q-6 27 -67 33h-11l13 57h239h50l49 2h51q88 2 143 -31q68 -37 68 -129q0 -96 -76 -182q-53 -59 -129 -88l113 -215l30 -55q23 -41 58 -48l-13 -57h-213l-141 352h-67 l-37 -188l-9 -53l-4 -23q4 -29 56 -31h10l-12 -57h-326zM846 752h28q94 0 158 65.5t64 161.5q0 106 -123 106h-62z" />
<glyph unicode="&#xaf;" vert-adv-y="2504" d="M379 1456l29 148h852l-31 -148h-850z" />
<glyph unicode="&#xb0;" horiz-adv-x="817" vert-adv-y="2504" d="M356 1161q0 141 111 248q113 109 252 109q106 0 174 -68q70 -66 70 -170q0 -141 -111 -248q-109 -106 -256 -106q-92 0 -156 55q-84 71 -84 180zM471 1186q0 -68 41 -109t109 -41q82 0 143 54q84 72 84 170q0 68 -43 106q-45 41 -109 41q-90 0 -157.5 -67.5t-67.5 -153.5 z" />
<glyph unicode="&#xb1;" horiz-adv-x="1165" vert-adv-y="2504" d="M90 0l31 147h987l-31 -147h-987zM223 666l31 147h418l73 371h150l-76 -371h420l-29 -147h-419l-74 -369h-148l74 369h-420z" />
<glyph unicode="&#xb2;" horiz-adv-x="612" vert-adv-y="2504" d="M147 592l23 119q68 109 229 237l54 41q195 154 194 330q0 113 -98 113q-55 0 -143 -46l-19 -94h-86l35 164q137 47 266 47q242 0 242 -188q0 -168 -207 -295l-82 -51l-49 -31q-143 -90 -168 -186h395l-31 -160h-555z" />
<glyph unicode="&#xb3;" horiz-adv-x="612" vert-adv-y="2504" d="M156 604l30 156h80l-2 -12q-4 -29 -4 -43q0 -66 105 -66q78 0 131 72q55 72 55 168q0 145 -191 145h-51l15 70h55q236 0 235 229q0 111 -94 111q-102 0 -133 -113l-2 -10h-84l31 149q117 43 254 43q227 0 227 -170q0 -129 -113 -203q-59 -39 -151 -61q86 -14 133 -49 q70 -51 70 -146q0 -131 -107 -219q-104 -86 -274 -86q-129 0 -215 35z" />
<glyph unicode="&#xb4;" horiz-adv-x="681" vert-adv-y="2504" d="M328 1282l305 322h299l-471 -322h-133z" />
<glyph unicode="&#xb5;" horiz-adv-x="1138" vert-adv-y="2504" d="M51 -344l232 1153l18 98q6 34 6 43q0 47 -76 54l-18 2l18 92h406l-150 -744q-16 -74 -16 -114q0 -84 90 -84q102 0 207 137l162 805h295l-160 -807l-18 -101l-4.5 -18t-3.5 -16t-1 -9q0 -49 76 -53l19 -2l-19 -92h-403l34 182q-94 -127 -133 -157q-51 -43 -127 -43 q-34 0 -67 18l-70 -344h-297z" />
<glyph unicode="&#xb6;" horiz-adv-x="1105" vert-adv-y="2504" d="M303 1065q0 218 148 338q108 89 258 86l79 -2l195 -6h225l-356 -1778h-92l332 1655h-242l-332 -1655h-86l207 1036q-106 12 -162 37q-174 74 -174 289z" />
<glyph unicode="&#xb7;" horiz-adv-x="512" vert-adv-y="2504" d="M203 469l57 297h297l-59 -297h-295z" />
<glyph unicode="&#xb8;" horiz-adv-x="681" vert-adv-y="2504" d="M57 -408l17 86q63 -20 110 -20q109 0 109 82q0 70 -166 74l131 186h109l-78 -115q203 -12 203 -133q0 -82 -76 -133q-72 -51 -199 -51q-74 -1 -160 24z" />
<glyph unicode="&#xb9;" horiz-adv-x="612" vert-adv-y="2504" d="M240 592l14 74q4 0 7 1l3 1h15q4 0 7 1l3 1l8 -2l4 2l4 -2l6 2q41 4 54 26q8 16 22 84l92 455q10 47 10 82q0 29 -40 29h-7q-16 0 -28 -3q-6 0 -14.5 -1t-10.5 -1l14 72l316 90l-146 -723q-10 -55 -10 -78q0 -35 51 -34h4h17h8q4 0 10 -1t9 -1l-15 -74h-407z" />
<glyph unicode="&#xba;" horiz-adv-x="675" vert-adv-y="2504" d="M258 1075q0 188 109 316q111 127 276 127q246 0 246 -252q0 -193 -110.5 -318t-280.5 -125q-240 0 -240 252zM446 1026q0 -123 78 -123q51 0 99 88q78 145 77 328q0 119 -71 119q-63 0 -117 -115q-66 -141 -66 -297z" />
<glyph unicode="&#xbb;" vert-adv-y="2504" d="M61 176l293 373l-143 377l86 57l358 -434l-528 -428zM528 172l295 377l-145 377l88 61l358 -438l-532 -438z" />
<glyph unicode="&#xbc;" horiz-adv-x="1536" vert-adv-y="2504" d="M166 -37l1417 1555h123l-1417 -1555h-123zM217 592l14 74q4 0 8 1l3 1h14q4 0 7 1l3 1l8 -2l5 2l4 -2l6 2q41 4 53 26q10 14 25 84l90 455q10 47 10 82q0 29 -41 29h-6q-6 0 -14.5 -1.5t-16.5 -1.5q-6 0 -13 -1t-9 -1l14 72l313 90l-143 -723q-10 -55 -10 -78 q0 -35 53 -34h4h14h11q4 0 9 -1t7 -1l-14 -74h-408zM881 238l24 124l443 537h170l-103 -514h98l-28 -147h-99l-12 -56q-8 -43 -8 -78q0 -31 43 -32l16 -2h13l-15 -70h-356l14 70h13q55 2 69 26q16 31 27 86l10 56h-319zM1012 385h219l69 352z" />
<glyph unicode="&#xbd;" horiz-adv-x="1536" vert-adv-y="2504" d="M86 -37l1417 1555h123l-1417 -1555h-123zM168 592l14 74q4 0 7 1l4 1h14q4 0 6 1l2 1l8 -2l4 2l6 -2l7 2q41 4 53 26q8 16 22 84l93 455q10 47 10 82q0 29 -41 29h-8q-8 0 -14.5 -1.5t-14.5 -1.5q-6 0 -13.5 -1t-9.5 -1l15 72l313 90l-143 -723q-10 -55 -10 -78 q0 -35 51 -34h4h14h10q4 0 10.5 -1t8.5 -1l-15 -74h-407zM934 35l31 153h82l-3 -10q-2 -12 -2 -35l-2 -10q0 -63 103 -63q82 0 133 69q53 68 53 170q0 145 -188 146h-51l14 69h53q238 0 238 228q0 113 -95 112q-102 0 -133 -112l-4 -13h-82l31 152q120 43 252 43 q229 0 229 -170q0 -131 -112 -205q-53 -35 -154 -59q86 -14 135 -51q70 -51 70 -144q0 -133 -107 -219q-104 -86 -274 -86q-129 0 -217 35z" />
<glyph unicode="&#xbe;" horiz-adv-x="1536" vert-adv-y="2504" d="M203 -37l1419 1555h123l-1419 -1555h-123zM207 604l31 156h81l-2 -12q-4 -41 -4 -43q0 -66 105 -66q78 0 131 71.5t53 168.5q0 145 -188 145h-52l15 70h53q236 0 236 229q0 111 -93 111q-53 0 -88 -29q-37 -31 -47 -84l-2 -10h-82l31 149q120 43 252 43q229 0 229 -174 q0 -125 -112 -199q-57 -37 -154 -61q94 -20 135 -49q68 -49 68 -146q0 -133 -104.5 -219t-274.5 -86q-131 0 -217 35zM893 238l25 124l442 537h172l-105 -514h101l-31 -147h-98l-13 -56q-8 -41 -8 -78q0 -31 43 -32l19 -2h10l-14 -70h-355l15 70h10q55 2 70 26q16 31 26 86 l10 56h-319zM1024 385h219l70 352z" />
<glyph unicode="&#xbf;" vert-adv-y="2504" d="M43 -141q0 115 96 217q45 49 137 106q10 6 21.5 14.5t24.5 16.5q35 20 40 29l54 39q100 72 143 262l29 116l2 21h297l-4 -16q-31 -166 -211 -299l-74 -56q-233 -172 -233 -415q0 -221 202 -222q195 0 226 152l16 78l4 18h137l-55 -276q-203 -63 -410 -64q-201 0 -323 76 q-119 76 -119 203zM625 852l49 246h297l-49 -246h-297z" />
<glyph unicode="&#xc0;" horiz-adv-x="1478" vert-adv-y="2504" d="M0 0l18 92l19 2q82 6 139 96l68 103l745 1200h105l270 -1202q39 -186 94 -195l27 -2l12 -2l-18 -92h-531l19 92l18 2l37 2q51 2 51 51q0 27 -10 76l-16 70l-35 158h-549l-101 -160q-86 -138 -86 -166q0 -27 43 -29l27 -2l19 -2l-21 -92h-344zM524 549h465l-121 549z M772 1925h299l176 -321h-131z" />
<glyph unicode="&#xc1;" horiz-adv-x="1478" vert-adv-y="2504" d="M0 0l18 92l19 2q82 6 139 96l68 103l745 1200h105l270 -1202q39 -186 94 -195l27 -2l12 -2l-18 -92h-531l19 92l18 2l37 2q51 2 51 51q0 27 -10 76l-16 70l-35 158h-549l-101 -160q-86 -138 -86 -166q0 -27 43 -29l27 -2l19 -2l-21 -92h-344zM524 549h465l-121 549z M881 1604l303 321h301l-473 -321h-131z" />
<glyph unicode="&#xc2;" horiz-adv-x="1478" vert-adv-y="2504" d="M0 0l18 92l19 2q82 6 139 96l68 103l745 1200h105l270 -1202q39 -186 94 -195l27 -2l12 -2l-18 -92h-531l19 92l18 2l37 2q51 2 51 51q0 27 -10 76l-16 70l-35 158h-549l-101 -160q-86 -138 -86 -166q0 -27 43 -29l27 -2l19 -2l-21 -92h-344zM524 549h465l-121 549z M700 1604l306 321h245l176 -321h-116l-207 194l-287 -194h-117z" />
<glyph unicode="&#xc3;" horiz-adv-x="1478" vert-adv-y="2504" d="M0 0l18 92l19 2q82 6 139 96l68 103l745 1200h105l270 -1202q39 -186 94 -195l27 -2l12 -2l-18 -92h-531l19 92l18 2l37 2q51 2 51 51q0 27 -10 76l-16 70l-35 158h-549l-101 -160q-86 -138 -86 -166q0 -27 43 -29l27 -2l19 -2l-21 -92h-344zM524 549h465l-121 549z M715 1604q23 102 65 163q68 102 189 103q63 0 127 -35l65 -35q66 -35 105 -35q78 0 106 105h94q-23 -98 -63 -164q-68 -102 -189 -102q-70 0 -129 32l-65 37q-66 35 -105 35q-80 0 -106 -104h-94z" />
<glyph unicode="&#xc4;" horiz-adv-x="1478" vert-adv-y="2504" d="M0 0l18 92l19 2q82 6 139 96l68 103l745 1200h105l270 -1202q39 -186 94 -195l27 -2l12 -2l-18 -92h-531l19 92l18 2l37 2q51 2 51 51q0 27 -10 76l-16 70l-35 158h-549l-101 -160q-86 -138 -86 -166q0 -27 43 -29l27 -2l19 -2l-21 -92h-344zM524 549h465l-121 549z M756 1604l41 211h211l-43 -211h-209zM1163 1604l41 211h209l-41 -211h-209z" />
<glyph unicode="&#xc5;" horiz-adv-x="1478" vert-adv-y="2504" d="M0 0l18 92l19 2q82 6 139 96l68 103l745 1200h105l270 -1202q39 -186 94 -195l27 -2l12 -2l-18 -92h-531l19 92l18 2l37 2q51 2 51 51q0 27 -10 76l-16 70l-35 158h-549l-101 -160q-86 -138 -86 -166q0 -27 43 -29l27 -2l19 -2l-21 -92h-344zM524 549h465l-121 549z M850 1683q0 106 88 195q90 86 199 86q84 0 137 -53q53 -51 53 -135q0 -109 -88 -195q-86 -86 -199 -86q-74 0 -127 43q-63 55 -63 145zM944 1700q0 -113 115 -113q63 0 110 41q66 55 66 131q0 113 -117 113q-68 0 -121 -53t-53 -119z" />
<glyph unicode="&#xc6;" horiz-adv-x="2048" vert-adv-y="2504" d="M0 0l18 92l21 2q66 6 131 90l84 101l975 1196h1014l-54 -267h-174l4 21l9 55v4l2 6l2 9l2 8l4 6l-2 2q-10 27 -17 33q-33 25 -121 24h-393l-112 -563h282l99 2q43 0 53 15q4 4 12 38q8 29 12 46l4 18h130l-64 -322h-129l2 19l2 10q2 10 2 27q2 6 2 18q0 2 1 5l1 3v7 q0 23 -51 24l-92 4h-285l-88 -442q-14 -70 -14 -133q0 -31 28 -43q25 -8 60 -9l82 -2h200l113 5q70 0 88 55l25 94l4 21h174l-57 -279h-1217l19 92l18 2q111 6 125 23q14 14 31 73l24 101l31 147h-524l-125 -153l-64 -80l-37 -49q-14 -20 -14 -33q0 -25 57 -27l45 -2h19 l-19 -94h-358zM580 530h458l150 746z" />
<glyph unicode="&#xc7;" horiz-adv-x="1478" vert-adv-y="2504" d="M211 551q0 367 227 647q262 319 752 320q223 0 475 -66l-61 -305h-172l4 18l8 60l2 16q4 33 4 35q0 57 -86 100t-207 43q-276 0 -446 -266q-80 -127 -127 -305q-51 -184 -52 -350q0 -412 439 -412q199 0 469 111l-29 -140q-258 -94 -530 -94q-670 0 -670 588zM584 -408 l16 86q63 -20 113 -20q106 0 106 82q0 70 -164 74l129 186h111l-80 -115q92 -6 135 -26q68 -35 68 -107q0 -80 -76 -133q-76 -51 -197 -51q-75 -1 -161 24z" />
<glyph unicode="&#xc8;" horiz-adv-x="1363" vert-adv-y="2504" d="M55 0l19 92l18 2q113 6 127 27q20 23 31 69l24 101l181 901l14 96l6 35q-2 53 -125 63l-16 3l16 92h1211l-54 -267h-174l4 21l4 25q0 6 1 11t1 9t1.5 7t1.5 5v2q1 4 2 10q1 4 2 5q0 2 1 5l1 3q2 4 2 6q0 59 -135 59h-418l-113 -563h305l99 2q43 0 53 15q4 4 12 38 q8 29 12 46l5 18h131l-66 -322h-129l2 19q0 4 2 10v10q0 2 1 7.5t1 9.5l2 4q2 10 2 29q0 23 -51 24l-92 4h-305l-90 -442q-16 -86 -17 -133q0 -31 31 -43q25 -8 59 -9l82 -2h224l112 5q70 0 88 55l25 94l4 21h174l-57 -279h-1252zM686 1925h299l178 -321h-133z" />
<glyph unicode="&#xc9;" horiz-adv-x="1363" vert-adv-y="2504" d="M55 0l19 92l18 2q113 6 127 27q20 23 31 69l24 101l181 901l14 96l6 35q-2 53 -125 63l-16 3l16 92h1211l-54 -267h-174l4 21l4 25q0 6 1 11t1 9t1.5 7t1.5 5v2q1 4 2 10q1 4 2 5q0 2 1 5l1 3q2 4 2 6q0 59 -135 59h-418l-113 -563h305l99 2q43 0 53 15q4 4 12 38 q8 29 12 46l5 18h131l-66 -322h-129l2 19q0 4 2 10v10q0 2 1 7.5t1 9.5l2 4q2 10 2 29q0 23 -51 24l-92 4h-305l-90 -442q-16 -86 -17 -133q0 -31 31 -43q25 -8 59 -9l82 -2h224l112 5q70 0 88 55l25 94l4 21h174l-57 -279h-1252zM846 1604l305 321h299l-471 -321h-133z" />
<glyph unicode="&#xca;" horiz-adv-x="1363" vert-adv-y="2504" d="M55 0l19 92l18 2q113 6 127 27q20 23 31 69l24 101l181 901l14 96l6 35q-2 53 -125 63l-16 3l16 92h1211l-54 -267h-174l4 21l4 25q0 6 1 11t1 9t1.5 7t1.5 5v2q1 4 2 10q1 4 2 5q0 2 1 5l1 3q2 4 2 6q0 59 -135 59h-418l-113 -563h305l99 2q43 0 53 15q4 4 12 38 q8 29 12 46l5 18h131l-66 -322h-129l2 19q0 4 2 10v10q0 2 1 7.5t1 9.5l2 4q2 10 2 29q0 23 -51 24l-92 4h-305l-90 -442q-16 -86 -17 -133q0 -31 31 -43q25 -8 59 -9l82 -2h224l112 5q70 0 88 55l25 94l4 21h174l-57 -279h-1252zM690 1604l305 321h246l176 -321h-117 l-206 194l-285 -194h-119z" />
<glyph unicode="&#xcb;" horiz-adv-x="1363" vert-adv-y="2504" d="M55 0l19 92l18 2q113 6 127 27q20 23 31 69l24 101l181 901l14 96l6 35q-2 53 -125 63l-16 3l16 92h1211l-54 -267h-174l4 21l4 25q0 6 1 11t1 9t1.5 7t1.5 5v2q1 4 2 10q1 4 2 5q0 2 1 5l1 3q2 4 2 6q0 59 -135 59h-418l-113 -563h305l99 2q43 0 53 15q4 4 12 38 q8 29 12 46l5 18h131l-66 -322h-129l2 19q0 4 2 10v10q0 2 1 7.5t1 9.5l2 4q2 10 2 29q0 23 -51 24l-92 4h-305l-90 -442q-16 -86 -17 -133q0 -31 31 -43q25 -8 59 -9l82 -2h224l112 5q70 0 88 55l25 94l4 21h174l-57 -279h-1252zM745 1604l43 211h209l-41 -211h-211z M1153 1604l41 211h211l-41 -211h-211z" />
<glyph unicode="&#xcc;" horiz-adv-x="796" vert-adv-y="2504" d="M84 0l18 92l19 2q113 6 127 27q16 20 28 69l25 101l180 901l17 96l6 35q-6 55 -123 63l-19 3l19 92h629l-19 -92l-18 -3q-119 -10 -127 -26q-18 -23 -31 -72l-24 -96l-181 -901l-14 -101l-6 -32q2 -53 123 -64l18 -2l-18 -92h-629zM469 1925h299l176 -321h-133z" />
<glyph unicode="&#xcd;" horiz-adv-x="796" vert-adv-y="2504" d="M84 0l18 92l19 2q113 6 127 27q16 20 28 69l25 101l180 901l17 96l6 35q-6 55 -123 63l-19 3l19 92h629l-19 -92l-18 -3q-119 -10 -127 -26q-18 -23 -31 -72l-24 -96l-181 -901l-14 -101l-6 -32q2 -53 123 -64l18 -2l-18 -92h-629zM494 1604l305 321h299l-471 -321h-133z " />
<glyph unicode="&#xce;" horiz-adv-x="796" vert-adv-y="2504" d="M84 0l18 92l19 2q113 6 127 27q16 20 28 69l25 101l180 901l17 96l6 35q-6 55 -123 63l-19 3l19 92h629l-19 -92l-18 -3q-119 -10 -127 -26q-18 -23 -31 -72l-24 -96l-181 -901l-14 -101l-6 -32q2 -53 123 -64l18 -2l-18 -92h-629zM354 1604l305 321h248l176 -321h-116 l-209 194l-285 -194h-119z" />
<glyph unicode="&#xcf;" horiz-adv-x="796" vert-adv-y="2504" d="M84 0l18 92l19 2q113 6 127 27q16 20 28 69l25 101l180 901l17 96l6 35q-6 55 -123 63l-19 3l19 92h629l-19 -92l-18 -3q-119 -10 -127 -26q-18 -23 -31 -72l-24 -96l-181 -901l-14 -101l-6 -32q2 -53 123 -64l18 -2l-18 -92h-629zM412 1604l41 211h211l-43 -211h-209z M817 1604l43 211h209l-41 -211h-211z" />
<glyph unicode="&#xd0;" horiz-adv-x="1478" vert-adv-y="2504" d="M43 0l18 92l19 2q68 6 84 28.5t24 67.5l23 101l82 411h-109l19 101h108l78 389l19 96l8 45q0 51 -76 53l-18 3l18 92h432h76l90 2l76 2q211 2 350 -78q215 -125 215 -451q0 -311 -186 -587q-249 -369 -688 -369h-662zM504 178q0 -47 57 -61q43 -12 123 -13q244 0 412 279 q160 270 159 598q0 203 -108 299q-113 102 -346 102h-66l-117 -579h297l-20 -101h-297l-82 -411q-12 -66 -12 -113z" />
<glyph unicode="&#xd1;" horiz-adv-x="1478" vert-adv-y="2504" d="M43 0l20 92l19 2q113 6 127 27q16 20 29 69l24 101l180 901l15 96l8 35q-6 55 -125 63l-18 3l18 92h385l449 -1100l161 811l15 96l8 35q-6 55 -125 63l-19 3l19 92h467l-19 -92l-18 -3q-119 -10 -127 -26q-16 -20 -29 -72l-24 -96l-244 -1212h-217l-455 1101l-157 -790 l-15 -101l-8 -32q2 -53 125 -64l18 -2l-18 -92h-469zM707 1604q25 106 63 163q68 102 188 103q63 0 127 -35l68 -35q66 -35 104 -35q78 0 107 105h92q-25 -104 -63 -164q-68 -102 -189 -102q-68 0 -127 32l-67 37q-66 35 -105 35q-78 0 -106 -104h-92z" />
<glyph unicode="&#xd2;" horiz-adv-x="1591" vert-adv-y="2504" d="M207 545q0 403 260 688t635 285q279 0 436.5 -152t157.5 -430q0 -410 -262 -690q-264 -283 -652 -283q-240 0 -389 125q-186 154 -186 457zM524 465q0 -403 287 -404q213 0 365 228q96 145 149 344q51 180 51 381q0 406 -295 405q-233 0 -391 -282q-166 -301 -166 -672z M780 1925h299l176 -321h-133z" />
<glyph unicode="&#xd3;" horiz-adv-x="1591" vert-adv-y="2504" d="M207 545q0 403 260 688t635 285q279 0 436.5 -152t157.5 -430q0 -410 -262 -690q-264 -283 -652 -283q-240 0 -389 125q-186 154 -186 457zM524 465q0 -403 287 -404q213 0 365 228q96 145 149 344q51 180 51 381q0 406 -295 405q-233 0 -391 -282q-166 -301 -166 -672z M991 1604l303 321h301l-473 -321h-131z" />
<glyph unicode="&#xd4;" horiz-adv-x="1591" vert-adv-y="2504" d="M207 545q0 403 260 688t635 285q279 0 436.5 -152t157.5 -430q0 -410 -262 -690q-264 -283 -652 -283q-240 0 -389 125q-186 154 -186 457zM524 465q0 -403 287 -404q213 0 365 228q96 145 149 344q51 180 51 381q0 406 -295 405q-233 0 -391 -282q-166 -301 -166 -672z M760 1604l305 321h246l176 -321h-117l-209 194l-284 -194h-117z" />
<glyph unicode="&#xd5;" horiz-adv-x="1591" vert-adv-y="2504" d="M207 545q0 403 260 688t635 285q279 0 436.5 -152t157.5 -430q0 -410 -262 -690q-264 -283 -652 -283q-240 0 -389 125q-186 154 -186 457zM524 465q0 -403 287 -404q213 0 365 228q96 145 149 344q51 180 51 381q0 406 -295 405q-233 0 -391 -282q-166 -301 -166 -672z M774 1604q23 94 66 163q68 102 188 103q61 0 125 -35l68 -35q66 -35 104 -35q80 0 107 105h94q-23 -94 -66 -164q-68 -102 -186 -102q-68 0 -127 32l-68 37q-66 35 -104 35q-82 0 -109 -104h-92z" />
<glyph unicode="&#xd6;" horiz-adv-x="1591" vert-adv-y="2504" d="M207 545q0 403 260 688t635 285q279 0 436.5 -152t157.5 -430q0 -410 -262 -690q-264 -283 -652 -283q-240 0 -389 125q-186 154 -186 457zM524 465q0 -403 287 -404q213 0 365 228q96 145 149 344q51 180 51 381q0 406 -295 405q-233 0 -391 -282q-166 -301 -166 -672z M815 1604l41 211h211l-43 -211h-209zM1223 1604l41 211h211l-43 -211h-209z" />
<glyph unicode="&#xd7;" horiz-adv-x="1165" vert-adv-y="2504" d="M152 244l450 374l-301 375l125 105l301 -375l451 375l84 -105l-451 -375l299 -374l-125 -107l-299 375l-450 -375z" />
<glyph unicode="&#xd8;" horiz-adv-x="1591" vert-adv-y="2504" d="M68 -37l231 223q-98 166 -98 361q0 408 260 688q258 283 639 283q262 0 434 -154l160 154h129l-234 -224q98 -166 99 -360q0 -401 -258.5 -686t-632.5 -285q-260 0 -441 154l-159 -154h-129zM518 477l2 -80l832 795q-37 126 -111 178q-68 49 -166 49q-244 0 -401 -307 q-77 -151 -123 -369q-35 -166 -33 -266zM539 291q35 -127 108 -180q65 -49 166 -50q250 0 404 308q76 150 122 366q35 160 31 269l-2 79z" />
<glyph unicode="&#xd9;" horiz-adv-x="1478" vert-adv-y="2504" d="M266 348q0 78 27 215l123 621l14 98l6 35q-2 53 -123 63l-18 2l20 99h629l-18 -92l-19 -3q-119 -10 -127 -26q-16 -20 -28 -72l-25 -96l-129 -641q-33 -164 -33 -254q0 -238 248 -238q182 0 291 121q111 123 162 379l125 633l16 96l6 35q-6 55 -125 63l-16 3l16 92h467 l-18 -92l-21 -3q-113 -8 -123 -24q-16 -18 -28 -74l-27 -96l-121 -608q-66 -324 -223 -469q-164 -152 -442 -152q-227 0 -355 103q-131 100 -131 282zM774 1925h299l176 -321h-133z" />
<glyph unicode="&#xda;" horiz-adv-x="1478" vert-adv-y="2504" d="M266 348q0 78 27 215l123 621l14 98l6 35q-2 53 -123 63l-18 2l20 99h629l-18 -92l-19 -3q-119 -10 -127 -26q-16 -20 -28 -72l-25 -96l-129 -641q-33 -164 -33 -254q0 -238 248 -238q182 0 291 121q111 123 162 379l125 633l16 96l6 35q-6 55 -125 63l-16 3l16 92h467 l-18 -92l-21 -3q-113 -8 -123 -24q-16 -18 -28 -74l-27 -96l-121 -608q-66 -324 -223 -469q-164 -152 -442 -152q-227 0 -355 103q-131 100 -131 282zM983 1604l305 321h299l-471 -321h-133z" />
<glyph unicode="&#xdb;" horiz-adv-x="1478" vert-adv-y="2504" d="M266 348q0 78 27 215l123 621l14 98l6 35q-2 53 -123 63l-18 2l20 99h629l-18 -92l-19 -3q-119 -10 -127 -26q-16 -20 -28 -72l-25 -96l-129 -641q-33 -164 -33 -254q0 -238 248 -238q182 0 291 121q111 123 162 379l125 633l16 96l6 35q-6 55 -125 63l-16 3l16 92h467 l-18 -92l-21 -3q-113 -8 -123 -24q-16 -18 -28 -74l-27 -96l-121 -608q-66 -324 -223 -469q-164 -152 -442 -152q-227 0 -355 103q-131 100 -131 282zM754 1604l303 321h248l176 -321h-117l-209 194l-285 -194h-116z" />
<glyph unicode="&#xdc;" horiz-adv-x="1478" vert-adv-y="2504" d="M266 348q0 78 27 215l123 621l14 98l6 35q-2 53 -123 63l-18 2l20 99h629l-18 -92l-19 -3q-119 -10 -127 -26q-16 -20 -28 -72l-25 -96l-129 -641q-33 -164 -33 -254q0 -238 248 -238q182 0 291 121q111 123 162 379l125 633l16 96l6 35q-6 55 -125 63l-16 3l16 92h467 l-18 -92l-21 -3q-113 -8 -123 -24q-16 -18 -28 -74l-27 -96l-121 -608q-66 -324 -223 -469q-164 -152 -442 -152q-227 0 -355 103q-131 100 -131 282zM809 1604l41 211h211l-43 -211h-209zM1214 1604l43 211h209l-41 -211h-211z" />
<glyph unicode="&#xdd;" horiz-adv-x="1478" vert-adv-y="2504" d="M281 1389l18 92h641l-18 -92h-17l-51 -3q-74 0 -74 -38q0 -43 51 -166l168 -414l340 414q119 145 119 176t-90 31h-20l18 92h406l-19 -92l-18 -3l-43 -4q-61 -6 -109 -65l-115 -135l-450 -541l-72 -350l-12 -101l-8 -32q2 -53 125 -64l16 -2l-18 -92h-629l18 92l21 2 q111 6 125 27q20 23 30 69l25 101l70 348l-228 543l-18 45l-14 33q-6 12 -15 38q-29 84 -82 86l-53 2zM928 1604l305 321h299l-471 -321h-133z" />
<glyph unicode="&#xde;" horiz-adv-x="1257" vert-adv-y="2504" d="M43 0l18 92l19 2q113 6 127 27q16 20 29 69l24 101l180 901l17 96l6 35q-6 55 -123 63l-18 3l18 92h616l-18 -92l-18 -3q-111 -10 -132 -49q-27 -43 -53 -153h96q332 0 422 -51q131 -70 131 -242q0 -201 -137 -363q-186 -221 -590 -221h-96q0 -4 -3 -18.5t-5 -26.5 q-4 -33 -6 -43q-2 -6 -3 -10t-1 -8q-2 -6 -2 -17q-6 -22 -6 -43q0 -37 67 -43l57 -4l19 -2l-19 -92h-616zM582 408h61q190 0 307 131q119 135 119 338q0 209 -242 208h-110z" />
<glyph unicode="&#xdf;" horiz-adv-x="1138" vert-adv-y="2504" d="M31 0l18 92l19 2q76 6 96 96l20 101l166 823q98 492 529 492q145 0 241 -64q92 -61 92 -160q0 -131 -184 -254l-49 -32q-137 -92 -137 -160q0 -47 67 -117l56 -55l92 -111l69 -82q70 -82 70 -188q0 -164 -127 -285q-129 -123 -301 -123q-109 0 -201 43l49 240h99l-2 -16 l-2 -19l-2 -14l-2 -16l-2 -15q-4 -45 -5 -47q0 -63 72 -63q74 0 121 59q47 55 47 143q0 55 -80 160l-84 111l-88 92q-49 51 -49 141q0 125 158 266l34 31q119 106 119 303q0 137 -106 137q-88 0 -131 -98q-35 -78 -64 -219l-180 -903l-18 -101q-6 -34 -7 -49q0 -43 52 -47 l16 -2l-16 -92h-465z" />
<glyph unicode="&#xe0;" vert-adv-y="2504" d="M109 217q0 203 157 318q156 119 432 118h50l26 133q20 102 21 144q0 100 -107 100q-135 0 -166 -133l-14 -63l-6 -21h-185l43 223q203 86 390 86q330 0 329 -243q0 -47 -8 -88l-96 -484l-14 -86l-11 -59q-2 -8 -2 -23q0 -51 51 -51q18 0 31 4l-18 -96q-74 -20 -129 -21 q-145 0 -199 152q-162 -152 -319 -152q-117 0 -187 66q-69 63 -69 176zM414 256q0 -123 100 -123q55 0 125 53l18 15l72 362h-39q-125 0 -201 -86q-75 -84 -75 -221zM440 1604h299l176 -322h-131z" />
<glyph unicode="&#xe1;" vert-adv-y="2504" d="M109 217q0 203 157 318q156 119 432 118h50l26 133q20 102 21 144q0 100 -107 100q-135 0 -166 -133l-14 -63l-6 -21h-185l43 223q203 86 390 86q330 0 329 -243q0 -47 -8 -88l-96 -484l-14 -86l-11 -59q-2 -8 -2 -23q0 -51 51 -51q18 0 31 4l-18 -96q-74 -20 -129 -21 q-145 0 -199 152q-162 -152 -319 -152q-117 0 -187 66q-69 63 -69 176zM414 256q0 -123 100 -123q55 0 125 53l18 15l72 362h-39q-125 0 -201 -86q-75 -84 -75 -221zM602 1282l305 322h299l-471 -322h-133z" />
<glyph unicode="&#xe2;" vert-adv-y="2504" d="M109 217q0 203 157 318q156 119 432 118h50l26 133q20 102 21 144q0 100 -107 100q-135 0 -166 -133l-14 -63l-6 -21h-185l43 223q203 86 390 86q330 0 329 -243q0 -47 -8 -88l-96 -484l-14 -86l-11 -59q-2 -8 -2 -23q0 -51 51 -51q18 0 31 4l-18 -96q-74 -20 -129 -21 q-145 0 -199 152q-162 -152 -319 -152q-117 0 -187 66q-69 63 -69 176zM414 256q0 -123 100 -123q55 0 125 53l18 15l72 362h-39q-125 0 -201 -86q-75 -84 -75 -221zM415 1282l306 322h245l179 -322h-119l-207 195l-287 -195h-117z" />
<glyph unicode="&#xe3;" vert-adv-y="2504" d="M109 217q0 203 157 318q156 119 432 118h50l26 133q20 102 21 144q0 100 -107 100q-135 0 -166 -133l-14 -63l-6 -21h-185l43 223q203 86 390 86q330 0 329 -243q0 -47 -8 -88l-96 -484l-14 -86l-11 -59q-2 -8 -2 -23q0 -51 51 -51q18 0 31 4l-18 -96q-74 -20 -129 -21 q-145 0 -199 152q-162 -152 -319 -152q-117 0 -187 66q-69 63 -69 176zM414 256q0 -123 100 -123q55 0 125 53l18 15l72 362h-39q-125 0 -201 -86q-75 -84 -75 -221zM424 1282q23 102 63 166q68 100 187 100q66 0 129 -32l65 -37q66 -35 105 -35q78 0 106 104h94 q-23 -98 -63 -164q-68 -102 -188 -102q-61 0 -127 35l-68 35q-68 37 -104 37q-78 0 -107 -107h-92z" />
<glyph unicode="&#xe4;" vert-adv-y="2504" d="M109 217q0 203 157 318q156 119 432 118h50l26 133q20 102 21 144q0 100 -107 100q-135 0 -166 -133l-14 -63l-6 -21h-185l43 223q203 86 390 86q330 0 329 -243q0 -47 -8 -88l-96 -484l-14 -86l-11 -59q-2 -8 -2 -23q0 -51 51 -51q18 0 31 4l-18 -96q-74 -20 -129 -21 q-145 0 -199 152q-162 -152 -319 -152q-117 0 -187 66q-69 63 -69 176zM414 256q0 -123 100 -123q55 0 125 53l18 15l72 362h-39q-125 0 -201 -86q-75 -84 -75 -221zM465 1282l43 211h209l-43 -211h-209zM872 1282l41 211h209l-41 -211h-209z" />
<glyph unicode="&#xe5;" vert-adv-y="2504" d="M109 217q0 203 157 318q156 119 432 118h50l26 133q20 102 21 144q0 100 -107 100q-135 0 -166 -133l-14 -63l-6 -21h-185l43 223q203 86 390 86q330 0 329 -243q0 -47 -8 -88l-96 -484l-14 -86l-11 -59q-2 -8 -2 -23q0 -51 51 -51q18 0 31 4l-18 -96q-74 -20 -129 -21 q-145 0 -199 152q-162 -152 -319 -152q-117 0 -187 66q-69 63 -69 176zM414 256q0 -123 100 -123q55 0 125 53l18 15l72 362h-39q-125 0 -201 -86q-75 -84 -75 -221zM854 1751q84 0 138 -51q55 -52 55 -135q0 -111 -88 -197q-86 -86 -201 -86q-76 0 -125 43q-66 55 -65 145 q0 106 88 195q87 86 198 86zM838 1659q-72 0 -123 -51q-53 -53 -53 -119q0 -113 114 -113q63 0 111 41q66 55 66 129q0 113 -115 113z" />
<glyph unicode="&#xe6;" horiz-adv-x="1478" vert-adv-y="2504" d="M109 217q0 203 157 318q156 119 432 118h50l26 133q20 102 21 144q0 100 -107 100q-135 0 -166 -133l-14 -63l-6 -21h-185l43 223q203 86 388 86q174 0 268 -80q129 80 268 80q279 0 279 -299q0 -139 -29 -262l-6 -22h-506q-25 -141 -25 -203q0 -211 193 -211 q115 0 268 68l-28 -150q-178 -68 -340 -68q-158 0 -236 58q-66 45 -123 145q-187 -203 -369 -203q-115 0 -184 66q-69 63 -69 176zM414 256q0 -123 100 -123q55 0 125 53l18 15l72 362h-39q-125 0 -201 -86q-75 -84 -75 -221zM1047 633h208q45 225 45 309q0 88 -53 88 q-108 0 -200 -397z" />
<glyph unicode="&#xe7;" horiz-adv-x="907" vert-adv-y="2504" d="M141 385q0 309 187 522q188 215 460 215q135 0 271 -49l-58 -282h-167l4 18l10 74v16v6q0 125 -88 125q-117 0 -203 -199q-106 -244 -106 -479q0 -231 198 -231q100 0 232 53l-29 -147q-172 -51 -293 -52q-197 0 -307.5 104.5t-110.5 305.5zM278 -408l17 86 q63 -20 110 -20q109 0 109 82q0 70 -166 74l131 186h109l-78 -115q203 -12 203 -133q0 -82 -76 -133q-72 -51 -199 -51q-74 -1 -160 24z" />
<glyph unicode="&#xe8;" horiz-adv-x="907" vert-adv-y="2504" d="M139 377q0 309 170 528q168 217 414 217q279 0 278 -301q0 -139 -28 -260l-6 -22h-506q-25 -152 -25 -203q0 -211 193 -211q115 0 268 68l-29 -150q-181 -68 -338 -68q-391 1 -391 402zM485 633h209q45 225 45 309q0 88 -53 88q-109 0 -201 -397zM446 1604h299l176 -322 h-131z" />
<glyph unicode="&#xe9;" horiz-adv-x="907" vert-adv-y="2504" d="M139 377q0 309 170 528q168 217 414 217q279 0 278 -301q0 -139 -28 -260l-6 -22h-506q-25 -152 -25 -203q0 -211 193 -211q115 0 268 68l-29 -150q-181 -68 -338 -68q-391 1 -391 402zM485 633h209q45 225 45 309q0 88 -53 88q-109 0 -201 -397zM584 1282l305 322h299 l-471 -322h-133z" />
<glyph unicode="&#xea;" horiz-adv-x="907" vert-adv-y="2504" d="M139 377q0 309 170 528q168 217 414 217q279 0 278 -301q0 -139 -28 -260l-6 -22h-506q-25 -152 -25 -203q0 -211 193 -211q115 0 268 68l-29 -150q-181 -68 -338 -68q-391 1 -391 402zM485 633h209q45 225 45 309q0 88 -53 88q-109 0 -201 -397zM389 1282l306 322h245 l179 -322h-119l-207 195l-287 -195h-117z" />
<glyph unicode="&#xeb;" horiz-adv-x="907" vert-adv-y="2504" d="M139 377q0 309 170 528q168 217 414 217q279 0 278 -301q0 -139 -28 -260l-6 -22h-506q-25 -152 -25 -203q0 -211 193 -211q115 0 268 68l-29 -150q-181 -68 -338 -68q-391 1 -391 402zM485 633h209q45 225 45 309q0 88 -53 88q-109 0 -201 -397zM445 1282l43 211h209 l-43 -211h-209zM852 1282l41 211h209l-41 -211h-209z" />
<glyph unicode="&#xec;" horiz-adv-x="567" vert-adv-y="2504" d="M41 0l16 92l21 2q65 3 80 25q14 16 26 71l23 101l102 518l19 98q2 8 4 18.5t3 16.5t1 8q0 49 -78 54l-16 2l16 92h406l-162 -807l-17 -101q-2 -8 -4 -18t-3 -16t-1 -9q0 -49 76 -53l18 -2l-18 -92h-512zM319 1604h299l176 -322h-131z" />
<glyph unicode="&#xed;" horiz-adv-x="567" vert-adv-y="2504" d="M41 0l16 92l21 2q65 3 80 25q14 16 26 71l23 101l102 518l19 98q2 8 4 18.5t3 16.5t1 8q0 49 -78 54l-16 2l16 92h406l-162 -807l-17 -101q-2 -8 -4 -18t-3 -16t-1 -9q0 -49 76 -53l18 -2l-18 -92h-512zM285 1282l305 322h299l-471 -322h-133z" />
<glyph unicode="&#xee;" horiz-adv-x="567" vert-adv-y="2504" d="M41 0l16 92l21 2q65 3 80 25q14 16 26 71l23 101l102 518l19 98q2 8 4 18.5t3 16.5t1 8q0 49 -78 54l-16 2l16 92h406l-162 -807l-17 -101q-2 -8 -4 -18t-3 -16t-1 -9q0 -49 76 -53l18 -2l-18 -92h-512zM176 1282l306 322h245l179 -322h-119l-207 195l-287 -195h-117z " />
<glyph unicode="&#xef;" horiz-adv-x="567" vert-adv-y="2504" d="M41 0l16 92l21 2q65 3 80 25q14 16 26 71l23 101l102 518l19 98q2 8 4 18.5t3 16.5t1 8q0 49 -78 54l-16 2l16 92h406l-162 -807l-17 -101q-2 -8 -4 -18t-3 -16t-1 -9q0 -49 76 -53l18 -2l-18 -92h-512zM231 1282l43 211h209l-41 -211h-211zM639 1282l43 211h209 l-41 -211h-211z" />
<glyph unicode="&#xf0;" vert-adv-y="2504" d="M135 383q0 272 168 481q166 209 387 209q59 0 129 -29q-41 158 -139 277l-289 -236l-35 68l267 219q-119 94 -281 115l20 92h29q195 0 365 -96l239 194l37 -67l-205 -168q121 -104 197 -238q98 -178 98 -411q0 -332 -182 -576q-180 -242 -436 -242q-170 0 -268 109 q-101 111 -101 299zM424 229q0 -162 121 -161q98 0 157 172q45 131 86 360q27 160 27 240q0 141 -98 141q-127 0 -201 -240q-41 -135 -67 -280q-25 -136 -25 -232z" />
<glyph unicode="&#xf1;" horiz-adv-x="1138" vert-adv-y="2504" d="M31 0l18 92l21 2q66 6 82 28.5t24 67.5l23 101l102 518l18 98l4.5 18.5t3.5 16.5t1 8q0 51 -76 54l-19 2l19 92h403l-37 -183q70 94 136 140q98 68 217 67q223 0 223 -211q0 -66 -14 -135l-97 -485l-18 -101q-6 -34 -6 -43q0 -49 74 -53l18 -2l-18 -92h-500l18 92l19 2 q76 6 96 96l20 101l91 452q18 86 18 115q0 84 -92 84q-100 0 -205 -137l-104 -514l-19 -101q-6 -35 -6 -47q0 -47 63 -49l19 -2l-19 -92h-501zM471 1282q23 102 63 166q68 100 187 100q66 0 129 -32l65 -37q66 -35 105 -35q78 0 106 104h94q-23 -98 -63 -164 q-68 -102 -188 -102q-61 0 -127 35l-68 35q-68 37 -104 37q-78 0 -107 -107h-92z" />
<glyph unicode="&#xf2;" vert-adv-y="2504" d="M141 387q0 311 174 522q174 213 433 213q367 0 366 -411q0 -309 -176 -522.5t-436 -213.5q-361 0 -361 412zM438 281q0 -201 99 -201q74 0 151 164q127 272 127 575q0 199 -92 199q-80 0 -158 -166q-127 -272 -127 -571zM467 1604h299l176 -322h-131z" />
<glyph unicode="&#xf3;" vert-adv-y="2504" d="M141 387q0 311 174 522q174 213 433 213q367 0 366 -411q0 -309 -176 -522.5t-436 -213.5q-361 0 -361 412zM438 281q0 -201 99 -201q74 0 151 164q127 272 127 575q0 199 -92 199q-80 0 -158 -166q-127 -272 -127 -571zM604 1282l305 322h299l-471 -322h-133z" />
<glyph unicode="&#xf4;" vert-adv-y="2504" d="M141 387q0 311 174 522q174 213 433 213q367 0 366 -411q0 -309 -176 -522.5t-436 -213.5q-361 0 -361 412zM438 281q0 -201 99 -201q74 0 151 164q127 272 127 575q0 199 -92 199q-80 0 -158 -166q-127 -272 -127 -571zM409 1282l306 322h245l179 -322h-119l-207 195 l-287 -195h-117z" />
<glyph unicode="&#xf5;" vert-adv-y="2504" d="M141 387q0 311 174 522q174 213 433 213q367 0 366 -411q0 -309 -176 -522.5t-436 -213.5q-361 0 -361 412zM438 281q0 -201 99 -201q74 0 151 164q127 272 127 575q0 199 -92 199q-80 0 -158 -166q-127 -272 -127 -571zM426 1282q23 102 63 166q68 100 187 100 q66 0 129 -32l65 -37q66 -35 105 -35q78 0 106 104h94q-23 -98 -63 -164q-68 -102 -188 -102q-61 0 -127 35l-68 35q-68 37 -104 37q-78 0 -107 -107h-92z" />
<glyph unicode="&#xf6;" vert-adv-y="2504" d="M141 387q0 311 174 522q174 213 433 213q367 0 366 -411q0 -309 -176 -522.5t-436 -213.5q-361 0 -361 412zM438 281q0 -201 99 -201q74 0 151 164q127 272 127 575q0 199 -92 199q-80 0 -158 -166q-127 -272 -127 -571zM465 1282l43 211h209l-43 -211h-209zM872 1282 l41 211h209l-41 -211h-209z" />
<glyph unicode="&#xf7;" horiz-adv-x="1165" vert-adv-y="2504" d="M195 518l28 148h987l-28 -148h-987zM465 25l49 245h248l-49 -245h-248zM643 913l49 246h246l-49 -246h-246z" />
<glyph unicode="&#xf8;" vert-adv-y="2504" d="M39 -25l151 164q-55 106 -55 248q0 305 174 522q170 213 430 213q170 0 271 -100l92 100h102l-151 -164q55 -106 55 -247q0 -309 -174 -523q-170 -213 -428 -213q-168 0 -270 101l-95 -101h-102zM432 291q4 -211 96.5 -211t159.5 158q61 145 111 446zM444 414l367 395 q-4 209 -96 209t-160 -158q-62 -145 -111 -446z" />
<glyph unicode="&#xf9;" horiz-adv-x="1138" vert-adv-y="2504" d="M166 188q0 76 12 134l98 487l19 98q6 35 6 43q0 51 -76 54l-16 2l16 92h406l-150 -744q-16 -76 -16 -114q0 -84 90 -84q102 0 207 137l102 516l19 98q8 45 8 47q0 47 -64 50l-18 2l18 92h392l-160 -807l-19 -101q-2 -8 -4 -18t-3 -16t-1 -9q0 -49 76 -53l18 -2l-18 -92 h-403l34 182q-152 -207 -352 -207q-221 0 -221 213zM543 1604h299l176 -322h-131z" />
<glyph unicode="&#xfa;" horiz-adv-x="1138" vert-adv-y="2504" d="M166 188q0 76 12 134l98 487l19 98q6 35 6 43q0 51 -76 54l-16 2l16 92h406l-150 -744q-16 -76 -16 -114q0 -84 90 -84q102 0 207 137l102 516l19 98q8 45 8 47q0 47 -64 50l-18 2l18 92h392l-160 -807l-19 -101q-2 -8 -4 -18t-3 -16t-1 -9q0 -49 76 -53l18 -2l-18 -92 h-403l34 182q-152 -207 -352 -207q-221 0 -221 213zM609 1282l305 322h299l-471 -322h-133z" />
<glyph unicode="&#xfb;" horiz-adv-x="1138" vert-adv-y="2504" d="M166 188q0 76 12 134l98 487l19 98q6 35 6 43q0 51 -76 54l-16 2l16 92h406l-150 -744q-16 -76 -16 -114q0 -84 90 -84q102 0 207 137l102 516l19 98q8 45 8 47q0 47 -64 50l-18 2l18 92h392l-160 -807l-19 -101q-2 -8 -4 -18t-3 -16t-1 -9q0 -49 76 -53l18 -2l-18 -92 h-403l34 182q-152 -207 -352 -207q-221 0 -221 213zM448 1282l306 322h245l179 -322h-119l-207 195l-287 -195h-117z" />
<glyph unicode="&#xfc;" horiz-adv-x="1138" vert-adv-y="2504" d="M166 188q0 76 12 134l98 487l19 98q6 35 6 43q0 51 -76 54l-16 2l16 92h406l-150 -744q-16 -76 -16 -114q0 -84 90 -84q102 0 207 137l102 516l19 98q8 45 8 47q0 47 -64 50l-18 2l18 92h392l-160 -807l-19 -101q-2 -8 -4 -18t-3 -16t-1 -9q0 -49 76 -53l18 -2l-18 -92 h-403l34 182q-152 -207 -352 -207q-221 0 -221 213zM496 1282l43 211h209l-43 -211h-209zM903 1282l41 211h209l-41 -211h-209z" />
<glyph unicode="&#xfd;" vert-adv-y="2504" d="M72 -395l405 401l-158 799l-20 102q-18 94 -80 97l-18 2l18 92h524l-18 -92l-20 -2h-11h-14h-10l-8 -3q-25 -8 -33 -12q-6 -4 -13 -14q-10 -18 -10 -39q0 -6 2 -14v-13q4 -37 19 -104l78 -412l229 412l10 18l10 17q8 16 15 26l30 64q12 25 13 47q0 22 -43 24l-29 3l-18 2 l18 92h303l-18 -92l-19 -2h-28q-49 -2 -95 -95l-10 -20l-45 -82l-670 -1202h-286zM701 1282l305 322h299l-471 -322h-133z" />
<glyph unicode="&#xfe;" horiz-adv-x="1138" vert-adv-y="2504" d="M-80 -395l19 94h18q68 4 82 25q14 16 27 71l20 101l281 1392l18 101q6 33 6 43q0 47 -76 53l-18 2l18 92h406l-133 -664q68 96 125 140q92 68 207 67q309 0 309 -381q0 -319 -187 -542q-184 -223 -452 -224q-78 0 -187 25l-18 -104l-18 -101l-4.5 -18t-3.5 -16.5t-1 -8.5 q0 -49 76 -53h19l-19 -94h-514zM438 166q89 -49 148 -49q131 0 227 182q98 184 98 426q0 207 -143 207q-100 0 -201 -119z" />
<glyph unicode="&#xff;" vert-adv-y="2504" d="M72 -395l405 401l-158 799l-20 102q-18 94 -80 97l-18 2l18 92h524l-18 -92l-20 -2h-11h-14h-10l-8 -3q-25 -8 -33 -12q-6 -4 -13 -14q-10 -18 -10 -39q0 -6 2 -14v-13q4 -37 19 -104l78 -412l229 412l10 18l10 17q8 16 15 26l30 64q12 25 13 47q0 22 -43 24l-29 3l-18 2 l18 92h303l-18 -92l-19 -2h-28q-49 -2 -95 -95l-10 -20l-45 -82l-670 -1202h-286zM569 1282l43 211h209l-41 -211h-211zM977 1282l43 211h209l-41 -211h-211z" />
<glyph unicode="&#x131;" horiz-adv-x="567" vert-adv-y="2504" d="M41 0l16 92l21 2q65 3 80 25q14 16 26 71l23 101l102 518l19 98q2 8 4 18.5t3 16.5t1 8q0 49 -78 54l-16 2l16 92h406l-162 -807l-17 -101q-2 -8 -4 -18t-3 -16t-1 -9q0 -49 76 -53l18 -2l-18 -92h-512z" />
<glyph unicode="&#x152;" horiz-adv-x="2048" vert-adv-y="2504" d="M203 526q0 409 246 701q248 291 591 291q144 0 289 -80l8 43h908l-54 -267h-147l2 21q0 2 1 5t2 8t1 12q2 27 4 34l2 6l4 9l2 8l2 6v2q-10 27 -16 33q-33 25 -121 24h-301l-113 -563h201l98 2q43 0 54 15q8 10 14 38q0 2 3 17.5t7 28.5l6 18h136l-66 -322h-133l2 19v10 l2 10q0 2 1 7.5t1 9.5v4q4 20 4 31q0 20 -51 22l-94 4h-207l-88 -442q-18 -82 -19 -135q0 -29 31 -41q25 -8 60 -9l69 -2h125l115 5q70 0 88 55l18 78l6 16h148l-51 -258h-953l11 43q-174 -80 -324 -80q-240 0 -383 150q-141 147 -141 413zM516 418q0 -356 236 -357 q123 0 225 84q68 57 106 162q39 106 72 268l66 322q39 188 39 287q0 106 -66 172q-63 63 -172 63q-233 0 -385 -379q-121 -307 -121 -622z" />
<glyph unicode="&#x153;" horiz-adv-x="1478" vert-adv-y="2504" d="M139 381q0 313 168 526q169 215 418 215q178 0 272 -118q145 119 310 118q264 0 264 -293q0 -129 -31 -268l-4 -22h-487q-25 -125 -25 -207q0 -207 182 -207q113 0 260 68l-30 -150q-174 -68 -324 -68q-193 0 -297 119q-145 -119 -326 -119q-350 0 -350 406zM424 276 q0 -197 90 -196q78 0 152 166q125 274 125 579q0 193 -89 193q-78 0 -153 -168q-125 -281 -125 -574zM1073 633h201q47 240 47 313q0 84 -51 84q-109 0 -197 -397z" />
<glyph unicode="&#x178;" horiz-adv-x="1478" vert-adv-y="2504" d="M281 1389l18 92h641l-18 -92h-17l-51 -3q-74 0 -74 -38q0 -43 51 -166l168 -414l340 414q119 145 119 176t-90 31h-20l18 92h406l-19 -92l-18 -3l-43 -4q-61 -6 -109 -65l-115 -135l-450 -541l-72 -350l-12 -101l-8 -32q2 -53 125 -64l16 -2l-18 -92h-629l18 92l21 2 q111 6 125 27q20 23 30 69l25 101l70 348l-228 543l-18 45l-14 33q-6 12 -15 38q-29 84 -82 86l-53 2zM858 1604l43 211h209l-41 -211h-211zM1266 1604l43 211h209l-41 -211h-211z" />
<glyph unicode="&#x2c6;" horiz-adv-x="681" vert-adv-y="2504" d="M233 1282l306 322h245l179 -322h-119l-207 195l-287 -195h-117z" />
<glyph unicode="&#x2da;" horiz-adv-x="681" vert-adv-y="2504" d="M696 1751q84 0 138 -51q55 -52 55 -135q0 -111 -88 -197q-86 -86 -201 -86q-76 0 -125 43q-66 55 -65 145q0 106 88 195q87 86 198 86zM680 1659q-72 0 -123 -51q-53 -53 -53 -119q0 -113 114 -113q63 0 111 41q66 55 66 129q0 113 -115 113z" />
<glyph unicode="&#x2dc;" horiz-adv-x="681" vert-adv-y="2504" d="M250 1282q23 102 63 166q68 100 187 100q66 0 129 -32l65 -37q66 -35 105 -35q78 0 106 104h94q-23 -98 -63 -164q-68 -102 -188 -102q-61 0 -127 35l-68 35q-68 37 -104 37q-78 0 -107 -107h-92z" />
<glyph unicode="&#x2000;" horiz-adv-x="980" vert-adv-y="0" />
<glyph unicode="&#x2001;" horiz-adv-x="1961" vert-adv-y="0" />
<glyph unicode="&#x2002;" horiz-adv-x="980" vert-adv-y="0" />
<glyph unicode="&#x2003;" horiz-adv-x="1961" vert-adv-y="0" />
<glyph unicode="&#x2004;" horiz-adv-x="653" vert-adv-y="0" />
<glyph unicode="&#x2005;" horiz-adv-x="489" vert-adv-y="0" />
<glyph unicode="&#x2006;" horiz-adv-x="325" vert-adv-y="0" />
<glyph unicode="&#x2007;" horiz-adv-x="325" vert-adv-y="0" />
<glyph unicode="&#x2008;" horiz-adv-x="243" vert-adv-y="0" />
<glyph unicode="&#x2009;" horiz-adv-x="391" vert-adv-y="0" />
<glyph unicode="&#x200a;" horiz-adv-x="108" vert-adv-y="0" />
<glyph unicode="&#x2010;" horiz-adv-x="681" vert-adv-y="2504" d="M154 518l28 148h584l-31 -148h-581z" />
<glyph unicode="&#x2011;" horiz-adv-x="681" vert-adv-y="2504" d="M154 518l28 148h584l-31 -148h-581z" />
<glyph unicode="&#x2012;" horiz-adv-x="681" vert-adv-y="2504" d="M154 518l28 148h584l-31 -148h-581z" />
<glyph unicode="&#x2013;" vert-adv-y="2504" d="M180 537l33 159h877l-33 -159h-877z" />
<glyph unicode="&#x2014;" horiz-adv-x="2048" vert-adv-y="2504" d="M207 537l24 122h1852l-27 -122h-1849z" />
<glyph unicode="&#x2018;" horiz-adv-x="681" vert-adv-y="2504" d="M360 963l52 247q72 338 395 369l-21 -92q-129 -14 -163 -205h122l-63 -319h-322z" />
<glyph unicode="&#x2019;" horiz-adv-x="681" vert-adv-y="2504" d="M385 963l18 92q133 16 164 202h-123l66 322h319l-49 -248q-71 -341 -395 -368z" />
<glyph unicode="&#x201a;" horiz-adv-x="681" vert-adv-y="2504" d="M133 -297l19 94q133 16 163 203h-122l63 322h322l-50 -248q-71 -342 -395 -371z" />
<glyph unicode="&#x201c;" vert-adv-y="2504" d="M315 987l43 217q68 332 371 375l-18 -92q-137 -23 -152 -205h113l-62 -295h-295zM784 987l43 217q68 332 371 375l-18 -92q-137 -23 -152 -205h113l-62 -295h-295z" />
<glyph unicode="&#x201d;" vert-adv-y="2504" d="M340 987l18 92q137 20 152 203h-111l60 297h295l-43 -217q-68 -332 -371 -375zM809 987l18 92q137 18 152 203h-113l62 297h295l-43 -217q-68 -332 -371 -375z" />
<glyph unicode="&#x201e;" vert-adv-y="2504" d="M84 -297l16 92q139 23 154 205h-113l60 297h297l-43 -219q-68 -332 -371 -375zM553 -297l16 92q139 23 154 205h-113l60 297h297l-43 -219q-68 -332 -371 -375z" />
<glyph unicode="&#x2022;" horiz-adv-x="716" vert-adv-y="2504" d="M250 793q0 129 104 229q102 100 238 100q98 0 162 -63q61 -61 61 -162q0 -127 -102 -227q-106 -102 -238 -103q-84 0 -147 54q-78 66 -78 172z" />
<glyph unicode="&#x2026;" horiz-adv-x="2048" vert-adv-y="2504" d="M229 0l45 221h222l-43 -221h-224zM913 0l43 221h224l-45 -221h-222zM1595 0l45 221h222l-45 -221h-222z" />
<glyph unicode="&#x202f;" horiz-adv-x="391" vert-adv-y="0" />
<glyph unicode="&#x2039;" horiz-adv-x="681" vert-adv-y="2504" d="M178 549l533 438l63 -61l-297 -377l146 -377l-88 -61z" />
<glyph unicode="&#x203a;" horiz-adv-x="681" vert-adv-y="2504" d="M127 172l297 377l-145 377l88 61l358 -438l-535 -438z" />
<glyph unicode="&#x205f;" horiz-adv-x="489" vert-adv-y="0" />
<glyph unicode="&#x20ac;" vert-adv-y="2504" d="M111 555l41 98h73q12 102 39 187h-96l41 98h86q61 152 121 248q209 332 532 332q115 0 318 -66l-58 -281h-147l4 21q10 43 10 108q0 121 -129 121q-137 0 -239 -157q-70 -111 -127 -326h436l-53 -98h-406l-10 -41q-3 -9 -12 -56q-2 -18 -13 -63l-4 -27h346l-53 -98h-307 q-14 -98 -15 -156q0 -313 244 -313q111 0 260 80l-24 -131q-168 -72 -301 -72q-203 0 -328 133q-127 137 -127 363q0 57 2 96h-104z" />
<glyph unicode="&#x2122;" horiz-adv-x="2048" vert-adv-y="2504" d="M287 1245l47 236h837l-47 -236h-104l27 137h-203l-111 -555h117l-21 -100h-454l18 100h119l111 555h-205l-27 -137h-104zM1120 727l21 100h110l111 555h-111l21 99h368l82 -412l240 412h356l-18 -99h-119l-110 -555h118l-20 -100h-346l98 490l-262 -426h-92l-84 389 l-90 -453h-273z" />
<glyph unicode="&#xe000;" horiz-adv-x="1100" vert-adv-y="2200" d="M0 1100h1100v-1100h-1100v1100z" />
<glyph unicode="&#xf001;" horiz-adv-x="1138" vert-adv-y="2504" d="M45 0l21 92l18 2q68 6 84 29q14 18 22 67l23 101l141 708h-108l20 99h109l10 53q96 453 477 453q117 0 217 -48l-51 -247h-123l2 16l13 76q4 33 4 45q0 59 -56 59q-115 0 -161 -225l-37 -182h555l-160 -807l-18 -101l-4.5 -18t-3.5 -15t-1 -10q0 -51 76 -53l19 -2 l-19 -92h-504l21 92q61 2 82 21q20 16 32 77l23 101l141 708h-258l-141 -708l-18 -101q-8 -31 -9 -45q0 -51 84 -53l-18 -92h-504z" />
<glyph unicode="&#xfb01;" horiz-adv-x="1138" vert-adv-y="2504" d="M45 0l21 92l18 2q68 6 84 29q14 18 22 67l23 101l141 708h-108l20 99h109l10 53q96 453 477 453q117 0 217 -48l-51 -247h-123l2 16l13 76q4 33 4 45q0 59 -56 59q-115 0 -161 -225l-37 -182h555l-160 -807l-18 -101l-4.5 -18t-3.5 -15t-1 -10q0 -51 76 -53l19 -2 l-19 -92h-504l21 92q61 2 82 21q20 16 32 77l23 101l141 708h-258l-141 -708l-18 -101q-8 -31 -9 -45q0 -51 84 -53l-18 -92h-504z" />
<glyph unicode="&#xf002;" horiz-adv-x="1138" vert-adv-y="2504" d="M45 0l18 92l21 2q65 3 80 25q14 16 26 71l23 101l141 708h-108l18 99h111l10 53q96 453 477 453q104 0 160 -23l6 -2h293l-256 -1288l-18 -101l-4.5 -18t-3.5 -15t-1 -10q0 -49 76 -53l19 -2l-19 -92h-504l19 92q63 2 84 21q20 16 32 77l23 101l227 1143q-49 72 -116 71 q-125 0 -172 -225l-37 -182h108l-18 -99h-111l-141 -708l-16 -101q-8 -31 -9 -45q0 -51 84 -53l-18 -92h-504z" />
<glyph unicode="&#xfb02;" horiz-adv-x="1138" vert-adv-y="2504" d="M45 0l18 92l21 2q65 3 80 25q14 16 26 71l23 101l141 708h-108l18 99h111l10 53q96 453 477 453q104 0 160 -23l6 -2h293l-256 -1288l-18 -101l-4.5 -18t-3.5 -15t-1 -10q0 -49 76 -53l19 -2l-19 -92h-504l19 92q63 2 84 21q20 16 32 77l23 101l227 1143q-49 72 -116 71 q-125 0 -172 -225l-37 -182h108l-18 -99h-111l-141 -708l-16 -101q-8 -31 -9 -45q0 -51 84 -53l-18 -92h-504z" />
<glyph unicode="&#xfb03;" horiz-adv-x="1931" vert-adv-y="2504" d="M1405 0l16 92l21 2q65 3 80 25q14 16 26 71l23 101l102 518l19 98q2 8 4 18.5t3 16.5t1 8q0 49 -78 54l-16 2l16 92h406l-162 -807l-17 -101q-2 -8 -4 -18t-3 -16t-1 -9q0 -49 76 -53l18 -2l-18 -92h-512zM1770 1282l59 297h295l-60 -297h-294zM719 0l18 92l19 2 q68 6 84 28.5t24 67.5l23 101l139 708h-106l18 99h109l10 45q96 461 452 461q127 0 222 -64l-48 -231h-129l2 16l9 61q4 37 4 52q0 70 -60 69q-61 0 -88 -73q-23 -57 -49 -193l-28 -143h190l-18 -99h-193l-141 -708l-19 -101q-6 -34 -6 -43q0 -51 100 -53l43 -2l-18 -92 h-563zM37 0l18 92l19 2q68 6 84 28.5t24 67.5l23 101l139 708h-106l18 99h109l10 45q96 461 452 461q127 0 222 -64l-48 -231h-129l2 16l9 61q4 37 4 52q0 70 -60 69q-61 0 -88 -73q-23 -57 -49 -193l-28 -143h190l-18 -99h-193l-141 -708l-19 -101q-6 -34 -6 -43 q0 -51 100 -53l43 -2l-18 -92h-563z" />
<glyph unicode="&#xfb04;" horiz-adv-x="1931" vert-adv-y="2504" d="M1405 0l16 92l21 2q65 3 80 25q14 16 26 71l23 101l199 997l18 101q6 34 6 43q0 43 -74 53l-18 2l18 92h404l-258 -1288l-17 -101q-2 -8 -4 -18t-3 -16t-1 -9q0 -49 76 -53l18 -2l-18 -92h-512zM719 0l18 92l19 2q68 6 84 28.5t24 67.5l23 101l139 708h-106l18 99h109 l10 45q96 461 452 461q127 0 222 -64l-48 -231h-129l2 16l9 61q4 37 4 52q0 70 -60 69q-61 0 -88 -73q-23 -57 -49 -193l-28 -143h190l-18 -99h-193l-141 -708l-19 -101q-6 -34 -6 -43q0 -51 100 -53l43 -2l-18 -92h-563zM37 0l18 92l19 2q68 6 84 28.5t24 67.5l23 101 l139 708h-106l18 99h109l10 45q96 461 452 461q127 0 222 -64l-48 -231h-129l2 16l9 61q4 37 4 52q0 70 -60 69q-61 0 -88 -73q-23 -57 -49 -193l-28 -143h190l-18 -99h-193l-141 -708l-19 -101q-6 -34 -6 -43q0 -51 100 -53l43 -2l-18 -92h-563z" />
</font>
</defs>
</svg>
