<?xml version="1.0" standalone="no"?>
<!DOCTYPE svg PUBLIC "-//W3C//DTD SVG 1.1//EN" "http://www.w3.org/Graphics/SVG/1.1/DTD/svg11.dtd" >
<svg xmlns="http://www.w3.org/2000/svg">
<metadata>
This is a custom SVG webfont generated by Font Squirrel.
Copyright   : Lacuna   2001 by Peter Hoffmann
</metadata>
<defs>
<font id="webfontTyPHRm3W" horiz-adv-x="1165" >
<font-face units-per-em="2048" ascent="1638" descent="-410" />
<missing-glyph horiz-adv-x="542" />
<glyph unicode=" "  horiz-adv-x="542" />
<glyph unicode="&#x09;" horiz-adv-x="542" />
<glyph unicode="&#xa0;" horiz-adv-x="542" />
<glyph unicode="!" horiz-adv-x="909" d="M238 104q6 55 47 93.5t96 38.5t91 -39t30 -93q-8 -55 -49 -94t-95 -39q-57 0 -92.5 39t-27.5 94zM340 434l129 1163h205l-189 -1163h-145z" />
<glyph unicode="&#x22;" horiz-adv-x="679" d="M10 1675h189l-45 -456h-105zM399 1675h189l-45 -456h-105z" />
<glyph unicode="#" horiz-adv-x="1441" d="M123 600v131h225l41 285h-213v131h232l84 602h141l-84 -602h420l84 602h141l-84 -602h209v-131h-227l-41 -285h213v-131h-232l-84 -600h-141l84 600h-420l-84 -600h-141l84 600h-207zM489 731h420l41 285h-420z" />
<glyph unicode="$" horiz-adv-x="1388" d="M176 141l100 129q178 -131 392 -131q326 0 358 244q2 16 2 35q0 109 -102 203q-47 43 -207 143q-174 111 -244 178q-147 141 -133 293q18 193 190 295q141 84 342 84q209 0 447 -127l-78 -139q-182 113 -371 112q-121 0 -208 -47q-111 -59 -123 -178q-10 -100 106 -203 q43 -37 215 -147q360 -233 361 -463q0 -217 -179 -336q-154 -102 -378 -102q-143 0 -299 59q-117 43 -191 98zM506 -244l39 295l139 4l-39 -299h-139zM731 1534l43 321h137l-41 -317z" />
<glyph unicode="%" horiz-adv-x="1744" d="M123 1313q0 166 124 288.5t290 122.5q143 0 237 -89t94 -226q0 -168 -118.5 -293t-286.5 -125q-143 0 -241.5 92.5t-98.5 229.5zM125 -41l1300 1774h162l-1300 -1774h-162zM270 1321q0 -88 53.5 -140.5t139.5 -52.5q113 0 186.5 79t73.5 190q0 88 -54.5 140t-142.5 52 q-111 0 -183.5 -78.5t-72.5 -189.5zM877 315q0 168 123.5 291t291.5 123q141 0 235.5 -89t94.5 -226q0 -168 -119 -293t-286 -125q-141 0 -240.5 91t-99.5 228zM1024 324q0 -86 53 -138.5t142 -52.5q111 0 184.5 78t73.5 190q0 86 -53.5 139.5t-143.5 53.5 q-111 0 -183.5 -79.5t-72.5 -190.5z" />
<glyph unicode="&#x26;" horiz-adv-x="1835" d="M205 518q0 260 173 443.5t423 183.5q125 0 223 -41l197 266h180l-889 -1155q39 -61 143.5 -106.5t210.5 -45.5q219 0 379 156q227 225 228 563q0 92 -21 172h-123l17 131h565l-17 -131h-276q16 -80 16 -168q0 -178 -63.5 -351t-165.5 -279q-113 -121 -223 -174 q-137 -63 -336 -64q-240 0 -434 170q-207 180 -207 430zM369 526q0 -109 49 -200l518 657q-47 16 -109 16q-223 0 -354 -176q-104 -141 -104 -297z" />
<glyph unicode="'" horiz-adv-x="557" d="M246 1675h188l-45 -456h-104z" />
<glyph unicode="(" horiz-adv-x="694" d="M123 410q0 137 16 268q47 354 199 659q84 168 237 381l119 -76q-150 -231 -209 -360q-129 -281 -178 -639q-18 -129 -18 -266q0 -399 133 -758l-131 -65q-168 401 -168 856z" />
<glyph unicode=")" horiz-adv-x="817" d="M123 -371q150 229 211 361q127 279 176 639q18 129 18 266q0 399 -133 758l131 65q168 -401 168 -858q0 -135 -16 -268q-47 -352 -199 -658q-82 -170 -237 -380z" />
<glyph unicode="*" horiz-adv-x="1132" d="M195 1161l245 137l-209 140l66 90l221 -129l43 274h107l-25 -274l254 135l41 -96l-252 -148l209 -139l-64 -88l-217 127l-43 -266h-112l30 266l-253 -121z" />
<glyph unicode="+" horiz-adv-x="1030" d="M123 481l18 131h314l43 314h139l-43 -314h313l-18 -131h-314l-43 -313h-139l43 313h-313z" />
<glyph unicode="," horiz-adv-x="651" d="M195 121q4 53 42.5 87t94.5 34q53 0 89 -42t36 -100q0 -166 -205 -333l-45 40q29 23 65.5 81.5t36.5 88.5q0 18 -16 21q-104 14 -98 123z" />
<glyph unicode="-" horiz-adv-x="690" d="M123 502l18 131h426l-18 -131h-426z" />
<glyph unicode="." horiz-adv-x="512" d="M125 109q6 55 46 92t95 37t92 -41t29 -97q-8 -53 -48 -90t-93 -37q-55 0 -92 41.5t-29 94.5z" />
<glyph unicode="/" horiz-adv-x="1091" d="M123 0l797 1749h161l-796 -1749h-162z" />
<glyph unicode="0" horiz-adv-x="1325" d="M143 461q0 55 9 114q41 309 231 472q158 133 362 133q184 0 310 -107q147 -129 147 -377q0 -57 -8 -121q-41 -309 -229 -471q-158 -133 -363 -133q-178 0 -305 109q-154 133 -154 381zM319 463q0 -346 291 -346q195 0 305 164q78 117 103 294q8 55 8 107q0 352 -293 352 q-195 0 -303 -164q-78 -117 -102 -295q-9 -57 -9 -112z" />
<glyph unicode="1" horiz-adv-x="985" d="M143 0l21 147h252l110 842l-250 -90l-47 119l338 149h168l-137 -1020h264l-20 -147h-699z" />
<glyph unicode="2" horiz-adv-x="1222" d="M143 0l23 160l473 329q133 92 186 146q86 86 99 176q2 20 2 39q0 186 -226 186q-172 0 -329 -159l-90 100q190 205 430 205q186 0 290 -90q98 -86 99 -230q0 -27 -4 -55q-27 -207 -336 -414l-365 -246h637l-20 -147h-869z" />
<glyph unicode="3" horiz-adv-x="1284" d="M143 -254l113 100q43 -61 127 -110q96 -55 184 -55q119 0 207 75q98 82 117 230q6 37 6 69q0 264 -258 271l-115 4l21 153h104q147 0 243.5 94.5t96.5 241.5q0 98 -65.5 157.5t-169.5 59.5q-80 0 -174 -47q-80 -41 -134 -94l-96 96q180 190 410 191q197 0 309 -119 q106 -111 90 -275q-31 -295 -282 -385q82 -39 135 -120q61 -96 61 -226q0 -219 -131 -366q-137 -156 -354 -156q-158 0 -291 76q-105 59 -154 135z" />
<glyph unicode="4" horiz-adv-x="1273" d="M143 0l15 102l663 1049h189l-623 -1001h401l68 485h180l-71 -485h186l-21 -150h-186l-72 -475h-172l64 475h-621z" />
<glyph unicode="5" horiz-adv-x="1204" d="M143 -254l117 90q119 -156 270 -155q139 0 224 110q76 98 98 268q8 55 8 105q0 279 -227 278q-106 0 -207 -65h-131l108 778h678l-20 -151h-500l-65 -459q92 45 180 45q186 0 282 -135q80 -113 80 -289q0 -43 -6 -88q-29 -227 -137 -369q-133 -174 -358 -174 q-242 0 -394 211z" />
<glyph unicode="6" horiz-adv-x="1216" d="M143 520q0 68 9 144q51 412 241 651q180 227 420 227q172 0 281 -115l-86 -106q-70 82 -211 82t-275 -152q-145 -164 -182 -407q117 133 324 133q147 0 264 -96q164 -133 149 -396q-29 -502 -485 -501q-152 0 -270 92q-179 139 -179 444zM303 457q0 -141 77 -231.5 t218 -90.5q152 0 229 111q70 96 70 250q0 131 -53 219q-68 109 -205 110q-160 4 -252 -106q-84 -100 -84 -262z" />
<glyph unicode="7" horiz-adv-x="1146" d="M143 -459l658 1454h-582l19 148h786l-14 -105l-676 -1497h-191z" />
<glyph unicode="8" horiz-adv-x="1234" d="M143 430q10 289 279 420q-147 123 -133 311q10 139 110 246q125 133 336 133q152 0 260 -88q127 -104 115 -287q-8 -139 -94 -237q-57 -68 -119 -88q86 -51 141 -152q63 -117 58 -250q-25 -453 -500 -452q-184 0 -315 116q-144 129 -138 328zM313 440q-6 -170 115 -252 q82 -53 182 -53q285 0 308 285q12 170 -78 266q-78 82 -201 82q-117 0 -207 -68q-115 -88 -119 -260zM446 1174q-10 -125 76 -201q72 -59 156 -60q96 0 166 45q96 61 106 197q8 123 -69 188q-66 55 -164 56q-100 0 -174 -53q-89 -61 -97 -172z" />
<glyph unicode="9" horiz-adv-x="1196" d="M145 668q14 270 174 403q133 111 330 111q186 0 299 -133q125 -145 125 -414q0 -57 -6 -119q-41 -451 -190 -700q-168 -285 -461 -285q-135 0 -246 76l76 114q74 -51 180 -51q172 0 295 187q109 168 147 434q-100 -115 -290 -115q-152 0 -275 94q-174 132 -158 398z M315 680q-12 -135 56 -238q74 -113 209 -112q299 0 327 325q2 29 2 54q0 147 -72.5 237t-197.5 90q-152 0 -236 -106q-74 -92 -88 -250z" />
<glyph unicode=":" horiz-adv-x="634" d="M125 109q6 55 46 92t95 37t92 -41t29 -97q-8 -53 -48 -90t-93 -37q-55 0 -92 41.5t-29 94.5zM248 981q6 55 46 91t95 36t92 -41t29 -94q-6 -55 -47 -92t-94 -37q-55 0 -92 41t-29 96z" />
<glyph unicode=";" horiz-adv-x="626" d="M123 121q4 53 45 87t96 34q53 0 89 -43t32 -99q-12 -156 -205 -333l-45 40q29 23 66 81.5t37 88.5q0 18 -17 21q-104 14 -98 123zM238 981q8 55 48 91t95 36t92 -41t29 -94q-8 -55 -48 -92t-96 -37q-53 0 -89.5 41t-30.5 96z" />
<glyph unicode="&#x3c;" horiz-adv-x="1359" d="M51 635l6 41l465 639l117 -80l-342 -500h872l-24 -172h-877l221 -512l-133 -71z" />
<glyph unicode="=" horiz-adv-x="1253" d="M215 483l18 131h764l-18 -131h-764zM256 793l18 131h764l-18 -131h-764z" />
<glyph unicode="&#x3e;" horiz-adv-x="1363" d="M123 563l22 172h875l-203 496l121 65l303 -620l-4 -41l-473 -655l-119 79l346 504h-868z" />
<glyph unicode="?" horiz-adv-x="1044" d="M205 1483q188 129 395 129q193 0 308.5 -87t115.5 -247q0 -29 -4 -59q-18 -129 -113 -218l-196 -149q-164 -129 -189 -301l-20 -154h-170l20 189q23 205 242 372l162 113q80 68 88 162q10 115 -72 172q-68 47 -182 47q-150 0 -316 -102zM250 109q8 55 48 92t95 37t91 -41 t30 -97q-8 -53 -48 -90t-95 -37t-91 41.5t-30 94.5z" />
<glyph unicode="@" horiz-adv-x="2076" d="M174 369q0 82 12 168q57 434 322 698q276 272 690 272q354 0 563 -221q203 -219 203 -579q0 -82 -10 -170q-20 -141 -82 -287q-70 -160 -160 -250h-450q-27 39 -21 96q-119 -115 -266 -114q-150 0 -248 114q-104 121 -104 332q0 63 10 133q43 287 211 414q115 88 262 88 q145 0 244 -80l14 61h166l-111 -811q-8 -51 4 -96h226q123 186 151 400q10 84 10 163q0 301 -155 478q-164 186 -469 186q-346 0 -574 -236q-217 -225 -266 -591q-12 -84 -12 -162q0 -303 158 -479q168 -186 471 -187q92 0 167 10l-4 -139q-125 -14 -182 -14 q-352 0 -561 221.5t-209 581.5zM803 424q0 -141 57.5 -219t140.5 -78q137 0 254 184l70 504q-100 98 -223 98q-96 0 -170 -77q-92 -100 -123 -312q-6 -53 -6 -100z" />
<glyph unicode="A" horiz-adv-x="1320" d="M-41 0l913 1608h179l188 -1608h-178l-49 504h-582l-276 -504h-195zM504 647h489l-71 748h-15l-47 -97z" />
<glyph unicode="B" horiz-adv-x="1388" d="M205 0l231 1597h438q256 0 386 -112q110 -97 109 -259q0 -17 -1 -34q-10 -135 -102 -242q-66 -72 -140 -106v-13q86 -37 145 -143q50 -91 49 -193q0 -18 -1 -36q-39 -459 -596 -459h-518zM412 145h293q406 0 436 295q2 27 2 52q0 270 -363 270h-278zM518 897h262 q410 0 410 320q0 236 -318 235h-272z" />
<glyph unicode="C" horiz-adv-x="1282" d="M195 641q0 74 10 156q53 410 284 633q193 184 433 184q334 0 483 -299l-141 -68q-106 213 -330 213q-219 0 -365 -196q-129 -178 -166 -467q-10 -80 -10 -154q0 -229 92 -364q98 -141 273 -142q236 0 387 223l121 -81q-193 -293 -523 -293q-217 0 -370 155 q-178 181 -178 500z" />
<glyph unicode="D" horiz-adv-x="1464" d="M205 0l231 1597h369q281 0 455 -155q195 -172 194 -494q0 -49 -4 -100q-41 -434 -256 -649q-197 -199 -526 -199h-463zM412 145l221 -2q326 0 479 209q119 164 154 494q6 59 6 112q0 494 -484 494h-186z" />
<glyph unicode="E" horiz-adv-x="1263" d="M205 0l229 1597h901l-20 -145h-717l-80 -559h641l-20 -145h-641l-86 -603h759l-20 -145h-946z" />
<glyph unicode="F" horiz-adv-x="1200" d="M205 0l231 1597h918l-21 -145h-733l-80 -559h649l-22 -145h-647l-107 -748h-188z" />
<glyph unicode="G" horiz-adv-x="1538" d="M195 645q0 72 10 152q49 420 295 637q205 180 481 180q340 0 489 -299l-139 -66q-96 211 -366 211q-223 0 -379 -183t-195 -484q-8 -74 -8 -144q0 -227 92 -362q104 -147 301 -148q188 0 314 121q115 111 137 281l16 135h-383l21 147h559l-111 -823h-131l27 199 q-98 -104 -183 -150q-119 -63 -292 -63q-229 0 -381 157q-174 180 -174 502z" />
<glyph unicode="H" horiz-adv-x="1525" d="M205 0l227 1597h182l-100 -710h707l102 710h184l-229 -1597h-182l106 743h-708l-107 -743h-182z" />
<glyph unicode="I" horiz-adv-x="751" d="M158 0l14 115h111l198 1368h-123l17 114h418l-17 -114h-112l-197 -1368h123l-17 -115h-415z" />
<glyph unicode="J" horiz-adv-x="696" d="M20 -242q217 33 265 353l215 1486h186l-215 -1482q-31 -203 -135 -336q-115 -143 -299 -172z" />
<glyph unicode="K" horiz-adv-x="1355" d="M205 0l233 1597h185l-111 -776l739 776h207l-620 -643l481 -954h-184l-414 836l-242 -256l-90 -580h-184z" />
<glyph unicode="L" horiz-adv-x="1114" d="M205 0l231 1597h187l-211 -1454h692l-21 -143h-878z" />
<glyph unicode="M" horiz-adv-x="1767" d="M205 0l231 1597h269l192 -1335h12l557 1335h283l-225 -1599l-172 2l207 1415h-13l-622 -1425h-115l-215 1440h-12l-205 -1430h-172z" />
<glyph unicode="N" horiz-adv-x="1568" d="M205 0l229 1597h254l481 -1374h15l196 1374h170l-231 -1597h-221l-504 1411h-16l-207 -1411h-166z" />
<glyph unicode="O" horiz-adv-x="1570" d="M195 631q0 80 12 168q55 408 299 626q207 188 479 189q231 0 391 -158q184 -182 185 -500q0 -76 -11 -157q-55 -406 -299 -625q-207 -188 -477 -188q-236 0 -395 149q-184 174 -184 496zM381 643q0 -227 96 -360q106 -145 314 -146q281 0 444 275q141 231 141 530 q0 225 -96 365q-109 154 -311 153q-283 0 -449 -278q-139 -234 -139 -539z" />
<glyph unicode="P" horiz-adv-x="1310" d="M205 0l231 1597h412q283 0 424 -122q122 -103 122 -277q0 -16 -1 -33q-33 -475 -621 -475h-280l-103 -690h-184zM512 836h276q188 0 302 75q129 90 129 269q0 119 -86 190q-98 82 -289 82h-242z" />
<glyph unicode="Q" horiz-adv-x="1570" d="M195 637q0 78 12 162q55 408 299 626q207 188 477 189q231 0 393 -158q184 -182 185 -500q0 -76 -11 -157q-49 -360 -252 -578l203 -225l-115 -102l-202 227q-190 -137 -408 -137q-227 0 -389 151q-192 180 -192 502zM379 641q0 -229 96 -360q104 -145 311 -146 q164 0 295 101l-202 225l112 102l197 -219q186 242 186 594q0 227 -98 367q-109 158 -311 157q-285 0 -449 -280q-137 -236 -137 -541z" />
<glyph unicode="R" horiz-adv-x="1341" d="M205 0l231 1597h475q219 0 349 -116q123 -111 122 -283q0 -182 -105.5 -311t-283.5 -156l283 -731h-176l-277 713h-327l-109 -713h-182zM516 862h352q158 0 246 86t88 242q0 113 -69 180q-80 80 -236 80h-299z" />
<glyph unicode="S" horiz-adv-x="1204" d="M82 141l100 129q178 -131 391 -131q326 0 359 244q2 16 2 35q0 109 -103 203q-47 43 -206 143q-176 111 -246 178q-132 129 -132 266q0 14 1 27q18 193 190 295q141 84 342 84q209 0 445 -127l-76 -139q-182 113 -371 112q-121 0 -209 -47q-113 -59 -123 -178 q-1 -8 0 -16q0 -92 107 -187q43 -37 215 -147q360 -233 360 -463q0 -217 -178 -336q-154 -102 -379 -102q-143 0 -299 59q-116 43 -190 98z" />
<glyph unicode="T" horiz-adv-x="874" d="M154 1452l18 145h1112l-18 -145h-467l-211 -1452h-189l211 1452h-456z" />
<glyph unicode="U" horiz-adv-x="1501" d="M225 477q0 57 8 121l148 999h182l-143 -1009q-8 -57 -8 -107q0 -186 106 -276q86 -72 215 -72q152 0 260 86q137 111 172 348l150 1030h186l-149 -1032q-43 -301 -230 -450q-162 -131 -397 -131q-195 0 -332 108q-168 135 -168 385z" />
<glyph unicode="V" horiz-adv-x="1161" d="M205 1597h174l221 -1386h16l62 158l539 1253l149 -74l-682 -1548h-211z" />
<glyph unicode="W" horiz-adv-x="1812" d="M205 1597h162l125 -1364h12l35 115l485 1249h184l168 -1364h13l34 115l441 1266l153 -55l-561 -1559h-196l-168 1348h-13l-41 -125l-479 -1223h-199z" />
<glyph unicode="X" horiz-adv-x="1200" d="M-41 59l643 779l-377 759h193l301 -612l518 639l127 -100l-569 -703l376 -821h-194l-303 676l-596 -717z" />
<glyph unicode="Y" horiz-adv-x="1040" d="M164 1597h190l324 -747h14l516 772l140 -94l-605 -879l-96 -649h-184l96 657z" />
<glyph unicode="Z" horiz-adv-x="1150" d="M20 0l17 137l1010 1313h-801l20 147h1039l-17 -118l-1024 -1332h862l-20 -147h-1086z" />
<glyph unicode="[" horiz-adv-x="847" d="M123 -408l283 2083h442l-19 -143h-251l-244 -1796h252l-21 -144h-442z" />
<glyph unicode="\" horiz-adv-x="970" d="M123 1749h162l563 -1749h-162z" />
<glyph unicode="]" horiz-adv-x="970" d="M123 -408l20 144h250l244 1796h-250l19 143h442l-283 -2083h-442z" />
<glyph unicode="^" horiz-adv-x="806" d="M10 1284l262 299h131l172 -299h-137l-119 176l-163 -176h-146z" />
<glyph unicode="_" horiz-adv-x="1079" d="M123 -131l18 131h815l-18 -131h-815z" />
<glyph unicode="`" horiz-adv-x="628" d="M205 1587h153l66 -315h-135z" />
<glyph unicode="a" d="M123 430q0 78 12 162q45 291 213 420q115 90 266 90q168 0 263 -78l16 61h166l-115 -784q-14 -96 -14 -158q0 -47 18 -143h-155q-28 47 -28 102q0 10 1 21q-131 -139 -311 -139q-152 0 -242 118.5t-90 327.5zM301 420q0 -287 178 -287q92 0 185 74q78 61 112 135l76 518 q-96 92 -242 92q-96 0 -172 -82q-96 -104 -127 -315q-10 -72 -10 -135z" />
<glyph unicode="b" horiz-adv-x="1071" d="M133 381q0 57 8 121l170 1173h176l-104 -692q109 119 270 119q135 0 224 -72q123 -104 122 -338q0 -57 -8 -125q-70 -584 -512 -583q-139 0 -233 88q-113 106 -113 309zM303 377q0 -121 62 -187q53 -57 131 -57q106 0 184 82q96 102 125 315q10 78 10 142q0 281 -182 280 q-86 0 -170 -67q-74 -61 -115 -152l-41 -282q-4 -39 -4 -74z" />
<glyph unicode="c" horiz-adv-x="897" d="M123 451q0 41 4 86q27 285 164 432q125 133 313 133q162 0 283 -127l-111 -101q-63 78 -176 78q-104 0 -178 -84q-90 -106 -113 -329q-6 -55 -6 -105q0 -301 221 -301q139 0 234 94l92 -110q-160 -133 -354 -133q-147 0 -250 104q-123 130 -123 363z" />
<glyph unicode="d" horiz-adv-x="1155" d="M123 430q0 78 12 162q45 291 213 420q115 90 266 90q162 0 256 -78l91 651h174l-191 -1374q-14 -92 -14 -154q0 -49 20 -147h-155q-28 45 -29 98q0 12 2 25q-131 -139 -313 -139q-152 0 -242 119.5t-90 326.5zM301 420q0 -287 178 -287q92 0 185 74q78 61 112 135l72 518 q-96 92 -238 92q-96 0 -172 -82q-96 -104 -127 -315q-10 -72 -10 -135z" />
<glyph unicode="e" horiz-adv-x="1026" d="M123 453q0 41 4 84q27 285 164 432q127 133 323 133q170 0 270 -88q92 -81 91 -207v-21q-8 -131 -107 -223q-86 -78 -217 -106q-74 -16 -157 -17q-96 0 -193 21v-25q0 -302 240 -303q139 0 260 90l80 -119q-150 -121 -365 -120q-158 0 -266 106q-127 127 -127 363z M315 592q47 -16 152 -17q59 0 113 9q180 29 202 188q2 16 2 31q0 78 -63 119q-49 31 -117 30q-236 0 -289 -360z" />
<glyph unicode="f" horiz-adv-x="626" d="M-102 -424l20 148q205 0 227 167l146 1057h-148l19 137h149l39 291q43 295 415 295h5l-20 -149q-205 0 -228 -166l-37 -271h203l-18 -137h-205l-150 -1075q-41 -297 -412 -297h-5z" />
<glyph unicode="g" horiz-adv-x="1173" d="M133 -326l90 113q92 -90 232 -90q250 0 282 231l25 174q-123 -121 -293 -120q-150 0 -239 120.5t-89 329.5q0 76 13 160q45 291 211 422q115 90 266 90q160 0 258 -80l14 61h168l-162 -1157q-29 -207 -172 -305q-115 -76 -280 -76q-100 0 -203 47q-76 37 -121 80z M319 418q0 -291 175 -291q94 0 184 78q70 59 108 137l76 520q-96 92 -235 92q-96 0 -172 -84q-94 -104 -125 -315q-11 -74 -11 -137z" />
<glyph unicode="h" horiz-adv-x="1204" d="M133 0l234 1675h174l-99 -700q137 127 310 127q129 0 213 -68q106 -86 106 -266q0 -47 -8 -98l-92 -670h-174l92 655q6 57 6 101q0 197 -172 196q-109 0 -209 -88q-74 -66 -102 -129q0 2 -105 -735h-174z" />
<glyph unicode="i" horiz-adv-x="538" d="M143 270q0 35 7 72l104 743h174l-104 -739q-6 -41 -7 -74q0 -125 91 -139l-21 -149q-106 0 -175 77.5t-69 208.5zM316 1461q34 32 81 32q43 0 73 -31q28 -29 28 -68v-5q-2 -45 -37 -79t-80 -34t-74 32q-27 30 -27 69q0 50 36 84z" />
<glyph unicode="j" horiz-adv-x="540" d="M-102 -422q106 66 157 166q45 92 70 262l154 1079h172l-150 -1087q-31 -221 -133 -375q-90 -131 -207 -178zM339 1461q34 32 81 32q43 0 73.5 -30.5t26.5 -73.5q-2 -45 -36.5 -79t-77.5 -34q-45 0 -75 32q-28 30 -28 69q0 50 36 84z" />
<glyph unicode="k" horiz-adv-x="1048" d="M133 0l232 1675h174l-140 -1003l467 411h224l-439 -387l322 -696h-172l-271 588l-163 -139l-60 -449h-174z" />
<glyph unicode="l" horiz-adv-x="536" d="M133 270q0 35 4 72l185 1333h174l-183 -1329q-6 -41 -6 -74q0 -125 90 -139l-20 -149q-106 0 -175 77.5t-69 208.5z" />
<glyph unicode="m" horiz-adv-x="1812" d="M154 0h172l108 758q37 74 111 129q84 66 168 65q172 0 172 -198q0 -33 -6 -72l-93 -682h175l100 756q35 66 100 123q82 74 164 73q182 0 182 -209q0 -39 -6 -86l-90 -657h174l86 655q8 53 8 101q0 180 -100 270q-82 76 -209 76q-190 0 -338 -154q-90 154 -282 154 q-92 0 -182.5 -45t-139.5 -113q-8 94 -29 141h-145q20 -55 20 -149q0 -59 -8 -125z" />
<glyph unicode="n" horiz-adv-x="1220" d="M154 0l112 811q8 66 8 125q0 94 -20 149h145q20 -47 29 -141q137 158 340 158q131 0 213 -68q106 -86 106 -266q0 -47 -6 -98l-92 -670h-174l90 655q8 57 8 101q0 197 -174 196q-109 0 -209 -88q-74 -66 -100 -129l-104 -735h-172z" />
<glyph unicode="o" horiz-adv-x="1064" d="M113 416q0 59 8 125q39 287 186 432q133 129 332 129q160 0 258 -98q117 -115 117 -336q0 -59 -10 -127q-74 -557 -506 -557q-168 0 -271 100q-114 113 -114 332zM293 408q0 -274 219 -275q258 0 311 408q10 76 11 137q0 274 -213 274q-264 0 -320 -411q-8 -74 -8 -133z " />
<glyph unicode="p" horiz-adv-x="1091" d="M31 -584l194 1395q10 66 11 127q0 92 -21 147h145q20 -47 29 -141q131 158 307 158q135 0 224 -74q121 -104 120 -338q0 -59 -6 -125q-43 -350 -229 -493q-117 -88 -281 -88q-59 0 -133 26.5t-96 52.5l-92 -647h-172zM317 229q23 -35 87.5 -65.5t125.5 -30.5 q106 0 187 80q98 102 131 315q12 80 12 148q0 276 -182 276q-88 0 -169 -66.5t-122 -154.5z" />
<glyph unicode="q" horiz-adv-x="1116" d="M123 434q0 76 12 158q45 291 211 420q117 90 268 90q162 0 256 -78l17 61h168l-236 -1669h-174l98 678q-121 -113 -290 -112q-150 0 -240 121.5t-90 330.5zM301 420q0 -287 176 -287q96 0 187 72q74 59 112 133l72 522q-96 92 -240 92q-96 0 -172 -82q-94 -104 -125 -315 q-10 -72 -10 -135z" />
<glyph unicode="r" horiz-adv-x="796" d="M154 0l114 811q10 68 11 129q0 90 -21 145h143q25 -51 31 -143q129 160 295 160q84 0 152 -35l-82 -141q-35 23 -101 22q-98 0 -188 -96q-70 -76 -76 -115l-106 -737h-172z" />
<glyph unicode="s" horiz-adv-x="882" d="M41 94l84 131q137 -92 272 -92q203 0 203 127q0 74 -76 141q-6 4 -123.5 88t-154.5 121q-98 100 -99 213q0 141 132 217q106 61 245 62q164 0 318 -82l-74 -133q-123 68 -233 67q-82 0 -138 -28q-70 -35 -69 -101q0 -90 198 -223q115 -80 152 -117q100 -98 100 -213 q0 -158 -131 -233q-98 -55 -241 -55q-213 -1 -365 110z" />
<glyph unicode="t" horiz-adv-x="677" d="M127 950l18 133h148l37 252h174l-37 -250h205l-19 -135h-204l-82 -590q-4 -35 -5 -61q0 -150 177 -166l-23 -149q-135 0 -227 75q-102 84 -103 234q0 31 7 63l81 594h-147z" />
<glyph unicode="u" horiz-adv-x="1175" d="M154 338q0 51 8 108l88 639h174l-90 -655q-8 -51 -8 -92q0 -205 180 -205q104 0 192 96q57 61 90 136l103 720h172l-111 -811q-10 -66 -10 -124q0 -92 21 -150h-146q-31 66 -29 139q-137 -156 -319 -155q-135 0 -217 77q-98 93 -98 277z" />
<glyph unicode="v" horiz-adv-x="907" d="M61 1085h177l153 -743l17 -135h8l53 135l358 768l142 -78l-498 -1032h-180z" />
<glyph unicode="w" horiz-adv-x="1482" d="M92 1085h174l121 -876h6l49 135l301 741h162l109 -741l12 -135h6l43 133l322 766l147 -68l-452 -1040h-177l-120 811h-9l-55 -143l-280 -668h-172z" />
<glyph unicode="x" horiz-adv-x="948" d="M-72 61l469 500l-256 524h189l184 -389l373 410l112 -102l-401 -437l281 -567h-197l-201 428l-444 -467z" />
<glyph unicode="y" horiz-adv-x="907" d="M-133 -422q98 70 131 98q84 72 154 168q99 143 98 341q0 32 -2 65q-27 373 -199 835h170q49 -106 109 -383q70 -313 69 -514h13q246 455 401 922l147 -63q-121 -387 -329 -762q-152 -272 -236 -391q-197 -274 -438 -439z" />
<glyph unicode="z" horiz-adv-x="946" d="M31 0l16 123l629 827h-479l18 135h700l-14 -104l-645 -844h535l-19 -137h-741z" />
<glyph unicode="{" horiz-adv-x="671" d="M123 610l14 107q127 0 150 160l78 573q14 104 77.5 164.5t159.5 60.5h131l-16 -116h-78q-92 0 -109 -115l-77 -588q-10 -76 -59.5 -128t-119.5 -62l-2 -4q125 -20 125 -160q0 -18 -2 -35l-84 -643q-2 -16 -2 -31q0 -84 78 -84h78l-14 -117h-142q-78 0 -124 49.5 t-46 133.5q0 20 2 43l86 633q4 23 4 41q1 118 -108 118z" />
<glyph unicode="|" horiz-adv-x="708" d="M215 -410l293 2159h139l-293 -2159h-139z" />
<glyph unicode="}" horiz-adv-x="774" d="M41 -408l16 117h78q92 0 107 115l77 588q10 76 59.5 128t121.5 62v4q-125 20 -125 160q0 18 4 35l84 643q2 16 2 31q0 84 -80 84h-78l17 116h141q76 0 123 -49t47 -133q0 -20 -4 -43l-86 -633q-2 -23 -2 -41q0 -119 108 -119l-14 -106q-127 0 -150 -160l-77 -573 q-14 -104 -78 -165t-160 -61h-131z" />
<glyph unicode="~" horiz-adv-x="747" d="M61 1421q98 84 207 84q47 0 120 -33.5t99 -33.5q80 0 136 43l63 -101q-100 -78 -197 -77q-45 0 -116.5 31.5t-114.5 31.5q-80 0 -131 -43z" />
<glyph unicode="&#xa1;" horiz-adv-x="561" d="M82 -29l188 1164h146l-129 -1164h-205zM256 1464q6 55 47 94t94 39q57 0 93 -38.5t30 -94.5q-8 -55 -49 -93t-96 -38t-91 39t-28 92z" />
<glyph unicode="&#xa2;" horiz-adv-x="937" d="M102 451q0 41 4 86q27 285 164 432q125 133 314 133q162 0 282 -127l-110 -101q-63 78 -176 78q-104 0 -179 -84q-90 -106 -112 -329q-6 -55 -6 -105q0 -301 221 -301q139 0 233 94l92 -110q-160 -133 -354 -133q-147 0 -250 106q-123 128 -123 361zM330 -223l41 301h125 l-41 -301h-125zM502 1038l37 262h125l-37 -262h-125z" />
<glyph unicode="&#xa3;" horiz-adv-x="1376" d="M123 -16l18 131q207 2 230 174l53 387h-193l17 125h192l41 262q68 436 422 436q205 0 338 -201l-102 -88q-113 154 -240 154q-213 0 -256 -324l-33 -239h203l-16 -125h-203l-51 -373q-4 -33 -11 -53q100 -123 287 -123q213 0 299 252l135 -41q-53 -174 -168.5 -266 t-273.5 -92q-180 0 -354 124q-80 -74 -164 -100q-64 -20 -170 -20z" />
<glyph unicode="&#xa4;" horiz-adv-x="1615" d="M123 600l16 119h977l-16 -119h-977zM164 903l16 119h977l-16 -119h-977zM324 641q0 74 12 156q51 410 285 633q193 184 430 184q334 0 483 -299l-141 -68q-104 213 -328 213q-221 0 -365 -196q-131 -178 -168 -467q-10 -80 -10 -154q0 -229 94 -364q96 -141 273 -142 q233 0 385 223l121 -81q-193 -293 -521 -293q-217 0 -370 155q-180 181 -180 500z" />
<glyph unicode="&#xa5;" horiz-adv-x="1224" d="M205 1597h190l324 -747h14l516 772l140 -94l-605 -879l-96 -649h-184l96 657zM305 580l19 129h784l-18 -129h-785z" />
<glyph unicode="&#xa7;" horiz-adv-x="1122" d="M123 -184l90 116q61 -53 152 -53q80 0 139 51.5t59 130.5q0 68 -63 162l-121 162q-154 205 -154 381q0 207 217 334q-43 82 -43 174q0 102 62 176q55 61 108 88q70 33 183 33q135 0 247 -70l-84 -117q-78 51 -161 52q-70 0 -123 -37q-61 -41 -72 -115q-10 -78 82 -217 l127 -174q94 -143 100 -154q57 -106 52 -215q-12 -219 -222 -344q23 -70 23 -131q0 -113 -78 -201q-104 -119 -272 -118q-63 0 -141 28.5t-107 57.5zM387 760q0 -139 250 -457q66 57 82 82q31 47 41 131q8 80 -43 174l-92 137l-105 158q-133 -96 -133 -225z" />
<glyph unicode="&#xa8;" horiz-adv-x="782" d="M123 1382q2 47 36 79t81 32q43 0 73.5 -30.5t26.5 -73.5q-2 -45 -37 -79t-78 -34q-45 0 -74.5 31.5t-27.5 74.5zM442 1382q2 47 36 79t81 32q45 0 75 -30.5t25 -73.5q-2 -45 -36.5 -79t-77.5 -34q-45 0 -75 31.5t-28 74.5z" />
<glyph unicode="&#xa9;" horiz-adv-x="2033" d="M123 412q0 68 6 139q41 426 310.5 688t674.5 262q365 0 584 -229q213 -223 213 -584q0 -78 -13 -158q-57 -438 -311 -698q-266 -272 -678 -272q-381 0 -590 239q-196 228 -196 613zM287 395q0 -305 157 -489q168 -193 465 -193q344 0 561 232q203 215 252 585 q12 86 13 164q0 299 -156 473q-162 180 -457 181q-348 0 -565 -218q-209 -209 -258 -573q-12 -84 -12 -162zM592 444q0 45 4 93q27 285 162 432q123 133 309 133q176 0 289 -127l-111 -101q-23 35 -75 57.5t-107 22.5q-88 0 -166 -88q-102 -113 -123 -327q-6 -53 -6 -101 q0 -315 223 -315q59 0 137 35q72 31 103 63l86 -104q-82 -72 -154 -103q-86 -33 -215 -32q-143 0 -241 106q-115 125 -115 356z" />
<glyph unicode="&#xaa;" horiz-adv-x="899" d="M123 1221q0 49 8 102q31 205 148 295q80 63 186 63q113 0 180 -55l12 43h119l-78 -549q-18 -135 -2 -211h-123q-18 27 -14 68q-84 -80 -190 -80q-109 0 -177.5 87t-68.5 237zM248 1221q0 -100 39 -158.5t100 -58.5q59 0 125 55q43 37 66 74l51 368q-72 70 -168 70 q-168 0 -207 -273q-6 -40 -6 -77z" />
<glyph unicode="&#xab;" horiz-adv-x="1425" d="M123 590l4 35l487 460h203l-512 -483l361 -479h-183zM621 590l6 35l485 460h203l-512 -483l360 -479h-182z" />
<glyph unicode="&#xac;" horiz-adv-x="1042" d="M123 602l18 131h779l-52 -377h-139l35 246h-641z" />
<glyph unicode="&#xad;" horiz-adv-x="690" d="M123 502l18 131h426l-18 -131h-426z" />
<glyph unicode="&#xae;" horiz-adv-x="2033" d="M123 412q0 68 6 139q41 426 310.5 688t674.5 262q365 0 584 -229q213 -223 213 -584q0 -78 -13 -158q-57 -438 -311 -698q-266 -272 -678 -272q-381 0 -590 239q-196 228 -196 613zM287 395q0 -305 157 -489q168 -193 465 -193q344 0 561 232q203 215 252 585 q12 86 13 164q0 299 -156 473q-162 180 -457 181q-348 0 -565 -218q-209 -209 -258 -573q-12 -84 -12 -162zM582 0l147 1083h338q213 0 313 -94q94 -86 82 -244q-20 -242 -239 -309l149 -436h-186l-123 414h-256l-57 -414h-168zM827 565h201q121 0 176 31q76 39 90 156 q23 180 -237 180h-180z" />
<glyph unicode="&#xaf;" horiz-adv-x="749" d="M158 1358l18 131h508l-18 -131h-508z" />
<glyph unicode="&#x2c9;" horiz-adv-x="749" d="M158 1358l18 131h508l-18 -131h-508z" />
<glyph unicode="&#xb0;" horiz-adv-x="993" d="M125 1360q12 162 133 263t279 101q143 0 238 -91t95 -234q0 -23 -2 -47q-20 -172 -137 -269q-106 -90 -256 -90q-160 0 -262 102.5t-88 264.5zM268 1327q0 -86 60.5 -141.5t146.5 -55.5q109 0 178.5 74t69.5 185q0 88 -58.5 144t-148.5 56q-106 0 -177 -76.5t-71 -185.5z " />
<glyph unicode="&#xb1;" horiz-adv-x="1097" d="M123 270l18 131h764l-16 -131h-766zM193 795l18 131h313l41 313h140l-43 -313h313l-17 -131h-313l-43 -314h-139l43 314h-313z" />
<glyph unicode="&#xb2;" horiz-adv-x="1222" d="M143 0l23 160l473 329q133 92 186 146q86 86 99 176q2 20 2 39q0 186 -226 186q-172 0 -329 -159l-90 100q190 205 430 205q186 0 290 -90q98 -86 99 -230q0 -27 -4 -55q-27 -207 -336 -414l-365 -246h637l-20 -147h-869z" />
<glyph unicode="&#xb3;" horiz-adv-x="1284" d="M143 -254l113 100q43 -61 127 -110q96 -55 184 -55q119 0 207 75q98 82 117 230q6 37 6 69q0 264 -258 271l-115 4l21 153h104q147 0 243.5 94.5t96.5 241.5q0 98 -65.5 157.5t-169.5 59.5q-80 0 -174 -47q-80 -41 -134 -94l-96 96q180 190 410 191q197 0 309 -119 q106 -111 90 -275q-31 -295 -282 -385q82 -39 135 -120q61 -96 61 -226q0 -219 -131 -366q-137 -156 -354 -156q-158 0 -291 76q-105 59 -154 135z" />
<glyph unicode="&#xb4;" horiz-adv-x="548" d="M123 1272l149 315h154l-170 -315h-133z" />
<glyph unicode="&#xb5;" horiz-adv-x="1388" d="M123 -606l227 1691h174l-96 -714q-2 -25 -2 -49q0 -188 170 -189q100 0 184 72q27 23 103 114l106 766h174l-112 -811q-6 -57 -7 -110q0 -102 25 -164h-143q-27 53 -33 150q-84 -90 -119 -113q-80 -53 -201 -53q-125 0 -184 102l-92 -692h-174z" />
<glyph unicode="&#x3bc;" horiz-adv-x="1388" d="M123 -606l227 1691h174l-96 -714q-2 -25 -2 -49q0 -188 170 -189q100 0 184 72q27 23 103 114l106 766h174l-112 -811q-6 -57 -7 -110q0 -102 25 -164h-143q-27 53 -33 150q-84 -90 -119 -113q-80 -53 -201 -53q-125 0 -184 102l-92 -692h-174z" />
<glyph unicode="&#xb6;" horiz-adv-x="1134" d="M174 1284q0 162 121 275.5t285 113.5h18l-96 -708h-19q-133 0 -221 93t-88 226zM256 -424l18 139q207 0 228 168l237 1790h355l-19 -137l-180 -2l-221 -1661q-39 -299 -418 -297z" />
<glyph unicode="&#xb7;" horiz-adv-x="512" d="M125 601q6 55 46 92t95 37t92 -41t29 -97q-8 -53 -48 -90t-93 -37q-55 0 -92 41.5t-29 94.5z" />
<glyph unicode="&#x2219;" horiz-adv-x="512" d="M125 601q6 55 46 92t95 37t92 -41t29 -97q-8 -53 -48 -90t-93 -37q-55 0 -92 41.5t-29 94.5z" />
<glyph unicode="&#xb8;" horiz-adv-x="577" d="M-68 -451l62 58q37 -31 84 -31q106 0 125 131q14 102 -72 131q-39 12 -84 0l80 215h104l-53 -145q117 -39 117 -174q0 -100 -62.5 -172t-160.5 -72q-91 0 -140 59z" />
<glyph unicode="&#xb9;" horiz-adv-x="985" d="M143 0l21 147h252l110 842l-250 -90l-47 119l338 149h168l-137 -1020h264l-20 -147h-699z" />
<glyph unicode="&#xba;" horiz-adv-x="876" d="M123 1198q0 43 6 90q27 201 131 301q92 92 232 92q111 0 180 -69q82 -80 82 -234q0 -43 -6 -90q-53 -391 -361 -391q-117 0 -186 70q-78 79 -78 231zM250 1206q0 -203 153 -202q180 0 218 284q6 43 6 80q0 203 -154 203q-180 0 -217 -283q-6 -45 -6 -82z" />
<glyph unicode="&#xbb;" horiz-adv-x="1343" d="M111 123l512 483l-359 479h182l359 -467l-6 -34l-486 -461h-202zM608 123l512 483l-358 479h182l359 -467l-5 -34l-487 -461h-203z" />
<glyph unicode="&#xbc;" horiz-adv-x="3350" d="M2220 0l15 102l663 1049h189l-623 -1001h401l68 485h180l-71 -485h186l-21 -150h-186l-72 -475h-172l64 475h-621zM1108 0l797 1749h161l-796 -1749h-162zM143 0l21 147h252l110 842l-250 -90l-47 119l338 149h168l-137 -1020h264l-20 -147h-699z" />
<glyph unicode="&#xbd;" horiz-adv-x="3299" d="M2220 0l23 160l473 329q133 92 186 146q86 86 99 176q2 20 2 39q0 186 -226 186q-172 0 -329 -159l-90 100q190 205 430 205q186 0 290 -90q98 -86 99 -230q0 -27 -4 -55q-27 -207 -336 -414l-365 -246h637l-20 -147h-869zM1108 0l797 1749h161l-796 -1749h-162zM143 0 l21 147h252l110 842l-250 -90l-47 119l338 149h168l-137 -1020h264l-20 -147h-699z" />
<glyph unicode="&#xbe;" horiz-adv-x="3649" d="M2519 0l15 102l663 1049h189l-623 -1001h401l68 485h180l-71 -485h186l-21 -150h-186l-72 -475h-172l64 475h-621zM1407 0l797 1749h161l-796 -1749h-162zM143 -254l113 100q43 -61 127 -110q96 -55 184 -55q119 0 207 75q98 82 117 230q6 37 6 69q0 264 -258 271l-115 4 l21 153h104q147 0 243.5 94.5t96.5 241.5q0 98 -65.5 157.5t-169.5 59.5q-80 0 -174 -47q-80 -41 -134 -94l-96 96q180 190 410 191q197 0 309 -119q106 -111 90 -275q-31 -295 -282 -385q82 -39 135 -120q61 -96 61 -226q0 -219 -131 -366q-137 -156 -354 -156 q-158 0 -291 76q-105 59 -154 135z" />
<glyph unicode="&#xbf;" horiz-adv-x="978" d="M123 317q0 25 4 52q16 129 109 217l192 147q168 133 193 301l20 154h170l-16 -156q-8 -98 -78 -211q-72 -119 -174 -198l-160 -117q-78 -70 -84 -154q-10 -121 76 -182q70 -49 168 -49q100 0 178 31q41 18 147 84l70 -134q-188 -129 -395 -129q-195 0 -307.5 95 t-112.5 249zM629 1485q8 53 49 90t94 37q55 0 91 -41t30 -94q-8 -57 -48 -93t-95 -36q-53 0 -90 41t-31 96z" />
<glyph unicode="&#xc0;" horiz-adv-x="1320" d="M-41 0l897 1530h178l205 -1530h-178l-53 449h-598l-256 -449h-195zM483 592h506l-84 725h-14l-47 -96zM805 1954h153l66 -316h-135z" />
<glyph unicode="&#xc1;" horiz-adv-x="1320" d="M-41 0l897 1530h178l205 -1530h-178l-53 449h-598l-256 -449h-195zM483 592h506l-84 725h-14l-47 -96zM911 1638l152 316h151l-170 -316h-133z" />
<glyph unicode="&#xc2;" horiz-adv-x="1323" d="M-41 0l897 1530h178l205 -1530h-178l-53 449h-598l-256 -449h-195zM483 592h506l-84 725h-14l-47 -96zM676 1624l262 299h131l172 -299h-139l-117 176l-164 -176h-145z" />
<glyph unicode="&#xc3;" horiz-adv-x="1359" d="M-41 0l897 1530h178l205 -1530h-178l-53 449h-598l-256 -449h-195zM483 592h506l-84 725h-14l-47 -96zM659 1747q94 84 197 84q47 0 112.5 -34t92.5 -34q53 0 69 4q41 8 101 50l47 -111q-111 -78 -199 -78q-43 0 -107.5 32t-109.5 32q-84 0 -147 -52z" />
<glyph unicode="&#xc4;" horiz-adv-x="1374" d="M-41 0l897 1530h178l205 -1530h-178l-53 449h-598l-256 -449h-195zM483 592h506l-84 725h-14l-47 -96zM653 1729q2 47 36 78.5t81 31.5q43 0 72.5 -29.5t27.5 -72.5q-2 -47 -36.5 -80t-79.5 -33t-74 31t-27 74zM1075 1729q2 47 36 78.5t81 31.5q43 0 73.5 -29.5 t26.5 -72.5q-2 -47 -36.5 -80t-77.5 -33q-45 0 -75 31t-28 74z" />
<glyph unicode="&#xc5;" horiz-adv-x="1320" d="M-41 0l897 1530h178l205 -1530h-178l-53 449h-598l-256 -449h-195zM483 592h506l-84 725h-14l-47 -96zM793 1843q12 86 76.5 145.5t148.5 59.5t138 -59.5t44 -145.5q-10 -84 -72.5 -144.5t-144.5 -60.5q-84 0 -142 61.5t-48 143.5zM887 1843q-6 -43 23.5 -74.5 t74.5 -31.5t78 30.5t39 75.5t-21.5 77t-72.5 32t-80 -32t-41 -77z" />
<glyph unicode="&#xc6;" horiz-adv-x="1830" d="M-61 0l1030 1597h934l-21 -147h-663l-76 -555h583l-20 -147h-584l-80 -601h699l-21 -147h-886l67 504h-440l-328 -504h-194zM535 647h385l98 737h-6l-43 -73z" />
<glyph unicode="&#xc7;" horiz-adv-x="1282" d="M195 641q0 74 10 156q53 410 284 633q193 184 433 184q334 0 483 -299l-141 -68q-106 213 -330 213q-219 0 -365 -196q-129 -178 -166 -467q-10 -80 -10 -154q0 -229 92 -364q98 -141 273 -142q236 0 387 223l121 -81q-193 -293 -523 -293q-217 0 -370 155 q-178 181 -178 500zM505 -451l62 58q37 -31 84 -31q106 0 125 131q14 102 -72 131q-39 12 -84 0l80 215h104l-53 -145q117 -39 117 -174q0 -100 -62.5 -172t-160.5 -72q-91 0 -140 59z" />
<glyph unicode="&#xc8;" horiz-adv-x="1247" d="M205 0l201 1487h913l-21 -148h-725l-67 -489h645l-21 -148h-645l-73 -555h759l-20 -147h-946zM721 1954h153l66 -316h-135z" />
<glyph unicode="&#xc9;" horiz-adv-x="1247" d="M205 0l201 1487h913l-21 -148h-725l-67 -489h645l-21 -148h-645l-73 -555h759l-20 -147h-946zM778 1638l150 316h153l-170 -316h-133z" />
<glyph unicode="&#xca;" horiz-adv-x="1247" d="M205 0l201 1487h913l-21 -148h-725l-67 -489h645l-21 -148h-645l-73 -555h759l-20 -147h-946zM604 1638l262 299h131l172 -299h-137l-119 177l-163 -177h-146z" />
<glyph unicode="&#xcb;" horiz-adv-x="1247" d="M205 0l201 1487h913l-21 -148h-725l-67 -489h645l-21 -148h-645l-73 -555h759l-20 -147h-946zM575 1737q0 47 33 78.5t78 31.5q47 0 79 -31.5t32 -78.5q0 -45 -32 -78t-79 -33q-45 0 -78 33t-33 78zM987 1737q0 45 33 77.5t78 32.5q47 0 78.5 -31.5t31.5 -78.5 q0 -45 -31.5 -78t-78.5 -33q-45 0 -78 33t-33 78z" />
<glyph unicode="&#xcc;" horiz-adv-x="745" d="M158 0l14 115h123l172 1255h-123l14 115h422l-14 -115h-123l-172 -1255h123l-16 -115h-420zM416 1954h153l66 -316h-135z" />
<glyph unicode="&#xcd;" horiz-adv-x="753" d="M158 0l14 115h123l172 1255h-123l14 115h422l-14 -115h-123l-172 -1255h123l-16 -115h-420zM526 1638l150 316h153l-170 -316h-133z" />
<glyph unicode="&#xce;" horiz-adv-x="761" d="M158 0l14 115h123l172 1255h-123l14 115h422l-14 -115h-123l-172 -1255h123l-16 -115h-420zM305 1638l262 299h131l172 -299h-137l-117 177l-165 -177h-146z" />
<glyph unicode="&#xcf;" horiz-adv-x="763" d="M158 0l14 115h123l172 1255h-123l14 115h422l-14 -115h-123l-172 -1255h123l-16 -115h-420zM283 1735q0 45 32.5 77.5t77.5 32.5t78 -32.5t33 -77.5t-32 -78t-79 -33q-45 0 -77.5 33t-32.5 78zM690 1735q0 45 33 77.5t78 32.5t77.5 -32.5t32.5 -77.5t-31.5 -78t-78.5 -33 q-45 0 -78 33t-33 78z" />
<glyph unicode="&#xd1;" horiz-adv-x="1572" d="M205 0l213 1487h235l502 -1264h14l181 1264h157l-217 -1487h-205l-522 1300h-16l-191 -1300h-151zM684 1739q94 84 195 84q49 0 114.5 -34t91.5 -34q53 0 70 2q41 10 100 51l48 -110q-111 -78 -199 -78q-43 0 -107.5 31.5t-109.5 31.5q-84 0 -148 -51z" />
<glyph unicode="&#xd2;" horiz-adv-x="1560" d="M195 627q0 53 6 110q43 389 303 594q205 164 454 164q219 0 390 -154q203 -182 202 -495q0 -53 -6 -109q-45 -418 -301 -610q-188 -143 -448 -143q-211 0 -383 141q-217 178 -217 502zM379 629q0 -217 104 -350q115 -147 332 -148q223 0 368.5 162t176.5 444q6 55 6 107 q0 238 -121 370q-117 127 -309 127q-221 0 -368.5 -160.5t-182.5 -443.5q-6 -55 -6 -108zM854 1950h154l65 -316h-135z" />
<glyph unicode="&#xd3;" horiz-adv-x="1560" d="M195 627q0 53 6 110q43 389 303 594q205 164 454 164q219 0 390 -154q203 -182 202 -495q0 -53 -6 -109q-45 -418 -301 -610q-188 -143 -448 -143q-211 0 -383 141q-217 178 -217 502zM379 629q0 -217 104 -350q115 -147 332 -148q223 0 368.5 162t176.5 444q6 55 6 107 q0 238 -121 370q-117 127 -309 127q-221 0 -368.5 -160.5t-182.5 -443.5q-6 -55 -6 -108zM913 1638l150 316h154l-170 -316h-134z" />
<glyph unicode="&#xd4;" horiz-adv-x="1560" d="M195 627q0 53 6 110q43 389 303 594q205 164 454 164q219 0 390 -154q203 -182 202 -495q0 -53 -6 -109q-45 -418 -301 -610q-188 -143 -448 -143q-211 0 -383 141q-217 178 -217 502zM379 629q0 -217 104 -350q115 -147 332 -148q223 0 368.5 162t176.5 444q6 55 6 107 q0 238 -121 370q-117 127 -309 127q-221 0 -368.5 -160.5t-182.5 -443.5q-6 -55 -6 -108zM702 1638l265 299h131l170 -299h-138l-116 177l-166 -177h-146z" />
<glyph unicode="&#xd5;" horiz-adv-x="1560" d="M195 627q0 53 6 110q43 389 303 594q205 164 454 164q219 0 390 -154q203 -182 202 -495q0 -53 -6 -109q-45 -418 -301 -610q-188 -143 -448 -143q-211 0 -383 141q-217 178 -217 502zM379 629q0 -217 104 -350q115 -147 332 -148q223 0 368.5 162t176.5 444q6 55 6 107 q0 238 -121 370q-117 127 -309 127q-221 0 -368.5 -160.5t-182.5 -443.5q-6 -55 -6 -108zM707 1720q94 84 196 84q47 0 112.5 -33.5t94.5 -33.5q53 0 68 2q41 10 100 51l49 -111q-111 -78 -199 -77q-43 0 -108.5 31.5t-108.5 31.5q-84 0 -149 -51z" />
<glyph unicode="&#xd6;" horiz-adv-x="1560" d="M195 627q0 53 6 110q43 389 303 594q205 164 454 164q219 0 390 -154q203 -182 202 -495q0 -53 -6 -109q-45 -418 -301 -610q-188 -143 -448 -143q-211 0 -383 141q-217 178 -217 502zM379 629q0 -217 104 -350q115 -147 332 -148q223 0 368.5 162t176.5 444q6 55 6 107 q0 238 -121 370q-117 127 -309 127q-221 0 -368.5 -160.5t-182.5 -443.5q-6 -55 -6 -108zM713 1726q2 47 36.5 79t79.5 32t75 -29.5t28 -72.5q-4 -47 -38 -80t-79 -33t-74.5 30.5t-27.5 73.5zM1073 1726q4 47 38 79t79 32t74.5 -29.5t27.5 -72.5q-4 -47 -37.5 -80t-78.5 -33 t-75 30.5t-28 73.5z" />
<glyph unicode="&#xd8;" horiz-adv-x="1570" d="M195 635q0 78 12 164q55 408 303 626q211 188 483 189q139 0 260 -64l105 170h162l-152 -252q193 -180 193 -510q0 -76 -11 -159q-55 -406 -301 -627q-211 -188 -481 -188q-139 0 -260 63l-102 -168h-162l149 246q-198 178 -198 510zM379 641q0 -238 102 -369l688 1137 q-86 51 -200 51q-285 0 -451 -278q-139 -236 -139 -541zM588 180q84 -45 198 -45q281 0 447 275q143 233 143 532q0 231 -102 371z" />
<glyph unicode="&#xd9;" horiz-adv-x="1492" d="M225 479q0 57 8 119l140 956h184l-137 -966q-8 -57 -8 -107q0 -186 106 -276q86 -72 213 -72q154 0 262 86q137 111 172 348l144 987h184l-141 -989q-43 -301 -230 -450q-162 -131 -397 -131q-195 0 -332 108q-168 135 -168 387zM801 1954h153l66 -316h-135z" />
<glyph unicode="&#xda;" horiz-adv-x="1492" d="M225 479q0 57 8 119l140 956h184l-137 -966q-8 -57 -8 -107q0 -186 106 -276q86 -72 213 -72q154 0 262 86q137 111 172 348l144 987h184l-141 -989q-43 -301 -230 -450q-162 -131 -397 -131q-195 0 -332 108q-168 135 -168 387zM854 1634l152 316h151l-170 -316h-133z " />
<glyph unicode="&#xdb;" horiz-adv-x="1492" d="M225 479q0 57 8 119l140 956h184l-137 -966q-8 -57 -8 -107q0 -186 106 -276q86 -72 213 -72q154 0 262 86q137 111 172 348l144 987h184l-141 -989q-43 -301 -230 -450q-162 -131 -397 -131q-195 0 -332 108q-168 135 -168 387zM664 1638l262 299h131l172 -299h-139 l-117 177l-164 -177h-145z" />
<glyph unicode="&#xdc;" horiz-adv-x="1492" d="M225 479q0 57 8 119l140 956h184l-137 -966q-8 -57 -8 -107q0 -186 106 -276q86 -72 213 -72q154 0 262 86q137 111 172 348l144 987h184l-141 -989q-43 -301 -230 -450q-162 -131 -397 -131q-195 0 -332 108q-168 135 -168 387zM680 1726q2 47 36 79t81 32 q43 0 72.5 -29.5t27.5 -72.5q-2 -47 -37 -80t-80 -33t-73.5 30.5t-26.5 73.5zM1040 1726q2 47 36 79t81 32q43 0 74 -29.5t26 -72.5q-2 -47 -36.5 -80t-77.5 -33q-45 0 -75 30.5t-28 73.5z" />
<glyph unicode="&#xdd;" horiz-adv-x="1040" d="M1159 1745l149 315h154l-170 -315h-133zM164 1597h190l324 -747h14l516 772l140 -94l-605 -879l-96 -649h-184l96 657z" />
<glyph unicode="&#xdf;" horiz-adv-x="1073" d="M-154 -424l19 139q213 0 235 168l185 1407q23 178 133 275.5t280 97.5q182 0 275 -104q70 -80 69 -193q0 -106 -55 -209l-104 -156q-55 -84 -56 -153q0 -78 95.5 -234.5t83.5 -271.5q-16 -164 -124 -261t-255 -97q-129 0 -217 71l88 117q53 -39 135 -39q70 0 127 57.5 t69 145.5t-88 233q-104 156 -104 260q0 23 4 43q14 115 108.5 235t106.5 218q10 80 -31 135q-45 63 -133 64q-102 0 -168 -76q-53 -63 -65 -154l-193 -1403q-23 -166 -149 -247q-109 -68 -271 -68z" />
<glyph unicode="&#xe0;" d="M123 430q0 78 12 162q45 291 213 420q115 90 266 90q168 0 263 -78l16 61h166l-115 -784q-14 -96 -14 -158q0 -47 18 -143h-155q-28 47 -28 102q0 10 1 21q-131 -139 -311 -139q-152 0 -242 118.5t-90 327.5zM301 420q0 -287 178 -287q92 0 185 74q78 61 112 135l76 518 q-96 92 -242 92q-96 0 -172 -82q-96 -104 -127 -315q-10 -72 -10 -135zM541 1587h153l66 -315h-135z" />
<glyph unicode="&#xe1;" d="M123 430q0 78 12 162q45 291 213 420q115 90 266 90q168 0 263 -78l16 61h166l-115 -784q-14 -96 -14 -158q0 -47 18 -143h-155q-28 47 -28 102q0 10 1 21q-131 -139 -311 -139q-152 0 -242 118.5t-90 327.5zM301 420q0 -287 178 -287q92 0 185 74q78 61 112 135l76 518 q-96 92 -242 92q-96 0 -172 -82q-96 -104 -127 -315q-10 -72 -10 -135zM576 1272l149 315h154l-170 -315h-133z" />
<glyph unicode="&#xe2;" d="M123 430q0 78 12 162q45 291 213 420q115 90 266 90q168 0 263 -78l16 61h166l-115 -784q-14 -96 -14 -158q0 -47 18 -143h-155q-28 47 -28 102q0 10 1 21q-131 -139 -311 -139q-152 0 -242 118.5t-90 327.5zM301 420q0 -287 178 -287q92 0 185 74q78 61 112 135l76 518 q-96 92 -242 92q-96 0 -172 -82q-96 -104 -127 -315q-10 -72 -10 -135zM397 1284l264 299h131l170 -299h-137l-117 176l-166 -176h-145z" />
<glyph unicode="&#xe3;" d="M123 430q0 78 12 162q45 291 213 420q115 90 266 90q168 0 263 -78l16 61h166l-115 -784q-14 -96 -14 -158q0 -47 18 -143h-155q-28 47 -28 102q0 10 1 21q-131 -139 -311 -139q-152 0 -242 118.5t-90 327.5zM301 420q0 -287 178 -287q92 0 185 74q78 61 112 135l76 518 q-96 92 -242 92q-96 0 -172 -82q-96 -104 -127 -315q-10 -72 -10 -135zM381 1421q94 84 196 84q47 0 112.5 -33.5t94.5 -33.5q53 0 68 4q41 8 100 49l49 -111q-111 -78 -199 -77q-43 0 -108.5 31.5t-108.5 31.5q-84 0 -149 -51z" />
<glyph unicode="&#xe4;" d="M123 430q0 78 12 162q45 291 213 420q115 90 266 90q168 0 263 -78l16 61h166l-115 -784q-14 -96 -14 -158q0 -47 18 -143h-155q-33 55 -27 123q-131 -139 -311 -139q-152 0 -242 118.5t-90 327.5zM301 420q0 -287 178 -287q92 0 185 74q78 61 112 135l76 518 q-96 92 -242 92q-96 0 -172 -82q-96 -104 -127 -315q-10 -72 -10 -135zM389 1378q0 45 32 78t77 33t77.5 -32t32.5 -79q0 -45 -32.5 -77.5t-77.5 -32.5t-77 32.5t-32 77.5zM774 1378q0 47 32 79t79 32q45 0 77.5 -32t32.5 -79q0 -45 -32.5 -77.5t-77.5 -32.5q-47 0 -79 32.5 t-32 77.5z" />
<glyph unicode="&#xe5;" d="M123 430q0 78 12 162q45 291 213 420q115 90 266 90q168 0 263 -78l16 61h166l-115 -784q-14 -96 -14 -158q0 -47 18 -143h-155q-28 47 -28 102q0 10 1 21q-131 -139 -311 -139q-152 0 -242 118.5t-90 327.5zM301 420q0 -287 178 -287q92 0 185 74q78 61 112 135l76 518 q-96 92 -242 92q-96 0 -172 -82q-96 -104 -127 -315q-10 -72 -10 -135zM914 1447q-10 -86 -72.5 -145t-144.5 -59q-84 0 -143.5 61.5t-47.5 142.5q10 86 76 145.5t150 59.5t138 -60.5t44 -144.5zM816 1447q6 45 -22 77t-73 32t-79.5 -31.5t-41.5 -77.5q-6 -45 24 -75.5 t75 -30.5q43 0 77 30.5t40 75.5z" />
<glyph unicode="&#xe6;" horiz-adv-x="1538" d="M0 270q0 168 145 285q135 106 308 107q98 0 215 -29l16 115q2 27 2 49q0 162 -176 161q-135 0 -244 -65l-39 135q152 74 299 74q203 0 285 -156q41 63 123 109q94 49 196 49q166 0 265.5 -84t91.5 -234q-6 -131 -107 -223q-86 -78 -215 -106q-74 -16 -159 -17 q-94 0 -193 21q-2 -25 -2 -49q0 -131 63 -207q68 -82 187 -82q125 0 239 98l105 -104q-152 -135 -377 -135q-207 0 -305 159q-178 -160 -373 -159q-150 0 -246 73q-104 78 -104 215zM184 299q-6 -82 49 -127q49 -39 132 -39q158 0 253 111l29 241q-115 27 -198 27 q-92 0 -170 -55q-87 -62 -95 -158zM831 606q45 -18 150 -18q80 0 143 16q145 33 170 168q4 18 4 35q0 76 -63 117q-51 31 -117 30q-236 0 -287 -348z" />
<glyph unicode="&#xe7;" horiz-adv-x="897" d="M123 451q0 41 4 86q27 285 164 432q125 133 313 133q162 0 283 -127l-111 -101q-63 78 -176 78q-104 0 -178 -84q-90 -106 -113 -329q-6 -55 -6 -105q0 -301 221 -301q139 0 234 94l92 -110q-160 -133 -354 -133q-147 0 -250 104q-123 130 -123 363zM276 -451l62 58 q37 -31 84 -31q106 0 125 131q14 102 -72 131q-39 12 -84 0l80 215h104l-53 -145q117 -39 117 -174q0 -100 -62.5 -172t-160.5 -72q-91 0 -140 59z" />
<glyph unicode="&#xe8;" horiz-adv-x="1026" d="M123 453q0 41 4 84q27 285 164 432q127 133 323 133q170 0 270 -88q92 -81 91 -207v-21q-8 -131 -107 -223q-86 -78 -217 -106q-74 -16 -157 -17q-96 0 -193 21v-25q0 -302 240 -303q139 0 260 90l80 -119q-150 -121 -365 -120q-158 0 -266 106q-127 127 -127 363z M315 592q47 -16 152 -17q59 0 113 9q180 29 202 188q2 16 2 31q0 78 -63 119q-49 31 -117 30q-236 0 -289 -360zM512 1587h153l66 -315h-135z" />
<glyph unicode="&#xe9;" horiz-adv-x="1026" d="M123 453q0 41 4 84q27 285 164 432q127 133 323 133q170 0 270 -88q92 -81 91 -207v-21q-8 -131 -107 -223q-86 -78 -217 -106q-74 -16 -157 -17q-96 0 -193 21v-25q0 -302 240 -303q139 0 260 90l80 -119q-150 -121 -365 -120q-158 0 -266 106q-127 127 -127 363z M315 592q47 -16 152 -17q59 0 113 9q180 29 202 188q2 16 2 31q0 78 -63 119q-49 31 -117 30q-236 0 -289 -360zM574 1272l149 315h154l-170 -315h-133z" />
<glyph unicode="&#xea;" horiz-adv-x="1026" d="M123 453q0 41 4 84q27 285 164 432q127 133 323 133q170 0 270 -88q92 -81 91 -207v-21q-8 -131 -107 -223q-86 -78 -217 -106q-74 -16 -157 -17q-96 0 -193 21v-25q0 -302 240 -303q139 0 260 90l80 -119q-150 -121 -365 -120q-158 0 -266 106q-127 127 -127 363z M315 592q47 -16 152 -17q59 0 113 9q180 29 202 188q2 16 2 31q0 78 -63 119q-49 31 -117 30q-236 0 -289 -360zM354 1284l264 299h131l170 -299h-137l-117 176l-166 -176h-145z" />
<glyph unicode="&#xeb;" horiz-adv-x="1026" d="M123 453q0 41 4 84q27 285 164 432q127 133 323 133q170 0 270 -88q92 -81 91 -207v-21q-8 -131 -107 -223q-86 -78 -217 -106q-74 -16 -157 -17q-96 0 -193 21v-25q0 -302 240 -303q139 0 260 90l80 -119q-150 -121 -365 -120q-158 0 -266 106q-127 127 -127 363z M315 592q47 -16 152 -17q59 0 113 9q180 29 202 188q2 16 2 31q0 78 -63 119q-49 31 -117 30q-236 0 -289 -360zM418 1382q2 47 36 79t81 32q43 0 73.5 -30.5t26.5 -73.5q-2 -45 -37 -79t-78 -34q-45 0 -74.5 31.5t-27.5 74.5zM737 1382q2 47 36 79t81 32q45 0 75 -30.5 t25 -73.5q-2 -45 -36.5 -79t-77.5 -34q-45 0 -75 31.5t-28 74.5z" />
<glyph unicode="&#xec;" horiz-adv-x="540" d="M428 1085l-104 -739q-6 -41 -7 -74q0 -125 91 -139l-19 -149q-106 0 -176 77.5t-70 208.5q0 35 7 72l104 743h174zM201 1587h153l66 -315h-135z" />
<glyph unicode="&#xed;" horiz-adv-x="544" d="M428 1085l-104 -739q-6 -41 -7 -74q0 -125 91 -139l-19 -149q-106 0 -176 77.5t-70 208.5q0 35 7 72l104 743h174zM324 1272l149 315h154l-170 -315h-133z" />
<glyph unicode="&#xee;" horiz-adv-x="544" d="M432 1085l-104 -739q-6 -41 -7 -74q0 -125 91 -139l-19 -149q-106 0 -176 77.5t-70 208.5q0 35 7 72l104 743h174zM102 1284l264 299h131l170 -299h-137l-117 176l-166 -176h-145z" />
<glyph unicode="&#xef;" horiz-adv-x="546" d="M113 1382q2 47 35.5 79t80.5 32q43 0 74 -30.5t27 -73.5q-2 -45 -37 -79t-78 -34q-45 0 -74.5 31.5t-27.5 74.5zM150 270q0 35 6 72l104 743h174l-104 -739q-6 -41 -6 -74q0 -125 90 -139l-21 -149q-106 0 -174.5 77.5t-68.5 208.5zM432 1382q2 47 36 79t81 32 q45 0 74.5 -30.5t25.5 -73.5q-2 -45 -36.5 -79t-77.5 -34q-45 0 -75 31.5t-28 74.5z" />
<glyph unicode="&#xf1;" horiz-adv-x="1241" d="M174 0l112 811q8 66 8 125q0 94 -20 149h145q20 -47 29 -141q137 158 340 158q131 0 213 -68q106 -86 106 -266q0 -47 -6 -98l-92 -670h-174l90 655q8 57 8 101q0 197 -174 196q-109 0 -209 -88q-74 -66 -100 -129l-104 -735h-172zM478 1421q94 84 196 84 q47 0 112.5 -33.5t94.5 -33.5q53 0 68 4q41 8 100 49l49 -111q-111 -78 -199 -77q-43 0 -108.5 31.5t-108.5 31.5q-84 0 -149 -51z" />
<glyph unicode="&#xf2;" horiz-adv-x="1064" d="M113 416q0 59 8 125q39 287 186 432q133 129 332 129q160 0 258 -98q117 -115 117 -336q0 -59 -10 -127q-74 -557 -506 -557q-168 0 -271 100q-114 113 -114 332zM293 408q0 -274 219 -275q258 0 311 408q10 76 11 137q0 274 -213 274q-264 0 -320 -411q-8 -74 -8 -133z M512 1587h153l66 -315h-135z" />
<glyph unicode="&#xf3;" horiz-adv-x="1064" d="M113 416q0 59 8 125q39 287 186 432q133 129 332 129q160 0 258 -98q117 -115 117 -336q0 -59 -10 -127q-74 -557 -506 -557q-168 0 -271 100q-114 113 -114 332zM293 408q0 -274 219 -275q258 0 311 408q10 76 11 137q0 274 -213 274q-264 0 -320 -411q-8 -74 -8 -133z M594 1272l149 315h154l-170 -315h-133z" />
<glyph unicode="&#xf4;" horiz-adv-x="1064" d="M113 416q0 59 8 125q39 287 186 432q133 129 332 129q160 0 258 -98q117 -115 117 -336q0 -59 -10 -127q-74 -557 -506 -557q-168 0 -271 100q-114 113 -114 332zM293 408q0 -274 219 -275q258 0 311 408q10 76 11 137q0 274 -213 274q-264 0 -320 -411q-8 -74 -8 -133z M397 1284l264 299h131l170 -299h-137l-117 176l-166 -176h-145z" />
<glyph unicode="&#xf5;" horiz-adv-x="1064" d="M113 416q0 59 8 125q39 287 186 432q133 129 332 129q160 0 258 -98q117 -115 117 -336q0 -59 -10 -127q-74 -557 -506 -557q-168 0 -271 100q-114 113 -114 332zM293 408q0 -274 219 -275q258 0 311 408q10 76 11 137q0 274 -213 274q-264 0 -320 -411q-8 -74 -8 -133z M381 1421q94 84 196 84q47 0 112.5 -33.5t94.5 -33.5q53 0 68 4q41 8 100 49l49 -111q-111 -78 -199 -77q-43 0 -108.5 31.5t-108.5 31.5q-84 0 -149 -51z" />
<glyph unicode="&#xf6;" horiz-adv-x="1064" d="M113 416q0 59 8 125q39 287 186 432q133 129 332 129q160 0 258 -98q117 -115 117 -336q0 -59 -10 -127q-74 -557 -506 -557q-168 0 -271 100q-114 113 -114 332zM293 408q0 -274 219 -275q258 0 311 408q10 76 11 137q0 274 -213 274q-264 0 -320 -411q-8 -74 -8 -133z M389 1380q0 45 32 78t77 33q47 0 78.5 -32t31.5 -79q0 -45 -32.5 -76.5t-77.5 -31.5t-77 31.5t-32 76.5zM774 1380q0 47 33 79t78 32q47 0 78.5 -32t31.5 -79q0 -45 -32.5 -76.5t-77.5 -31.5t-78 31.5t-33 76.5z" />
<glyph unicode="&#xf7;" horiz-adv-x="976" d="M123 500l18 131h713l-18 -131h-713zM319 252q6 55 46.5 91t95.5 36t92 -41t29 -94q-6 -55 -47 -92t-95 -37q-55 0 -92 41t-29 96zM403 897q8 55 48.5 91t95.5 36q53 0 90 -40t31 -95q-8 -55 -49 -92t-95 -37q-55 0 -91 42t-30 95z" />
<glyph unicode="&#xf8;" horiz-adv-x="1148" d="M113 -123h151l834 1319h-152zM193 416q0 59 8 125q39 287 186 432q133 129 332 129q158 0 258 -98q117 -115 117 -336q0 -59 -11 -127q-74 -557 -505 -557q-168 0 -271 100q-114 113 -114 332zM371 408q0 -274 221 -275q258 0 311 408q10 76 10 137q0 274 -213 274 q-264 0 -319 -411q-10 -74 -10 -133z" />
<glyph unicode="&#xf9;" horiz-adv-x="1175" d="M154 338q0 51 8 108l88 639h174l-90 -655q-8 -51 -8 -92q0 -205 180 -205q104 0 192 96q57 61 90 136l103 720h172l-111 -811q-10 -66 -10 -124q0 -92 21 -150h-146q-31 66 -29 139q-137 -156 -319 -155q-135 0 -217 77q-98 93 -98 277zM533 1587h153l66 -315h-135z" />
<glyph unicode="&#xfa;" horiz-adv-x="1175" d="M154 338q0 51 8 108l88 639h174l-90 -655q-8 -51 -8 -92q0 -205 180 -205q104 0 192 96q57 61 90 136l103 720h172l-111 -811q-10 -66 -10 -124q0 -92 21 -150h-146q-31 66 -29 139q-137 -156 -319 -155q-135 0 -217 77q-98 93 -98 277zM615 1272l149 315h154l-170 -315 h-133z" />
<glyph unicode="&#xfb;" horiz-adv-x="1175" d="M154 338q0 51 8 108l88 639h174l-90 -655q-8 -51 -8 -92q0 -205 180 -205q104 0 192 96q57 61 90 136l103 720h172l-111 -811q-10 -66 -10 -124q0 -92 21 -150h-146q-31 66 -29 139q-137 -156 -319 -155q-135 0 -217 77q-98 93 -98 277zM418 1284l264 299h131l170 -299 h-137l-117 176l-166 -176h-145z" />
<glyph unicode="&#xfc;" horiz-adv-x="1175" d="M154 338q0 51 8 108l88 639h174l-90 -655q-8 -51 -8 -92q0 -205 180 -205q104 0 192 96q57 61 90 136l103 720h172l-111 -811q-10 -66 -10 -124q0 -92 21 -150h-146q-31 66 -29 139q-137 -156 -319 -155q-135 0 -217 77q-98 93 -98 277zM410 1376q0 47 32.5 79t77.5 32 q47 0 79 -32t32 -79q0 -45 -33 -77.5t-78 -32.5t-77.5 32.5t-32.5 77.5zM797 1376q0 45 31.5 78t76.5 33q47 0 79 -32t32 -79q0 -45 -33 -77.5t-78 -32.5t-76.5 32.5t-31.5 77.5z" />
<glyph unicode="&#xfd;" horiz-adv-x="907" d="M762 1233l149 315h154l-170 -315h-133zM-133 -422q98 70 131 98q84 72 154 168q99 143 98 341q0 32 -2 65q-27 373 -199 835h170q49 -106 109 -383q70 -313 69 -514h13q246 455 401 922l147 -63q-121 -387 -329 -762q-152 -272 -236 -391q-197 -274 -438 -439z" />
<glyph unicode="&#xff;" horiz-adv-x="907" d="M-133 -422q98 70 131 98q84 72 154 168q115 166 96 406q-27 373 -199 835h170q49 -106 109 -383q70 -313 69 -514h13q246 455 401 922l147 -63q-121 -387 -329 -762q-152 -272 -236 -391q-197 -274 -438 -439zM254 1378q0 45 31.5 78t76.5 33q47 0 79 -32t32 -79 q0 -45 -32.5 -77.5t-78.5 -32.5q-45 0 -76.5 32.5t-31.5 77.5zM639 1378q0 47 33 79t78 32q47 0 78.5 -32t31.5 -79q0 -45 -32.5 -77.5t-77.5 -32.5t-78 32.5t-33 77.5z" />
<glyph unicode="&#x131;" horiz-adv-x="583" d="M473 1085l-104 -739q-6 -41 -7 -74q0 -125 91 -139l-19 -149q-106 0 -176 77.5t-70 208.5q0 35 7 72l104 743h174z" />
<glyph unicode="&#x152;" horiz-adv-x="2035" d="M195 674q0 66 8 137q43 410 299 627q209 176 479 176q141 0 270 -17h856l-20 -147h-664l-75 -555h583l-20 -147h-584l-82 -601h699l-21 -147h-889q-80 -12 -252 -12q-236 0 -397 162q-190 188 -190 524zM379 688q0 -236 108 -395q111 -166 281 -166q186 0 274 14 l191 1313q-154 16 -254 16q-217 0 -387 -190t-205 -481q-8 -56 -8 -111z" />
<glyph unicode="&#x153;" horiz-adv-x="1712" d="M113 434q0 55 8 115q33 283 186 428q133 125 328 125q209 0 305 -187q135 188 354 189q170 0 271.5 -89t95.5 -229q-8 -131 -109 -223q-84 -78 -215 -106q-74 -16 -163 -17q-102 0 -201 21q-4 -147 62.5 -237.5t191.5 -90.5q156 0 262 90l90 -106q-152 -135 -383 -135 q-223 0 -324 211q-135 -209 -387 -209q-156 0 -256 104q-116 123 -116 346zM289 416q0 -285 215 -285q262 0 315 410q10 76 10 137q0 276 -213 276q-264 0 -319 -413q-8 -68 -8 -125zM987 592q47 -16 162 -17q61 0 115 9q186 31 204 188q10 96 -55 143q-49 39 -123 39 q-250 0 -303 -362z" />
<glyph unicode="&#x178;" horiz-adv-x="1040" d="M164 1597h190l324 -747h14l516 772l140 -94l-605 -879l-96 -649h-184l96 657zM522 1733q0 43 31 74.5t74 31.5t73.5 -31.5t30.5 -74.5q0 -45 -30.5 -76t-73.5 -31t-74 31t-31 76zM868 1733q0 43 31 74.5t74 31.5q45 0 75.5 -31.5t30.5 -74.5q0 -45 -30.5 -76t-75.5 -31 q-43 0 -74 31t-31 76z" />
<glyph unicode="&#x2c6;" horiz-adv-x="806" d="M172 1284l264 299h131l170 -299h-137l-117 176l-166 -176h-145z" />
<glyph unicode="&#x2da;" horiz-adv-x="649" d="M590 1386q-10 -86 -72.5 -145t-144.5 -59q-84 0 -143.5 61.5t-47.5 142.5q10 86 76 145.5t150 59.5t138 -60.5t44 -144.5zM492 1386q6 45 -22 77t-73 32t-79.5 -31.5t-41.5 -77.5q-6 -45 24 -75.5t75 -30.5q43 0 77 30.5t40 75.5z" />
<glyph unicode="&#x2dc;" horiz-adv-x="866" d="M197 1421q94 84 196 84q47 0 112.5 -33.5t94.5 -33.5q53 0 68 4q41 8 100 49l49 -111q-111 -78 -199 -77q-43 0 -108.5 31.5t-108.5 31.5q-84 0 -149 -51z" />
<glyph unicode="&#x2000;" horiz-adv-x="1030" />
<glyph unicode="&#x2001;" horiz-adv-x="2060" />
<glyph unicode="&#x2002;" horiz-adv-x="1030" />
<glyph unicode="&#x2003;" horiz-adv-x="2060" />
<glyph unicode="&#x2004;" horiz-adv-x="686" />
<glyph unicode="&#x2005;" horiz-adv-x="514" />
<glyph unicode="&#x2006;" horiz-adv-x="342" />
<glyph unicode="&#x2007;" horiz-adv-x="342" />
<glyph unicode="&#x2008;" horiz-adv-x="256" />
<glyph unicode="&#x2009;" horiz-adv-x="411" />
<glyph unicode="&#x200a;" horiz-adv-x="112" />
<glyph unicode="&#x2010;" horiz-adv-x="690" d="M123 502l18 131h426l-18 -131h-426z" />
<glyph unicode="&#x2011;" horiz-adv-x="690" d="M123 502l18 131h426l-18 -131h-426z" />
<glyph unicode="&#x2012;" horiz-adv-x="690" d="M123 502l18 131h426l-18 -131h-426z" />
<glyph unicode="&#x2013;" horiz-adv-x="1077" d="M123 500l16 131h815l-16 -131h-815z" />
<glyph unicode="&#x2014;" horiz-adv-x="1343" d="M123 500l18 131h1080l-19 -131h-1079z" />
<glyph unicode="&#x2018;" horiz-adv-x="589" d="M205 1343q0 166 205 334l43 -41q-27 -20 -64 -79.5t-37 -90.5q0 -16 17 -20q104 -14 98 -123q-4 -53 -43 -87t-96 -34q-51 0 -87 43t-36 98z" />
<glyph unicode="&#x2019;" horiz-adv-x="712" d="M246 1557q4 53 42.5 87t94.5 34q53 0 89 -42t36 -100q0 -166 -205 -333l-45 40q29 23 65.5 81.5t36.5 88.5q0 18 -16 21q-104 14 -98 123z" />
<glyph unicode="&#x201a;" horiz-adv-x="507" d="M123 121q4 53 42.5 87t94.5 34q53 0 89 -42t36 -100q0 -166 -205 -333l-45 40q29 23 65.5 81.5t36.5 88.5q0 18 -16 21q-104 14 -98 123z" />
<glyph unicode="&#x201c;" horiz-adv-x="892" d="M121 1343q0 164 205 334l43 -41q-27 -23 -62 -77q-39 -61 -39 -93q0 -18 15 -20q106 -14 98 -123q-2 -53 -42 -87t-95 -34q-53 0 -88 42t-35 99zM502 1343q0 164 205 334l43 -41q-27 -23 -62 -77q-39 -61 -39 -93q0 -18 15 -20q106 -14 98 -123q-2 -53 -42 -87t-95 -34 q-53 0 -88 42t-35 99z" />
<glyph unicode="&#x201d;" horiz-adv-x="1024" d="M246 1561q4 53 42.5 87t94.5 34q53 0 89 -42t36 -100q0 -166 -205 -333l-45 40q29 23 65.5 81.5t36.5 88.5q0 18 -16 21q-104 14 -98 123zM639 1561q4 53 42.5 87t94.5 34q53 0 89 -42t36 -100q0 -166 -205 -333l-45 40q29 23 65.5 81.5t36.5 88.5q0 18 -16 21 q-104 14 -98 123z" />
<glyph unicode="&#x201e;" horiz-adv-x="966" d="M193 121q4 53 42.5 87t94.5 34q53 0 89 -42t36 -100q0 -166 -205 -333l-45 40q29 23 65.5 81.5t36.5 88.5q0 18 -16 21q-104 14 -98 123zM588 121q4 53 42.5 87t94.5 34q53 0 89 -42t36 -100q0 -166 -205 -333l-45 40q29 23 65.5 81.5t36.5 88.5q0 18 -16 21 q-104 14 -98 123z" />
<glyph unicode="&#x2022;" horiz-adv-x="798" d="M125 721q12 115 99 194.5t200 79.5q115 0 188.5 -80.5t61.5 -193.5q-14 -115 -100.5 -195t-198.5 -80q-115 0 -188.5 83t-61.5 192z" />
<glyph unicode="&#x2026;" horiz-adv-x="1732" d="M176 109q6 55 46 92t95 37t92 -41t29 -97q-8 -53 -48 -90t-93 -37q-55 0 -92 41.5t-29 94.5zM678 109q8 55 48 92t95 37q53 0 90 -41t31 -97q-8 -53 -49 -90t-94 -37q-55 0 -91 41.5t-30 94.5zM1202 109q6 55 46 92t95 37t92.5 -41t28.5 -97q-6 -53 -47 -90t-94 -37 q-55 0 -92 41.5t-29 94.5z" />
<glyph unicode="&#x202f;" horiz-adv-x="411" />
<glyph unicode="&#x2039;" horiz-adv-x="927" d="M123 588l4 35l487 462h203l-512 -483l361 -479h-185z" />
<glyph unicode="&#x203a;" horiz-adv-x="845" d="M96 123l510 483l-358 479h182l361 -464l-7 -35l-485 -463h-203z" />
<glyph unicode="&#x2044;" horiz-adv-x="1091" d="M123 0l797 1749h161l-796 -1749h-162z" />
<glyph unicode="&#x205f;" horiz-adv-x="514" />
<glyph unicode="&#x2122;" horiz-adv-x="1841" d="M123 1554l16 121h692l-16 -121l-280 2l-93 -667h-139l90 667zM813 887l107 788h155l166 -561h8l322 561h147l-106 -788h-137l67 504h-6l-289 -510h-71l-150 514h-8l-68 -508h-137z" />
<glyph unicode="&#xe000;" horiz-adv-x="1105" d="M0 1105h1105v-1105h-1105v1105z" />
<glyph unicode="&#xfb01;" d="M770 270q0 35 7 72l104 743h174l-104 -739q-6 -41 -7 -74q0 -125 91 -139l-21 -149q-106 0 -175 77.5t-69 208.5zM943 1461q34 32 81 32q43 0 73 -31q28 -29 28 -68v-5q-2 -45 -37 -79t-80 -34t-74 32q-27 30 -27 69q0 50 36 84zM-102 -424l20 148q205 0 227 167 l146 1057h-148l19 137h149l39 291q43 295 415 295h5l-20 -149q-205 0 -228 -166l-37 -271h203l-18 -137h-205l-150 -1075q-41 -297 -412 -297h-5z" />
<glyph unicode="&#xfb02;" horiz-adv-x="1163" d="M760 270q0 35 4 72l185 1333h174l-183 -1329q-6 -41 -6 -74q0 -125 90 -139l-20 -149q-106 0 -175 77.5t-69 208.5zM-102 -424l20 148q205 0 227 167l146 1057h-148l19 137h149l39 291q43 295 415 295h5l-20 -149q-205 0 -228 -166l-37 -271h203l-18 -137h-205 l-150 -1075q-41 -297 -412 -297h-5z" />
<glyph unicode="&#xfb03;" horiz-adv-x="1792" d="M1396 270q0 35 7 72l104 743h174l-104 -739q-6 -41 -7 -74q0 -125 91 -139l-21 -149q-106 0 -175 77.5t-69 208.5zM1569 1461q34 32 81 32q43 0 73 -31q28 -29 28 -68v-5q-2 -45 -37 -79t-80 -34t-74 32q-27 30 -27 69q0 50 36 84zM525 -424l20 148q205 0 227 167 l146 1057h-148l19 137h149l39 291q43 295 415 295h5l-20 -149q-205 0 -228 -166l-37 -271h203l-18 -137h-205l-150 -1075q-41 -297 -412 -297h-5zM-102 -424l20 148q205 0 227 167l146 1057h-148l19 137h149l39 291q43 295 415 295h5l-20 -149q-205 0 -228 -166l-37 -271 h203l-18 -137h-205l-150 -1075q-41 -297 -412 -297h-5z" />
<glyph unicode="&#xfb04;" horiz-adv-x="1789" d="M1386 270q0 35 4 72l185 1333h174l-183 -1329q-6 -41 -6 -74q0 -125 90 -139l-20 -149q-106 0 -175 77.5t-69 208.5zM525 -424l20 148q205 0 227 167l146 1057h-148l19 137h149l39 291q43 295 415 295h5l-20 -149q-205 0 -228 -166l-37 -271h203l-18 -137h-205 l-150 -1075q-41 -297 -412 -297h-5zM-102 -424l20 148q205 0 227 167l146 1057h-148l19 137h149l39 291q43 295 415 295h5l-20 -149q-205 0 -228 -166l-37 -271h203l-18 -137h-205l-150 -1075q-41 -297 -412 -297h-5z" />
</font>
</defs>
</svg>
