<?xml version="1.0" standalone="no"?>
<!DOCTYPE svg PUBLIC "-//W3C//DTD SVG 1.1//EN" "http://www.w3.org/Graphics/SVG/1.1/DTD/svg11.dtd" >
<svg xmlns="http://www.w3.org/2000/svg">
<metadata>
This is a custom SVG webfont generated by Font Squirrel.
Copyright   : Llicia gratu  Free License La Tipomatika
Designer    : La Tipomatika Digital Type Foundry
Foundry     : La Tipomatika
</metadata>
<defs>
<font id="webfontRB9mYpYe" horiz-adv-x="1220" >
<font-face units-per-em="2048" ascent="1638" descent="-410" />
<missing-glyph horiz-adv-x="526" />
<glyph unicode=" "  horiz-adv-x="526" />
<glyph unicode="&#x09;" horiz-adv-x="526" />
<glyph unicode="&#xa0;" horiz-adv-x="526" />
<glyph unicode="!" horiz-adv-x="360" d="M82 61q0 35 22.5 56.5t57.5 21.5q72 0 76 -76v-2q0 -31 -22.5 -55t-53.5 -24q-35 0 -57.5 23t-22.5 56zM94 190v1205h133v-1205h-133z" />
<glyph unicode="&#x22;" horiz-adv-x="444" d="M43 1395h156l18 -158l-96 -209l-55 55zM186 1395h158l16 -158l-96 -209l-55 55z" />
<glyph unicode="#" horiz-adv-x="1462" d="M14 784l121 150h328l80 207q10 29 32 85l31 77h154l-137 -369h391l96 256l43 113h156l-138 -369h250l-121 -150h-178q-4 -12 -13 -35.5t-13 -35.5q-53 -131 -56 -138h383l-125 -151h-311l-74 -199l-79 -225h-160l157 424h-395q-2 -8 -39 -112l-57 -158v2l-32 -88 q-22 -59 -25 -68h-158l158 424h-267l123 151h195l30 79q22 56 29 83q2 4 19 47h-398zM492 575h395l33 97q23 49 43 112h-392z" />
<glyph unicode="$" horiz-adv-x="954" d="M41 201l117 94q104 -147 231 -162v494q-156 33 -248 138t-92 247q0 137 96.5 241.5t243.5 137.5v92h148v-82q195 -12 346 -184l-117 -95q-100 119 -229 133v-507q154 -35 249 -139.5t95 -243.5q0 -133 -99.5 -239t-244.5 -136v-117h-148v113q-104 12 -196.5 69.5 t-151.5 145.5zM203 1018q0 -78 50 -143.5t136 -92.5v459q-82 -27 -134 -87t-52 -136zM537 139q84 18 138 77.5t54 141.5q0 80 -54 148.5t-138 95.5v-463z" />
<glyph unicode="&#x26;" horiz-adv-x="1222" d="M66 395q0 113 85 218.5t236 181.5h4q4 2 6 2q-2 2 -2 4l2 -2l-2 2q-2 2 -2 4q-96 102 -125.5 166.5t-29.5 130.5q0 119 93 210t238 91q137 0 225.5 -85t88.5 -204q0 -186 -258 -328l-7 -4l150 -190l109 -137q0 2 2 5t4 5q39 76 65 186l164 -33q-72 -211 -125 -294 q0 -4 -2 -13l-2 -8q47 -78 127 -143v-172q-121 76 -199 172q-12 16 -14 18l-8 12l-8 -8q-170 -184 -387 -182q-182 0 -305 116.5t-123 278.5zM233 406q0 -102 75 -185.5t186 -83.5q78 -2 157.5 45t132.5 121l4 4l-92 116l-94 120l-125 155l-6 -4q-238 -136 -238 -288z M395 1118q4 -74 66 -145l80 -92h2q2 2 4 2h-2q102 59 140 109t38 120t-46 118t-118 48q-66 0 -115 -47t-49 -113zM942 297h41l2 -10l-39 -4z" />
<glyph unicode="'" horiz-adv-x="247" d="M8 1094l70 143l-19 145l158 13l19 -164l-177 -189z" />
<glyph unicode="(" horiz-adv-x="532" d="M66 588q0 264 71.5 492.5t186.5 349.5l63 -160q-76 -92 -120 -275.5t-44 -406.5q0 -242 54.5 -436.5t140.5 -276.5l-86 -137q-119 117 -192.5 347.5t-73.5 502.5z" />
<glyph unicode=")" horiz-adv-x="503" d="M80 -123q86 82 139 275.5t53 435.5q0 223 -44 406.5t-119 275.5l59 160q117 -125 190.5 -353.5t73.5 -488.5q0 -272 -73.5 -501.5t-192.5 -346.5z" />
<glyph unicode="*" horiz-adv-x="964" d="M109 1036v146h186l-133 133l104 104l131 -131v187h146v-187l133 131l104 -102l-131 -133h187v-148h-191q8 -10 23.5 -23.5t21.5 -19.5l90 -90l-102 -102l-135 135v-193h-146v189l-131 -131l-106 102l135 133h-186z" />
<glyph unicode="+" horiz-adv-x="925" d="M90 524v148h289v291h147v-291h291v-148h-291v-291h-147v291h-289z" />
<glyph unicode="," horiz-adv-x="354" d="M41 -86l80 129v147h158v-172l-197 -170z" />
<glyph unicode="-" horiz-adv-x="862" d="M61 524v148h730v-148h-730z" />
<glyph unicode="." horiz-adv-x="296" d="M53 0v190h191v-190h-191z" />
<glyph unicode="/" horiz-adv-x="774" d="M53 0l510 1395h156l-510 -1395h-156z" />
<glyph unicode="0" horiz-adv-x="1200" d="M68 692q0 295 153.5 503t368.5 208t365.5 -208t150.5 -503q0 -293 -150.5 -501.5t-365.5 -208.5q-213 0 -367.5 209.5t-154.5 500.5zM217 692.5q0 -233.5 108.5 -397.5t264 -164t263.5 164t108 397.5t-108 397t-263.5 163.5t-264 -163.5t-108.5 -397z" />
<glyph unicode="1" horiz-adv-x="538" d="M31 1163l278 232h125v-1395h-147v1186q-8 -6 -131 -107q-4 -2 -21 -18z" />
<glyph unicode="2" horiz-adv-x="972" d="M90 1253q170 150 340 150q186 0 318.5 -131t132.5 -314q0 -166 -121 -301l-451 -512h572v-145h-789v127l567 635q76 82 76 196q0 125 -89 210t-216 85q-123 0 -233 -106z" />
<glyph unicode="3" horiz-adv-x="882" d="M18 147l103 103q115 -125 256 -125q121 0 206 77t85 183q0 84 -83 156.5t-188 95.5h-207v147h211q113 6 192 75t79 159q0 98 -85 167.5t-204 69.5q-156 0 -262 -122l-101 108q150 162 363 162q182 0 312 -112.5t130 -272.5q0 -96 -52 -177t-140 -134q182 -121 182 -322 q0 -170 -128 -289t-310 -119q-209 0 -359 170z" />
<glyph unicode="4" horiz-adv-x="968" d="M53 487l4 125l459 793l129 -70l-405 -700h301v295h149v-295h189v-148h-189v-487h-149v487h-488z" />
<glyph unicode="5" horiz-adv-x="1032" d="M76 676l51 719h772v-150h-631q-6 -55 -14 -137q-14 -160 -16 -170q113 80 256 80q193 0 325.5 -147.5t132.5 -358.5q0 -213 -133 -362.5t-325 -149.5q-111 0 -212.5 60.5t-168.5 164.5l106 107q113 -186 275 -187q129 0 220 107.5t91 259.5q0 150 -91 255t-220 105 q-88 0 -164 -53t-117 -143h-137z" />
<glyph unicode="6" horiz-adv-x="1036" d="M88 672v41q0 195 27 319q29 156 148.5 262.5t279.5 108.5q236 0 393 -211l-141 -82q-47 66 -114 105.5t-136 39.5q-106 0 -190.5 -73.5t-102.5 -186.5q-23 -129 -25 -270q113 115 287 125q180 0 311 -120t133 -300v-18q0 -180 -125.5 -304t-308.5 -124q-174 0 -297 120.5 t-131 301.5v-3q-8 85 -8 269zM242 408q0 -115 85 -197t201 -82q119 0 203 82t84 199v16q-4 117 -88 196.5t-202.5 79.5t-200.5 -86.5t-82 -207.5z" />
<glyph unicode="7" horiz-adv-x="907" d="M47 0l582 1245h-518v150h755l-651 -1395h-168z" />
<glyph unicode="8" horiz-adv-x="940" d="M43 401q0 104 51 196.5t135 152.5q-141 100 -141 286q0 150 110.5 258.5t262.5 108.5q160 0 269.5 -107.5t109.5 -259.5q0 -184 -142 -286q86 -55 134.5 -146.5t48.5 -202.5q0 -174 -122 -296.5t-298 -122.5q-170 0 -294 123.5t-124 295.5zM193 401q0 -111 79.5 -190.5 t188.5 -79.5q113 0 193.5 80t80.5 190q0 113 -81 193t-193 80q-109 0 -188.5 -80t-79.5 -193zM233 1036q0 -90 67 -153.5t161 -63.5q96 0 162.5 63.5t66.5 153.5t-66.5 153.5t-162.5 63.5q-94 0 -161 -63.5t-67 -153.5z" />
<glyph unicode="9" horiz-adv-x="1001" d="M59 958v13q0 178 126 305t307 127q172 0 296.5 -125t139.5 -299q6 -82 6 -272v-52q0 -176 -25 -299q-31 -164 -158.5 -267t-295.5 -103q-100 0 -198.5 53t-168.5 143l131 109q102 -154 250 -154q113 0 196 72t107 180v-2q18 145 21 275q-129 -119 -306 -119 q-172 0 -299 120.5t-129 294.5zM201 963q6 -115 89 -195t197 -80q121 0 206 84t85 203q0 113 -86 195.5t-198 82.5q-121 0 -207 -85.5t-86 -204.5z" />
<glyph unicode=":" horiz-adv-x="372" d="M90 0v190h191v-190h-191zM90 838v188h191v-188h-191z" />
<glyph unicode=";" horiz-adv-x="346" d="M18 -86l82 129v147h160v-172l-201 -170zM90 838v188h186v-188h-186z" />
<glyph unicode="&#x3c;" horiz-adv-x="675" d="M20 510l512 518l107 -102l-412 -416l191 -191l221 -217l-104 -106z" />
<glyph unicode="=" horiz-adv-x="901" d="M117 385v150h708v-150h-708zM117 756v151h708v-151h-708z" />
<glyph unicode="&#x3e;" horiz-adv-x="688" d="M41 102l412 408l-62 60l-70 70l-61 62q-164 164 -219 224l104 102l514 -518l-514 -514z" />
<glyph unicode="?" horiz-adv-x="839" d="M45 1200q57 92 144 147.5t186 55.5q160 0 271.5 -117t111.5 -280q0 -158 -109.5 -274t-267.5 -116h-59q31 -102 38 -127l146 -489h-160l-180 639v123h215q98 4 165.5 73.5t67.5 170.5q0 102 -70.5 175.5t-168.5 73.5q-131 0 -225 -159zM377 -152q0 37 25.5 60.5 t58.5 23.5q39 0 61.5 -22.5t22.5 -61.5q0 -37 -23.5 -63.5t-60.5 -26.5q-33 0 -58.5 27.5t-25.5 62.5z" />
<glyph unicode="@" horiz-adv-x="1544" d="M86 659q0 319 195.5 531.5t511.5 212.5q254 0 435 -156.5t181 -417.5q0 -195 -120 -364.5t-294 -194.5q-109 6 -149 43q-80 -49 -158 -49q-117 0 -196.5 83t-79.5 202t81.5 199.5t200.5 80.5h121q-4 147 -57 148q-72 0 -125 -19l-45 -2l-37 152l47 2q63 20 162 20 q174 -6 205 -294q-4 -152 -4 -291q0 -37 -3 -49v2q-12 -76 48 -76q39 0 98 51t92 121q18 41 33.5 114.5t15.5 122.5q0 168 -129 287t-330 119q-231 0 -384.5 -162t-153.5 -403q0 -238 146.5 -371t410.5 -133q158 0 279.5 58.5t183.5 152.5h188l-29 -66q-72 -131 -235.5 -221 t-384.5 -90q-328 0 -524.5 171t-196.5 486zM545 549q0 -57 42 -98t101 -41q57 0 98 41t41 98v137h-133q-61 0 -105 -39t-44 -98z" />
<glyph unicode="A" d="M31 0l522 1415h113l522 -1415h-156l-207 559h-430l-135 -362q-57 -145 -76 -197h-153zM449 709h321q-10 29 -39 103.5t-39 105.5v-3q-47 119 -84 224q-45 -113 -61 -164v-2z" />
<glyph unicode="B" horiz-adv-x="1048" d="M86 0v1415h463q162 -2 275.5 -110.5t113.5 -253.5q0 -186 -156 -299q84 -55 134.5 -145.5t50.5 -190.5q0 -168 -120 -289t-296 -123h2l-39 -4h-428zM233 150h316q113 6 190.5 83.5t77.5 182.5q0 102 -79 179t-191 81h-314v-526zM233 825h316q102 4 172 67.5t70 158.5 q0 86 -71 149.5t-173 69.5h-314v-445z" />
<glyph unicode="C" horiz-adv-x="1208" d="M39 707q0 289 189.5 502.5t457.5 213.5q125 0 247 -59t218 -162l-104 -102q-168 174 -361 174q-205 0 -350.5 -166t-145.5 -401q0 -238 142.5 -406t353.5 -168q186 0 358 172l103 -102q-211 -221 -461 -221q-258 0 -452.5 215t-194.5 510z" />
<glyph unicode="D" horiz-adv-x="1177" d="M53 0v1415h533q137 -2 253.5 -96t183.5 -256t67 -352q0 -291 -144.5 -497t-355.5 -214h-537zM203 150q123 0 186 2q35 0 101.5 1t99.5 1q145 4 247.5 166.5t102.5 390.5q0 229 -103.5 390t-250.5 165h-383v-1116z" />
<glyph unicode="E" horiz-adv-x="993" d="M68 0v1415h843v-145h-696v-445h594v-149h-594v-526h696v-150h-843z" />
<glyph unicode="F" horiz-adv-x="997" d="M76 0v1415h844v-143h-697v-447h594v-149h-594v-676h-147z" />
<glyph unicode="G" horiz-adv-x="1236" d="M33 700q0 299 190.5 511t458.5 212q256 0 467 -221l-105 -104q-168 174 -362 174q-209 0 -355.5 -166t-146.5 -406q0 -236 147.5 -404.5t354.5 -168.5q166 0 303 121v338h-371v145h521v-530l-5 -21q-193 -199 -448 -198q-268 0 -458.5 211.5t-190.5 506.5z" />
<glyph unicode="H" horiz-adv-x="1142" d="M78 0v1415h149v-590h676v590h148v-1415h-148v676h-676v-676h-149z" />
<glyph unicode="I" horiz-adv-x="282" d="M68 0v1415h149v-1415h-149z" />
<glyph unicode="J" horiz-adv-x="624" d="M29 98l98 103q66 -70 106 -70q55 0 94.5 64.5t39.5 162.5v1057h151v-1053q0 -154 -85 -267t-200 -113q-102 -1 -204 116z" />
<glyph unicode="K" horiz-adv-x="1193" d="M68 0v1415h149v-672l580 672h200l-532 -620l682 -795h-197l-585 682q-8 -8 -22 -25l-25 -29l-21 -26q-53 -68 -80 -94v-508h-149z" />
<glyph unicode="L" horiz-adv-x="927" d="M66 0v1415h147v-1265h659v-150h-806z" />
<glyph unicode="M" horiz-adv-x="1275" d="M49 0v1415h135l428 -719l418 719h137v-1415h-151v1098l-361 -621h-92l-364 621v-1098h-150z" />
<glyph unicode="N" horiz-adv-x="1099" d="M74 0v1415h133l645 -1091v1091h149v-1415h-135l-645 1098v-1098h-147z" />
<glyph unicode="O" horiz-adv-x="1413" d="M41 707q0 297 189.5 506.5t457.5 209.5q276 0 460.5 -207.5t184.5 -508.5q0 -317 -196 -527q-182 -199 -449 -198q-264 0 -455.5 210t-191.5 515zM193 707q0 -238 144 -406t351 -168q213 0 356.5 167t143.5 407q0 256 -160 415q-133 150 -340 150t-351 -164.5 t-144 -400.5z" />
<glyph unicode="P" horiz-adv-x="983" d="M84 0v1415h420q172 0 294 -107.5t122 -256.5q0 -158 -121 -267.5t-295 -109.5h-273v-674h-147zM231 823h273q111 0 188.5 65.5t77.5 162.5q0 88 -80 153.5t-188 65.5h-271v-447z" />
<glyph unicode="Q" horiz-adv-x="1361" d="M57 752q0 283 177.5 477t420.5 194q248 0 426.5 -195.5t178.5 -475.5q0 -283 -191 -484q-121 -133 -299 -172q16 -84 49 -84q27 0 51 66l113 -98q-84 -111 -164 -111q-66 0 -119 62.5t-71 154.5q-233 20 -402.5 211t-169.5 455zM199 752q0 -178 91 -319.5t236 -190.5v133 h8q79 0 138 -38q61 -40 84 -104q152 45 255 190.5t103 328.5q0 236 -149 391q-133 143 -310 143q-188 0 -322 -156.5t-134 -377.5zM526 238v4q2 -2 8.5 -3t8.5 -1h-17z" />
<glyph unicode="R" horiz-adv-x="970" d="M66 0v1415h419q174 0 295 -106.5t121 -259.5q0 -156 -121 -264.5t-295 -108.5h-118l262 -299l334 -377h-195l-553 621v-621h-149zM215 825h270q111 0 189 65.5t78 158.5q0 90 -80 156.5t-191 66.5h-266v-447z" />
<glyph unicode="S" horiz-adv-x="993" d="M59 205l117 94q109 -168 299 -168q113 0 197 68.5t84 165.5q0 92 -79 167.5t-192 92.5q-176 25 -296.5 139.5t-120.5 263.5q0 168 130 280.5t316 112.5q231 0 399 -184l-122 -98q-111 139 -277 139q-117 0 -206 -71.5t-89 -170.5q0 -100 81 -178t200 -86 q174 -20 291.5 -136t117.5 -265q0 -162 -128 -275.5t-310 -113.5q-125 0 -234.5 61.5t-177.5 161.5z" />
<glyph unicode="T" horiz-adv-x="1177" d="M63 1270v145h1031v-145h-439v-1270h-149v1270h-443z" />
<glyph unicode="U" horiz-adv-x="1224" d="M66 369v1046h155v-1042q16 -96 127 -168t256 -72q139 0 248 71.5t123 168.5v1042h149v-1044q-6 -158 -159.5 -273.5t-360.5 -115.5q-217 0 -372.5 113.5t-165.5 273.5z" />
<glyph unicode="V" horiz-adv-x="1308" d="M55 1415h154l434 -1165l178 483l252 682h156l-522 -1415h-132z" />
<glyph unicode="W" horiz-adv-x="1873" d="M68 1415h153l434 -1167l80 221v-2l96 262l-120 328v-2l-131 360h153l207 -559l115 -301l112 -307l164 444l266 723h158l-522 -1415h-133l-191 514l-82 -227l-104 -287h-133z" />
<glyph unicode="X" horiz-adv-x="1107" d="M29 0l422 723l-404 692h172l330 -553l151 256l177 297h174l-412 -704l192 -336l220 -375h-174l-340 573l-201 -344l-62 -103l-73 -126h-172z" />
<glyph unicode="Y" horiz-adv-x="1394" d="M20 1415h195l463 -635l123 166l348 469h192l-585 -782v-633h-152v633l-162 217z" />
<glyph unicode="Z" horiz-adv-x="1122" d="M23 0l788 1266h-707v149h971l-784 -1265h690v-150h-958z" />
<glyph unicode="[" horiz-adv-x="430" d="M55 641v147h74q20 0 35.5 15.5t15.5 38.5v448q8 45 60.5 75t119.5 30v-152q-8 0 -20 -2q-10 -2 -12 0v-426q-29 -80 -84 -90v-20q66 -20 84 -80v-480h32v-145q-61 0 -120.5 36t-59.5 89v463q0 23 -15 38t-36 15h-74z" />
<glyph unicode="\" horiz-adv-x="759" d="M53 1395h154l512 -1395h-158z" />
<glyph unicode="]" horiz-adv-x="374" d="M29 0v145h37v476q16 74 77 86q0 4 1 11t1 9q-68 25 -79 84v432h-37v152q74 0 123 -30t59 -75l4 -16v-432q0 -53 45 -54h74v-147h-74q-45 0 -45 -53v-463q0 -53 -59 -89t-127 -36z" />
<glyph unicode="^" horiz-adv-x="1128" d="M31 895l520 512l514 -514l-107 -105l-409 412l-193 -192l-221 -220z" />
<glyph unicode="_" horiz-adv-x="1050" d="M61 0v145h877v-145h-877z" />
<glyph unicode="`" horiz-adv-x="417" d="M-27 1294h240l174 -231h-119z" />
<glyph unicode="a" horiz-adv-x="831" d="M59 303q0 141 104.5 234.5t250.5 93.5h186v6q0 104 -48 178t-124 76q-115 0 -246 -39l-37 143q152 43 285 43q127 -4 219 -107.5t99 -252.5v-21q-4 -166 -5 -323q0 -270 58 -334h-201v39q-92 -59 -199 -59q-139 0 -240.5 95t-101.5 228zM207 303q0 -72 57.5 -122 t136.5 -50q84 0 141.5 50t57.5 122v180h-186q-86 0 -146.5 -50t-60.5 -130z" />
<glyph unicode="b" horiz-adv-x="1071" d="M53 0q18 27 30.5 80t14.5 92l4 41v1182h148v-404q106 47 252 47q205 0 349 -155.5t144 -370.5q0 -217 -144 -372.5t-351 -159.5q-164 10 -256 51v-31h-191zM244 213q0 -33 74.5 -56.5t183.5 -27.5q141 4 243.5 115.5t102.5 267.5q0 154 -102.5 266.5t-243.5 112.5 q-94 0 -169 -21.5t-89 -52.5v-604z" />
<glyph unicode="c" horiz-adv-x="978" d="M29 510q0 217 145 372.5t346 155.5q209 0 377 -184l-106 -109q-121 145 -271 146q-143 0 -244.5 -111.5t-101.5 -269.5q0 -156 101.5 -267.5t245 -111.5t263.5 137l109 -104q-176 -182 -373 -182q-201 0 -346 155.5t-145 372.5z" />
<glyph unicode="d" horiz-adv-x="1093" d="M86 518q0 215 145.5 366.5t348.5 153.5q158 0 249 -49v406h148v-1178q0 -152 74 -211h-222v31q-104 -41 -247 -51q-205 4 -350.5 159.5t-145.5 372.5zM229 518q0 -156 102.5 -268.5t250.5 -116.5q102 4 174.5 29.5t72.5 54.5v596q-12 31 -83.5 54.5t-165.5 23.5 q-145 -4 -248 -113.5t-103 -259.5z" />
<glyph unicode="e" horiz-adv-x="933" d="M37 473v39q0 217 124 372.5t294 155.5q174 0 291.5 -149.5t117.5 -368.5v-80h-674q16 -135 96.5 -223t190.5 -90q94 0 264 80l58 -129q-127 -70 -269 -96q-16 -2 -53 -2q-172 0 -300 143t-140 348zM195 586h522q-16 133 -90 219t-172 86q-92 0 -164.5 -88t-95.5 -217z " />
<glyph unicode="f" horiz-adv-x="671" d="M51 856v150h144l-2 12v26q8 145 99 252t214 107q57 0 137 -10l-45 -150q-51 12 -92 12q-70 -4 -119 -70.5t-49 -162.5v-16h252v-150h-252v-856h-141v856h-146z" />
<glyph unicode="g" horiz-adv-x="1128" d="M51 -43q0 84 52.5 160t136.5 121q-8 23 -9 73q0 45 25 99q-127 102 -127 264q0 150 121 257t293 107q66 0 155 -20h398l-140 -148h-59q63 -96 64 -196q0 -154 -122 -258.5t-296 -104.5q-45 0 -99 13q-37 10 -57 10q-31 0 -31 -19q0 -29 35 -28h10q2 0 5.5 1t5.5 1h4 q14 4 53 4q176 0 298 -98.5t122 -237.5q0 -141 -122 -241.5t-298 -100.5q-170 0 -294 101.5t-124 240.5zM197 -43q0 -80 80.5 -139.5t191.5 -59.5q115 0 197 59.5t82 139.5t-82 138.5t-197 58.5q-111 0 -191.5 -59.5t-80.5 -137.5zM274 674q0 -90 79 -154.5t190 -64.5 q117 0 195.5 63.5t78.5 155.5t-79 156.5t-195 64.5q-111 0 -190 -64.5t-79 -156.5z" />
<glyph unicode="h" horiz-adv-x="931" d="M72 0v1399h145v-449q96 90 236 90q147 0 248.5 -110.5t105.5 -272.5l6 -651h-145v651q-4 100 -71 169t-157 69q-72 0 -136 -64.5t-87 -148.5v-682h-145z" />
<glyph unicode="i" horiz-adv-x="362" d="M84 1282q0 35 25.5 59.5t62.5 24.5q35 0 62.5 -25.5t27.5 -58.5t-27.5 -59.5t-62.5 -26.5q-37 0 -62.5 25.5t-25.5 60.5zM100 0v1026h144v-1026h-144z" />
<glyph unicode="j" horiz-adv-x="724" d="M74 -373l14 142q55 0 84 -5q6 -2 8 -2l4 7q80 0 133.5 65.5t53.5 157.5v1036h145v-1055q-8 -145 -97 -247.5t-216 -106.5q-20 0 -74 4q-12 4 -55 4zM354 1272q0 39 23.5 61.5t64.5 22.5q31 0 56.5 -23.5t25.5 -60.5q0 -33 -25.5 -59.5t-56.5 -26.5q-39 0 -63.5 25.5 t-24.5 60.5z" />
<glyph unicode="k" horiz-adv-x="901" d="M43 0q57 57 57 121v1274h148v-652l217 185q96 84 100 88h232l-342 -285l120 -209l299 -522h-174l-360 633q-10 -8 -29 -25l-33 -29l-30 -26v-553h-205z" />
<glyph unicode="l" horiz-adv-x="331" d="M100 0v1395h146v-1395h-146z" />
<glyph unicode="m" horiz-adv-x="1513" d="M12 1026h205v-80q92 90 229 90q190 0 299 -170q49 88 129 131t168 43q145 0 248 -110.5t107 -272.5l4 -653h-148v653q-4 98 -66.5 167t-152.5 69q-78 0 -142.5 -63.5t-82.5 -147.5v-678h-147v649q-2 100 -67 168t-157 68q-74 0 -137 -63.5t-84 -147.5v-678h-147v901 q0 25 -20 67t-38 58z" />
<glyph unicode="n" horiz-adv-x="886" d="M0 1018h203v-66q90 90 235.5 90t249 -111.5t107.5 -273.5l4 -657h-148v657q-2 100 -67.5 169t-155.5 69q-76 0 -140.5 -63.5t-84.5 -149.5v-682h-146v905q0 25 -19.5 60t-37.5 53z" />
<glyph unicode="o" horiz-adv-x="1050" d="M27 508q0 219 142 374.5t341 155.5q201 0 341 -155.5t140 -374.5q0 -217 -140 -372.5t-341 -155.5q-199 0 -341 155.5t-142 372.5zM176 508q0 -158 98.5 -268.5t235.5 -110.5t234.5 111.5t97.5 267.5q0 158 -97.5 270.5t-234.5 112.5t-235.5 -112.5t-98.5 -270.5z" />
<glyph unicode="p" horiz-adv-x="1036" d="M0 1024h207v-33q131 53 254 53q207 -4 351 -158.5t144 -367.5q0 -223 -144 -378.5t-351 -155.5q-147 0 -252 49v-408h-148v1192q-4 146 -61 207zM207 209q10 -29 82.5 -51.5t171.5 -26.5q145 4 247.5 116.5t102.5 270.5q0 156 -103.5 266.5t-246.5 110.5 q-104 0 -179 -23.5t-75 -54.5v-608z" />
<glyph unicode="q" horiz-adv-x="1050" d="M57 528q0 209 141.5 359.5t336.5 150.5q150 0 245 -43v21h146v-1391h-146v445q-92 -49 -245 -50q-195 4 -336.5 152.5t-141.5 355.5zM201 528q0 -150 97 -256t237 -110q94 0 163.5 22.5t81.5 55.5v577q0 31 -72.5 54.5t-172.5 23.5q-139 0 -236.5 -107.5t-97.5 -259.5z " />
<glyph unicode="r" horiz-adv-x="571" d="M-25 1028h236v-80q94 90 231 90q43 0 88 -18l-36 -143q-45 14 -62 14q-76 0 -139.5 -63.5t-81.5 -149.5v-678h-148v901q0 29 -23.5 64.5t-64.5 62.5z" />
<glyph unicode="s" horiz-adv-x="854" d="M72 147l110 86q102 -102 234 -102q86 0 146.5 40t60.5 99q0 51 -63.5 103.5t-147.5 75.5q-133 23 -232.5 114.5t-99.5 196.5q0 121 103.5 198.5t250.5 77.5q94 0 188.5 -43t161.5 -112l-118 -86q-100 94 -240 94q-84 0 -140.5 -37t-56.5 -94.5t59.5 -106.5t149.5 -63 q139 -20 234.5 -112.5t95.5 -205.5q0 -125 -101.5 -205.5t-244.5 -80.5q-94 0 -191.5 43.5t-158.5 119.5z" />
<glyph unicode="t" horiz-adv-x="696" d="M78 864v150h141v381h150v-381h258v-150h-258v-864h-146v864h-145z" />
<glyph unicode="u" horiz-adv-x="921" d="M74 365v657h145v-643l2 -10q4 -96 69.5 -166t155.5 -70q76 0 138.5 64.5t81.5 148.5v680h147v-899q0 -29 18.5 -68t38.5 -59h-204v74q-102 -92 -234 -92q-143 0 -244.5 109.5t-107.5 266.5z" />
<glyph unicode="v" horiz-adv-x="1024" d="M14 1026h156l326 -793l227 566q78 195 92 227h162l-420 -1026h-129z" />
<glyph unicode="w" horiz-adv-x="1443" d="M10 1026h158l321 -786l46 104l71 180l-106 269q-20 47 -92 233h163l316 -790l319 790h162l-420 -1026l-129 6l-129 322l-90 -211l-49 -117l-125 6z" />
<glyph unicode="x" horiz-adv-x="909" d="M16 0l324 532l-313 494h178l227 -364l79 122l73 111q16 23 44.5 69t41.5 62h176l-322 -510l191 -305l131 -211h-174l-244 385l-53 -84h2l-184 -301h-177z" />
<glyph unicode="y" horiz-adv-x="1095" d="M82 -369l22 170q39 -41 89 -41q61 0 116.5 42t83.5 116l37 94l15 38l20 46q-35 86 -55 142l-328 800h158l299 -753l192 485l107 268h157l-385 -950q-6 -14 -17 -45t-18 -45l-24 -63l-27 -70q-43 -115 -138 -182.5t-196 -67.5q-47 0 -108 16z" />
<glyph unicode="z" horiz-adv-x="925" d="M70 0v129l565 750h-559v147h766v-127l-566 -752h566v-147h-772z" />
<glyph unicode="{" horiz-adv-x="456" d="M55 641v147h74q20 0 35.5 15.5t15.5 38.5v448q8 45 60.5 75t119.5 30v-152q-8 0 -20 -2q-10 -2 -12 0v-426q-29 -80 -84 -90v-20q66 -20 84 -80v-480h32v-145q-61 0 -120.5 36t-59.5 89v463q0 23 -15 38t-36 15h-74z" />
<glyph unicode="|" horiz-adv-x="268" d="M82 2v1442h117v-1442h-117z" />
<glyph unicode="}" horiz-adv-x="385" d="M29 0v145h37v476q16 74 77 86q0 4 1 11t1 9q-68 25 -79 84v432h-37v152q74 0 123 -30t59 -75l4 -16v-432q0 -53 45 -54h74v-147h-74q-45 0 -45 -53v-463q0 -53 -59 -89t-127 -36z" />
<glyph unicode="~" horiz-adv-x="710" d="M33 659q98 70 219 70q33 0 104 -22l-2 2h8l7 -2q53 -16 73 -17q90 0 164 62l53 -123q-100 -70 -210 -70q-80 0 -136 31q-33 8 -59 8q-84 0 -158 -61z" />
<glyph unicode="&#xa1;" horiz-adv-x="327" d="M84 1319v4q0 33 21.5 56.5t56.5 23.5q31 0 54.5 -24.5t23.5 -55.5q0 -33 -23.5 -56.5t-54.5 -23.5q-74 0 -78 76zM94 0v1196h133v-1196h-133z" />
<glyph unicode="&#xa2;" horiz-adv-x="978" d="M29 510q0 197 118.5 345.5t296.5 174.5v135h156v-135q158 -27 297 -176l-106 -109q-88 113 -191 136v-744q98 31 188 129l105 -102q-143 -154 -293 -176v-131h-156v133q-172 37 -293.5 185.5t-121.5 334.5zM174 510q0 -135 76 -240.5t194 -132.5v744 q-119 -27 -194.5 -131.5t-75.5 -239.5z" />
<glyph unicode="&#xa3;" horiz-adv-x="1138" d="M33 578v147h231v670h148v-670h350v-147h-350v-433h647v-145h-795v578h-231z" />
<glyph unicode="&#xa5;" horiz-adv-x="1394" d="M25 1395h192l455 -627l465 627h190l-575 -772v-31h280v-150h-280v-8h280v-149h-280v-285h-152v285h-281v149h281v8h-281v150h281v31l-364 489z" />
<glyph unicode="&#xa6;" horiz-adv-x="268" d="M82 2v725h117v-725h-117zM82 788v656h117v-656h-117z" />
<glyph unicode="&#xa7;" horiz-adv-x="729" d="M57 774q0 115 76 176v35q0 117 86 185.5t211 68.5q98 0 227 -57l-63 -140q-96 51 -168 52q-106 0 -141 -72q20 4 69 4q90 0 232 -59l-64 -136q-100 49 -172 50h-31q41 -57 119 -95h-2q109 -51 172.5 -140t63.5 -183q0 -102 -74 -180v-33q0 -121 -90 -194.5t-211 -73.5 q-94 0 -229 65l65 125q96 -43 162 -43q115 0 149 72q-35 -6 -75 -6q-106 0 -226 61l64 131q96 -45 166 -45q29 0 51 6q-35 53 -125 101q-106 53 -174 145t-68 180zM207 766q0 -51 43 -103.5t115 -87.5q102 -53 159 -124q2 4 2 16q0 49 -45 105.5t-112 91.5h2 q-102 41 -162 122q-2 -6 -2 -20zM512 406v2l2 6q8 18 10 37q16 -18 25 -37z" />
<glyph unicode="&#xa8;" horiz-adv-x="538" d="M51 1282q0 33 26.5 58.5t61.5 25.5t61.5 -25.5t26.5 -58.5t-26.5 -59.5t-61.5 -26.5t-61.5 25.5t-26.5 60.5zM307 1282q0 33 26.5 58.5t61.5 25.5t62.5 -25.5t27.5 -58.5t-27.5 -59.5t-62.5 -26.5t-61.5 25.5t-26.5 60.5z" />
<glyph unicode="&#xaa;" horiz-adv-x="366" d="M23 754q0 59 45 100t112 41h29q-8 29 -23 29q-39 0 -114 -23l-23 117q78 20 137 20q55 0 96.5 -47t43.5 -119q-2 -53 -2 -108q0 -31 21.5 -77t47.5 -73l-155 2q-23 -10 -62 -10q-66 0 -109.5 43.5t-43.5 104.5zM137 753.5q0 -10.5 12.5 -20.5t26.5 -10t25.5 10t11.5 21 v28h-37q-14 0 -26.5 -9t-12.5 -19.5z" />
<glyph unicode="&#xab;" horiz-adv-x="1089" d="M29 571l559 471l96 -112l-451 -379l173 -205l200 -233l-108 -99zM354 571l559 471l97 -112l-451 -379q10 -14 32.5 -39t33.5 -39l307 -362l-109 -97z" />
<glyph unicode="&#xac;" horiz-adv-x="1355" d="M70 664v145h1179v-496h-145v351h-1034z" />
<glyph unicode="&#xad;" horiz-adv-x="862" d="M61 524v148h730v-148h-730z" />
<glyph unicode="&#xb0;" horiz-adv-x="512" d="M27 1180q0 96 64.5 159.5t162.5 63.5q90 0 152.5 -64.5t62.5 -158.5q0 -90 -62.5 -153.5t-152.5 -63.5q-98 0 -162.5 62.5t-64.5 154.5zM147 1180q0 -39 33 -71t74 -32q35 0 64.5 32t29.5 71q0 41 -29.5 74.5t-64.5 33.5q-41 0 -74 -33.5t-33 -74.5z" />
<glyph unicode="&#xb1;" horiz-adv-x="925" d="M88 297v145h727v-145h-727zM90 883v147h289v291h147v-291h291v-147h-291v-291h-147v291h-289z" />
<glyph unicode="&#xb2;" horiz-adv-x="573" d="M25 1298q123 104 223 105q111 0 185.5 -76t74.5 -182q0 -92 -70 -182l-205 -230h275v-125h-467v105l307 344q35 31 35 88q0 53 -41 92t-94 39q-51 0 -129 -74z" />
<glyph unicode="&#xb3;" horiz-adv-x="542" d="M-4 713l72 71h41q57 -61 118 -61q47 0 86 32.5t39 75.5t-35.5 76t-80.5 39h-134v125h138q41 2 76.5 34t35.5 68.5t-38 66.5t-85 30q-63 0 -139 -82l-90 98q102 109 229 109q104 0 178 -64.5t74 -156.5q0 -117 -78 -173q74 -82 74 -170q0 -98 -72.5 -164.5t-177.5 -66.5 q-125 0 -231 113z" />
<glyph unicode="&#xb4;" horiz-adv-x="428" d="M27 1063l174 231h235l-291 -231h-118z" />
<glyph unicode="&#xb6;" horiz-adv-x="782" d="M31 1044q0 145 101 248t245 103h184v-1395h-217v696q-131 16 -222 116.5t-91 231.5zM174 1052.5q0 -77.5 41 -135t104 -65.5v401q-63 -8 -104 -65.5t-41 -135zM541 4v1389h143v-1389h-143z" />
<glyph unicode="&#xb7;" horiz-adv-x="460" d="M94 635q0 49 40 90t95 41q53 0 95.5 -41t42.5 -90t-41 -87t-96.5 -38t-95.5 38t-40 87z" />
<glyph unicode="&#xb9;" horiz-adv-x="538" d="M31 1163l278 232h125v-645h-147v436q-8 -6 -131 -107q-4 -2 -21 -18z" />
<glyph unicode="&#xba;" horiz-adv-x="475" d="M27 813q0 98 58 161.5t148 63.5q82 0 140.5 -64.5t58.5 -160.5q0 -90 -58.5 -152.5t-140.5 -62.5q-88 0 -147 62.5t-59 152.5zM141 813q0 -37 29 -68.5t63 -31.5q31 0 56.5 31.5t25.5 68.5q0 43 -25.5 77t-56.5 34q-35 0 -63.5 -34t-28.5 -77z" />
<glyph unicode="&#xbb;" horiz-adv-x="1073" d="M25 930l98 112l557 -471l-467 -557l-109 97l373 440l-284 242zM350 930l99 112l557 -471l-467 -557l-109 97l373 440l-285 242z" />
<glyph unicode="&#xbc;" horiz-adv-x="782" d="M31 907l157 131h86v-628h-108v475l-29 -25q-16 -12 -31 -26zM285 246v82l239 411l94 -49l-198 -338h108v146h107v-146h94v-106h-94v-246h-107v246h-243z" />
<glyph unicode="&#xbd;" horiz-adv-x="727" d="M6 907l158 133h86v-630h-107v477l-30 -25q-16 -12 -31 -26zM236 641q102 92 190 92q102 0 173 -69.5t71 -169.5q0 -84 -68 -162l-203 -228h271v-104h-428v84l288 326q33 33 33 84q0 57 -40 95t-97 38q-47 0 -117 -60z" />
<glyph unicode="&#xbe;" horiz-adv-x="937" d="M31 401l80 70q57 -68 122 -68q53 0 92.5 33t39.5 80q0 59 -73 89t-167 16v112h121q51 4 86 32t35 66q0 43 -38 74t-91 31q-68 0 -132 -68l-73 76q90 96 205 96q98 0 167.5 -60t69.5 -149q0 -96 -84 -153q80 -68 80 -162q0 -92 -68.5 -155.5t-169.5 -63.5q-112 0 -202 104 zM432 248v84l242 409l94 -47l-193 -338h101v146h108v-146h95v-108h-95v-244h-108v244h-244z" />
<glyph unicode="&#xbf;" horiz-adv-x="884" d="M74 377q0 158 112.5 277.5t264.5 119.5h61q-41 139 -51 180l-131 441h155l189 -645v-125h-223q-98 -4 -166 -75t-68 -173q0 -100 71.5 -173t172.5 -73q135 0 229 156l107 -107q-135 -201 -336 -200q-160 0 -273.5 117.5t-113.5 279.5zM285 1542q0 41 23.5 64.5t62.5 23.5 q33 0 58.5 -24.5t25.5 -63.5q0 -37 -26 -61.5t-58 -24.5q-39 0 -62.5 24.5t-23.5 61.5z" />
<glyph unicode="&#xc0;" d="M31 0l522 1415h113l522 -1415h-156l-207 559h-430l-135 -362q-57 -145 -76 -197h-153zM301 1686h240l174 -232h-119zM449 709h321q-10 29 -39 103.5t-39 105.5v-3q-47 119 -84 224q-45 -113 -61 -164v-2z" />
<glyph unicode="&#xc1;" d="M31 0l522 1415h113l522 -1415h-156l-207 559h-430l-135 -362q-57 -145 -76 -197h-153zM449 709h321q-10 29 -39 103.5t-39 105.5v-3q-47 119 -84 224q-45 -113 -61 -164v-2zM532 1454l175 232h235l-291 -232h-119z" />
<glyph unicode="&#xc2;" d="M31 0l522 1415h113l522 -1415h-156l-207 559h-430l-135 -362q-57 -145 -76 -197h-153zM449 709h321q-10 29 -39 103.5t-39 105.5v-3q-47 119 -84 224q-45 -113 -61 -164v-2z" />
<glyph unicode="&#xc3;" d="M45 35l522 1415h113l522 -1415h-155l-207 559h-430l-136 -363q-57 -145 -75 -196h-154zM315 1606q104 68 211 67q41 0 103 -14h-4q2 -2 4 -2q49 -16 76 -17q92 0 157 56l56 -117q-92 -68 -209 -68q-63 0 -121 23q-31 10 -62 10q-78 0 -151 -53zM463 743h321 q-10 29 -38.5 104t-38.5 105v-2q-47 119 -84 224q-45 -113 -62 -164v-2z" />
<glyph unicode="&#xc4;" d="M31 0l522 1415h113l522 -1415h-156l-207 559h-430l-135 -362q-57 -145 -76 -197h-153zM385 1513q0 33 26.5 58.5t61.5 25.5t61.5 -25.5t26.5 -58t-26.5 -59.5t-61.5 -27t-61.5 25.5t-26.5 60.5zM449 709h321q-10 29 -39 103.5t-39 105.5v-3q-47 119 -84 224 q-45 -113 -61 -164v-2zM641 1513q0 33 26.5 58.5t61.5 25.5t62.5 -25.5t27.5 -58t-27.5 -59.5t-62.5 -27t-61.5 25.5t-26.5 60.5z" />
<glyph unicode="&#xc5;" d="M387 1626q0 96 64.5 159.5t162.5 63.5q90 0 152.5 -64.5t62.5 -158.5q0 -90 -62.5 -153.5t-152.5 -63.5q-98 0 -162.5 62.5t-64.5 154.5zM507 1626q0 -39 33 -71t74 -32q35 0 64.5 32t29.5 71q0 41 -29.5 74.5t-64.5 33.5q-41 0 -74 -33.5t-33 -74.5zM31 0l522 1415h113 l522 -1415h-156l-207 559h-430l-135 -362q-57 -145 -76 -197h-153zM449 709h321q-10 29 -39 103.5t-39 105.5v-3q-47 119 -84 224q-45 -113 -61 -164v-2z" />
<glyph unicode="&#xc6;" horiz-adv-x="2213" d="M37 0l524 1415h1313v-145h-696v-445h596v-149h-596v-526h696v-150h-846v559h-627l-98 -268l-108 -291h-158zM457 709h571l19 561h-390l-104 -287z" />
<glyph unicode="&#xc7;" horiz-adv-x="1298" d="M86 700q0 305 189.5 514t459.5 209q258 0 467 -225l-106 -98q-162 178 -361 178q-209 0 -355.5 -170t-146.5 -408q0 -233 146.5 -403t355.5 -170q188 0 357 174l106 -100q-195 -205 -448 -217q82 -47 81 -121q0 -80 -133 -156l-163 121q45 0 105 9t60 30q0 27 -65 27h-51 l2 106q-215 57 -357.5 251.5t-142.5 448.5z" />
<glyph unicode="&#xc8;" horiz-adv-x="993" d="M68 0v1415h843v-145h-696v-445h594v-149h-594v-526h696v-150h-843zM160 1686h239l174 -232h-118z" />
<glyph unicode="&#xc9;" horiz-adv-x="993" d="M68 0v1415h843v-145h-696v-445h594v-149h-594v-526h696v-150h-843zM362 1454l175 232h235l-291 -232h-119z" />
<glyph unicode="&#xca;" horiz-adv-x="993" d="M236 1644l253 250l254 -252l-96 -96l-158 160l-161 -160zM68 0v1415h843v-145h-696v-445h594v-149h-594v-526h696v-150h-843z" />
<glyph unicode="&#xcb;" horiz-adv-x="993" d="M68 0v1415h843v-145h-696v-445h594v-149h-594v-526h696v-150h-843zM270 1516q0 33 27 58t61.5 25t61 -25.5t26.5 -58t-26.5 -59t-61 -26.5t-61.5 25.5t-27 60.5zM526 1516q0 33 27 58t61.5 25t62.5 -25.5t28 -58t-28 -59t-62.5 -26.5t-61.5 25.5t-27 60.5z" />
<glyph unicode="&#xcc;" horiz-adv-x="268" d="M-143 1686h239l174 -232h-118zM84 0v1415h149v-1415h-149z" />
<glyph unicode="&#xcd;" horiz-adv-x="315" d="M63 1454l175 232h235l-291 -232h-119zM68 0v1415h149v-1415h-149z" />
<glyph unicode="&#xce;" horiz-adv-x="282" d="M68 0v1415h149v-1415h-149z" />
<glyph unicode="&#xcf;" horiz-adv-x="282" d="M-84 1513q0 33 26.5 58.5t61.5 25.5t61.5 -25.5t26.5 -58t-26.5 -59.5t-61.5 -27t-61.5 25.5t-26.5 60.5zM68 0v1415h149v-1415h-149zM172 1513q0 33 26.5 58.5t61.5 25.5t62.5 -25.5t27.5 -58t-27.5 -59.5t-62.5 -27t-61.5 25.5t-26.5 60.5z" />
<glyph unicode="&#xd0;" horiz-adv-x="1337" d="M70 535v147h131v733h530q137 -2 254 -96t183.5 -256t66.5 -352q0 -291 -144.5 -497t-355.5 -214h-534v535h-131zM350 150q121 0 185 2q35 0 101 1t99 1q145 4 247.5 166.5t102.5 390.5q0 229 -102 391t-252 164h-381v-584h340v-147h-340v-385z" />
<glyph unicode="&#xd1;" horiz-adv-x="1099" d="M74 0v1415h133l645 -1091v1091h149v-1415h-135l-645 1098v-1098h-147zM246 1569q88 47 172 47q49 0 121 -23q2 0 8 -2t8 -4q57 -27 107 -26q55 0 129 45l43 -123q-82 -49 -172 -49q-92 0 -197 65l41 -24q-39 14 -88 14q-51 0 -125 -43z" />
<glyph unicode="&#xd2;" horiz-adv-x="1413" d="M41 707q0 297 189.5 506.5t457.5 209.5q276 0 460.5 -207.5t184.5 -508.5q0 -317 -196 -527q-182 -199 -449 -198q-264 0 -455.5 210t-191.5 515zM193 707q0 -238 144 -406t351 -168q213 0 356.5 167t143.5 407q0 256 -160 415q-133 150 -340 150t-351 -164.5 t-144 -400.5zM346 1686h240l174 -232h-119z" />
<glyph unicode="&#xd3;" horiz-adv-x="1413" d="M41 707q0 297 189.5 506.5t457.5 209.5q276 0 460.5 -207.5t184.5 -508.5q0 -317 -196 -527q-182 -199 -449 -198q-264 0 -455.5 210t-191.5 515zM193 707q0 -238 144 -406t351 -168q213 0 356.5 167t143.5 407q0 256 -160 415q-133 150 -340 150t-351 -164.5 t-144 -400.5zM645 1454l174 232h236l-291 -232h-119z" />
<glyph unicode="&#xd4;" horiz-adv-x="1413" d="M435 1644l253 250l254 -252l-96 -96l-158 160l-161 -160zM41 707q0 297 189.5 506.5t457.5 209.5q276 0 460.5 -207.5t184.5 -508.5q0 -317 -196 -527q-182 -199 -449 -198q-264 0 -455.5 210t-191.5 515zM193 707q0 -238 144 -406t351 -168q213 0 356.5 167t143.5 407 q0 256 -160 415q-133 150 -340 150t-351 -164.5t-144 -400.5z" />
<glyph unicode="&#xd5;" horiz-adv-x="1413" d="M41 707q0 297 189.5 506.5t457.5 209.5q276 0 460.5 -207.5t184.5 -508.5q0 -317 -196 -527q-182 -199 -449 -198q-264 0 -455.5 210t-191.5 515zM193 707q0 -238 144 -406t351 -168q213 0 356.5 167t143.5 407q0 256 -160 415q-133 150 -340 150t-351 -164.5 t-144 -400.5zM401 1571q88 47 172 47q49 0 121 -23q2 -2 8.5 -4t8.5 -2q57 -27 106 -26q55 0 129 45l43 -123q-82 -49 -172 -49q-92 0 -196 65l41 -24q-39 14 -89 14q-51 0 -124 -43z" />
<glyph unicode="&#xd6;" horiz-adv-x="1413" d="M41 707q0 297 189.5 506.5t457.5 209.5q276 0 460.5 -207.5t184.5 -508.5q0 -317 -196 -527q-182 -199 -449 -198q-264 0 -455.5 210t-191.5 515zM193 707q0 -238 144 -406t351 -168q213 0 356.5 167t143.5 407q0 256 -160 415q-133 150 -340 150t-351 -164.5 t-144 -400.5zM481 1516q0 33 27 58t61.5 25t61 -25.5t26.5 -58t-26.5 -59t-61 -26.5t-61.5 25.5t-27 60.5zM737 1516q0 33 27 58t61.5 25t62 -25.5t27.5 -58t-27.5 -59t-62 -26.5t-61.5 25.5t-27 60.5z" />
<glyph unicode="&#xd7;" horiz-adv-x="751" d="M43 430l207 207l-205 205l102 104l207 -205l205 205l105 -102l-207 -207l207 -207l-103 -102l-207 207l-207 -207z" />
<glyph unicode="&#xd8;" horiz-adv-x="1413" d="M41 707q0 297 189.5 506.5t457.5 209.5q86 0 176 -26l6 18h152l-23 -76q156 -98 245 -265t89 -367q0 -317 -196 -527q-182 -199 -449 -198q-84 0 -168 24v-6h-168l25 70q-154 88 -245 258t-91 379zM193 707q0 -158 63 -288t172 -206l227 616l156 426q-51 16 -123 17 q-207 0 -351 -164.5t-144 -400.5zM565 150q51 -16 123 -17q213 0 356.5 167t143.5 407q0 256 -160 415q-39 41 -80 72l-112 -301z" />
<glyph unicode="&#xd9;" horiz-adv-x="1224" d="M66 369v1046h155v-1042q16 -96 127 -168t256 -72q139 0 248 71.5t123 168.5v1042h149v-1044q-6 -158 -159.5 -273.5t-360.5 -115.5q-217 0 -372.5 113.5t-165.5 273.5zM289 1686h239l174 -232h-118z" />
<glyph unicode="&#xda;" horiz-adv-x="1224" d="M66 369v1046h155v-1042q16 -96 127 -168t256 -72q139 0 248 71.5t123 168.5v1042h149v-1044q-6 -158 -159.5 -273.5t-360.5 -115.5q-217 0 -372.5 113.5t-165.5 273.5zM524 1454l174 232h236l-291 -232h-119z" />
<glyph unicode="&#xdb;" horiz-adv-x="1224" d="M342 1644l253 250l254 -252l-96 -96l-158 160l-161 -160zM66 369v1046h155v-1042q16 -96 127 -168t256 -72q139 0 248 71.5t123 168.5v1042h149v-1044q-6 -158 -159.5 -273.5t-360.5 -115.5q-217 0 -372.5 113.5t-165.5 273.5z" />
<glyph unicode="&#xdc;" horiz-adv-x="1224" d="M66 369v1046h155v-1042q16 -96 127 -168t256 -72q139 0 248 71.5t123 168.5v1042h149v-1044q-6 -158 -159.5 -273.5t-360.5 -115.5q-217 0 -372.5 113.5t-165.5 273.5zM387 1513q0 33 26.5 58.5t61.5 25.5t61.5 -25.5t26.5 -58t-26.5 -59.5t-61.5 -27t-61.5 25.5 t-26.5 60.5zM643 1513q0 33 26.5 58.5t61.5 25.5t62.5 -25.5t27.5 -58t-27.5 -59.5t-62.5 -27t-61.5 25.5t-26.5 60.5z" />
<glyph unicode="&#xdd;" horiz-adv-x="1394" d="M20 1415h195l463 -635l123 166l348 469h192l-585 -782v-633h-152v633l-162 217zM627 1454l174 232h235l-291 -232h-118z" />
<glyph unicode="&#xde;" horiz-adv-x="1095" d="M104 -383v1800h148v-411q117 53 256 53q211 -4 357.5 -161t146.5 -374q0 -225 -146.5 -383.5t-357.5 -158.5q-125 0 -258 55v-420h-146zM248 829l4 -614q-2 -20 31.5 -39.5t93 -31t131.5 -13.5q145 4 248.5 117.5t103.5 273.5q0 156 -104.5 270.5t-247.5 114.5 q-98 0 -173 -22.5t-87 -55.5z" />
<glyph unicode="&#xdf;" horiz-adv-x="1064" d="M86 -332v1727h459q160 -2 272.5 -109.5t112.5 -251.5q0 -184 -156 -293q86 -53 134 -141t48 -190q0 -164 -118.5 -284t-292.5 -122h-178l-131 133v-469h-150zM236 145h309q109 6 186.5 84t77.5 180.5t-83 176t-216 82.5h-274v-523zM236 813h309q100 4 168.5 66.5 t68.5 154.5q0 84 -69.5 146.5t-169.5 68.5h-307v-436z" />
<glyph unicode="&#xe0;" horiz-adv-x="831" d="M59 303q0 141 104.5 234.5t250.5 93.5h186v6q0 104 -48 178t-124 76q-115 0 -246 -39l-37 143q152 43 285 43q127 -4 219 -107.5t99 -252.5v-21q-4 -166 -5 -323q0 -270 58 -334h-201v39q-92 -59 -199 -59q-139 0 -240.5 95t-101.5 228zM96 1294h240l174 -231h-119z M207 303q0 -72 57.5 -122t136.5 -50q84 0 141.5 50t57.5 122v180h-186q-86 0 -146.5 -50t-60.5 -130z" />
<glyph unicode="&#xe1;" horiz-adv-x="831" d="M59 303q0 141 104.5 234.5t250.5 93.5h186v6q0 104 -48 178t-124 76q-115 0 -246 -39l-37 143q152 43 285 43q127 -4 219 -107.5t99 -252.5v-21q-4 -166 -5 -323q0 -270 58 -334h-201v39q-92 -59 -199 -59q-139 0 -240.5 95t-101.5 228zM207 303q0 -72 57.5 -122 t136.5 -50q84 0 141.5 50t57.5 122v180h-186q-86 0 -146.5 -50t-60.5 -130zM303 1063l174 231h236l-291 -231h-119z" />
<glyph unicode="&#xe2;" horiz-adv-x="831" d="M59 303q0 141 104.5 234.5t250.5 93.5h186v6q0 104 -48 178t-124 76q-115 0 -246 -39l-37 143q152 43 285 43q127 -4 219 -107.5t99 -252.5v-21q-4 -166 -5 -323q0 -270 58 -334h-201v39q-92 -59 -199 -59q-139 0 -240.5 95t-101.5 228zM152 1124l254 250l253 -252 l-96 -96l-157 160l-162 -160zM207 303q0 -72 57.5 -122t136.5 -50q84 0 141.5 50t57.5 122v180h-186q-86 0 -146.5 -50t-60.5 -130z" />
<glyph unicode="&#xe3;" horiz-adv-x="831" d="M74 336q0 141 104.5 234.5t249.5 93.5h186v6q0 104 -48 178t-124 76q-115 0 -245 -39l-37 143q152 43 284 43q127 -4 219.5 -107.5t98.5 -252.5v-21q-4 -166 -4 -323q0 -270 57 -334h-201v39q-92 -59 -198 -60q-139 0 -240.5 95.5t-101.5 228.5zM92 1167q109 72 213 72 q51 0 98 -14h-6h2q2 -2 4 -2q39 -14 66 -15q92 0 162 64l55 -115q-92 -76 -209 -76q-68 0 -112 23v-2q-31 10 -58 10q-82 0 -149 -61zM221 336q0 -72 57.5 -122t137.5 -50q84 0 141 50t57 122v180h-186q-86 0 -146.5 -50t-60.5 -130z" />
<glyph unicode="&#xe4;" horiz-adv-x="831" d="M74 336q0 141 104.5 234.5t249.5 93.5h186v6q0 104 -48 178t-124 76q-115 0 -245 -39l-37 143q152 43 284 43q127 -4 219.5 -107.5t98.5 -252.5v-21q-4 -166 -4 -323q0 -270 57 -334h-201v39q-92 -59 -198 -60q-139 0 -240.5 95.5t-101.5 228.5zM205 1282q0 35 25.5 59.5 t64.5 24.5q35 0 61.5 -25.5t26.5 -58.5t-26.5 -59.5t-61.5 -26.5q-37 0 -63.5 25.5t-26.5 60.5zM221 336q0 -72 57.5 -122t137.5 -50q84 0 141 50t57 122v180h-186q-86 0 -146.5 -50t-60.5 -130zM463 1282q0 33 26.5 58.5t61.5 25.5t61.5 -25.5t26.5 -58.5 q0 -35 -26.5 -60.5t-61.5 -25.5t-61.5 25.5t-26.5 60.5z" />
<glyph unicode="&#xe5;" horiz-adv-x="831" d="M209 1379q0 96 64.5 159.5t162.5 63.5q90 0 152.5 -64.5t62.5 -158.5q0 -90 -62.5 -153.5t-152.5 -63.5q-98 0 -162.5 62.5t-64.5 154.5zM329 1379q0 -39 33 -71t74 -32q35 0 64.5 32t29.5 71q0 41 -29.5 74.5t-64.5 33.5q-41 0 -74 -33.5t-33 -74.5zM59 303 q0 141 104.5 234.5t250.5 93.5h186v6q0 104 -48 178t-124 76q-115 0 -246 -39l-37 143q152 43 285 43q127 -4 219 -107.5t99 -252.5v-21q-4 -166 -5 -323q0 -270 58 -334h-201v39q-92 -59 -199 -59q-139 0 -240.5 95t-101.5 228zM207 303q0 -72 57.5 -122t136.5 -50 q84 0 141.5 50t57.5 122v180h-186q-86 0 -146.5 -50t-60.5 -130z" />
<glyph unicode="&#xe6;" horiz-adv-x="1521" d="M70 303q0 135 100 231.5t242 96.5h192l2 4v8q4 16 4 19q-2 96 -52 160.5t-120 68.5q-117 0 -245 -39l-37 143q156 43 284 43q168 -6 262 -170q125 172 308 172q174 0 292.5 -149.5t118.5 -368.5v-80h-667v-47q31 -113 107.5 -189.5t168.5 -76.5q100 0 264 80l60 -129 q-109 -63 -271 -96q-16 -2 -53 -2q-141 0 -266 104q18 -53 67 -86h-221v39q-92 -59 -198 -59q-139 0 -240.5 95t-101.5 228zM219 303q0 -72 55.5 -122t137.5 -50t140 50t58 122v53q-12 53 -16 119v8h-182q-82 0 -137.5 -52t-55.5 -128zM756 586h516q-18 133 -91 219t-171 86 q-100 0 -173 -87t-81 -218z" />
<glyph unicode="&#xe7;" horiz-adv-x="1009" d="M57 512q0 217 144.5 371.5t351.5 154.5q211 0 377 -186l-103 -102q-131 141 -274 141t-245.5 -110.5t-102.5 -268.5t101.5 -269.5t246.5 -111.5q143 0 264 131l107 -100q-143 -154 -326 -178q35 -16 63.5 -51t28.5 -76q0 -78 -131 -158l-145 115q143 16 143 39 q0 35 -61 34l-4 -2h-7h-43l4 109q-170 37 -279.5 181t-109.5 337z" />
<glyph unicode="&#xe8;" horiz-adv-x="933" d="M37 473v39q0 217 124 372.5t294 155.5q174 0 291.5 -149.5t117.5 -368.5v-80h-674q16 -135 96.5 -223t190.5 -90q94 0 264 80l58 -129q-127 -70 -269 -96q-16 -2 -53 -2q-172 0 -300 143t-140 348zM156 1294h239l174 -231h-118zM195 586h522q-16 133 -90 219t-172 86 q-92 0 -164.5 -88t-95.5 -217z" />
<glyph unicode="&#xe9;" horiz-adv-x="933" d="M37 473v39q0 217 124 372.5t294 155.5q174 0 291.5 -149.5t117.5 -368.5v-80h-674q16 -135 96.5 -223t190.5 -90q94 0 264 80l58 -129q-127 -70 -269 -96q-16 -2 -53 -2q-172 0 -300 143t-140 348zM195 586h522q-16 133 -90 219t-172 86q-92 0 -164.5 -88t-95.5 -217z M362 1063l175 231h235l-291 -231h-119z" />
<glyph unicode="&#xea;" horiz-adv-x="933" d="M37 473v39q0 217 124 372.5t294 155.5q174 0 291.5 -149.5t117.5 -368.5v-80h-674q16 -135 96.5 -223t190.5 -90q94 0 264 80l58 -129q-127 -70 -269 -96q-16 -2 -53 -2q-172 0 -300 143t-140 348zM195 586h522q-16 133 -90 219t-172 86q-92 0 -164.5 -88t-95.5 -217z M203 1124l254 250l254 -252l-97 -96l-157 160l-162 -160z" />
<glyph unicode="&#xeb;" horiz-adv-x="933" d="M37 473v39q0 217 124 372.5t294 155.5q174 0 291.5 -149.5t117.5 -368.5v-80h-674q16 -135 96.5 -223t190.5 -90q94 0 264 80l58 -129q-127 -70 -269 -96q-16 -2 -53 -2q-172 0 -300 143t-140 348zM195 586h522q-16 133 -90 219t-172 86q-92 0 -164.5 -88t-95.5 -217z M242 1282q0 33 26.5 58.5t61.5 25.5t61.5 -25.5t26.5 -58.5t-26.5 -59.5t-61.5 -26.5t-61.5 25.5t-26.5 60.5zM498 1282q0 33 26.5 58.5t61.5 25.5t62.5 -25.5t27.5 -58.5t-27.5 -59.5t-62.5 -26.5t-61.5 25.5t-26.5 60.5z" />
<glyph unicode="&#xec;" horiz-adv-x="432" d="M-53 1327h239l174 -231h-118zM158 0v1026h143v-1026h-143z" />
<glyph unicode="&#xed;" horiz-adv-x="432" d="M49 1096l174 231h236l-291 -231h-119zM100 0v1026h148v-1026h-148z" />
<glyph unicode="&#xee;" horiz-adv-x="362" d="M-70 1157l254 250l254 -252l-96 -96l-158 160l-161 -160zM100 0v1026h144v-1026h-144z" />
<glyph unicode="&#xef;" horiz-adv-x="362" d="M-4 1282q0 33 26.5 58.5t61.5 25.5t61.5 -25.5t26.5 -58.5q0 -35 -26.5 -60.5t-61.5 -25.5t-61.5 25.5t-26.5 60.5zM100 0v1026h144v-1026h-144zM176 1282q0 35 25.5 59.5t64.5 24.5q35 0 61.5 -25.5t26.5 -58.5t-26.5 -59.5t-61.5 -26.5q-37 0 -63.5 25.5t-26.5 60.5z " />
<glyph unicode="&#xf0;" horiz-adv-x="1001" d="M59 958v13q0 178 126 305t307 127q172 0 296.5 -125t139.5 -299q6 -82 6 -272v-52q0 -176 -25 -299q-31 -164 -158.5 -267t-295.5 -103q-100 0 -198.5 53t-168.5 143l131 109q102 -154 250 -154q113 0 196 72t107 180v-2q18 145 21 275q-129 -119 -306 -119 q-172 0 -299 120.5t-129 294.5zM201 963q6 -115 89 -195t197 -80q121 0 206 84t85 203q0 113 -86 195.5t-198 82.5q-121 0 -207 -85.5t-86 -204.5z" />
<glyph unicode="&#xf1;" horiz-adv-x="886" d="M12 1051h203v-66q90 90 235.5 90t249 -111.5t107.5 -273.5l4 -657h-147v657q-2 100 -68 169t-156 69q-76 0 -140 -63.5t-85 -149.5v-682h-145v905q0 25 -20 60t-38 53zM121 1257q98 66 209 66q49 0 82 -12q2 0 11 -4t13 -7h-2q31 -10 70 -10q78 0 149 62l62 -119 q-100 -70 -213 -70q-74 0 -119 23q-27 10 -59 10q-63 0 -152 -57z" />
<glyph unicode="&#xf2;" horiz-adv-x="1079" d="M27 508q0 219 142 374.5t341 155.5q201 0 341 -155.5t140 -374.5q0 -217 -140 -372.5t-341 -155.5q-199 0 -341 155.5t-142 372.5zM176 508q0 -158 98.5 -268.5t235.5 -110.5t234.5 111.5t97.5 267.5q0 158 -97.5 270.5t-234.5 112.5t-235.5 -112.5t-98.5 -270.5z M229 1294h240l174 -231h-119z" />
<glyph unicode="&#xf3;" horiz-adv-x="1079" d="M27 508q0 219 142 374.5t341 155.5q201 0 341 -155.5t140 -374.5q0 -217 -140 -372.5t-341 -155.5q-199 0 -341 155.5t-142 372.5zM176 508q0 -158 98.5 -268.5t235.5 -110.5t234.5 111.5t97.5 267.5q0 158 -97.5 270.5t-234.5 112.5t-235.5 -112.5t-98.5 -270.5z M449 1063l174 231h235l-291 -231h-118z" />
<glyph unicode="&#xf4;" horiz-adv-x="1050" d="M27 508q0 219 142 374.5t341 155.5q201 0 341 -155.5t140 -374.5q0 -217 -140 -372.5t-341 -155.5q-199 0 -341 155.5t-142 372.5zM176 508q0 -158 98.5 -268.5t235.5 -110.5t234.5 111.5t97.5 267.5q0 158 -97.5 270.5t-234.5 112.5t-235.5 -112.5t-98.5 -270.5z M262 1124l254 250l254 -252l-96 -96l-158 160l-162 -160z" />
<glyph unicode="&#xf5;" horiz-adv-x="1050" d="M27 508q0 219 142 374.5t341 155.5q201 0 341 -155.5t140 -374.5q0 -217 -140 -372.5t-341 -155.5q-199 0 -341 155.5t-142 372.5zM176 508q0 -158 98.5 -268.5t235.5 -110.5t234.5 111.5t97.5 267.5q0 158 -97.5 270.5t-234.5 112.5t-235.5 -112.5t-98.5 -270.5z M233 1245q88 47 173 47q49 0 120 -22q2 0 8.5 -2t8.5 -4q57 -27 106 -27q55 0 129 45l43 -123q-82 -49 -172 -49q-92 0 -196 66l41 -25q-39 14 -88 14q-51 0 -125 -43z" />
<glyph unicode="&#xf6;" horiz-adv-x="1079" d="M27 508q0 219 142 374.5t341 155.5q201 0 341 -155.5t140 -374.5q0 -217 -140 -372.5t-341 -155.5q-199 0 -341 155.5t-142 372.5zM176 508q0 -158 98.5 -268.5t235.5 -110.5t234.5 111.5t97.5 267.5q0 158 -97.5 270.5t-234.5 112.5t-235.5 -112.5t-98.5 -270.5z M326 1282q0 33 26.5 58.5t61.5 25.5t61.5 -25.5t26.5 -58.5t-26.5 -59.5t-61.5 -26.5t-61.5 25.5t-26.5 60.5zM582 1282q0 33 26.5 58.5t61.5 25.5t62.5 -25.5t27.5 -58.5t-27.5 -59.5t-62.5 -26.5t-61.5 25.5t-26.5 60.5z" />
<glyph unicode="&#xf7;" horiz-adv-x="870" d="M63 557v148h730v-148h-730zM322 268v191h190v-191h-190zM322 741v191h190v-191h-190z" />
<glyph unicode="&#xf8;" horiz-adv-x="1050" d="M27 508q0 219 142 374.5t341 155.5q207 0 371 -188l-115 -100q-121 141 -256 141q-137 0 -235.5 -112.5t-98.5 -270.5q0 -111 53 -209l-112 -100q-90 170 -90 309zM123 193l108 100q121 -164 279 -164q137 0 234.5 111.5t97.5 267.5q0 117 -76 237l117 99 q109 -172 108 -336q0 -217 -140 -372.5t-341 -155.5q-223 0 -387 213z" />
<glyph unicode="&#xf9;" horiz-adv-x="921" d="M74 365v657h145v-643l2 -10q4 -96 69.5 -166t155.5 -70q76 0 138.5 64.5t81.5 148.5v680h147v-899q0 -29 18.5 -68t38.5 -59h-204v74q-102 -92 -234 -92q-143 0 -244.5 109.5t-107.5 266.5zM154 1294h239l174 -231h-118z" />
<glyph unicode="&#xfa;" horiz-adv-x="921" d="M74 365v657h145v-643l2 -10q4 -96 69.5 -166t155.5 -70q76 0 138.5 64.5t81.5 148.5v680h147v-899q0 -29 18.5 -68t38.5 -59h-204v74q-102 -92 -234 -92q-143 0 -244.5 109.5t-107.5 266.5zM340 1063l174 231h236l-291 -231h-119z" />
<glyph unicode="&#xfb;" horiz-adv-x="921" d="M74 365v657h145v-643l2 -10q4 -96 69.5 -166t155.5 -70q76 0 138.5 64.5t81.5 148.5v680h147v-899q0 -29 18.5 -68t38.5 -59h-204v74q-102 -92 -234 -92q-143 0 -244.5 109.5t-107.5 266.5zM197 1124l254 250l254 -252l-97 -96l-157 160l-162 -160z" />
<glyph unicode="&#xfc;" horiz-adv-x="921" d="M74 365v657h145v-643l2 -10q4 -96 69.5 -166t155.5 -70q76 0 138.5 64.5t81.5 148.5v680h147v-899q0 -29 18.5 -68t38.5 -59h-204v74q-102 -92 -234 -92q-143 0 -244.5 109.5t-107.5 266.5zM236 1282q0 33 26.5 58.5t61 25.5t61.5 -25.5t27 -58.5t-27 -59.5t-61.5 -26.5 t-61 25.5t-26.5 60.5zM492 1282q0 33 26.5 58.5t61 25.5t62.5 -25.5t28 -58.5t-28 -59.5t-62.5 -26.5t-61 25.5t-26.5 60.5z" />
<glyph unicode="&#xfd;" horiz-adv-x="1095" d="M82 -369l22 170q39 -41 89 -41q61 0 116.5 42t83.5 116l37 94l15 38l20 46q-35 86 -55 142l-328 800h158l299 -753l192 485l107 268h157l-385 -950q-6 -14 -17 -45t-18 -45l-24 -63l-27 -70q-43 -115 -138 -182.5t-196 -67.5q-47 0 -108 16zM469 1063l174 231h236 l-291 -231h-119z" />
<glyph unicode="&#xfe;" horiz-adv-x="1058" d="M104 -377v1774h150v-406q106 51 250 51q207 -4 351 -158.5t144 -367.5q0 -223 -144 -378.5t-351 -155.5q-123 0 -252 55v-414h-148zM248 815l6 -604q-2 -20 30.5 -37.5t91 -29t128.5 -13.5q143 4 245.5 114.5t102.5 268.5q0 152 -103.5 265.5t-244.5 113.5 q-92 0 -165 -23.5t-91 -54.5z" />
<glyph unicode="&#xff;" horiz-adv-x="1095" d="M82 -369l22 170q39 -41 89 -41q61 0 116.5 42t83.5 116l37 94l15 38l20 46q-35 86 -55 142l-328 800h158l299 -753l192 485l107 268h157l-385 -950q-6 -14 -17 -45t-18 -45l-24 -63l-27 -70q-43 -115 -138 -182.5t-196 -67.5q-47 0 -108 16zM344 1282q0 33 26.5 58.5 t61.5 25.5t61.5 -25.5t26.5 -58.5t-26.5 -59.5t-61.5 -26.5t-61.5 25.5t-26.5 60.5zM600 1282q0 33 26.5 58.5t61.5 25.5t62.5 -25.5t27.5 -58.5t-27.5 -59.5t-62.5 -26.5t-61.5 25.5t-26.5 60.5z" />
<glyph unicode="&#x152;" horiz-adv-x="2162" d="M51 707q0 297 188.5 506.5t456.5 209.5q326 0 500 -252v244h846v-145h-699v-445h596v-149h-596v-526h699v-150h-846v242q-27 -37 -51 -62q-182 -199 -449 -198q-262 0 -453.5 210t-191.5 515zM203 707q0 -240 143 -407t350 -167q190 0 332.5 153.5t167.5 370.5v97 q-18 223 -158 368q-137 150 -341.5 150t-349 -164.5t-144.5 -400.5z" />
<glyph unicode="&#x153;" horiz-adv-x="1802" d="M39 508q0 219 142.5 374.5t342.5 155.5q121 0 230.5 -68.5t175.5 -178.5q53 117 146 183t208 66q174 0 293 -149.5t119 -368.5v-80h-678q16 -135 97 -223t190 -90q100 0 264 80l59 -129q-111 -66 -270 -96q-14 -2 -53 -2q-117 0 -214.5 67.5t-156.5 183.5 q-66 -115 -175.5 -184t-234.5 -69q-199 0 -342 155.5t-143 372.5zM186 508q0 -158 99.5 -268.5t238.5 -110.5q135 0 232.5 111.5t97.5 267.5q0 158 -97.5 270.5t-232.5 112.5q-139 0 -238.5 -112.5t-99.5 -270.5zM1022 586h524q-18 133 -91 219t-171 86q-92 0 -165.5 -88 t-96.5 -217z" />
<glyph unicode="&#x178;" horiz-adv-x="1394" d="M20 1415h195l463 -635l123 166l348 469h192l-585 -782v-633h-152v633l-162 217zM471 1493q0 33 26.5 58.5t61.5 25.5t61.5 -25.5t26.5 -58.5t-26.5 -59.5t-61.5 -26.5t-61.5 25.5t-26.5 60.5zM727 1493q0 33 26.5 58.5t61.5 25.5t62.5 -25.5t27.5 -58.5t-27.5 -59.5 t-62.5 -26.5t-61.5 25.5t-26.5 60.5z" />
<glyph unicode="&#x2c6;" horiz-adv-x="548" d="M23 1124l253 250l254 -252l-96 -96l-158 160l-161 -160z" />
<glyph unicode="&#x2dc;" horiz-adv-x="684" d="M35 1245q88 47 172 47q49 0 121 -22q4 0 8 -2l8 -4q57 -27 107 -27q55 0 129 45l43 -123q-82 -49 -172 -49q-92 0 -197 66l41 -25q-39 14 -88 14q-51 0 -125 -43z" />
<glyph unicode="&#x2000;" horiz-adv-x="946" />
<glyph unicode="&#x2001;" horiz-adv-x="1894" />
<glyph unicode="&#x2002;" horiz-adv-x="946" />
<glyph unicode="&#x2003;" horiz-adv-x="1894" />
<glyph unicode="&#x2004;" horiz-adv-x="630" />
<glyph unicode="&#x2005;" horiz-adv-x="473" />
<glyph unicode="&#x2006;" horiz-adv-x="315" />
<glyph unicode="&#x2007;" horiz-adv-x="315" />
<glyph unicode="&#x2008;" horiz-adv-x="235" />
<glyph unicode="&#x2009;" horiz-adv-x="378" />
<glyph unicode="&#x200a;" horiz-adv-x="104" />
<glyph unicode="&#x2010;" horiz-adv-x="862" d="M61 524v148h730v-148h-730z" />
<glyph unicode="&#x2011;" horiz-adv-x="862" d="M61 524v148h730v-148h-730z" />
<glyph unicode="&#x2012;" horiz-adv-x="862" d="M61 524v148h730v-148h-730z" />
<glyph unicode="&#x2013;" horiz-adv-x="851" d="M61 524v148h730v-148h-730z" />
<glyph unicode="&#x2014;" horiz-adv-x="1089" d="M66 524v148h948v-148h-948z" />
<glyph unicode="&#x2018;" horiz-adv-x="307" d="M37 1174l106 229l68 -33l-21 -160l60 -129l-144 -63z" />
<glyph unicode="&#x2019;" horiz-adv-x="325" d="M33 1094l67 143l-16 145l158 13l18 -164l-176 -189z" />
<glyph unicode="&#x201a;" horiz-adv-x="352" d="M41 -86l80 129v147h158v-172l-197 -170z" />
<glyph unicode="&#x201c;" horiz-adv-x="446" d="M41 1231l18 164l158 -13l-18 -145l53 -111q0 -2 2 -9t6 -15t4 -10l-47 -50zM182 1231l17 164l159 -13l-18 -145l51 -111q8 -16 15 -34l-48 -50z" />
<glyph unicode="&#x201d;" horiz-adv-x="485" d="M35 1094l67 143l-18 145l160 13l16 -164l-176 -189zM176 1094l68 143l-19 145l158 13l18 -164l-176 -189z" />
<glyph unicode="&#x201e;" horiz-adv-x="473" d="M25 -84l77 131l-4 146h160v-166l-195 -174zM166 -86l80 131v148h155v-173l-196 -172z" />
<glyph unicode="&#x2022;" horiz-adv-x="428" d="M59 770q0 61 47.5 107.5t106.5 46.5t106.5 -46.5t47.5 -107.5q0 -57 -47.5 -102t-106.5 -45t-106.5 45t-47.5 102z" />
<glyph unicode="&#x2026;" horiz-adv-x="890" d="M63 0v190h189v-190h-189zM342 0v190h188v-190h-188zM621 0v190h188v-190h-188z" />
<glyph unicode="&#x202f;" horiz-adv-x="378" />
<glyph unicode="&#x2039;" horiz-adv-x="720" d="M55 510l516 518l105 -102l-412 -416l191 -191l221 -217l-103 -106z" />
<glyph unicode="&#x203a;" horiz-adv-x="702" d="M55 102l416 408l-416 416l107 102l514 -518l-516 -514z" />
<glyph unicode="&#x205f;" horiz-adv-x="473" />
<glyph unicode="&#x20ac;" horiz-adv-x="1525" d="M70 502v147h186v39q0 33 4 74v4h-190v147h219q66 217 241 353.5t392 136.5q279 0 516 -248l-105 -106q-190 203 -411 202q-154 0 -285 -95t-191 -243h644v-147h-680q-4 -25 -4 -78q0 -16 2 -29v-10h682v-147h-650q55 -160 189.5 -264.5t292.5 -104.5q223 0 409 215 l107 -119q-233 -248 -516 -247q-231 0 -407.5 145t-233.5 375h-211z" />
<glyph unicode="&#x2122;" horiz-adv-x="854" d="M39 1255v123h354v-123h-112v-333h-127v333h-115zM362 922v456h103l88 -145q18 33 41 67q12 18 18 33l29 45h100v-456h-125v182q-6 -14 -17 -33.5t-11 -21.5h-72l-27 45v-172h-127z" />
<glyph unicode="&#xe000;" horiz-adv-x="1025" d="M0 1025h1025v-1025h-1025v1025z" />
<glyph unicode="&#xfb01;" horiz-adv-x="1034" d="M51 856v150h144l-2 12v26q8 145 99 252t214 107q57 0 137 -10l-45 -150q-51 12 -92 12q-70 -4 -119 -70.5t-49 -162.5v-16h250v-1006h-144v856h-106v-856h-141v856h-146z" />
<glyph unicode="&#xfb02;" horiz-adv-x="1003" d="M49 856v150h146l-2 12v26q6 150 96 252.5t217 106.5h127v-1403h-152v856h-143v-856h-141v856h-148zM338 1006h143v247q-61 -14 -102 -79.5t-41 -151.5v-16zM481 1276v61l82 -82h-57z" />
<glyph unicode="&#xfb03;" horiz-adv-x="1705" d="M1427 1282q0 35 25.5 59.5t62.5 24.5q35 0 62.5 -25.5t27.5 -58.5t-27.5 -59.5t-62.5 -26.5q-37 0 -62.5 25.5t-25.5 60.5zM1443 0v1026h144v-1026h-144zM723 856v150h144l-2 12v26q8 145 99 252t214 107q57 0 137 -10l-45 -150q-51 12 -92 12q-70 -4 -119 -70.5 t-49 -162.5v-16h252v-150h-252v-856h-141v856h-146zM51 856v150h144l-2 12v26q8 145 99 252t214 107q57 0 137 -10l-45 -150q-51 12 -92 12q-70 -4 -119 -70.5t-49 -162.5v-16h252v-150h-252v-856h-141v856h-146z" />
<glyph unicode="&#xfb04;" horiz-adv-x="1675" d="M1443 0v1395h146v-1395h-146zM723 856v150h144l-2 12v26q8 145 99 252t214 107q57 0 137 -10l-45 -150q-51 12 -92 12q-70 -4 -119 -70.5t-49 -162.5v-16h252v-150h-252v-856h-141v856h-146zM51 856v150h144l-2 12v26q8 145 99 252t214 107q57 0 137 -10l-45 -150 q-51 12 -92 12q-70 -4 -119 -70.5t-49 -162.5v-16h252v-150h-252v-856h-141v856h-146z" />
<glyph horiz-adv-x="526" />
</font>
</defs>
</svg>
