<?xml version="1.0" standalone="no"?>
<!DOCTYPE svg PUBLIC "-//W3C//DTD SVG 1.1//EN" "http://www.w3.org/Graphics/SVG/1.1/DTD/svg11.dtd" >
<svg xmlns="http://www.w3.org/2000/svg">
<metadata>
This is a custom SVG webfont generated by Font Squirrel.
Copyright   : Llicia gratu  Free License La Tipomatika
Designer    : La Tipomatika Digital Type Foundry
Foundry     : La Tipomatika
</metadata>
<defs>
<font id="webfontExehwwzQ" horiz-adv-x="1220" >
<font-face units-per-em="2048" ascent="1638" descent="-410" />
<missing-glyph horiz-adv-x="526" />
<glyph unicode=" "  horiz-adv-x="526" />
<glyph unicode="&#x09;" horiz-adv-x="526" />
<glyph unicode="&#xa0;" horiz-adv-x="526" />
<glyph unicode="!" horiz-adv-x="360" d="M94 61q8 35 35 56.5t61 21.5q74 0 60 -76v-2q-6 -31 -34 -55t-58 -24q-35 0 -52.5 23t-11.5 56zM133 190l256 1205h133l-256 -1205h-133z" />
<glyph unicode="&#x22;" horiz-adv-x="444" d="M295 1083l43 312h156l-15 -158l-141 -209zM438 1083l43 312h158l-16 -158l-142 -209z" />
<glyph unicode="#" horiz-adv-x="1462" d="M104 424l156 151h195q12 23 46 79.5t48 82.5l29 47h-398l152 150h327l125 207q16 29 52 85l47 77h153l-217 -369h391l152 256q12 18 36 58l32 55h155l-217 -369h250l-152 -150h-178l-43 -71l-39 -63q-27 -42 -45 -75h383l-158 -151h-311l-114 -199l-127 -225h-160 l246 424h-396l-153 -270l2 2l-46 -79q-32 -54 -44 -77h-158l246 424h-267zM612 575h396l53 97q23 33 67 112h-391z" />
<glyph unicode="$" horiz-adv-x="954" d="M82 201l137 94q72 -147 197 -162l106 494q-150 33 -219.5 138t-38.5 247q29 137 146.5 241.5t273.5 137.5l18 92h148l-16 -82q193 -12 307 -184l-137 -95q-78 119 -201 133l-109 -507q147 -37 220 -140.5t42 -242.5q-29 -133 -150.5 -239t-273.5 -136l-24 -117h-148 l25 113q-102 12 -182 69.5t-121 145.5zM418 1018q-16 -78 20.5 -143.5t116.5 -92.5l96 459q-88 -27 -152.5 -87t-80.5 -136zM565 139q88 18 154.5 77.5t85.5 141.5q16 80 -24 148.5t-117 95.5z" />
<glyph unicode="&#x26;" horiz-adv-x="1222" d="M150 395q23 113 130 218.5t275 181.5h4q4 2 6 2q-2 2 0 4v-2q0 4 -2 6q-74 102 -90 166.5t-2 130.5q27 119 138.5 210t256.5 91q137 0 207 -85t45 -204q-39 -186 -327 -328l-7 -4l109 -190l80 -137q2 4 8 10q57 82 104 186l158 -33q-119 -213 -188 -294q0 -4 -4 -13 l-4 -8q31 -76 96 -143l-37 -172q-104 78 -162 172q-8 16 -10 18l-6 12l-10 -8q-207 -184 -424 -182q-182 0 -280.5 116.5t-63.5 278.5zM319 406q-23 -102 35 -185.5t168 -83.5q78 -2 168 45t158 121l4 4l-63.5 112l-71.5 124l-92 155l-7 -4q-268 -136 -299 -288zM633 1118 q-12 -76 33 -145l61 -92h2l4 2h-2q115 59 164 109t63.5 120t-21.5 118t-108 48q-66 0 -124 -47t-72 -113zM1004 297h40v-10l-38 -4z" />
<glyph unicode="'" horiz-adv-x="247" d="M240 1094l100 143l12 145l160 13l-16 -164l-215 -189z" />
<glyph unicode="(" horiz-adv-x="532" d="M190 588q55 262 175 490.5t262 351.5l28 -160q-94 -92 -178 -276.5t-129 -405.5q-51 -246 -38.5 -438.5t81.5 -274.5l-117 -137q-94 117 -117.5 343t33.5 507z" />
<glyph unicode=")" horiz-adv-x="503" d="M53 -123q104 82 198.5 275.5t145.5 435.5q47 221 42 406.5t-62 275.5l94 160q90 -125 114.5 -350.5t-28.5 -491.5q-59 -272 -182 -501.5t-264 -346.5z" />
<glyph unicode="*" horiz-adv-x="964" d="M328 1036l30 146h187l-105 133l127 104l103 -131l41 187h145l-41 -187l162 131l82 -102l-160 -133h186l-30 -148h-191q2 -4 37 -43l70 -90l-123 -102l-107 135l-41 -193h-145l39 189q-16 -14 -51 -42l-63 -50q-28 -23 -44 -39l-86 102l164 133h-186z" />
<glyph unicode="+" horiz-adv-x="925" d="M201 524l30 148h289l62 291h147l-61 -291h290l-30 -148h-291l-62 -291h-147l61 291h-288z" />
<glyph unicode="," horiz-adv-x="354" d="M23 -86l106 129l31 147h157l-36 -172l-232 -170z" />
<glyph unicode="-" horiz-adv-x="862" d="M172 524l31 148h729l-31 -148h-729z" />
<glyph unicode="." horiz-adv-x="296" d="M53 0l39 190h191l-39 -190h-191z" />
<glyph unicode="/" horiz-adv-x="774" d="M53 0l805 1395h156l-805 -1395h-156z" />
<glyph unicode="0" horiz-adv-x="1200" d="M213 692q63 295 261 503t413 208t321.5 -208t42.5 -503q-61 -293 -255.5 -501.5t-409.5 -208.5q-213 0 -323.5 209.5t-49.5 500.5zM362 692q-49 -233 25 -397t229.5 -164t298 164t191.5 397q51 233 -21.5 397t-228.5 164t-299.5 -164t-194.5 -397z" />
<glyph unicode="1" horiz-adv-x="538" d="M276 1163l328 232h125l-295 -1395h-147l252 1186l-154 -107q-8 -2 -25 -18z" />
<glyph unicode="2" horiz-adv-x="972" d="M92 0l27 127l702 635q92 82 117 196q27 125 -44 210t-198 85q-123 0 -256 -106l-84 106q203 150 371 150q186 0 290.5 -131t65.5 -314q-35 -166 -184 -301l-559 -512h571l-30 -145h-789z" />
<glyph unicode="3" horiz-adv-x="882" d="M49 147l123 103q90 -125 229 -125q121 0 223.5 77t123.5 183q18 84 -48.5 156.5t-167.5 95.5h-206l30 147h211q115 6 208 75t112 159q20 98 -49.5 167.5t-188.5 69.5q-156 0 -289 -122l-77 108q184 162 397 162q182 0 287.5 -112.5t72.5 -272.5q-18 -94 -88.5 -176 t-169.5 -135q158 -123 113 -322q-35 -170 -188.5 -289t-335.5 -119q-102 0 -186.5 46t-135.5 124z" />
<glyph unicode="4" horiz-adv-x="968" d="M156 487l30 125l627 793l115 -70l-555 -700h301l63 295h150l-64 -295h189l-31 -148h-188l-103 -487h-149l102 487h-487z" />
<glyph unicode="5" horiz-adv-x="1032" d="M160 225l129 107q33 -86 95 -136.5t140 -50.5q129 0 243 107.5t146 259.5q31 150 -37.5 255t-197.5 105q-88 0 -175 -53t-147 -143h-137l203 719h772l-31 -150h-631l-45 -137q-35 -121 -51 -170q127 80 273 80q193 0 295 -147.5t57 -358.5q-47 -213 -212 -362.5 t-355 -149.5q-111 0 -200 60.5t-134 164.5z" />
<glyph unicode="6" horiz-adv-x="1036" d="M180 403q10 80 49 269l9 41q45 201 96 319q61 156 203.5 262.5t302.5 108.5q236 0 348 -211l-158 -82q-33 66 -91 105.5t-128 39.5q-106 0 -206.5 -74.5t-141.5 -185.5q-47 -121 -82 -270q135 115 313 125q180 0 285.5 -120t69.5 -300l-5 -18q-39 -180 -190.5 -304 t-333.5 -124q-174 0 -271 120.5t-67 301.5zM328 408q-25 -115 42.5 -197t184.5 -82q119 0 220.5 82t125.5 199l4 16q20 117 -47 196.5t-186 79.5t-219 -86.5t-125 -207.5z" />
<glyph unicode="7" horiz-adv-x="907" d="M47 0l846 1245h-518l31 150h755l-946 -1395h-168z" />
<glyph unicode="8" horiz-adv-x="940" d="M127 401q23 104 93.5 196.5t166.5 152.5q-119 100 -80 286q33 150 166 258.5t285 108.5q160 0 247 -107.5t54 -259.5q-37 -182 -203 -286q76 -55 103.5 -146.5t5.5 -202.5q-37 -174 -184.5 -296.5t-323.5 -122.5q-170 0 -268.5 123.5t-61.5 295.5zM276 401 q-23 -111 40 -190.5t171 -79.5q113 0 211.5 80t120.5 190q25 113 -38.5 193t-178.5 80q-109 0 -205 -80t-121 -193zM453 1036q-18 -90 35 -153.5t147 -63.5q96 0 176 63.5t98 153.5q20 90 -33 153.5t-149 63.5q-94 0 -174 -63.5t-100 -153.5z" />
<glyph unicode="9" horiz-adv-x="1001" d="M125 182l156 109q33 -72 90 -113t127 -41q113 0 210 72t146 180v-2q49 156 78 275q-154 -119 -330 -119q-172 0 -273.5 120.5t-66.5 294.5l2 13q39 178 191.5 305t332.5 127q172 0 270.5 -125t76.5 -299q-10 -80 -52 -272l-10 -52q-43 -188 -90 -299q-63 -164 -214 -267 t-318 -103q-100 0 -187.5 53t-138.5 143zM403 963q-16 -115 49.5 -195t180.5 -80q121 0 223 83t129 204q23 113 -45 195.5t-180 82.5q-121 0 -225.5 -85.5t-131.5 -204.5z" />
<glyph unicode=":" horiz-adv-x="372" d="M90 0l39 190h190l-38 -190h-191zM266 838l41 188h191l-41 -188h-191z" />
<glyph unicode=";" horiz-adv-x="346" d="M0 -86l109 129l30 147h160l-37 -172l-235 -170zM266 838l41 188h187l-41 -188h-187z" />
<glyph unicode="&#x3c;" horiz-adv-x="675" d="M127 510l623 518l86 -102l-502 -416l151 -191l174 -217l-127 -106z" />
<glyph unicode="=" horiz-adv-x="901" d="M197 385l32 150h709l-33 -150h-708zM276 756l33 151h709l-33 -151h-709z" />
<glyph unicode="&#x3e;" horiz-adv-x="688" d="M61 102l498 408q-10 14 -65 83l-86 109q-147 190 -170 224l124 102l404 -518l-623 -514z" />
<glyph unicode="?" horiz-adv-x="839" d="M299 1200q172 203 373 203q160 0 247 -117t52 -280q-35 -158 -169 -274t-292 -116h-59l12 -127q23 -295 43 -489h-160l-45 639l27 123h215q98 4 181 73.5t103 170.5q23 102 -32.5 175.5t-153.5 73.5q-131 0 -260 -159zM344 -152q8 37 38 60.5t62 23.5q39 0 57.5 -22.5 t10.5 -61.5q-8 -37 -38 -63.5t-66 -26.5q-33 0 -52.5 27.5t-11.5 62.5z" />
<glyph unicode="@" horiz-adv-x="1544" d="M225 659q70 319 309.5 531.5t555.5 212.5q254 0 402 -156.5t93 -417.5q-41 -195 -196.5 -364.5t-335.5 -194.5q-109 6 -142 43q-90 -49 -168 -49q-117 0 -179 83t-38 202q27 119 126.5 199.5t217.5 80.5h121q27 147 -26 148q-72 0 -129 -19l-45 -2l-7 152l50 2 q68 20 165 20q176 -6 142 -294q-37 -152 -66 -291q-2 -20 -12 -49v2q-29 -76 31 -76q39 0 109.5 51t117.5 121q29 39 58.5 112.5t41.5 124.5q37 168 -67.5 287t-304.5 119q-231 0 -419 -162t-241 -403q-51 -238 67.5 -371t383.5 -133q158 0 292 58.5t216 152.5h188l-43 -66 q-100 -131 -282.5 -221t-403.5 -90q-328 0 -489 171t-93 486zM659 549q-12 -57 22 -98t93 -41q57 0 106.5 41t61.5 98l31 137h-133q-61 0 -114 -39t-67 -98z" />
<glyph unicode="A" d="M31 0l821 1415h113l223 -1415h-156l-88 559h-430l-213 -362l-117 -197h-153zM598 709h322q-4 35 -16.5 108.5t-16.5 100.5v-3q-27 147 -37 224q-59 -92 -96 -164l-2 -2z" />
<glyph unicode="B" horiz-adv-x="1048" d="M86 0l299 1415h463q162 -2 253 -110q68 -81 68 -183q0 -34 -8 -71q-39 -186 -219 -299q72 -55 102 -146q18 -54 19 -112q0 -39 -8 -78q-35 -168 -181.5 -289t-322.5 -123h2l-39 -4h-428zM264 150h316q113 6 208 83.5t117 182.5q6 27 6 52q0 71 -47 127q-63 77 -174 81 h-313zM408 825h315q104 4 187 67.5t104 158.5q4 19 3 37q0 63 -44 112q-57 63 -158 70h-313z" />
<glyph unicode="C" horiz-adv-x="1208" d="M188 707q61 289 296 502.5t503 213.5q125 0 234.5 -59t183.5 -162l-125 -102q-131 174 -324 174q-205 0 -385 -166t-231 -401q-16 -76 -16 -144q0 -147 72 -262q105 -168 317 -168q186 0 395 172l82 -102q-258 -221 -508 -221q-258 0 -408 215q-105 151 -105 341 q0 81 19 169z" />
<glyph unicode="D" horiz-adv-x="1177" d="M53 0l299 1415h533q137 -2 234.5 -98t126.5 -252q13 -69 13 -147q0 -97 -20 -207q-61 -291 -248.5 -497t-400.5 -214h-537zM233 150q123 0 187 2q35 0 101.5 1t99.5 1q145 4 283 166.5t186 390.5q20 94 20 177q0 117 -41 212q-70 162 -215 166h-383z" />
<glyph unicode="E" horiz-adv-x="993" d="M68 0l299 1415h843l-30 -145h-697l-94 -445h594l-31 -149h-594l-112 -526h696l-31 -150h-843z" />
<glyph unicode="F" horiz-adv-x="997" d="M76 0l299 1415h844l-31 -143h-696l-95 -447h594l-30 -149h-594l-144 -676h-147z" />
<glyph unicode="G" horiz-adv-x="1236" d="M180 700q63 299 299 511t504 212q258 0 420 -221l-127 -104q-129 174 -326 174q-209 0 -390 -166t-232 -406q-15 -72 -15 -137q0 -149 77 -267q112 -169 319 -169q166 0 327 121l72 338h-371l31 145h520l-112 -530l-9 -21q-233 -199 -489 -198q-268 0 -415 212 q-102 148 -102 336q0 81 19 170z" />
<glyph unicode="H" horiz-adv-x="1142" d="M78 0l299 1415h149l-125 -590h676l125 590h148l-299 -1415h-148l144 676h-676l-144 -676h-149z" />
<glyph unicode="I" horiz-adv-x="282" d="M68 0l299 1415h149l-299 -1415h-149z" />
<glyph unicode="J" horiz-adv-x="624" d="M49 98l119 103q51 -70 92 -70q55 0 108.5 64.5t73.5 162.5l224 1057h151l-223 -1053q-33 -154 -141.5 -267t-223.5 -113q-102 -1 -180 116z" />
<glyph unicode="K" horiz-adv-x="1193" d="M68 0l299 1415h149l-141 -672l721 672h200l-663 -620l514 -795h-197l-442 682q-53 -53 -84 -80q-47 -49 -100 -94l-107 -508h-149z" />
<glyph unicode="L" horiz-adv-x="927" d="M66 0l299 1415h147l-268 -1265h659l-31 -150h-806z" />
<glyph unicode="M" horiz-adv-x="1275" d="M49 0l299 1415h135l277 -719l569 719h137l-299 -1415h-151l231 1098l-491 -621h-92l-234 621l-231 -1098h-150z" />
<glyph unicode="N" horiz-adv-x="1099" d="M74 0l299 1415h133l414 -1091l231 1091h149l-299 -1415h-135l-413 1098l-232 -1098h-147z" />
<glyph unicode="O" horiz-adv-x="1413" d="M190 707q63 297 297 506.5t502 209.5q276 0 417 -208q97 -143 97 -330q0 -85 -20 -178q-68 -315 -309 -527q-225 -199 -489.5 -198.5t-412.5 209.5q-102 145 -102 337q0 85 20 179zM342 707q-16 -77 -16 -147q0 -147 73 -260q109 -167 316 -167q213 0 392 167t230 407 q16 77 16 145q0 160 -87 270q-102 150 -309 150t-385.5 -164.5t-229.5 -400.5z" />
<glyph unicode="P" horiz-adv-x="983" d="M84 0l299 1415h420q172 0 271 -107q76 -82 76 -189q0 -33 -7 -68q-33 -158 -178.5 -267.5t-319.5 -109.5h-272l-142 -674h-147zM406 823h272q111 0 203 65.5t112 162.5q4 19 4 37q0 65 -52 116q-67 66 -175 66h-270z" />
<glyph unicode="Q" horiz-adv-x="1361" d="M217 752q59 283 277.5 477t461.5 194q248 0 385 -195q96 -137 96 -315q0 -77 -18 -161q-61 -283 -295 -484q-150 -133 -336 -172q0 -84 33 -84q25 0 66 66l90 -98q-106 -111 -186 -111q-66 0 -106 62.5t-40 154.5q-229 20 -357 211q-88 132 -89 298q0 75 18 157zM358 752 q-15 -69 -15 -133q0 -100 38 -187q61 -141 197 -190l26 133h8q78 0 129 -38q53 -40 64 -104q160 45 295 190.5t174 328.5q14 69 14 131q0 151 -82 260q-102 143 -278 143q-188 0 -356.5 -156.5t-213.5 -377.5zM575 238l3 4q2 -2 6 -2q6 -2 8 -2h-17z" />
<glyph unicode="R" horiz-adv-x="970" d="M66 0l299 1415h419q174 0 273 -106q74 -80 73 -187q0 -35 -8 -73q-33 -156 -176 -264.5t-317 -108.5h-119l199 -299q31 -49 254 -377h-195l-422 621l-131 -621h-149zM389 825h270q111 0 202 64.5t112 159.5q5 21 5 41q0 64 -50 115q-66 67 -178 67h-267z" />
<glyph unicode="S" horiz-adv-x="993" d="M102 205l138 94q72 -168 262 -168q115 0 212 68.5t117 165.5q5 23 6 44q0 66 -47 123q-62 76 -174 93q-170 25 -267 139q-73 86 -73 191q0 35 9 73q37 168 190.5 280.5t339.5 112.5q231 0 361 -184l-144 -98q-82 139 -248 139q-117 0 -221 -71.5t-125 -170.5 q-6 -26 -5 -50q0 -70 48 -128q66 -78 183 -86q170 -20 263 -136q69 -86 69 -190q0 -37 -9 -75q-35 -162 -186.5 -275.5t-333.5 -113.5q-125 0 -222.5 61.5t-142.5 161.5z" />
<glyph unicode="T" horiz-adv-x="1177" d="M332 1270l30 145h1031l-31 -145h-438l-269 -1270h-149l268 1270h-442z" />
<glyph unicode="U" horiz-adv-x="1224" d="M143 369l222 1046h155l-221 -1042q-4 -96 91 -168t241 -72q139 0 263 71.5t159 168.5l221 1042h149l-221 -1044q-41 -158 -218 -273.5t-384 -115.5q-217 0 -348 113q-112 97 -112 228q0 23 3 46z" />
<glyph unicode="V" horiz-adv-x="1308" d="M354 1415h154l186 -1165l283 483l395 682h156l-821 -1415h-132z" />
<glyph unicode="W" horiz-adv-x="1873" d="M367 1415h153l187 -1167l127 221v-2l151 262q-10 57 -27 167l-24 161v-2q-35 244 -55 360h153l88 -559q8 -59 26.5 -160.5t24.5 -140.5l48 -307l258 444l419 723h158l-821 -1415h-133l-82 514q-29 -47 -131 -227l-164 -287h-133z" />
<glyph unicode="X" horiz-adv-x="1107" d="M29 0l575 723l-258 692h172l213 -553l207 256l238 297h174l-562 -704l121 -336l142 -375h-174l-220 573l-274 -344l-87 -108q-65 -80 -95 -121h-172z" />
<glyph unicode="Y" horiz-adv-x="1394" d="M319 1415h195l328 -635l159 166l447 469h192l-751 -782l-133 -633h-152l133 633l-114 217z" />
<glyph unicode="Z" horiz-adv-x="1122" d="M23 0l1056 1266h-706l30 149h971l-1052 -1265h690l-31 -150h-958z" />
<glyph unicode="[" horiz-adv-x="430" d="M190 641l31 147h74q20 0 39.5 15.5t23.5 38.5l95 448q18 45 76.5 75t125.5 30l-30 -152q-6 0 -15.5 -1t-13.5 -2t-6 1l-90 -426q-47 -82 -103 -90l-4 -20q59 -20 66 -80l-101 -480h33l-31 -145q-59 0 -112 36t-43 89l100 463q4 23 -8 38t-33 15h-74z" />
<glyph unicode="\" horiz-adv-x="759" d="M348 1395h154l217 -1395h-158z" />
<glyph unicode="]" horiz-adv-x="374" d="M29 0l30 145h37l101 476q33 74 96 86q2 8 6 20q-61 25 -61 84l92 432h-37l31 152q74 0 116.5 -30t42.5 -75l2 -16l-92 -432q-10 -53 33 -54h74l-31 -147h-74q-45 0 -55 -53l-100 -463q-10 -53 -76.5 -89t-134.5 -36z" />
<glyph unicode="^" horiz-adv-x="1128" d="M219 895l631 512l403 -514l-129 -105l-321 412l-234 -192l-268 -220z" />
<glyph unicode="_" horiz-adv-x="1050" d="M61 0l31 145h877l-31 -145h-877z" />
<glyph unicode="`" horiz-adv-x="417" d="M248 1294h239l125 -231h-118z" />
<glyph unicode="a" horiz-adv-x="831" d="M123 303q31 141 154.5 234.5t269.5 93.5h186l2 6q9 43 9 80q0 54 -19 98q-33 74 -109 76q-113 0 -254 -39l-6 143q162 43 293 43q127 -2 197 -106q51 -77 51 -179q0 -36 -6 -75l-4 -21l-74 -323q-31 -153 -31 -240q0 -67 19 -94h-201l8 39q-106 -59 -213 -59 q-139 0 -220 95q-60 70 -60 161q0 32 8 67zM270 303q-3 -17 -3 -33q0 -51 35 -89q46 -50 126 -50q84 0 152.5 50t83.5 122l38 180h-186q-86 0 -158 -50t-88 -130z" />
<glyph unicode="b" horiz-adv-x="1071" d="M53 0q25 27 48.5 80t33.5 92l12 41l250 1182h148l-86 -404q119 47 262 47q205 0 316 -155q80 -111 80 -252q0 -57 -13 -119q-45 -217 -224.5 -372.5t-385.5 -159.5q-160 10 -244 51l-6 -31h-191zM289 213q-4 -23 26.5 -41t87 -29.5t125.5 -13.5q141 4 268.5 115.5 t159.5 267.5q10 45 10 87q0 100 -56 179q-79 113 -220 113q-94 0 -174 -21.5t-100 -52.5z" />
<glyph unicode="c" horiz-adv-x="978" d="M135 510q47 217 225.5 372.5t378.5 155.5q209 0 338 -184l-129 -109q-92 145 -239 146q-143 0 -269.5 -111.5t-158.5 -269.5q-10 -47 -10 -89q0 -101 55 -179q78 -111 221 -111t293 137l88 -104q-215 -182 -412 -182q-201 0 -313 156q-80 112 -81 254q0 57 13 118z" />
<glyph unicode="d" horiz-adv-x="1093" d="M195 518q45 215 223 366.5t381 153.5q158 0 239 -49l86 406h148l-250 -1178q-11 -53 -11 -94q0 -78 40 -117h-222l7 31q-111 -41 -258 -51q-203 4 -316 159q-80 111 -80 254q0 57 13 119zM338 518q-10 -46 -10 -88q0 -101 55 -180q78 -113 225 -117q104 4 182 29.5 t84 54.5l127 596q-6 31 -72.5 54.5t-160.5 23.5q-147 -4 -272 -113.5t-158 -259.5z" />
<glyph unicode="e" horiz-adv-x="933" d="M137 473l8 39q45 217 202 372.5t327 155.5q174 0 261 -149q56 -97 56 -223q0 -68 -16 -146l-19 -80h-673q-2 -23 -2 -43q0 -106 51 -180q61 -88 172 -90q98 0 280 80l31 -129q-141 -70 -289 -96q-16 -2 -53 -2q-172 0 -270 143q-74 108 -74 250q0 47 8 98zM317 586h523 q2 24 2 47q0 102 -45 172q-55 86 -154 86q-92 0 -184.5 -88t-141.5 -217z" />
<glyph unicode="f" horiz-adv-x="671" d="M197 0l180 856h-146l33 150h144v12l6 26q39 145 153.5 252t235.5 107q57 0 135 -10l-76 -150q-49 12 -90 12q-72 -4 -134.5 -70.5t-82.5 -162.5l-4 -16h252l-33 -150h-252l-180 -856h-141z" />
<glyph unicode="g" horiz-adv-x="1128" d="M41 -43q18 84 86 160t162 121q-1 5 -1 12q0 22 9 61q8 45 45 99q-80 76 -79 189q0 36 7 75q33 150 176.5 257t315.5 107q66 0 151 -20h398l-170 -148h-60q28 -63 29 -128q0 -34 -8 -68q-33 -154 -176.5 -258.5t-317.5 -104.5q-47 0 -96 13q-35 10 -55 10q-29 0 -35 -19 q-4 -29 29 -28h10q2 0 5 1t5 1h4q16 4 55 4q176 0 277 -98q78 -76 78 -178q0 -29 -6 -60q-29 -141 -172.5 -241.5t-319.5 -100.5q-170 0 -272 101q-80 79 -80 182q0 29 6 59zM186 -43q-3 -16 -3 -30q0 -61 55 -109q68 -59 178 -60q117 0 211 59.5t110 139.5q3 15 3 30 q0 61 -56 108q-70 58 -184 59q-111 0 -204.5 -59.5t-109.5 -137.5zM416 674q-4 -20 -4 -39q0 -66 51 -116q66 -65 176 -64q117 0 209 63.5t110 155.5q5 22 5 42q0 65 -50 114q-66 65 -182 65q-111 0 -203 -64.5t-112 -156.5z" />
<glyph unicode="h" horiz-adv-x="931" d="M72 0l297 1399h145l-96 -449q117 90 254 90q147 0 226 -111q57 -80 57 -186q0 -41 -9 -86l-133 -651h-145l139 651q4 24 4 47q0 71 -40 122q-52 69 -142 69q-72 0 -150 -63.5t-119 -149.5l-143 -682h-145z" />
<glyph unicode="i" horiz-adv-x="362" d="M100 0l217 1026h144l-217 -1026h-144zM356 1282q6 35 37 59.5t68 24.5q35 0 57 -26q18 -20 18 -44q0 -7 -1 -14q-8 -35 -41 -60.5t-68 -25.5q-37 0 -57 26q-15 18 -15 41q0 9 2 19z" />
<glyph unicode="j" horiz-adv-x="724" d="M-4 -373l41 142q55 0 84 -5q6 -2 8 -2l4 7q80 0 147.5 65.5t88.5 157.5l219 1036h145l-223 -1055q-39 -145 -149.5 -247.5t-239.5 -106.5q-20 0 -74 4q-8 4 -51 4zM623 1272q20 84 106 84q31 0 51 -24q15 -17 15 -40q0 -9 -2 -20q-6 -33 -37 -59.5t-62 -26.5 q-39 0 -58 25q-15 19 -15 45z" />
<glyph unicode="k" horiz-adv-x="901" d="M43 0q70 59 82 121l270 1274h148l-137 -652l256 185l118 88h232l-404 -285q14 -41 44 -120l34 -89l188 -522h-174l-227 633q-12 -8 -49 -37t-59 -43l-117 -553h-205z" />
<glyph unicode="l" horiz-adv-x="331" d="M100 0l295 1395h146l-295 -1395h-146z" />
<glyph unicode="m" horiz-adv-x="1513" d="M70 0l190 901q2 9 2 21q0 19 -6 46q-10 42 -27 58h205l-16 -80q111 90 248 90q190 0 262 -170q68 88 157 131t177 43q145 0 224 -110q58 -81 58 -190q0 -40 -8 -83l-135 -653h-148l140 653q4 25 4 48q0 68 -36 119q-48 69 -138 69q-78 0 -156 -63.5t-115 -147.5 l-143 -678h-147l137 649q6 29 6 56q0 65 -36 112q-50 68 -142 68q-74 0 -151 -63.5t-116 -147.5l-143 -678h-147z" />
<glyph unicode="n" horiz-adv-x="886" d="M57 0l191 905q6 25 -5.5 59.5t-27.5 53.5h203l-15 -66q111 90 256.5 90t224.5 -111q58 -82 58 -191q0 -40 -8 -83l-135 -657h-148l140 657q6 28 5 54q0 64 -36 114q-51 70 -144 70q-76 0 -152.5 -63.5t-117.5 -149.5l-143 -682h-146z" />
<glyph unicode="o" horiz-adv-x="1050" d="M133 508q47 219 222 374.5t374 155.5q201 0 308 -155q75 -108 75 -247q0 -61 -14 -128q-47 -217 -220 -372.5t-374 -155.5q-199 0 -308 155q-77 109 -77 248q0 60 14 125zM283 508q-10 -48 -10 -92q0 -100 52 -176q75 -111 212 -111t257.5 111.5t153.5 267.5q10 49 10 94 q0 99 -50 176q-73 113 -210 113t-258.5 -112.5t-156.5 -270.5z" />
<glyph unicode="p" horiz-adv-x="1036" d="M-16 -375l249 1192q10 56 11 99q0 70 -27 108h207l-8 -33q143 53 266 53q205 -4 317 -158q79 -109 80 -247q0 -58 -14 -121q-47 -223 -224 -378.5t-384 -155.5q-147 0 -242 49l-86 -408h-145zM250 209q4 -29 72.5 -51.5t164.5 -26.5q147 4 273.5 115.5t159.5 271.5 q10 46 9 88q0 101 -56 178q-79 111 -224 111q-102 0 -182 -23.5t-88 -54.5z" />
<glyph unicode="q" horiz-adv-x="1050" d="M168 528q45 209 218 359.5t368 150.5q152 0 237 -43l4 21h146l-295 -1391h-146l95 445q-104 -49 -256 -50q-195 4 -306 153q-79 105 -78 241q0 54 13 114zM311 528q-9 -44 -9 -83q0 -97 53 -173q75 -106 212 -110q94 0 169 22.5t93 55.5l123 577q4 20 -24.5 37.5t-84 29 t-120.5 11.5q-139 0 -259 -107.5t-153 -259.5z" />
<glyph unicode="r" horiz-adv-x="571" d="M63 0l191 901q2 8 2 16q0 22 -12 49q-16 36 -51 62h235l-16 -80q113 90 250 90q43 0 83 -18l-67 -143q-41 14 -57 14q-76 0 -153 -63.5t-114 -149.5l-143 -678h-148z" />
<glyph unicode="s" horiz-adv-x="854" d="M102 147l129 86q82 -102 211 -102q86 0 155 39t83 100q2 8 2 17q0 43 -45 87q-53 52 -131 75q-129 23 -208 114q-63 73 -63 154q0 21 5 43q27 121 146.5 198.5t266.5 77.5q94 0 179.5 -43t138.5 -112l-137 -86q-82 94 -220 94q-84 0 -148.5 -37t-76.5 -94q-2 -11 -2 -23 q0 -45 39 -84q49 -49 137 -63q135 -20 210 -113q57 -71 58 -154q0 -25 -6 -51q-27 -125 -145.5 -205.5t-261.5 -80.5q-94 0 -182.5 43.5t-133.5 119.5z" />
<glyph unicode="t" horiz-adv-x="696" d="M223 0l183 864h-146l33 150h141l80 381h150l-80 -381h258l-33 -150h-258l-182 -864h-146z" />
<glyph unicode="u" horiz-adv-x="921" d="M150 365l141 657h145l-137 -643v-10q-4 -24 -4 -46q0 -68 38 -120q50 -70 140 -70q76 0 152.5 64.5t111.5 148.5l146 680h147l-190 -899q-3 -12 -4 -26q0 -19 7 -42q11 -39 27 -59h-204l14 74q-121 -92 -252 -92q-143 0 -222 109q-58 80 -58 187q0 39 8 80z" />
<glyph unicode="v" horiz-adv-x="1024" d="M231 1026h156l158 -793l346 566l65 106q51 84 76 121h162l-637 -1026h-129z" />
<glyph unicode="w" horiz-adv-x="1443" d="M227 1026h158l154 -786l67 104l111 180q-31 182 -49 269q-23 104 -43 233h163l148 -790l487 790h162l-637 -1026l-129 6l-59 322l-75 -117l-60 -94l-74 -117l-125 6z" />
<glyph unicode="x" horiz-adv-x="909" d="M16 0l437 532l-209 494h178l149 -364l105 122l96 111q23 23 64 71l51 60h176l-430 -510l125 -305l42 -100l46 -111h-174l-164 385l-70 -84h2l-247 -301h-177z" />
<glyph unicode="y" horiz-adv-x="1095" d="M2 -369l59 170q31 -41 80 -41q61 0 125 42t109 116l57 94q8 12 25 40l26 44l-24 142l-158 800h158l139 -753l295 485l164 268h157l-585 -950l-56 -90q-10 -20 -38.5 -65.5t-40.5 -67.5q-68 -115 -176.5 -182.5t-208.5 -67.5q-48 0 -107 16z" />
<glyph unicode="z" horiz-adv-x="925" d="M70 0l26 129l725 750h-559l31 147h766l-27 -127l-725 -752h565l-30 -147h-772z" />
<glyph unicode="{" horiz-adv-x="456" d="M190 641l31 147h74q20 0 39.5 15.5t23.5 38.5l95 448q18 45 76.5 75t125.5 30l-30 -152q-6 0 -15.5 -1t-13.5 -2t-6 1l-90 -426q-47 -82 -103 -90l-4 -20q59 -20 66 -80l-101 -480h33l-31 -145q-59 0 -112 36t-43 89l100 463q4 23 -8 38t-33 15h-74z" />
<glyph unicode="|" horiz-adv-x="268" d="M82 2l305 1442h117l-305 -1442h-117z" />
<glyph unicode="}" horiz-adv-x="385" d="M29 0l30 145h37l101 476q33 74 96 86q2 8 6 20q-61 25 -61 84l92 432h-37l31 152q74 0 116.5 -30t42.5 -75l2 -16l-92 -432q-10 -53 33 -54h74l-31 -147h-74q-45 0 -55 -53l-100 -463q-10 -53 -76.5 -89t-134.5 -36z" />
<glyph unicode="~" horiz-adv-x="710" d="M172 659q115 70 234 70q33 0 100 -22l-2 2h8l6 -2q49 -16 70 -17q88 0 178 62l27 -123q-115 -70 -226 -70q-80 0 -129 31q-33 8 -57 8q-86 0 -172 -61z" />
<glyph unicode="&#xa1;" horiz-adv-x="327" d="M94 0l254 1196h133l-254 -1196h-133zM362 1319l3 4q6 33 32.5 56.5t61.5 23.5q31 0 49 -24.5t12 -55.5q-8 -33 -35.5 -56.5t-58.5 -23.5q-76 0 -64 76z" />
<glyph unicode="&#xa2;" horiz-adv-x="978" d="M135 510q43 197 193.5 345.5t333.5 174.5l28 135h156l-29 -135q152 -27 260 -176l-129 -109q-63 111 -162 136l-157 -744q104 31 215 129l84 -102q-176 -154 -332 -176l-27 -131h-155l26 133q-164 37 -254 185.5t-51 334.5zM280.5 510q-28.5 -135 25.5 -240.5t167 -132.5 l158 744q-125 -27 -223.5 -131.5t-127 -239.5z" />
<glyph unicode="&#xa3;" horiz-adv-x="1138" d="M154 578l32 147h232l141 670h148l-142 -670h350l-32 -147h-351l-90 -433h648l-31 -145h-795l121 578h-231z" />
<glyph unicode="&#xa5;" horiz-adv-x="1394" d="M319 1395h193l322 -627l598 627h190l-739 -772l-6 -31h280l-33 -150h-280v-8h280l-32 -149h-281l-59 -285h-152l59 285h-280l33 149h280v8h-280l32 150h281l6 31l-260 489z" />
<glyph unicode="&#xa6;" horiz-adv-x="268" d="M82 2l154 725h116l-153 -725h-117zM248 788l139 656h117l-139 -656h-117z" />
<glyph unicode="&#xa7;" horiz-adv-x="729" d="M76 47l92 125q86 -43 154 -43q115 0 163 72q-35 -6 -75 -6q-106 0 -213 61l92 131q86 -45 155 -45q29 0 54 6q-25 53 -105 101q-94 53 -142 144t-30 181q23 115 113 176l8 35q25 117 124 185.5t226 68.5q98 0 215 -57l-92 -140q-88 51 -158 52q-106 0 -155 -72q20 4 69 4 q90 0 220 -59l-93 -136q-92 49 -161 50h-31q29 -55 98 -95h-2q98 -51 143.5 -140t24.5 -183q-25 -104 -113 -180l-8 -33q-25 -121 -130 -194.5t-226 -73.5q-96 -1 -217 65zM369 766q-10 -51 21.5 -103.5t94.5 -87.5q90 -51 133 -124l7 16q10 49 -24 104.5t-93 92.5h2 q-90 41 -135 122q-2 -2 -3 -6l-2 -8q-1 -4 -1 -6zM598 406v2l2 6q14 25 18 37q14 -20 17 -37z" />
<glyph unicode="&#xa8;" horiz-adv-x="538" d="M324 1282q6 33 37.5 58.5t66.5 25.5t56.5 -25.5t15.5 -58.5q-8 -33 -40 -59.5t-67 -26.5t-56 25.5t-13 60.5zM580 1282q6 33 37.5 58.5t66.5 25.5t57.5 -25.5t16.5 -58.5q-8 -35 -41 -60.5t-68 -25.5t-56 25.5t-13 60.5z" />
<glyph unicode="&#xaa;" horiz-adv-x="366" d="M182 754q12 59 65.5 100t121.5 41h28q0 29 -16 29q-37 0 -119 -23l2 117q82 20 142 20q55 0 85.5 -47t18.5 -119l-25 -108q-6 -31 5.5 -78t31.5 -72l-155 2q-25 -10 -64 -10q-66 0 -100.5 43.5t-20.5 104.5zM297 754q-4 -10 7 -20.5t25.5 -10.5t27 10t16.5 21l6 28h-37 q-14 0 -28.5 -9t-16.5 -19z" />
<glyph unicode="&#xab;" horiz-adv-x="1089" d="M150 571l659 471l72 -112l-531 -379l72 -117q47 -76 55 -88l152 -233l-129 -99zM475 571l660 471l71 -112l-530 -379q8 -14 24.5 -39t24.5 -39l229 -362l-129 -97z" />
<glyph unicode="&#xac;" horiz-adv-x="1355" d="M209 664l31 145h1179l-104 -496h-146l74 351h-1034z" />
<glyph unicode="&#xad;" horiz-adv-x="862" d="M172 524l31 148h729l-31 -148h-729z" />
<glyph unicode="&#xb0;" horiz-adv-x="512" d="M276 1180q20 96 98.5 159.5t176.5 63.5q90 0 139 -64.5t29 -158.5q-20 -90 -96 -153.5t-166 -63.5q-98 0 -149.5 62.5t-31.5 154.5zM397 1180q-8 -39 17.5 -71t66.5 -32q35 0 72 32t45 71q8 41 -14.5 74.5t-57.5 33.5q-41 0 -80 -33.5t-49 -74.5z" />
<glyph unicode="&#xb1;" horiz-adv-x="925" d="M150 297l30 145h727l-30 -145h-727zM276 883l31 147h289l63 291h148l-64 -291h291l-30 -147h-291l-62 -291h-147l61 291h-289z" />
<glyph unicode="&#xb2;" horiz-adv-x="573" d="M170 608l20 105l381 344q41 31 54 88q12 53 -21 92t-86 39t-145 -74l-74 96q145 104 246 105q111 0 169 -76t36 -182q-16 -90 -109 -182l-252 -230h275l-27 -125h-467z" />
<glyph unicode="&#xb3;" horiz-adv-x="542" d="M145 713l88 71h41q43 -61 107 -61q47 0 93 32.5t54.5 75.5t-20.5 76t-72 39h-133l27 125h137q41 2 83 34t50 68.5t-23.5 66.5t-78.5 30q-63 0 -156 -82l-70 98q125 109 252 109q104 0 165 -64.5t40 -156.5q-23 -115 -115 -173q57 -78 39 -170q-20 -98 -107 -164.5 t-192 -66.5q-127 0 -209 113z" />
<glyph unicode="&#xb4;" horiz-adv-x="428" d="M252 1063l223 231h236l-340 -231h-119z" />
<glyph unicode="&#xb6;" horiz-adv-x="782" d="M252 1044q31 145 153.5 248t266.5 103h184l-295 -1395h-217l148 696q-127 16 -197 116.5t-43 231.5zM397 1053q-16 -78 12.5 -135.5t90.5 -65.5l86 401q-68 -8 -120.5 -64t-68.5 -136zM541 4l295 1389h143l-295 -1389h-143z" />
<glyph unicode="&#xb7;" horiz-adv-x="460" d="M227.5 635q10.5 49 59.5 90t104 41q53 0 86 -41t23 -90q-10 -47 -59.5 -86t-104.5 -39t-87 38t-21.5 87z" />
<glyph unicode="&#xb9;" horiz-adv-x="538" d="M276 1163l328 232h125l-137 -645h-148l95 436l-154 -107q-8 -2 -25 -18z" />
<glyph unicode="&#xba;" horiz-adv-x="475" d="M199 813q20 98 91.5 161.5t162.5 63.5q82 0 127 -64.5t24 -160.5q-20 -90 -91 -152.5t-153 -62.5q-88 0 -134.5 62.5t-26.5 152.5zM313 813q-8 -37 13.5 -68.5t56.5 -31.5q31 0 63.5 31.5t40.5 68.5q8 43 -10 77t-49 34q-35 0 -71 -34t-44 -77z" />
<glyph unicode="&#xbb;" horiz-adv-x="1073" d="M127 111l467 440l-234 242l-139 137l123 112l457 -471l-586 -557zM453 111l467 440l-234 242l-139 137l123 112l456 -471l-585 -557z" />
<glyph unicode="&#xbc;" horiz-adv-x="782" d="M223 907l185 131h86l-134 -628h-108l100 475l-33 -25q-18 -10 -36 -26zM336 246l18 82l326 411l84 -49l-270 -338h108l31 146h106l-30 -146h94l-23 -106h-94l-51 -246h-107l52 246h-244z" />
<glyph unicode="&#xbd;" horiz-adv-x="727" d="M199 907l184 133h86l-133 -630h-107l103 477l-37 -25q-12 -8 -37 -26zM242 0l16 84l358 326q41 33 52 84q12 57 -20 95t-89 38q-49 0 -131 -60l-57 74q123 92 211 92q102 0 157.5 -69.5t34.5 -169.5q-18 -82 -102 -162l-252 -228h270l-20 -104h-428z" />
<glyph unicode="&#xbe;" horiz-adv-x="937" d="M115 401l94 70q43 -68 108 -68q53 0 100.5 34t55.5 79q14 59 -53.5 89t-163.5 16l25 112h120q51 4 92.5 32t49.5 66q10 43 -22 74t-85 31q-68 0 -145 -68l-60 76q113 96 226 96q98 0 155.5 -60t38.5 -149q-20 -96 -116 -153q68 -68 45 -162q-20 -92 -102.5 -155.5 t-182.5 -63.5q-108 0 -180 104zM483 248l19 84l327 409l86 -47l-266 -338h101l32 146h109l-33 -146h94l-22 -108h-94l-52 -244h-108l51 244h-244z" />
<glyph unicode="&#xbf;" horiz-adv-x="884" d="M154 377q35 160 172 278.5t288 118.5h62q-12 166 -12 180q-14 135 -39 441h155l51 -645l-26 -125h-223q-98 -4 -181.5 -75t-103.5 -173q-23 -100 33.5 -173t156.5 -73q133 0 263 156l84 -107q-176 -201 -379 -200q-160 0 -248 117.5t-53 279.5zM612 1542q8 41 37 64.5 t68 23.5q33 0 53.5 -24.5t11.5 -63.5q-8 -37 -38.5 -61.5t-63.5 -24.5q-39 0 -58.5 24.5t-9.5 61.5z" />
<glyph unicode="&#xc0;" d="M31 0l821 1415h113l223 -1415h-156l-88 559h-430l-213 -362l-117 -197h-153zM598 709h322q-4 35 -16.5 108.5t-16.5 100.5v-3q-27 147 -37 224q-59 -92 -96 -164l-2 -2zM657 1686h240l125 -232h-119z" />
<glyph unicode="&#xc1;" d="M31 0l821 1415h113l223 -1415h-156l-88 559h-430l-213 -362l-117 -197h-153zM598 709h322q-4 35 -16.5 108.5t-16.5 100.5v-3q-27 147 -37 224q-59 -92 -96 -164l-2 -2zM840 1454l223 232h235l-340 -232h-118z" />
<glyph unicode="&#xc2;" d="M31 0l821 1415h113l223 -1415h-156l-88 559h-430l-213 -362l-117 -197h-153zM598 709h322q-4 35 -16.5 108.5t-16.5 100.5v-3q-27 147 -37 224q-59 -92 -96 -164l-2 -2z" />
<glyph unicode="&#xc3;" d="M51 35l821 1415h113l223 -1415h-155l-88 559h-430l-213 -363l-117 -196h-154zM618 743h322q-4 35 -16.5 109t-16.5 100v-2q-27 147 -37 224q-59 -92 -96 -164l-2 -2zM655 1606q119 68 226 67q39 0 100 -14h-4q0 -2 2 -2q49 -16 74 -17q92 0 168 56l30 -117 q-104 -68 -223 -68q-63 0 -115 23q-31 10 -59 10q-78 0 -164 -53z" />
<glyph unicode="&#xc4;" d="M31 0l821 1415h113l223 -1415h-156l-88 559h-430l-213 -362l-117 -197h-153zM598 709h322q-4 35 -16.5 108.5t-16.5 100.5v-3q-27 147 -37 224q-59 -92 -96 -164l-2 -2zM707 1513q6 33 37.5 58.5t66.5 25.5t56.5 -25.5t15.5 -58.5q-8 -33 -40 -59.5t-67 -26.5t-56 25.5 t-13 60.5zM963 1513q6 33 37.5 58.5t66.5 25.5t57.5 -25.5t16.5 -58.5q-8 -35 -41 -60.5t-68 -25.5t-56 25.5t-13 60.5z" />
<glyph unicode="&#xc5;" d="M735 1626q20 96 98.5 159.5t176.5 63.5q90 0 139 -64.5t29 -158.5q-20 -90 -96 -153.5t-166 -63.5q-98 0 -149.5 62.5t-31.5 154.5zM856 1626q-8 -39 17.5 -71t66.5 -32q35 0 72 32t45 71q8 41 -14.5 74.5t-57.5 33.5q-41 0 -80 -33.5t-49 -74.5zM31 0l821 1415h113 l223 -1415h-156l-88 559h-430l-213 -362l-117 -197h-153zM598 709h322q-4 35 -16.5 108.5t-16.5 100.5v-3q-27 147 -37 224q-59 -92 -96 -164l-2 -2z" />
<glyph unicode="&#xc6;" horiz-adv-x="2213" d="M37 0l823 1415h1313l-31 -145h-696l-94 -445h596l-31 -149h-596l-113 -526h697l-31 -150h-846l119 559h-627l-155 -268l-170 -291h-158zM606 709h572l137 561h-389l-164 -287z" />
<glyph unicode="&#xc7;" horiz-adv-x="1298" d="M233 700q63 303 298 513t505 210q260 0 420 -225l-127 -98q-127 178 -323 178q-209 0 -391.5 -170t-233.5 -408q-49 -233 61.5 -403t319.5 -170q188 0 393 174l84 -100q-240 -205 -494 -217q72 -49 56 -121q-14 -80 -166 -156l-137 121q45 0 106.5 9t67.5 30 q2 10 -10.5 16t-25.5 8.5t-26 2.5h-51l27 106q-203 57 -305.5 251.5t-47.5 448.5z" />
<glyph unicode="&#xc8;" horiz-adv-x="993" d="M68 0l299 1415h843l-30 -145h-697l-94 -445h594l-31 -149h-594l-112 -526h696l-31 -150h-843zM516 1686h240l125 -232h-119z" />
<glyph unicode="&#xc9;" horiz-adv-x="993" d="M68 0l299 1415h843l-30 -145h-697l-94 -445h594l-31 -149h-594l-112 -526h696l-31 -150h-843zM670 1454l223 232h235l-340 -232h-118z" />
<glyph unicode="&#xca;" horiz-adv-x="993" d="M584 1644l307 250l201 -252l-117 -96l-123 160l-196 -160zM68 0l299 1415h843l-30 -145h-697l-94 -445h594l-31 -149h-594l-112 -526h696l-31 -150h-843z" />
<glyph unicode="&#xcb;" horiz-adv-x="993" d="M68 0l299 1415h843l-30 -145h-697l-94 -445h594l-31 -149h-594l-112 -526h696l-31 -150h-843zM592 1516q6 33 38 58t66.5 25t56 -25.5t15.5 -57.5q-8 -33 -40 -59.5t-66.5 -26.5t-56 25.5t-13.5 60.5zM848 1516q6 33 38 58t66.5 25t57 -25.5t16.5 -57.5q-8 -35 -41 -60.5 t-67.5 -25.5t-56 25.5t-13.5 60.5z" />
<glyph unicode="&#xcc;" horiz-adv-x="268" d="M84 0l299 1415h149l-299 -1415h-149zM215 1686h240l125 -232h-119z" />
<glyph unicode="&#xcd;" horiz-adv-x="315" d="M68 0l299 1415h149l-299 -1415h-149zM371 1454l223 232h235l-340 -232h-118z" />
<glyph unicode="&#xce;" horiz-adv-x="282" d="M68 0l299 1415h149l-299 -1415h-149z" />
<glyph unicode="&#xcf;" horiz-adv-x="282" d="M68 0l299 1415h149l-299 -1415h-149zM240 1513q6 33 37.5 58.5t66.5 25.5t56.5 -25.5t15.5 -58.5q-8 -33 -40 -59.5t-67 -26.5t-56 25.5t-13 60.5zM496 1513q6 33 37.5 58.5t66.5 25.5t57.5 -25.5t16.5 -58.5q-8 -35 -41 -60.5t-68 -25.5t-56 25.5t-13 60.5z" />
<glyph unicode="&#xd0;" horiz-adv-x="1337" d="M182 535l31 147h131l156 733h530q137 -2 234.5 -98t127 -252t-7.5 -354q-61 -291 -248.5 -497t-400.5 -214h-534l112 535h-131zM381 150q121 0 184 2q35 0 101.5 1t99.5 1q147 4 284.5 166.5t184.5 390.5q49 229 -19.5 390t-216.5 165h-381l-124 -584h340l-31 -147h-340z " />
<glyph unicode="&#xd1;" horiz-adv-x="1099" d="M74 0l299 1415h133l414 -1091l231 1091h149l-299 -1415h-135l-413 1098l-232 -1098h-147zM578 1569q98 47 182 47q47 0 114 -23q2 0 8.5 -2t8.5 -4q49 -27 100 -26q55 0 139 45l17 -123q-92 -49 -182 -49q-92 0 -183 65l35 -24q-35 14 -86 14t-133 -43z" />
<glyph unicode="&#xd2;" horiz-adv-x="1413" d="M190 707q63 297 297 506.5t502 209.5q276 0 416.5 -207.5t77.5 -508.5q-68 -315 -309 -527q-225 -199 -489.5 -198.5t-412.5 210.5t-82 515zM342 707q-51 -240 57.5 -407t315.5 -167q213 0 392 167t230 407q53 258 -71 415q-102 150 -309 150t-385.5 -164.5 t-229.5 -400.5zM702 1686h240l125 -232h-119z" />
<glyph unicode="&#xd3;" horiz-adv-x="1413" d="M190 707q63 297 297 506.5t502 209.5q276 0 416.5 -207.5t77.5 -508.5q-68 -315 -309 -527q-225 -199 -489.5 -198.5t-412.5 210.5t-82 515zM342 707q-51 -240 57.5 -407t315.5 -167q213 0 392 167t230 407q53 258 -71 415q-102 150 -309 150t-385.5 -164.5 t-229.5 -400.5zM952 1454l224 232h235l-340 -232h-119z" />
<glyph unicode="&#xd4;" horiz-adv-x="1413" d="M782 1644l307 250l201 -252l-117 -96l-123 160l-196 -160zM190 707q63 297 297 506.5t502 209.5q276 0 417 -208q97 -143 97 -330q0 -85 -20 -178q-68 -315 -309 -527q-225 -199 -489.5 -198.5t-412.5 209.5q-102 145 -102 337q0 85 20 179zM342 707q-16 -77 -16 -147 q0 -147 73 -260q109 -167 316 -167q213 0 392 167t230 407q16 77 16 145q0 160 -87 270q-102 150 -309 150t-385.5 -164.5t-229.5 -400.5z" />
<glyph unicode="&#xd5;" horiz-adv-x="1413" d="M190 707q63 297 297 506.5t502 209.5q276 0 416.5 -207.5t77.5 -508.5q-68 -315 -309 -527q-225 -199 -489.5 -198.5t-412.5 210.5t-82 515zM342 707q-51 -240 57.5 -407t315.5 -167q213 0 392 167t230 407q53 258 -71 415q-102 150 -309 150t-385.5 -164.5 t-229.5 -400.5zM733 1571q98 47 182 47q47 0 115 -23q2 -2 8 -4t9 -2q49 -27 100 -26q55 0 139 45l17 -123q-92 -49 -183 -49q-92 0 -182 65l35 -24q-35 14 -86 14t-133 -43z" />
<glyph unicode="&#xd6;" horiz-adv-x="1413" d="M190 707q63 297 297 506.5t502 209.5q276 0 416.5 -207.5t77.5 -508.5q-68 -315 -309 -527q-225 -199 -489.5 -198.5t-412.5 210.5t-82 515zM342 707q-51 -240 57.5 -407t315.5 -167q213 0 392 167t230 407q53 258 -71 415q-102 150 -309 150t-385.5 -164.5 t-229.5 -400.5zM803 1516q6 33 37.5 58t66.5 25t56.5 -25.5t15.5 -57.5q-8 -33 -40 -59.5t-66.5 -26.5t-56 25.5t-13.5 60.5zM1059 1516q6 33 37.5 58t66.5 25t57.5 -25.5t16.5 -57.5q-8 -35 -41 -60.5t-67.5 -25.5t-56 25.5t-13.5 60.5z" />
<glyph unicode="&#xd7;" horiz-adv-x="751" d="M133 430l252 207l-162 205l125 104l162 -205l250 205l82 -102l-250 -207l162 -207l-123 -102l-164 207l-250 -207z" />
<glyph unicode="&#xd8;" horiz-adv-x="1413" d="M190 707q63 297 297 506.5t502 209.5q86 0 170 -26l10 18h152l-37 -76q133 -98 187.5 -265t11.5 -367q-68 -315 -309 -527q-225 -199 -490 -198q-84 0 -164 24v-6h-168l39 70q-135 88 -190.5 258t-10.5 379zM342 707q-33 -160 2 -289t129 -205l358 616l246 426 q-49 16 -121 17q-207 0 -385 -164.5t-229 -400.5zM596 150q49 -16 119 -17q213 0 392 167t230 407q53 258 -71 415q-31 43 -66 72l-176 -301z" />
<glyph unicode="&#xd9;" horiz-adv-x="1224" d="M143 369l222 1046h155l-221 -1042q-4 -96 91 -168t241 -72q139 0 263 71.5t159 168.5l221 1042h149l-221 -1044q-41 -158 -218 -273.5t-384 -115.5q-217 0 -348.5 113.5t-108.5 273.5zM645 1686h240l125 -232h-119z" />
<glyph unicode="&#xda;" horiz-adv-x="1224" d="M143 369l222 1046h155l-221 -1042q-4 -96 91 -168t241 -72q139 0 263 71.5t159 168.5l221 1042h149l-221 -1044q-41 -158 -218 -273.5t-384 -115.5q-217 0 -348.5 113.5t-108.5 273.5zM831 1454l224 232h235l-340 -232h-119z" />
<glyph unicode="&#xdb;" horiz-adv-x="1224" d="M688 1644l307 250l201 -252l-117 -96l-123 160l-196 -160zM143 369l222 1046h155l-221 -1042q-4 -96 91 -168t241 -72q139 0 263 71.5t159 168.5l221 1042h149l-221 -1044q-41 -158 -218 -273.5t-384 -115.5q-217 0 -348 113q-112 97 -112 228q0 23 3 46z" />
<glyph unicode="&#xdc;" horiz-adv-x="1224" d="M143 369l222 1046h155l-221 -1042q-4 -96 91 -168t241 -72q139 0 263 71.5t159 168.5l221 1042h149l-221 -1044q-41 -158 -218 -273.5t-384 -115.5q-217 0 -348.5 113.5t-108.5 273.5zM709 1513q6 33 37.5 58.5t66.5 25.5t56.5 -25.5t15.5 -58.5q-8 -33 -40 -59.5 t-67 -26.5t-56 25.5t-13 60.5zM965 1513q6 33 37.5 58.5t66.5 25.5t57.5 -25.5t16.5 -58.5q-8 -35 -41 -60.5t-68 -25.5t-56 25.5t-13 60.5z" />
<glyph unicode="&#xdd;" horiz-adv-x="1394" d="M319 1415h195l328 -635l159 166l447 469h192l-751 -782l-133 -633h-152l133 633l-114 217zM934 1454l223 232h236l-340 -232h-119z" />
<glyph unicode="&#xde;" horiz-adv-x="1095" d="M23 -383l383 1800h147l-88 -411q127 53 266 53q209 -4 323.5 -161t67.5 -374q-47 -225 -227 -383.5t-391 -158.5q-127 0 -248 55l-88 -420h-145zM297 215q-6 -20 23.5 -39.5t87 -31t127.5 -13.5q145 4 274 117.5t162 273.5q33 156 -47 270.5t-224 114.5q-98 0 -178 -22.5 t-98 -55.5z" />
<glyph unicode="&#xdf;" horiz-adv-x="1064" d="M14 -332l367 1727h459q160 -2 250 -109.5t59 -251.5q-39 -182 -219 -293q76 -53 105.5 -141t6.5 -190q-35 -164 -179 -284t-318 -122h-178l-103 133l-100 -469h-150zM266 145h309q109 6 204 84t116 181q23 102 -45 175.5t-199 82.5h-274zM408 813h309q100 4 182 66.5 t102 154.5q16 84 -40 146.5t-154 68.5h-307z" />
<glyph unicode="&#xe0;" horiz-adv-x="831" d="M123 303q31 141 154.5 234.5t269.5 93.5h186l2 6q23 104 -10 178t-109 76q-113 0 -254 -39l-6 143q162 43 293 43q127 -2 196.5 -106.5t45.5 -253.5l-4 -21l-74 -323q-55 -272 -12 -334h-201l8 39q-106 -59 -213 -59q-139 0 -220 95t-52 228zM270 303q-14 -72 32 -122 t126 -50q84 0 152.5 50t83.5 122l38 180h-186q-86 0 -158 -50t-88 -130zM371 1294h239l125 -231h-119z" />
<glyph unicode="&#xe1;" horiz-adv-x="831" d="M123 303q31 141 154.5 234.5t269.5 93.5h186l2 6q23 104 -10 178t-109 76q-113 0 -254 -39l-6 143q162 43 293 43q127 -2 196.5 -106.5t45.5 -253.5l-4 -21l-74 -323q-55 -272 -12 -334h-201l8 39q-106 -59 -213 -59q-139 0 -220 95t-52 228zM270 303q-14 -72 32 -122 t126 -50q84 0 152.5 50t83.5 122l38 180h-186q-86 0 -158 -50t-88 -130zM528 1063l224 231h235l-340 -231h-119z" />
<glyph unicode="&#xe2;" horiz-adv-x="831" d="M123 303q31 141 154.5 234.5t269.5 93.5h186l2 6q23 104 -10 178t-109 76q-113 0 -254 -39l-6 143q162 43 293 43q127 -2 196.5 -106.5t45.5 -253.5l-4 -21l-74 -323q-55 -272 -12 -334h-201l8 39q-106 -59 -213 -59q-139 0 -220 95t-52 228zM270 303q-14 -72 32 -122 t126 -50q84 0 152.5 50t83.5 122l38 180h-186q-86 0 -158 -50t-88 -130zM389 1124l307 250l201 -252l-117 -96l-123 160l-196 -160z" />
<glyph unicode="&#xe3;" horiz-adv-x="831" d="M143 336q31 141 155 234.5t269 93.5h187l2 6q23 104 -10 178t-109 76q-113 0 -254 -39l-6 143q162 43 293 43q127 -2 196.5 -106.5t44.5 -253.5l-4 -21l-73 -323q-55 -272 -13 -334h-200l8 39q-106 -59 -213 -60q-139 0 -220.5 95.5t-52.5 228.5zM291 336 q-14 -72 32 -122t126 -50q84 0 152.5 50t82.5 122l39 180h-186q-86 0 -158 -50t-88 -130zM340 1167q123 72 227 72q49 0 97 -14h-7q2 0 2 -1t3 -1q39 -14 63 -15q90 0 174 64l33 -115q-109 -76 -225 -76q-70 0 -109 23v-2q-31 10 -55 10q-84 0 -162 -61z" />
<glyph unicode="&#xe4;" horiz-adv-x="831" d="M143 336q31 141 155 234.5t269 93.5h187l2 6q23 104 -10 178t-109 76q-113 0 -254 -39l-6 143q162 43 293 43q127 -2 196.5 -106.5t44.5 -253.5l-4 -21l-73 -323q-55 -272 -13 -334h-200l8 39q-106 -59 -213 -60q-139 0 -220.5 95.5t-52.5 228.5zM291 336 q-14 -72 32 -122t126 -50q84 0 152.5 50t82.5 122l39 180h-186q-86 0 -158 -50t-88 -130zM477 1282q6 35 37 59.5t70 24.5q35 0 56.5 -25.5t14.5 -58.5q-8 -33 -39.5 -59.5t-66.5 -26.5q-37 0 -58.5 25.5t-13.5 60.5zM735 1282q6 33 38 58.5t66.5 25.5t56.5 -24.5t15 -59.5 q-8 -35 -39.5 -60.5t-66.5 -25.5t-56.5 25.5t-13.5 60.5z" />
<glyph unicode="&#xe5;" horiz-adv-x="831" d="M499 1379q20 96 98.5 159.5t176.5 63.5q90 0 139 -64.5t29 -158.5q-20 -90 -96 -153.5t-166 -63.5q-98 0 -149.5 62.5t-31.5 154.5zM620 1379q-8 -39 17.5 -71t66.5 -32q35 0 72 32t45 71q8 41 -14.5 74.5t-57.5 33.5q-41 0 -80 -33.5t-49 -74.5zM123 303 q31 141 154.5 234.5t269.5 93.5h186l2 6q9 43 9 80q0 54 -19 98q-33 74 -109 76q-113 0 -254 -39l-6 143q162 43 293 43q127 -2 197 -106q51 -77 51 -179q0 -36 -6 -75l-4 -21l-74 -323q-31 -153 -31 -240q0 -67 19 -94h-201l8 39q-106 -59 -213 -59q-139 0 -220 95 q-60 70 -60 161q0 32 8 67zM270 303q-3 -17 -3 -33q0 -51 35 -89q46 -50 126 -50q84 0 152.5 50t83.5 122l38 180h-186q-86 0 -158 -50t-88 -130z" />
<glyph unicode="&#xe6;" horiz-adv-x="1521" d="M133 303q29 135 149.5 231.5t262.5 96.5h192l2 4q2 6 2 8q8 16 9 19q20 96 -17 160.5t-106 68.5q-117 0 -254 -39l-6 143q166 43 292 43q80 -2 139.5 -48t88.5 -122q162 172 342 172q174 0 261 -149.5t42 -368.5l-19 -80h-667l-8 -47q4 -113 65.5 -189.5t153.5 -76.5 q102 0 280 80l33 -129q-123 -63 -291 -96q-16 -2 -53 -2q-141 0 -246 104q8 -53 51 -86h-221l8 39q-106 -59 -212 -59q-139 0 -220.5 95t-52.5 228zM283 303q-16 -72 28.5 -122t126.5 -50t151.5 50t84.5 122l10 53q0 66 10 119l2 8h-182q-82 0 -148.5 -52t-82.5 -128z M879 586h516q10 133 -44.5 219t-152.5 86q-100 0 -191 -86t-128 -219z" />
<glyph unicode="&#xe7;" horiz-adv-x="1009" d="M166 512q45 217 222 371.5t384 154.5q211 0 338 -186l-125 -102q-100 141 -244 141q-145 0 -270 -111.5t-158 -267.5q-35 -158 44 -269.5t223 -111.5q141 0 292 131l84 -100q-172 -154 -362 -178q31 -16 52.5 -51t12.5 -76q-16 -76 -165 -158l-121 115q145 16 151 39 q4 18 -13 26t-40 8l-4 -2h-6h-43l26 109q-162 37 -240.5 180t-37.5 338z" />
<glyph unicode="&#xe8;" horiz-adv-x="933" d="M137 473l8 39q45 217 202 372.5t327 155.5q174 0 261 -149.5t40 -368.5l-19 -80h-673q-12 -135 49 -223t172 -90q98 0 280 80l31 -129q-141 -70 -289 -96q-16 -2 -53 -2q-172 0 -270.5 143t-65.5 348zM317 586h523q12 133 -43.5 219t-153.5 86q-92 0 -184.5 -88 t-141.5 -217zM430 1294h240l125 -231h-119z" />
<glyph unicode="&#xe9;" horiz-adv-x="933" d="M137 473l8 39q45 217 202 372.5t327 155.5q174 0 261 -149.5t40 -368.5l-19 -80h-673q-12 -135 49 -223t172 -90q98 0 280 80l31 -129q-141 -70 -289 -96q-16 -2 -53 -2q-172 0 -270.5 143t-65.5 348zM317 586h523q12 133 -43.5 219t-153.5 86q-92 0 -184.5 -88 t-141.5 -217zM588 1063l223 231h236l-340 -231h-119z" />
<glyph unicode="&#xea;" horiz-adv-x="933" d="M137 473l8 39q45 217 202 372.5t327 155.5q174 0 261 -149.5t40 -368.5l-19 -80h-673q-12 -135 49 -223t172 -90q98 0 280 80l31 -129q-141 -70 -289 -96q-16 -2 -53 -2q-172 0 -270.5 143t-65.5 348zM317 586h523q12 133 -43.5 219t-153.5 86q-92 0 -184.5 -88 t-141.5 -217zM440 1124l308 250l200 -252l-117 -96l-122 160l-197 -160z" />
<glyph unicode="&#xeb;" horiz-adv-x="933" d="M137 473l8 39q45 217 202 372.5t327 155.5q174 0 261 -149.5t40 -368.5l-19 -80h-673q-12 -135 49 -223t172 -90q98 0 280 80l31 -129q-141 -70 -289 -96q-16 -2 -53 -2q-172 0 -270.5 143t-65.5 348zM317 586h523q12 133 -43.5 219t-153.5 86q-92 0 -184.5 -88 t-141.5 -217zM514 1282q6 33 38 58.5t66.5 25.5t56 -25.5t15.5 -58.5q-8 -33 -40 -59.5t-66.5 -26.5t-56 25.5t-13.5 60.5zM770 1282q6 33 38 58.5t66.5 25.5t57 -25.5t16.5 -58.5q-8 -35 -41 -60.5t-67.5 -25.5t-56 25.5t-13.5 60.5z" />
<glyph unicode="&#xec;" horiz-adv-x="432" d="M158 0l217 1026h143l-217 -1026h-143zM229 1327h240l125 -231h-119z" />
<glyph unicode="&#xed;" horiz-adv-x="432" d="M100 0l217 1026h148l-217 -1026h-148zM281 1096l223 231h235l-340 -231h-118z" />
<glyph unicode="&#xee;" horiz-adv-x="362" d="M100 0l217 1026h144l-217 -1026h-144zM176 1157l307 250l201 -252l-117 -96l-123 160l-196 -160z" />
<glyph unicode="&#xef;" horiz-adv-x="362" d="M100 0l217 1026h144l-217 -1026h-144zM268 1282q6 33 38 58.5t67 25.5t56.5 -24.5t14.5 -59.5q-8 -35 -39.5 -60.5t-66.5 -25.5t-56.5 25.5t-13.5 60.5zM449 1282q6 35 36.5 59.5t69.5 24.5q35 0 56.5 -25.5t15.5 -58.5q-8 -33 -40 -59.5t-67 -26.5q-37 0 -58 25.5 t-13 60.5z" />
<glyph unicode="&#xf0;" horiz-adv-x="1001" d="M125 182l156 109q33 -72 90 -113t127 -41q113 0 210 72t146 180v-2q49 156 78 275q-154 -119 -330 -119q-172 0 -273.5 120.5t-66.5 294.5l2 13q39 178 191.5 305t332.5 127q172 0 270.5 -125t76.5 -299q-10 -80 -52 -272l-10 -52q-43 -188 -90 -299q-63 -164 -214 -267 t-318 -103q-100 0 -187.5 53t-138.5 143zM403 963q-16 -115 49.5 -195t180.5 -80q121 0 223 83t129 204q23 113 -45 195.5t-180 82.5q-121 0 -225.5 -85.5t-131.5 -204.5z" />
<glyph unicode="&#xf1;" horiz-adv-x="886" d="M76 33l190 905q6 25 -5 59.5t-28 53.5h203l-14 -66q111 90 256 90t224 -111.5t50 -273.5l-135 -657h-147l139 657q20 98 -31 168t-143 70q-76 0 -152.5 -63.5t-117.5 -149.5l-144 -682h-145zM387 1257q113 66 223 66q47 0 80 -12l8 -4l13 -7h-2q31 -10 67 -10 q78 0 164 62l35 -119q-113 -70 -227 -70q-74 0 -113 23q-27 10 -57 10q-63 0 -164 -57z" />
<glyph unicode="&#xf2;" horiz-adv-x="1079" d="M133 508q47 219 222 374.5t374 155.5q201 0 308.5 -155.5t60.5 -374.5q-47 -217 -220 -372.5t-374 -155.5q-199 0 -308.5 155.5t-62.5 372.5zM283 508q-33 -158 41.5 -268.5t212 -110.5t258 111.5t153.5 267.5q33 158 -39.5 270.5t-210 112.5t-259 -112.5t-156.5 -270.5z M504 1294h239l125 -231h-118z" />
<glyph unicode="&#xf3;" horiz-adv-x="1079" d="M133 508q47 219 222 374.5t374 155.5q201 0 308.5 -155.5t60.5 -374.5q-47 -217 -220 -372.5t-374 -155.5q-199 0 -308.5 155.5t-62.5 372.5zM283 508q-33 -158 41.5 -268.5t212 -110.5t258 111.5t153.5 267.5q33 158 -39.5 270.5t-210 112.5t-259 -112.5t-156.5 -270.5z M674 1063l223 231h236l-340 -231h-119z" />
<glyph unicode="&#xf4;" horiz-adv-x="1050" d="M133 508q47 219 222 374.5t374 155.5q201 0 308.5 -155.5t60.5 -374.5q-47 -217 -220 -372.5t-374 -155.5q-199 0 -308.5 155.5t-62.5 372.5zM283 508q-33 -158 41.5 -268.5t212 -110.5t258 111.5t153.5 267.5q33 158 -39.5 270.5t-210 112.5t-259 -112.5t-156.5 -270.5z M500 1124l307 250l201 -252l-117 -96l-123 160l-197 -160z" />
<glyph unicode="&#xf5;" horiz-adv-x="1050" d="M133 508q47 219 222 374.5t374 155.5q201 0 308.5 -155.5t60.5 -374.5q-47 -217 -220 -372.5t-374 -155.5q-199 0 -308.5 155.5t-62.5 372.5zM283 508q-33 -158 41.5 -268.5t212 -110.5t258 111.5t153.5 267.5q33 158 -39.5 270.5t-210 112.5t-259 -112.5t-156.5 -270.5z M498 1245q98 47 182 47q47 0 115 -22q4 0 8 -2l8 -4q49 -27 100 -27q55 0 140 45l16 -123q-92 -49 -182 -49q-92 0 -183 66l35 -25q-37 14 -86 14q-51 0 -133 -43z" />
<glyph unicode="&#xf6;" horiz-adv-x="1079" d="M133 508q47 219 222 374.5t374 155.5q201 0 308.5 -155.5t60.5 -374.5q-47 -217 -220 -372.5t-374 -155.5q-199 0 -308.5 155.5t-62.5 372.5zM283 508q-33 -158 41.5 -268.5t212 -110.5t258 111.5t153.5 267.5q33 158 -39.5 270.5t-210 112.5t-259 -112.5t-156.5 -270.5z M598 1282q6 33 38 58.5t66.5 25.5t56 -25.5t15.5 -58.5q-8 -33 -40 -59.5t-66.5 -26.5t-56 25.5t-13.5 60.5zM854 1282q6 33 38 58.5t66.5 25.5t57 -25.5t16.5 -58.5q-8 -35 -41 -60.5t-67.5 -25.5t-56 25.5t-13.5 60.5z" />
<glyph unicode="&#xf7;" horiz-adv-x="870" d="M180 557l31 148h729l-31 -148h-729zM377 268l41 191h190l-41 -191h-190zM477 741l41 191h191l-41 -191h-191z" />
<glyph unicode="&#xf8;" horiz-adv-x="1050" d="M133 508q47 219 222 374.5t374 155.5q207 0 332 -188l-137 -100q-92 141 -226 141q-137 0 -259 -112.5t-156 -270.5q-23 -109 10 -209l-135 -100q-54 168 -25 309zM162 193l131 100q39 -76 103.5 -120t140.5 -44q137 0 257.5 111.5t153.5 267.5q25 119 -24 237l137 99 q72 -174 37 -336q-47 -217 -220 -372.5t-374 -155.5q-221 0 -342 213z" />
<glyph unicode="&#xf9;" horiz-adv-x="921" d="M150 365l141 657h145l-137 -643v-10q-16 -96 34 -166t140 -70q76 0 152.5 64.5t111.5 148.5l146 680h147l-190 -899q-8 -29 3 -68t27 -59h-204l14 74q-121 -92 -252 -92q-143 0 -222 109.5t-50 266.5zM428 1294h240l125 -231h-119z" />
<glyph unicode="&#xfa;" horiz-adv-x="921" d="M150 365l141 657h145l-137 -643v-10q-16 -96 34 -166t140 -70q76 0 152.5 64.5t111.5 148.5l146 680h147l-190 -899q-8 -29 3 -68t27 -59h-204l14 74q-121 -92 -252 -92q-143 0 -222 109.5t-50 266.5zM565 1063l223 231h236l-340 -231h-119z" />
<glyph unicode="&#xfb;" horiz-adv-x="921" d="M150 365l141 657h145l-137 -643v-10q-16 -96 34 -166t140 -70q76 0 152.5 64.5t111.5 148.5l146 680h147l-190 -899q-8 -29 3 -68t27 -59h-204l14 74q-121 -92 -252 -92q-143 0 -222 109.5t-50 266.5zM434 1124l307 250l201 -252l-117 -96l-123 160l-196 -160z" />
<glyph unicode="&#xfc;" horiz-adv-x="921" d="M150 365l141 657h145l-137 -643v-10q-16 -96 34 -166t140 -70q76 0 152.5 64.5t111.5 148.5l146 680h147l-190 -899q-8 -29 3 -68t27 -59h-204l14 74q-121 -92 -252 -92q-143 0 -222 109.5t-50 266.5zM508 1282q6 33 38 58.5t66.5 25.5t56 -25.5t15.5 -58.5 q-8 -33 -40 -59.5t-66.5 -26.5t-56 25.5t-13.5 60.5zM764 1282q6 33 38 58.5t66.5 25.5t57 -25.5t16.5 -58.5q-8 -35 -41 -60.5t-67.5 -25.5t-56 25.5t-13.5 60.5z" />
<glyph unicode="&#xfd;" horiz-adv-x="1095" d="M2 -369l59 170q31 -41 80 -41q61 0 125 42t109 116l57 94q8 12 25 40l26 44l-24 142l-158 800h158l139 -753l295 485l164 268h157l-585 -950l-56 -90q-10 -20 -38.5 -65.5t-40.5 -67.5q-68 -115 -176.5 -182.5t-208.5 -67.5q-48 0 -107 16zM694 1063l224 231h235 l-340 -231h-119z" />
<glyph unicode="&#xfe;" horiz-adv-x="1058" d="M23 -377l376 1774h150l-86 -406q119 51 262 51q205 -4 317.5 -158.5t65.5 -367.5q-47 -223 -224 -378.5t-384 -155.5q-123 0 -242 55l-88 -414h-147zM297 211q-6 -20 23.5 -37.5t85 -29t124.5 -13.5q143 4 270.5 114.5t160.5 268.5q33 152 -47 265.5t-222 113.5 q-92 0 -170 -23.5t-102 -54.5z" />
<glyph unicode="&#xff;" horiz-adv-x="1095" d="M2 -369l59 170q31 -41 80 -41q61 0 125 42t109 116l57 94q8 12 25 40l26 44l-24 142l-158 800h158l139 -753l295 485l164 268h157l-585 -950l-56 -90q-10 -20 -38.5 -65.5t-40.5 -67.5q-68 -115 -176.5 -182.5t-208.5 -67.5q-48 0 -107 16zM616 1282q6 33 38 58.5 t67 25.5t56.5 -25.5t15.5 -58.5q-8 -33 -40 -59.5t-67 -26.5t-56.5 25.5t-13.5 60.5zM872 1282q6 33 38 58.5t67 25.5t57.5 -25.5t16.5 -58.5q-8 -35 -41 -60.5t-68 -25.5t-56.5 25.5t-13.5 60.5z" />
<glyph unicode="&#x152;" horiz-adv-x="2162" d="M201 707q63 297 295.5 506.5t500.5 209.5q326 0 447 -252l51 244h846l-31 -145h-698l-94 -445h596l-31 -149h-596l-113 -526h699l-31 -150h-846l51 242q-43 -43 -65 -62q-225 -199 -490 -198q-262 0 -409.5 210t-81.5 515zM352 707q-51 -240 56.5 -407t314.5 -167 q190 0 365.5 152.5t246.5 371.5l21 97q27 223 -80 368q-104 150 -311 150q-205 0 -383.5 -164.5t-229.5 -400.5z" />
<glyph unicode="&#x153;" horiz-adv-x="1802" d="M145 508q47 219 222.5 374.5t375.5 155.5q121 0 215.5 -68.5t139.5 -178.5q80 119 185.5 184t219.5 65q174 0 261 -149.5t42 -368.5l-18 -80h-678q-10 -135 51.5 -223t169.5 -90q102 0 281 80l33 -129q-125 -66 -291 -96q-14 -2 -54 -2q-117 0 -199.5 67.5t-117.5 183.5 q-92 -115 -216 -184t-249 -69q-199 0 -309.5 155.5t-63.5 372.5zM293 508q-33 -158 43 -268.5t215 -110.5q135 0 256 111.5t154 267.5q33 158 -40 270.5t-208 112.5q-139 0 -262 -112.5t-158 -270.5zM1145 586h524q10 133 -44 219t-152 86q-92 0 -184.5 -87t-143.5 -218z " />
<glyph unicode="&#x178;" horiz-adv-x="1394" d="M319 1415h195l328 -635l159 166l447 469h192l-751 -782l-133 -633h-152l133 633l-114 217zM786 1493q6 33 38 58.5t67 25.5t56.5 -25.5t15.5 -58.5q-8 -33 -40 -59.5t-67 -26.5t-56.5 25.5t-13.5 60.5zM1042 1493q6 33 38 58.5t67 25.5t57.5 -25.5t16.5 -58.5 q-8 -35 -41 -60.5t-68 -25.5t-56.5 25.5t-13.5 60.5z" />
<glyph unicode="&#x2c6;" horiz-adv-x="548" d="M260 1124l307 250l201 -252l-117 -96l-123 160l-196 -160z" />
<glyph unicode="&#x2dc;" horiz-adv-x="684" d="M299 1245q98 47 182 47q47 0 115 -22q2 0 8 -2t8 -4q49 -27 101 -27q55 0 139 45l16 -123q-92 -49 -182 -49q-92 0 -182 66l35 -25q-35 14 -86.5 14t-133.5 -43z" />
<glyph unicode="&#x2000;" horiz-adv-x="946" />
<glyph unicode="&#x2001;" horiz-adv-x="1894" />
<glyph unicode="&#x2002;" horiz-adv-x="946" />
<glyph unicode="&#x2003;" horiz-adv-x="1894" />
<glyph unicode="&#x2004;" horiz-adv-x="630" />
<glyph unicode="&#x2005;" horiz-adv-x="473" />
<glyph unicode="&#x2006;" horiz-adv-x="315" />
<glyph unicode="&#x2007;" horiz-adv-x="315" />
<glyph unicode="&#x2008;" horiz-adv-x="235" />
<glyph unicode="&#x2009;" horiz-adv-x="378" />
<glyph unicode="&#x200a;" horiz-adv-x="104" />
<glyph unicode="&#x2010;" horiz-adv-x="862" d="M172 524l31 148h729l-31 -148h-729z" />
<glyph unicode="&#x2011;" horiz-adv-x="862" d="M172 524l31 148h729l-31 -148h-729z" />
<glyph unicode="&#x2012;" horiz-adv-x="862" d="M172 524l31 148h729l-31 -148h-729z" />
<glyph unicode="&#x2013;" horiz-adv-x="851" d="M172 524l31 148h729l-31 -148h-729z" />
<glyph unicode="&#x2014;" horiz-adv-x="1089" d="M176 524l31 148h948l-31 -148h-948z" />
<glyph unicode="&#x2018;" horiz-adv-x="307" d="M285 1174l155 229l62 -33l-56 -160l33 -129l-157 -63z" />
<glyph unicode="&#x2019;" horiz-adv-x="325" d="M264 1094l98 143l15 145l160 13l-17 -164l-215 -189z" />
<glyph unicode="&#x201a;" horiz-adv-x="352" d="M23 -86l106 129l31 147h157l-36 -172l-232 -170z" />
<glyph unicode="&#x201c;" horiz-adv-x="446" d="M301 1231l53 164l156 -13l-49 -145l28 -111q0 -16 7 -34l-58 -50zM442 1231l52 164l157 -13l-49 -145q4 -20 12.5 -55t14.5 -56q2 -2 5 -17t3 -17l-57 -50z" />
<glyph unicode="&#x201d;" horiz-adv-x="485" d="M266 1094l99 143l12 145l162 13l-19 -164l-215 -189zM408 1094l98 143l12 145l160 13l-16 -164l-216 -189z" />
<glyph unicode="&#x201e;" horiz-adv-x="473" d="M6 -84l105 131l26 146h160l-35 -166l-231 -174zM147 -86l107 131l31 148h155l-34 -173l-234 -172z" />
<glyph unicode="&#x2022;" horiz-adv-x="428" d="M221 770q14 61 70.5 107.5t116 46.5t97.5 -46.5t23 -107.5q-10 -57 -67.5 -102t-116.5 -45t-96 45t-27 102z" />
<glyph unicode="&#x2026;" horiz-adv-x="890" d="M63 0l39 190h189l-39 -190h-189zM342 0l39 190h188l-39 -190h-188zM621 0l38 190h189l-39 -190h-188z" />
<glyph unicode="&#x202f;" horiz-adv-x="378" />
<glyph unicode="&#x2039;" horiz-adv-x="720" d="M162 510l626 518l84 -102l-501 -416q90 -119 151 -191l174 -217l-125 -106z" />
<glyph unicode="&#x203a;" horiz-adv-x="702" d="M76 102l502 408l-326 416l127 102l403 -518l-624 -514z" />
<glyph unicode="&#x205f;" horiz-adv-x="473" />
<glyph unicode="&#x20ac;" horiz-adv-x="1525" d="M176 502l31 147h186q0 14 8 39q12 53 21 74v4h-191l31 147h219q113 217 316.5 353.5t421.5 136.5q279 0 462 -248l-127 -106q-145 203 -368 202q-154 0 -305.5 -95t-241.5 -243h643l-31 -147h-680q-10 -23 -20 -78q-4 -12 -4 -29l-2 -10h682l-31 -147h-649 q23 -160 133.5 -264.5t267.5 -104.5q225 0 457 215l80 -119q-285 -248 -567 -247q-231 0 -377 145t-154 375h-211z" />
<glyph unicode="&#x2122;" horiz-adv-x="854" d="M305 1255l27 123h354l-27 -123h-112l-72 -333h-127l72 333h-115zM557 922l98 456h103l55 -145l55 67q12 10 27 33q31 37 39 45h100l-98 -456h-125l39 182q-16 -27 -41 -55h-72l-16 45l-37 -172h-127z" />
<glyph unicode="&#xe000;" horiz-adv-x="1025" d="M0 1025h1025v-1025h-1025v1025z" />
<glyph unicode="&#xfb01;" horiz-adv-x="1034" d="M197 0l180 856h-146l33 150h144v12l6 26q39 145 153.5 252t235.5 107q57 0 135 -10l-76 -150q-49 12 -90 12q-72 -4 -134.5 -70.5t-82.5 -162.5l-4 -16h250l-213 -1006h-144l181 856h-107l-180 -856h-141z" />
<glyph unicode="&#xfb02;" horiz-adv-x="1003" d="M197 0l180 856h-148l33 150h146v12l6 26q39 150 150.5 252.5t238.5 106.5h127l-297 -1403h-152l181 856h-144l-180 -856h-141zM551 1006h143l54 247q-63 -14 -120 -80.5t-73 -150.5zM752 1276l12 61l65 -82h-57z" />
<glyph unicode="&#xfb03;" horiz-adv-x="1705" d="M1443 0l217 1026h144l-217 -1026h-144zM1699 1282q6 35 37 59.5t68 24.5q35 0 57 -26q18 -20 18 -44q0 -7 -1 -14q-8 -35 -41 -60.5t-68 -25.5q-37 0 -57 26q-15 18 -15 41q0 9 2 19zM869 0l180 856h-146l33 150h144v12l6 26q39 145 153.5 252t235.5 107q57 0 135 -10 l-76 -150q-49 12 -90 12q-72 -4 -134.5 -70.5t-82.5 -162.5l-4 -16h252l-33 -150h-252l-180 -856h-141zM197 0l180 856h-146l33 150h144v12l6 26q39 145 153.5 252t235.5 107q57 0 135 -10l-76 -150q-49 12 -90 12q-72 -4 -134.5 -70.5t-82.5 -162.5l-4 -16h252l-33 -150 h-252l-180 -856h-141z" />
<glyph unicode="&#xfb04;" horiz-adv-x="1675" d="M1443 0l295 1395h146l-295 -1395h-146zM869 0l180 856h-146l33 150h144v12l6 26q39 145 153.5 252t235.5 107q57 0 135 -10l-76 -150q-49 12 -90 12q-72 -4 -134.5 -70.5t-82.5 -162.5l-4 -16h252l-33 -150h-252l-180 -856h-141zM197 0l180 856h-146l33 150h144v12l6 26 q39 145 153.5 252t235.5 107q57 0 135 -10l-76 -150q-49 12 -90 12q-72 -4 -134.5 -70.5t-82.5 -162.5l-4 -16h252l-33 -150h-252l-180 -856h-141z" />
<glyph horiz-adv-x="526" />
</font>
</defs>
</svg>
