<?xml version="1.0" standalone="no"?>
<!DOCTYPE svg PUBLIC "-//W3C//DTD SVG 1.1//EN" "http://www.w3.org/Graphics/SVG/1.1/DTD/svg11.dtd" >
<svg xmlns="http://www.w3.org/2000/svg">
<metadata>
This is a custom SVG webfont generated by Font Squirrel.
Copyright   :  1999 nadia knechtle
</metadata>
<defs>
<font id="webfontlRqYROcq" horiz-adv-x="1024" >
<font-face units-per-em="2048" ascent="1638" descent="-410" />
<missing-glyph horiz-adv-x="532" />
<glyph unicode=" "  horiz-adv-x="532" />
<glyph unicode="&#x09;" horiz-adv-x="532" />
<glyph unicode="&#xa0;" horiz-adv-x="532" />
<glyph unicode="!" horiz-adv-x="440" d="M141 115q0 51 36 87t87 36t87 -36t36 -87t-36 -87t-87 -36t-87 36t-36 87zM174 1477q0 27 29 26h121q31 0 30 -26l-30 -928q-33 -57 -60 -57q-49 0 -59 59z" />
<glyph unicode="%" horiz-adv-x="1609" d="M133 1180q0 162 90 250q74 72 170 71q94 0 166 -71q90 -88 90 -250q0 -170 -80 -256q-68 -72 -176 -72q-109 0 -178 72q-82 86 -82 256zM256 1178q0 -207 133 -207q135 0 135 207q0 106 -49 161q-37 41 -84 41q-51 0 -86 -41q-49 -52 -49 -161zM412 68l675 1400 q25 33 58 33q12 0 24 -6q43 -16 43 -74l-675 -1401q-31 -37 -64 -36q-12 0 -22 4q-43 19 -39 80zM958 305q0 164 93 252q72 70 168 70t167 -70q90 -88 91 -252q0 -170 -82 -254q-68 -74 -176 -74q-109 0 -179 74q-82 84 -82 254zM1083 303q0 -205 134 -205q135 0 135 207 q0 104 -49 160q-39 43 -84 43q-51 0 -89 -41q-47 -53 -47 -164z" />
<glyph unicode="&#x26;" horiz-adv-x="1191" d="M102 365q0 166 127 299q45 49 174 137q-129 156 -135 164q-68 100 -67 200q0 176 125 269q102 78 256 77q119 0 215 -84q111 -92 110 -233q0 -152 -123 -283q-55 -61 -180 -145l354 -424q98 152 99 272v29q0 25 24 25h84q25 0 25 -35q0 -197 -141 -391l135 -168 q8 -12 8 -17q0 -10 -8 -16l-58 -51q-16 -10 -18 -10q-16 0 -25 10l-129 151q-199 -164 -409 -164q-186 0 -309 99q-134 107 -134 289zM240 379q0 -123 93 -199t232 -76q150 0 305 134l-389 471l-84 -60q-68 -53 -106 -108q-51 -76 -51 -162zM336 1192q0 -90 82 -207 q14 -18 102 -121q133 94 154 115q104 100 104 213q0 94 -71 154q-61 51 -146 51q-84 0 -149 -54q-76 -59 -76 -151zM555 500z" />
<glyph unicode="(" horiz-adv-x="577" d="M61 713q0 322 146 616q106 213 219 309q20 14 39 7l61 -31q29 -14 9 -37q-6 -10 -25 -31q-127 -156 -180 -266q-121 -246 -121 -569q0 -229 90 -480t221 -385q18 -20 -4 -30l-63 -31q-23 -12 -37 6q-113 98 -213 309q-142 291 -142 613z" />
<glyph unicode=")" horiz-adv-x="577" d="M61 1577q-20 23 7 37l63 31q18 8 37 -7q115 -96 221 -309q145 -295 146 -616q0 -322 -142 -613q-100 -211 -213 -309q-14 -18 -39 -6l-61 31q-25 10 -4 30q139 141 227 404q84 244 84 461q0 252 -74 458q-53 147 -147 275z" />
<glyph unicode="*" d="M180 1122q0 4 6 23l17 57q6 23 18 23q2 0 19 -6l223 -84l-8 206q-2 51 -2 39q0 23 20 23h78q20 0 20 -23q0 12 -2 -39l-8 -206l221 82q16 6 19 6q10 0 18 -23l21 -51q4 -8 6 -23q0 -10 -23 -18l-231 -66l149 -190q10 -20 11 -18q0 -8 -17 -21l-51 -41q-10 -8 -20 -8 q-8 0 -19 16l-133 205l-133 -199q-10 -16 -19 -16q-10 0 -20 8l-49 37q-16 12 -17 21q0 -2 11 18l147 188l-229 62q-23 8 -23 18z" />
<glyph unicode="+" horiz-adv-x="755" d="M94 578q0 49 58 57h219v223q0 55 57 55t59 -55v-223h220q57 -8 57 -57q0 -51 -57 -58h-222v-217q4 -23 -14 -41t-41 -18t-41 16t-18 39v221h-219q-20 0 -39 17.5t-19 40.5z" />
<glyph unicode="," horiz-adv-x="440" d="M154 117q6 51 46 82.5t89 27.5q49 -6 83 -46t31 -89q-6 -180 -163 -274q-45 -23 -60 -17q-18 8 6 29q102 82 111 162q-8 -4 -45 -6q-49 6 -75.5 43t-22.5 88z" />
<glyph unicode="-" horiz-adv-x="817" d="M82 578q0 49 57 57h539q57 -8 57 -57q0 -47 -57 -58h-539q-57 11 -57 58z" />
<glyph unicode="." horiz-adv-x="440" d="M154 115q0 51 35.5 87t86.5 36t87 -36t36 -87t-35.5 -87t-87.5 -36q-51 0 -86.5 36t-35.5 87z" />
<glyph unicode="/" horiz-adv-x="933" d="M39 -209l762 1892q20 35 53 35q10 0 20 -4q45 -16 33 -74l-762 -1892q-23 -37 -55 -37q-10 0 -20 4q-45 19 -31 76z" />
<glyph unicode="0" d="M55 748q0 784 455 784q459 0 459 -784q0 -776 -457 -777q-250 0 -358 211q-99 187 -99 566zM201 758q0 -668 307 -668q313 0 313 668q0 653 -309 653q-311 0 -311 -653z" />
<glyph unicode="1" horiz-adv-x="827" d="M115 1255q0 43 57 72l336 189v-1414h182q55 -2 55 -51q0 -47 -55 -51h-508q-59 4 -59 51q0 49 59 51h195v1211l-207 -113q-55 8 -55 55z" />
<glyph unicode="2" d="M102 57q0 35 25 70l408 565q111 156 151 232q68 123 68 217q0 123 -63.5 193.5t-176.5 70.5q-190 0 -246 -176q-8 -55 -59 -55q-53 0 -53 63q0 115 106.5 200t255.5 85q106 0 199 -54q170 -94 170 -325q0 -182 -246 -522l-369 -506h592q57 0 58 -58q0 -59 -62 -57h-696 q-62 24 -62 57z" />
<glyph unicode="3" d="M84 125q-14 20 0 37l47 55q2 0 8 4q12 6 23 -2q72 -66 148.5 -90.5t197.5 -24.5q104 0 195.5 91.5t91.5 216.5q0 193 -156 268q-86 43 -199 43h-88q-27 0 -26 27v92q0 2 3 12t17 10h94q106 0 202.5 79t96.5 187q0 125 -71 205q-61 68 -140 70q-104 0 -170 -31 q-31 -14 -118 -84q-20 -16 -29 2l-49 51q-18 16 -2 37q121 147 368 144q111 -2 203 -66q150 -104 150 -336q0 -117 -86 -204q-43 -43 -154 -111q135 -59 182 -100q117 -102 117 -293q0 -180 -141 -312q-131 -123 -295 -122q-301 0 -420 145z" />
<glyph unicode="4" d="M66 500q0 33 16 61l426 916q23 45 59 45q25 0 46.5 -17.5t21.5 -40.5q0 -14 -8 -26l-430 -910h417v265q0 29 25 28h80q25 0 24 -26v-267h158q57 -4 57 -53q0 -47 -55 -55h-160v-393q0 -31 -24 -31h-80q-25 0 -25 29v393l-477 2q-14 0 -26 4q-31 12 -39 41q-6 17 -6 35z " />
<glyph unicode="5" d="M84 125q-14 20 0 37l47 55q2 0 8 4q12 6 21 -2h2q78 -70 129 -90q61 -25 176 -25q141 0 236.5 100.5t95.5 235.5q0 338 -363 338q-51 0 -110 -6l-119 -18q-31 -4 -31 30l2 672q0 47 47 45h594q55 -25 55 -61q0 -49 -55 -58h-504v-485q70 10 136 10q244 0 372 -133 q117 -121 117 -330q0 -190 -133 -325q-139 -139 -344 -139q-260 0 -379 145z" />
<glyph unicode="6" d="M102 582q0 332 93 577q137 365 442 365q125 0 192 -43q20 -14 13 -35l-27 -66q0 4 -11 -5t-16 -7q-27 8 -53 18q-43 14 -84 15q-203 0 -321 -246q-86 -182 -86 -342q27 49 96 92q94 59 199 60q133 0 241 -99q143 -131 144 -381q0 -219 -113 -362t-301 -143 q-193 0 -300.5 164t-107.5 438zM254 469q0 -160 77 -264.5t185 -104.5q109 0 184 93q86 106 86 290q0 160 -70.5 262.5t-185.5 102.5q-125 0 -200.5 -111.5t-75.5 -267.5z" />
<glyph unicode="7" horiz-adv-x="968" d="M61 1440q0 53 58 61h741q47 2 47 -45q0 -12 -18 -57l-531 -1284q-12 -27 -32 -68q-31 -45 -74 -45q-57 0 -57 49q0 25 12 51l522 1280h-610q-58 25 -58 58z" />
<glyph unicode="8" d="M82 387q0 313 278 426q-215 109 -215 326q0 246 166 338q84 45 203 45q117 0 203 -47q166 -92 166 -336q0 -184 -234 -328q293 -127 293 -434q0 -182 -121 -289.5t-307 -110.5q-193 0 -312.5 111t-119.5 299zM227 385q0 -133 75 -211t210 -78q129 0 207 76t78 203 q0 135 -47 217q-37 63 -111 106l-127 70q-158 -88 -186 -115q-99 -94 -99 -268zM287 1147q0 -180 227 -279q113 51 164 105q63 70 63 174q0 141 -75 209q-59 53 -154 53q-225 0 -225 -262zM360 813z" />
<glyph unicode="9" d="M106 1004q0 223 116 371.5t302 148.5q190 0 293 -172q100 -162 101 -441q0 -381 -76 -589q-127 -342 -465 -342q-125 0 -193 43q-20 12 -12 34l27 66q0 -6 11 3t15 9q27 -10 54 -18q43 -14 83 -15q244 0 349 248q61 147 61 328q-29 -53 -90 -94q-90 -59 -207 -60 q-113 0 -221 101q-148 135 -148 379zM248 1012q0 -160 71.5 -265.5t186.5 -105.5q123 0 190 117q59 104 60 266q0 164 -65.5 271.5t-172.5 107.5q-109 0 -184 -98q-86 -109 -86 -293z" />
<glyph unicode=":" horiz-adv-x="440" d="M154 115q0 51 35.5 87t86.5 36t87 -36t36 -87t-35.5 -87t-87.5 -36q-51 0 -86.5 36t-35.5 87zM154 688q0 51 35.5 87t86.5 36t87 -36t36 -87t-35.5 -87t-87.5 -36q-51 0 -86.5 36t-35.5 87z" />
<glyph unicode=";" horiz-adv-x="440" d="M154 117q6 51 46 82.5t89 27.5q49 -6 83 -46t31 -89q-6 -180 -163 -274q-45 -23 -60 -17q-18 8 6 29q102 82 111 162q-8 -4 -45 -6q-49 6 -75.5 43t-22.5 88zM154 674q0 51 35.5 87t86.5 36t87 -36t36 -87t-35.5 -87t-87.5 -36q-51 0 -86.5 36t-35.5 87z" />
<glyph unicode="&#x3c;" horiz-adv-x="591" d="M61 584q0 10 11 20l344 432q12 14 20 15l19 -7l55 -30q18 -10 18 -21q0 -2 -8 -18l-309 -391l309 -389q10 -12 10 -19q0 -8 -20 -20l-55 -31q-10 -6 -19 -6q-12 0 -20 14l-344 432q-11 11 -11 19z" />
<glyph unicode="=" horiz-adv-x="755" d="M102 461q0 47 58 57h538q57 -10 58 -57q0 -47 -58 -58h-538q-58 11 -58 58zM102 664q0 47 58 55h538q57 -8 58 -55q0 -49 -58 -60h-538q-58 13 -58 60z" />
<glyph unicode="&#x3e;" horiz-adv-x="591" d="M61 176q0 6 11 19l309 389l-309 391l-9 18q0 10 19 21l55 30l19 7q8 0 20 -15l344 -432q10 -10 10 -20q0 -8 -10 -19l-344 -432q-8 -14 -20 -14q-8 0 -19 6l-55 31q-21 12 -21 20z" />
<glyph unicode="?" horiz-adv-x="845" d="M82 1358q-14 16 0 33q117 131 330 129q104 -2 198 -68q154 -104 154 -330q0 -156 -102 -266q-86 -88 -193 -111l-14 -219q-4 -57 -58 -57q-55 0 -57 59l-12 287q129 0 219 91t90 222q0 127 -82 209q-70 70 -143 70q-94 2 -154 -27q-29 -14 -106 -73q-18 -16 -27 0z M279 115q0 51 35.5 87t86.5 36t87 -36t36 -87t-35.5 -87t-87.5 -36q-51 0 -86.5 36t-35.5 87z" />
<glyph unicode="@" horiz-adv-x="1662" d="M84 272q0 350 242 584q233 225 571 225q313 0 506 -188q176 -176 176 -430q0 -240 -119 -369q-113 -119 -303 -119q-100 0 -152.5 49.5t-52.5 122.5q0 14 2 29h-4q-31 -78 -104 -135q-82 -66 -176 -66q-193 0 -193 252q0 213 111 348q117 147 321 148q115 0 240 -27 l-68 -372q-8 -49 -8 -86q0 -137 113 -138q111 0 184 86q84 98 84 269q0 213 -145 354q-158 154 -420 154q-270 0 -467 -191q-203 -197 -203 -485q0 -268 160 -428q162 -166 444 -166q131 0 283 45q27 6 27 -12v-82q0 -33 -27 -37q-137 -39 -303 -39q-334 0 -529 196 q-190 191 -190 508zM600 246q0 -152 102 -152q88 0 161 114t112 306l18 94q-39 12 -114 13q-125 0 -207 -132q-72 -112 -72 -243z" />
<glyph unicode="A" horiz-adv-x="1517" d="M45 51q0 47 55 51h150l420 1375q20 51 63 51q57 0 68 -47l469 -1379h147q55 -4 56 -51q0 -47 -58 -51h-436q-57 4 -57 51t57 51h158l-121 357h-524l-111 -357h158q57 -4 57 -51t-57 -51h-437q-57 4 -57 51zM516 567h467l-248 709z" />
<glyph unicode="B" horiz-adv-x="1193" d="M45 53q0 47 55 53h152v1289h-150q-57 6 -57 51q0 49 57 55h451q473 0 473 -364q0 -145 -84 -244q-68 -80 -160 -100q319 -61 320 -363q0 -176 -103 -289q-131 -141 -317 -141h-580q-57 6 -57 53zM387 109h205q203 0 297 100q72 78 72 225q0 289 -410 289h-164v-614z M387 838h135q367 0 367 297q0 176 -168 235q-70 23 -168 23h-166v-555z" />
<glyph unicode="C" horiz-adv-x="1247" d="M45 758q0 446 274 651q156 115 336 115q297 0 463 -154v-235q-47 -59 -55 -60q-49 0 -53 58v176q-92 57 -107 63q-88 35 -254 35q-141 0 -256 -100q-195 -172 -194 -559q0 -360 159 -533q115 -125 273 -125q215 0 375 103v172q4 55 53 55q47 0 55 -58v-237 q-53 -49 -168 -94q-152 -59 -315 -60q-246 0 -402 179q-184 209 -184 608z" />
<glyph unicode="D" horiz-adv-x="1339" d="M45 57q0 47 55 54h150v1280h-148q-57 8 -57 53q0 49 57 57h428q283 0 471 -166q231 -205 232 -598q0 -354 -195 -551q-184 -186 -499 -186h-437q-57 10 -57 57zM387 111h156q231 0 377 139q172 166 172 495q0 332 -193 506q-152 139 -369 140h-143v-1280z" />
<glyph unicode="E" horiz-adv-x="1067" d="M45 57q0 55 55 56h154v1276h-152q-57 0 -57 53q0 59 57 59h899v-264q-8 -57 -55 -57q-49 0 -57 55v151l-500 3v-560h295v99q10 55 57 55t54 -57v-283q-8 -57 -56 -57q-47 0 -55 57v78h-295v-608h531v151q23 57 59 58q47 0 55 -58v-264h-932q-23 0 -40 17t-17 40z" />
<glyph unicode="F" horiz-adv-x="1038" d="M45 1444q0 57 57 57h916v-264q-8 -57 -55 -57q-49 0 -58 55v151l-516 3v-560h293v99q10 55 57 55t54 -57v-283q-8 -57 -56 -57q-47 0 -55 57v78h-293v-619h152q57 -4 57 -51t-57 -51h-439q-55 4 -55 51t55 51h154v1287h-154q-57 0 -57 55z" />
<glyph unicode="G" horiz-adv-x="1263" d="M45 754q0 381 219 596q176 172 393 172q303 0 467 -164v-236q-8 -59 -55 -59q-49 0 -53 57v176q-86 59 -98 66q-94 41 -261 41q-162 0 -295 -141q-168 -182 -167 -519q0 -360 159 -530q117 -123 275 -123q283 0 399 205v237h-209q-55 0 -55 58q0 49 55 55h340l2 -604 q0 -63 -65 -64q-68 0 -68 58v92q-135 -156 -403 -156q-246 0 -400 176q-180 208 -180 607z" />
<glyph unicode="H" horiz-adv-x="1409" d="M45 51q0 47 55 51h150v1297h-148q-57 4 -57 49q0 49 57 53h437q57 -4 57 -53q0 -45 -57 -49h-152v-565h627v565h-152q-55 4 -55 49q0 49 55 53h438q57 -4 58 -53q0 -45 -58 -49h-145v-1297h143q59 -4 60 -51q0 -47 -58 -51h-438q-55 4 -55 51t55 51h152v613h-627v-613 h152q57 -4 57 -51t-57 -51h-437q-57 4 -57 51z" />
<glyph unicode="I" horiz-adv-x="636" d="M45 51q0 47 55 51h150v1297h-148q-57 4 -57 49q0 49 57 53h439q55 -4 55 -53q0 -45 -55 -49h-152v-1297h152q55 -4 55 -51t-55 -51h-439q-57 4 -57 51z" />
<glyph unicode="J" horiz-adv-x="800" d="M45 88l33 55q10 27 31 13q78 -63 165 -64q59 0 95 47q33 41 32 92q2 94 2 160v1008h-147q-57 4 -57 49q0 49 57 53h438q55 -4 56 -53q0 -45 -56 -49h-151v-1016q0 -178 -29 -258q-57 -150 -231 -150q-94 0 -224 72q-19 13 -19 27q0 6 5 14z" />
<glyph unicode="K" horiz-adv-x="1388" d="M45 51q0 47 55 51h152v1297h-150q-57 4 -57 49q0 49 57 53h437q57 -4 57 -53q0 -45 -57 -49h-152v-602l516 602h-131q-57 4 -57 49q0 49 57 53h424q57 -4 57 -53q0 -45 -57 -49h-141l-451 -525l508 -772h150q57 -4 57 -51t-57 -51h-236l-508 776l-131 -160v-514h152 q57 -4 57 -51t-57 -51h-437q-57 4 -57 51z" />
<glyph unicode="L" horiz-adv-x="1040" d="M45 57q0 47 55 58h152v1284h-150q-57 4 -57 49q0 49 57 53h437q57 -4 57 -53q0 -45 -57 -49h-150v-1284h526v149q23 57 60 58q47 0 55 -58v-264h-928q-57 10 -57 57z" />
<glyph unicode="M" horiz-adv-x="1744" d="M45 51q0 47 55 51h154l61 1297h-151q-57 4 -58 49q0 49 58 53h282h62q25 -4 31 -26l338 -1151l331 1151q6 23 31 26h61h283q57 -4 57 -53q0 -45 -57 -49h-149l57 -1297h151q55 -4 56 -51q0 -47 -58 -51h-436q-57 4 -57 51t57 51h152l-56 1229l-352 -1196q-20 -51 -63 -51 q-57 0 -68 47l-371 1202l-59 -1231h152q57 -4 57 -51t-57 -51h-437q-57 4 -57 51z" />
<glyph unicode="N" horiz-adv-x="1429" d="M45 51q0 47 55 51h154v1297h-152q-57 4 -57 49q0 49 57 53h279q80 0 92 -26l565 -1145l-2 1069h-153q-55 4 -56 49q0 49 56 53h438q57 -4 57 -53q0 -45 -57 -49h-147v-1370q0 -51 -62 -52q-43 0 -68 48l-657 1302v-1225h152q57 -4 57 -51t-57 -51h-437q-57 4 -57 51z" />
<glyph unicode="O" horiz-adv-x="1265" d="M61 748q0 352 160 568t412 216q238 0 393 -184q178 -211 178 -600q0 -354 -154.5 -565.5t-416.5 -211.5q-266 0 -419 210.5t-153 566.5zM211 758q0 -326 135 -510q117 -158 285 -158q172 0 289 158q133 182 133 510q0 326 -133 502q-113 152 -287 151q-174 0 -289 -151 q-133 -176 -133 -502z" />
<glyph unicode="P" horiz-adv-x="1028" d="M45 51q0 47 55 51h150v1293h-148q-57 6 -57 51q0 49 57 55h433q246 0 374 -131q98 -102 99 -252q0 -201 -158 -315q-127 -90 -324 -90h-139v-611h152q57 -4 57 -51t-57 -51h-437q-57 4 -57 51zM387 827h129q131 0 225 54q129 74 129 233q0 168 -157 240q-86 39 -187 39 h-139v-566z" />
<glyph unicode="Q" horiz-adv-x="1280" d="M45 748q0 352 160 568t411 216q238 0 394 -184q178 -211 178 -600q0 -492 -287 -691q35 -113 160 -112q53 0 125 49q20 14 41 14q43 0 43 -43q0 -23 -31 -47q-84 -72 -178 -72q-201 0 -246 164q-90 -39 -199 -39q-254 0 -412.5 213.5t-158.5 563.5zM190 758 q0 -379 189 -561q0 55 55 110q72 68 184 68q117 0 191 -70q59 -53 59 -104q172 145 172 557q0 326 -135 506q-115 156 -289 155q-174 0 -290 -155q-136 -180 -136 -506zM457 133q80 -49 159 -49q86 0 168 51q0 55 -47 100.5t-119 45.5q-68 0 -114.5 -42.5t-46.5 -105.5z" />
<glyph unicode="R" horiz-adv-x="1198" d="M45 51q0 47 55 51h152v1293h-150q-57 6 -57 51q0 49 57 55h437q213 0 327.5 -96t114.5 -277q0 -139 -68 -237q-94 -135 -303 -166l385 -623h127q57 -4 58 -51q0 -47 -58 -51h-204l-447 721h-84v-619h152q57 -4 57 -51t-57 -51h-437q-57 4 -57 51zM387 838h129 q332 0 332 282q0 272 -346 273h-115v-555z" />
<glyph unicode="S" horiz-adv-x="1021" d="M45 129v281q8 57 55 57t54 -57v-213q100 -100 315 -101q154 0 256 105q76 80 76 184q0 129 -53 205q-41 57 -121 94l-133 49l-144 53q-113 51 -178 119q-86 92 -86 221q0 242 209 342q113 53 237 54q209 0 355 -97v-243q-8 -59 -56 -60q-49 0 -53 58v174q-100 55 -243 55 q-129 0 -211 -59q-96 -72 -97 -215q0 -98 80 -166q59 -53 178 -99l187 -65q274 -111 274 -418q0 -150 -117 -270q-133 -137 -358 -140h-7q-249 0 -419 152z" />
<glyph unicode="T" horiz-adv-x="1134" d="M20 1237v264h1094v-264q-6 -57 -55 -57q-47 0 -58 55v154l-364 2v-1289h172q57 -4 57 -51t-57 -51h-481q-57 4 -58 51q0 47 56 51h170v1289l-363 -2v-154q-10 -55 -57 -55q-48 0 -56 57z" />
<glyph unicode="U" horiz-adv-x="1411" d="M41 1448q0 49 57 53h437q57 -4 57 -53q0 -45 -57 -49h-150v-948q0 -348 313 -349q326 0 326 349v948h-147q-57 4 -58 49q0 49 58 53h436q57 -4 57 -53q0 -45 -57 -49h-150v-948q0 -211 -114 -338q-123 -135 -351 -136q-225 0 -346 140q-106 127 -106 334v948h-148 q-57 4 -57 49z" />
<glyph unicode="V" horiz-adv-x="1411" d="M31 1448q0 49 57 53h436q57 -4 58 -53q0 -45 -58 -49h-149l334 -1141l325 1141h-147q-57 4 -58 49q0 49 58 53h436q57 -4 57 -53q0 -45 -57 -49h-149l-400 -1368q-8 -53 -67 -54q-51 0 -68 54l-403 1368h-148q-57 4 -57 49z" />
<glyph unicode="W" horiz-adv-x="1812" d="M20 1448q0 49 58 51l364 2q59 -6 60 -53q0 -47 -60 -51h-127l291 -1182l244 1022q12 51 53 51q39 0 51 -51l263 -1014l272 1174h-123q-55 4 -55 51q0 49 55 51h367q59 -4 59 -51t-59 -51h-113l-330 -1374q-4 -12 -24.5 -31t-46.5 -19q-55 0 -68 50l-248 913l-225 -913 q-4 -10 -21 -27q-25 -23 -51 -23q-29 0 -53 23q-16 14 -18 27l-351 1374h-106q-58 4 -58 51z" />
<glyph unicode="X" horiz-adv-x="1228" d="M45 51q0 49 57 51h125l330 689l-319 606h-97q-57 2 -57 49q0 49 57 53h328q57 -6 57 -53t-57 -49h-92l252 -482l252 482h-93q-57 2 -57 49q0 49 57 53h336q59 -6 60 -53q0 -47 -60 -49h-102l-322 -606l332 -689h125q55 -2 55 -51q0 -47 -55 -51h-346q-59 4 -59 51 q0 49 59 51h80l-262 549l-262 -549h88q57 -2 57 -51q0 -47 -57 -51h-353q-57 4 -57 51z" />
<glyph unicode="Y" horiz-adv-x="1263" d="M31 1450q0 47 57 51h365q59 -4 59 -51q0 -49 -59 -51h-121l291 -602l295 602h-111q-55 2 -55 51q0 47 55 51h367q59 -4 59 -51q0 -49 -59 -51h-121l-363 -746v-551h146q57 -4 57 -51t-55 -51h-439q-57 4 -57 51t57 51h152v551l-356 746h-107q-57 2 -57 51z" />
<glyph unicode="Z" horiz-adv-x="1040" d="M45 47q0 10 25 55l710 1280h-602v-153q-8 -57 -55 -58q-47 0 -55 58v272h843h5q47 0 47 -45q0 -14 -25 -57l-717 -1284h672v153q4 57 53 58q47 0 55 -58v-268h-903q-53 0 -53 47z" />
<glyph unicode="\" horiz-adv-x="933" d="M39 1640q-12 57 33 74q10 4 20 4q33 0 53 -35l762 -1892q14 -57 -30 -76q-10 -4 -21 -4q-33 0 -55 37z" />
<glyph unicode="^" horiz-adv-x="1001" d="M150 1157q0 8 10 17l346 274q8 8 16 8q6 0 15 -8l346 -274q12 -6 12 -17q0 -6 -6 -14l-25 -45q-8 -16 -16 -17q-4 0 -14 9l-312 247l-313 -247l-14 -7q-8 0 -17 15l-24 45zM508 1069zM508 1069z" />
<glyph unicode="_" horiz-adv-x="1753" d="M-14 53q0 49 57 58h1655q57 -8 57 -58q0 -47 -57 -57h-1655q-57 10 -57 57z" />
<glyph unicode="`" horiz-adv-x="1001" d="M264 1403q0 12 8 27q16 27 47 26q16 0 33 -8l385 -227q27 -23 27 -52q0 -14 -8 -26q-14 -27 -43 -27q-16 0 -33 8l-385 228q-31 22 -31 51zM264 1403q0 12 8 27q16 27 47 26q16 0 33 -8l385 -227q27 -23 27 -52q0 -14 -8 -26q-14 -27 -43 -27q-16 0 -33 8l-385 228 q-31 22 -31 51z" />
<glyph unicode="a" horiz-adv-x="1046" d="M82 295q14 344 586 344q0 184 -15 231q-35 109 -172 109q-223 0 -223 -172q0 -25 -18 -23h-78q-23 0 -23 19q0 96 74 170q92 96 262 96q319 0 320 -328v-639h184q57 -2 57 -51q0 -47 -57 -51h-313v113q-14 -41 -82 -84q-80 -51 -164 -52q-172 0 -260 93q-78 80 -78 206 v19zM207 287q0 -207 217 -207q94 0 172 76q70 70 70 133v237q-182 0 -273 -24q-186 -53 -186 -215z" />
<glyph unicode="b" horiz-adv-x="1116" d="M0 1450q0 49 57 51l305 -4v-569q88 143 265 143q147 0 252 -100q147 -143 147 -463q0 -270 -145 -414q-119 -117 -289 -117q-66 0 -131.5 33t-98.5 86v-14q0 -45 -22 -82h-141q33 51 32 125v1274h-176q-55 4 -55 51zM362 324q0 -96 58 -166q63 -76 166 -76q152 0 229 137 q68 117 68 305q0 199 -67.5 325t-197.5 126q-100 0 -174 -74q-82 -80 -82 -211v-366z" />
<glyph unicode="c" horiz-adv-x="999" d="M102 528q0 274 158 426q125 119 283 119q197 0 325 -102v-166q-8 -57 -55 -57q-49 0 -53 57v117q-84 49 -219 49q-109 0 -189 -92q-104 -121 -104 -357q0 -254 110 -366q70 -70 162 -70t164 55q84 66 84 174q0 29 23 29h90q14 0 14 -25q0 -104 -66 -196 q-100 -147 -319 -148q-170 0 -279 123q-129 145 -129 430z" />
<glyph unicode="d" horiz-adv-x="1138" d="M104 508q0 322 181 469q117 94 247 94q158 0 226 -115v443h-172q-55 4 -56 51q0 49 58 51h299v-1399h184q57 -2 57 -51q0 -47 -57 -51h-313v106q-14 -59 -119 -104q-59 -25 -119 -25q-178 0 -287 117q-129 138 -129 414zM238 504q0 -139 51 -254q78 -168 243 -168 q90 0 158 82t68 207v340q-4 121 -62.5 189.5t-154.5 68.5q-113 0 -199 -101q-104 -126 -104 -364z" />
<glyph unicode="e" horiz-adv-x="1001" d="M102 528q0 272 144 422q115 119 262 119q143 0 244 -96q147 -139 147 -449h-661q0 -444 272 -444q225 0 260 217q0 29 21 29h81q16 0 17 -25q-14 -168 -129 -252q-96 -72 -248 -72q-197 0 -305 152q-105 145 -105 399zM244 635h520q0 166 -90 258q-70 74 -154 74 q-92 0 -164 -68q-92 -88 -112 -264z" />
<glyph unicode="f" horiz-adv-x="790" d="M37 51q0 47 57 51h137v840h-118q-55 6 -56 51q0 49 58 54h116v110q0 379 312 379q127 0 227 -68q14 -10 14 -21q0 -6 -4 -13l-26 -39q-12 -16 -35 -4l-64 28q-53 18 -127 19q-80 0 -127 -70q-37 -55 -36 -115v-206h221q55 -4 55 -54q0 -47 -55 -51h-221v-840h141 q57 -4 57 -51t-57 -51h-412q-57 4 -57 51z" />
<glyph unicode="g" horiz-adv-x="1107" d="M283 82q-147 27 -148 133q0 102 162 147q-174 91 -174 309v15q6 229 174 328q98 55 211 55q104 0 172 -35q2 0 80 -53q94 78 172 78q76 0 155 -64v-172q-45 -55 -55 -55q-49 0 -53 55v113q-25 23 -57 22q-53 0 -97 -43q29 -35 49 -113q17 -66 18 -120q0 -11 -1 -20 q-6 -86 -41 -158q-78 -158 -268 -191q-55 -10 -109 -10h-78q-137 -12 -137 -82q0 -51 51 -69q61 -20 258 -21q205 0 322 -86q111 -82 110 -215q0 -143 -146 -235.5t-359 -92.5q-227 0 -357 113q-104 90 -104 195q0 218 250 272zM180 -174q0 -111 90 -170q82 -55 224 -55 q158 0 257 58t99 173q0 211 -350 211q-320 0 -320 -217zM264 694q0 -299 248 -299q115 0 177.5 80t62.5 219q0 129 -74 209q-70 74 -168 74q-100 0 -170 -74q-76 -80 -76 -209z" />
<glyph unicode="h" horiz-adv-x="1255" d="M41 1448q0 47 57 53h318v-672q74 236 323 236q168 0 234 -180q29 -76 33 -183v-600h137q59 -4 59 -51t-57 -51h-273v639q0 141 -26 205q-41 100 -160 100q-172 0 -244 -213q-31 -88 -36 -213v-416h151q57 -4 57 -51t-57 -51h-434q-59 4 -60 51q0 47 60 51h151v1297h-178 q-55 2 -55 49z" />
<glyph unicode="i" horiz-adv-x="634" d="M20 991q0 49 58 56h305v-945h154q57 -2 57 -51q0 -47 -57 -51h-437q-57 6 -57 51q0 49 57 51h154v840h-178q-56 4 -56 49zM223 1399q0 39 28 67.5t68 28.5q39 0 67 -28.5t28 -67.5t-28 -67.5t-67 -28.5q-41 0 -68.5 28.5t-27.5 67.5z" />
<glyph unicode="j" horiz-adv-x="626" d="M4 -391l33 59q8 20 39 4q59 -49 157 -49q139 0 140 172v1147h-176q-57 4 -58 49q0 49 58 56h307v-1184q0 -158 -41 -236q-59 -119 -221 -119q-127 0 -228 66q-15 11 -14 22q0 6 4 13zM342 1399q0 39 27.5 67.5t68.5 28.5q39 0 68 -28.5t29 -67.5t-29 -67.5t-68 -28.5 q-41 0 -68.5 28.5t-27.5 67.5z" />
<glyph unicode="k" horiz-adv-x="1206" d="M10 1448q0 49 58 53h307v-893l403 334h-116q-57 2 -58 51q0 47 58 51h389q57 -4 57 -51q0 -49 -57 -51h-115l-336 -285l340 -555h152q59 -4 59 -51t-57 -51h-236l-350 580l-133 -105v-373h149q57 -2 58 -51q0 -47 -58 -51h-432q-59 4 -59 51q0 49 59 51h152v1297h-178 q-56 2 -56 49zM12 1454z" />
<glyph unicode="l" horiz-adv-x="634" d="M31 1446q0 49 57 55h305v-1390h154q57 -6 57 -56q0 -47 -57 -55h-436q-57 8 -58 55q0 49 58 56h153v1280h-178q-55 8 -55 55z" />
<glyph unicode="m" horiz-adv-x="1851" d="M41 993q0 47 57 54h308v-236q86 254 335 254q133 0 195 -104q37 -63 37 -123q0 37 65 110q102 115 275 115q180 0 246 -180q27 -76 30 -181v-600h150q59 -4 59 -51t-57 -51h-285v639q0 133 -20 197q-37 109 -146 108q-190 0 -260 -184q-33 -86 -33 -209v-449h158 q59 -4 59 -51t-57 -51h-291l-2 639q0 147 -20 205q-39 100 -156 100q-180 0 -250 -209q-33 -100 -32 -217v-416h151q57 -2 57 -51q0 -47 -57 -51h-434q-59 4 -60 51q0 49 60 51h151v840h-178q-55 4 -55 51z" />
<glyph unicode="n" horiz-adv-x="1239" d="M41 993q0 47 57 54h308v-236q82 254 331 254q176 0 240 -178q29 -80 29 -189v-596h135q59 -4 59 -51t-57 -51h-271v639q0 141 -24 205q-41 100 -160 100q-141 0 -219 -149q-61 -119 -63 -277v-416h151q55 -2 55 -51q0 -47 -55 -51h-434q-59 4 -60 51q0 49 60 51h151v840 h-178q-55 4 -55 51z" />
<glyph unicode="o" horiz-adv-x="1077" d="M104 528q0 272 154 422q123 119 283 119t282 -119q150 -150 150 -422q0 -285 -135 -430q-115 -121 -297 -121t-299 121q-138 145 -138 430zM248 526q0 -258 112 -370q74 -76 177 -76q125 0 198 94q92 117 92 354q0 227 -106 346q-80 92 -182 93q-111 0 -189 -90 q-102 -115 -102 -351z" />
<glyph unicode="p" horiz-adv-x="1146" d="M4 993q0 47 57 54h312v-179q16 68 96 125q88 66 193 66q121 0 210 -72q170 -137 170 -493q0 -332 -200 -455q-92 -57 -207 -57q-92 0 -168 49q-51 35 -94 92v-504h149q57 -4 58 -49q0 -47 -58 -51h-434q-59 4 -59 51q0 45 59 49h152v1323h-181q-55 4 -55 51zM371 621 l2 -308q2 -20 12 -61q33 -82 109 -127q63 -39 135 -39q145 0 219 127q59 103 59 294v13q0 172 -59 293q-68 141 -205 141q-100 0 -178 -78.5t-86 -179.5q-4 -48 -8 -75z" />
<glyph unicode="q" horiz-adv-x="1128" d="M102 500q0 322 160 467q104 94 236 94q184 0 274 -158v21q0 27 13.5 70.5t23.5 54.5h139q-14 -20 -28.5 -80t-14.5 -95v-1253h152q59 -4 59 -49q0 -47 -59 -51h-434q-57 4 -58 51q0 45 58 49h149v514q-12 -20 -27 -37q-37 -41 -75 -63q-94 -51 -170 -51q-8 0 -15 -1 l-206 78q-177 134 -177 439zM240 506q0 -143 47 -250q70 -160 227 -160q90 0 168 68q90 78 90 190v301q0 150 -92 234q-74 68 -168 67q-152 0 -221 -161q-51 -117 -51 -289z" />
<glyph unicode="r" horiz-adv-x="892" d="M41 993q0 47 57 54h308v-220q70 238 292 238q121 0 179 -64v-192q-45 -57 -56 -57q-51 0 -53 57v125q-47 25 -84 24q-193 0 -254 -260q-25 -99 -25 -236q0 -11 1 -22v-338h174q57 -2 57 -51q0 -47 -57 -51h-457q-59 4 -60 51q0 49 60 51h153v840h-180q-55 4 -55 51z" />
<glyph unicode="s" horiz-adv-x="823" d="M84 84v186q8 57 55 58q49 0 54 -58v-127q18 -18 71 -37q66 -25 131 -24q94 0 155.5 51t61.5 123q0 102 -110 174q-12 6 -150 68q-102 45 -127 63q-109 82 -108 221q0 178 164 252q86 37 174 37q143 0 264 -80v-172q-8 -57 -55 -57q-49 0 -54 57v113q-88 39 -153 39 q-72 0 -131 -39q-76 -51 -76 -146q0 -96 106 -153l189 -78q205 -96 205 -303q0 -113 -111 -199q-96 -76 -238 -78h-7q-201 0 -310 109z" />
<glyph unicode="t" horiz-adv-x="696" d="M10 993q0 49 58 54h118v272q0 29 25 29h82q25 0 24 -27v-274h258q57 -4 58 -54q0 -47 -55 -51h-261v-649q0 -84 9 -113q27 -90 125 -90q102 0 161 37q23 14 29 -4l33 -49q3 -6 3 -13q0 -12 -13 -24q-76 -59 -228 -60q-174 0 -229 134q-22 53 -22 111q0 14 1 28v692h-120 q-56 6 -56 51z" />
<glyph unicode="u" horiz-adv-x="1218" d="M4 993q0 47 59 54h293v-641q0 -123 19 -181q43 -125 170 -125q195 0 250 201q18 66 18 223v418h-164q-57 4 -57 51t59 54h291l2 -945h176q57 -4 58 -51q0 -49 -58 -51h-307v141q-94 -162 -287 -161q-188 0 -262 172q-39 90 -39 190v600h-162q-59 4 -59 51z" />
<glyph unicode="v" horiz-adv-x="1222" d="M31 993q0 47 57 51h358q59 -4 60 -51q0 -49 -60 -51h-114l270 -774l275 774h-105q-55 2 -55 51q0 47 55 51h361q59 -4 59 -51q0 -49 -59 -51h-121l-344 -919q-25 -49 -68 -50q-45 0 -68 50l-337 919h-107q-57 2 -57 51z" />
<glyph unicode="w" horiz-adv-x="1753" d="M49 993q0 47 57 51h365q59 -4 59 -51q0 -49 -59 -51h-127l234 -772l235 741q16 51 51 52q33 0 49 -52l228 -741l254 772h-119q-55 2 -55 51q0 47 55 51h366q61 -4 62 -51q0 -49 -62 -51h-120l-316 -919q-18 -49 -67 -50q-53 0 -68 50l-207 655l-221 -655q-16 -49 -68 -50 q-53 0 -67 50l-289 919h-113q-57 2 -57 51z" />
<glyph unicode="x" horiz-adv-x="1175" d="M43 51q0 49 57 51h119l297 441l-297 401h-92q-57 2 -57 49q0 49 57 54h322q57 -6 57 -54q0 -47 -57 -49h-91l232 -311l227 311h-88q-57 2 -57 49q0 49 57 54h328q59 -6 59 -54q0 -47 -59 -49h-99l-299 -401l299 -441h119q55 -2 56 -51q0 -47 -56 -51h-334q-59 4 -59 51 q0 49 59 51h74l-227 347l-232 -347h82q57 -2 58 -51q0 -47 -58 -51h-340q-57 4 -57 51z" />
<glyph unicode="y" horiz-adv-x="1210" d="M25 993q0 47 57 51h364q59 -4 60 -51q0 -49 -60 -51h-120l274 -768l270 768h-106q-55 2 -55 51q0 47 55 51h366q59 -4 60 -51q0 -49 -60 -51h-124l-426 -1198q-31 -100 -101 -166q-76 -70 -180 -70q-125 0 -221 64q-23 14 -10 35l32 57q6 12 17 12q8 0 22 -8 q76 -45 174 -45q106 0 152 150l70 227l-347 942h-106q-57 2 -57 51z" />
<glyph unicode="z" horiz-adv-x="917" d="M61 49q0 18 31 53l586 826h-463v-154q-8 -57 -55 -57t-56 57v273h697q55 0 55 -48q0 -16 -29 -55l-583 -829h497v143q4 57 54 57q47 0 55 -57v-258h-729q-60 2 -60 49z" />
<glyph unicode="&#xaa;" horiz-adv-x="1046" d="M82 295q14 344 586 344q0 184 -15 231q-35 109 -172 109q-223 0 -223 -172q0 -25 -18 -23h-78q-23 0 -23 19q0 96 74 170q92 96 262 96q319 0 320 -328v-639h184q57 -2 57 -51q0 -47 -57 -51h-313v113q-14 -41 -82 -84q-80 -51 -164 -52q-172 0 -260 93q-78 80 -78 206 v19zM207 287q0 -207 217 -207q94 0 172 76q70 70 70 133v237q-182 0 -273 -24q-186 -53 -186 -215z" />
<glyph unicode="&#xab;" horiz-adv-x="1054" d="M61 584q0 10 11 20l344 432q12 14 20 15l19 -7l55 -30q18 -10 18 -21q0 -2 -8 -18l-309 -391l309 -389q10 -12 10 -19q0 -8 -20 -20l-55 -31q-10 -6 -19 -6q-12 0 -20 14l-344 432q-11 11 -11 19zM483 584q0 10 11 20l344 432q12 14 20 15l19 -7l55 -30q18 -10 18 -21 q0 -2 -8 -18l-309 -391l309 -389q10 -12 10 -19q0 -8 -20 -20l-55 -31q-10 -6 -19 -6q-12 0 -20 14l-344 432q-11 11 -11 19z" />
<glyph unicode="&#xad;" horiz-adv-x="817" d="M82 578q0 49 57 57h539q57 -8 57 -57q0 -47 -57 -58h-539q-57 11 -57 58z" />
<glyph unicode="&#x2212;" horiz-adv-x="817" d="M82 578q0 49 57 57h539q57 -8 57 -57q0 -47 -57 -58h-539q-57 11 -57 58z" />
<glyph unicode="&#xb2;" d="M102 57q0 35 25 70l408 565q111 156 151 232q68 123 68 217q0 123 -63.5 193.5t-176.5 70.5q-190 0 -246 -176q-8 -55 -59 -55q-53 0 -53 63q0 115 106.5 200t255.5 85q106 0 199 -54q170 -94 170 -325q0 -182 -246 -522l-369 -506h592q57 0 58 -58q0 -59 -62 -57h-696 q-62 24 -62 57z" />
<glyph unicode="&#xb3;" d="M84 125q-14 20 0 37l47 55q2 0 8 4q12 6 23 -2q72 -66 148.5 -90.5t197.5 -24.5q104 0 195.5 91.5t91.5 216.5q0 193 -156 268q-86 43 -199 43h-88q-27 0 -26 27v92q0 2 3 12t17 10h94q106 0 202.5 79t96.5 187q0 125 -71 205q-61 68 -140 70q-104 0 -170 -31 q-31 -14 -118 -84q-20 -16 -29 2l-49 51q-18 16 -2 37q121 147 368 144q111 -2 203 -66q150 -104 150 -336q0 -117 -86 -204q-43 -43 -154 -111q135 -59 182 -100q117 -102 117 -293q0 -180 -141 -312q-131 -123 -295 -122q-301 0 -420 145z" />
<glyph unicode="&#xb4;" horiz-adv-x="1001" d="M264 1169q0 29 27 52l385 227q16 8 33 8q33 0 47 -26q8 -14 8 -27q0 -29 -31 -51l-385 -228q-16 -8 -33 -8q-29 0 -43 27q-8 12 -8 26zM264 1169q0 29 27 52l385 227q16 8 33 8q33 0 47 -26q8 -14 8 -27q0 -29 -31 -51l-385 -228q-16 -8 -33 -8q-29 0 -43 27q-8 12 -8 26 z" />
<glyph unicode="&#xb9;" horiz-adv-x="827" d="M115 1255q0 43 57 72l336 189v-1414h182q55 -2 55 -51q0 -47 -55 -51h-508q-59 4 -59 51q0 49 59 51h195v1211l-207 -113q-55 8 -55 55z" />
<glyph unicode="&#xba;" horiz-adv-x="1077" d="M104 528q0 272 154 422q123 119 283 119t282 -119q150 -150 150 -422q0 -285 -135 -430q-115 -121 -297 -121t-299 121q-138 145 -138 430zM248 526q0 -258 112 -370q74 -76 177 -76q125 0 198 94q92 117 92 354q0 227 -106 346q-80 92 -182 93q-111 0 -189 -90 q-102 -115 -102 -351z" />
<glyph unicode="&#xbb;" horiz-adv-x="1054" d="M102 176q0 6 11 19l309 389l-309 391l-9 18q0 10 19 21l55 30l19 7q8 0 20 -15l344 -432q10 -10 10 -20q0 -8 -10 -19l-344 -432q-8 -14 -20 -14q-8 0 -19 6l-55 31q-21 12 -21 20zM524 176q0 6 11 19l309 389l-309 391l-9 18q0 10 19 21l55 30l18 7q8 0 21 -15l344 -432 q10 -10 10 -20q0 -8 -10 -19l-344 -432q-8 -14 -21 -14q-8 0 -18 6l-55 31q-21 12 -21 20z" />
<glyph unicode="&#xc0;" horiz-adv-x="1517" d="M301 1942q0 12 8 27q16 27 47 26q16 0 33 -8l385 -227q27 -23 27 -52q0 -14 -8 -26q-14 -27 -43 -27q-16 0 -33 8l-385 228q-31 22 -31 51zM301 1942q0 12 8 27q16 27 47 26q16 0 33 -8l385 -227q27 -23 27 -52q0 -14 -8 -26q-14 -27 -43 -27q-16 0 -33 8l-385 228 q-31 22 -31 51zM45 51q0 47 55 51h150l420 1375q20 51 63 51q57 0 68 -47l469 -1379h147q55 -4 56 -51q0 -47 -58 -51h-436q-57 4 -57 51t57 51h158l-121 357h-524l-111 -357h158q57 -4 57 -51t-57 -51h-437q-57 4 -57 51zM516 567h467l-248 709z" />
<glyph unicode="&#xc1;" horiz-adv-x="1517" d="M665 1708q0 29 27 52l385 227q16 8 33 8q33 0 47 -26q8 -14 8 -27q0 -29 -31 -51l-385 -228q-16 -8 -33 -8q-29 0 -43 27q-8 12 -8 26zM665 1708q0 29 27 52l385 227q16 8 33 8q33 0 47 -26q8 -14 8 -27q0 -29 -31 -51l-385 -228q-16 -8 -33 -8q-29 0 -43 27q-8 12 -8 26 zM45 51q0 47 55 51h150l420 1375q20 51 63 51q57 0 68 -47l469 -1379h147q55 -4 56 -51q0 -47 -58 -51h-436q-57 4 -57 51t57 51h158l-121 357h-524l-111 -357h158q57 -4 57 -51t-57 -51h-437q-57 4 -57 51zM516 567h467l-248 709z" />
<glyph unicode="&#xc2;" horiz-adv-x="1517" d="M361 1730q0 8 10 17l346 274q8 8 16 8q6 0 15 -8l346 -274q12 -6 12 -17q0 -6 -6 -14l-25 -45q-8 -16 -16 -17q-4 0 -14 9l-312 247l-313 -247l-14 -7q-8 0 -17 15l-24 45zM719 1642zM719 1642zM45 51q0 47 55 51h150l420 1375q20 51 63 51q57 0 68 -47l469 -1379h147 q55 -4 56 -51q0 -47 -58 -51h-436q-57 4 -57 51t57 51h158l-121 357h-524l-111 -357h158q57 -4 57 -51t-57 -51h-437q-57 4 -57 51zM516 567h467l-248 709z" />
<glyph unicode="&#xc4;" horiz-adv-x="1517" d="M45 51q0 47 55 51h150l420 1375q20 51 63 51q57 0 68 -47l469 -1379h147q55 -4 56 -51q0 -47 -58 -51h-436q-57 4 -57 51t57 51h158l-121 357h-524l-111 -357h158q57 -4 57 -51t-57 -51h-437q-57 4 -57 51zM428 1659q0 37 25.5 63.5t64.5 26.5q37 0 62.5 -26.5 t25.5 -63.5t-25.5 -63.5t-62.5 -26.5q-39 0 -64.5 26.5t-25.5 63.5zM516 567h467l-248 709zM856 1659q0 37 25.5 63.5t64.5 26.5q37 0 62.5 -26.5t25.5 -63.5t-25.5 -63.5t-62.5 -26.5q-39 0 -64.5 26.5t-25.5 63.5z" />
<glyph unicode="&#xc8;" horiz-adv-x="1067" d="M121 1942q0 12 8 27q16 27 47 26q16 0 33 -8l385 -227q27 -23 27 -52q0 -14 -8 -26q-14 -27 -43 -27q-16 0 -33 8l-385 228q-31 22 -31 51zM121 1942q0 12 8 27q16 27 47 26q16 0 33 -8l385 -227q27 -23 27 -52q0 -14 -8 -26q-14 -27 -43 -27q-16 0 -33 8l-385 228 q-31 22 -31 51zM45 57q0 55 55 56h154v1276h-152q-57 0 -57 53q0 59 57 59h899v-264q-8 -57 -55 -57q-49 0 -57 55v151l-500 3v-560h295v99q10 55 57 55t54 -57v-283q-8 -57 -56 -57q-47 0 -55 57v78h-295v-608h531v151q23 57 59 58q47 0 55 -58v-264h-932q-23 0 -40 17 t-17 40z" />
<glyph unicode="&#xc9;" horiz-adv-x="1067" d="M485 1708q0 29 27 52l385 227q16 8 33 8q33 0 47 -26q8 -14 8 -27q0 -29 -31 -51l-385 -228q-16 -8 -33 -8q-29 0 -43 27q-8 12 -8 26zM485 1708q0 29 27 52l385 227q16 8 33 8q33 0 47 -26q8 -14 8 -27q0 -29 -31 -51l-385 -228q-16 -8 -33 -8q-29 0 -43 27q-8 12 -8 26 zM45 57q0 55 55 56h154v1276h-152q-57 0 -57 53q0 59 57 59h899v-264q-8 -57 -55 -57q-49 0 -57 55v151l-500 3v-560h295v99q10 55 57 55t54 -57v-283q-8 -57 -56 -57q-47 0 -55 57v78h-295v-608h531v151q23 57 59 58q47 0 55 -58v-264h-932q-23 0 -40 17t-17 40z" />
<glyph unicode="&#xca;" horiz-adv-x="1067" d="M179 1730q0 8 10 17l346 274q8 8 16 8q6 0 15 -8l346 -274q12 -6 12 -17q0 -6 -6 -14l-25 -45q-8 -16 -16 -17q-4 0 -14 9l-312 247l-313 -247l-14 -7q-8 0 -17 15l-24 45zM537 1642zM537 1642zM45 57q0 55 55 56h154v1276h-152q-57 0 -57 53q0 59 57 59h899v-264 q-8 -57 -55 -57q-49 0 -57 55v151l-500 3v-560h295v99q10 55 57 55t54 -57v-283q-8 -57 -56 -57q-47 0 -55 57v78h-295v-608h531v151q23 57 59 58q47 0 55 -58v-264h-932q-23 0 -40 17t-17 40z" />
<glyph unicode="&#xcc;" horiz-adv-x="636" d="M-111 1942q0 12 8 27q16 27 47 26q16 0 33 -8l385 -227q27 -23 27 -52q0 -14 -8 -26q-14 -27 -43 -27q-16 0 -33 8l-385 228q-31 22 -31 51zM-111 1942q0 12 8 27q16 27 47 26q16 0 33 -8l385 -227q27 -23 27 -52q0 -14 -8 -26q-14 -27 -43 -27q-16 0 -33 8l-385 228 q-31 22 -31 51zM45 51q0 47 55 51h150v1297h-148q-57 4 -57 49q0 49 57 53h439q55 -4 55 -53q0 -45 -55 -49h-152v-1297h152q55 -4 55 -51t-55 -51h-439q-57 4 -57 51z" />
<glyph unicode="&#xcd;" horiz-adv-x="636" d="M254 1708q0 29 27 52l385 227q16 8 33 8q33 0 47 -26q8 -14 8 -27q0 -29 -31 -51l-385 -228q-16 -8 -33 -8q-29 0 -43 27q-8 12 -8 26zM254 1708q0 29 27 52l385 227q16 8 33 8q33 0 47 -26q8 -14 8 -27q0 -29 -31 -51l-385 -228q-16 -8 -33 -8q-29 0 -43 27q-8 12 -8 26 zM45 51q0 47 55 51h150v1297h-148q-57 4 -57 49q0 49 57 53h439q55 -4 55 -53q0 -45 -55 -49h-152v-1297h152q55 -4 55 -51t-55 -51h-439q-57 4 -57 51z" />
<glyph unicode="&#xce;" horiz-adv-x="636" d="M-51 1730q0 8 10 17l346 274q8 8 16 8q6 0 15 -8l346 -274q12 -6 12 -17q0 -6 -6 -14l-25 -45q-8 -16 -16 -17q-4 0 -14 9l-312 247l-313 -247l-14 -7q-8 0 -17 15l-24 45zM307 1642zM307 1642zM45 51q0 47 55 51h150v1297h-148q-57 4 -57 49q0 49 57 53h439 q55 -4 55 -53q0 -45 -55 -49h-152v-1297h152q55 -4 55 -51t-55 -51h-439q-57 4 -57 51z" />
<glyph unicode="&#xd2;" horiz-adv-x="1265" d="M201 1942q0 12 8 27q16 27 47 26q16 0 33 -8l385 -227q27 -23 27 -52q0 -14 -8 -26q-14 -27 -43 -27q-16 0 -33 8l-385 228q-31 22 -31 51zM201 1942q0 12 8 27q16 27 47 26q16 0 33 -8l385 -227q27 -23 27 -52q0 -14 -8 -26q-14 -27 -43 -27q-16 0 -33 8l-385 228 q-31 22 -31 51zM61 748q0 352 160 568t412 216q238 0 393 -184q178 -211 178 -600q0 -354 -154.5 -565.5t-416.5 -211.5q-266 0 -419 210.5t-153 566.5zM211 758q0 -326 135 -510q117 -158 285 -158q172 0 289 158q133 182 133 510q0 326 -133 502q-113 152 -287 151 q-174 0 -289 -151q-133 -176 -133 -502z" />
<glyph unicode="&#xd3;" horiz-adv-x="1265" d="M565 1708q0 29 27 52l385 227q16 8 33 8q33 0 47 -26q8 -14 8 -27q0 -29 -31 -51l-385 -228q-16 -8 -33 -8q-29 0 -43 27q-8 12 -8 26zM565 1708q0 29 27 52l385 227q16 8 33 8q33 0 47 -26q8 -14 8 -27q0 -29 -31 -51l-385 -228q-16 -8 -33 -8q-29 0 -43 27q-8 12 -8 26 zM61 748q0 352 160 568t412 216q238 0 393 -184q178 -211 178 -600q0 -354 -154.5 -565.5t-416.5 -211.5q-266 0 -419 210.5t-153 566.5zM211 758q0 -326 135 -510q117 -158 285 -158q172 0 289 158q133 182 133 510q0 326 -133 502q-113 152 -287 151q-174 0 -289 -151 q-133 -176 -133 -502z" />
<glyph unicode="&#xd4;" horiz-adv-x="1265" d="M261 1730q0 8 10 17l346 274q8 8 16 8q6 0 15 -8l346 -274q12 -6 12 -17q0 -6 -6 -14l-25 -45q-8 -16 -16 -17q-4 0 -14 9l-312 247l-313 -247l-14 -7q-8 0 -17 15l-24 45zM619 1642zM619 1642zM61 748q0 352 160 568t412 216q238 0 393 -184q178 -211 178 -600 q0 -354 -154.5 -565.5t-416.5 -211.5q-266 0 -419 210.5t-153 566.5zM211 758q0 -326 135 -510q117 -158 285 -158q172 0 289 158q133 182 133 510q0 326 -133 502q-113 152 -287 151q-174 0 -289 -151q-133 -176 -133 -502z" />
<glyph unicode="&#xd6;" horiz-adv-x="1265" d="M61 748q0 352 160 568t412 216q238 0 393 -184q178 -211 178 -600q0 -354 -154.5 -565.5t-416.5 -211.5q-266 0 -419 210.5t-153 566.5zM211 758q0 -326 135 -510q117 -158 285 -158q172 0 289 158q133 182 133 510q0 326 -133 502q-113 152 -287 151q-174 0 -289 -151 q-133 -176 -133 -502zM332 1710q0 37 25.5 63.5t64.5 26.5q37 0 62.5 -26.5t25.5 -63.5t-25.5 -63.5t-62.5 -26.5q-39 0 -64.5 26.5t-25.5 63.5zM760 1710q0 37 25.5 63.5t64.5 26.5q37 0 62.5 -26.5t25.5 -63.5t-25.5 -63.5t-62.5 -26.5q-39 0 -64.5 26.5t-25.5 63.5z" />
<glyph unicode="&#xd9;" horiz-adv-x="1411" d="M272 1942q0 12 8 27q16 27 47 26q16 0 33 -8l385 -227q27 -23 27 -52q0 -14 -8 -26q-14 -27 -43 -27q-16 0 -33 8l-385 228q-31 22 -31 51zM272 1942q0 12 8 27q16 27 47 26q16 0 33 -8l385 -227q27 -23 27 -52q0 -14 -8 -26q-14 -27 -43 -27q-16 0 -33 8l-385 228 q-31 22 -31 51zM41 1448q0 49 57 53h437q57 -4 57 -53q0 -45 -57 -49h-150v-948q0 -348 313 -349q326 0 326 349v948h-147q-57 4 -58 49q0 49 58 53h436q57 -4 57 -53q0 -45 -57 -49h-150v-948q0 -211 -114 -338q-123 -135 -351 -136q-225 0 -346 140q-106 127 -106 334v948 h-148q-57 4 -57 49z" />
<glyph unicode="&#xda;" horiz-adv-x="1411" d="M637 1708q0 29 27 52l385 227q16 8 33 8q33 0 47 -26q8 -14 8 -27q0 -29 -31 -51l-385 -228q-16 -8 -33 -8q-29 0 -43 27q-8 12 -8 26zM637 1708q0 29 27 52l385 227q16 8 33 8q33 0 47 -26q8 -14 8 -27q0 -29 -31 -51l-385 -228q-16 -8 -33 -8q-29 0 -43 27q-8 12 -8 26 zM41 1448q0 49 57 53h437q57 -4 57 -53q0 -45 -57 -49h-150v-948q0 -348 313 -349q326 0 326 349v948h-147q-57 4 -58 49q0 49 58 53h436q57 -4 57 -53q0 -45 -57 -49h-150v-948q0 -211 -114 -338q-123 -135 -351 -136q-225 0 -346 140q-106 127 -106 334v948h-148 q-57 4 -57 49z" />
<glyph unicode="&#xdb;" horiz-adv-x="1411" d="M334 1730q0 8 10 17l346 274q8 8 16 8q6 0 15 -8l346 -274q12 -6 12 -17q0 -6 -6 -14l-25 -45q-8 -16 -16 -17q-4 0 -14 9l-312 247l-313 -247l-14 -7q-8 0 -17 15l-24 45zM692 1642zM692 1642zM41 1448q0 49 57 53h437q57 -4 57 -53q0 -45 -57 -49h-150v-948 q0 -348 313 -349q326 0 326 349v948h-147q-57 4 -58 49q0 49 58 53h436q57 -4 57 -53q0 -45 -57 -49h-150v-948q0 -211 -114 -338q-123 -135 -351 -136q-225 0 -346 140q-106 127 -106 334v948h-148q-57 4 -57 49z" />
<glyph unicode="&#xdc;" horiz-adv-x="1411" d="M41 1448q0 49 57 53h437q57 -4 57 -53q0 -45 -57 -49h-150v-948q0 -348 313 -349q326 0 326 349v948h-147q-57 4 -58 49q0 49 58 53h436q57 -4 57 -53q0 -45 -57 -49h-150v-948q0 -211 -114 -338q-123 -135 -351 -136q-227 0 -346 140q-106 127 -106 334v948h-148 q-57 4 -57 49zM397 1659q0 37 26 63.5t64 26.5q37 0 62.5 -26.5t25.5 -63.5t-25.5 -63.5t-62.5 -26.5q-39 0 -64.5 26.5t-25.5 63.5zM825 1659q0 37 26 63.5t64 26.5q37 0 63 -26.5t26 -63.5t-26 -63.5t-63 -26.5q-39 0 -64.5 26.5t-25.5 63.5z" />
<glyph unicode="&#xdd;" horiz-adv-x="1263" d="M563 1708q0 29 27 52l385 227q16 8 33 8q33 0 47 -26q8 -14 8 -27q0 -29 -31 -51l-385 -228q-16 -8 -33 -8q-29 0 -43 27q-8 12 -8 26zM563 1708q0 29 27 52l385 227q16 8 33 8q33 0 47 -26q8 -14 8 -27q0 -29 -31 -51l-385 -228q-16 -8 -33 -8q-29 0 -43 27q-8 12 -8 26 zM31 1450q0 47 57 51h365q59 -4 59 -51q0 -49 -59 -51h-121l291 -602l295 602h-111q-55 2 -55 51q0 47 55 51h367q59 -4 59 -51q0 -49 -59 -51h-121l-363 -746v-551h146q57 -4 57 -51t-55 -51h-439q-57 4 -57 51t57 51h152v551l-356 746h-107q-57 2 -57 51z" />
<glyph unicode="&#xe0;" horiz-adv-x="1046" d="M82 295q14 344 586 344q0 184 -15 231q-35 109 -172 109q-223 0 -223 -172q0 -25 -18 -23h-78q-23 0 -23 19q0 96 74 170q92 96 262 96q319 0 320 -328v-639h184q57 -2 57 -51q0 -47 -57 -51h-313v113q-14 -41 -82 -84q-80 -51 -164 -52q-172 0 -260 93q-84 86 -78 225z M207 287q0 -207 217 -207q94 0 172 76q70 70 70 133v237q-182 0 -273 -24q-186 -53 -186 -215zM272 1403q0 12 9 27q16 27 47 26q16 0 32 -8l385 -227q27 -23 27 -52q0 -14 -8 -26q-14 -27 -43 -27q-16 0 -33 8l-385 228q-31 22 -31 51z" />
<glyph unicode="&#xe1;" horiz-adv-x="1046" d="M82 295q14 344 586 344q0 184 -15 231q-35 109 -172 109q-223 0 -223 -172q0 -25 -18 -23h-78q-23 0 -23 19q0 96 74 170q92 96 262 96q319 0 320 -328v-639h184q57 -2 57 -51q0 -47 -57 -51h-313v113q-14 -41 -82 -84q-80 -51 -164 -52q-172 0 -260 93q-84 86 -78 225z M207 287q0 -207 217 -207q94 0 172 76q70 70 70 133v237q-182 0 -273 -24q-186 -53 -186 -215zM246 1169q0 29 26 52l385 227q16 8 33 8q31 0 47 -26q8 -14 8 -27q0 -29 -30 -51l-385 -228q-16 -8 -33 -8q-29 0 -43 27q-8 12 -8 26z" />
<glyph unicode="&#xe2;" horiz-adv-x="1046" d="M82 295q14 344 586 344q0 184 -15 231q-35 109 -172 109q-223 0 -223 -172q0 -25 -18 -23h-78q-23 0 -23 19q0 96 74 170q92 96 262 96q319 0 320 -328v-639h184q57 -2 57 -51q0 -47 -57 -51h-313v113q-14 -41 -82 -84q-80 -51 -164 -52q-172 0 -260 93q-84 86 -78 225z M98 1157q0 8 11 17l346 274q8 8 16 8q6 0 14 -8l346 -274q12 -6 13 -17q0 -6 -6 -14l-25 -45q-8 -16 -16 -17q-4 0 -15 9l-311 247l-313 -247q-12 -6 -15 -7q-8 0 -16 15l-25 45zM207 287q0 -207 217 -207q94 0 172 76q70 70 70 133v237q-182 0 -273 -24q-186 -53 -186 -215 z" />
<glyph unicode="&#xe4;" horiz-adv-x="1046" d="M82 295q14 344 596 344q0 184 -14 231q-35 109 -172 109q-223 0 -224 -172q0 -25 -18 -23h-78q-23 0 -22 19q0 96 73 170q92 96 262 96q319 0 320 -328v-639h184q57 -2 58 -51q0 -47 -58 -51h-313v90q-25 -41 -88 -74q-74 -39 -158 -39q-106 0 -184 33q-172 74 -164 285z M207 287q0 -207 227 -207q96 0 170 65q72 59 72 131v250q-186 0 -277 -24q-192 -53 -192 -215zM211 1292q0 37 25.5 63.5t64.5 26.5q37 0 62.5 -26.5t25.5 -63.5t-25.5 -63.5t-62.5 -26.5q-39 0 -64.5 26.5t-25.5 63.5zM598 1292q0 37 26.5 63.5t63.5 26.5t62.5 -26.5 t25.5 -63.5t-25.5 -63.5t-62.5 -26.5t-63.5 26.5t-26.5 63.5z" />
<glyph unicode="&#xe7;" horiz-adv-x="999" d="M102 528q0 274 158 426q125 119 283 119q197 0 325 -102v-166q-8 -57 -55 -57q-49 0 -53 57v117q-84 49 -219 49q-109 0 -189 -92q-104 -121 -104 -357q0 -254 110 -366q70 -70 162 -70t164 55q84 66 84 174q0 29 23 29h90q14 0 14 -25q0 -94 -55 -182 q-86 -139 -271 -157l-12 -3q-2 -25 -4 -83q152 -14 152 -127q0 -66 -56 -103q-47 -33 -114 -33q-123 0 -123 31q0 4 2 8v8l6 37q4 10 10 11q-4 0 31 -8.5t76 -8.5q82 0 81 55q0 43 -79.5 52.5t-79.5 33.5q0 -2 2 27l6 100q-156 16 -252 140q-113 145 -113 411z" />
<glyph unicode="&#xe8;" horiz-adv-x="1001" d="M102 528q0 272 144 422q115 119 262 119q143 0 244 -96q147 -139 147 -449h-661q0 -444 272 -444q225 0 260 217q0 29 21 29h81q16 0 17 -25q-14 -168 -129 -252q-96 -72 -248 -72q-197 0 -305 152q-105 145 -105 399zM244 635h520q0 166 -90 258q-70 74 -154 74 q-92 0 -164 -68q-92 -88 -112 -264zM264 1403q0 12 8 27q16 27 47 26q16 0 33 -8l385 -227q27 -23 27 -52q0 -14 -8 -26q-14 -27 -43 -27q-16 0 -33 8l-385 228q-31 22 -31 51z" />
<glyph unicode="&#xe9;" horiz-adv-x="1001" d="M102 528q0 272 144 422q115 119 262 119q143 0 244 -96q147 -139 147 -449h-661q0 -444 272 -444q225 0 260 217q0 29 21 29h81q16 0 17 -25q-14 -168 -129 -252q-96 -72 -248 -72q-197 0 -305 152q-105 145 -105 399zM244 635h520q0 166 -90 258q-70 74 -154 74 q-92 0 -164 -68q-92 -88 -112 -264zM246 1169q0 29 26 52l385 227q16 8 33 8q31 0 47 -26q8 -14 8 -27q0 -29 -30 -51l-385 -228q-16 -8 -33 -8q-29 0 -43 27q-8 12 -8 26z" />
<glyph unicode="&#xea;" horiz-adv-x="1001" d="M102 528q0 272 144 422q115 119 262 119q143 0 244 -96q147 -139 147 -449h-661q0 -444 272 -444q225 0 260 217q0 29 21 29h81q16 0 17 -25q-14 -168 -129 -252q-96 -72 -248 -72q-197 0 -305 152q-105 145 -105 399zM150 1157q0 8 10 17l346 274q8 8 16 8q6 0 15 -8 l346 -274q12 -6 12 -17q0 -6 -6 -14l-25 -45q-8 -16 -16 -17q-4 0 -14 9l-312 247l-313 -247l-14 -7q-8 0 -17 15l-24 45zM244 635h520q0 166 -90 258q-70 74 -154 74q-92 0 -164 -68q-92 -88 -112 -264z" />
<glyph unicode="&#xec;" horiz-adv-x="1001" d="M20 991q0 49 58 56h305v-945h154q57 -2 57 -51q0 -47 -57 -51h-437q-57 6 -57 51q0 49 57 51h154v840h-178q-56 4 -56 49zM55 1425q0 12 8 27q16 27 48 27q16 0 32 -9l248 -141q27 -23 27 -51q0 -14 -8 -27q-14 -27 -43 -26q-16 0 -33 8l-248 141q-31 22 -31 51z" />
<glyph unicode="&#xed;" horiz-adv-x="1001" d="M20 991q0 49 58 56h305v-945h154q57 -2 57 -51q0 -47 -57 -51h-437q-57 6 -57 51q0 49 57 51h154v840h-178q-56 4 -56 49zM92 1278q0 29 27 51l248 141q16 8 32 9q31 0 47 -27q8 -14 9 -27q0 -29 -31 -51l-248 -141q-16 -8 -33 -8q-29 0 -43 26q-8 13 -8 27z" />
<glyph unicode="&#xee;" horiz-adv-x="1001" />
<glyph unicode="&#xf2;" horiz-adv-x="1077" d="M104 528q0 272 154 422q123 119 283 119t282 -119q150 -150 150 -422q0 -285 -135 -430q-115 -121 -297 -121t-299 121q-138 145 -138 430zM248 526q0 -258 112 -370q74 -76 177 -76q125 0 198 94q92 117 92 354q0 227 -106 346q-80 92 -182 93q-111 0 -189 -90 q-102 -115 -102 -351zM272 1403q0 12 9 27q16 27 47 26q16 0 32 -8l385 -227q27 -23 27 -52q0 -14 -8 -26q-14 -27 -43 -27q-16 0 -33 8l-385 228q-31 22 -31 51z" />
<glyph unicode="&#xf3;" horiz-adv-x="1077" d="M104 528q0 272 154 422q123 119 283 119t282 -119q150 -150 150 -422q0 -285 -135 -430q-115 -121 -297 -121t-299 121q-138 145 -138 430zM246 1169q0 29 26 52l385 227q16 8 33 8q31 0 47 -26q8 -14 8 -27q0 -29 -30 -51l-385 -228q-16 -8 -33 -8q-29 0 -43 27 q-8 12 -8 26zM248 526q0 -258 112 -370q74 -76 177 -76q125 0 198 94q92 117 92 354q0 227 -106 346q-80 92 -182 93q-111 0 -189 -90q-102 -115 -102 -351z" />
<glyph unicode="&#xf4;" horiz-adv-x="1077" d="M104 528q0 272 154 422q123 119 283 119t282 -119q150 -150 150 -422q0 -285 -135 -430q-115 -121 -297 -121t-299 121q-138 145 -138 430zM184 1157q0 8 11 17l346 274q8 8 16 8q6 0 14 -8l347 -274q12 -6 12 -17q0 -6 -6 -14l-25 -45q-8 -16 -16 -17q-4 0 -15 9 l-311 247l-313 -247q-12 -6 -15 -7q-8 0 -16 15l-25 45zM248 526q0 -258 112 -370q74 -76 177 -76q125 0 198 94q92 117 92 354q0 227 -106 346q-80 92 -182 93q-111 0 -189 -90q-102 -115 -102 -351z" />
<glyph unicode="&#xf6;" horiz-adv-x="1077" d="M104 528q0 272 158 422q125 119 279 119q156 0 278 -119q154 -150 154 -422q0 -285 -135 -430q-115 -121 -297 -121t-299 121q-138 145 -138 430zM246 526q0 -256 112 -370q76 -76 179 -76q125 0 200 94q92 117 92 354q0 227 -106 346q-82 92 -184 93q-111 0 -189 -90 q-104 -115 -104 -351zM252 1292q0 37 25.5 63.5t64.5 26.5q37 0 62.5 -26.5t25.5 -63.5t-25.5 -63.5t-62.5 -26.5q-39 0 -64.5 26.5t-25.5 63.5zM639 1292q0 37 26.5 63.5t63.5 26.5t62.5 -26.5t25.5 -63.5t-25.5 -63.5t-62.5 -26.5t-63.5 26.5t-26.5 63.5z" />
<glyph unicode="&#xf9;" horiz-adv-x="1218" d="M4 993q0 47 59 54h293v-641q0 -123 19 -181q43 -125 170 -125q195 0 250 201q18 66 18 223v418h-164q-57 4 -57 51t59 54h291l2 -945h176q57 -4 58 -51q0 -49 -58 -51h-307v141q-94 -162 -287 -161q-188 0 -262 172q-39 90 -39 190v600h-162q-59 4 -59 51zM264 1403 q0 12 8 27q16 27 47 26q16 0 33 -8l385 -227q27 -23 27 -52q0 -14 -8 -26q-14 -27 -43 -27q-16 0 -33 8l-385 228q-31 22 -31 51z" />
<glyph unicode="&#xfa;" horiz-adv-x="1218" d="M4 993q0 47 59 54h293v-641q0 -123 19 -181q43 -125 170 -125q195 0 250 201q18 66 18 223v418h-164q-57 4 -57 51t59 54h291l2 -945h176q57 -4 58 -51q0 -49 -58 -51h-307v141q-94 -162 -287 -161q-188 0 -262 172q-39 90 -39 190v600h-162q-59 4 -59 51zM246 1169 q0 29 26 52l385 227q16 8 33 8q31 0 47 -26q8 -14 8 -27q0 -29 -30 -51l-385 -228q-16 -8 -33 -8q-29 0 -43 27q-8 12 -8 26z" />
<glyph unicode="&#xfb;" horiz-adv-x="1218" d="M4 993q0 47 59 54h293v-641q0 -123 19 -181q43 -125 170 -125q195 0 250 201q18 66 18 223v418h-164q-57 4 -57 51t59 54h291l2 -945h176q57 -4 58 -51q0 -49 -58 -51h-307v141q-94 -162 -287 -161q-188 0 -262 172q-39 90 -39 190v600h-162q-59 4 -59 51zM150 1157 q0 8 10 17l346 274q8 8 16 8q6 0 15 -8l346 -274q12 -6 12 -17q0 -6 -6 -14l-25 -45q-8 -16 -16 -17q-4 0 -14 9l-312 247l-313 -247l-14 -7q-8 0 -17 15l-24 45z" />
<glyph unicode="&#xfc;" horiz-adv-x="1210" d="M4 993q0 47 59 54h293v-641q0 -127 17 -181q41 -125 168 -125q266 0 266 357v45l-2 22v418h-164q-57 4 -57 51t59 54h291l2 -945h176q57 -4 57 -51q0 -49 -57 -51h-307v141q-92 -162 -285 -161q-186 0 -260 174q-35 88 -35 192v596h-162q-59 4 -59 51zM276 1292 q0 37 26 63.5t65 26.5q37 0 62.5 -26.5t25.5 -63.5t-26 -63.5t-62 -26.5q-39 0 -65 26.5t-26 63.5zM664 1292q0 37 26.5 63.5t63.5 26.5t62.5 -26.5t25.5 -63.5t-25.5 -63.5t-62.5 -26.5t-63.5 26.5t-26.5 63.5z" />
<glyph unicode="&#xfd;" horiz-adv-x="1210" d="M538 1245q0 29 27 52l385 227q16 8 33 8q33 0 47 -26q8 -14 8 -27q0 -29 -31 -51l-385 -228q-16 -8 -33 -8q-29 0 -43 27q-8 12 -8 26zM538 1245q0 29 27 52l385 227q16 8 33 8q33 0 47 -26q8 -14 8 -27q0 -29 -31 -51l-385 -228q-16 -8 -33 -8q-29 0 -43 27q-8 12 -8 26 zM25 993q0 47 57 51h364q59 -4 60 -51q0 -49 -60 -51h-120l274 -768l270 768h-106q-55 2 -55 51q0 47 55 51h366q59 -4 60 -51q0 -49 -60 -51h-124l-426 -1198q-31 -100 -101 -166q-76 -70 -180 -70q-125 0 -221 64q-23 14 -10 35l32 57q6 12 17 12q8 0 22 -8 q76 -45 174 -45q106 0 152 150l70 227l-347 942h-106q-57 2 -57 51z" />
<glyph unicode="&#x152;" horiz-adv-x="2332" d="M1311 57q0 55 55 56h154v1276h-152q-57 0 -57 53q0 59 57 59h899v-264q-8 -57 -55 -57q-49 0 -57 55v151l-500 3v-560h295v99q10 55 57 55t54 -57v-283q-8 -57 -56 -57q-47 0 -55 57v78h-295v-608h531v151q23 57 59 58q47 0 55 -58v-264h-932q-23 0 -40 17t-17 40z M61 748q0 352 160 568t412 216q238 0 393 -184q178 -211 178 -600q0 -354 -154.5 -565.5t-416.5 -211.5q-266 0 -419 210.5t-153 566.5zM211 758q0 -326 135 -510q117 -158 285 -158q172 0 289 158q133 182 133 510q0 326 -133 502q-113 152 -287 151q-174 0 -289 -151 q-133 -176 -133 -502z" />
<glyph unicode="&#x153;" horiz-adv-x="2078" d="M1179 528q0 272 144 422q115 119 262 119q143 0 244 -96q147 -139 147 -449h-661q0 -444 272 -444q225 0 260 217q0 29 21 29h81q16 0 17 -25q-14 -168 -129 -252q-96 -72 -248 -72q-197 0 -305 152q-105 145 -105 399zM1321 635h520q0 166 -90 258q-70 74 -154 74 q-92 0 -164 -68q-92 -88 -112 -264zM104 528q0 272 154 422q123 119 283 119t282 -119q150 -150 150 -422q0 -285 -135 -430q-115 -121 -297 -121t-299 121q-138 145 -138 430zM248 526q0 -258 112 -370q74 -76 177 -76q125 0 198 94q92 117 92 354q0 227 -106 346 q-80 92 -182 93q-111 0 -189 -90q-102 -115 -102 -351z" />
<glyph unicode="&#x2c6;" horiz-adv-x="1001" d="M150 1157q0 8 10 17l346 274q8 8 16 8q6 0 15 -8l346 -274q12 -6 12 -17q0 -6 -6 -14l-25 -45q-8 -16 -16 -17q-4 0 -14 9l-312 247l-313 -247l-14 -7q-8 0 -17 15l-24 45zM508 1069zM508 1069z" />
<glyph unicode="&#x2000;" horiz-adv-x="1013" />
<glyph unicode="&#x2001;" horiz-adv-x="2029" />
<glyph unicode="&#x2002;" horiz-adv-x="1013" />
<glyph unicode="&#x2003;" horiz-adv-x="2029" />
<glyph unicode="&#x2004;" horiz-adv-x="675" />
<glyph unicode="&#x2005;" horiz-adv-x="505" />
<glyph unicode="&#x2006;" horiz-adv-x="337" />
<glyph unicode="&#x2007;" horiz-adv-x="337" />
<glyph unicode="&#x2008;" horiz-adv-x="251" />
<glyph unicode="&#x2009;" horiz-adv-x="405" />
<glyph unicode="&#x200a;" horiz-adv-x="112" />
<glyph unicode="&#x2010;" horiz-adv-x="817" d="M82 578q0 49 57 57h539q57 -8 57 -57q0 -47 -57 -58h-539q-57 11 -57 58z" />
<glyph unicode="&#x2011;" horiz-adv-x="817" d="M82 578q0 49 57 57h539q57 -8 57 -57q0 -47 -57 -58h-539q-57 11 -57 58z" />
<glyph unicode="&#x2012;" horiz-adv-x="817" d="M82 578q0 49 57 57h539q57 -8 57 -57q0 -47 -57 -58h-539q-57 11 -57 58z" />
<glyph unicode="&#x2013;" d="M29 578q0 49 57 57h852q57 -8 57 -57q0 -47 -57 -58h-852q-57 11 -57 58z" />
<glyph unicode="&#x2014;" horiz-adv-x="2048" d="M133 578q0 49 57 57h1655q57 -8 58 -57q0 -47 -58 -58h-1655q-57 11 -57 58z" />
<glyph unicode="&#x2018;" horiz-adv-x="1001" d="M264 1403q0 12 8 27q16 27 47 26q16 0 33 -8l385 -227q27 -23 27 -52q0 -14 -8 -26q-14 -27 -43 -27q-16 0 -33 8l-385 228q-31 22 -31 51zM264 1403q0 12 8 27q16 27 47 26q16 0 33 -8l385 -227q27 -23 27 -52q0 -14 -8 -26q-14 -27 -43 -27q-16 0 -33 8l-385 228 q-31 22 -31 51z" />
<glyph unicode="&#x2022;" horiz-adv-x="747" d="M154 571q0 92 65.5 157t155.5 65q92 0 155.5 -64.5t63.5 -157.5q0 -92 -63.5 -156.5t-155.5 -64.5q-90 0 -155.5 64.5t-65.5 156.5z" />
<glyph unicode="&#x2026;" horiz-adv-x="2084" d="M205 115q0 51 35.5 87t87.5 36q51 0 87 -36t36 -87t-36 -87t-87 -36t-87 36t-36 87zM920 115q0 51 35.5 87t86.5 36t87 -36t36 -87t-35.5 -87t-87.5 -36q-51 0 -86.5 36t-35.5 87zM1634 115q0 51 37 87t86 36q51 0 87 -36t36 -87t-36 -87t-87 -36q-49 0 -86 36t-37 87z " />
<glyph unicode="&#x202f;" horiz-adv-x="405" />
<glyph unicode="&#x2039;" horiz-adv-x="591" d="M61 584q0 10 11 20l344 432q12 14 20 15l19 -7l55 -30q18 -10 18 -21q0 -2 -8 -18l-309 -391l309 -389q10 -12 10 -19q0 -8 -20 -20l-55 -31q-10 -6 -19 -6q-12 0 -20 14l-344 432q-11 11 -11 19z" />
<glyph unicode="&#x203a;" horiz-adv-x="591" d="M61 176q0 6 11 19l309 389l-309 391l-9 18q0 10 19 21l55 30l19 7q8 0 20 -15l344 -432q10 -10 10 -20q0 -8 -10 -19l-344 -432q-8 -14 -20 -14q-8 0 -19 6l-55 31q-21 12 -21 20z" />
<glyph unicode="&#x205f;" horiz-adv-x="505" />
<glyph unicode="&#x2122;" horiz-adv-x="2879" d="M1180 51q0 47 55 51h154l61 1297h-151q-57 4 -58 49q0 49 58 53h282h62q25 -4 31 -26l338 -1151l331 1151q6 23 31 26h61h283q57 -4 57 -53q0 -45 -57 -49h-149l57 -1297h151q55 -4 56 -51q0 -47 -58 -51h-436q-57 4 -57 51t57 51h152l-56 1229l-352 -1196 q-20 -51 -63 -51q-57 0 -68 47l-371 1202l-59 -1231h152q57 -4 57 -51t-57 -51h-437q-57 4 -57 51zM20 1237v264h1094v-264q-6 -57 -55 -57q-47 0 -58 55v154l-364 2v-1289h172q57 -4 57 -51t-57 -51h-481q-57 4 -58 51q0 47 56 51h170v1289l-363 -2v-154q-10 -55 -57 -55 q-48 0 -56 57z" />
<glyph unicode="&#xe000;" horiz-adv-x="1045" d="M0 1045h1045v-1045h-1045v1045z" />
<glyph unicode="&#xfb01;" horiz-adv-x="1425" d="M811 991q0 49 58 56h305v-945h154q57 -2 57 -51q0 -47 -57 -51h-437q-57 6 -57 51q0 49 57 51h154v840h-178q-56 4 -56 49zM1014 1399q0 39 28 67.5t68 28.5q39 0 67 -28.5t28 -67.5t-28 -67.5t-67 -28.5q-41 0 -68.5 28.5t-27.5 67.5zM37 51q0 47 57 51h137v840h-118 q-55 6 -56 51q0 49 58 54h116v110q0 379 312 379q127 0 227 -68q14 -10 14 -21q0 -6 -4 -13l-26 -39q-12 -16 -35 -4l-64 28q-53 18 -127 19q-80 0 -127 -70q-37 -55 -36 -115v-206h221q55 -4 55 -54q0 -47 -55 -51h-221v-840h141q57 -4 57 -51t-57 -51h-412q-57 4 -57 51z " />
<glyph unicode="&#xfb02;" horiz-adv-x="1425" d="M822 1446q0 49 57 55h305v-1390h154q57 -6 57 -56q0 -47 -57 -55h-436q-57 8 -58 55q0 49 58 56h153v1280h-178q-55 8 -55 55zM37 51q0 47 57 51h137v840h-118q-55 6 -56 51q0 49 58 54h116v110q0 379 312 379q127 0 227 -68q14 -10 14 -21q0 -6 -4 -13l-26 -39 q-12 -16 -35 -4l-64 28q-53 18 -127 19q-80 0 -127 -70q-37 -55 -36 -115v-206h221q55 -4 55 -54q0 -47 -55 -51h-221v-840h141q57 -4 57 -51t-57 -51h-412q-57 4 -57 51z" />
<glyph unicode="&#xfb03;" horiz-adv-x="2215" d="M1601 991q0 49 58 56h305v-945h154q57 -2 57 -51q0 -47 -57 -51h-437q-57 6 -57 51q0 49 57 51h154v840h-178q-56 4 -56 49zM1804 1399q0 39 28 67.5t68 28.5q39 0 67 -28.5t28 -67.5t-28 -67.5t-67 -28.5q-41 0 -68.5 28.5t-27.5 67.5zM828 51q0 47 57 51h137v840h-118 q-55 6 -56 51q0 49 58 54h116v110q0 379 312 379q127 0 227 -68q14 -10 14 -21q0 -6 -4 -13l-26 -39q-12 -16 -35 -4l-64 28q-53 18 -127 19q-80 0 -127 -70q-37 -55 -36 -115v-206h221q55 -4 55 -54q0 -47 -55 -51h-221v-840h141q57 -4 57 -51t-57 -51h-412q-57 4 -57 51z M37 51q0 47 57 51h137v840h-118q-55 6 -56 51q0 49 58 54h116v110q0 379 312 379q127 0 227 -68q14 -10 14 -21q0 -6 -4 -13l-26 -39q-12 -16 -35 -4l-64 28q-53 18 -127 19q-80 0 -127 -70q-37 -55 -36 -115v-206h221q55 -4 55 -54q0 -47 -55 -51h-221v-840h141 q57 -4 57 -51t-57 -51h-412q-57 4 -57 51z" />
<glyph unicode="&#xfb04;" horiz-adv-x="2215" d="M1612 1446q0 49 57 55h305v-1390h154q57 -6 57 -56q0 -47 -57 -55h-436q-57 8 -58 55q0 49 58 56h153v1280h-178q-55 8 -55 55zM828 51q0 47 57 51h137v840h-118q-55 6 -56 51q0 49 58 54h116v110q0 379 312 379q127 0 227 -68q14 -10 14 -21q0 -6 -4 -13l-26 -39 q-12 -16 -35 -4l-64 28q-53 18 -127 19q-80 0 -127 -70q-37 -55 -36 -115v-206h221q55 -4 55 -54q0 -47 -55 -51h-221v-840h141q57 -4 57 -51t-57 -51h-412q-57 4 -57 51zM37 51q0 47 57 51h137v840h-118q-55 6 -56 51q0 49 58 54h116v110q0 379 312 379q127 0 227 -68 q14 -10 14 -21q0 -6 -4 -13l-26 -39q-12 -16 -35 -4l-64 28q-53 18 -127 19q-80 0 -127 -70q-37 -55 -36 -115v-206h221q55 -4 55 -54q0 -47 -55 -51h-221v-840h141q57 -4 57 -51t-57 -51h-412q-57 4 -57 51z" />
</font>
</defs>
</svg>
