<?xml version="1.0" standalone="no"?>
<!DOCTYPE svg PUBLIC "-//W3C//DTD SVG 1.1//EN" "http://www.w3.org/Graphics/SVG/1.1/DTD/svg11.dtd" >
<svg xmlns="http://www.w3.org/2000/svg">
<metadata>
This is a custom SVG webfont generated by Font Squirrel.
Copyright   : Designed by Bo Linnemann  Kontrapunkt AS The font may be used and distributed freely  NOT FOR RESALE wwwkontrapunktcom
</metadata>
<defs>
<font id="webfontpmmgCv1U" horiz-adv-x="1333" >
<font-face units-per-em="2048" ascent="1638" descent="-410" />
<missing-glyph horiz-adv-x="456" />
<glyph unicode=" "  horiz-adv-x="456" />
<glyph unicode="&#x09;" horiz-adv-x="456" />
<glyph unicode="&#xa0;" horiz-adv-x="456" />
<glyph unicode="!" horiz-adv-x="524" d="M178 0l23 186h172l-23 -186h-172zM250 381l102 981h154l-139 -981h-117z" />
<glyph unicode="&#x22;" horiz-adv-x="636" d="M211 817l49 545h137l-86 -545h-100zM526 817l49 545h136l-86 -545h-99z" />
<glyph unicode="#" horiz-adv-x="1447" d="M246 428l30 109h232l82 292h-232l29 109h231l121 424h117l-119 -424h289l121 424h119l-121 -424h229l-31 -109h-229l-84 -292h232l-29 -109h-232l-120 -428h-119l123 428h-291l-121 -428h-115l121 428h-233zM623 537h290l84 292h-290z" />
<glyph unicode="$" d="M193 35l30 119q250 -47 467 -48q201 0 284 54.5t101 206.5q6 45 7 76.5t-6 58t-14 44t-29.5 31t-42 20.5t-61.5 12t-77 7t-98 7q-252 12 -328 36q-137 45 -152 193q-6 57 5 133q29 211 124 293q111 98 392 100l26 228h129l-26 -230q172 -8 342 -43l-29 -112 q-211 39 -418 39q-121 0 -195.5 -15.5t-116.5 -53.5t-58.5 -84t-26.5 -124q-18 -139 65 -178q47 -20 232 -33q14 -2 26 -2q240 -16 283 -25q156 -31 191 -151q20 -72 6 -188q-29 -227 -128.5 -318.5t-344.5 -99.5l-29 -232h-129l29 230q-100 2 -208 14t-165 25z" />
<glyph unicode="%" horiz-adv-x="1804" d="M246 1026q25 211 91 278.5t255 67.5q197 0 243 -67.5t19 -278.5t-90.5 -278.5t-256 -67.5t-240.5 68.5t-21 277.5zM358 1026q-20 -158 7.5 -202t154.5 -44t164 43t57 203q18 160 -6 204t-155 44q-123 0 -163.5 -44t-58.5 -204zM375 0l1102 1362h131l-1108 -1362h-125z M1118 338q27 213 93.5 279.5t254.5 66.5q195 0 241 -67.5t19 -278.5q-25 -211 -88 -278.5t-255.5 -67.5t-241 68.5t-23.5 277.5zM1231 338q-18 -158 9.5 -202t154.5 -44t163.5 43t55.5 203q16 98 9 153.5t-42 75t-127 19.5q-123 0 -163 -44t-60 -204z" />
<glyph unicode="&#x26;" horiz-adv-x="1355" d="M193 375q8 53 20 99t20 67l9 18l227 119q18 8 20 24q2 14 -14 25l-180 109q-8 76 4 178q25 205 136.5 284.5t320.5 79.5q92 0 182 -11t135 -21l45 -11l-31 -108q-164 35 -311 35q-164 0 -239.5 -48.5t-94 -200t46 -208.5t224.5 -57h336l24 204h137l-24 -204h180l-14 -115 h-181l-75 -613q-244 -35 -428 -34q-131 0 -213 12t-154 51t-97 119t-11 207zM338 369q-8 -76 5 -127.5t36.5 -79t78 -40.5t97.5 -16.5t123 -3.5q61 0 135 4.5t117 8.5l41 6l63 512h-350q-170 0 -248 -52t-98 -212z" />
<glyph unicode="'" horiz-adv-x="323" d="M211 817l49 545h137l-86 -545h-100z" />
<glyph unicode="(" horiz-adv-x="589" d="M172 -248q-16 86 2 248l98 799q23 184 31 223q33 195 105.5 271.5t218.5 76.5q14 0 26 -2l-14 -113q-90 0 -131 -32q-53 -41 -72 -166q-25 -154 -45 -334l-61 -492q-4 -31 -17.5 -149.5t-19.5 -183.5q-10 -115 21.5 -157t131.5 -44l-12 -111h-26q-106 0 -161 39t-75 127z " />
<glyph unicode=")" horiz-adv-x="589" d="M55 -414l13 111q92 2 133 33q49 35 69 168q33 217 47 333l62 492q16 131 35 334q10 115 -22 155.5t-132 42.5l14 113q10 2 25 2q111 0 164 -39t72 -129q16 -86 -3 -246l-98 -798q-23 -182 -28 -226q-33 -195 -106 -270.5t-220 -75.5h-25z" />
<glyph unicode="*" horiz-adv-x="854" d="M227 1071l45 100l240 -100l37 291h92l-37 -291l264 100l21 -100l-268 -102l124 -240l-81 -59l-123 248l-197 -248l-63 59l186 240z" />
<glyph unicode="+" d="M313 616l17 129h364l51 406h127l-51 -406h365l-17 -129h-364l-49 -407h-127l49 407h-365z" />
<glyph unicode="," horiz-adv-x="417" d="M51 -276l142 276h-95l23 186h219l-23 -186l-141 -276h-125z" />
<glyph unicode="-" horiz-adv-x="577" d="M150 430l16 133h385l-16 -133h-385z" />
<glyph unicode="." horiz-adv-x="407" d="M100 0l23 186h207l-23 -186h-207z" />
<glyph unicode="/" horiz-adv-x="841" d="M-117 -408l936 1772h123l-936 -1772h-123z" />
<glyph unicode="0" d="M180 432q6 94 25 248q18 156 38.5 257t54.5 185t76 129t109.5 76t149.5 41t203 10q188 0 288.5 -31.5t150.5 -110.5t46 -214t-27 -342q-18 -156 -35.5 -249t-48 -180t-69.5 -131t-106.5 -78t-153.5 -45t-213 -11t-211 11t-143.5 45t-89 78t-40 131t-4.5 181zM322.5 307 q7.5 -74 27 -106.5t64.5 -59t105.5 -33t160.5 -6.5q76 0 129 4.5t99 19.5t76 30.5t55.5 53.5t40 72.5t28.5 103.5t23.5 129t21.5 165q16 137 22.5 217t0 153.5t-26 108.5t-64.5 62.5t-105 35t-159 7.5q-92 0 -151.5 -7.5t-111.5 -32t-82 -61.5t-55.5 -107.5t-42 -155.5 t-32.5 -220q-16 -139 -23.5 -219t0 -154z" />
<glyph unicode="1" d="M330 0l14 115h295l139 1136h-334l15 113h473l-154 -1249h279l-15 -115h-712z" />
<glyph unicode="2" d="M172 0l29 229q14 106 39.5 175t81 115t100.5 68.5t145 59.5l318 121q129 49 179 96t62 150q16 143 -45 195.5t-262 52.5q-109 0 -224.5 -12.5t-176.5 -24.5l-64 -15l-8 115q219 53 494 53q256 0 355 -74.5t75 -273.5q-6 -49 -15.5 -88t-26.5 -72l-31 -56q-13 -24 -45 -47 l-50 -37q-18 -13 -65.5 -32.5t-71.5 -28.5l-88 -33l-97 -36l-82 -31l-139 -53q-41 -16 -92 -45t-70.5 -56.5t-36 -70.5t-24.5 -106l-14 -117h856l-15 -121h-991z" />
<glyph unicode="3" d="M199 29l30 112q199 -37 406 -37q199 0 303 57.5t125 221.5q18 141 -30 207.5t-185 66.5l-211 -8l-45 150l500 377q27 20 26 43q0 27 -43 26h-745l14 119h905l-24 -209l-449 -336q-18 -10 -18 -28q-2 -16 7 -23.5t30 -5.5q4 0 34.5 2t49.5 2q188 4 268 -90t57 -279 q-12 -102 -51 -178t-91 -120t-128 -70.5t-150.5 -34.5t-171.5 -8q-102 0 -205.5 10t-156.5 20z" />
<glyph unicode="4" d="M121 315l33 269l723 780h182l-754 -791q-43 -47 -47 -77q-2 -31 17.5 -47.5t54.5 -16.5h602l61 502h137l-61 -502h234l-15 -117h-233l-37 -315h-137l37 315h-797z" />
<glyph unicode="5" d="M199 31l30 112q211 -41 416 -41q219 0 308 70t114 266q12 109 -2 176.5t-61.5 102.5t-108.5 46t-164 11q-88 0 -183 -18.5t-147 -36.5l-51 -19l-82 39l78 625h897l-14 -119h-772l-54 -420q-4 -41 29 -41q14 0 37 15l123 78q88 16 174 16q131 0 214 -17.5t145.5 -65.5 t81 -138t1.5 -232q-31 -262 -160.5 -358t-398.5 -96q-113 0 -225.5 11t-169.5 23z" />
<glyph unicode="6" d="M200 358q1 41 2 67t5 71t6 63l7 66q5 47 7 55q0 2 7.5 62.5t10.5 76t11 72.5t15.5 81.5t18.5 73t23.5 76t29.5 61.5t38 58q66 78 174.5 106.5t302.5 28.5q104 0 210 -12t157 -25l53 -12l-33 -110q-195 45 -399 45q-139 0 -222 -21.5t-128 -77.5q-12 -14 -23.5 -32.5 t-20.5 -43.5l-17 -43q-7 -18 -13 -49.5t-10 -47t-9.5 -52.5t-6.5 -45l-6 -46t-5 -40q-4 -39 29 -39q12 0 41 16l123 78q129 25 215 25t147 -4t116.5 -16.5t87.5 -33t59.5 -53t33.5 -78t11 -106.5t-9 -139q-16 -137 -55 -222.5t-111 -130.5t-159 -60t-226 -15 q-197 0 -298 28.5t-146 106.5q-12 23 -21.5 48.5t-13.5 58t-7 61t-2 69.5zM348 261q14 -85 90 -122t244 -37q92 0 142 3.5t104.5 19.5t83 50t51 92.5t33.5 148.5q6 55 7 98t-7.5 76t-18.5 55.5t-34.5 37.5t-47 24.5t-63.5 13.5t-76 5t-92 1q-88 0 -186.5 -15.5t-151.5 -29.5 l-53 -14q-8 -55 -23 -185q-16 -137 -2 -222z" />
<glyph unicode="7" d="M274 1243l15 121h1018l-9 -111q-12 -145 -44.5 -231t-86 -143.5t-176.5 -155.5q-119 -94 -177 -152.5t-103 -147.5t-60 -212l-26 -211h-144l27 211q25 205 101.5 321.5t267.5 268.5q154 121 202.5 189.5t59.5 178.5l6 74h-871z" />
<glyph unicode="8" d="M193 369q12 111 81 206l191 101q23 12 24 29q2 20 -26 32q-109 47 -146.5 121t-21.5 197q12 98 53 163.5t116 99.5t161 47t211 13q254 0 369.5 -66.5t92.5 -256.5q-14 -117 -84 -207l-190 -100q-20 -12 -23 -29q-4 -20 27 -33q231 -100 201 -348q-25 -197 -150 -274.5 t-415 -77.5q-268 0 -384 78t-87 305zM334 369q-18 -164 54.5 -215.5t293.5 -51.5q252 0 334 74q59 53 76 186q8 74 -26 129.5t-107.5 93.5t-150.5 61.5t-187 45.5q-74 -23 -136 -69q-133 -107 -151 -254zM434 1055q-16 -125 83 -198t360 -124q68 20 129 68q133 106 151 254 q14 117 -61.5 162t-274 45t-286 -46t-101.5 -161z" />
<glyph unicode="9" d="M221 35l33 110q195 -45 399 -45q139 0 223.5 21.5t129.5 77.5q12 14 23 33.5t19.5 43l15.5 42t13 50t10.5 47t9.5 51.5t6 46t6 47t5 39q4 39 -27 39q-12 0 -40 -16l-123 -78q-131 -25 -217 -25t-147.5 4t-117 16.5t-87 33t-59.5 53t-34 78t-11 106.5t9 139q16 137 55 222 t111 130.5t160 60.5t227 15q195 0 296 -28.5t146 -106.5q74 -125 21 -532q-2 -18 -4 -29q-35 -301 -80 -424q-31 -84 -74 -135q-63 -78 -171.5 -106.5t-305.5 -28.5q-104 0 -209.5 12t-157.5 25zM396 848q-1 -43 7.5 -76t18.5 -55.5t34.5 -37.5t47 -24.5t63.5 -13.5t76 -5 t92 -1q90 0 187.5 14.5t150.5 30.5l53 14q8 55 23 185q18 137 4 222t-90 122t-244 37q-115 0 -174 -6.5t-116.5 -37t-84 -94t-41.5 -176.5q-6 -55 -7 -98z" />
<glyph unicode=":" horiz-adv-x="407" d="M100 0l23 186h207l-23 -186h-207zM178 627l23 186h207l-25 -186h-205z" />
<glyph unicode=";" horiz-adv-x="417" d="M51 -276l142 276h-95l23 186h219l-23 -186l-141 -276h-125zM182 627l23 186h207l-23 -186h-207z" />
<glyph unicode="&#x3c;" d="M313 621l15 120l909 410l-16 -137l-764 -334l682 -334l-17 -137z" />
<glyph unicode="=" d="M293 444l16 129h856l-16 -129h-856zM336 786l14 129h856l-14 -129h-856z" />
<glyph unicode="&#x3e;" d="M264 209l17 137l763 334l-682 334l17 137l807 -410l-15 -123z" />
<glyph unicode="?" horiz-adv-x="1060" d="M264 1223v108q176 47 414 47q225 0 318.5 -73.5t66.5 -288.5q-10 -82 -17.5 -120t-24.5 -90t-46 -80t-78 -56.5t-123 -53.5q-129 -41 -167 -69.5t-48 -112.5l-4 -39h-139l4 39q14 125 67.5 176.5t223.5 110.5q137 49 167.5 92t51.5 203q10 86 -1 136t-53 74.5t-90.5 31 t-140.5 6.5q-90 0 -185 -10.5t-145 -20.5zM350 0l23 186h172l-23 -186h-172z" />
<glyph unicode="@" horiz-adv-x="1452" d="M185.5 320.5q-13.5 142.5 17.5 361.5q29 233 75 368.5t132 213.5q59 53 158.5 80.5t163 30.5t176 3t175 -3t155.5 -30.5t140 -80.5q66 -76 76 -219.5t-20 -362.5q-10 -86 -21.5 -138t-39 -125t-81 -110t-129.5 -37q-59 0 -94 16.5t-43 36t-19.5 36t-27.5 16.5 q-20 0 -45 -25l-72 -65q-59 -12 -117 -13q-186 0 -236 90.5t-24 309.5q29 229 108 313t286 84q55 0 123.5 -5t111.5 -11l41 -6l-65 -531q-14 -51 -6 -107.5t67 -56.5q111 0 149 328q29 209 22 322.5t-58 175.5q-12 14 -27.5 26.5t-30 20.5t-37.5 15l-35 11q-13 4 -41 8.5 t-39.5 5.5t-42 2t-38.5 1h-41h-37h-37h-41q-8 0 -40 -1t-43 -2t-39.5 -5.5t-43.5 -8.5l-39 -11q-25 -7 -41 -15t-34.5 -20.5t-34.5 -26.5q-68 -61 -105 -172t-63 -326q-27 -211 -17.5 -323.5t64.5 -174.5q35 -41 95.5 -62.5t106.5 -24.5t122 -3q84 0 177 4t144 8l51 7 l-4 -105q-166 -23 -362 -22q-100 0 -166 5t-150 31.5t-129 77.5q-67 78 -80.5 220.5zM612 510q0 -68 44 -103.5t141 -35.5q37 0 63.5 5t44 20.5t27.5 26.5t17 42t10.5 45t7.5 55l49 406q-59 8 -123 8q-154 0 -202 -67.5t-68 -237.5q-11 -96 -11 -164z" />
<glyph unicode="A" horiz-adv-x="1482" d="M0 0l12 94l74 19q37 10 59 47l578 1048q23 41 -16 47l-74 15l12 94h397l336 -1204q8 -37 45 -47l72 -19l-12 -94h-355l11 94l63 12q35 6 37 27q2 6 -4 31l-74 250h-741l-135 -250q-12 -25 -13 -31q-2 -14 5.5 -18t25.5 -9l59 -12l-12 -94h-350zM477 524h653l-184 690 q-4 20 -8 28.5t-12 15t-23 6.5q-20 0 -29.5 -9.5t-21.5 -31.5q-2 -6 -4 -9z" />
<glyph unicode="B" horiz-adv-x="1409" d="M131 0l12 94l76 15q29 4 33 36l131 1074q4 33 -25 36l-71 15l12 94h780q188 0 262 -85q56 -65 57 -195q0 -40 -5 -85q-6 -45 -15.5 -87t-17.5 -60l-6 -18l-209 -109q-18 -8 -21 -25q-2 -14 15 -24l200 -119q2 -6 4.5 -20.5t5.5 -61.5q1 -11 0 -22q0 -37 -8 -78 q-23 -195 -121 -285t-286 -90h-803zM387 119h467q170 0 248 51t96 207q5 37 5 68q0 99 -50 138q-66 50 -235 50h-467zM465 748h450q162 0 239 50t95 199q4 35 5 65q0 98 -48 135q-61 48 -225 48h-455z" />
<glyph unicode="C" horiz-adv-x="1273" d="M191 312q-4 44 -4 97q0 115 20 273q29 238 75 374t126 208q123 115 456 114q211 0 471 -55l-35 -119q-268 47 -438 47q-266 0 -354 -77q-61 -55 -97 -169t-61 -325q-20 -154 -20 -256q0 -35 3 -65q9 -114 58 -171q41 -47 122 -64.5t220 -17.5q92 0 201.5 11.5t173.5 21.5 l63 13l7 -113q-242 -53 -476 -53q-174 0 -278.5 25.5t-157.5 88.5q-62 74 -75 212z" />
<glyph unicode="D" horiz-adv-x="1509" d="M131 0l12 94l76 15q29 4 33 36l131 1074q4 33 -25 36l-71 15l12 94h705q186 0 295.5 -48t148.5 -136t43 -214q1 -18 1 -37q0 -112 -22 -245q-12 -100 -24 -169t-33.5 -147.5t-51.5 -129t-77 -99.5t-108.5 -76.5t-146.5 -45t-193 -17.5h-705zM387 119h453q68 0 125 9 t99 21.5t77 40t58.5 50t44 67.5t30.5 76t21.5 91.5t16.5 96.5l15 111q8 63 12 99t9 90q3 36 2 62v22q-2 30 -7.5 73t-18.5 66l-32 51q-18 29 -46.5 44t-66.5 29.5t-88.5 20.5t-111.5 6h-453z" />
<glyph unicode="E" horiz-adv-x="1224" d="M131 0l12 94l76 15q29 4 33 36l131 1074q4 33 -25 36l-71 15l12 94h993l-14 -119h-752l-61 -487h733l-14 -117h-733l-64 -522h752l-15 -119h-993z" />
<glyph unicode="F" horiz-adv-x="1128" d="M131 0l12 94l76 15q29 4 33 36l131 1074q4 33 -25 36l-71 15l12 94h950l-14 -119h-709l-61 -497h690l-14 -119h-690l-60 -484q-4 -33 25 -36l71 -15l-12 -94h-344z" />
<glyph unicode="G" horiz-adv-x="1390" d="M185 418q3 106 22 262q29 229 70.5 362.5t124.5 210t189.5 100t289.5 23.5q115 0 237.5 -15t188.5 -30l67 -16l-33 -117q-256 53 -483 53q-96 0 -155.5 -6t-117 -27.5t-90 -58.5t-62.5 -102.5t-48 -154.5t-35 -222q-16 -135 -20 -224q-1 -21 -1 -41q0 -64 10 -115 q13 -67 36.5 -102.5t77 -57t113 -28t157.5 -6.5q115 0 218 12.5t149 24.5l45 15l67 551h139l-86 -709h-118l-4 72q0 33 -31 32q-14 0 -43 -16l-135 -82q-90 -20 -209 -20q-125 0 -206 9t-149.5 36.5t-103.5 74t-54 125.5q-17 69 -17 158v29z" />
<glyph unicode="H" horiz-adv-x="1595" d="M131 0l12 94l76 15q29 4 33 36l131 1074q4 33 -25 36l-71 15l12 94h344l-12 -94l-76 -15q-29 -4 -33 -36l-57 -467h850l57 467q4 33 -24 36l-72 15l12 94h344l-12 -94l-76 -15q-29 -4 -33 -36l-131 -1074q-4 -33 25 -36l72 -15l-13 -94h-344l13 94l75 15q29 4 33 36 l59 492h-849l-60 -492q-4 -33 25 -36l71 -15l-12 -94h-344z" />
<glyph unicode="I" horiz-adv-x="606" d="M131 0l12 94l76 15q29 4 33 36l131 1074q4 33 -25 36l-71 15l12 94h344l-12 -94l-76 -15q-29 -4 -33 -36l-131 -1074q-4 -33 25 -36l71 -15l-12 -94h-344z" />
<glyph unicode="J" horiz-adv-x="851" d="M37 6l26 107q117 -16 236 -17q127 0 169 45t58 181l111 897q4 33 -25 36l-71 15l12 94h344l-12 -94l-76 -15q-29 -4 -33 -36l-112 -914q-23 -195 -111 -259t-264 -64q-63 0 -126 6t-93 12z" />
<glyph unicode="K" horiz-adv-x="1376" d="M131 0l12 94l74 15q31 4 35 36l131 1074q4 33 -25 36l-71 15l12 94h344l-12 -94l-76 -15q-29 -4 -33 -36l-51 -418q-4 -41 6 -56q16 -18 51 -18q39 0 95 47l518 430q16 12 18 27q2 20 -26 29l-43 10l12 94h379l-13 -94l-77 -17q-41 -8 -80 -39l-633 -528l516 -522 q29 -29 42 -36t48 -17l64 -17l-13 -94h-399l10 94l39 8q43 8 47 33q2 16 -14 33l-418 424q-49 49 -82 49q-35 0 -55 -20q-16 -16 -21 -56l-51 -420q-4 -33 23 -36l73 -15l-12 -94h-344z" />
<glyph unicode="L" horiz-adv-x="1089" d="M131 0l12 94l76 15q29 4 33 36l131 1074q4 33 -25 36l-71 15l12 94h344l-12 -94l-76 -15q-29 -4 -33 -36l-135 -1098h680l-14 -121h-922z" />
<glyph unicode="M" horiz-adv-x="1857" d="M131 0l12 94l76 15q29 4 33 36l131 1074q4 33 -25 36l-71 15l12 94h393l287 -762q4 -16 16.5 -16t22.5 14l473 764h403l-12 -94l-76 -15q-29 -4 -32 -36l-132 -1074q-4 -33 25 -36l72 -15l-13 -94h-344l13 94l75 15q29 4 33 36l129 1061q4 29 -3 42.5t-34 13.5 q-25 0 -51 -39l-475 -762h-180l-289 762q-14 35 -41 39q-45 0 -51 -56l-129 -1061q-4 -33 24 -36l72 -15l-12 -94h-332z" />
<glyph unicode="N" horiz-adv-x="1652" d="M131 0l12 94l76 15q29 4 33 36l131 1074q4 33 -25 36l-71 15l12 94h406l514 -1212q14 -37 43 -37q27 0 36 13t13 42l129 1049q4 33 -25 36l-72 15l13 94h334l-13 -94l-75 -15q-29 -4 -33 -36l-150 -1219h-299l-516 1223q-16 39 -43 39q-45 0 -51 -56l-129 -1061 q-4 -33 25 -36l71 -15l-12 -94h-334z" />
<glyph unicode="O" horiz-adv-x="1378" d="M182 432q6 94 25 248q20 160 39.5 262t53.5 186t75 128t113.5 74t156.5 39t215 9q133 0 220 -10t148.5 -45t91.5 -78t40 -131q6 -55 6 -112q0 -34 -2 -70q-6 -94 -25 -252q-18 -156 -35.5 -251t-49 -182t-72.5 -130t-111 -77t-159 -44t-222 -10t-220 11t-149.5 45t-92 78 t-41.5 131q-7 56 -7 116q0 32 2 65zM328 462q-3 -36 -3 -72q0 -41 4 -81q7 -74 27.5 -107.5t68.5 -59t111.5 -33t168.5 -7.5q106 0 172.5 6.5t120 35t81 59t52 108.5t36 152t29.5 217q29 184 29 303q0 33 -2 61q-10 129 -88 173.5t-289 44.5q-102 0 -165 -6.5t-118 -30 t-84.5 -57t-55.5 -105.5t-41 -157t-32 -226q-16 -139 -22 -218z" />
<glyph unicode="P" horiz-adv-x="1376" d="M131 0l12 94l76 15q29 4 33 36l131 1074q4 33 -25 36l-71 15l12 94h756q341 0 341 -322q0 -41 -5 -88q-8 -68 -16.5 -112.5t-37 -118.5t-71.5 -119t-125 -80t-191 -35h-131l-217 9l-90 67q-20 16 -37 17q-20 0 -26.5 -9.5t-10.5 -29.5l-47 -398q-4 -33 23 -36l71 -15 l-10 -94h-344zM451 631q115 -25 387 -25q111 0 168 7.5t113.5 39t84 98t41.5 183.5q6 47 6 85q0 115 -50 163q-67 63 -234 63h-441z" />
<glyph unicode="Q" horiz-adv-x="1454" d="M184 446q6 94 25 248q14 119 28.5 203t36 158.5t44 121t60.5 85t79 59t104.5 35t132 18.5t166.5 4q100 0 172 -5t130.5 -21.5t95 -38t62.5 -63.5t36 -87t11 -121v-21q0 -65 -5 -132q-6 -78 -21 -195q-33 -246 -79 -370l-144 -127q-31 -27 -31 -46q0 -33 60 -36h12 l277 -15l-13 -100h-686h-45q-133 0 -220 11.5t-149.5 45t-92 77.5t-41.5 131q-7 56 -7 116q0 32 2 65zM330 475q-3 -37 -3 -72q0 -41 4 -81q7 -74 27.5 -108t68.5 -60.5t111.5 -33.5t168.5 -7q80 0 135 4t103 18.5t78 29.5t56.5 53t42 73t29.5 103.5t23.5 130t21.5 167.5 q28 227 28 336q0 40 -3 64q-18 111 -123 145q-78 25 -252 25q-104 0 -164.5 -4.5t-118 -27t-84 -55t-54.5 -103.5t-42 -154.5t-31 -225.5q-16 -137 -22 -217z" />
<glyph unicode="R" horiz-adv-x="1439" d="M131 0l12 94l76 15q29 4 33 36l131 1074q4 33 -25 36l-71 15l12 94h733q225 0 307 -84q62 -63 62 -196q0 -43 -6 -93q-18 -166 -113 -260q-45 -41 -115 -72q-57 -20 -129 -30q-29 -4 -39 -11q-18 -8 -20 -34q-2 -14 12 -43l209 -381q18 -33 64 -45q6 0 10 -2l76 -19 l-13 -94h-221l-250 457l23 170h-438l-60 -482q-4 -33 25 -36l71 -15l-12 -94h-344zM465 743h446q201 0 267 64q59 53 75 186q4 37 5 67q0 84 -33 122q-55 63 -252 63h-447z" />
<glyph unicode="S" horiz-adv-x="1261" d="M158 35l30 119q250 -47 465 -48q203 0 286 54.5t101 206.5q6 45 7.5 76.5t-6 58t-14.5 44t-29.5 31t-42 20.5t-61.5 12t-77 7t-98 7q-252 12 -328 36q-137 45 -151 193q-2 22 -3 46q0 40 7 87q25 207 125 293q63 55 160.5 77.5t263.5 22.5q213 0 438 -45l-29 -112 q-211 39 -418 39q-121 0 -195.5 -15.5t-116.5 -53.5t-58.5 -84t-26.5 -124q-3 -25 -3 -47q0 -99 69 -131q45 -20 231 -33q14 -2 27 -2q238 -16 278 -25q156 -31 193 -147q14 -45 13 -107q0 -39 -5 -85q-29 -242 -142.5 -331t-406.5 -89q-109 0 -229.5 12t-186.5 25z" />
<glyph unicode="T" horiz-adv-x="1179" d="M164 1243l14 121h1159l-14 -121h-510l-135 -1098q-4 -33 24 -36l72 -15l-12 -94h-344l12 94l76 15q29 4 33 36l135 1098h-510z" />
<glyph unicode="U" horiz-adv-x="1568" d="M295 1270l12 94h344l-12 -94l-76 -15q-29 -4 -33 -36l-90 -744q-10 -79 -9 -140q0 -119 37 -163q56 -68 288 -68q115 0 230.5 13.5t172.5 27.5l60 15l129 1059q4 33 -25 36l-72 15l13 94h344l-13 -94l-75 -15q-29 -4 -33 -36l-131 -1074q-4 -33 24 -36l72 -15l-12 -94 h-221l-5 72q0 33 -28 32q-18 0 -43 -14l-139 -84q-133 -20 -275 -20q-299 0 -383 97q-58 68 -58 227q0 70 11 157l92 752q4 33 -24 36z" />
<glyph unicode="V" horiz-adv-x="1443" d="M199 1270l12 94h348l-12 -94l-64 -15q-35 -8 -28 -43l229 -1038q6 -35 17.5 -49t40 -14t42 14t31.5 49l475 1040q14 33 -18 41l-62 15l13 94h346l-13 -94l-61 -17q-43 -10 -59 -49l-576 -1204h-274l-279 1204q-6 25 -15 34t-34 15z" />
<glyph unicode="W" horiz-adv-x="2318" d="M209 1270l12 94h350l-12 -94l-63 -15q-33 -8 -29 -43l145 -1038q4 -33 16.5 -48t41.5 -15q49 0 73 63l457 1190h258l172 -1190q4 -33 16.5 -48t41.5 -15q49 0 73 63l391 1040q14 33 -20 41l-57 15l10 94h348l-10 -94l-64 -17q-45 -10 -59 -49l-477 -1204h-307l-168 1233 q-4 37 -35 37t-41 -37l-473 -1233h-299l-183 1204q-4 39 -49 49z" />
<glyph unicode="X" horiz-adv-x="1376" d="M51 0l12 94l68 17q33 8 53 32l439 576l-277 502q-14 27 -45 32l-63 17l12 94h348l-12 -94l-70 -19q-27 -6 -14 -32l213 -388q12 -25 18 -34t19.5 -16t35.5 -7q33 0 48.5 11.5t42.5 45.5l307 388q20 25 -6 32l-66 19l10 94h342l-10 -94l-70 -17q-31 -6 -51 -32l-405 -502 l299 -576q12 -27 43 -32l65 -17l-12 -94h-352l12 94l68 19q27 6 16 32l-221 457q-10 23 -17.5 33t-20.5 17t-36 7q-33 0 -49 -12t-41 -45l-338 -444q-12 -14 -12 -25q-2 -14 20 -22l58 -17l-13 -94h-348z" />
<glyph unicode="Y" horiz-adv-x="1269" d="M205 1270l12 94h344l-12 -94l-76 -15q-29 -4 -33 -36l-45 -375q-6 -50 -6 -91q0 -109 44 -148q60 -54 288 -54q80 0 182.5 21.5t138.5 33.5l76 613q4 33 -24 36l-72 15l12 94h344l-12 -94l-76 -15q-29 -4 -33 -36l-100 -822q-12 -94 -24.5 -147t-45 -111.5t-87 -87 t-148.5 -47t-231 -18.5q-104 0 -203 9t-144 17l-47 11l31 110q150 -31 379 -31q127 0 199.5 14.5t110.5 58.5t49.5 85t21.5 135l14 113q4 43 -31 43q-12 0 -36 -16l-140 -89q-102 -14 -196 -14q-250 0 -326 89q-56 66 -56 206q0 49 7 107l47 385q4 33 -25 36z" />
<glyph unicode="Z" horiz-adv-x="1277" d="M121 0l31 244l946 897q33 33 33 62q0 42 -60 42h-805l15 119h999l-33 -264l-940 -875q-27 -27 -28 -51q-4 -18 9 -34.5t50 -16.5h821l-14 -123h-1024z" />
<glyph unicode="[" horiz-adv-x="561" d="M117 -408l217 1770h299l-15 -102h-176l-190 -1567h176l-12 -101h-299z" />
<glyph unicode="\" horiz-adv-x="841" d="M236 1362h122l502 -1770h-123z" />
<glyph unicode="]" horiz-adv-x="561" d="M47 -408l12 101h179l190 1567h-178l14 102h301l-217 -1770h-301z" />
<glyph unicode="^" horiz-adv-x="1097" d="M186 750l439 614h184l289 -614h-160l-238 507l-356 -507h-158z" />
<glyph unicode="_" horiz-adv-x="1019" d="M-33 -266l17 129h1020l-17 -129h-1020z" />
<glyph unicode="`" horiz-adv-x="501" d="M250 1249l78 99l219 -205l-51 -74z" />
<glyph unicode="a" horiz-adv-x="1099" d="M154 219q-3 39 -3 84q0 78 9 172q14 117 37.5 196t70.5 150.5t130 107.5t202 36q90 0 202.5 -12.5t180.5 -24.5l68 -13l-97 -786q-2 -12 -1 -20.5t6.5 -11.5t17.5 -5l53 -10l-10 -82h-201l-2 51q-6 33 -31 33q-10 0 -43 -18l-104 -66q-90 -14 -176 -14q-150 0 -225.5 62 t-83.5 171zM295 475q-11 -89 -11 -155q0 -106 28 -153q46 -77 223 -77q63 0 135.5 10.5t113.5 20.5l41 10l86 705q-147 25 -280 24q-176 0 -241.5 -77t-94.5 -308z" />
<glyph unicode="b" horiz-adv-x="1077" d="M143 37l148 1198q2 20 -2 27.5t-23 9.5l-51 10l8 82h211l-55 -449q-4 -43 31 -43q14 0 39 15l100 63q82 14 180 15q213 0 273 -116q40 -77 41 -214q0 -70 -11 -156q-35 -289 -138 -391t-374 -102q-221 0 -377 51zM283 119q113 -29 274 -29q182 0 246.5 74t93.5 315 q11 89 11 155q0 106 -28 151q-46 75 -223 75q-63 0 -134.5 -10t-112.5 -21l-41 -10z" />
<glyph unicode="c" horiz-adv-x="952" d="M160 475q37 295 141.5 392.5t351.5 97.5q80 0 162 -10.5t125 -20.5l43 -10l-27 -97q-145 33 -294 33q-199 0 -267.5 -70.5t-97.5 -314.5q-12 -91 -12 -158q0 -112 32 -156q51 -71 248 -71q68 0 143.5 8t118.5 17l41 8l4 -96q-160 -41 -340 -41q-248 0 -328 97 q-56 67 -56 227q0 73 12 165z" />
<glyph unicode="d" horiz-adv-x="1083" d="M155 219q-3 39 -4 83q0 78 11 173q14 117 36.5 197t69.5 150.5t130 106.5t202 36q193 0 324 -33l37 303q2 20 -2.5 27.5t-22.5 9.5l-51 10l10 82h211l-152 -1235q-2 -12 -1 -20.5t6.5 -11.5t17.5 -5l53 -10l-10 -82h-199l-2 51q-6 33 -31 33q-10 0 -43 -18l-106 -66 q-80 -14 -176 -14q-147 0 -223 62t-85 171zM295 475q-11 -90 -11 -156q0 -106 28 -152q46 -75 223 -75q63 0 135.5 10.5t113.5 20.5l41 10l86 703q-147 25 -280 24q-176 0 -241.5 -77t-94.5 -308z" />
<glyph unicode="e" horiz-adv-x="1079" d="M150 312q-2 19 -2 40q0 56 12 123q27 211 90 322q51 94 149.5 131t268.5 37q279 0 344 -97q42 -61 42 -185q0 -58 -10 -130q-6 -49 -18 -111q-279 -16 -317 -16l-283 8l-57 43q-20 14 -35 15q-39 0 -43 -64q-9 -61 -9 -110q0 -102 37 -150q59 -76 256 -76q84 0 169 8.5 t128 16.5l46 8l6 -98q-139 -41 -351 -41q-74 0 -125 4t-103 17t-83 36t-60.5 58.5t-37.5 87.5t-14 123zM307 545q61 -10 137 -14.5t121 -4.5h47q42 -1 82 -1q118 0 211 10q11 84 12 137q0 45 -9 79q-9 38 -24.5 59t-49 33.5t-70.5 15.5t-98 3q-57 0 -99.5 -2t-77 -11 t-57 -17.5t-41 -30t-30 -39t-21.5 -57t-16.5 -70.5t-16.5 -90z" />
<glyph unicode="f" horiz-adv-x="636" d="M129 0l10 80l54 10q31 6 34 37l88 725h-180l12 100h181l16 129q12 96 37 157.5t86 102.5q68 43 215 43l154 -14l-21 -94q-66 8 -127 8q-123 0 -160 -35q-39 -37 -55 -170l-16 -127h301l-13 -100h-301l-88 -723q-2 -12 -1 -20.5t6.5 -11.5t17.5 -5l53 -10l-10 -82h-293z " />
<glyph unicode="g" horiz-adv-x="1099" d="M162 479q31 254 121 370t301 116l174 -13l90 -65q23 -18 41 -19q25 0 35 33l14 51h199l-11 -80l-53 -10q-31 -6 -35 -37l-100 -817q-23 -193 -68 -284t-135 -127.5t-270 -36.5q-74 0 -145.5 7t-106.5 15l-35 6l27 101q115 -27 272 -27q104 0 163.5 12.5t94.5 52.5 t47.5 89t24.5 151l6 56q-197 -37 -303 -37q-143 0 -223 37.5t-113 119.5q-24 59 -24 165q0 74 12 171zM297 479q-12 -97 -12 -166q0 -105 27 -149q46 -74 229 -74q66 0 136.5 6t108.5 15l37 6l86 702q-137 41 -278 41q-176 0 -240.5 -75t-93.5 -306z" />
<glyph unicode="h" horiz-adv-x="1136" d="M80 0l10 80l53 10q31 6 35 37l135 1108q2 20 -2 27.5t-22 9.5l-51 10l10 82h211l-56 -446q-6 -43 29 -44q18 0 39 15l100 63q109 12 166 13q213 0 277 -71q45 -50 44 -167q0 -49 -7 -111l-60 -487q-2 -12 -1 -20.5t6 -11.5t18 -5l53 -10l-10 -82h-293l10 80l53 10 q31 6 35 37l56 463q8 60 7 105q0 84 -27 116q-42 49 -210 49q-63 0 -137 -8t-117 -16l-41 -11l-86 -696q-2 -12 -1 -20.5t6 -11.5t18 -5l53 -10l-10 -82h-293z" />
<glyph unicode="i" horiz-adv-x="483" d="M100 0l11 80l53 10q31 6 35 37l84 696q2 12 1 20.5t-6.5 11.5t-17.5 5l-53 10l10 82h211l-100 -823q-2 -12 -1 -20.5t6 -11.5t17 -5l53 -10l-10 -82h-293zM291 1208l20 156h162l-20 -156h-162z" />
<glyph unicode="j" horiz-adv-x="468" d="M-127 -391l21 96q53 -6 83 -6q106 0 137 21.5t42 105.5l120 997q2 12 1 20.5t-6 11.5t-17 5l-53 10l10 82h211l-143 -1169q-20 -186 -259 -186zM285 1208l20 156h162l-21 -156h-161z" />
<glyph unicode="k" horiz-adv-x="1015" d="M80 0l10 80l53 10q31 6 35 37l135 1108q2 20 -2 27.5t-22 9.5l-51 10l10 82h211l-94 -768q-1 -6 -1 -11q0 -44 46 -44q31 0 71 37l428 374h152l-10 -82l-78 -12q-20 -6 -35 -16l-375 -326l311 -391q16 -20 44 -27l67 -16l-10 -82h-178l-332 442q-29 37 -62 37 q-53 0 -59 -53l-37 -297q-2 -12 -1 -20.5t6 -11.5t18 -5l53 -10l-10 -82h-293z" />
<glyph unicode="l" horiz-adv-x="462" d="M80 0l10 80l53 10q31 6 35 37l135 1108q2 20 -2 27.5t-22 9.5l-51 10l10 82h211l-152 -1235q-2 -12 -1 -20.5t6 -11.5t18 -5l53 -10l-10 -82h-293z" />
<glyph unicode="m" horiz-adv-x="1796" d="M100 0l11 80l53 10q31 6 35 37l84 696q2 12 1 20.5t-6.5 11.5t-17.5 5l-53 10l10 82h191l2 -51q0 -33 28 -33q12 0 45 19l105 65q92 12 149 13q98 0 159.5 -13.5t78 -25t41.5 -35.5q27 -18 35 -18.5t34 14.5l113 61q76 16 199 17q213 0 276 -71q45 -50 45 -167 q0 -49 -8 -111l-59 -489q-6 -33 22 -37l53 -10l-10 -82h-293l11 82l53 10q20 2 25.5 9t9.5 28l55 463q8 60 8 105q0 84 -27 116q-42 49 -210 49q-86 0 -310 -31q21 -60 21 -118q0 -21 -2 -41l-66 -541q-2 -12 -1 -20.5t6 -11.5t18 -5l53 -10l-10 -82h-293l10 80l53 10 q31 6 35 37l56 463q8 60 7 105q0 84 -27 116q-42 49 -210 49q-63 0 -132 -8t-105 -16l-37 -9l-86 -698q-2 -12 -1 -20.5t6 -11.5t17 -5l53 -10l-10 -82h-293z" />
<glyph unicode="n" horiz-adv-x="1157" d="M100 0l11 80l53 10q31 6 35 37l84 696q2 12 1 20.5t-6.5 11.5t-17.5 5l-53 10l10 82h189l2 -51q6 -33 28 -33q12 0 45 19l107 65q113 12 170 13q213 0 276 -71q45 -50 45 -167q0 -49 -8 -111l-59 -489q-6 -33 22 -37l53 -10l-10 -82h-293l11 82l53 10q20 2 25.5 9t9.5 28 l55 463q8 60 8 105q0 84 -27 116q-42 49 -210 49q-63 0 -137 -8t-117 -16l-41 -11l-86 -696q-2 -12 -1 -20.5t6 -11.5t17 -5l53 -10l-10 -82h-293z" />
<glyph unicode="o" horiz-adv-x="1069" d="M144 269q-1 17 -1 36q0 74 17 170q20 160 45.5 248t83 146.5t139.5 77t225 18.5q272 0 341 -93q44 -59 44 -204q0 -83 -14 -193q-37 -305 -128 -397t-364 -92q-115 0 -184 12t-119.5 44t-65 87t-19.5 140zM281 326q-2 -22 -2 -43q0 -31 4 -61q6 -48 20 -70.5t48 -39 t77 -20.5t117 -4q109 0 163 10.5t94 55.5t55 112.5t32 208.5q12 94 16 150q2 22 2 43q0 31 -4 60q-6 48 -20.5 70.5t-48 39t-76.5 20.5t-117 4q-109 0 -163 -10t-94 -55t-55.5 -113t-31.5 -209q-12 -94 -16 -149z" />
<glyph unicode="p" horiz-adv-x="1099" d="M31 -408l8 80l55 11q18 4 24.5 11t8.5 25l135 1104q2 12 1 20.5t-6 11.5t-17 5l-54 10l11 82h198l2 -51q0 -33 29 -33q16 0 43 19l106 65q94 12 179 13q211 0 272 -117q41 -78 41 -216q0 -69 -10 -153q-29 -231 -96 -336q-98 -158 -373 -157q-102 0 -295 37l-37 -302 q-2 -20 3 -26t22 -10l51 -11l-8 -82h-293zM305 117q127 -27 275 -27q182 0 246.5 74t95.5 315q11 89 11 155q0 106 -29 151q-46 75 -222 75q-63 0 -136 -10t-114 -21l-41 -10z" />
<glyph unicode="q" horiz-adv-x="1075" d="M154 219q-3 39 -3 84q0 78 9 172q14 117 37.5 196t70.5 150.5t130 107.5t202 36q90 0 202.5 -12.5t180.5 -24.5l68 -13l-148 -1194q-2 -20 3 -26t22 -10l51 -11l-8 -82h-211l55 453q4 41 -31 41q-14 0 -39 -14l-112 -74q-84 -12 -170 -12q-150 0 -225.5 62t-83.5 171z M295 475q-11 -89 -11 -155q0 -106 28 -153q46 -77 223 -77q63 0 135.5 10.5t113.5 20.5l41 10l86 705q-147 25 -280 24q-176 0 -241.5 -77t-94.5 -308z" />
<glyph unicode="r" horiz-adv-x="751" d="M100 0l11 80l53 10q31 6 35 37l84 696q2 12 1 20.5t-6.5 11.5t-17.5 5l-53 10l10 82h189l2 -51q6 -33 28 -33q12 0 45 19l107 65q113 12 170 13q80 0 129 -9l-23 -122q-74 10 -157 10q-76 0 -150 -5t-111 -12l-34 -4l-84 -694q-2 -12 -1 -20.5t6 -11.5t17 -5l53 -10 l-10 -82h-293z" />
<glyph unicode="s" horiz-adv-x="1040" d="M123 25l27 104q168 -35 372 -35q201 0 264 62q39 35 48 106q3 24 3 44q0 47 -18 69q-41 47 -274 49q-190 6 -246 27q-108 40 -108 181q0 27 4 58q20 154 114 214.5t307 60.5q80 0 168 -9.5t138 -17.5l47 -8l-27 -101q-184 29 -324 29q-168 0 -227 -37t-69 -119 q-3 -28 -4 -49q0 -47 16 -65q12 -14 30.5 -23.5t53.5 -13.5t56.5 -5t75.5 -2t75 -1q195 -6 258 -41q83 -48 83 -179q0 -27 -3 -57q-20 -154 -120 -217t-337 -63q-92 0 -187.5 10t-146.5 20z" />
<glyph unicode="t" horiz-adv-x="692" d="M117 852l12 100h180l31 254h129l-31 -254h273l-13 -100h-272l-74 -604q-4 -31 -4 -56q0 -53 19 -73q29 -29 131 -29l106 10l2 -90q-104 -18 -170 -18q-141 0 -186 49q-30 33 -30 132q0 50 7 116l70 563h-180z" />
<glyph unicode="u" horiz-adv-x="1140" d="M197 870l10 82h211l-72 -590q-8 -60 -8 -105q0 -84 28 -117q42 -50 209 -50q63 0 134 10.5t110 18.5l39 10l84 694q2 12 1 20.5t-6 11.5t-17 5l-54 10l11 82h210l-100 -823q-2 -12 -1 -20.5t6 -11.5t18 -5l53 -10l-10 -82h-191l-2 51q0 33 -29 33q-16 0 -43 -18l-106 -66 q-98 -14 -156 -14q-211 0 -274 71q-46 52 -46 174q0 47 7 105l59 487q2 12 1 20.5t-6 11.5t-17 5z" />
<glyph unicode="v" horiz-adv-x="1044" d="M127 872l10 80h301l-10 -80l-53 -12q-37 -8 -29 -41l137 -657q6 -29 9.5 -40t12.5 -21.5t27 -10.5q27 0 40.5 15.5t31.5 56.5l287 657q18 33 -14 41l-54 10l11 82h307l-11 -80l-49 -12q-23 -6 -32 -12t-17 -25l-377 -823h-266l-176 823q-6 29 -37 37z" />
<glyph unicode="w" horiz-adv-x="1595" d="M133 872l10 80h306l-11 -80l-53 -12q-33 -8 -29 -41l62 -657q6 -72 49 -72q27 0 42 17.5t30 54.5l264 770h219l84 -770q6 -72 53 -72q45 0 68 72l213 657q14 33 -15 41l-53 10l10 82h304l-11 -80l-49 -12q-39 -10 -49 -37l-303 -823h-270l-95 842q-4 12 -12 12 q-6 0 -14 -12l-295 -842h-262l-107 823q-2 27 -37 37z" />
<glyph unicode="x" horiz-adv-x="1036" d="M41 0l10 80l55 12q23 6 48 37l284 367l-190 327q-18 31 -39 37l-49 12l10 80h303l-10 -80l-49 -12q-32 -4 -32 -26q0 -9 5 -21l137 -254q25 -43 54 -43q27 0 55 39l203 258q27 37 -11 47l-51 12l10 80h299l-10 -80l-53 -12q-25 -4 -41 -26q-6 -6 -8 -11l-260 -327 l204 -367q18 -31 39 -37l52 -12l-11 -80h-311l10 80l51 12q29 4 31 25q0 14 -6 26l-152 285q-18 33 -46.5 33t-55.5 -33l-219 -285q-12 -18 -12 -26q-2 -20 22 -25l49 -12l-10 -80h-305z" />
<glyph unicode="y" horiz-adv-x="1107" d="M170 -379l27 100q115 -27 272 -26q104 0 163.5 12t94.5 52t47 89.5t25 151.5l4 37q8 43 -29 43q-14 0 -39 -17l-102 -65q-59 -12 -117 -12q-211 0 -274 71q-46 52 -46 174q0 47 7 105l59 487q2 12 1 20.5t-6 11.5t-17 5l-54 10l11 82h292l-10 -80l-53 -10q-31 -8 -35 -37 l-55 -463q-8 -60 -8 -105q0 -84 27 -117q42 -50 210 -50q63 0 126 10.5t91 20.5l31 10l84 692q2 12 1 20.5t-6 11.5t-18 5l-53 10l10 82h293l-10 -80l-53 -10q-31 -8 -35 -37l-96 -784q-23 -193 -68 -284t-135 -128t-270 -37q-74 0 -145.5 7.5t-106.5 15.5z" />
<glyph unicode="z" horiz-adv-x="929" d="M96 0l27 221l668 561q23 20 20 43q0 27 -37 27h-588l13 100h735l-29 -235l-665 -549q-16 -12 -21 -31q-4 -35 39 -35h602l-12 -102h-752z" />
<glyph unicode="{" horiz-adv-x="602" d="M158 420l14 112q59 18 89 60.5t40 128.5l41 336q20 150 64 219q59 86 186 86h82l-15 -111q-80 0 -122 -28q-53 -37 -72 -170l-41 -340q-12 -98 -44 -150.5t-99 -87.5q59 -35 77.5 -86t6.5 -149l-41 -342q-14 -117 24 -162q31 -35 109 -35h12l-12 -109h-82 q-59 0 -104.5 23t-59.5 61q-31 66 -10 220l41 337q10 82 -8.5 124.5t-75.5 62.5z" />
<glyph unicode="|" horiz-adv-x="464" d="M129 -340l209 1702h125l-209 -1702h-125z" />
<glyph unicode="}" horiz-adv-x="602" d="M47 -408l12 109q80 0 123 29q59 43 74 170l41 342q12 96 44 148t97 87q-57 33 -75.5 86t-6.5 152l41 340q14 119 -22 162q-31 35 -111 34h-14l14 111h82q57 0 102.5 -23.5t61.5 -62.5q29 -66 10 -219l-41 -336q-10 -84 8.5 -126t75.5 -63l-14 -112q-61 -20 -90 -61.5 t-39 -125.5l-41 -337q-18 -145 -64 -220q-25 -39 -76 -61.5t-110 -22.5h-82z" />
<glyph unicode="~" horiz-adv-x="1155" d="M242 1247q78 127 147.5 179.5t159.5 52.5q74 0 217 -72q135 -68 195 -68q57 0 102 31t102 113l80 -51q-70 -111 -135 -160q-86 -66 -178 -66q-82 0 -168 45l-113 56q-78 39 -129 39q-55 0 -102 -36t-103 -118z" />
<glyph unicode="&#xa1;" horiz-adv-x="524" d="M184 0l140 981h116l-100 -981h-156zM322 1176l24 186h172l-24 -186h-172z" />
<glyph unicode="&#xa2;" d="M342 475q33 281 128 381t312 109l21 163h110l-20 -165q68 -2 135.5 -12.5t101.5 -18.5l33 -8l-26 -97q-143 33 -295 33q-199 0 -267.5 -70.5t-97.5 -314.5q-31 -244 20.5 -314.5t247.5 -70.5q68 0 144 8t119 17l41 8l6 -96q-129 -33 -283 -39l-20 -170h-111l21 168 q-213 8 -284 108t-36 381z" />
<glyph unicode="&#xa3;" d="M172 0l12 106q78 20 109 79t51 218l16 134h-153l14 120h154l43 349q8 68 15 103.5t31.5 84.5t67.5 86q113 98 361 98q102 0 206.5 -11t157.5 -24l52 -10l-29 -110q-174 39 -342 39q-227 0 -309 -70q-10 -8 -18.5 -17.5t-14.5 -19.5l-10 -17q-4 -7 -8.5 -21.5t-6.5 -19.5 t-4 -21.5t-3 -19.5t-3 -23.5t-2 -22.5l-43 -353h426l-14 -120h-428l-23 -189q-10 -90 -35.5 -140t-93.5 -102l858 11l-14 -117h-1020z" />
<glyph unicode="&#xa4;" d="M125 481l14 117h154q2 27 10 84q2 33 10 84h-153l14 117h160q55 279 168 383q125 113 459 112q211 0 471 -55l-35 -119q-268 47 -439 47q-266 0 -354 -77q-86 -76 -127 -291h590l-14 -117h-596q-8 -51 -11 -86q-8 -59 -10 -82h596l-14 -117h-590q-8 -213 59 -293 q41 -47 122 -64.5t220 -17.5q92 0 202 11.5t173 21.5l64 13l6 -113q-242 -53 -475 -53q-174 0 -278.5 25.5t-158.5 88.5q-90 104 -77 381h-160z" />
<glyph unicode="&#xa5;" d="M322 1282l10 82h309l-10 -80l-60 -10q-18 -2 -25 -16.5t-3 -28.5l176 -481q12 -33 37 -33q23 0 43 33l295 481q10 12 6 27.5t-23 17.5l-57 8l10 82h307l-10 -80l-55 -10q-16 -4 -29 -25q-2 -6 -4 -8l-203 -315h191l-15 -113h-245l-129 -201h258l-15 -112h-297l-45 -371 q-2 -20 2 -27.5t23 -9.5l51 -10l-10 -82h-285l10 82l54 10q20 2 25 9.5t9 27.5l46 371h-297l14 112h258l-76 201h-239l14 113h182l-121 315q0 2 -2 6q-6 23 -22 25z" />
<glyph unicode="&#xa6;" horiz-adv-x="464" d="M123 -340l80 653h139l-80 -653h-139zM248 684l84 678h139l-84 -678h-139z" />
<glyph unicode="&#xa7;" d="M252 -352l27 104q184 -37 344 -37q156 0 208 25q78 33 93 160q8 63 6 95t-21 54q-41 45 -219 113q-39 16 -97 37.5t-101 39t-89 40.5q-82 37 -100 103.5t2 152.5q23 201 221 247q-111 43 -131 103.5t-4 195.5q20 162 118.5 229.5t330.5 67.5q80 0 168 -9t137 -19l49 -11 l-31 -108q-186 39 -344 39q-51 0 -80.5 -2t-70.5 -11.5t-65.5 -28t-45 -54t-27.5 -87.5q-14 -119 15 -151q35 -39 219 -111q225 -90 287 -118q82 -37 97 -93.5t3 -162.5q-25 -193 -215 -246l29 -17q84 -49 101 -118.5t-3 -163.5q-12 -106 -52 -168t-135.5 -95.5 t-261.5 -33.5q-88 0 -178 9t-137 20zM442 479q0 -33 18.5 -60.5t61.5 -43.5l289 -115q90 0 125 21q55 33 72 151q4 47 4 80t-18.5 57.5t-61.5 40.5l-289 115q-90 0 -125 -20q-57 -35 -72 -150q-4 -43 -4 -76z" />
<glyph unicode="&#xa8;" horiz-adv-x="714" d="M233 1116l19 150h160l-19 -150h-160zM596 1116l18 150h160l-18 -150h-160z" />
<glyph unicode="&#xa9;" horiz-adv-x="1632" d="M179 421.5q3 102.5 23.5 262.5t41 262.5t60.5 186.5t89 128t136 73.5t191.5 38.5t264.5 9t261.5 -9t182 -38.5t118.5 -73.5t57.5 -128t16.5 -186.5t-24 -262.5q-20 -162 -41.5 -263.5t-61.5 -185t-89 -128t-136 -74t-190.5 -38.5t-265.5 -9q-160 0 -261 9t-181 38.5 t-119 74t-57.5 128t-15.5 186zM262 438q-4 -94 14.5 -168.5t49 -111.5t105.5 -61.5t160 -30t232.5 -5.5t233.5 5.5t167 30t120.5 61.5t76.5 111.5t56.5 168.5t38 246t22.5 246t-14.5 169t-50 111.5t-105.5 61t-159 30t-232.5 5.5t-233.5 -5.5t-166.5 -30t-121.5 -61 t-78 -111.5t-55.5 -169t-37 -246t-22.5 -246zM563 540.5q2 61.5 12 147.5q16 129 40 206t71 120t109.5 57t169.5 14q47 0 97 -5t82 -10t58.5 -11t28.5 -6l-21 -88q-121 27 -260 26q-104 0 -149 -17.5t-73 -80t-46 -205.5q-10 -88 -10 -140t8 -87t36.5 -49.5t62.5 -19.5 t98 -5q41 0 90 4t81 8l62 9q31 4 33 4l-2 -86q-131 -33 -273 -33q-72 0 -117.5 5t-84.5 21.5t-59.5 43t-33 71.5t-10.5 106.5z" />
<glyph unicode="&#xaa;" horiz-adv-x="737" d="M145 639l11 82h604l-10 -82h-605zM203 989q12 96 58 131t159 37l227 4l8 62q6 51 -32 69q-25 12 -101 13q-119 0 -233 -27l-4 72q172 29 245 28q117 0 175.5 -29.5t46.5 -129.5l-37 -299q-2 -18 14 -21l45 -10l-8 -64h-156l-2 29q0 18 -16 18q-10 0 -25 -10l-61 -37 q-49 -8 -98 -8q-127 0 -172 36t-33 136zM303 985q-8 -66 18.5 -82t112.5 -16q39 0 74 4t69.5 12t38.5 8l23 181l-178 -2h-34q-26 0 -46.5 -2.5t-32.5 -8.5q-35 -18 -45 -94z" />
<glyph unicode="&#xab;" horiz-adv-x="837" d="M160 524l286 518l89 -61l-252 -457l161 -458l-98 -66zM465 524l285 518l90 -61l-254 -457l164 -458l-101 -66z" />
<glyph unicode="&#xac;" horiz-adv-x="1071" d="M145 414l17 131h885l-68 -545h-139l51 414h-746z" />
<glyph unicode="&#xad;" horiz-adv-x="577" d="M150 430l16 133h385l-16 -133h-385z" />
<glyph unicode="&#xae;" horiz-adv-x="1632" d="M179 421.5q3 102.5 23.5 262.5t41 262.5t60.5 186.5t89 128t136 73.5t191.5 38.5t264.5 9t261.5 -9t182 -38.5t118.5 -73.5t57.5 -128t16.5 -186.5t-24 -262.5q-20 -162 -41.5 -263.5t-61.5 -185t-89 -128t-136 -74t-190.5 -38.5t-265.5 -9q-160 0 -261 9t-181 38.5 t-119 74t-57.5 128t-15.5 186zM262 438q-4 -94 14.5 -168.5t49 -111.5t105.5 -61.5t160 -30t232.5 -5.5t233.5 5.5t167 30t120.5 61.5t76.5 111.5t56.5 168.5t38 246t22.5 246t-14.5 169t-50 111.5t-105.5 61t-159 30t-232.5 5.5t-233.5 -5.5t-166.5 -30t-121.5 -61 t-78 -111.5t-55.5 -169t-37 -246t-22.5 -246zM520 301l8 68l54 10q8 0 14 16l72 588q0 14 -11 14l-49 11l8 67h433q133 0 182 -49t35 -168q-12 -94 -64 -145q-29 -27 -65 -41q-33 -14 -72 -17q-31 -4 -35 -24q0 -8 8 -25l111 -200q10 -18 43 -27l41 -10l-8 -68h-140 l-139 258l10 88h-229l-31 -252q0 -16 11 -16l49 -10l-8 -68h-228zM737 727h240q102 0 143 35q31 29 39 98q8 74 -14 101q-29 33 -135 32h-240z" />
<glyph unicode="&#xaf;" horiz-adv-x="649" d="M236 1128l12 113h457l-13 -113h-456z" />
<glyph unicode="&#xb0;" horiz-adv-x="786" d="M221 1092q18 129 119.5 219t228.5 90t204 -91t60.5 -220t-116 -220.5t-225.5 -91.5q-129 0 -208 92.5t-63 221.5zM336 1083q-8 -78 40 -132t124 -56q80 -2 143.5 54.5t73.5 136t-38 139t-128 59.5q-82 0 -144.5 -59.5t-70.5 -141.5z" />
<glyph unicode="&#xb1;" d="M238 0l16 129h858l-16 -129h-858zM322 688l16 129h364l50 406h127l-50 -406h365l-16 -129h-365l-49 -407h-127l49 407h-364z" />
<glyph unicode="&#xb2;" horiz-adv-x="886" d="M219 553l17 133q14 111 76.5 167t176.5 101l117 47q94 35 121 56q45 35 53 98q10 78 -36 99.5t-146 21.5q-119 0 -276 -29l-3 92q139 31 283 31q70 0 114 -6t93 -25.5t68.5 -65.5t11.5 -120q-14 -109 -90 -166q-35 -27 -82 -45q-57 -25 -90 -37q-156 -57 -213.5 -98 t-65.5 -117l-6 -43h496l-11 -94h-608z" />
<glyph unicode="&#xb3;" horiz-adv-x="886" d="M229 569l23 90q98 -25 258 -24q121 0 176 30.5t68 131.5q14 131 -119 131q-23 0 -52.5 -1t-51 -2t-23.5 -1l-31 131l244 176q14 14 14 24q0 14 -24 15h-404l10 94h543l-18 -141l-246 -179q-10 -6 -12 -16q0 -18 22 -16q2 0 19.5 1t27.5 1q238 6 209 -221 q-18 -150 -115.5 -201t-254.5 -51q-45 0 -93.5 4t-80 9t-59.5 10t-30 5z" />
<glyph unicode="&#xb4;" horiz-adv-x="501" d="M238 1143l270 205l51 -99l-287 -180z" />
<glyph unicode="&#xb5;" horiz-adv-x="954" d="M995 952l-65 -530q-14 -119 -41 -207q-41 -125 -173 -182.5t-274.5 -43t-226.5 80.5l-57 -471h-131l166 1353h131l-62 -489q0 -8 -4 -51t-8 -68q-12 -123 29 -170q61 -66 210.5 -65.5t225.5 65.5q57 49 73 170q14 100 17 119l59 489h131z" />
<glyph unicode="&#xb6;" horiz-adv-x="1163" d="M225 944q20 178 75.5 274.5t154.5 127.5q49 16 221 16h481l-217 -1770h-106l202 1659h-162l-204 -1659h-107l117 951h-84q-47 0 -137 4t-140.5 34.5t-76.5 98.5q-40 82 -17 264z" />
<glyph unicode="&#xb7;" horiz-adv-x="512" d="M233 586l23 190h190l-22 -190h-191z" />
<glyph unicode="&#xb8;" horiz-adv-x="393" d="M-43 -348l31 65q61 -23 108 -22q131 0 142 80q8 63 -78 63q-45 0 -88 -16l-19 43l82 135h109l-103 -106l2 -5q47 14 97 15q57 0 86.5 -36t23.5 -93q-20 -156 -219 -156q-104 0 -174 33z" />
<glyph unicode="&#xb9;" horiz-adv-x="886" d="M330 551l12 98h158l75 617h-180l13 98h288l-88 -715h148l-13 -98h-413z" />
<glyph unicode="&#xba;" horiz-adv-x="737" d="M145 639l11 82h604l-10 -82h-605zM231 1098q20 172 83 226t227 54q168 0 213 -56t24 -224q-23 -170 -82 -225.5t-225 -55.5t-214.5 56.5t-25.5 224.5zM328 1098q-16 -139 8 -176t143 -37t153 36.5t50 176.5q18 141 -5.5 178t-144.5 37q-115 0 -151.5 -37t-52.5 -178z" />
<glyph unicode="&#xbb;" horiz-adv-x="837" d="M104 66l273 458l-139 457l102 61l160 -518l-314 -524zM410 66l270 458l-139 457l104 61l160 -518l-316 -524z" />
<glyph unicode="&#xbc;" horiz-adv-x="1845" d="M266 551l13 98h157l76 617h-180l12 98h289l-88 -715h147l-12 -98h-414zM385 0l1006 1362h98l-1008 -1362h-96zM987 180l23 182l422 455h133l-432 -461q-25 -25 -27 -45q-2 -18 9 -27.5t32 -9.5h317l37 293h107l-37 -293h135l-12 -94h-133l-23 -180h-106l20 180h-465z" />
<glyph unicode="&#xbd;" horiz-adv-x="1871" d="M266 551l13 98h157l76 617h-180l12 98h289l-88 -715h147l-12 -98h-414zM385 0l1006 1362h98l-1008 -1362h-96zM1047 0l16 133q14 111 76.5 167t177.5 101l117 48q90 33 120 55q43 33 54 98q8 78 -37 99.5t-146 21.5q-133 0 -276 -29l-2 92q139 31 283 31q70 0 113.5 -6 t93 -25.5t68.5 -65.5t11 -120q-14 -109 -90 -166q-35 -27 -82 -45q-57 -25 -90 -37q-156 -57 -213 -98t-65 -117l-7 -45l496 2l-12 -94h-606z" />
<glyph unicode="&#xbe;" horiz-adv-x="1875" d="M225 569l21 90q111 -25 260 -24q121 0 176 30.5t68 131.5q14 131 -119 131q-33 0 -80 -2t-49 -2l-29 131l244 176q14 14 14 24q0 14 -24 15h-406l12 94h543l-18 -141l-246 -179q-12 -8 -12 -16q0 -18 20 -16q2 0 20.5 1t28.5 1q238 6 209 -221q-18 -150 -115.5 -201 t-255.5 -51q-45 0 -93 4t-79.5 9t-59.5 10t-30 5zM530 0l1004 1362h98l-1007 -1362h-95zM1092 180l22 182l422 455h135l-434 -461q-25 -29 -27 -45q-2 -18 9.5 -27.5t31.5 -9.5h318l37 293h106l-35 -293h133l-12 -94h-133l-23 -180h-106l23 180h-467z" />
<glyph unicode="&#xbf;" horiz-adv-x="1060" d="M168 362q10 82 17.5 120t24.5 90.5t46 80t78 56t123 53.5q129 41 167 69.5t48 112.5l4 39h139l-4 -39q-16 -127 -69.5 -177t-223.5 -110q-137 -49 -168 -92t-49 -203q-10 -86 0 -136t52 -74.5t91.5 -30.5t141.5 -6q90 0 184 10t143 20l52 11l2 -109q-176 -47 -414 -47 q-227 0 -319.5 73.5t-65.5 288.5zM684 1192l25 186h172l-25 -186h-172z" />
<glyph unicode="&#xc0;" horiz-adv-x="1482" d="M0 0l12 94l74 19q37 10 59 47l578 1048q23 41 -16 47l-74 15l12 94h397l336 -1204q8 -37 45 -47l72 -19l-12 -94h-355l11 94l63 12q35 6 37 27q2 6 -4 31l-74 250h-741l-135 -250q-12 -25 -13 -31q-2 -14 5.5 -18t25.5 -9l59 -12l-12 -94h-350zM477 524h653l-184 690 q-4 20 -8 28.5t-12 15t-23 6.5q-20 0 -29.5 -9.5t-21.5 -31.5q-2 -6 -4 -9zM768 1638l78 99l219 -205l-51 -74z" />
<glyph unicode="&#xc1;" horiz-adv-x="1482" d="M0 0l12 94l74 19q37 10 59 47l578 1048q23 41 -16 47l-74 15l12 94h397l336 -1204q8 -37 45 -47l72 -19l-12 -94h-355l11 94l63 12q35 6 37 27q2 6 -4 31l-74 250h-741l-135 -250q-12 -25 -13 -31q-2 -14 5.5 -18t25.5 -9l59 -12l-12 -94h-350zM477 524h653l-184 690 q-4 20 -8 28.5t-12 15t-23 6.5q-20 0 -29.5 -9.5t-21.5 -31.5q-2 -6 -4 -9zM780 1532l271 205l51 -99l-287 -180z" />
<glyph unicode="&#xc2;" horiz-adv-x="1482" d="M0 0l12 94l74 19q37 10 59 47l578 1048q23 41 -16 47l-74 15l12 94h397l336 -1204q8 -37 45 -47l72 -19l-12 -94h-355l11 94l63 12q35 6 37 27q2 6 -4 31l-74 250h-741l-135 -250q-12 -25 -13 -31q-2 -14 5.5 -18t25.5 -9l59 -12l-12 -94h-350zM477 524h653l-184 690 q-4 20 -8 28.5t-12 15t-23 6.5q-20 0 -29.5 -9.5t-21.5 -31.5q-2 -6 -4 -9zM682 1528l264 209l211 -209l-61 -72l-166 152l-205 -152z" />
<glyph unicode="&#xc3;" horiz-adv-x="1482" d="M0 0l12 94l74 19q37 10 59 47l578 1048q23 41 -16 47l-74 15l12 94h397l336 -1204q8 -37 45 -47l72 -19l-12 -94h-355l11 94l63 12q35 6 37 27q2 6 -4 31l-74 250h-741l-135 -250q-12 -25 -13 -31q-2 -14 5.5 -18t25.5 -9l59 -12l-12 -94h-350zM477 524h653l-184 690 q-4 20 -8 28.5t-12 15t-23 6.5q-20 0 -29.5 -9.5t-21.5 -31.5q-2 -6 -4 -9zM664 1561q45 68 80.5 95t80.5 27q33 0 109 -38q74 -39 94 -39q35 0 78 75l68 -51q-80 -125 -162 -125q-39 0 -107 39q-70 37 -96 37q-23 0 -38 -14.5t-42 -57.5z" />
<glyph unicode="&#xc4;" horiz-adv-x="1482" d="M0 0l12 94l74 19q37 10 59 47l578 1048q23 41 -16 47l-74 15l12 94h397l336 -1204q8 -37 45 -47l72 -19l-12 -94h-355l11 94l63 12q35 6 37 27q2 6 -4 31l-74 250h-741l-135 -250q-12 -25 -13 -31q-2 -14 5.5 -18t25.5 -9l59 -12l-12 -94h-350zM477 524h653l-184 690 q-4 20 -8 28.5t-12 15t-23 6.5q-20 0 -29.5 -9.5t-21.5 -31.5q-2 -6 -4 -9zM649 1520l19 149h159l-18 -149h-160zM1012 1520l18 149h160l-19 -149h-159z" />
<glyph unicode="&#xc5;" horiz-adv-x="1482" d="M0 0l12 94l74 19q37 10 59 47l578 1048q23 41 -16 47l-74 15l12 94h397l336 -1204q8 -37 45 -47l72 -19l-12 -94h-355l11 94l63 12q35 6 37 27q2 6 -4 31l-74 250h-741l-135 -250q-12 -25 -13 -31q-2 -14 5.5 -18t25.5 -9l59 -12l-12 -94h-350zM477 524h653l-184 690 q-4 20 -8 28.5t-12 15t-23 6.5q-20 0 -29.5 -9.5t-21.5 -31.5q-2 -6 -4 -9zM707 1657q16 121 73.5 171t188.5 50t176 -50t31 -171q-16 -121 -74 -172t-189 -51t-175.5 51t-30.5 172zM807 1657q-10 -84 11.5 -116t105.5 -32q82 0 110.5 32t40.5 114q10 84 -11.5 116.5 t-105.5 32.5q-82 0 -110.5 -31.5t-40.5 -115.5z" />
<glyph unicode="&#xc6;" horiz-adv-x="1689" d="M0 0l12 94l74 19q33 8 59 47l639 1048q27 41 -16 47l-74 15l13 94h1050l-16 -119h-537l-61 -508h516l-14 -116h-517l-61 -502h537l-15 -119h-778l10 94l76 15q29 4 33 36l59 473q-104 0 -157.5 -3t-127 -16t-120.5 -43t-100.5 -85t-102.5 -137l-102 -170q-12 -20 -13 -31 q-2 -14 5.5 -18t25.5 -9l59 -12l-12 -94h-344zM557 627q127 113 447 112l53 435q10 82 -70 81q-23 0 -41 -11t-27.5 -22.5t-23.5 -35.5z" />
<glyph unicode="&#xc7;" horiz-adv-x="1273" d="M191.5 312.5q-13.5 138.5 15.5 369.5q29 238 75 374t126 208q123 115 456 114q211 0 471 -55l-35 -119q-268 47 -438 47q-266 0 -354 -77q-61 -55 -97 -169t-61 -325q-27 -207 -17.5 -320.5t58.5 -171.5q41 -47 122 -64.5t220 -17.5q92 0 201.5 11.5t173.5 21.5l63 13 l7 -113q-205 -45 -420 -53l-86 -92l4 -5q43 14 94 15q59 0 88 -36t23 -93q-20 -156 -219 -156q-102 0 -173 33l31 65q61 -23 107 -22q133 0 143 80q6 63 -78 63q-45 0 -90 -16l-16 43l69 121q-297 6 -389 114q-61 74 -74.5 212.5z" />
<glyph unicode="&#xc8;" horiz-adv-x="1224" d="M131 0l12 94l76 15q29 4 33 36l131 1074q4 33 -25 36l-71 15l12 94h993l-14 -119h-752l-61 -487h733l-14 -117h-733l-64 -522h752l-15 -119h-993zM666 1638l77 99l220 -205l-52 -74z" />
<glyph unicode="&#xc9;" horiz-adv-x="1224" d="M131 0l12 94l76 15q29 4 33 36l131 1074q4 33 -25 36l-71 15l12 94h993l-14 -119h-752l-61 -487h733l-14 -117h-733l-64 -522h752l-15 -119h-993zM719 1532l270 205l51 -99l-286 -180z" />
<glyph unicode="&#xca;" horiz-adv-x="1224" d="M131 0l12 94l76 15q29 4 33 36l131 1074q4 33 -25 36l-71 15l12 94h993l-14 -119h-752l-61 -487h733l-14 -117h-733l-64 -522h752l-15 -119h-993zM623 1528l264 209l211 -209l-62 -72l-166 152l-204 -152z" />
<glyph unicode="&#xcb;" horiz-adv-x="1224" d="M131 0l12 94l76 15q29 4 33 36l131 1074q4 33 -25 36l-71 15l12 94h993l-14 -119h-752l-61 -487h733l-14 -117h-733l-64 -522h752l-15 -119h-993zM573 1520l19 149h160l-19 -149h-160zM936 1520l18 149h160l-18 -149h-160z" />
<glyph unicode="&#xcc;" horiz-adv-x="606" d="M131 0l12 94l76 15q29 4 33 36l131 1074q4 33 -25 36l-71 15l12 94h344l-12 -94l-76 -15q-29 -4 -33 -36l-131 -1074q-4 -33 25 -36l71 -15l-12 -94h-344zM317 1638l78 99l219 -205l-51 -74z" />
<glyph unicode="&#xcd;" horiz-adv-x="606" d="M131 0l12 94l76 15q29 4 33 36l131 1074q4 33 -25 36l-71 15l12 94h344l-12 -94l-76 -15q-29 -4 -33 -36l-131 -1074q-4 -33 25 -36l71 -15l-12 -94h-344zM330 1532l270 205l51 -99l-286 -180z" />
<glyph unicode="&#xce;" horiz-adv-x="606" d="M131 0l12 94l76 15q29 4 33 36l131 1074q4 33 -25 36l-71 15l12 94h344l-12 -94l-76 -15q-29 -4 -33 -36l-131 -1074q-4 -33 25 -36l71 -15l-12 -94h-344zM252 1528l264 209l211 -209l-61 -72l-166 152l-205 -152z" />
<glyph unicode="&#xcf;" horiz-adv-x="606" d="M131 0l12 94l76 15q29 4 33 36l131 1074q4 33 -25 36l-71 15l12 94h344l-12 -94l-76 -15q-29 -4 -33 -36l-131 -1074q-4 -33 25 -36l71 -15l-12 -94h-344zM217 1520l19 149h159l-18 -149h-160zM580 1520l18 149h160l-19 -149h-159z" />
<glyph unicode="&#xd0;" horiz-adv-x="1525" d="M147 0l13 94l76 15q29 4 32 36l60 496h-138l15 117h137l57 461q4 33 -24 36l-72 15l12 94h705q186 0 295.5 -48t148.5 -136t43 -214t-20 -282q-12 -100 -24.5 -169t-34 -147.5t-51 -129t-77 -99.5t-109 -76.5t-146 -45t-193.5 -17.5h-705zM403 119h453q68 0 125 9 t99 21.5t77 40t58.5 50t44 67.5t30.5 76t21.5 91.5t16.5 96.5l15 111l12.5 99t8.5 90.5t2 84t-7 72.5t-19 66l-31 51q-18 29 -47 44t-67 29.5t-88 20.5t-112 6h-452l-62 -487h482l-15 -117h-481z" />
<glyph unicode="&#xd1;" horiz-adv-x="1652" d="M131 0l12 94l76 15q29 4 33 36l131 1074q4 33 -25 36l-71 15l12 94h406l514 -1212q14 -37 43 -37q27 0 36 13t13 42l129 1049q4 33 -25 36l-72 15l13 94h334l-13 -94l-75 -15q-29 -4 -33 -36l-150 -1219h-299l-516 1223q-16 39 -43 39q-45 0 -51 -56l-129 -1061 q-4 -33 25 -36l71 -15l-12 -94h-334zM760 1561q45 68 81 95t81 27q33 0 108 -38q74 -39 94 -39q35 0 78 75l68 -51q-80 -125 -162 -125q-39 0 -107 39q-70 37 -96 37q-23 0 -38 -14.5t-42 -57.5z" />
<glyph unicode="&#xd2;" horiz-adv-x="1378" d="M182 432q6 94 25 248q20 160 39.5 262t53.5 186t75 128t113.5 74t156.5 39t215 9q133 0 220 -10t148.5 -45t91.5 -78t40 -131t4 -182t-25 -252q-18 -156 -35.5 -251t-49 -182t-72.5 -130t-111 -77t-159 -44t-222 -10t-220 11t-149.5 45t-92 78t-41 131t-5.5 181zM328 462 q-6 -79 1 -152.5t27.5 -107.5t68.5 -59.5t111.5 -33t168.5 -7.5q106 0 172.5 6.5t120 35t81 59t52 108.5t36 152t29.5 217q37 236 26.5 365t-88 173t-288.5 44q-102 0 -165 -6.5t-118 -30t-84.5 -57t-55.5 -105.5t-41 -157t-32 -226q-16 -139 -22 -218zM727 1638l78 99 l219 -205l-51 -74z" />
<glyph unicode="&#xd3;" horiz-adv-x="1378" d="M182 432q6 94 25 248q20 160 39.5 262t53.5 186t75 128t113.5 74t156.5 39t215 9q133 0 220 -10t148.5 -45t91.5 -78t40 -131t4 -182t-25 -252q-18 -156 -35.5 -251t-49 -182t-72.5 -130t-111 -77t-159 -44t-222 -10t-220 11t-149.5 45t-92 78t-41 131t-5.5 181zM328 462 q-6 -79 1 -152.5t27.5 -107.5t68.5 -59.5t111.5 -33t168.5 -7.5q106 0 172.5 6.5t120 35t81 59t52 108.5t36 152t29.5 217q37 236 26.5 365t-88 173t-288.5 44q-102 0 -165 -6.5t-118 -30t-84.5 -57t-55.5 -105.5t-41 -157t-32 -226q-16 -139 -22 -218zM719 1532l270 205 l51 -99l-286 -180z" />
<glyph unicode="&#xd4;" horiz-adv-x="1378" d="M182 432q6 94 25 248q20 160 39.5 262t53.5 186t75 128t113.5 74t156.5 39t215 9q133 0 220 -10t148.5 -45t91.5 -78t40 -131t4 -182t-25 -252q-18 -156 -35.5 -251t-49 -182t-72.5 -130t-111 -77t-159 -44t-222 -10t-220 11t-149.5 45t-92 78t-41 131t-5.5 181zM328 462 q-6 -79 1 -152.5t27.5 -107.5t68.5 -59.5t111.5 -33t168.5 -7.5q106 0 172.5 6.5t120 35t81 59t52 108.5t36 152t29.5 217q37 236 26.5 365t-88 173t-288.5 44q-102 0 -165 -6.5t-118 -30t-84.5 -57t-55.5 -105.5t-41 -157t-32 -226q-16 -139 -22 -218zM643 1528l264 209 l211 -209l-61 -72l-166 152l-205 -152z" />
<glyph unicode="&#xd5;" horiz-adv-x="1378" d="M182 432q6 94 25 248q20 160 39.5 262t53.5 186t75 128t113.5 74t156.5 39t215 9q133 0 220 -10t148.5 -45t91.5 -78t40 -131t4 -182t-25 -252q-18 -156 -35.5 -251t-49 -182t-72.5 -130t-111 -77t-159 -44t-222 -10t-220 11t-149.5 45t-92 78t-41 131t-5.5 181zM328 462 q-6 -79 1 -152.5t27.5 -107.5t68.5 -59.5t111.5 -33t168.5 -7.5q106 0 172.5 6.5t120 35t81 59t52 108.5t36 152t29.5 217q37 236 26.5 365t-88 173t-288.5 44q-102 0 -165 -6.5t-118 -30t-84.5 -57t-55.5 -105.5t-41 -157t-32 -226q-16 -139 -22 -218zM616 1561 q45 68 81 95t81 27q33 0 109 -38q74 -39 94 -39q35 0 78 75l67 -51q-80 -125 -161 -125q-39 0 -107 39q-70 37 -96 37q-23 0 -38 -14.5t-42 -57.5z" />
<glyph unicode="&#xd6;" horiz-adv-x="1378" d="M182 432q6 94 25 248q20 160 39.5 262t53.5 186t75 128t113.5 74t156.5 39t215 9q133 0 220 -10t148.5 -45t91.5 -78t40 -131t4 -182t-25 -252q-18 -156 -35.5 -251t-49 -182t-72.5 -130t-111 -77t-159 -44t-222 -10t-220 11t-149.5 45t-92 78t-41 131t-5.5 181zM328 462 q-6 -79 1 -152.5t27.5 -107.5t68.5 -59.5t111.5 -33t168.5 -7.5q106 0 172.5 6.5t120 35t81 59t52 108.5t36 152t29.5 217q37 236 26.5 365t-88 173t-288.5 44q-102 0 -165 -6.5t-118 -30t-84.5 -57t-55.5 -105.5t-41 -157t-32 -226q-16 -139 -22 -218zM602 1520l19 149h159 l-18 -149h-160zM965 1520l18 149h160l-19 -149h-159z" />
<glyph unicode="&#xd7;" d="M315 342l347 338l-263 338l99 94l264 -336l348 336l76 -92l-350 -340l266 -338l-98 -94l-265 338l-348 -338z" />
<glyph unicode="&#xd8;" horiz-adv-x="1378" d="M182 432q6 94 25 248q20 160 39.5 262t53.5 186t75 128t113.5 74t156.5 39t215 9q133 0 220 -10t148.5 -45t91.5 -78t40 -131t4 -182t-25 -252q-18 -156 -35.5 -251t-49 -182t-72.5 -130t-111 -77t-159 -44t-222 -10t-220 11t-149.5 45t-92 78t-41 131t-5.5 181zM328 375 l878 749q-25 78 -105.5 108t-254.5 30q-102 0 -165 -6.5t-118 -30t-84.5 -57t-55.5 -105.5t-41 -157t-32 -226q-22 -174 -22 -305zM340 248q25 -86 105.5 -116t259.5 -30q106 0 172.5 6.5t120 35t81 59t52 108.5t36 152t29.5 217q25 221 25 313z" />
<glyph unicode="&#xd9;" horiz-adv-x="1568" d="M295 1270l12 94h344l-12 -94l-76 -15q-29 -4 -33 -36l-90 -744q-29 -236 27.5 -303.5t288.5 -67.5q115 0 230.5 13.5t172.5 27.5l60 15l129 1059q4 33 -25 36l-72 15l13 94h344l-13 -94l-75 -15q-29 -4 -33 -36l-131 -1074q-4 -33 24 -36l72 -15l-12 -94h-221l-5 72 q0 33 -28 32q-18 0 -43 -14l-139 -84q-133 -20 -275 -20q-299 0 -383 97t-47 384l92 752q4 33 -24 36zM809 1638l78 99l219 -205l-51 -74z" />
<glyph unicode="&#xda;" horiz-adv-x="1568" d="M295 1270l12 94h344l-12 -94l-76 -15q-29 -4 -33 -36l-90 -744q-29 -236 27.5 -303.5t288.5 -67.5q115 0 230.5 13.5t172.5 27.5l60 15l129 1059q4 33 -25 36l-72 15l13 94h344l-13 -94l-75 -15q-29 -4 -33 -36l-131 -1074q-4 -33 24 -36l72 -15l-12 -94h-221l-5 72 q0 33 -28 32q-18 0 -43 -14l-139 -84q-133 -20 -275 -20q-299 0 -383 97t-47 384l92 752q4 33 -24 36zM842 1532l270 205l51 -99l-286 -180z" />
<glyph unicode="&#xdb;" horiz-adv-x="1568" d="M295 1270l12 94h344l-12 -94l-76 -15q-29 -4 -33 -36l-90 -744q-29 -236 27.5 -303.5t288.5 -67.5q115 0 230.5 13.5t172.5 27.5l60 15l129 1059q4 33 -25 36l-72 15l13 94h344l-13 -94l-75 -15q-29 -4 -33 -36l-131 -1074q-4 -33 24 -36l72 -15l-12 -94h-221l-5 72 q0 33 -28 32q-18 0 -43 -14l-139 -84q-133 -20 -275 -20q-299 0 -383 97t-47 384l92 752q4 33 -24 36zM745 1528l265 209l211 -209l-62 -72l-166 152l-205 -152z" />
<glyph unicode="&#xdc;" horiz-adv-x="1568" d="M295 1270l12 94h344l-12 -94l-76 -15q-29 -4 -33 -36l-90 -744q-29 -236 27.5 -303.5t288.5 -67.5q115 0 230.5 13.5t172.5 27.5l60 15l129 1059q4 33 -25 36l-72 15l13 94h344l-13 -94l-75 -15q-29 -4 -33 -36l-131 -1074q-4 -33 24 -36l72 -15l-12 -94h-221l-5 72 q0 33 -28 32q-18 0 -43 -14l-139 -84q-133 -20 -275 -20q-299 0 -383 97t-47 384l92 752q4 33 -24 36zM705 1520l18 149h160l-19 -149h-159zM1067 1520l18 149h160l-18 -149h-160z" />
<glyph unicode="&#xdd;" horiz-adv-x="1269" d="M205 1270l12 94h344l-12 -94l-76 -15q-29 -4 -33 -36l-45 -375q-23 -184 38 -238.5t288 -54.5q80 0 182.5 21.5t138.5 33.5l76 613q4 33 -24 36l-72 15l12 94h344l-12 -94l-76 -15q-29 -4 -33 -36l-100 -822q-12 -94 -24.5 -147t-45 -111.5t-87 -87t-148.5 -47 t-231 -18.5q-104 0 -203 9t-144 17l-47 11l31 110q150 -31 379 -31q127 0 199.5 14.5t110.5 58.5t49.5 85t21.5 135l14 113q4 43 -31 43q-12 0 -36 -16l-140 -89q-102 -14 -196 -14q-250 0 -326 89t-49 313l47 385q4 33 -25 36zM698 1532l271 205l51 -99l-287 -180z" />
<glyph unicode="&#xde;" horiz-adv-x="1376" d="M131 0l12 94l76 15q29 4 33 36l131 1074q4 33 -25 36l-71 15l12 94h344l-12 -94l-76 -15q-29 -4 -33 -36l-12 -99h514q387 0 338 -409q-6 -49 -10 -78t-18.5 -84t-33 -90t-51 -80t-76 -70.5t-108 -44t-143.5 -18.5h-131l-218 8l-90 68q-25 16 -37 16q-33 0 -36 -39 l-19 -154q-4 -33 25 -36l71 -15l-12 -94h-344zM420 387q117 -25 389 -25q111 0 168 7.5t113.5 39t83 98t40.5 183.5q23 184 -43.5 247.5t-234.5 63.5h-440z" />
<glyph unicode="&#xdf;" horiz-adv-x="1054" d="M66 0l10 80l53 10q31 6 35 37l115 944q23 184 105.5 245.5t299.5 61.5q215 0 281.5 -60.5t44.5 -246.5q-23 -190 -172 -231q-43 -14 -45 -33q-2 -23 24 -29q150 -39 179.5 -109.5t4.5 -265.5q-31 -242 -117.5 -322.5t-295.5 -80.5h-131l10 84l86 8q76 8 114 14.5t78.5 25 t59 52t35 88t26.5 142.5q8 74 10.5 123t-8 84.5t-26 56t-48 34t-67.5 17.5t-94 8l-60 4l13 93l59 8q109 14 163 62t69 167q16 133 -25 168t-182.5 35t-193.5 -36t-68 -167l-132 -1071h-210z" />
<glyph unicode="&#xe0;" horiz-adv-x="1099" d="M153.5 219.5q-8.5 108.5 6.5 255.5q14 117 37.5 196t70.5 150.5t130 107.5t202 36q90 0 202.5 -12.5t180.5 -24.5l68 -13l-97 -786q-2 -12 -1 -20.5t6.5 -11.5t17.5 -5l53 -10l-10 -82h-201l-2 51q-6 33 -31 33q-10 0 -43 -18l-104 -66q-90 -14 -176 -14 q-150 0 -225.5 62.5t-84 171zM295 475.5q-29 -231.5 17 -308.5t223 -77q63 0 135.5 10.5t113.5 20.5l41 10l86 705q-147 25 -280 24q-176 0 -241.5 -76.5t-94.5 -308zM578 1249l77 99l219 -205l-51 -74z" />
<glyph unicode="&#xe1;" horiz-adv-x="1099" d="M153.5 219.5q-8.5 108.5 6.5 255.5q14 117 37.5 196t70.5 150.5t130 107.5t202 36q90 0 202.5 -12.5t180.5 -24.5l68 -13l-97 -786q-2 -12 -1 -20.5t6.5 -11.5t17.5 -5l53 -10l-10 -82h-201l-2 51q-6 33 -31 33q-10 0 -43 -18l-104 -66q-90 -14 -176 -14 q-150 0 -225.5 62.5t-84 171zM295 475.5q-29 -231.5 17 -308.5t223 -77q63 0 135.5 10.5t113.5 20.5l41 10l86 705q-147 25 -280 24q-176 0 -241.5 -76.5t-94.5 -308zM565 1143l271 205l51 -99l-287 -180z" />
<glyph unicode="&#xe2;" horiz-adv-x="1099" d="M153.5 219.5q-8.5 108.5 6.5 255.5q14 117 37.5 196t70.5 150.5t130 107.5t202 36q90 0 202.5 -12.5t180.5 -24.5l68 -13l-97 -786q-2 -12 -1 -20.5t6.5 -11.5t17.5 -5l53 -10l-10 -82h-201l-2 51q-6 33 -31 33q-10 0 -43 -18l-104 -66q-90 -14 -176 -14 q-150 0 -225.5 62.5t-84 171zM295 475.5q-29 -231.5 17 -308.5t223 -77q63 0 135.5 10.5t113.5 20.5l41 10l86 705q-147 25 -280 24q-176 0 -241.5 -76.5t-94.5 -308zM461 1141l266 209l209 -209l-59 -72l-166 152l-205 -152z" />
<glyph unicode="&#xe3;" horiz-adv-x="1099" d="M153.5 219.5q-8.5 108.5 6.5 255.5q14 117 37.5 196t70.5 150.5t130 107.5t202 36q90 0 202.5 -12.5t180.5 -24.5l68 -13l-97 -786q-2 -12 -1 -20.5t6.5 -11.5t17.5 -5l53 -10l-10 -82h-201l-2 51q-6 33 -31 33q-10 0 -43 -18l-104 -66q-90 -14 -176 -14 q-150 0 -225.5 62.5t-84 171zM295 475.5q-29 -231.5 17 -308.5t223 -77q63 0 135.5 10.5t113.5 20.5l41 10l86 705q-147 25 -280 24q-176 0 -241.5 -76.5t-94.5 -308zM442 1151q45 68 81 95.5t81 27.5q37 0 109 -39q74 -39 96 -39q33 0 76 76l67 -51q-80 -125 -159 -125 q-37 0 -109 39q-70 37 -96 36q-23 0 -38 -14t-40 -57z" />
<glyph unicode="&#xe4;" horiz-adv-x="1099" d="M153.5 219.5q-8.5 108.5 6.5 255.5q14 117 37.5 196t70.5 150.5t130 107.5t202 36q90 0 202.5 -12.5t180.5 -24.5l68 -13l-97 -786q-2 -12 -1 -20.5t6.5 -11.5t17.5 -5l53 -10l-10 -82h-201l-2 51q-6 33 -31 33q-10 0 -43 -18l-104 -66q-90 -14 -176 -14 q-150 0 -225.5 62.5t-84 171zM295 475.5q-29 -231.5 17 -308.5t223 -77q63 0 135.5 10.5t113.5 20.5l41 10l86 705q-147 25 -280 24q-176 0 -241.5 -76.5t-94.5 -308zM438 1116l19 150h159l-18 -150h-160zM801 1116l18 150h160l-18 -150h-160z" />
<glyph unicode="&#xe5;" horiz-adv-x="1099" d="M153.5 219.5q-8.5 108.5 6.5 255.5q14 117 37.5 196t70.5 150.5t130 107.5t202 36q90 0 202.5 -12.5t180.5 -24.5l68 -13l-97 -786q-2 -12 -1 -20.5t6.5 -11.5t17.5 -5l53 -10l-10 -82h-201l-2 51q-6 33 -31 33q-10 0 -43 -18l-104 -66q-90 -14 -176 -14 q-150 0 -225.5 62.5t-84 171zM295 475.5q-29 -231.5 17 -308.5t223 -77q63 0 135.5 10.5t113.5 20.5l41 10l86 705q-147 25 -280 24q-176 0 -241.5 -76.5t-94.5 -308zM526 1221q12 100 60.5 142t157 42t146.5 -42t25 -142q-12 -102 -60 -144.5t-156.5 -42.5t-146.5 42.5 t-26 144.5zM610 1220.5q-8 -69.5 9.5 -96t87 -26.5t93 26.5t31.5 96.5q10 70 -7 96t-86.5 26t-94.5 -26.5t-33 -96z" />
<glyph unicode="&#xe6;" horiz-adv-x="1753" d="M129 279q18 162 96 213t258 55l367 6l10 76q18 145 -33 188t-198 43q-86 0 -178.5 -11t-139.5 -22l-49 -12l-8 103q172 47 385 47q154 0 221.5 -32t95.5 -110q41 47 77 73t115 47.5t193 21.5q281 0 345 -97q61 -90 32 -315q-2 -23 -16 -111q-279 -16 -320 -16l-282 6 l-58 45q-23 14 -34 15q-35 0 -41 -56q-2 -6 -2 -8q-23 -195 30 -260q61 -78 256 -78q82 0 167 8t130 17l43 8l6 -96q-139 -41 -350 -41q-227 0 -317 67l-18 18l-16 16q-5 5 -19.5 9t-26.5 -8l-135 -82q-82 -20 -250 -20q-213 0 -284.5 64.5t-51.5 228.5zM264 276 q-6 -51 2 -86.5t25.5 -55t52.5 -30t67.5 -12.5t88.5 -2q219 0 352 49q-45 106 -18 318q16 0 -267 -6h-62q-42 0 -57.5 -1t-47 -4.5t-44.5 -10.5l-32 -19q-20 -12 -28.5 -30.5t-18 -45.5t-13.5 -64zM981 545q61 -10 138 -14.5t122 -4.5h45q178 0 293 9q10 76 11 127t-8 88.5 t-24.5 59t-48 34t-69.5 15.5t-99 3q-205 0 -268 -53q-66 -55 -86 -207z" />
<glyph unicode="&#xe7;" horiz-adv-x="952" d="M160 475q37 295 141.5 392.5t351.5 97.5q80 0 162 -10.5t125 -20.5l43 -10l-27 -97q-143 33 -294 33q-199 0 -267.5 -70.5t-97.5 -314.5q-31 -244 20.5 -314.5t247.5 -70.5q68 0 143.5 8t118.5 17l41 8l4 -96q-133 -35 -290 -41l-82 -92l2 -5q43 14 94 15q59 0 89 -36 t22 -93q-18 -156 -220 -156q-102 0 -172 33l31 65q61 -23 107 -22q133 0 143 80q6 63 -78 63q-45 0 -88 -16l-18 43l69 121q-213 8 -283.5 108t-37.5 381z" />
<glyph unicode="&#xe8;" horiz-adv-x="1079" d="M151.5 312.5q-6.5 70.5 10.5 162.5q23 207 88 322q51 94 149.5 131t268.5 37q279 0 344 -97q61 -90 32 -315q-6 -49 -18 -111q-279 -16 -317 -16l-283 8l-57 43q-20 14 -35 15q-39 0 -43 -64q-27 -188 28 -260q59 -76 256 -76q84 0 169 8.5t128 16.5l46 8l6 -98 q-139 -41 -351 -41q-74 0 -125 4t-103 17t-83 36t-60.5 58.5t-36.5 88t-13.5 123zM307 545q61 -10 137 -14.5t121 -4.5h47q168 -4 293 9q10 76 11.5 127t-8 88.5t-25 59t-49 34t-70.5 15.5t-98 3q-57 0 -99.5 -2t-77 -11t-57 -17.5t-41 -30t-30 -39t-21.5 -57t-16.5 -70.5 t-16.5 -90zM557 1249l78 99l219 -205l-51 -74z" />
<glyph unicode="&#xe9;" horiz-adv-x="1079" d="M151.5 312.5q-6.5 70.5 10.5 162.5q23 207 88 322q51 94 149.5 131t268.5 37q279 0 344 -97q61 -90 32 -315q-6 -49 -18 -111q-279 -16 -317 -16l-283 8l-57 43q-20 14 -35 15q-39 0 -43 -64q-27 -188 28 -260q59 -76 256 -76q84 0 169 8.5t128 16.5l46 8l6 -98 q-139 -41 -351 -41q-74 0 -125 4t-103 17t-83 36t-60.5 58.5t-36.5 88t-13.5 123zM307 545q61 -10 137 -14.5t121 -4.5h47q168 -4 293 9q10 76 11.5 127t-8 88.5t-25 59t-49 34t-70.5 15.5t-98 3q-57 0 -99.5 -2t-77 -11t-57 -17.5t-41 -30t-30 -39t-21.5 -57t-16.5 -70.5 t-16.5 -90zM565 1143l271 205l51 -99l-287 -180z" />
<glyph unicode="&#xea;" horiz-adv-x="1079" d="M151.5 312.5q-6.5 70.5 10.5 162.5q23 207 88 322q51 94 149.5 131t268.5 37q279 0 344 -97q61 -90 32 -315q-6 -49 -18 -111q-279 -16 -317 -16l-283 8l-57 43q-20 14 -35 15q-39 0 -43 -64q-27 -188 28 -260q59 -76 256 -76q84 0 169 8.5t128 16.5l46 8l6 -98 q-139 -41 -351 -41q-74 0 -125 4t-103 17t-83 36t-60.5 58.5t-36.5 88t-13.5 123zM307 545q61 -10 137 -14.5t121 -4.5h47q168 -4 293 9q10 76 11.5 127t-8 88.5t-25 59t-49 34t-70.5 15.5t-98 3q-57 0 -99.5 -2t-77 -11t-57 -17.5t-41 -30t-30 -39t-21.5 -57t-16.5 -70.5 t-16.5 -90zM461 1141l266 209l209 -209l-59 -72l-166 152l-205 -152z" />
<glyph unicode="&#xeb;" horiz-adv-x="1079" d="M151.5 312.5q-6.5 70.5 10.5 162.5q23 207 88 322q51 94 149.5 131t268.5 37q279 0 344 -97q61 -90 32 -315q-6 -49 -18 -111q-279 -16 -317 -16l-283 8l-57 43q-20 14 -35 15q-39 0 -43 -64q-27 -188 28 -260q59 -76 256 -76q84 0 169 8.5t128 16.5l46 8l6 -98 q-139 -41 -351 -41q-74 0 -125 4t-103 17t-83 36t-60.5 58.5t-36.5 88t-13.5 123zM307 545q61 -10 137 -14.5t121 -4.5h47q168 -4 293 9q10 76 11.5 127t-8 88.5t-25 59t-49 34t-70.5 15.5t-98 3q-57 0 -99.5 -2t-77 -11t-57 -17.5t-41 -30t-30 -39t-21.5 -57t-16.5 -70.5 t-16.5 -90zM397 1116l19 150h159l-18 -150h-160zM760 1116l18 150h160l-18 -150h-160z" />
<glyph unicode="&#xec;" horiz-adv-x="483" d="M100 0l11 80l53 10q31 6 35 37l84 696q2 12 1 20.5t-6.5 11.5t-17.5 5l-53 10l10 82h211l-100 -823q-2 -12 -1 -20.5t6 -11.5t17 -5l53 -10l-10 -82h-293zM188 1249l78 99l219 -205l-51 -74z" />
<glyph unicode="&#xed;" horiz-adv-x="483" d="M100 0l11 80l53 10q31 6 35 37l84 696q2 12 1 20.5t-6.5 11.5t-17.5 5l-53 10l10 82h211l-100 -823q-2 -12 -1 -20.5t6 -11.5t17 -5l53 -10l-10 -82h-293zM203 1143l270 205l51 -99l-286 -180z" />
<glyph unicode="&#xee;" horiz-adv-x="483" d="M100 0l11 80l53 10q31 6 35 37l84 696q2 12 1 20.5t-6.5 11.5t-17.5 5l-53 10l10 82h211l-100 -823q-2 -12 -1 -20.5t6 -11.5t17 -5l53 -10l-10 -82h-293zM113 1141l266 209l209 -209l-60 -72l-166 152l-204 -152z" />
<glyph unicode="&#xef;" horiz-adv-x="483" d="M90 1116l19 150h159l-18 -150h-160zM100 0l11 80l53 10q31 6 35 37l84 696q2 12 1 20.5t-6.5 11.5t-17.5 5l-53 10l10 82h211l-100 -823q-2 -12 -1 -20.5t6 -11.5t17 -5l53 -10l-10 -82h-293zM453 1116l18 150h160l-19 -150h-159z" />
<glyph unicode="&#xf0;" horiz-adv-x="1050" d="M144 268q-1 80 16 207q20 160 45.5 248t81 146.5t136.5 77t222 18.5q82 0 148 -23l-150 234l-168 -97l-26 72l153 88l-80 125h129l58 -90l131 76l26 -70l-116 -68l221 -340q72 -109 37 -397q-37 -305 -127 -397t-357 -92q-113 0 -181.5 13t-115.5 42t-64.5 88t-18.5 139z M280.5 325.5q-4.5 -55.5 2 -103.5t19.5 -70.5t47 -39t76 -20.5t112 -4q104 0 157.5 10.5t92 55.5t53 112.5t32.5 208.5q12 94 16.5 149.5t-1.5 103.5t-20.5 70.5t-48.5 39t-76 20.5t-111.5 4t-112.5 -4t-80 -20.5t-56.5 -39t-36.5 -70.5t-27.5 -103.5t-20.5 -149.5 q-12 -94 -16.5 -149.5z" />
<glyph unicode="&#xf1;" horiz-adv-x="1157" d="M100 0l11 80l53 10q31 6 35 37l84 696q2 12 1 20.5t-6.5 11.5t-17.5 5l-53 10l10 82h189l2 -51q6 -33 28 -33q12 0 45 19l107 65q113 12 170 13q213 0 276.5 -71t36.5 -278l-59 -489q-6 -33 22 -37l53 -10l-10 -82h-293l11 82l53 10q20 2 25.5 9t9.5 28l55 463 q23 172 -19 221t-210 49q-63 0 -137 -8t-117 -16l-41 -11l-86 -696q-2 -12 -1 -20.5t6 -11.5t17 -5l53 -10l-10 -82h-293zM463 1151q45 68 81 95.5t81 27.5q37 0 108 -39q74 -39 96 -39q33 0 76 76l68 -51q-80 -125 -160 -125q-37 0 -108 39q-70 37 -97 36q-23 0 -38 -14 t-40 -57z" />
<glyph unicode="&#xf2;" horiz-adv-x="1069" d="M144.5 269q-5.5 85 15.5 206q20 160 45.5 248t83 146.5t139.5 77t225 18.5q272 0 341 -92.5t30 -397.5q-37 -305 -128 -397t-364 -92q-115 0 -184 12t-119.5 44t-64.5 87t-19.5 140zM280.5 325.5q-4.5 -55.5 2 -103.5t20.5 -70.5t48 -39t77 -20.5t117 -4q109 0 163 10.5 t94 55.5t55 112.5t32 208.5q12 94 16 149.5t-2 103.5t-20.5 70.5t-48 39t-76.5 20.5t-117 4q-109 0 -163 -10t-94 -55t-55.5 -113t-31.5 -209q-12 -94 -16.5 -149.5zM516 1249l78 99l219 -205l-51 -74z" />
<glyph unicode="&#xf3;" horiz-adv-x="1069" d="M144.5 269q-5.5 85 15.5 206q20 160 45.5 248t83 146.5t139.5 77t225 18.5q272 0 341 -92.5t30 -397.5q-37 -305 -128 -397t-364 -92q-115 0 -184 12t-119.5 44t-64.5 87t-19.5 140zM280.5 325.5q-4.5 -55.5 2 -103.5t20.5 -70.5t48 -39t77 -20.5t117 -4q109 0 163 10.5 t94 55.5t55 112.5t32 208.5q12 94 16 149.5t-2 103.5t-20.5 70.5t-48 39t-76.5 20.5t-117 4q-109 0 -163 -10t-94 -55t-55.5 -113t-31.5 -209q-12 -94 -16.5 -149.5zM524 1143l271 205l51 -99l-287 -180z" />
<glyph unicode="&#xf4;" horiz-adv-x="1069" d="M144.5 269q-5.5 85 15.5 206q20 160 45.5 248t83 146.5t139.5 77t225 18.5q272 0 341 -92.5t30 -397.5q-37 -305 -128 -397t-364 -92q-115 0 -184 12t-119.5 44t-64.5 87t-19.5 140zM280.5 325.5q-4.5 -55.5 2 -103.5t20.5 -70.5t48 -39t77 -20.5t117 -4q109 0 163 10.5 t94 55.5t55 112.5t32 208.5q12 94 16 149.5t-2 103.5t-20.5 70.5t-48 39t-76.5 20.5t-117 4q-109 0 -163 -10t-94 -55t-55.5 -113t-31.5 -209q-12 -94 -16.5 -149.5zM438 1141l267 209l208 -209l-59 -72l-166 152l-205 -152z" />
<glyph unicode="&#xf5;" horiz-adv-x="1069" d="M144.5 269q-5.5 85 15.5 206q20 160 45.5 248t83 146.5t139.5 77t225 18.5q272 0 341 -92.5t30 -397.5q-37 -305 -128 -397t-364 -92q-115 0 -184 12t-119.5 44t-64.5 87t-19.5 140zM280.5 325.5q-4.5 -55.5 2 -103.5t20.5 -70.5t48 -39t77 -20.5t117 -4q109 0 163 10.5 t94 55.5t55 112.5t32 208.5q12 94 16 149.5t-2 103.5t-20.5 70.5t-48 39t-76.5 20.5t-117 4q-109 0 -163 -10t-94 -55t-55.5 -113t-31.5 -209q-12 -94 -16.5 -149.5zM422 1151q45 68 81 95.5t81 27.5q37 0 108 -39q74 -39 96 -39q33 0 76 76l68 -51q-80 -125 -160 -125 q-37 0 -108 39q-70 37 -97 36q-23 0 -38 -14t-40 -57z" />
<glyph unicode="&#xf6;" horiz-adv-x="1069" d="M144.5 269q-5.5 85 15.5 206q20 160 45.5 248t83 146.5t139.5 77t225 18.5q272 0 341 -92.5t30 -397.5q-37 -305 -128 -397t-364 -92q-115 0 -184 12t-119.5 44t-64.5 87t-19.5 140zM280.5 325.5q-4.5 -55.5 2 -103.5t20.5 -70.5t48 -39t77 -20.5t117 -4q109 0 163 10.5 t94 55.5t55 112.5t32 208.5q12 94 16 149.5t-2 103.5t-20.5 70.5t-48 39t-76.5 20.5t-117 4q-109 0 -163 -10t-94 -55t-55.5 -113t-31.5 -209q-12 -94 -16.5 -149.5zM397 1116l19 150h159l-18 -150h-160zM760 1116l18 150h160l-18 -150h-160z" />
<glyph unicode="&#xf7;" d="M313 616l17 129h856l-17 -129h-856zM604 184l23 191h172l-23 -191h-172zM702 987l23 191h172l-23 -191h-172z" />
<glyph unicode="&#xf8;" horiz-adv-x="1069" d="M144.5 269q-5.5 85 15.5 206q20 160 45.5 248t83 146.5t139.5 77t225 18.5q272 0 341 -92.5t30 -397.5q-37 -305 -128 -397t-364 -92q-115 0 -184 12t-119.5 44t-64.5 87t-19.5 140zM279 262l610 526q-23 45 -78 59.5t-170 14.5q-109 0 -163 -10t-94 -55t-55.5 -113 t-31.5 -209q-18 -135 -18 -213zM297 162q23 -45 77 -59.5t171 -14.5q109 0 163 10.5t94 55.5t55 112.5t32 208.5q18 135 18 215z" />
<glyph unicode="&#xf9;" horiz-adv-x="1140" d="M197 870l10 82h211l-72 -590q-23 -172 19.5 -222t209.5 -50q63 0 134 10.5t110 18.5l39 10l84 694q2 12 1 20.5t-6 11.5t-17 5l-54 10l11 82h210l-100 -823q-2 -12 -1 -20.5t6 -11.5t18 -5l53 -10l-10 -82h-191l-2 51q0 33 -29 33q-16 0 -43 -18l-106 -66 q-98 -14 -156 -14q-211 0 -274.5 71.5t-38.5 278.5l59 487q2 12 1 20.5t-6 11.5t-17 5zM516 1249l78 99l219 -205l-51 -74z" />
<glyph unicode="&#xfa;" horiz-adv-x="1140" d="M197 870l10 82h211l-72 -590q-23 -172 19.5 -222t209.5 -50q63 0 134 10.5t110 18.5l39 10l84 694q2 12 1 20.5t-6 11.5t-17 5l-54 10l11 82h210l-100 -823q-2 -12 -1 -20.5t6 -11.5t18 -5l53 -10l-10 -82h-191l-2 51q0 33 -29 33q-16 0 -43 -18l-106 -66 q-98 -14 -156 -14q-211 0 -274.5 71.5t-38.5 278.5l59 487q2 12 1 20.5t-6 11.5t-17 5zM545 1143l270 205l51 -99l-286 -180z" />
<glyph unicode="&#xfb;" horiz-adv-x="1140" d="M197 870l10 82h211l-72 -590q-23 -172 19.5 -222t209.5 -50q63 0 134 10.5t110 18.5l39 10l84 694q2 12 1 20.5t-6 11.5t-17 5l-54 10l11 82h210l-100 -823q-2 -12 -1 -20.5t6 -11.5t18 -5l53 -10l-10 -82h-191l-2 51q0 33 -29 33q-16 0 -43 -18l-106 -66 q-98 -14 -156 -14q-211 0 -274.5 71.5t-38.5 278.5l59 487q2 12 1 20.5t-6 11.5t-17 5zM461 1141l266 209l209 -209l-59 -72l-166 152l-205 -152z" />
<glyph unicode="&#xfc;" horiz-adv-x="1140" d="M197 870l10 82h211l-72 -590q-23 -172 19.5 -222t209.5 -50q63 0 134 10.5t110 18.5l39 10l84 694q2 12 1 20.5t-6 11.5t-17 5l-54 10l11 82h210l-100 -823q-2 -12 -1 -20.5t6 -11.5t18 -5l53 -10l-10 -82h-191l-2 51q0 33 -29 33q-16 0 -43 -18l-106 -66 q-98 -14 -156 -14q-211 0 -274.5 71.5t-38.5 278.5l59 487q2 12 1 20.5t-6 11.5t-17 5zM418 1116l18 150h160l-18 -150h-160zM780 1116l19 150h159l-18 -150h-160z" />
<glyph unicode="&#xfd;" horiz-adv-x="1107" d="M170 -379l27 100q115 -27 272 -26q104 0 163.5 12t94.5 52t47 89.5t25 151.5l4 37q8 43 -29 43q-14 0 -39 -17l-102 -65q-59 -12 -117 -12q-211 0 -274.5 71.5t-38.5 278.5l59 487q2 12 1 20.5t-6 11.5t-17 5l-54 10l11 82h292l-10 -80l-53 -10q-31 -8 -35 -37l-55 -463 q-23 -172 19 -222t210 -50q63 0 126 10.5t91 20.5l31 10l84 692q2 12 1 20.5t-6 11.5t-18 5l-53 10l10 82h293l-10 -80l-53 -10q-31 -8 -35 -37l-96 -784q-23 -193 -68 -284t-135 -128t-270 -37q-74 0 -145.5 7.5t-106.5 15.5zM545 1143l270 205l51 -99l-286 -180z" />
<glyph unicode="&#xfe;" horiz-adv-x="1099" d="M31 -408l8 80l55 11q18 4 24.5 11t8.5 25l186 1516q2 20 -2 27.5t-22 9.5l-51 10l10 82h211l-56 -449q-6 -43 29 -43q18 0 39 15l100 63q82 14 183 15q211 0 272 -117t31 -369q-29 -231 -96 -336q-98 -158 -373 -157q-102 0 -295 37l-37 -302q-2 -20 3 -26t22 -10l51 -11 l-8 -82h-293zM305 117q127 -27 275 -27q182 0 246.5 73t95.5 316q29 231 -17.5 306t-222.5 75q-63 0 -136 -10t-114 -21l-41 -10z" />
<glyph unicode="&#xff;" horiz-adv-x="1107" d="M170 -379l27 100q115 -27 272 -26q104 0 163.5 12t94.5 52t47 89.5t25 151.5l4 37q8 43 -29 43q-14 0 -39 -17l-102 -65q-59 -12 -117 -12q-211 0 -274.5 71.5t-38.5 278.5l59 487q2 12 1 20.5t-6 11.5t-17 5l-54 10l11 82h292l-10 -80l-53 -10q-31 -8 -35 -37l-55 -463 q-23 -172 19 -222t210 -50q63 0 126 10.5t91 20.5l31 10l84 692q2 12 1 20.5t-6 11.5t-18 5l-53 10l10 82h293l-10 -80l-53 -10q-31 -8 -35 -37l-96 -784q-23 -193 -68 -284t-135 -128t-270 -37q-74 0 -145.5 7.5t-106.5 15.5zM418 1116l18 150h160l-18 -150h-160zM780 1116 l19 150h159l-18 -150h-160z" />
<glyph unicode="&#x152;" horiz-adv-x="2064" d="M180 431q6 89 27 249q20 164 37.5 263t50.5 185t70.5 128t107.5 74t153 40t214 8q285 0 391 -86l10 72h891l-14 -119h-752l-61 -487h731l-15 -117h-731l-63 -522h751l-14 -119h-891l8 74q-129 -88 -411 -88q-133 0 -219 10t-145.5 46t-87.5 78t-36 132t-2 179zM321.5 380 q-2.5 -71 3 -103.5t23 -71.5t42 -52.5t68.5 -28.5t96 -18.5t130 -3.5q240 0 322 60q78 57 110 239q12 70 39 279q37 236 33 365t-79 173t-284 44q-102 0 -163.5 -5.5t-114.5 -31t-79 -56t-50.5 -106.5t-36.5 -156t-31 -227q-14 -111 -20 -170t-8.5 -130z" />
<glyph unicode="&#x153;" horiz-adv-x="1808" d="M144.5 269q-5.5 85 15.5 206q20 160 45.5 248t83 146.5t139.5 77t225 18.5q158 0 241 -26t118 -93q96 119 385 119q279 0 344 -97q61 -90 33 -315q-2 -23 -17 -111q-295 -16 -319 -16l-283 6l-57 45q-20 14 -35 15q-39 0 -43 -64q-27 -188 29 -260q61 -78 256 -78 q84 0 169 8t128 17l45 8l6 -96q-139 -41 -350 -41q-229 0 -320 67q-37 29 -55 64q-51 -74 -141.5 -102.5t-254.5 -28.5q-115 0 -184 12t-119.5 44t-64.5 87t-19.5 140zM280.5 325.5q-4.5 -55.5 2 -103.5t20.5 -70.5t48 -39t77 -20.5t117 -4q109 0 164 10.5t95 55.5 t56.5 113.5t32.5 207.5q12 94 16 149.5t-3 103.5t-21.5 70.5t-49 39t-77.5 20.5t-117 4q-109 0 -163 -10t-94 -55t-55.5 -113t-31.5 -209q-12 -94 -16.5 -149.5zM1036 545q61 -10 137 -14.5t121 -4.5h47q178 0 293 9q10 76 11.5 127t-8 88.5t-25 59t-49 34t-70.5 15.5t-98 3 q-57 0 -99.5 -2t-77 -11t-57 -17.5t-41 -30t-30 -39t-21.5 -57t-16.5 -70.5t-16.5 -90z" />
<glyph unicode="&#x178;" horiz-adv-x="1269" d="M205 1270l12 94h344l-12 -94l-76 -15q-29 -4 -33 -36l-45 -375q-23 -184 38 -238.5t288 -54.5q80 0 182.5 21.5t138.5 33.5l76 613q4 33 -24 36l-72 15l12 94h344l-12 -94l-76 -15q-29 -4 -33 -36l-100 -822q-12 -94 -24.5 -147t-45 -111.5t-87 -87t-148.5 -47 t-231 -18.5q-104 0 -203 9t-144 17l-47 11l31 110q150 -31 379 -31q127 0 199.5 14.5t110.5 58.5t49.5 85t21.5 135l14 113q4 43 -31 43q-12 0 -36 -16l-140 -89q-102 -14 -196 -14q-250 0 -326 89t-49 313l47 385q4 33 -25 36zM561 1520l19 149h159l-18 -149h-160z M924 1520l18 149h160l-19 -149h-159z" />
<glyph unicode="&#x2c6;" horiz-adv-x="667" d="M236 1141l266 209l209 -209l-60 -72l-166 152l-204 -152z" />
<glyph unicode="&#x2dc;" horiz-adv-x="694" d="M238 1151q45 68 80.5 95.5t80.5 27.5q37 0 109 -39q74 -39 96 -39q33 0 76 76l68 -51q-80 -125 -160 -125q-37 0 -109 39q-70 37 -96 36q-23 0 -38 -14t-40 -57z" />
<glyph unicode="&#x3bc;" horiz-adv-x="954" d="M995 952l-65 -530q-14 -119 -41 -207q-41 -125 -173 -182.5t-274.5 -43t-226.5 80.5l-57 -471h-131l166 1353h131l-62 -489q0 -8 -4 -51t-8 -68q-12 -123 29 -170q61 -66 210.5 -65.5t225.5 65.5q57 49 73 170q14 100 17 119l59 489h131z" />
<glyph unicode="&#x2000;" horiz-adv-x="937" />
<glyph unicode="&#x2001;" horiz-adv-x="1878" />
<glyph unicode="&#x2002;" horiz-adv-x="937" />
<glyph unicode="&#x2003;" horiz-adv-x="1878" />
<glyph unicode="&#x2004;" horiz-adv-x="624" />
<glyph unicode="&#x2005;" horiz-adv-x="468" />
<glyph unicode="&#x2006;" horiz-adv-x="311" />
<glyph unicode="&#x2007;" horiz-adv-x="311" />
<glyph unicode="&#x2008;" horiz-adv-x="233" />
<glyph unicode="&#x2009;" horiz-adv-x="374" />
<glyph unicode="&#x200a;" horiz-adv-x="102" />
<glyph unicode="&#x2010;" horiz-adv-x="577" d="M150 430l16 133h385l-16 -133h-385z" />
<glyph unicode="&#x2011;" horiz-adv-x="577" d="M150 430l16 133h385l-16 -133h-385z" />
<glyph unicode="&#x2012;" horiz-adv-x="577" d="M150 430l16 133h385l-16 -133h-385z" />
<glyph unicode="&#x2013;" horiz-adv-x="921" d="M150 430l16 133h729l-16 -133h-729z" />
<glyph unicode="&#x2014;" horiz-adv-x="1468" d="M150 430l18 133h1274l-17 -133h-1275z" />
<glyph unicode="&#x2018;" horiz-adv-x="397" d="M236 1098l20 166l137 235h103l-136 -235h74l-20 -166h-178z" />
<glyph unicode="&#x2019;" horiz-adv-x="397" d="M205 963l135 235h-74l21 166h178l-21 -166l-137 -235h-102z" />
<glyph unicode="&#x201a;" horiz-adv-x="397" d="M57 -236l136 236h-74l20 166h178l-20 -166l-137 -236h-103z" />
<glyph unicode="&#x201c;" horiz-adv-x="700" d="M236 1098l20 166l137 235h103l-136 -235h74l-20 -166h-178zM539 1098l20 166l137 235h103l-135 -235h73l-20 -166h-178z" />
<glyph unicode="&#x201d;" horiz-adv-x="700" d="M205 963l135 235h-74l21 166h178l-21 -166l-137 -235h-102zM508 963l135 235h-74l21 166h178l-20 -166l-138 -235h-102z" />
<glyph unicode="&#x201e;" horiz-adv-x="700" d="M57 -236l136 236h-74l20 166h178l-20 -166l-137 -236h-103zM360 -236l136 236h-74l20 166h179l-21 -166l-137 -236h-103z" />
<glyph unicode="&#x2022;" horiz-adv-x="727" d="M174 692q14 119 106.5 202t206.5 81q113 -2 182.5 -84t55.5 -199q-16 -117 -105.5 -199.5t-201.5 -84.5q-115 -2 -186.5 81.5t-57.5 202.5z" />
<glyph unicode="&#x2026;" horiz-adv-x="1114" d="M100 0l23 186h207l-23 -186h-207zM455 0l22 186h207l-25 -186h-204zM807 0l22 186h207l-22 -186h-207z" />
<glyph unicode="&#x202f;" horiz-adv-x="374" />
<glyph unicode="&#x2039;" horiz-adv-x="532" d="M160 524l286 518l89 -61l-252 -457l161 -458l-98 -66z" />
<glyph unicode="&#x203a;" horiz-adv-x="532" d="M104 66l273 458l-139 457l102 61l160 -518l-314 -524z" />
<glyph unicode="&#x205f;" horiz-adv-x="468" />
<glyph unicode="&#x20ac;" d="M125 481l14 117h154q2 27 10 84q2 33 10 84h-153l14 117h160q55 279 168 383q125 113 459 112q211 0 471 -55l-35 -119q-268 47 -439 47q-266 0 -354 -77q-86 -76 -127 -291h590l-14 -117h-596q-8 -51 -11 -86q-8 -59 -10 -82h596l-14 -117h-590q-8 -213 59 -293 q41 -47 122 -64.5t220 -17.5q92 0 202 11.5t173 21.5l64 13l6 -113q-242 -53 -475 -53q-174 0 -278.5 25.5t-158.5 88.5q-90 104 -77 381h-160z" />
<glyph unicode="&#x2122;" horiz-adv-x="1710" d="M223 1274l13 90h608l-13 -90h-256l-83 -686h-97l84 686h-256zM838 588l96 776h211l170 -401q0 -8 8 -9q4 0 12 9l262 401h213l-96 -776h-92l84 682q4 31 -20 30q-16 0 -31 -22l-293 -424h-105l-188 424q-12 23 -25 22q-25 0 -30 -30l-82 -682h-94z" />
<glyph unicode="&#xe000;" horiz-adv-x="950" d="M0 950h950v-950h-950v950z" />
<glyph unicode="&#xfb01;" horiz-adv-x="1021" d="M129 0l10 80l54 10q31 6 34 37l88 725h-180l12 100h181l16 129q12 96 37 157.5t86 102.5q68 43 215 43l236 -12l-21 -100q-113 8 -199 8q-152 0 -190 -61q-23 -35 -39 -177q-2 -14 -4 -24l-8 -66h510l-103 -823q-2 -20 3 -27.5t22 -9.5l53 -10l-10 -82h-293l10 80l53 10 q18 4 24.5 11.5t8.5 25.5l86 688q2 37 -28 37h-349l-88 -723q-2 -12 -1 -20.5t6.5 -11.5t17.5 -5l53 -10l-10 -82h-293z" />
<glyph unicode="&#xfb02;" horiz-adv-x="1021" d="M129 0l10 80l54 10q31 6 34 37l88 725h-180l12 100h181l16 129q12 96 37 157.5t86 102.5q68 43 215 43q106 0 332 -30l-150 -1225q-2 -20 3 -26.5t22 -10.5l53 -10l-10 -82h-293l10 80l53 10q18 4 24.5 11.5t8.5 25.5l90 725h-381l-88 -723q-2 -12 -1 -20.5t6.5 -11.5 t17.5 -5l53 -10l-10 -82h-293zM457 952h381l39 314q-82 16 -177 16q-137 0 -172 -33q-10 -10 -17 -21t-13 -30l-11 -31q-4 -12 -8 -37.5t-5 -35t-5 -40t-4 -36.5z" />
<glyph unicode="&#xfb03;" horiz-adv-x="1757" d="M1374 0l11 80l53 10q31 6 35 37l84 696q2 12 1 20.5t-6.5 11.5t-17.5 5l-53 10l10 82h211l-100 -823q-2 -12 -1 -20.5t6 -11.5t17 -5l53 -10l-10 -82h-293zM1565 1208l20 156h162l-20 -156h-162zM766 0l10 80l54 10q31 6 34 37l88 725h-180l12 100h181l16 129 q12 96 37 157.5t86 102.5q68 43 215 43l154 -14l-21 -94q-66 8 -127 8q-123 0 -160 -35q-39 -37 -55 -170l-16 -127h301l-13 -100h-301l-88 -723q-2 -12 -1 -20.5t6.5 -11.5t17.5 -5l53 -10l-10 -82h-293zM129 0l10 80l54 10q31 6 34 37l88 725h-180l12 100h181l16 129 q12 96 37 157.5t86 102.5q68 43 215 43l154 -14l-21 -94q-66 8 -127 8q-123 0 -160 -35q-39 -37 -55 -170l-16 -127h301l-13 -100h-301l-88 -723q-2 -12 -1 -20.5t6.5 -11.5t17.5 -5l53 -10l-10 -82h-293z" />
<glyph unicode="&#xfb04;" horiz-adv-x="1736" d="M1354 0l10 80l53 10q31 6 35 37l135 1108q2 20 -2 27.5t-22 9.5l-51 10l10 82h211l-152 -1235q-2 -12 -1 -20.5t6 -11.5t18 -5l53 -10l-10 -82h-293zM766 0l10 80l54 10q31 6 34 37l88 725h-180l12 100h181l16 129q12 96 37 157.5t86 102.5q68 43 215 43l154 -14l-21 -94 q-66 8 -127 8q-123 0 -160 -35q-39 -37 -55 -170l-16 -127h301l-13 -100h-301l-88 -723q-2 -12 -1 -20.5t6.5 -11.5t17.5 -5l53 -10l-10 -82h-293zM129 0l10 80l54 10q31 6 34 37l88 725h-180l12 100h181l16 129q12 96 37 157.5t86 102.5q68 43 215 43l154 -14l-21 -94 q-66 8 -127 8q-123 0 -160 -35q-39 -37 -55 -170l-16 -127h301l-13 -100h-301l-88 -723q-2 -12 -1 -20.5t6.5 -11.5t17.5 -5l53 -10l-10 -82h-293z" />
</font>
</defs>
</svg>
