<?xml version="1.0" standalone="no"?>
<!DOCTYPE svg PUBLIC "-//W3C//DTD SVG 1.1//EN" "http://www.w3.org/Graphics/SVG/1.1/DTD/svg11.dtd" >
<svg xmlns="http://www.w3.org/2000/svg">
<metadata>
This is a custom SVG webfont generated by Font Squirrel.
Copyright   : Copyright c SIL International 19972007 All rights reserved
Foundry     : SIL International
Foundry URL : wwwsilorg
</metadata>
<defs>
<font id="webfontNWHt3Q3t" horiz-adv-x="1150" >
<font-face units-per-em="2048" ascent="1638" descent="-410" />
<missing-glyph horiz-adv-x="598" />
<glyph unicode=" "  horiz-adv-x="598" />
<glyph unicode="&#x09;" horiz-adv-x="598" />
<glyph unicode="&#xa0;" horiz-adv-x="598" />
<glyph unicode="!" horiz-adv-x="690" d="M221 102.5q0 24.5 10.5 49t24.5 38.5q16 16 41 26.5t49.5 10.5t49 -10t40.5 -27q18 -18 27 -38q10 -25 10 -49.5t-10 -49.5q-8 -20 -26.5 -38.5t-41.5 -28.5q-25 -10 -49 -10.5t-49 10.5q-23 10 -41 28q-14 14 -24.5 39t-10.5 49.5zM221 1274q0 61 31 98q29 35 94.5 35 t93.5 -35q31 -37 31 -98q0 -2 -1 -8t-2 -17.5t-1 -23.5q-4 -43 -8 -107q-4 -76 -10 -145q-2 -39 -6.5 -79t-8.5 -83l-37 -440h-100q-10 129 -20.5 239.5l-18.5 200.5l-12 162q-6 86 -13 145q-4 63 -8 107q0 12 -1 23.5t-2 17.5t-1 8z" />
<glyph unicode="&#x22;" horiz-adv-x="681" d="M88 1362q0 47 22.5 73.5t65.5 26.5q41 0 63.5 -26.5t22.5 -73.5l-69 -500h-33zM420 1362q0 47 22.5 73.5t63.5 26.5q43 0 65.5 -26.5t22.5 -73.5l-72 -500h-33z" />
<glyph unicode="#" horiz-adv-x="1521" d="M127 467v102h324l100 293h-332v105h367l164 483l104 -33l-158 -450h299l162 483l109 -33l-156 -450h287v-105h-324l-96 -293h330v-102h-367l-172 -514l-102 33l159 481h-297l-174 -514l-100 35l164 479h-291zM563 569h297l101 293h-297z" />
<glyph unicode="$" d="M119 53v348h102l37 -229q15 -18 43 -31q31 -14 66 -22q27 -6 79 -15q29 -4 86 -4v518q-68 15 -135 44q-66 27 -121 69.5t-89.5 108t-34.5 151.5q0 63 18 113q20 55 45 90q27 37 68 69.5t79 51.5q35 18 89 33q57 16 84 20v154h94v-148q47 0 129 -8q49 -4 110 -16 q10 -2 49 -10.5t60 -12.5v-323h-107l-30 217q-49 53 -211 53v-488q25 -6 48 -14t44 -14q61 -20 92 -35q39 -18 84 -49q39 -27 72 -70q27 -35 47 -92q18 -52 18 -123q0 -68 -20.5 -117t-55.5 -94q-37 -45 -77 -76q-49 -35 -88 -53q-53 -25 -88 -35q-37 -10 -78 -14v-211h-95 v211q-12 2 -42.5 3t-45.5 1q-29 2 -104 10q-74 8 -113 15q-53 8 -108 24zM342 1032q0 -49 18 -86q18 -35 48 -61q28 -25 61 -43q16 -10 66 -29v453q-47 -10 -76 -27q-39 -20 -62 -47q-25 -29 -41 -70q-14 -37 -14 -90zM627 109q45 6 84 24.5t69 48.5q33 33 49 72 q18 43 19 96q0 55 -19 96q-18 40 -49 68q-35 31 -69 47q-27 12 -84 33v-485z" />
<glyph unicode="%" horiz-adv-x="1759" d="M66 977q0 82 20 170q18 76 59 137q37 55 99 90q57 33 137 33t137 -33q61 -35 98 -90q41 -61 60 -137q18 -80 18 -170t-18 -170q-18 -76 -60 -137q-37 -55 -98 -90q-57 -33 -137 -33t-137 33q-61 35 -99 90q-41 61 -59 137q-20 88 -20 170zM219 977q0 -74 10.5 -145.5 t28.5 -110.5q23 -49 51 -72q31 -25 72 -24.5t72 24.5q27 23 47 72t28 110q8 57 8.5 145.5t-8.5 145.5q-8 61 -28.5 110.5t-46.5 72.5q-31 25 -72 24.5t-72 -24.5q-29 -23 -51 -72q-18 -39 -28.5 -110.5t-10.5 -145.5zM383 0l870 1374h127l-868 -1374h-129zM1067 397 q0 82 20 170q18 80 58 138q37 55 98 90q57 33 139 32q80 0 138 -32q61 -35 98 -90q41 -61 59 -138q18 -80 18.5 -170t-18.5 -170q-18 -76 -59 -137q-37 -55 -98 -90q-57 -33 -138 -33q-82 0 -139 33q-61 35 -98 90q-39 57 -58 137q-20 88 -20 170zM1221 397q0 -74 10 -145 q10 -74 29 -113q23 -49 51 -71q31 -25 71.5 -25t71.5 25q27 23 47.5 71.5t28.5 112.5q8 57 8 145t-8 146q-8 61 -28.5 110t-47.5 72q-31 25 -72 25t-71 -25q-29 -23 -51 -72q-18 -39 -28.5 -110.5t-10.5 -145.5z" />
<glyph unicode="&#x26;" horiz-adv-x="1431" d="M80 381q0 70 20 123q25 66 56 100q37 43 88 78q53 37 110 59l-47 47q-37 41 -55 68q-27 39 -49 90q-20 47 -21 109q0 82 29 141q31 63 82 109q53 47 125 71q71 25 153 25q84 0 144 -23q63 -25 114 -65q47 -37 76 -96q27 -53 27 -125t-27 -131q-25 -55 -67 -99 q-45 -45 -97 -74q-55 -31 -110 -55l344 -371q31 43 35 50q16 25 34 61q18 35 29 66q14 39 17 63q0 10 -10.5 22.5t-24.5 16.5l-111 16v86h420v-86l-147 -22q-18 -63 -35 -100q-29 -66 -45 -95q-45 -80 -47 -82q-25 -39 -48 -69l166 -191l183 -10v-88h-377v49l-92 103 q-57 -47 -82 -64q-39 -27 -95 -55q-53 -27 -108 -41q-61 -16 -131 -17q-89 0 -166 31q-80 33 -135 84q-58 55 -92 129q-33 72 -33 162zM287 428q0 -66 22 -127q20 -57 64 -102q37 -41 94 -66q55 -25 117 -24q41 0 86 10q35 8 71 24q29 12 60 37l55 43l-422 459 q-20 -14 -57 -47q-23 -20 -47 -55q-16 -23 -31 -68q-12 -37 -12 -84zM367 1108q0 -49 20 -96q18 -45 47 -82q28 -37 62 -68l61 -59q46 22 80 49q35 29 57 59q25 35 37 76q12 43 12 92q0 43 -12 84q-12 43 -35 70q-27 33 -59 49q-37 18 -86 18q-39 0 -76 -16q-31 -14 -57 -41 q-25 -25 -37 -59q-14 -39 -14 -76z" />
<glyph unicode="'" horiz-adv-x="348" d="M88 1362q0 47 22.5 73.5t63.5 26.5q43 0 65.5 -26.5t22.5 -73.5l-69 -500h-33z" />
<glyph unicode="(" horiz-adv-x="768" d="M121 590q0 168 31 319q29 141 100 269q68 120 178 196q109 76 272 94v-90q-109 -18 -182 -80q-76 -63 -121 -161q-46 -101 -67 -240q-20 -131 -21 -307q0 -178 21 -309q22 -138 67 -240q45 -98 121 -162q74 -61 182 -80v-90q-109 12 -192 51q-86 41 -148 99 q-65 61 -110 141q-51 90 -76 172q-29 100 -41 201q-14 123 -14 217z" />
<glyph unicode=")" horiz-adv-x="768" d="M70 -201q109 18 182 80q76 63 121 162q43 94 65 240q20 131 21 309q0 176 -21 307q-23 145 -65 240q-45 98 -121 161q-74 61 -182 80v90q164 -18 272 -94q111 -77 178 -196q72 -127 101 -269q31 -152 30 -319q0 -94 -14 -217q-12 -100 -41 -201q-25 -82 -76 -172 q-46 -80 -110 -141q-61 -57 -148 -99q-84 -39 -192 -51v90z" />
<glyph unicode="*" horiz-adv-x="1024" d="M109 1167l145 43l221 -145l-8 -29l-266 15zM264 690l4 152l207 166l25 -19l-94 -246zM428 1341l84 125l86 -125l-72 -256h-28zM524 989l25 19l207 -166l4 -152l-142 53zM549 1065l221 145l145 -43l-92 -116l-264 -15z" />
<glyph unicode="+" horiz-adv-x="2048" d="M410 551v127h551v551h126v-551h551v-127h-551v-551h-126v551h-551z" />
<glyph unicode="," horiz-adv-x="571" d="M66 -274q55 12 96 32q47 25 71 54q27 33 43 84q14 45 15 118h-129l-8 9q-4 4 -13 20q-4 8 -12 29q-4 10 -4 36.5t10 53.5q10 25 27 45q14 16 39 31q20 12 51 12q49 0 76 -17q33 -20 53 -49q22 -31 31 -73q10 -47 10 -91q0 -82 -29 -141q-31 -66 -80 -115 q-47 -47 -112 -77q-59 -29 -135 -35v74z" />
<glyph unicode="-" horiz-adv-x="653" d="M90 416v153h475v-153h-475z" />
<glyph unicode="." horiz-adv-x="571" d="M401 112.5q0 -28.5 -12 -53.5q-14 -29 -29 -43q-16 -16 -45 -30q-20 -10 -53 -10.5t-53 10.5q-25 12 -43 30q-23 23 -31 43q-10 27 -10 53.5t10 53.5q8 20 31 43q18 18 43 31q20 10 53 10t53 -10q29 -14 45 -31q14 -14 29 -43q12 -25 12 -53.5z" />
<glyph unicode="/" horiz-adv-x="1003" d="M0 -190l872 1564h132l-873 -1564h-131z" />
<glyph unicode="0" d="M82 686q0 80 14 188q12 96 39 173q31 86 68 147q41 68 96 113q53 45 125 73q66 27 151 27q84 0 152 -27q70 -27 125 -73q55 -45 96 -113q37 -61 68 -147q29 -84 41 -173q14 -109 14 -188q0 -150 -30.5 -278.5t-92.5 -227.5q-59 -94 -155 -155q-90 -57 -217 -57.5 t-218 57.5q-96 61 -155 155q-57 92 -90 228q-31 128 -31 278zM297 686q0 -77 6 -154q6 -76 19 -143q14 -76 32 -127q23 -59 52 -100q31 -43 73.5 -67.5t96 -24.5t96.5 24q39 23 71 68q33 47 54 100q18 51 32 127q12 68 19 143q6 77 6 154q0 76 -6 152q-6 78 -19 145 q-14 76 -32 127q-20 57 -53 102t-72 68q-43 25 -96.5 25t-96.5 -25t-73 -68q-29 -39 -52 -102q-18 -51 -32 -127q-12 -68 -19 -145q-6 -76 -6 -152z" />
<glyph unicode="1" d="M156 1178v92l442 137h78v-1262q0 -20 12 -32.5t33 -12.5l192 -8v-92h-692v92l207 8q20 0 32.5 12.5t12.5 32.5v1088z" />
<glyph unicode="2" d="M96 0v137l287 238q132 108 227 209q96 102 148 198q53 100 53 205q0 78 -23 131q-25 59 -63 99q-35 35 -94 59q-49 20 -113 20q-39 0 -65.5 -8t-51.5 -18q-29 -12 -36 -19q-10 -8 -17 -8v-227l-26 -19q-12 -6 -31 -12q-12 -4 -43 -4q-16 0 -45 8q-20 6 -41 23 q-16 14 -27 37q-10 25 -10 53q0 66 37 121q39 57 98 96q66 43 143 65q76 23 172 23q98 0 185 -29q78 -27 143 -82q61 -51 94 -125q35 -76 35 -163q0 -68 -28 -142q-31 -76 -76 -139q-49 -68 -117 -135q-82 -80 -147 -137l-170 -140l-181 -143h607l36 176h101v-348h-961z" />
<glyph unicode="3" d="M96 209q0 16 8 41q6 18 23 35q15 15 37 24q25 10 53 10q20 0 35 -2q23 -4 35 -12l61 -182q39 -20 84 -36.5t94 -16.5q76 0 131 26q57 27 101 74q45 49 65 102q23 61 23 119q0 74 -29 125q-27 45 -74 78q-47 31 -100 43q-55 12 -104 12q-10 0 -26.5 -1t-23.5 -1 q-29 0 -40 -2q-6 0 -17.5 -1t-17.5 -3v127h20q6 0 17.5 -1t15.5 -1q61 0 123 16q59 16 106 47q43 29 72 80q27 47 27 117q0 63 -23 115q-23 49 -59 84q-35 33 -86 51q-49 18 -101 18q-39 0 -75 -10q-45 -12 -58 -18q-29 -12 -51 -29v-205q-6 -2 -30.5 -14t-61.5 -12 q-16 0 -39 6q-20 6 -39 18q-14 10 -29 35q-12 22 -12 55q0 58 37 111q39 55 96 92q61 39 146 61q86 23 174 23q89 0 166 -25q76 -25 133 -71q53 -45 88 -111q33 -63 33 -147q0 -117 -82 -201q-84 -88 -234 -129q72 -4 129 -23q72 -25 121 -61q51 -39 86 -102q33 -59 33 -146 q0 -96 -43 -172q-45 -82 -115 -133q-80 -59 -170 -88q-98 -31 -209 -31q-109 0 -182 23q-86 27 -133 59q-55 39 -82 80t-27 80z" />
<glyph unicode="4" d="M82 408v141l672 858h143v-860h174v-139h-174v-441h-192v441h-623zM244 547h461v598z" />
<glyph unicode="5" d="M92 209q0 55 37 86q35 29 92 29q12 0 33 -5q4 0 9 -1t8 -2t5 -1l78 -188q16 -16 31 -23l43 -18l43 -12q20 -6 41 -6q78 0 143.5 30.5t106.5 77.5q45 51 65 107q23 61 23 112q0 88 -27 150q-25 59 -73 104q-45 41 -111 64q-61 20 -139 20q-61 0 -107 -10q-74 -16 -106 -25 q-39 -10 -113 -34v710h791v-174h-646v-389q2 0 25 8q27 10 64 19q45 10 88 18t100 8q102 0 192 -28q84 -27 146 -82q55 -49 92 -133q33 -74 33 -177q0 -106 -37 -192q-37 -84 -111 -150q-72 -61 -182 -100q-102 -35 -248 -35q-78 0 -151 23q-66 20 -123 57q-49 33 -84 80 q-31 43 -31 82z" />
<glyph unicode="6" d="M82 588q0 182 55 334q57 154 160 260q106 109 256 166q156 59 348 59v-127l-70 2q-98 2 -186 -30.5t-160 -102.5q-72 -68 -119 -164t-63 -219q86 74 170 100q90 29 172 29q98 0 176 -33q80 -33 133 -90q57 -59 86 -133q31 -78 31 -170q0 -115 -39 -205q-41 -96 -106 -158 q-70 -66 -158 -102.5t-195 -36.5q-109 0 -194 33q-90 35 -156 109q-68 76 -102 192q-39 127 -39 287zM293 547q0 -100 16 -193q14 -84 51 -149q35 -63 86 -96q53 -35 127 -35q72 0 129 28q45 23 89 80q33 45 53 117q18 68 18 143q0 68 -20 133q-18 59 -56 103q-35 39 -92 63 q-49 20 -121 21q-20 0 -69 -8q-20 -4 -72 -21q-25 -8 -70 -33q-33 -16 -65 -41q-4 -41 -4 -61v-51z" />
<glyph unicode="7" d="M86 1014v360h981v-114l-672 -1225v-68h-217l676 1233h-631l-33 -186h-104z" />
<glyph unicode="8" d="M82 369q0 70 24 125q23 51 66 94t92 71q47 29 111 52q-41 18 -84 45q-45 29 -78 67q-35 41 -55.5 88t-20.5 111q0 89 31 160q31 72 90 121q61 51 137 77q78 27 180 27q96 0 174 -26.5t140 -75.5q58 -46 92 -111q33 -63 33 -139q0 -65 -25 -117q-27 -57 -61 -94 q-39 -43 -80 -72t-84 -49q49 -18 102 -45q55 -29 101 -70q47 -43 73 -100q29 -61 29 -135q0 -88 -37 -162q-35 -70 -104 -129q-59 -51 -156 -84q-89 -31 -197 -31q-113 0 -204 31q-94 31 -156 84q-66 57 -98 127q-35 76 -35 160zM272 385q0 -68 19 -123q16 -47 57 -96 q37 -43 96 -66q61 -23 131 -22q63 0 119 22.5t90.5 57.5t57.5 84q20 43 20 98q0 68 -26 109q-28 43 -80 79q-51 35 -127 68l-172 70q-27 -14 -72 -48q-35 -25 -59 -59q-23 -33 -39 -76q-15 -41 -15 -98zM340 1069q0 -53 22 -98q20 -41 66 -80q41 -35 107 -68q82 -41 141 -61 q27 18 59 51q23 23 47 61q16 25 31 74q12 39 12 88q0 66 -20 113q-25 55 -53 84q-33 33 -80 51q-45 18 -97 19q-53 0 -96 -19q-39 -16 -73 -51q-29 -29 -50 -76q-16 -39 -16 -88z" />
<glyph unicode="9" d="M82 903q0 115 39 205q43 98 104 160q63 63 158 102q88 37 195 37q100 0 192 -35t158 -106q68 -74 104 -193q39 -127 39 -287q0 -184 -55 -333q-57 -154 -160 -260q-104 -108 -258 -166q-156 -59 -348 -60v127l69 -2q98 -2 186.5 31t160.5 102q74 72 120 164q49 96 64 219 q-47 -41 -84 -61q-39 -23 -86 -39t-86 -23q-43 -6 -86 -6q-90 0 -176 33q-74 29 -133 88q-55 55 -86 133t-31 170zM289 932q0 -70 20 -135q18 -57 56 -101q35 -39 92 -63q49 -20 121 -21q33 0 69 6q8 2 72 23q25 8 69 33q33 16 66 41q4 41 4 61v51q0 100 -16 193 q-14 84 -51 149q-35 63 -86 97q-53 35 -127 34q-72 0 -129 -28q-47 -25 -89 -78q-33 -43 -53 -119q-18 -67 -18 -143z" />
<glyph unicode=":" horiz-adv-x="571" d="M125 112.5q0 26.5 10 53.5q8 20 31 43q18 18 43 31q20 10 53 10t53 -10q29 -14 45 -31q14 -14 29 -43q12 -25 12 -53.5t-12 -53.5q-14 -29 -29 -43q-16 -16 -45 -30q-20 -10 -53 -10.5t-53 10.5q-25 12 -43 30q-23 23 -31 43q-10 27 -10 53.5zM125 874q0 27 10 54 q8 20 31 43q18 18 43 30q20 10 53 10.5t53 -10.5q29 -14 45 -30q14 -14 29 -43q12 -25 12 -53.5t-12 -53.5q-14 -29 -29 -43q-16 -16 -45 -30q-20 -10 -53 -10.5t-53 10.5q-25 12 -43 30q-23 23 -31 43q-10 26 -10 53z" />
<glyph unicode=";" horiz-adv-x="571" d="M66 -274q55 12 96 32q47 25 71 54q27 33 43 84q14 45 15 118h-129l-8 9q-4 4 -13 20q-4 8 -12 29q-4 10 -4 36.5t10 53.5q10 25 27 45q14 16 39 31q20 12 51 12q49 0 76 -17q33 -20 53 -49q22 -31 31 -73q10 -47 10 -91q0 -82 -29 -141q-31 -66 -80 -115 q-47 -47 -112 -77q-59 -29 -135 -35v74zM125 874q0 33 10 54q12 25 31 43q16 16 45 30q20 10 53 10.5t53 -10.5q25 -12 43 -30q20 -20 29 -43q10 -27 10 -53.5t-10 -53.5q-8 -20 -31 -43q-18 -18 -43 -30q-20 -10 -53 -10.5t-53 10.5q-25 12 -43 30q-23 23 -31 43 q-10 26 -10 53z" />
<glyph unicode="&#x3c;" horiz-adv-x="2048" d="M410 551v127l1228 471v-127l-1097 -408l1097 -407v-127z" />
<glyph unicode="=" horiz-adv-x="2048" d="M410 365v127h1228v-127h-1228zM410 737v127h1228v-127h-1228z" />
<glyph unicode="&#x3e;" horiz-adv-x="2048" d="M410 80v127l1097 407l-1097 408v127l1228 -471v-127z" />
<glyph unicode="?" horiz-adv-x="993" d="M102 1206q0 35 19 72q18 35 61 65q39 27 100.5 45.5t145.5 18.5q86 0 170 -27q68 -20 133 -73q53 -43 90 -115q33 -66 33 -152q0 -66 -18 -118q-20 -59 -48 -97q-35 -47 -69 -77q-53 -45 -82 -64q-35 -23 -88 -49q-4 -2 -84 -39v-227h-115v297q51 16 101 45q55 33 96 73 q43 43 71.5 104.5t28.5 135.5q0 143 -75.5 213t-217.5 70l-84 -209h-16q-2 0 -5 -1t-5 -1h-8q-27 0 -52 6q-20 4 -43 20q-20 14 -28 33q-11 24 -11 51zM285 102q0 25 10 50q8 20 26.5 38.5t38.5 26.5q25 10 50 10q27 0 51 -10q23 -8 39 -27q16 -16 26.5 -40.5t10.5 -49 t-11 -49.5q-10 -23 -26.5 -39t-41 -26.5t-49 -10.5t-49.5 11q-20 10 -38 26q-16 16 -26.5 40.5t-10.5 49.5z" />
<glyph unicode="@" horiz-adv-x="1916" d="M150 489q0 150 36.5 279t100.5 231q61 100 151 181q88 78 191 131q96 49 213 78q109 27 227 26q152 0 281 -43q131 -43 221 -125q96 -86 145 -203q53 -125 53 -280q0 -98 -22 -193q-22 -89 -61 -159q-47 -82 -89 -129q-47 -51 -106 -93q-61 -41 -113 -57 q-59 -18 -108 -18q-86 0 -123 43t-37 127q-88 -88 -152 -125q-74 -43 -145 -43q-55 0 -102 24q-53 29 -82 66q-35 43 -54 106q-18 61 -18 138q0 119 43 219q45 104 114.5 178t164.5 117q92 43 188 43q14 0 47 -4q16 -2 53 -11q4 -2 52 -18q29 -10 49 -23l37 47h114 q-4 -10 -10 -36q-6 -29 -16 -72l-23 -98l-24 -111l-33 -147.5l-33 -143.5q-8 -31 -8 -65q0 -31 8 -49.5t29 -32.5q18 -12 47 -13q45 0 100 37t102.5 106.5t77.5 166.5q33 104 33 221q0 143 -49 250q-47 104 -129 176q-76 68 -184.5 102.5t-210.5 34.5q-121 0 -222 -27 q-92 -25 -192 -79q-86 -47 -160 -121q-70 -70 -121 -162q-51 -94 -77 -193q-27 -100 -27 -217q0 -156 49 -290q51 -141 139 -236q92 -98 226 -154q137 -57 303 -57q96 0 168 14q96 18 145 35q68 22 123 49l104 54l29 -74l-141 -70q-63 -31 -148 -57q-70 -23 -159 -39 q-78 -14 -170 -14q-109 0 -213 24q-92 23 -193 74q-96 49 -166 117q-78 74 -129 157.5t-84 196.5q-30 108 -30 233zM745 469q0 -113 41 -166q43 -55 119 -55q29 0 66 14q31 12 57 33q18 14 47 43t39 43l82 424q4 14 -4 32.5t-25 39.5q-18 20 -41 32q-25 12 -51 13 q-80 0 -137 -35q-61 -37 -104 -99q-45 -63 -66 -143q-23 -86 -23 -176z" />
<glyph unicode="A" horiz-adv-x="1378" d="M10 0v88l119 25l477 1294h154l475 -1264q6 -20 14 -28.5t29 -10.5l92 -16v-88h-487v88l118 10q10 0 17 13q6 14 4 22l-141 375h-473l-136 -369q-3 -6 0 -12l2 -6q2 -6 5 -8q8 -8 12 -11q8 -4 10 -4l121 -10v-88h-412zM444 606h400l-201 537z" />
<glyph unicode="B" horiz-adv-x="1236" d="M66 0v88l108 8q25 4 33 17q10 16 10 28v1092q0 12 -10 29q-8 12 -33 16l-108 8v88h548q119 0 209 -22q88 -23 144 -66q57 -45 82 -104q27 -68 26 -138q0 -74 -28 -131q-25 -51 -74 -92q-39 -35 -96 -57q-63 -27 -97 -35q66 0 138 -16q57 -12 120 -56q51 -35 88 -100 q33 -59 33 -151q0 -84 -24.5 -145.5t-63.5 -106.5q-39 -43 -92 -76q-47 -29 -109 -47q-57 -18 -118 -25q-59 -6 -113 -6h-573zM422 106q33 -4 49 -4q14 -2 41 -2h37q109 0 182 19q76 18 119 53q45 35 65 90q20 53 21 127q0 141 -82 205q-84 66 -248 65q-35 0 -55 -2 q-10 0 -28.5 -1t-28.5 -3q-8 0 -23.5 -1t-24.5 -3q-14 -2 -24 -2v-541zM422 756h29q4 0 11 -1t11 -1h23q100 0 168 18q66 18 110 53q43 33 62 88q18 52 18 117q0 121 -78 187q-76 63 -237 63h-35q-6 0 -18.5 -1t-16.5 -1q-6 0 -15.5 -1t-13.5 -1t-10 -1t-8 -1v-518z" />
<glyph unicode="C" horiz-adv-x="1282" d="M1204 47l-39 -14q-12 -4 -92 -27q-49 -14 -127 -26q-74 -12 -151 -13q-119 0 -213 27q-92 27 -176 78q-76 47 -140 116q-57 61 -102 148q-41 76 -64 170q-20 84 -20 184q0 162 51 291q52 132 148 227q94 94 225 146q135 53 293 53q51 0 96 -6q61 -8 94 -15 q51 -10 103 -24q23 -6 37 -10t33.5 -11.5t43.5 -13.5v-321h-123l-30 186q-2 14 -15 29q-8 10 -20 18q-4 2 -14.5 6t-16.5 8q-4 2 -47 17q-37 12 -59 16q-35 6 -72 6q-109 0 -195 -39q-94 -43 -155 -114q-70 -84 -105 -189q-37 -115 -37 -260q0 -150 35 -256 q37 -117 103 -192q63 -76 163 -121q90 -41 218 -41q35 0 65 6l51 10q25 6 35 13q12 6 14 6q18 6 25 16q12 16 14 25l47 223h119v-332z" />
<glyph unicode="D" horiz-adv-x="1423" d="M1114 686q0 162 -37 275q-35 109 -108 182q-72 72 -168 102q-98 31 -219 31h-156v-1178l166 2q123 0 215 33q100 35 164 103q70 74 106 182q37 110 37 268zM1346 690q0 -100 -17 -176q-20 -92 -53 -162q-37 -77 -92 -141q-59 -68 -135 -113q-82 -47 -183 -71 q-111 -27 -231 -27h-569v88l108 8q23 4 33 17q12 14 12 28v1092q0 12 -12 29q-10 12 -33 16l-108 8v88h528q158 0 299 -41q131 -39 237 -125q98 -80 158 -213q58 -127 58 -305z" />
<glyph unicode="E" horiz-adv-x="1193" d="M66 0v88l106 8q23 4 33 17q12 14 12 28v1092q0 12 -12 29q-10 12 -33 16l-106 8v88h995v-305h-123l-31 168q-2 14 -12 27q-9 12 -25 12h-444v-510h307q12 0 24.5 12.5t12.5 22.5l21 141h104v-457h-104l-21 142q0 12 -12.5 24.5t-24.5 12.5h-307v-564h518q12 0 25 15 q8 10 12 24l37 203h110v-342h-1062z" />
<glyph unicode="F" horiz-adv-x="1107" d="M51 1286v88h996v-325h-121l-29 188q-2 14 -12 27q-8 10 -23 10h-436v-533h313q15 0 24.5 12.5t12.5 24.5l19 144h102v-461h-102l-19 143q-4 16 -12 25q-12 12 -25 12h-313v-500q0 -12 10 -28q8 -12 33 -17l137 -8v-88h-538v88l108 8q25 4 33 17q10 16 10 28v1092 q0 12 -10 29q-8 12 -33 16z" />
<glyph unicode="G" horiz-adv-x="1421" d="M80 690q0 164 51 293q52 132 148 227q92 92 233 146q135 51 309 51q58 0 111 -6q35 -4 100 -17q39 -8 96 -22l95 -25v-331h-123l-33 184q-4 20 -14 31q-12 12 -27 18q-8 4 -17.5 7t-19.5 7q-22 9 -49 19q-23 8 -59 14q-33 6 -68 6q-113 0 -203 -39q-92 -41 -157 -114 q-66 -76 -103 -185q-37 -111 -37 -254q0 -147 37 -261.5t105 -194.5q66 -76 166 -121q94 -41 217 -41q45 0 65 4q31 6 55 12q35 8 39 11q10 4 21 4v409q0 14 -10 29q-8 10 -33 14l-137 10v89h534v-89l-104 -10q-25 -4 -33 -14q-10 -14 -10 -29v-473q-76 -27 -131 -41 q-74 -18 -138 -28q-76 -12 -161 -13q-117 0 -211 27q-100 29 -178 76q-76 47 -140 116q-57 61 -102 148q-41 76 -64 170q-20 84 -20 186z" />
<glyph unicode="H" horiz-adv-x="1521" d="M66 0v88l106 8q23 4 33 17q12 14 12 28v1092q0 16 -12 28.5t-33 14.5l-106 8v90h518v-90l-117 -8q-25 -4 -33 -14q-10 -14 -10 -29v-461h674v461q0 18 -11 29q-10 12 -32 14l-117 8v90h518v-90l-106 -8q-23 -2 -33 -14q-12 -12 -12 -29v-1092q0 -14 12 -28q10 -12 33 -17 l106 -8v-88h-518v88l117 8q23 4 33 16.5t10 28.5v529h-674v-529q0 -12 10 -28q8 -12 33 -17l117 -8v-88h-518z" />
<glyph unicode="I" horiz-adv-x="675" d="M68 0v88l122 8q25 4 33 17q10 16 10 28v1092q0 14 -10 29q-8 10 -33 14l-122 8v90h540v-90l-125 -8q-20 -2 -32 -14q-10 -10 -11 -29v-1092q0 -16 10.5 -28.5t32.5 -16.5l125 -8v-88h-540z" />
<glyph unicode="J" horiz-adv-x="991" d="M821 1278q-23 -4 -33 -16.5t-10 -28.5v-715q0 -129 -24 -229q-27 -106 -76 -174t-139 -109q-84 -39 -211 -39q-55 0 -99 8q-49 9 -86 19q-27 6 -63 20q-6 2 -13.5 4t-11.5 5l-4 2v350h123l45 -250q3 -15 12 -25q10 -10 23 -16q14 -8 29 -10q10 -2 30 -2q72 0 119 26 q49 29 80 82q29 53 45 135q14 74 14 189v729q0 12 -10 29q-8 12 -33 16l-129 8v88h541v-88z" />
<glyph unicode="K" horiz-adv-x="1306" d="M66 0v88l108 8q25 4 33 17q10 16 10 28v1092q0 12 -10 29q-8 12 -33 16l-108 8v88h520v-88l-117 -8q-23 -4 -33 -16q-12 -16 -12 -29v-537h74l446 545q6 8 0 21q-6 10 -16 14l-105 10v88h434v-88q-41 -4 -65 -6l-24.5 -4t-22.5 -2q-6 0 -12.5 -1t-9.5 -2t-5 -1l-418 -500 l459 -672l148 -10v-88h-359v63l-381 547h-143v-469q0 -14 12 -28q10 -12 33 -17l117 -8v-88h-520z" />
<glyph unicode="L" horiz-adv-x="1085" d="M55 0v88l119 8q25 4 33 17q10 16 10 28v1092q0 12 -10 29q-8 12 -33 16l-119 8v88h523v-88l-109 -8q-23 -4 -33 -16q-12 -16 -12 -29v-1133h430q12 0 29 11q12 8 16 24l33 246h119v-381h-996z" />
<glyph unicode="M" horiz-adv-x="1792" d="M1214 0v88l109 8q23 4 33 17q12 14 12 28v1129l-471 -1270h-102l-455 1251v-1110q0 -14 12 -28q10 -12 33 -17l117 -8v-88h-443v88l117 8q25 4 33 17q10 16 10 28v1092q0 12 -10 29q-8 12 -33 16l-117 8v88h459v-55l371 -1006l371 1000v61h471v-88l-111 -8 q-23 -4 -33 -16q-12 -16 -12 -29v-1092q0 -14 12 -28q10 -12 33 -17l111 -8v-88h-517z" />
<glyph unicode="N" horiz-adv-x="1476" d="M51 1286v88h406v-51l682 -1030v940q0 16 -10.5 28.5t-32.5 16.5l-117 8v88h438v-88l-114 -8q-25 -4 -33 -16q-10 -16 -10 -29v-1233h-160l-762 1147v-1006q0 -12 10 -28q8 -12 33 -17l117 -8v-88h-443v88l117 8q23 4 33 17q12 14 12 28v1092q0 12 -12 29q-10 12 -33 16z " />
<glyph unicode="O" horiz-adv-x="1495" d="M80 688q0 145 47 281q45 129 133 229q84 96 211 154q123 55 277 55q156 0 276 -57q127 -61 211 -156q92 -106 135 -227q47 -135 47 -281q0 -150 -49 -280q-47 -127 -135 -228q-88 -102 -209 -155q-123 -55 -274 -56q-156 0 -275 53q-125 55 -211 152q-88 96 -137 229 q-47 127 -47 287zM315 688q0 -127 27 -233q29 -113 80 -195q51 -80 133 -131q80 -49 190.5 -49t192.5 49q80 47 135 131q51 76 80 193q27 106 27 231q0 129 -27 236q-29 111 -82 192q-59 88 -133 131q-82 47 -188 47q-111 0 -193 -49t-135 -129q-55 -84 -80 -192 q-27 -121 -27 -232z" />
<glyph unicode="P" horiz-adv-x="1185" d="M51 1286v88h490q139 0 252 -22q102 -20 176 -72q70 -47 102 -127q35 -82 35 -192q0 -115 -41 -197q-45 -88 -115 -141q-74 -55 -170 -82q-94 -27 -209 -27h-43q-8 0 -23.5 2t-21.5 2q-20 2 -37 2q-6 0 -16 2h-4v-381q0 -12 10 -28q8 -12 33 -17l135 -8v-88h-538v88l108 8 q23 4 33 17q12 14 12 28v1092q0 12 -12 29q-10 12 -33 16zM426 627l5 -1q5 -1 9 -1q6 0 31 -4q12 -2 37 -3q6 0 17.5 -1t15.5 -1q90 0 145 19q70 23 111 61q47 43 71 109q25 65 25 153q0 78 -21 134q-23 59 -63 98q-45 43 -113 63q-63 20 -166 21h-32h-33q-6 0 -18.5 -1 t-20.5 -1v-645z" />
<glyph unicode="Q" horiz-adv-x="1511" d="M80 686q0 96 22 193q22 92 62 172q41 82 98 145q59 66 135 113q82 51 164 73q90 25 193 25q157 0 282 -55q123 -53 213 -154q88 -96 137 -229q47 -127 48 -283q0 -141 -39 -258q-43 -129 -111 -213q-74 -92 -178 -154q-106 -63 -238 -84q4 -119 72 -182q72 -66 211 -65 q25 0 70 4q37 4 59 6q25 3 43 6t25 6v-88q-4 0 -16.5 -3t-22.5 -5l-70 -12q-51 -8 -90 -11q-66 -4 -105 -4q-111 0 -184 25q-80 27 -121 67q-51 49 -69 109q-20 61 -21 143q-131 20 -227 74q-104 57 -180 150q-76 90 -119 215q-43 122 -43 274zM319 690q0 -125 27 -231 q27 -111 82 -195q57 -88 135 -135q84 -49 192.5 -49t192.5 49q80 47 137 133q49 76 80 195q27 106 27 229q0 113 -27 232q-25 106 -78 192q-51 82 -137 133q-82 49 -194.5 49t-194.5 -49t-135 -129q-59 -88 -82 -192q-25 -111 -25 -232z" />
<glyph unicode="R" horiz-adv-x="1327" d="M66 0v88l106 8q23 4 33 17q12 14 12 28v1092q0 12 -12 29q-10 12 -33 16l-106 8v88h534q119 0 211 -18q90 -18 158 -64q66 -43 98 -112q35 -74 35 -170q0 -78 -29 -140q-28 -58 -74 -98q-45 -39 -106 -63q-66 -27 -127 -41q90 -23 133 -56q57 -43 80 -80q27 -45 43 -96 q6 -18 14 -57t11 -43q20 -82 24 -94q16 -51 43 -80q31 -34 80 -56q47 -20 135 -20v-92q-4 0 -20 -4l-31 -10q-14 -4 -39 -9q-29 -4 -45 -4q-94 0 -150 27q-53 25 -92 74q-33 41 -55 102q-6 18 -37 118.5l-37 119.5q-23 61 -57 104q-33 43 -96 72q-61 29 -154 28h-33 q-6 0 -15 -1t-13 -1t-11.5 -1t-9.5 -1h-10v-467q0 -12 10 -28q8 -12 33 -17l108 -8v-88h-509zM424 713h14h27q6 0 16.5 -1t16.5 -1h28q92 0 152 14q65 15 110 49q45 33 68 90.5t23 136.5q0 70 -21 117q-23 51 -63 84q-45 35 -111 53q-68 18 -166 19h-94v-561z" />
<glyph unicode="S" horiz-adv-x="1064" d="M80 43v363h129l27 -232q2 -10 12 -27q6 -10 22 -18l17 -8q2 -2 10 -5t15 -6.5t16 -5.5q29 -10 63 -16q37 -6 86 -6q61 0 121 16q51 14 94 47t64 76q23 49 22 103q0 66 -35 108q-37 47 -90 84q-55 39 -116 66l-119 55q-43 20 -121 61q-55 29 -100 74t-70 100.5t-25 133.5 q0 96 35 165q39 78 101 127q66 53 149 80q90 29 188 29q55 0 109 -6q23 -2 96 -19q35 -8 84 -22q68 -20 72 -23v-319h-117l-31 196q-4 12 -12 21q-6 6 -18 14q-2 0 -13 8q-8 6 -32 17q-16 8 -56 14q-45 8 -79 8q-61 0 -110.5 -18t-82.5 -51q-37 -37 -53 -76q-18 -43 -19 -96 q0 -46 19 -86q14 -33 55 -70q39 -35 88 -61q51 -27 123 -54q70 -25 166 -73q68 -33 121 -84q51 -47 76 -107q27 -63 26 -135q0 -80 -30.5 -153.5t-96 -133t-170.5 -96.5q-98 -35 -246 -35q-84 0 -151 13q-86 16 -115 24q-61 21 -98 39z" />
<glyph unicode="T" horiz-adv-x="1226" d="M33 1047v327h1161v-327h-121l-29 192q-3 15 -12 25q-10 10 -22 10h-293v-1133q0 -12 10 -28q8 -12 33 -17l131 -8v-88h-555v88l131 8q25 4 33 17q10 16 10 28v1133h-295q-12 0 -22 -10q-9 -9 -13 -25l-28 -192h-119z" />
<glyph unicode="U" horiz-adv-x="1456" d="M63 1286v88h521v-88l-117 -8q-25 -4 -33 -16q-10 -16 -10 -29v-725q0 -94 14 -164q16 -80 51 -129t107 -82q63 -29 174 -29q106 0 174 31q66 31 107 86t55 127q14 70 14 160v725q0 12 -12 29q-10 12 -33 16l-117 8v88h445v-88l-119 -8q-25 -4 -33 -16q-10 -16 -10 -29 v-778q0 -123 -35 -217q-33 -90 -100 -152q-70 -63 -164 -90q-102 -29 -227 -29q-254 0 -377 123t-123 365v778q0 12 -10 29q-8 12 -33 16z" />
<glyph unicode="V" horiz-adv-x="1363" d="M1225 1264l-459 -1297h-156l-469 1299l-121 20v88h490v-88l-121 -10q-10 -2 -16 -14.5t-2 -22.5l360 -1012l346 1008q3 12 -6 25q-10 12 -22 16l-113 10v88h407v-88z" />
<glyph unicode="W" horiz-adv-x="1906" d="M20 1286v88h469v-88l-122 -12q-12 -2 -19 -14q-6 -10 -2 -27l244 -924l321 1065h158l330 -1098l227 957q4 16 -4 26.5t-25 14.5l-129 12v88h418v-88l-125 -24l-313 -1295h-150l-342 1135l-335 -1135h-148l-334 1295z" />
<glyph unicode="X" horiz-adv-x="1296" d="M752 0v88l118 12q16 4 25 15q10 12 0 28l-272 428l-316 -434q-8 -10 -4 -24q2 -10 29 -15l123 -10v-88h-435v88l123 25l412 565l-373 584l-135 24v88h514v-88l-104 -10q-25 -4 -29 -16q-4 -14 4 -25l250 -385l276 379q12 14 3 28q-8 10 -25 15l-105 14v88h429v-88 l-132 -20l-380 -523l403 -630l127 -25v-88h-526z" />
<glyph unicode="Y" horiz-adv-x="1280" d="M20 1286v88h486v-88l-103 -10q-23 -2 -26.5 -16.5t2.5 -24.5l289 -535l317 529q10 16 0 28q-8 10 -24 15l-115 14v88h416v-88l-111 -20l-412 -682v-443q0 -16 10.5 -28.5t32.5 -16.5l131 -8v-88h-553v88l127 8q23 4 33 17q12 14 12 28v412l-393 709z" />
<glyph unicode="Z" horiz-adv-x="1177" d="M80 0v90l762 1182h-533q-12 0 -22 -10q-9 -9 -13 -25l-30 -190h-121v327h964v-94l-763 -1176h583q14 0 23 11q10 12 12 26l35 238h121v-379h-1018z" />
<glyph unicode="[" horiz-adv-x="864" d="M279 -270v1720h497v-92h-319v-1534h319v-94h-497z" />
<glyph unicode="\" horiz-adv-x="999" d="M0 1374h131l870 -1564h-131z" />
<glyph unicode="]" horiz-adv-x="864" d="M90 -176h322v1534h-322v92h500v-1720h-500v94z" />
<glyph unicode="^" horiz-adv-x="669" d="M0 1128l258 347h154l258 -347h-123l-211 203l-213 -203h-123z" />
<glyph unicode="_" horiz-adv-x="684" d="M0 -174h686v-131h-686v131z" />
<glyph unicode="`" horiz-adv-x="716" d="M358 1128l-311 199q-25 18 -35 35q-12 23 -12 47q0 23 4 33q8 20 16 28q16 16 29 23q16 8 45 8q16 0 37 -4q10 -2 27 -10q12 -6 22 -17q2 -2 9.5 -11t11.5 -13l274 -318h-117z" />
<glyph unicode="a" horiz-adv-x="1040" d="M70 252q0 27 8 72q6 29 31 65q23 33 63 62q49 35 109 59q84 35 165 57q131 37 232 58v88q0 106 -45 153q-47 49 -146 49q-51 0 -92 -10q-33 -8 -53 -16v-178h-149q-18 0 -27 2q-16 4 -25 8q-12 6 -18 18.5t-6 30.5q0 59 39 109q35 45 98 75q51 27 137 43q72 14 152 15 q94 0 157 -23q59 -20 99 -63q37 -41 53 -99q14 -51 14 -122v-574q0 -18 13 -31q10 -10 30 -14l99 -6v-80h-303l-27 121q-80 -57 -111 -74q-16 -10 -53 -26.5t-57 -22.5q-45 -14 -60 -16q-31 -6 -61 -7q-55 0 -105 19q-45 16 -84 55q-37 37 -57 86t-20 117zM272 266 q0 -29 11 -63q6 -20 30 -53q16 -23 47 -39q27 -14 66 -15q45 0 86 15q57 20 82 32q33 16 84 50v354q-129 -31 -219 -70q-80 -34 -123 -67q-41 -33 -53 -70q-11 -31 -11 -74z" />
<glyph unicode="b" horiz-adv-x="1136" d="M29 1362v68l264 79h82v-573l47 20q18 8 67 25q45 14 80 23q39 8 88 8q100 0 177 -37q74 -35 129 -105q53 -68 77 -149q27 -94 27 -180q0 -115 -35 -215q-33 -94 -104 -170q-72 -74 -183 -115q-113 -41 -266 -41h-295v1362h-155zM375 98q6 0 17 -1t18 -1h32h33 q94 0 162 21q74 23 121 69q49 49 73 125q27 84 27 189q0 197 -82 293q-84 98 -231 98q-25 0 -39 -2q-33 -4 -47 -8q-33 -8 -47 -13q-4 0 -17.5 -4t-19.5 -6v-760z" />
<glyph unicode="c" horiz-adv-x="952" d="M885 76l-74 -37q-33 -16 -82 -33q-29 -10 -90 -22q-41 -8 -100 -9q-111 0 -195 39q-88 41 -147.5 106.5t-94.5 162.5q-33 92 -32 204q0 127 41 228q39 96 106 164q66 66 158 100q86 33 188 33q68 0 125 -13q45 -10 100 -41q41 -23 68 -63q25 -37 25 -88q0 -29 -11 -53 q-10 -23 -26 -37q-20 -16 -39 -23q-29 -8 -45 -8q-35 0 -60 12q-37 18 -43 23v178q-22 12 -43 19q-29 8 -43 8q-68 0 -123 -31t-92 -86q-35 -53 -57 -131q-20 -74 -20 -164q0 -82 22 -160q23 -80 64 -131q47 -59 106 -88q65 -31 147 -31q68 0 136 23q66 23 131 66v-117z" />
<glyph unicode="d" horiz-adv-x="1153" d="M780 883q-4 2 -15 5t-17 5q-29 8 -46 10l-49 6q-33 4 -47 4q-76 0 -137 -30q-66 -33 -107 -82q-43 -52 -67 -129q-23 -70 -23 -170q0 -86 21 -154q23 -74 57 -123q39 -55 92 -82q57 -29 127 -28q33 0 60 6l55 18q18 6 51 23q16 8 45 24v697zM780 0v109l-73 -52 q-39 -27 -76 -43q-31 -14 -82 -28q-37 -10 -86 -11q-100 0 -178 45q-70 41 -121 115q-51 72 -72 158q-23 90 -22 174q0 98 32 203q29 94 97 174q63 76 163 123q96 45 230 45q33 0 51 -2l55 -6l27.5 -5.5t22.5 -3.5l32 -8v375h-155v68l264 79h82v-1378q0 -18 12 -31 q10 -10 31 -14l88 -6v-80h-322z" />
<glyph unicode="e" horiz-adv-x="1003" d="M70 483q0 119 36.5 217.5t100 168t151.5 106.5t193 37q96 0 168 -31q66 -29 119 -88q45 -51 71 -133q25 -76 25 -168v-27q0 -20 -2 -30h-664q0 -74 17 -156q16 -78 55 -139q39 -59 104 -101q63 -39 166 -39q49 0 86 11q43 12 86 30q29 12 78 41l74 45v-125 q-51 -33 -90 -51q-31 -14 -96 -39q-45 -16 -101 -26q-57 -10 -102 -11q-92 0 -178 31q-90 33 -152 94q-68 68 -106.5 160t-38.5 223zM279 627h450v45q0 51 -12 94q-12 47 -37 76q-27 35 -62 51q-37 18 -88 18q-49 0 -96 -20q-41 -18 -76 -55q-33 -37 -55 -91 q-20 -50 -24 -118z" />
<glyph unicode="f" horiz-adv-x="667" d="M59 0v80l101 6q20 4 30 14q12 12 13 31v735h-131v72l131 37q0 39 4 92q2 39 12 76q10 43 21 69q6 14 32 70q31 59 70 100q41 43 84 70q45 27 96 43q45 14 99 14q39 0 75 -10q35 -10 56 -26q25 -20 35 -39t10 -48q0 -31 -13 -51q-12 -23 -28 -35q-14 -10 -33 -18 q-14 -6 -21 -6q-6 6 -16 12l-35 25q-8 6 -20.5 14l-24.5 16l-43 31l-35 25l-14 10q-18 -10 -43 -35q-20 -20 -39 -57q-20 -39 -29 -90q-10 -57 -10 -125v-131h254v-105h-254v-735q0 -18 13 -31q10 -10 30 -14l121 -6v-80h-498z" />
<glyph unicode="g" horiz-adv-x="1073" d="M70 -178q0 39 14 86q12 39 39 72q27 31 67 57q37 23 97 33l-11 26q-2 2 -4 10.5t-2 10.5q-4 12 -4 20v27q0 39 25 88q27 53 78 104q-49 12 -97 37q-49 27 -82 66q-34 40 -55 92q-20 49 -20 113q0 82 30 145q33 68 84.5 111t128.5 67q76 25 168 25q35 0 70 -6 q45 -8 66 -15q41 -12 57 -20q14 -6 25.5 -11.5l19.5 -9.5h276v-100h-204q27 -45 38 -80q16 -45 17 -104q0 -80 -37 -144q-35 -59 -98 -104q-61 -43 -142 -62q-68 -16 -130 -15q-18 0 -35 1q-14 -25 -17 -43q-4 -29 -4 -43v-35q1 -6 3 -12q1 -3 1 -4q45 -4 105 -10 q61 -6 120 -19q63 -12 121 -31q61 -20 107 -49q46 -31 73 -73q29 -45 29 -105q0 -76 -41 -143q-39 -63 -115 -123q-70 -53 -167 -88q-96 -33 -209 -33q-90 0 -164 23q-72 23 -121 61q-49 40 -74 92q-26 58 -26 115zM254 -137q0 -33 16.5 -78t48.5 -78q35 -35 84 -59 q45 -23 119 -23q76 0 127 23q49 23 90 59q33 31 54 78q18 43 18 78q0 43 -20 71q-22 31 -56 50q-33 18 -78 30q-41 12 -88 19q-10 2 -27.5 5t-31.5 5t-27 2q-35 2 -73 10q-35 -12 -74 -39q-27 -18 -49 -49q-18 -25 -25 -53q-8 -37 -8 -51zM311 676q0 -49 13 -96 q12 -46 36 -80q23 -31 62 -54q35 -20 84 -20q47 0 82 20q37 20 59 54q25 34 37 80t12 98q0 47 -12 94q-12 46 -37 80q-27 37 -59 55q-35 20 -82 20.5t-80 -16.5q-41 -20 -61 -49q-23 -31 -39 -80q-15 -43 -15 -106z" />
<glyph unicode="h" horiz-adv-x="1175" d="M672 0v80l84 6q23 4 32 14q12 12 13 31v528q0 39 -10 80q-10 39 -33 65.5t-62 41.5q-43 16 -98 16q-16 0 -57 -4q-29 -2 -60 -12q-35 -10 -57 -21q-43 -18 -49 -22v-672q0 -20 10 -30.5t31 -14.5l88 -6v-80h-461v80l98 6q20 4 31 14q12 12 12 31v1231h-153v68l262 79h82 v-624q10 8 69 39q41 23 88 41q78 31 93 34q47 12 88 13q61 0 110 -18.5t88 -57.5q35 -35 57.5 -96.5t22.5 -137.5v-571q0 -18 13 -31q10 -10 32 -14l92 -6v-80h-456z" />
<glyph unicode="i" horiz-adv-x="620" d="M70 0v80l100 6q20 4 31 14q12 12 12 31v731h-141v72l250 78h81v-881q0 -18 13 -31q10 -10 30 -14l105 -6v-80h-481zM446 1325q0 -23 -10 -49q-8 -23 -26 -41q-16 -18 -39 -27q-25 -10 -49 -10q-23 0 -50 10q-23 8 -41 26.5t-26 41.5q-10 27 -10 49q0 25 10 49q8 23 26 39 q18 18 41 27q27 10 50 10q25 0 49 -10q23 -10 39 -26.5t26 -39.5q10 -24 10 -49z" />
<glyph unicode="j" horiz-adv-x="595" d="M414 131q0 -63 -2 -100q-3 -55 -13 -111q-8 -53 -24 -106q-14 -49 -41 -93q-63 -96 -153.5 -143t-186.5 -47q-31 0 -60 6q-31 6 -49 21q-23 16 -35 36q-12 22 -12 50q0 29 8 45q12 25 21 35q12 14 29 24q10 6 30 14l199 -137q29 16 47 47q16 29 30.5 76t16.5 96 q4 70 4 113v909h-145v68l252 78h84v-881zM436 1325q0 -23 -10 -49q-8 -23 -26.5 -41t-39.5 -27q-25 -10 -49 -10t-48.5 10.5t-41.5 26.5q-18 18 -26 41q-10 27 -11 49q0 25 11 49q10 23 26.5 39.5t41 26.5t49 10t48.5 -10q20 -10 39 -26.5t27 -39.5q10 -24 10 -49z" />
<glyph unicode="k" horiz-adv-x="1093" d="M29 1362v68l262 79h84v-985h41l301 340q8 8 2 20.5t-19 14.5l-84 8v80h398v-80l-131 -14l-271 -289l353 -512l108 -12v-80h-328v80l-256 385h-114v-334q0 -18 12 -31q10 -10 31 -14l88 -6v-80h-465v80l100 6q20 4 31 14q12 12 12 31v1231h-155z" />
<glyph unicode="l" horiz-adv-x="606" d="M55 0v80l109 6q14 0 29 14q16 16 16 29v1233h-156v68l262 79h84v-1380q0 -14 14.5 -28.5t28.5 -14.5l111 -6v-80h-498z" />
<glyph unicode="m" horiz-adv-x="1740" d="M1237 0v80l86 6q20 4 31 14q12 12 12 31v522q0 51 -8 86q-8 37 -31 66q-20 27 -57 43q-31 14 -86 14q-16 0 -54 -4q-4 0 -57 -12l-57 -19q-18 -6 -51 -22v-674q0 -18 12 -31q10 -10 31 -14l86 -6v-80h-449v80l86 6q20 4 31 14q12 12 12 31v535q0 39 -10 79q-9 37 -31 62 q-23 27 -55 41q-31 14 -84 14q-31 0 -62 -6q-41 -8 -59 -14l-55 -19q-8 -4 -43 -20v-672q0 -18 12 -31q10 -10 31 -14l86 -6v-80h-463v80l100 6q20 4 31 14q12 12 12 31v711h-141v67l248 78h84v-102q37 25 76 43q57 29 86 41q39 16 88 30q43 12 84 13q43 0 79.5 -12.5 t63.5 -32.5q25 -18 49 -47q18 -23 33 -50q14 8 22.5 13.5t22.5 12.5t31 17q51 29 92 48q49 22 98 36q45 14 90 15q82 0 131 -29q51 -31 82 -76q25 -37 39 -100q12 -55 12 -109v-567q0 -18 13 -31q10 -10 30 -14l99 -6v-80h-459z" />
<glyph unicode="n" horiz-adv-x="1159" d="M41 0v80l100 6q20 4 31 14q12 12 12 31v711h-143v67l250 78h84v-102q43 25 88 47t88 41q45 18 86 28q45 10 76 11q135 0 204.5 -82t69.5 -234v-565q0 -18 12 -31q10 -10 31 -14l90 -6v-80h-452v80l86 6q20 4 30 14q12 12 13 31v533q0 100 -45 147q-47 51 -152 51 q-55 0 -117 -16q-39 -10 -108 -43v-672q0 -18 12 -31q10 -10 31 -14l86 -6v-80h-463z" />
<glyph unicode="o" horiz-adv-x="1112" d="M70 491.5q0 106.5 34 204.5q34 95 98.5 166t153.5 111q86 39 205 39q113 0 205 -41q90 -41 152 -111q59 -70 94 -166q33 -92 32 -202q0 -104 -34 -203q-33 -92 -99 -164q-65 -71 -153 -111q-86 -39 -203 -39t-203 39q-84 37 -151 109q-61 63 -97 164q-34 98 -34 204.5z M285 494q0 -78 16 -160q14 -72 51 -135q35 -59 84 -95q51 -37 121 -36.5t123 34.5q47 31 84 94.5t51 137.5q16 82 16 160q0 80 -16 161q-14 72 -51 135.5t-84 94.5q-53 35 -121 35q-70 0 -123 -35q-51 -33 -86 -94q-34 -58 -49 -136q-16 -81 -16 -161z" />
<glyph unicode="p" horiz-adv-x="1144" d="M43 -367l98 13q23 4 31 12q12 12 12 31v1153h-141v67l252 78h80v-102q47 37 94 63q27 14 98 43q53 20 117 21q82 0 150 -35q74 -39 124 -103q55 -70 86 -159q31 -92 31 -207q0 -127 -35 -219q-37 -100 -102 -168q-68 -72 -164 -109q-94 -37 -217 -37q-39 0 -59 2 q-41 4 -60 7q-25 2 -63 10v-305q0 -18 12 -31q8 -8 33 -12l121 -13v-79h-498v79zM375 102q33 -12 51 -16q8 -2 27.5 -5t25.5 -5q31 -6 62 -6q82 0 145 34q61 35 102 91q39 53 62 131q20 70 20 153q0 78 -18 150q-18 71 -55 123q-39 57 -90 86q-52 31 -123 30q-35 0 -76 -10 q-49 -12 -68 -20q-37 -12 -65 -31v-705z" />
<glyph unicode="q" horiz-adv-x="1122" d="M70 469q0 121 41 225.5t114 171.5q80 74 187 109q111 37 250 37q41 0 65 -2q49 -4 76 -6q23 -2 78 -11l71 -14v-1294q0 -20 13 -29q16 -12 30 -14l99 -11v-77h-496v77l121 11q20 4 31 14q12 12 12 29v370l-18.5 -9t-23.5 -10t-22 -9q-12 -6 -73 -25q-55 -16 -78 -20 q-39 -6 -72 -7q-98 0 -170 39q-78 41 -127 107q-53 68 -80 155q-28 93 -28 193zM276 502q0 -86 17 -152q18 -78 55 -131q37 -55 96 -90q57 -33 142 -33q27 0 43 2l47 6q20 2 47 11q6 2 19.5 5t19.5 5v770l-64 14q-33 8 -77 9q-88 0 -148 -29q-66 -31 -108 -86 q-45 -57 -66 -131q-23 -80 -23 -170z" />
<glyph unicode="r" horiz-adv-x="800" d="M47 842v67l254 78h84v-182l53 59q27 33 68 70t74 55q41 23 75 23q20 0 33 -2q6 -2 18.5 -4t18.5 -5q8 -2 30.5 -10t24.5 -10v-203h-80q-25 25 -47 39q-27 16 -63 17q-49 0 -101 -33q-53 -35 -104 -94v-576q0 -18 12 -31q10 -10 31 -14l135 -6v-80h-512v78l101 8 q20 4 30 14q12 12 13 31v711h-148z" />
<glyph unicode="s" horiz-adv-x="813" d="M70 27v272h104l25 -174q27 -18 77 -39q47 -18 105 -18q39 0 78 14q31 10 57 35q23 20 37 51q12 29 12 59q0 47 -16 74q-18 31 -49 55q-29 25 -80 47l-105 52q-78 39 -100 53q-41 27 -72 57q-29 29 -45 68q-14 35 -14 82q0 68 25 123q23 51 71 94q41 37 115 59 q63 20 158 21q59 0 86 -4q53 -8 75 -13q41 -8 60 -14l41 -16v-242h-107l-16 143q-14 12 -66 31q-45 16 -90 16q-86 0 -125 -39q-41 -41 -41 -98q0 -41 11 -61q16 -31 38 -49q35 -27 70 -48q16 -10 109 -53q27 -12 100 -51q35 -18 78 -57q31 -29 51 -72q18 -41 18 -88 q0 -76 -26 -135q-25 -53 -78 -101q-47 -41 -123 -63q-78 -23 -164 -23q-63 0 -92 5q-57 8 -82 14q-41 10 -65 18q-8 2 -23.5 7.5z" />
<glyph unicode="t" horiz-adv-x="694" d="M55 885v67l140 66l92 217h90v-248h289v-102h-289v-572q0 -57 10 -104q8 -39 31 -68q20 -27 51 -39t72 -12q39 0 55 4q33 8 45 12q29 12 41 19v-82q-41 -20 -84 -34.5t-86 -22.5q-55 -10 -106 -11q-117 0 -168.5 53.5t-51.5 176.5v680h-131z" />
<glyph unicode="u" horiz-adv-x="1163" d="M43 862v70l252 80h82v-666q0 -49 10 -96q8 -41 35 -74q23 -29 61.5 -45t91.5 -16q33 0 64 6q25 6 59 16l56 19q8 4 43 20v686h-144v70l250 80h84v-881q0 -16 14 -31q10 -10 31 -14l90 -6v-80h-325v117q-12 -12 -64 -45q-43 -29 -80 -47q-25 -12 -92 -35q-43 -14 -92 -15 q-68 0 -119 19q-47 16 -88 61q-39 43 -57 103q-18 61 -19 149v555h-143z" />
<glyph unicode="v" horiz-adv-x="1081" d="M954 895l-358 -895h-133l-330 895l-113 12v80h453v-80l-98 -6q-18 -2 -27 -14q-10 -12 -4 -31l229 -641l252 641q6 16 -2 29q-10 14 -26 16l-92 6v80h358v-80z" />
<glyph unicode="w" horiz-adv-x="1603" d="M20 907v80h449v-80l-96 -6q-18 -2 -27 -14q-10 -12 -4 -31l170 -637l264 768h146l237 -768l189 637q6 14 -4.5 28.5t-24.5 16.5l-94 6v80h358v-80l-104 -12l-281 -895h-145l-242 766l-270 -766h-146l-262 895z" />
<glyph unicode="x" horiz-adv-x="1042" d="M584 0v80l69 8q12 2 18.5 14.5t0.5 22.5l-176 262l-201 -262q-8 -8 -4 -23q2 -12 16 -14l103 -8v-80h-390v80l117 16l293 381l-278 412l-121 18v80h450v-80l-71 -10q-14 -2 -21 -14q-6 -10 0 -23l162 -229l178 229q8 8 4 23q-2 10 -18 14l-88 10v80h368v-80l-110 -18 l-275 -350l303 -443l111 -16v-80h-440z" />
<glyph unicode="y" horiz-adv-x="1083" d="M20 907v80h453v-80l-98 -6q-18 -2 -27 -14q-10 -12 -4 -31l238 -604l243 604q6 16 -2 29q-10 14 -26 16l-97 6v80h365v-80l-107 -12l-393 -958l-28 -66q-20 -49 -43 -90q-39 -72 -54 -94q-33 -49 -61 -78q-33 -33 -82 -58q-41 -20 -96 -20q-33 0 -64 10q-29 10 -47 25 q-20 16 -29 37q-10 25 -10 45q0 37 15 65q12 27 51 58l192 -88q29 29 51 65q37 61 50 86q29 61 41 90q16 37 30 78l-348 893z" />
<glyph unicode="z" horiz-adv-x="944" d="M70 0v109l542 782h-356q-14 0 -26.5 -14.5t-14.5 -28.5l-20 -152h-105v291h758v-84l-561 -805h413q10 0 15 4q2 2 7 6.5t7 6.5q8 8 10 16q0 2 3 7t3 9l21 162h111v-309h-807z" />
<glyph unicode="{" horiz-adv-x="997" d="M123 549v92q55 0 80 2q45 4 65 8q27 6 51 17q20 8 41 28q20 18 35 60q12 37 19 75q4 27 4 80v176q0 35 8 97q6 47 25 90q18 41 51 78q25 27 63 45q37 16 86 26q59 12 101 15q70 4 106 4v-84q-23 0 -41 -2q-37 -4 -57 -8q-31 -6 -62 -19q-33 -12 -49 -33q-20 -20 -31 -57 q-14 -55 -16 -74q-2 -27 -2 -86v-86q0 -10 -1 -34.5t-1 -38.5q0 -39 -6 -76q-6 -39 -19 -72q-14 -37 -32 -59q-41 -53 -97 -78q-49 -23 -120 -39q61 -14 120 -41q55 -25 97 -78q18 -23 32 -59q12 -33 19 -72q6 -37 6 -76q0 -14 1 -38.5t1 -34.5v-86q0 -59 2 -86 q2 -18 16 -74q10 -37 31 -57q16 -20 49 -33q31 -12 62 -19q20 -4 57 -8q18 -2 41 -2v-84q-37 0 -106 4q-41 2 -101 15q-49 10 -86 26q-39 18 -63 45q-33 37 -51 78q-18 43 -25 90q-8 61 -8 96v177q0 53 -4 79q-6 39 -19 76q-14 41 -34.5 59.5t-41.5 28.5q-25 10 -51 17 q-20 4 -65 8q-25 2 -80 2z" />
<glyph unicode="|" horiz-adv-x="722" d="M299 -528v2158h125v-2158h-125z" />
<glyph unicode="}" horiz-adv-x="997" d="M141 -168q20 0 39 2q41 4 60 8q31 6 61 19q33 12 49 33q23 25 33 57q9 34 12 74q4 53 4 86v86q0 10 1 34.5t1 38.5q0 39 7 76q6 39 18 72q14 37 33 59q43 55 96 78q68 29 121 41q-20 4 -61.5 16.5t-59.5 22.5q-29 16 -51 33q-16 12 -45 45q-18 23 -33 59q-12 33 -18 72 q-6 37 -7 76q0 14 -1 38.5t-1 34.5v86q0 33 -4 86q-3 40 -12 74q-10 35 -33 57q-16 20 -49 33q-31 12 -61 19q-18 4 -60 8q-18 2 -39 2v84q39 0 109 -4q37 -2 98 -15q55 -10 86 -26q43 -20 64 -45q33 -37 51 -78q20 -49 26 -90q6 -45 7 -97v-176q0 -27 4 -80q2 -35 16 -75 q12 -39 37 -60q39 -37 92 -45q61 -10 146 -10v-92q-84 0 -146 -10q-53 -8 -92 -45q-25 -20 -37 -60q-14 -41 -16 -76q-4 -53 -4 -79v-177q0 -49 -7 -96q-6 -41 -26 -90q-18 -41 -51 -78q-20 -25 -64 -45q-31 -16 -86 -26q-61 -12 -98 -15q-70 -4 -109 -4v84z" />
<glyph unicode="~" horiz-adv-x="1705" d="M176 461v133q111 77 209 111q100 35 180 34q72 0 150 -22q66 -18 149 -47q98 -33 146 -47q68 -20 137 -21q72 0 166 35q96 35 217 123v-133q-58 -40 -111 -68q-51 -27 -96 -45t-90 -25q-43 -6 -88 -6q-78 0 -146 21q-27 8 -80 26.5l-65 22.5q-98 33 -147 47 q-70 20 -154 21q-78 0 -176 -43q-92 -41 -201 -117z" />
<glyph unicode="&#xa1;" horiz-adv-x="690" d="M219 1280q0 25 10.5 49.5t26.5 40.5q18 18 41 27q27 10 49 10q25 0 49 -10q23 -8 39 -27q16 -16 26.5 -40.5t10.5 -49.5t-10 -49q-10 -23 -26.5 -39t-39.5 -27q-25 -10 -49 -10q-23 0 -49 10q-23 8 -41 27q-18 16 -27 39q-10 24 -10 49zM221 133l76 879h98l74 -879 q2 -39 -4 -74q-6 -29 -23 -49q-14 -16 -41 -26q-23 -8 -55.5 -8.5t-55 8t-40.5 26.5q-14 14 -25 49q-8 25 -4 74z" />
<glyph unicode="&#xa2;" d="M156 516q0 104 32 189q37 94 91 155q58 68 141 111q80 41 184 57v209h98v-201q25 0 74 -4q45 -4 72 -8l72 -16q25 -6 77 -23v-301h-98l-29 178q-2 4 -4 12.5t-4 12.5q-2 12 -16 18l-11.5 6t-11.5 7q-8 4 -28 8q-10 2 -39 6t-54 4v-838q2 0 58 6q35 4 47 9q25 6 39 14 q8 6 14 14q8 12 10 19l27 196h100v-309l-3 -2q-3 -2 -9 -4t-10 -4q-10 -4 -55 -17q-31 -8 -91 -14q-55 -6 -127 -6v-203h-98v207q-109 12 -186 53q-83 43 -142 111q-61 70 -90 156q-30 90 -30 192zM352 522q0 -96 21 -164q23 -76 53 -122q33 -49 82 -86q45 -33 96 -46v826 q-41 -10 -84 -37t-82 -80q-35 -47 -61 -123q-25 -72 -25 -168z" />
<glyph unicode="&#xa3;" d="M88 0v125q63 14 107 49q43 33 67 84q29 55 39 117q10 55 10 149q2 2 2 27q0 8 -1 24.5t-1 26.5l-2 72h-143v100h141q0 16 -1 46t-1 44v74v61q0 98 27 199q25 94 80 162q59 72 135 108q86 41 194 41q49 0 104.5 -12t104.5 -37q47 -25 82 -67q33 -41 33 -101q0 -23 -10 -47 q-8 -20 -29 -37q-16 -14 -41 -24q-18 -8 -47 -8q-23 0 -47 6q-4 2 -13.5 2t-13.5 2v205q-14 4 -30 8l-31 6q-10 2 -31 2q-63 0 -102 -16q-47 -20 -74 -48q-31 -31 -49 -69q-25 -53 -31 -84q-12 -61 -14 -94q-4 -66 -4 -95v-73q0 -14 1 -39t1 -35l2 -80h381v-100h-381 q0 -106 -8 -174q-10 -82 -33 -140q-27 -66 -66 -110q-47 -53 -110 -94q25 2 69 6l58 4q18 2 43 2h606v-168h-973z" />
<glyph unicode="&#xa4;" horiz-adv-x="1247" d="M82 401l211 211q-46 55 -68 123q-23 72 -22 139q0 35 6 72q8 49 16 72q16 45 29 67q16 29 43 60l-215 215l74 74l215 -215q55 47 125 67q74 23 143 23q76 0 137 -23q72 -27 121 -69l217 217l74 -74l-213 -213q43 -55 67 -125q25 -72 25 -145q0 -70 -23 -142 q-22 -68 -67 -123l211 -211l-74 -73l-211 211q-49 -45 -125 -72q-68 -25 -139 -25q-84 0 -145 23q-70 25 -127 74l-211 -211zM319 874.5q0 -67.5 25 -124.5q23 -53 68 -99q43 -43 102 -67.5t125 -24.5q65 0 123 25q49 20 98 69q41 41 66 101q25 58 24 123q0 61 -24 120 q-25 57 -68 101q-49 49 -98 69q-59 25 -121 25q-66 0 -125 -24.5t-102 -67.5t-68 -100.5t-25 -125z" />
<glyph unicode="&#xa5;" horiz-adv-x="1220" d="M20 1288v86h459v-86l-88 -14q-18 -2 -24 -17q-8 -16 0 -28l270 -529l297 527q4 4 4 10v14q-2 4 -10 13q-6 6 -21 8l-98 16v86h391v-86l-115 -26l-219 -388h289v-90h-340l-119 -209h459v-90h-457v-344q0 -10 13 -26q12 -14 41 -19l118 -10v-86h-534v86l121 10 q27 2 39 18.5t12 26.5v344h-442v90h438l-111 209h-327v90h278l-203 390z" />
<glyph unicode="&#xa6;" horiz-adv-x="706" d="M301 -406v820h105v-820h-105zM301 688v819h105v-819h-105z" />
<glyph unicode="&#xa7;" horiz-adv-x="1024" d="M121 625q0 70 18 118q18 51 54 88q33 37 75 64q49 31 94 51q-49 23 -83 49q-37 29 -66 60q-23 25 -41 69q-14 35 -14 84q0 70 24 125q25 57 74 97q45 35 125 59q70 20 174 20q45 0 88 -6l84 -12t68 -16q37 -10 45 -15v-266h-97l-20 166l-17.5 9t-19.5 11l-45 18.5 t-53 14.5q-27 6 -58 6q-47 0 -84 -12q-29 -10 -63 -37q-25 -20 -43 -55q-14 -29 -14 -68t24.5 -69.5t65.5 -59.5q35 -25 92 -51l106 -55q66 -33 107 -60q52 -34 92 -73q41 -41 66 -95q25 -51 24 -118q0 -63 -20 -113q-18 -45 -58 -94q-33 -41 -78 -74t-92 -51q31 -14 84 -47 q35 -20 66 -59.5t45 -73.5q16 -43 16 -91q0 -66 -28 -126q-23 -49 -80 -99q-51 -45 -119 -65q-74 -23 -154 -23q-53 0 -102 6q-18 2 -88 19q-53 12 -74 20q-8 2 -19.5 7t-18.5 8.5t-13 5.5v268h102q0 -6 1 -16.5t3 -14.5q2 -10 5 -18q2 -4 2 -9.5v-9.5q2 -8 4 -22 q3 -15 6 -37q0 -10 3 -24.5t5 -32.5q25 -16 41 -23q29 -10 51 -16q31 -8 51 -11q33 -4 50 -4q51 0 84 11q37 12 67 34q29 23 43 52q16 33 17 69q0 46 -25 80q-27 37 -66 64q-33 23 -94 55l-106 53q-59 31 -109 62q-55 35 -92 75q-47 51 -68 97q-24 55 -24 127zM276 672 q0 -46 19 -86q20 -43 53 -74q37 -34 92 -68q63 -39 131 -69q27 14 52 35q20 16 57 57q23 25 45 70q18 37 18 77q0 90 -73 162q-76 72 -209 127q-47 -16 -82 -40.5t-57.5 -57.5t-34.5 -66q-11 -28 -11 -67z" />
<glyph unicode="&#xa8;" horiz-adv-x="645" d="M223 1313q0 -18 -10 -43t-23 -37q-18 -18 -36.5 -26.5t-43 -8.5t-42.5 8q-14 6 -35 27q-16 16 -24.5 34.5t-8.5 43t8 43.5q9 22 25 37q16 16 35 24q25 10 43 10t42.5 -10t37 -22.5t22.5 -37t10 -42.5zM647 1312.5q0 -24.5 -8 -42.5q-9 -22 -25 -37q-20 -20 -34 -27 q-18 -8 -43 -8t-43.5 8t-36.5 27q-15 15 -25 37q-8 18 -8 43q0 23 8 41t27 37q16 16 35 24q25 10 43 10t43 -10q18 -8 34.5 -24.5t24.5 -35t8 -43z" />
<glyph unicode="&#xa9;" horiz-adv-x="1712" d="M70 717q0 106 28 211q27 98 80 188q47 82 123 160q68 70 158 125q86 51 188 80q104 29 211 28.5t211 -28.5q96 -27 188 -82q96 -57 160 -125q70 -74 121 -160q53 -90 80 -188.5t27 -206.5q0 -111 -27 -209q-28 -101 -80 -191q-45 -76 -125 -159q-68 -70 -158 -125 q-86 -51 -188 -80q-104 -29 -211 -29q-104 0 -209 29q-100 27 -186 80q-100 61 -160 123q-72 76 -123 161q-53 90 -80 189q-28 105 -28 209zM158 717q0 -98 24 -187q23 -84 72 -168q47 -82 108 -143q65 -65 142 -110q80 -47 166 -72q88 -25 186 -25t186 25q86 25 166 72 q77 46 142 110q66 66 110 143q49 84 72 168q25 88 24.5 186.5t-24.5 186.5q-25 90 -72 168q-51 88 -108 143q-65 65 -142 111q-80 47 -166 72q-96 27 -186 26.5t-186 -26.5q-90 -25 -168 -72q-82 -49 -142 -108q-61 -61 -108 -143.5t-71.5 -170.5t-24.5 -186zM387 717 q0 106 37 194t100 152q61 61 160 100q86 35 207 35q76 0 151 -16q88 -18 138 -35v-244h-93l-30 156q-14 10 -62 28q-37 14 -84 15q-66 0 -127 -25q-57 -23 -106 -76q-51 -53 -76 -118q-27 -68 -27 -162t27 -166q29 -76 72 -125q47 -53 100 -76q63 -27 117 -26q16 0 49 4 q20 2 47 10q29 8 41 12q25 8 33 13l29 174h90v-258q-4 0 -27 -9q-27 -10 -63 -18q-49 -12 -93 -16q-51 -6 -108 -7q-125 0 -215 39q-96 41 -158 107q-61 63 -96 153q-33 85 -33 185z" />
<glyph unicode="&#xaa;" horiz-adv-x="696" d="M55 936q0 35 12.5 63.5t53.5 55.5q45 29 121 53q92 29 209 51v53q0 61 -29 91q-31 31 -94 30q-35 0 -60 -6q-12 -4 -22 -7t-15 -3v-107h-96q-16 0 -32.5 6.5t-16.5 28.5q0 37 25 66q25 27 63 45q35 16 90 26q43 8 98 9q63 0 102.5 -12.5t65.5 -39.5q23 -23 33 -59.5 t10 -73.5v-344q0 -12 8.5 -18t18.5 -8l66 -5v-47h-197l-18 72q-31 -23 -72 -43q-27 -16 -74 -31q-39 -12 -78 -12q-43 0 -67 10q-29 12 -54 33q-27 25 -38 53q-13 31 -13 70zM63 623v61h596v-61h-596zM186 944q0 -18 7 -37q4 -12 20 -33q10 -12 30.5 -22t43.5 -10q29 0 55 8 q31 10 53 20q37 16 56 29v213q-100 -25 -142 -41q-57 -25 -80 -41q-31 -25 -36 -43q-7 -21 -7 -43z" />
<glyph unicode="&#xab;" horiz-adv-x="903" d="M78 410v163l342 281v-145l-238 -217l238 -220v-141zM481 410v163l342 281v-145l-235 -217l235 -220v-141z" />
<glyph unicode="&#xac;" horiz-adv-x="1269" d="M82 737v123h1106v-473h-123v350h-983z" />
<glyph unicode="&#xad;" horiz-adv-x="653" d="M90 416v153h475v-153h-475z" />
<glyph unicode="&#xae;" horiz-adv-x="1712" d="M70 717q0 106 28 211q27 98 80 188q47 82 123 160q68 70 158 125q86 51 188 80q104 29 211 28q102 0 207 -28q102 -29 188 -80q100 -61 160 -123q72 -76 123 -162q53 -90 80 -188q29 -104 29 -211q0 -111 -27 -209q-28 -101 -80 -191q-49 -84 -125 -159 q-71 -71 -160 -123q-90 -53 -188 -80q-104 -29 -211 -29q-104 0 -206.5 29t-186.5 80q-94 57 -160 123q-71 71 -123 160t-80 190q-28 105 -28 209zM158 713q0 -95 24 -185q25 -90 72 -168q49 -82 108 -141q65 -65 142 -110q80 -47 166 -72q88 -25 186 -25t186 25 q90 25 168 72q77 46 142 110q57 55 108 143q47 78 72 168q25 88 24.5 186.5t-24.5 188.5q-23 84 -72 168q-47 82 -108 144q-65 65 -142 110q-80 47 -166 72q-90 25 -186 24q-95 0 -184 -24q-90 -25 -168 -72q-77 -46 -141 -110q-70 -70 -111 -142q-45 -78 -70 -170 q-26 -100 -26 -192zM442 291v57l78 6q18 4 23 11q8 12 8 18v713q0 6 -8 18q-4 6 -23 10l-78 6v58h381q82 0 149.5 -12.5t114.5 -40.5q45 -27 70 -74q25 -46 25 -111q0 -55 -21 -90q-25 -41 -51 -63q-33 -27 -78 -43q-55 -20 -90 -27q66 -16 96 -37q33 -23 58 -53 q18 -25 28 -62l19 -65l18 -61q10 -33 33 -54q27 -23 66 -35q47 -14 106 -14v-55q-2 0 -8 -1t-10.5 -1t-13.5 -2t-15 -2t-18.5 -1t-18.5 -1t-18.5 -1t-16.5 -1q-68 0 -110 18q-45 18 -68 45q-27 31 -39 66l-24.5 75.5l-24.5 75.5q-12 35 -39 66q-23 27 -68 45q-43 18 -110 18 q-6 0 -20.5 -1t-22.5 -1h-25v-305q0 -10 8.5 -18.5t22.5 -10.5l78 -6v-57h-363zM696 756h11h20q4 0 12.5 -1t12.5 -1h20q55 0 106.5 10t79.5 31q31 23 48 59q16 39 16 90q0 45 -14 76q-14 33 -45 57q-27 23 -80 35q-49 12 -117 12h-70v-368z" />
<glyph unicode="&#xaf;" horiz-adv-x="684" d="M0 1200v129h686v-129h-686z" />
<glyph unicode="&#xb0;" horiz-adv-x="653" d="M102 1249q0 53 17 88q18 41 49 72t72 49q35 16 88 16.5t88 -16.5q41 -18 71 -49q27 -27 48 -72q18 -39 18 -88t-18 -88q-20 -45 -47 -71.5t-72 -47.5q-39 -18 -88 -18t-88 18q-45 20 -72 48q-31 31 -49 71q-17 35 -17 88zM184 1249q0 -35 11 -55q16 -33 30 -47 q18 -18 47 -31q23 -10 56 -10q37 0 57 10q29 14 45 31q14 14 31 47q10 20 10 55t-10 56q-14 29 -31 45q-20 20 -45 32q-20 10 -57 11q-33 0 -56 -11q-27 -12 -47 -32q-16 -16 -30 -45q-11 -21 -11 -56z" />
<glyph unicode="&#xb1;" horiz-adv-x="2048" d="M410 0v127h1228v-127h-1228zM410 733v127h551v369h126v-369h551v-127h-551v-368h-126v368h-551z" />
<glyph unicode="&#xb2;" horiz-adv-x="749" d="M63 784v82l187 144q90 68 147 125q61 61 95 118q35 59 34 123q0 41 -16 78q-16 35 -41 57q-20 18 -61 33q-35 12 -72 12q-18 0 -43 -4q-6 -2 -17.5 -5t-15.5 -3l-24 -8l-8 -4l-3 -2v-135q-4 -4 -16 -13q-8 -4 -21 -8q-8 -2 -28 -2q-31 0 -55.5 18.5t-24.5 55.5t24.5 71.5 t63.5 55.5q49 27 92 37q51 12 113 12q59 0 119 -16q51 -14 94 -47q41 -33 61 -72q23 -45 23 -98q0 -68 -39 -127q-40 -61 -105 -123q-57 -55 -149 -123l-174 -127h395l23 104h65v-209h-623z" />
<glyph unicode="&#xb3;" horiz-adv-x="749" d="M63 909.5q0 24.5 19 46.5q18 20 59 21q2 0 9.5 -1t13.5 -1q12 0 22 -6l41 -111q51 -27 115 -27q49 0 84 15q39 16 66 43q29 29 43 59.5t14 71.5q0 43 -19 74q-16 27 -49 47q-37 23 -65 26q-37 6 -68 7h-33q-8 0 -24 -5q-8 -2 -23 -2v78l5 -1q5 -1 10 -1h20q37 0 82 10 q37 8 68 29q27 16 45 49q18 31 18 70q0 41 -14 67q-16 31 -39 48q-31 25 -55 30q-35 10 -66 10q-28 0 -49 -6q-4 -2 -18.5 -5t-20.5 -5q-20 -6 -33 -14v-121l-3 -2q-3 -2 -7 -4l-8 -4q-14 -8 -41 -9q-16 0 -25 3q-12 3 -24 12q-12 8 -19 22q-8 16 -8 33q0 37 23 66 q27 33 63 53q41 23 94 35t113 12q61 0 106 -14q57 -18 88 -41q39 -29 58 -64q20 -39 20 -88q0 -70 -51 -121q-53 -53 -151 -77q45 -4 83 -15q49 -14 78 -35q33 -23 54 -59q23 -39 22 -88q0 -57 -27 -102q-27 -43 -75 -80q-43 -33 -111 -52q-65 -18 -135 -18q-57 0 -119 14 q-55 12 -86 33q-35 23 -53 47q-17 23 -17 47.5z" />
<glyph unicode="&#xb4;" horiz-adv-x="716" d="M242 1128l272 318q6 6 12 13t11 11q12 12 20 17q14 8 29 10q20 4 37 4q29 0 45 -8q12 -6 28 -23q12 -12 17 -28q4 -20 4 -33q0 -25 -12 -47q-10 -16 -35 -35l-312 -199h-116z" />
<glyph unicode="&#xb5;" horiz-adv-x="1118" d="M119 -342q0 33 6 57q2 8 5 27.5t5 28.5q4 14 8 30.5t9 32.5q10 39 16 84q2 18 6 64.5t4 56.5q6 72 6 168v780h191v-584q0 -61 4 -127q2 -41 14 -75q6 -18 19 -37q10 -16 28 -31q12 -10 37 -20q18 -8 45 -9q59 0 111 37q49 35 112 105v741h191v-706q0 -68 6 -107 q6 -41 14.5 -57.5t22.5 -20.5q16 -4 27 -4q16 0 28 6q14 8 23 21q10 16 18 39q2 4 17 63h41q-6 -74 -23 -112q-18 -47 -45 -76q-31 -35 -64 -45q-37 -12 -75 -13q-35 0 -59.5 8.5t-53.5 32.5q-23 18 -43 62q-14 27 -25 96q-29 -35 -81 -88q-37 -37 -74 -61q-39 -27 -72 -37 q-37 -12 -78 -13q-20 0 -34 2q-33 4 -50 11q-20 6 -53 28q-27 16 -45 50v-50q0 -33 8 -98q4 -39 17 -96q12 -61 16 -88q8 -53 8 -72q0 -29 -8 -47t-23 -37q-12 -15 -30 -24q-16 -8 -37 -8.5t-35 8.5q-16 10 -27 22q-16 18 -20 37q-8 29 -8 45z" />
<glyph unicode="&#xb6;" horiz-adv-x="993" d="M55 973q0 114 31 190q31 74 94 123q61 45 152 68q84 20 203 20h405v-74l-127 -20v-1442h-100v1452h-156v-715q-121 0 -203 17q-94 18 -159.5 63t-102.5 121q-37 77 -37 197z" />
<glyph unicode="&#xb7;" horiz-adv-x="382" d="M313 696q0 -23 -10 -47t-24 -39q-16 -16 -39 -26q-18 -8 -47 -8.5t-48 8.5q-23 10 -39 26q-14 14 -24 39t-10 47.5t10 47t24.5 39t39 24.5t47 10t47 -10t39 -24.5t24.5 -39t10 -47.5z" />
<glyph unicode="&#xb8;" horiz-adv-x="468" d="M82 -360q14 -4 43 -9q12 -2 41 -6q14 -2 41 -2q14 0 47 4q18 2 43 15q14 8 29 24q12 14 12 41q0 39 -27 57q-29 18 -69 19q-10 0 -17 -2q-2 0 -7 -1t-7 -3l-16 -6v231h81v-131q4 0 10.5 1t10.5 3q12 4 27 4q33 0 57 -8q31 -10 47 -24.5t31 -45.5q12 -28 12 -67 q0 -47 -18.5 -84t-49.5 -62q-29 -25 -75 -37q-43 -12 -95 -12q-35 0 -53 2q-10 2 -27.5 5t-21.5 3q-25 2 -49 11v80z" />
<glyph unicode="&#xb9;" horiz-adv-x="749" d="M100 1487v53l289 82h49v-752q0 -12 11 -18q12 -8 20 -8l125 -4v-56h-451v56l136 4q8 0 20 8q8 6 8 18v650z" />
<glyph unicode="&#xba;" horiz-adv-x="731" d="M49 1079q0 61 23 123q20 55 63 98q41 41 100.5 66t135 25t133.5 -25q61 -27 98 -66q41 -43 62 -100q20 -55 20 -121q0 -63 -22 -121q-20 -51 -64 -98q-35 -39 -100 -65q-59 -25 -131 -25q-70 0 -131 23q-59 23 -101 65q-43 47 -63 98q-23 57 -23 123zM55 623v61h625v-61 h-625zM190 1079q0 -57 11 -96q12 -49 32 -80q25 -37 56 -57q33 -20 78 -21q47 0 79 21q34 22 56 55q23 35 35 82q10 39 10 96.5t-10 96.5q-12 47 -33 81.5t-55 57.5q-33 20 -80 20t-80 -20q-35 -23 -56 -58q-25 -43 -32 -81q-11 -52 -11 -97z" />
<glyph unicode="&#xbb;" horiz-adv-x="903" d="M82 131v145l235 218l-235 219v141l342 -279v-163zM485 131v145l238 218l-238 219v141l342 -279v-163z" />
<glyph unicode="&#xbc;" horiz-adv-x="1792" d="M98 1307v55l289 82h49v-754q0 -12 10 -18q8 -4 21 -8l125 -5v-55h-451v55l135 5q12 4 21 8q8 6 8 18v649zM375 0l909 1430h129l-907 -1430h-131zM1001 233v86l451 512h90v-514h152v-84h-152v-276h-115v276h-426zM1108 317h319v371z" />
<glyph unicode="&#xbd;" horiz-adv-x="1792" d="M94 1307v55l289 82h49v-754q0 -12 8 -18q6 -4 23 -8l125 -5v-55h-451v55l135 5q12 4 21 8q8 6 8 18v649zM360 0l910 1430h129l-910 -1430h-129zM1075 0v82l185 143q88 68 143 127q59 63 92 119q33 57 33 123q0 45 -12 78q-10 29 -37 55q-20 20 -56 35q-27 10 -69 10 q-16 0 -41 -4q-6 -2 -18.5 -5t-16.5 -3q-6 -2 -13.5 -6t-9.5 -4l-10 -5v-135q-8 -8 -16 -10q-12 -4 -21 -6q-16 -4 -28 -4q-33 0 -56 16q-25 18 -24.5 55t22.5 72q18 31 64 58q40 25 92 37t111 12q61 0 116 -17q49 -14 88 -47q37 -31 56 -74q20 -47 20 -98q0 -66 -37 -127 q-35 -55 -100 -123q-63 -63 -143 -123l-172 -127h393l22 107h68v-211h-625z" />
<glyph unicode="&#xbe;" horiz-adv-x="1792" d="M78 731q0 8 4 25q2 10 14 22q10 10 24.5 16.5t35.5 6.5q12 0 22 -2q14 -2 23 -8l41 -109q20 -12 51 -20q25 -6 57 -7q47 0 82 14.5t64 43.5q25 25 41 59q14 31 14 72q0 46 -19 74q-20 31 -45 47q-23 16 -61 22q-45 8 -68 8h-32q-4 0 -12.5 -1t-10.5 -1q-4 0 -11 -1t-9 -1 v76h34q45 0 78 8q37 8 66 29q25 16 41 49t16 70q0 35 -14 67q-14 31 -35 49q-23 18 -55 29q-35 10 -64 10q-20 0 -49 -4q-14 -2 -35 -10q-20 -6 -30 -14v-123l-5 -3q-4 -3 -14 -7q-16 -6 -41 -7q-10 0 -26.5 4.5t-24.5 10.5q-4 2 -19 22q-8 10 -8 33q0 33 22.5 65.5 t61.5 53.5q45 25 90 35q51 12 112.5 12t107.5 -14q53 -16 85.5 -41t55.5 -66q20 -39 20 -88q0 -68 -53 -121q-51 -51 -151 -76q45 -4 83 -14q49 -14 78 -35q33 -23 54 -59q23 -39 22 -88q0 -53 -27 -103q-23 -41 -71 -77q-45 -33 -106.5 -51.5t-135.5 -18.5q-70 0 -119 12 q-45 10 -82 35q-41 27 -51 43q-16 27 -16 47zM397 0l910 1430h129l-910 -1430h-129zM1024 233v86l451 512h90v-514h151v-84h-151v-276h-115v276h-426zM1130 317h320v371z" />
<glyph unicode="&#xbf;" horiz-adv-x="993" d="M141 342q0 100 39 170q43 74 96 123q59 53 127 90q63 35 127 61v230h115v-297q-51 -16 -100 -45t-96 -76q-45 -45 -72 -104q-29 -63 -29 -136q0 -143 76 -211q80 -70 217 -69l84 207l16 2q2 0 5.5 1t5.5 1h8q27 0 51 -6q27 -6 43 -21q20 -18 29 -35q10 -25 10 -51 q0 -35 -19 -72q-18 -35 -61 -65q-39 -27 -100.5 -45.5t-145.5 -18.5q-92 0 -168 25q-74 23 -135 76q-57 47 -90 114q-33 66 -33 152zM459 1282q0 25 10 49q10 20 27 39q18 18 41 27q27 10 49 10q25 0 49 -10q20 -8 39 -27q16 -16 26.5 -40.5t10.5 -49.5t-11 -49 q-8 -23 -26.5 -39t-38.5 -27q-25 -10 -49.5 -10t-49 10.5t-40.5 26.5q-18 18 -27 41q-10 26 -10 49z" />
<glyph unicode="&#xc0;" horiz-adv-x="1378" d="M10 0v88l119 25l477 1294h154l475 -1264q6 -20 14 -28.5t29 -10.5l92 -16v-88h-487v88l118 10q10 0 17 13q6 14 4 22l-141 375h-473l-136 -369q-3 -6 0 -12l2 -6q2 -6 5 -8q8 -8 12 -11q8 -4 10 -4l121 -10v-88h-412zM444 606h400l-201 537zM747 1527l-311 199 q-25 18 -35 35q-12 23 -12 47q0 23 4 33q8 20 16 28q16 16 29 23q16 8 45 8q16 0 37 -4q10 -2 27 -10q12 -6 22 -17q2 -2 9.5 -11t11.5 -13l274 -318h-117z" />
<glyph unicode="&#xc1;" horiz-adv-x="1378" d="M10 0v88l119 25l477 1294h154l475 -1264q6 -20 14 -28.5t29 -10.5l92 -16v-88h-487v88l118 10q10 0 17 13q6 14 4 22l-141 375h-473l-136 -369q-3 -6 0 -12l2 -6q2 -6 5 -8q8 -8 12 -11q8 -4 10 -4l121 -10v-88h-412zM444 606h400l-201 537zM504 1527l272 318q6 6 12 13 t11 11q12 12 20 17q14 8 29 10q20 4 37 4q29 0 45 -8q12 -6 28 -23q12 -12 17 -28q4 -20 4 -33q0 -25 -12 -47q-10 -16 -35 -35l-312 -199h-116z" />
<glyph unicode="&#xc2;" horiz-adv-x="1378" d="M10 0v88l119 25l477 1294h154l475 -1264q6 -20 14 -28.5t29 -10.5l92 -16v-88h-487v88l118 10q10 0 17 13q6 14 4 22l-141 375h-473l-136 -369q-3 -6 0 -12l2 -6q2 -6 5 -8q8 -8 12 -11q8 -4 10 -4l121 -10v-88h-412zM444 606h400l-201 537zM348 1527l258 347h154 l258 -347h-123l-211 203l-213 -203h-123z" />
<glyph unicode="&#xc3;" horiz-adv-x="1378" d="M10 0v88l119 25l477 1294h154l475 -1264q6 -20 14 -28.5t29 -10.5l92 -16v-88h-487v88l118 10q10 0 17 13q6 14 4 22l-141 375h-473l-136 -369q-3 -6 0 -12l2 -6q2 -6 5 -8q8 -8 12 -11q8 -4 10 -4l121 -10v-88h-412zM444 606h400l-201 537zM328 1597q12 46 31 86 q18 41 49 71.5t69.5 49t88.5 18.5q20 0 49 -8l43 -18q14 -6 39 -23q27 -16 43 -24q27 -12 49 -17q37 -8 59.5 -8t38.5 8q18 8 35 23q15 12 24 30q6 12 11 37h82q-14 -57 -31 -86q-23 -43 -49.5 -71.5t-69.5 -48.5q-41 -18 -88 -19q-20 0 -49 8q-14 4 -43 17q-8 4 -22.5 13 t-18.5 11q-29 16 -43 23q-37 16 -49 18q-37 8 -59.5 8t-38.5 -8q-12 -6 -33 -22q-15 -12 -25 -31q-6 -12 -10 -37h-82z" />
<glyph unicode="&#xc4;" horiz-adv-x="1378" d="M10 0v88l119 25l477 1294h154l475 -1264q6 -20 14 -28.5t29 -10.5l92 -16v-88h-487v88l118 10q10 0 17 13q6 14 4 22l-141 375h-473l-136 -369q-3 -6 0 -12l2 -6q2 -6 5 -8q8 -8 12 -11q8 -4 10 -4l121 -10v-88h-412zM444 606h400l-201 537zM583 1712q0 -18 -10 -43 t-23 -37q-18 -18 -36.5 -26.5t-43 -8.5t-42.5 8q-14 6 -35 27q-16 16 -24.5 34.5t-8.5 43t8 43.5q9 22 25 37q16 16 35 24q25 10 43 10t42.5 -10t37 -22.5t22.5 -37t10 -42.5zM1007 1711.5q0 -24.5 -8 -42.5q-9 -22 -25 -37q-20 -20 -34 -27q-18 -8 -43 -8t-43.5 8t-36.5 27 q-15 15 -25 37q-8 18 -8 43q0 23 8 41t27 37q16 16 35 24q25 10 43 10t43 -10q18 -8 34.5 -24.5t24.5 -35t8 -43z" />
<glyph unicode="&#xc5;" horiz-adv-x="1378" d="M10 0v88l119 25l477 1294h154l475 -1264q6 -20 14 -28.5t29 -10.5l92 -16v-88h-487v88l118 10q10 0 17 13q6 14 4 22l-141 375h-473l-136 -369q-3 -6 0 -12l2 -6q2 -6 5 -8q8 -8 12 -11q8 -4 10 -4l121 -10v-88h-412zM444 606h400l-201 537zM827 1769q0 35 -10 57 q-8 18 -31 46q-14 16 -47 32q-20 10 -55 11q-33 0 -56 -11q-31 -14 -47 -32q-23 -27 -30 -46q-10 -23 -10.5 -57.5t10.5 -54.5q14 -29 30 -45q18 -18 47 -30.5t56 -12.5q31 0 55 12q33 16 47 31q16 16 31 45q10 20 10 55zM927 1769q0 -51 -18 -94t-53 -78q-33 -33 -76 -51.5 t-96 -18.5q-51 0 -94 19q-47 20 -78 51q-35 35 -53.5 78t-18.5 94q0 53 18.5 96t53 78t78 53.5t94.5 18.5q53 0 96 -19q39 -16 76 -53q35 -35 53 -78t18 -96z" />
<glyph unicode="&#xc6;" horiz-adv-x="1910" d="M985 1280l-416 -668h416v668zM831 0v88l101 8q25 4 37 17q16 16 16 28v371h-473l-229 -371q-12 -18 -7 -28q6 -12 21 -15l117 -10v-88h-404v88l109 16l696 1131q8 14 -4 29q-12 12 -25 14l-100 10v86h1086v-305h-119l-29 168q-2 14 -12 26.5t-23 12.5h-397v-510l258 -2 q15 0 24.5 12t12.5 25l18 141h101v-457h-101l-18 144q-2 10 -14.5 22.5t-22.5 12.5h-258v-564h469q4 0 12 4q4 2 13 11q4 4 8 12t4 12l31 203h116v-342h-1014z" />
<glyph unicode="&#xc7;" horiz-adv-x="1282" d="M80 690q0 162 51 291q52 132 148 227q94 94 225 146q135 53 293 53q51 0 96 -6q61 -8 94 -15q51 -10 103 -24q23 -6 37 -10t33.5 -11.5t43.5 -13.5v-321h-123l-30 186q-2 14 -15 29q-8 10 -20 18q-4 2 -14.5 6t-16.5 8q-4 2 -47 17q-37 12 -59 16q-35 6 -72 6 q-109 0 -195 -39q-94 -43 -155 -114q-70 -84 -105 -189q-37 -115 -37 -260q0 -150 35 -256q37 -117 103 -192q63 -76 163 -121q90 -41 218 -41q35 0 65 6l51 10q25 6 35 13q12 6 14 6q18 6 25 16q12 16 14 25l47 223h119v-332l-39 -14q-12 -4 -92 -27q-49 -14 -127 -26 q-74 -12 -151 -13h-25v-96q4 0 11 1t12 3q12 4 26 4q33 0 58 -8q31 -10 47 -24.5t30 -45.5q12 -28 13 -67q0 -47 -18.5 -84t-49.5 -62q-29 -25 -76 -37q-43 -12 -96 -12q-35 0 -53 2l-25.5 5t-21.5 3q-25 2 -49 11v80q14 -4 43 -9q12 -2 41 -6q14 -2 40 -2q14 0 48 4 q16 2 41 15q18 9 30 24q12 14 13 41q0 39 -27 57q-29 18 -70 19q-10 0 -16 -2q-2 0 -7 -1t-7 -3l-17 -6v202q-51 6 -108 23q-98 27 -176 76q-76 47 -140 116q-57 61 -102 148q-41 76 -64 170q-20 84 -20 184z" />
<glyph unicode="&#xc8;" horiz-adv-x="1193" d="M66 0v88l106 8q23 4 33 17q12 14 12 28v1092q0 12 -12 29q-10 12 -33 16l-106 8v88h995v-305h-123l-31 168q-2 14 -12 27q-9 12 -25 12h-444v-510h307q12 0 24.5 12.5t12.5 22.5l21 141h104v-457h-104l-21 142q0 12 -12.5 24.5t-24.5 12.5h-307v-564h518q12 0 25 15 q8 10 12 24l37 203h110v-342h-1062zM661 1527l-311 199q-25 18 -35 35q-12 23 -12 47q0 23 4 33q8 20 16 28q16 16 29 23q16 8 45 8q16 0 37 -4q10 -2 27 -10q12 -6 22 -17q2 -2 9.5 -11t11.5 -13l274 -318h-117z" />
<glyph unicode="&#xc9;" horiz-adv-x="1193" d="M66 0v88l106 8q23 4 33 17q12 14 12 28v1092q0 12 -12 29q-10 12 -33 16l-106 8v88h995v-305h-123l-31 168q-2 14 -12 27q-9 12 -25 12h-444v-510h307q12 0 24.5 12.5t12.5 22.5l21 141h104v-457h-104l-21 142q0 12 -12.5 24.5t-24.5 12.5h-307v-564h518q12 0 25 15 q8 10 12 24l37 203h110v-342h-1062zM418 1527l272 318q6 6 12 13t11 11q12 12 20 17q14 8 29 10q20 4 37 4q29 0 45 -8q12 -6 28 -23q12 -12 17 -28q4 -20 4 -33q0 -25 -12 -47q-10 -16 -35 -35l-312 -199h-116z" />
<glyph unicode="&#xca;" horiz-adv-x="1193" d="M66 0v88l106 8q23 4 33 17q12 14 12 28v1092q0 12 -12 29q-10 12 -33 16l-106 8v88h995v-305h-123l-31 168q-2 14 -12 27q-9 12 -25 12h-444v-510h307q12 0 24.5 12.5t12.5 22.5l21 141h104v-457h-104l-21 142q0 12 -12.5 24.5t-24.5 12.5h-307v-564h518q12 0 25 15 q8 10 12 24l37 203h110v-342h-1062zM262 1527l258 347h154l258 -347h-123l-211 203l-213 -203h-123z" />
<glyph unicode="&#xcb;" horiz-adv-x="1193" d="M66 0v88l106 8q23 4 33 17q12 14 12 28v1092q0 12 -12 29q-10 12 -33 16l-106 8v88h995v-305h-123l-31 168q-2 14 -12 27q-9 12 -25 12h-444v-510h307q12 0 24.5 12.5t12.5 22.5l21 141h104v-457h-104l-21 142q0 12 -12.5 24.5t-24.5 12.5h-307v-564h518q12 0 25 15 q8 10 12 24l37 203h110v-342h-1062zM497 1712q0 -18 -10 -43t-23 -37q-18 -18 -36.5 -26.5t-43 -8.5t-42.5 8q-14 6 -35 27q-16 16 -24.5 34.5t-8.5 43t8 43.5q9 22 25 37q16 16 35 24q25 10 43 10t42.5 -10t37 -22.5t22.5 -37t10 -42.5zM921 1711.5q0 -24.5 -8 -42.5 q-9 -22 -25 -37q-20 -20 -34 -27q-18 -8 -43 -8t-43.5 8t-36.5 27q-15 15 -25 37q-8 18 -8 43q0 23 8 41t27 37q16 16 35 24q25 10 43 10t43 -10q18 -8 34.5 -24.5t24.5 -35t8 -43z" />
<glyph unicode="&#xcc;" horiz-adv-x="675" d="M68 0v88l122 8q25 4 33 17q10 16 10 28v1092q0 14 -10 29q-8 10 -33 14l-122 8v90h540v-90l-125 -8q-20 -2 -32 -14q-10 -10 -11 -29v-1092q0 -16 10.5 -28.5t32.5 -16.5l125 -8v-88h-540zM401 1527l-311 199q-25 18 -35 35q-12 23 -12 47q0 23 4 33q8 20 16 28 q16 16 29 23q16 8 45 8q16 0 37 -4q10 -2 27 -10q12 -6 22 -17q2 -2 9.5 -11t11.5 -13l274 -318h-117z" />
<glyph unicode="&#xcd;" horiz-adv-x="675" d="M68 0v88l122 8q25 4 33 17q10 16 10 28v1092q0 14 -10 29q-8 10 -33 14l-122 8v90h540v-90l-125 -8q-20 -2 -32 -14q-10 -10 -11 -29v-1092q0 -16 10.5 -28.5t32.5 -16.5l125 -8v-88h-540zM160 1527l272 318q6 6 12 13t11 11q12 12 20 17q14 8 29 10q20 4 37 4 q29 0 45 -8q12 -6 28 -23q12 -12 17 -28q4 -20 4 -33q0 -25 -12 -47q-10 -16 -35 -35l-312 -199h-116z" />
<glyph unicode="&#xce;" horiz-adv-x="675" d="M68 0v88l122 8q25 4 33 17q10 16 10 28v1092q0 14 -10 29q-8 10 -33 14l-122 8v90h540v-90l-125 -8q-20 -2 -32 -14q-10 -10 -11 -29v-1092q0 -16 10.5 -28.5t32.5 -16.5l125 -8v-88h-540zM2 1527l258 347h154l258 -347h-123l-211 203l-213 -203h-123z" />
<glyph unicode="&#xcf;" horiz-adv-x="675" d="M68 0v88l122 8q25 4 33 17q10 16 10 28v1092q0 14 -10 29q-8 10 -33 14l-122 8v90h540v-90l-125 -8q-20 -2 -32 -14q-10 -10 -11 -29v-1092q0 -16 10.5 -28.5t32.5 -16.5l125 -8v-88h-540zM237 1712q0 -18 -10 -43t-23 -37q-18 -18 -36.5 -26.5t-43 -8.5t-42.5 8 q-14 6 -35 27q-16 16 -24.5 34.5t-8.5 43t8 43.5q9 22 25 37q16 16 35 24q25 10 43 10t42.5 -10t37 -22.5t22.5 -37t10 -42.5zM661 1711.5q0 -24.5 -8 -42.5q-9 -22 -25 -37q-20 -20 -34 -27q-18 -8 -43 -8t-43.5 8t-36.5 27q-15 15 -25 37q-8 18 -8 43q0 23 8 41t27 37 q16 16 35 24q25 10 43 10t43 -10q18 -8 34.5 -24.5t24.5 -35t8 -43z" />
<glyph unicode="&#xd0;" horiz-adv-x="1423" d="M29 668v104h190v461q0 12 -12 29q-10 12 -33 16l-108 8v88h528q158 0 299 -41q131 -39 237 -125q98 -80 158 -213q57 -127 58 -305q0 -100 -17 -176q-20 -92 -53 -162q-37 -77 -92 -141q-59 -68 -135 -113q-82 -47 -183 -71q-111 -27 -231 -27h-569v88l108 8q23 4 33 17 q12 14 12 28v527h-190zM426 98l166 2q123 0 215 33q100 35 164 103q70 74 106 182q37 111 37 268q0 162 -37 275q-35 109 -108 182q-72 72 -168 102q-98 31 -219 31h-156v-504h324v-104h-324v-570z" />
<glyph unicode="&#xd1;" horiz-adv-x="1476" d="M51 1286v88h406v-51l682 -1030v940q0 16 -10.5 28.5t-32.5 16.5l-117 8v88h438v-88l-114 -8q-25 -4 -33 -16q-10 -16 -10 -29v-1233h-160l-762 1147v-1006q0 -12 10 -28q8 -12 33 -17l117 -8v-88h-443v88l117 8q23 4 33 17q12 14 12 28v1092q0 12 -12 29q-10 12 -33 16z M379 1597q12 46 31 86q18 41 49 71.5t69.5 49t88.5 18.5q20 0 49 -8l43 -18q14 -6 39 -23q27 -16 43 -24q27 -12 49 -17q37 -8 59.5 -8t38.5 8q18 8 35 23q15 12 24 30q6 12 11 37h82q-14 -57 -31 -86q-23 -43 -49.5 -71.5t-69.5 -48.5q-41 -18 -88 -19q-20 0 -49 8 q-14 4 -43 17q-8 4 -22.5 13t-18.5 11q-29 16 -43 23q-37 16 -49 18q-37 8 -59.5 8t-38.5 -8q-12 -6 -33 -22q-15 -12 -25 -31q-6 -12 -10 -37h-82z" />
<glyph unicode="&#xd2;" horiz-adv-x="1495" d="M80 688q0 145 47 281q45 129 133 229q84 96 211 154q123 55 277 55q156 0 276 -57q127 -61 211 -156q92 -106 135 -227q47 -135 47 -281q0 -150 -49 -280q-47 -127 -135 -228q-88 -102 -209 -155q-123 -55 -274 -56q-156 0 -275 53q-125 55 -211 152q-88 96 -137 229 q-47 127 -47 287zM315 688q0 -127 27 -233q29 -113 80 -195q51 -80 133 -131q80 -49 190.5 -49t192.5 49q80 47 135 131q51 76 80 193q27 106 27 231q0 129 -27 236q-29 111 -82 192q-59 88 -133 131q-82 47 -188 47q-111 0 -193 -49t-135 -129q-55 -84 -80 -192 q-27 -121 -27 -232zM813 1527l-311 199q-25 18 -35 35q-12 23 -12 47q0 23 4 33q8 20 16 28q16 16 29 23q16 8 45 8q16 0 37 -4q10 -2 27 -10q12 -6 22 -17q2 -2 9.5 -11t11.5 -13l274 -318h-117z" />
<glyph unicode="&#xd3;" horiz-adv-x="1495" d="M80 688q0 145 47 281q45 129 133 229q84 96 211 154q123 55 277 55q156 0 276 -57q127 -61 211 -156q92 -106 135 -227q47 -135 47 -281q0 -150 -49 -280q-47 -127 -135 -228q-88 -102 -209 -155q-123 -55 -274 -56q-156 0 -275 53q-125 55 -211 152q-88 96 -137 229 q-47 127 -47 287zM315 688q0 -127 27 -233q29 -113 80 -195q51 -80 133 -131q80 -49 190.5 -49t192.5 49q80 47 135 131q51 76 80 193q27 106 27 231q0 129 -27 236q-29 111 -82 192q-59 88 -133 131q-82 47 -188 47q-111 0 -193 -49t-135 -129q-55 -84 -80 -192 q-27 -121 -27 -232zM570 1527l272 318q6 6 12 13t11 11q12 12 20 17q14 8 29 10q20 4 37 4q29 0 45 -8q12 -6 28 -23q12 -12 17 -28q4 -20 4 -33q0 -25 -12 -47q-10 -16 -35 -35l-312 -199h-116z" />
<glyph unicode="&#xd4;" horiz-adv-x="1495" d="M80 688q0 145 47 281q45 129 133 229q84 96 211 154q123 55 277 55q156 0 276 -57q127 -61 211 -156q92 -106 135 -227q47 -135 47 -281q0 -150 -49 -280q-47 -127 -135 -228q-88 -102 -209 -155q-123 -55 -274 -56q-156 0 -275 53q-125 55 -211 152q-88 96 -137 229 q-47 127 -47 287zM315 688q0 -127 27 -233q29 -113 80 -195q51 -80 133 -131q80 -49 190.5 -49t192.5 49q80 47 135 131q51 76 80 193q27 106 27 231q0 129 -27 236q-29 111 -82 192q-59 88 -133 131q-82 47 -188 47q-111 0 -193 -49t-135 -129q-55 -84 -80 -192 q-27 -121 -27 -232zM414 1527l258 347h154l258 -347h-123l-211 203l-213 -203h-123z" />
<glyph unicode="&#xd5;" horiz-adv-x="1495" d="M80 688q0 145 47 281q45 129 133 229q84 96 211 154q123 55 277 55q156 0 276 -57q127 -61 211 -156q92 -106 135 -227q47 -135 47 -281q0 -150 -49 -280q-47 -127 -135 -228q-88 -102 -209 -155q-123 -55 -274 -56q-156 0 -275 53q-125 55 -211 152q-88 96 -137 229 q-47 127 -47 287zM315 688q0 -127 27 -233q29 -113 80 -195q51 -80 133 -131q80 -49 190.5 -49t192.5 49q80 47 135 131q51 76 80 193q27 106 27 231q0 129 -27 236q-29 111 -82 192q-59 88 -133 131q-82 47 -188 47q-111 0 -193 -49t-135 -129q-55 -84 -80 -192 q-27 -121 -27 -232zM393 1597q12 46 31 86q18 41 49 71.5t69.5 49t88.5 18.5q20 0 49 -8l43 -18q14 -6 39 -23q27 -16 43 -24q27 -12 49 -17q37 -8 59.5 -8t38.5 8q18 8 35 23q15 12 24 30q6 12 11 37h82q-14 -57 -31 -86q-23 -43 -49.5 -71.5t-69.5 -48.5q-41 -18 -88 -19 q-20 0 -49 8q-14 4 -43 17q-8 4 -22.5 13t-18.5 11q-29 16 -43 23q-37 16 -49 18q-37 8 -59.5 8t-38.5 -8q-12 -6 -33 -22q-15 -12 -25 -31q-6 -12 -10 -37h-82z" />
<glyph unicode="&#xd6;" horiz-adv-x="1495" d="M80 688q0 145 47 281q45 129 133 229q84 96 211 154q123 55 277 55q156 0 276 -57q127 -61 211 -156q92 -106 135 -227q47 -135 47 -281q0 -150 -49 -280q-47 -127 -135 -228q-88 -102 -209 -155q-123 -55 -274 -56q-156 0 -275 53q-125 55 -211 152q-88 96 -137 229 q-47 127 -47 287zM315 688q0 -127 27 -233q29 -113 80 -195q51 -80 133 -131q80 -49 190.5 -49t192.5 49q80 47 135 131q51 76 80 193q27 106 27 231q0 129 -27 236q-29 111 -82 192q-59 88 -133 131q-82 47 -188 47q-111 0 -193 -49t-135 -129q-55 -84 -80 -192 q-27 -121 -27 -232zM649 1712q0 -18 -10 -43t-23 -37q-18 -18 -36.5 -26.5t-43 -8.5t-42.5 8q-14 6 -35 27q-16 16 -24.5 34.5t-8.5 43t8 43.5q9 22 25 37q16 16 35 24q25 10 43 10t42.5 -10t37 -22.5t22.5 -37t10 -42.5zM1073 1711.5q0 -24.5 -8 -42.5q-9 -22 -25 -37 q-20 -20 -34 -27q-18 -8 -43 -8t-43.5 8t-36.5 27q-15 15 -25 37q-8 18 -8 43q0 23 8 41t27 37q16 16 35 24q25 10 43 10t43 -10q18 -8 34.5 -24.5t24.5 -35t8 -43z" />
<glyph unicode="&#xd7;" horiz-adv-x="2048" d="M471 141l471 473l-471 473l80 80l473 -475l473 475l80 -80l-471 -473l471 -473l-80 -80l-473 476l-473 -476z" />
<glyph unicode="&#xd8;" horiz-adv-x="1495" d="M80 688q0 145 47 281q45 129 133 229q84 96 211 154q123 55 277 55q88 0 163 -18q78 -18 144 -54l116 197l97 -57q-10 -16 -18.5 -32t-15.5 -28t-22 -35l-63 -104q63 -49 113 -113q53 -70 84 -139q37 -82 53 -162q18 -86 18 -176q0 -150 -49 -280q-47 -127 -135 -228 q-88 -102 -209 -155q-123 -55 -274 -56q-96 0 -177 21q-83 22 -153 61l-64 -106l-63 -105l-94 58l129 217q-58 49 -105 110t-77.5 137t-49.5 156q-16 74 -16 172zM315 688q0 -113 27 -229q25 -109 78 -193l561 946q-43 35 -104 58q-55 20 -127 20q-111 0 -193 -49t-135 -129 q-55 -84 -80 -192q-27 -121 -27 -232zM496 174q47 -45 110 -70q61 -25 139 -24q111 0 193 49q80 47 135 131q51 76 80 193q27 106 27 231q0 129 -29 248q-27 109 -88 196l-270 -452z" />
<glyph unicode="&#xd9;" horiz-adv-x="1456" d="M63 1286v88h521v-88l-117 -8q-25 -4 -33 -16q-10 -16 -10 -29v-725q0 -94 14 -164q16 -80 51 -129t107 -82q63 -29 174 -29q106 0 174 31q66 31 107 86t55 127q14 70 14 160v725q0 12 -12 29q-10 12 -33 16l-117 8v88h445v-88l-119 -8q-25 -4 -33 -16q-10 -16 -10 -29 v-778q0 -123 -35 -217q-33 -90 -100 -152q-70 -63 -164 -90q-102 -29 -227 -29q-254 0 -377 123t-123 365v778q0 12 -10 29q-8 12 -33 16zM815 1527l-311 199q-25 18 -35 35q-12 23 -12 47q0 23 4 33q8 20 16 28q16 16 29 23q16 8 45 8q16 0 37 -4q10 -2 27 -10 q12 -6 22 -17q2 -2 9.5 -11t11.5 -13l274 -318h-117z" />
<glyph unicode="&#xda;" horiz-adv-x="1456" d="M63 1286v88h521v-88l-117 -8q-25 -4 -33 -16q-10 -16 -10 -29v-725q0 -94 14 -164q16 -80 51 -129t107 -82q63 -29 174 -29q106 0 174 31q66 31 107 86t55 127q14 70 14 160v725q0 12 -12 29q-10 12 -33 16l-117 8v88h445v-88l-119 -8q-25 -4 -33 -16q-10 -16 -10 -29 v-778q0 -123 -35 -217q-33 -90 -100 -152q-70 -63 -164 -90q-102 -29 -227 -29q-254 0 -377 123t-123 365v778q0 12 -10 29q-8 12 -33 16zM572 1527l272 318q6 6 12 13t11 11q12 12 20 17q14 8 29 10q20 4 37 4q29 0 45 -8q12 -6 28 -23q12 -12 17 -28q4 -20 4 -33 q0 -25 -12 -47q-10 -16 -35 -35l-312 -199h-116z" />
<glyph unicode="&#xdb;" horiz-adv-x="1456" d="M63 1286v88h521v-88l-117 -8q-25 -4 -33 -16q-10 -16 -10 -29v-725q0 -94 14 -164q16 -80 51 -129t107 -82q63 -29 174 -29q106 0 174 31q66 31 107 86t55 127q14 70 14 160v725q0 12 -12 29q-10 12 -33 16l-117 8v88h445v-88l-119 -8q-25 -4 -33 -16q-10 -16 -10 -29 v-778q0 -123 -35 -217q-33 -90 -100 -152q-70 -63 -164 -90q-102 -29 -227 -29q-254 0 -377 123t-123 365v778q0 12 -10 29q-8 12 -33 16zM416 1527l258 347h154l258 -347h-123l-211 203l-213 -203h-123z" />
<glyph unicode="&#xdc;" horiz-adv-x="1456" d="M63 1286v88h521v-88l-117 -8q-25 -4 -33 -16q-10 -16 -10 -29v-725q0 -94 14 -164q16 -80 51 -129t107 -82q63 -29 174 -29q106 0 174 31q66 31 107 86t55 127q14 70 14 160v725q0 12 -12 29q-10 12 -33 16l-117 8v88h445v-88l-119 -8q-25 -4 -33 -16q-10 -16 -10 -29 v-778q0 -123 -35 -217q-33 -90 -100 -152q-70 -63 -164 -90q-102 -29 -227 -29q-254 0 -377 123t-123 365v778q0 12 -10 29q-8 12 -33 16zM649 1712q0 -18 -10 -43t-23 -37q-18 -18 -36.5 -26.5t-43 -8.5t-42.5 8q-14 6 -35 27q-16 16 -24.5 34.5t-8.5 43t8 43.5q9 22 25 37 q16 16 35 24q25 10 43 10t42.5 -10t37 -22.5t22.5 -37t10 -42.5zM1073 1711.5q0 -24.5 -8 -42.5q-9 -22 -25 -37q-20 -20 -34 -27q-18 -8 -43 -8t-43.5 8t-36.5 27q-15 15 -25 37q-8 18 -8 43q0 23 8 41t27 37q16 16 35 24q25 10 43 10t43 -10q18 -8 34.5 -24.5t24.5 -35 t8 -43z" />
<glyph unicode="&#xdd;" horiz-adv-x="1280" d="M20 1286v88h486v-88l-103 -10q-23 -2 -26.5 -16.5t2.5 -24.5l289 -535l317 529q10 16 0 28q-8 10 -24 15l-115 14v88h416v-88l-111 -20l-412 -682v-443q0 -16 10.5 -28.5t32.5 -16.5l131 -8v-88h-553v88l127 8q23 4 33 17q12 14 12 28v412l-393 709zM461 1527l272 318 q6 6 12 13t11 11q12 12 20 17q14 8 29 10q20 4 37 4q29 0 45 -8q12 -6 28 -23q12 -12 17 -28q4 -20 4 -33q0 -25 -12 -47q-10 -16 -35 -35l-312 -199h-116z" />
<glyph unicode="&#xde;" horiz-adv-x="1183" d="M66 0v88l104 8q23 4 33 15q12 12 12 30v1092q0 18 -12 31q-10 10 -33 14l-104 8v88h522v-88l-119 -8q-23 -4 -33 -14q-12 -12 -12 -31v-115l139 -2q145 -4 242 -26q104 -25 168 -72q68 -49 98 -125q33 -82 33 -184q0 -109 -39 -189q-39 -82 -111 -137q-76 -59 -170 -86 t-215 -27q-6 0 -22.5 1t-24.5 1q-33 0 -47 2t-26.5 4.5t-24.5 2.5v-140q0 -18 12 -30q10 -10 33 -15l119 -8v-88h-522zM424 383l45 -4q12 -2 39 -2q8 0 19.5 -1t15.5 -1q160 -2 245 80q82 80 82 254q0 76 -18 137q-18 59 -57 98q-41 41 -109 60q-72 18 -166 16q-2 2 -18 2 q-8 0 -16.5 -1t-16.5 -1q-29 -4 -45 -4v-633z" />
<glyph unicode="&#xdf;" horiz-adv-x="1284" d="M45 0v78l98 10q16 2 28.5 18.5t12.5 28.5v793q0 71 13 141q12 68 41 135q31 70 69 121q49 61 99 96q57 39 130.5 63.5t163.5 24.5q88 0 156 -24q66 -25 113 -68q43 -41 67 -108q23 -63 23 -140q0 -49 -4 -73.5t-13 -65.5q-4 -20 -12 -49q-6 -22 -6 -25q-6 0 -12 2.5 t-33 2.5q-51 0 -88 -12.5t-60 -35.5q-25 -25 -32 -49q-10 -31 -11 -59q0 -37 18.5 -67.5t47.5 -53.5q37 -29 70 -47q14 -8 35.5 -21.5t44.5 -25.5q61 -37 77 -49q37 -27 70 -62q29 -31 47 -76q18 -43 19 -98q0 -72 -29 -135.5t-76 -103.5q-49 -43 -115 -68q-59 -23 -137 -23 q-39 0 -78 9q-8 2 -35.5 7t-41.5 9q-57 16 -87 27v274h111l19 -178q14 -12 49 -33q31 -18 73 -18q41 0 70 14q37 18 55 39q23 27 35 55q12 31 12 66q0 59 -32 98q-35 41 -82 74q-53 37 -105 63q-63 33 -106 66t-80 82q-33 45 -33 112q0 53 19 101q18 45 53 84q33 35 78 59 q46 25 98 37q4 16 8 53q0 10 2 22.5l4 24.5q4 33 4 47q0 45 -12 88q-10 37 -39 76q-23 31 -63 53q-39 20 -92 21q-61 0 -109 -25q-55 -29 -80 -61q-29 -39 -51.5 -88t-30.5 -100q-12 -72 -14 -101q-4 -66 -4 -84v-813q0 -20 10 -35q8 -12 21 -14l104 -8v-78h-465z" />
<glyph unicode="&#xe0;" horiz-adv-x="1040" d="M70 252q0 27 8 72q6 29 31 65q23 33 63 62q49 35 109 59q84 35 165 57q131 37 232 58v88q0 106 -45 153q-47 49 -146 49q-51 0 -92 -10q-33 -8 -53 -16v-178h-149q-18 0 -27 2q-16 4 -25 8q-12 6 -18 18.5t-6 30.5q0 59 39 109q35 45 98 75q51 27 137 43q72 14 152 15 q94 0 157 -23q59 -20 99 -63q37 -41 53 -99q14 -51 14 -122v-574q0 -18 13 -31q10 -10 30 -14l99 -6v-80h-303l-27 121q-80 -57 -111 -74q-16 -10 -53 -26.5t-57 -22.5q-45 -14 -60 -16q-31 -6 -61 -7q-55 0 -105 19q-45 16 -84 55q-37 37 -57 86t-20 117zM272 266 q0 -29 11 -63q6 -20 30 -53q16 -23 47 -39q27 -14 66 -15q45 0 86 15q57 20 82 32q33 16 84 50v354q-129 -31 -219 -70q-80 -34 -123 -67q-41 -33 -53 -70q-11 -31 -11 -74zM573 1128l-311 199q-25 18 -35 35q-12 23 -12 47q0 23 4 33q8 20 16 28q16 16 29 23q16 8 45 8 q16 0 37 -4q10 -2 27 -10q12 -6 22 -17q2 -2 9.5 -11t11.5 -13l274 -318h-117z" />
<glyph unicode="&#xe1;" horiz-adv-x="1040" d="M70 252q0 27 8 72q6 29 31 65q23 33 63 62q49 35 109 59q84 35 165 57q131 37 232 58v88q0 106 -45 153q-47 49 -146 49q-51 0 -92 -10q-33 -8 -53 -16v-178h-149q-18 0 -27 2q-16 4 -25 8q-12 6 -18 18.5t-6 30.5q0 59 39 109q35 45 98 75q51 27 137 43q72 14 152 15 q94 0 157 -23q59 -20 99 -63q37 -41 53 -99q14 -51 14 -122v-574q0 -18 13 -31q10 -10 30 -14l99 -6v-80h-303l-27 121q-80 -57 -111 -74q-16 -10 -53 -26.5t-57 -22.5q-45 -14 -60 -16q-31 -6 -61 -7q-55 0 -105 19q-45 16 -84 55q-37 37 -57 86t-20 117zM272 266 q0 -29 11 -63q6 -20 30 -53q16 -23 47 -39q27 -14 66 -15q45 0 86 15q57 20 82 32q33 16 84 50v354q-129 -31 -219 -70q-80 -34 -123 -67q-41 -33 -53 -70q-11 -31 -11 -74zM330 1128l272 318q6 6 12 13t11 11q12 12 20 17q14 8 29 10q20 4 37 4q29 0 45 -8q12 -6 28 -23 q12 -12 17 -28q4 -20 4 -33q0 -25 -12 -47q-10 -16 -35 -35l-312 -199h-116z" />
<glyph unicode="&#xe2;" horiz-adv-x="1040" d="M70 252q0 27 8 72q6 29 31 65q23 33 63 62q49 35 109 59q84 35 165 57q131 37 232 58v88q0 106 -45 153q-47 49 -146 49q-51 0 -92 -10q-33 -8 -53 -16v-178h-149q-18 0 -27 2q-16 4 -25 8q-12 6 -18 18.5t-6 30.5q0 59 39 109q35 45 98 75q51 27 137 43q72 14 152 15 q94 0 157 -23q59 -20 99 -63q37 -41 53 -99q14 -51 14 -122v-574q0 -18 13 -31q10 -10 30 -14l99 -6v-80h-303l-27 121q-80 -57 -111 -74q-16 -10 -53 -26.5t-57 -22.5q-45 -14 -60 -16q-31 -6 -61 -7q-55 0 -105 19q-45 16 -84 55q-37 37 -57 86t-20 117zM272 266 q0 -29 11 -63q6 -20 30 -53q16 -23 47 -39q27 -14 66 -15q45 0 86 15q57 20 82 32q33 16 84 50v354q-129 -31 -219 -70q-80 -34 -123 -67q-41 -33 -53 -70q-11 -31 -11 -74zM174 1128l258 347h154l258 -347h-123l-211 203l-213 -203h-123z" />
<glyph unicode="&#xe3;" horiz-adv-x="1040" d="M70 252q0 27 8 72q6 29 31 65q23 33 63 62q49 35 109 59q84 35 165 57q131 37 232 58v88q0 106 -45 153q-47 49 -146 49q-51 0 -92 -10q-33 -8 -53 -16v-178h-149q-18 0 -27 2q-16 4 -25 8q-12 6 -18 18.5t-6 30.5q0 59 39 109q35 45 98 75q51 27 137 43q72 14 152 15 q94 0 157 -23q59 -20 99 -63q37 -41 53 -99q14 -51 14 -122v-574q0 -18 13 -31q10 -10 30 -14l99 -6v-80h-303l-27 121q-80 -57 -111 -74q-16 -10 -53 -26.5t-57 -22.5q-45 -14 -60 -16q-31 -6 -61 -7q-55 0 -105 19q-45 16 -84 55q-37 37 -57 86t-20 117zM272 266 q0 -29 11 -63q6 -20 30 -53q16 -23 47 -39q27 -14 66 -15q45 0 86 15q57 20 82 32q33 16 84 50v354q-129 -31 -219 -70q-80 -34 -123 -67q-41 -33 -53 -70q-11 -31 -11 -74zM156 1198q12 46 31 86q18 41 49 71.5t69.5 49t88.5 18.5q20 0 49 -8l43 -18q14 -6 39 -23 q27 -16 43 -24q27 -12 49 -17q37 -8 59.5 -8t38.5 8q18 8 35 23q15 12 24 30q6 12 11 37h82q-14 -57 -31 -86q-23 -43 -49.5 -71.5t-69.5 -48.5q-41 -18 -88 -19q-20 0 -49 8q-14 4 -43 17q-8 4 -22.5 13t-18.5 11q-29 16 -43 23q-37 16 -49 18q-37 8 -59.5 8t-38.5 -8 q-12 -6 -33 -22q-15 -12 -25 -31q-6 -12 -10 -37h-82z" />
<glyph unicode="&#xe4;" horiz-adv-x="1040" d="M70 252q0 27 8 72q6 29 31 65q23 33 63 62q49 35 109 59q84 35 165 57q131 37 232 58v88q0 106 -45 153q-47 49 -146 49q-51 0 -92 -10q-33 -8 -53 -16v-178h-149q-18 0 -27 2q-16 4 -25 8q-12 6 -18 18.5t-6 30.5q0 59 39 109q35 45 98 75q51 27 137 43q72 14 152 15 q94 0 157 -23q59 -20 99 -63q37 -41 53 -99q14 -51 14 -122v-574q0 -18 13 -31q10 -10 30 -14l99 -6v-80h-303l-27 121q-80 -57 -111 -74q-16 -10 -53 -26.5t-57 -22.5q-45 -14 -60 -16q-31 -6 -61 -7q-55 0 -105 19q-45 16 -84 55q-37 37 -57 86t-20 117zM272 266 q0 -29 11 -63q6 -20 30 -53q16 -23 47 -39q27 -14 66 -15q45 0 86 15q57 20 82 32q33 16 84 50v354q-129 -31 -219 -70q-80 -34 -123 -67q-41 -33 -53 -70q-11 -31 -11 -74zM409 1313q0 -18 -10 -43t-23 -37q-18 -18 -36.5 -26.5t-43 -8.5t-42.5 8q-14 6 -35 27 q-16 16 -24.5 34.5t-8.5 43t8 43.5q9 22 25 37q16 16 35 24q25 10 43 10t42.5 -10t37 -22.5t22.5 -37t10 -42.5zM833 1312.5q0 -24.5 -8 -42.5q-9 -22 -25 -37q-20 -20 -34 -27q-18 -8 -43 -8t-43.5 8t-36.5 27q-15 15 -25 37q-8 18 -8 43q0 23 8 41t27 37q16 16 35 24 q25 10 43 10t43 -10q18 -8 34.5 -24.5t24.5 -35t8 -43z" />
<glyph unicode="&#xe5;" horiz-adv-x="1040" d="M70 252q0 27 8 72q6 29 31 65q23 33 63 62q49 35 109 59q84 35 165 57q131 37 232 58v88q0 106 -45 153q-47 49 -146 49q-51 0 -92 -10q-33 -8 -53 -16v-178h-149q-18 0 -27 2q-16 4 -25 8q-12 6 -18 18.5t-6 30.5q0 59 39 109q35 45 98 75q51 27 137 43q72 14 152 15 q94 0 157 -23q59 -20 99 -63q37 -41 53 -99q14 -51 14 -122v-574q0 -18 13 -31q10 -10 30 -14l99 -6v-80h-303l-27 121q-80 -57 -111 -74q-16 -10 -53 -26.5t-57 -22.5q-45 -14 -60 -16q-31 -6 -61 -7q-55 0 -105 19q-45 16 -84 55q-37 37 -57 86t-20 117zM272 266 q0 -29 11 -63q6 -20 30 -53q16 -23 47 -39q27 -14 66 -15q45 0 86 15q57 20 82 32q33 16 84 50v354q-129 -31 -219 -70q-80 -34 -123 -67q-41 -33 -53 -70q-11 -31 -11 -74zM653 1370q0 35 -10 57q-8 18 -31 46q-14 16 -47 32q-20 10 -55 11q-33 0 -56 -11q-31 -14 -47 -32 q-23 -27 -30 -46q-10 -23 -10.5 -57.5t10.5 -54.5q14 -29 30 -45q18 -18 47 -30.5t56 -12.5q31 0 55 12q33 16 47 31q16 16 31 45q10 20 10 55zM753 1370q0 -51 -18 -94t-53 -78q-33 -33 -76 -51.5t-96 -18.5q-51 0 -94 19q-47 20 -78 51q-35 35 -53.5 78t-18.5 94 q0 53 18.5 96t53 78t78 53.5t94.5 18.5q53 0 96 -19q39 -16 76 -53q35 -35 53 -78t18 -96z" />
<glyph unicode="&#xe6;" horiz-adv-x="1476" d="M1204 674q0 43 -10 90q-8 41 -31 76q-22 34 -55 55q-33 20 -78 20q-59 0 -94 -26q-39 -29 -59 -70q-22 -43 -31 -98q-10 -61 -10 -109h368v62zM645 547q-125 -33 -186 -60q-74 -31 -117 -61q-39 -27 -59 -70q-16 -33 -17 -84q0 -33 10 -67q10 -33 27 -55q14 -20 49 -37 q29 -14 70 -15q39 0 76 15q39 14 71 32q45 25 76 48v354zM1407 102q-47 -35 -55 -39q-41 -27 -76 -40q-37 -16 -94 -33q-49 -14 -115 -15q-43 0 -84 7q-43 6 -76 18q-55 20 -63 25q-6 4 -24.5 13t-28.5 15q-55 35 -97 78q-63 -49 -112 -78q-8 -6 -27.5 -15l-28.5 -13 l-61 -25q-31 -12 -64 -18q-34 -6 -67 -7q-68 0 -115 21q-49 20 -82 57t-51 84q-16 43 -16 107q0 78 32 137q31 53 99 94q76 45 178 76q117 35 266 74v84q0 55 -8 90q-10 41 -29 63q-25 27 -55 39q-39 14 -86 14t-82 -10q-25 -8 -47 -16v-178h-143q-41 0 -59.5 12t-18.5 47 q0 45 16.5 76t46.5 61q23 23 68 47q35 18 84 33q43 12 92 18.5t94 6.5q72 0 119 -12.5t78 -30.5q29 -16 47 -39q12 -14 29 -39l34 35q20 20 58 41q41 23 80 32q46 12 104 13q92 0 156 -33q68 -35 106 -92q43 -61 60 -133q18 -78 18 -158v-21q0 -4 -1 -12t-1 -12 q0 -6 -1 -12.5t-1 -14.5h-567v-272q14 -14 51 -47q23 -20 65 -45q37 -20 80 -33q53 -14 101 -14q43 0 84 10q49 12 71 22q34 15 62 37l57 43v-123z" />
<glyph unicode="&#xe7;" horiz-adv-x="952" d="M70 487q0 127 41 228q39 96 106 164q66 66 158 100q86 33 188 33q68 0 125 -13q45 -10 100 -41q41 -23 68 -63q25 -37 25 -88q0 -29 -11 -53q-10 -23 -26 -37q-20 -16 -39 -23q-29 -8 -45 -8q-35 0 -60 12q-37 18 -43 23v178q-22 12 -43 19q-29 8 -43 8q-68 0 -123 -31 t-92 -86q-35 -53 -57 -131q-20 -74 -20 -164q0 -82 22 -160q23 -80 64 -131q47 -59 106 -88q65 -31 147 -31q68 0 136 23q66 23 131 66v-117l-74 -37q-33 -16 -82 -33q-33 -12 -90 -22q-20 -4 -74 -9v-104q4 0 11.5 1t11.5 3q12 4 26 4q33 0 58 -8q31 -10 47 -24.5t31 -45.5 q12 -28 12 -67q0 -47 -18.5 -84t-49.5 -62q-29 -25 -76 -37q-43 -12 -96 -12q-35 0 -53 2l-25.5 5t-21.5 3q-25 2 -49 11v80q14 -4 43 -9q25 -4 39 -6t43 -2q14 0 47 4q16 2 41 15q18 9 30 24q12 14 13 41q0 39 -29 57q-27 18 -68 19q-10 0 -16 -2q-2 0 -7 -1t-7 -3l-17 -6 v206q-74 6 -141 35q-84 39 -147 109q-59 66 -95 162q-32 91 -32 204z" />
<glyph unicode="&#xe8;" horiz-adv-x="1003" d="M70 483q0 119 36.5 217.5t100 168t151.5 106.5t193 37q96 0 168 -31q66 -29 119 -88q45 -51 71 -133q25 -76 25 -168v-27q0 -20 -2 -30h-664q0 -74 17 -156q16 -78 55 -139q39 -59 104 -101q63 -39 166 -39q49 0 86 11q43 12 86 30q29 12 78 41l74 45v-125 q-51 -33 -90 -51q-31 -14 -96 -39q-45 -16 -101 -26q-57 -10 -102 -11q-92 0 -178 31q-90 33 -152 94q-68 68 -106.5 160t-38.5 223zM279 627h450v45q0 51 -12 94q-12 47 -37 76q-27 35 -62 51q-37 18 -88 18q-49 0 -96 -20q-41 -18 -76 -55q-33 -37 -55 -91 q-20 -50 -24 -118zM600 1128l-311 199q-25 18 -35 35q-12 23 -12 47q0 23 4 33q8 20 16 28q16 16 29 23q16 8 45 8q16 0 37 -4q10 -2 27 -10q12 -6 22 -17q2 -2 9.5 -11t11.5 -13l274 -318h-117z" />
<glyph unicode="&#xe9;" horiz-adv-x="1003" d="M70 483q0 119 36.5 217.5t100 168t151.5 106.5t193 37q96 0 168 -31q66 -29 119 -88q45 -51 71 -133q25 -76 25 -168v-27q0 -20 -2 -30h-664q0 -74 17 -156q16 -78 55 -139q39 -59 104 -101q63 -39 166 -39q49 0 86 11q43 12 86 30q29 12 78 41l74 45v-125 q-51 -33 -90 -51q-31 -14 -96 -39q-45 -16 -101 -26q-57 -10 -102 -11q-92 0 -178 31q-90 33 -152 94q-68 68 -106.5 160t-38.5 223zM279 627h450v45q0 51 -12 94q-12 47 -37 76q-27 35 -62 51q-37 18 -88 18q-49 0 -96 -20q-41 -18 -76 -55q-33 -37 -55 -91 q-20 -50 -24 -118zM357 1128l272 318q6 6 12 13t11 11q12 12 20 17q14 8 29 10q20 4 37 4q29 0 45 -8q12 -6 28 -23q12 -12 17 -28q4 -20 4 -33q0 -25 -12 -47q-10 -16 -35 -35l-312 -199h-116z" />
<glyph unicode="&#xea;" horiz-adv-x="1003" d="M70 483q0 119 36.5 217.5t100 168t151.5 106.5t193 37q96 0 168 -31q66 -29 119 -88q45 -51 71 -133q25 -76 25 -168v-27q0 -20 -2 -30h-664q0 -74 17 -156q16 -78 55 -139q39 -59 104 -101q63 -39 166 -39q49 0 86 11q43 12 86 30q29 12 78 41l74 45v-125 q-51 -33 -90 -51q-31 -14 -96 -39q-45 -16 -101 -26q-57 -10 -102 -11q-92 0 -178 31q-90 33 -152 94q-68 68 -106.5 160t-38.5 223zM279 627h450v45q0 51 -12 94q-12 47 -37 76q-27 35 -62 51q-37 18 -88 18q-49 0 -96 -20q-41 -18 -76 -55q-33 -37 -55 -91 q-20 -50 -24 -118zM201 1128l258 347h154l258 -347h-123l-211 203l-213 -203h-123z" />
<glyph unicode="&#xeb;" horiz-adv-x="1003" d="M70 483q0 119 36.5 217.5t100 168t151.5 106.5t193 37q96 0 168 -31q66 -29 119 -88q45 -51 71 -133q25 -76 25 -168v-27q0 -20 -2 -30h-664q0 -74 17 -156q16 -78 55 -139q39 -59 104 -101q63 -39 166 -39q49 0 86 11q43 12 86 30q29 12 78 41l74 45v-125 q-51 -33 -90 -51q-31 -14 -96 -39q-45 -16 -101 -26q-57 -10 -102 -11q-92 0 -178 31q-90 33 -152 94q-68 68 -106.5 160t-38.5 223zM279 627h450v45q0 51 -12 94q-12 47 -37 76q-27 35 -62 51q-37 18 -88 18q-49 0 -96 -20q-41 -18 -76 -55q-33 -37 -55 -91 q-20 -50 -24 -118zM436 1313q0 -18 -10 -43t-23 -37q-18 -18 -36.5 -26.5t-43 -8.5t-42.5 8q-14 6 -35 27q-16 16 -24.5 34.5t-8.5 43t8 43.5q9 22 25 37q16 16 35 24q25 10 43 10t42.5 -10t37 -22.5t22.5 -37t10 -42.5zM860 1312.5q0 -24.5 -8 -42.5q-9 -22 -25 -37 q-20 -20 -34 -27q-18 -8 -43 -8t-43.5 8t-36.5 27q-15 15 -25 37q-8 18 -8 43q0 23 8 41t27 37q16 16 35 24q25 10 43 10t43 -10q18 -8 34.5 -24.5t24.5 -35t8 -43z" />
<glyph unicode="&#xec;" horiz-adv-x="620" d="M70 0v80l100 6q20 4 31 14q12 12 12 31v731h-141v72l250 78h81v-881q0 -18 13 -31q10 -10 30 -14l105 -6v-80h-481zM374 1128l-311 199q-25 18 -35 35q-12 23 -12 47q0 23 4 33q8 20 16 28q16 16 29 23q16 8 45 8q16 0 37 -4q10 -2 27 -10q12 -6 22 -17q2 -2 9.5 -11 t11.5 -13l274 -318h-117z" />
<glyph unicode="&#xed;" horiz-adv-x="620" d="M70 0v80l100 6q20 4 31 14q12 12 12 31v731h-141v72l250 78h81v-881q0 -18 13 -31q10 -10 30 -14l105 -6v-80h-481zM131 1128l272 318q6 6 12 13t11 11q12 12 20 17q14 8 29 10q20 4 37 4q29 0 45 -8q12 -6 28 -23q12 -12 17 -28q4 -20 4 -33q0 -25 -12 -47 q-10 -16 -35 -35l-312 -199h-116z" />
<glyph unicode="&#xee;" horiz-adv-x="620" d="M70 0v80l100 6q20 4 31 14q12 12 12 31v731h-141v72l250 78h81v-881q0 -18 13 -31q10 -10 30 -14l105 -6v-80h-481zM-25 1128l258 347h154l258 -347h-123l-211 203l-213 -203h-123z" />
<glyph unicode="&#xef;" horiz-adv-x="620" d="M70 0v80l100 6q20 4 31 14q12 12 12 31v731h-141v72l250 78h81v-881q0 -18 13 -31q10 -10 30 -14l105 -6v-80h-481zM211 1313q0 -18 -10 -43t-23 -37q-18 -18 -36.5 -26.5t-43 -8.5t-42.5 8q-14 6 -35 27q-16 16 -24.5 34.5t-8.5 43t8 43.5q9 22 25 37q16 16 35 24 q25 10 43 10t42.5 -10t37 -22.5t22.5 -37t10 -42.5zM635 1312.5q0 -24.5 -8 -42.5q-9 -22 -25 -37q-20 -20 -34 -27q-18 -8 -43 -8t-43.5 8t-36.5 27q-15 15 -25 37q-8 18 -8 43q0 23 8 41t27 37q16 16 35 24q25 10 43 10t43 -10q18 -8 34.5 -24.5t24.5 -35t8 -43z" />
<glyph unicode="&#xf0;" horiz-adv-x="1103" d="M70 500q0 114 36 209q37 94 105 161.5t158 104.5q89 37 196 37q12 0 45 -4q16 -2 45 -11q8 -2 18.5 -6t14.5 -4l14 -4q-6 12 -40 64l-29 39.5t-23 31.5q-37 51 -43 60q-12 16 -22 26l-260 -155l-45 81l235 142l-72 82l-172 22v58l252 75l148 -151l223 133l47 -82 l-209 -127l51 -59q27 -29 70 -90q45 -63 78 -117q35 -57 70 -139q33 -78 53 -156q20 -76 20 -166q0 -137 -35 -240q-37 -106 -100 -182q-66 -78 -151 -117q-92 -41 -195 -41q-113 0 -199 39q-88 39 -151 109q-65 71 -99 166q-34 98 -34 211zM283 498q0 -76 16 -158 q16 -84 47 -139q33 -57 86 -97q51 -37 127 -36.5t127 38.5q53 41 86 103q35 66 49 143q14 74 15 162q0 129 -21 213q-20 86 -59 154q-25 10 -54 20q-14 6 -51 14q-29 6 -51 7q-82 0 -141.5 -33t-98.5 -90q-41 -61 -59 -135q-18 -77 -18 -166z" />
<glyph unicode="&#xf1;" horiz-adv-x="1159" d="M41 0v80l100 6q20 4 31 14q12 12 12 31v711h-143v67l250 78h84v-102q43 25 88 47t88 41q45 18 86 28q45 10 76 11q135 0 204.5 -82t69.5 -234v-565q0 -18 12 -31q10 -10 31 -14l90 -6v-80h-452v80l86 6q20 4 30 14q12 12 13 31v533q0 100 -45 147q-47 51 -152 51 q-55 0 -117 -16q-39 -10 -108 -43v-672q0 -18 12 -31q10 -10 31 -14l86 -6v-80h-463zM225 1198q12 46 31 86q18 41 49 71.5t69.5 49t88.5 18.5q20 0 49 -8l43 -18q14 -6 39 -23q27 -16 43 -24q27 -12 49 -17q37 -8 59.5 -8t38.5 8q18 8 35 23q15 12 24 30q6 12 11 37h82 q-14 -57 -31 -86q-23 -43 -49.5 -71.5t-69.5 -48.5q-41 -18 -88 -19q-20 0 -49 8q-14 4 -43 17q-8 4 -22.5 13t-18.5 11q-29 16 -43 23q-37 16 -49 18q-37 8 -59.5 8t-38.5 -8q-12 -6 -33 -22q-15 -12 -25 -31q-6 -12 -10 -37h-82z" />
<glyph unicode="&#xf2;" horiz-adv-x="1112" d="M70 491.5q0 106.5 34 204.5q34 95 98.5 166t153.5 111q86 39 205 39q113 0 205 -41q90 -41 152 -111q59 -70 94 -166q33 -92 32 -202q0 -104 -34 -203q-33 -92 -99 -164q-65 -71 -153 -111q-86 -39 -203 -39t-203 39q-84 37 -151 109q-61 63 -97 164q-34 98 -34 204.5z M285 494q0 -78 16 -160q14 -72 51 -135q35 -59 84 -95q51 -37 121 -36.5t123 34.5q47 31 84 94.5t51 137.5q16 82 16 160q0 80 -16 161q-14 72 -51 135.5t-84 94.5q-53 35 -121 35q-70 0 -123 -35q-51 -33 -86 -94q-34 -58 -49 -136q-16 -81 -16 -161zM620 1128l-311 199 q-25 18 -35 35q-12 23 -12 47q0 23 4 33q8 20 16 28q16 16 29 23q16 8 45 8q16 0 37 -4q10 -2 27 -10q12 -6 22 -17q2 -2 9.5 -11t11.5 -13l274 -318h-117z" />
<glyph unicode="&#xf3;" horiz-adv-x="1112" d="M70 491.5q0 106.5 34 204.5q34 95 98.5 166t153.5 111q86 39 205 39q113 0 205 -41q90 -41 152 -111q59 -70 94 -166q33 -92 32 -202q0 -104 -34 -203q-33 -92 -99 -164q-65 -71 -153 -111q-86 -39 -203 -39t-203 39q-84 37 -151 109q-61 63 -97 164q-34 98 -34 204.5z M285 494q0 -78 16 -160q14 -72 51 -135q35 -59 84 -95q51 -37 121 -36.5t123 34.5q47 31 84 94.5t51 137.5q16 82 16 160q0 80 -16 161q-14 72 -51 135.5t-84 94.5q-53 35 -121 35q-70 0 -123 -35q-51 -33 -86 -94q-34 -58 -49 -136q-16 -81 -16 -161zM377 1128l272 318 q6 6 12 13t11 11q12 12 20 17q14 8 29 10q20 4 37 4q29 0 45 -8q12 -6 28 -23q12 -12 17 -28q4 -20 4 -33q0 -25 -12 -47q-10 -16 -35 -35l-312 -199h-116z" />
<glyph unicode="&#xf4;" horiz-adv-x="1112" d="M70 491.5q0 106.5 34 204.5q34 95 98.5 166t153.5 111q86 39 205 39q113 0 205 -41q90 -41 152 -111q59 -70 94 -166q33 -92 32 -202q0 -104 -34 -203q-33 -92 -99 -164q-65 -71 -153 -111q-86 -39 -203 -39t-203 39q-84 37 -151 109q-61 63 -97 164q-34 98 -34 204.5z M285 494q0 -78 16 -160q14 -72 51 -135q35 -59 84 -95q51 -37 121 -36.5t123 34.5q47 31 84 94.5t51 137.5q16 82 16 160q0 80 -16 161q-14 72 -51 135.5t-84 94.5q-53 35 -121 35q-70 0 -123 -35q-51 -33 -86 -94q-34 -58 -49 -136q-16 -81 -16 -161zM221 1128l258 347h154 l258 -347h-123l-211 203l-213 -203h-123z" />
<glyph unicode="&#xf5;" horiz-adv-x="1112" d="M70 491.5q0 106.5 34 204.5q34 95 98.5 166t153.5 111q86 39 205 39q113 0 205 -41q90 -41 152 -111q59 -70 94 -166q33 -92 32 -202q0 -104 -34 -203q-33 -92 -99 -164q-65 -71 -153 -111q-86 -39 -203 -39t-203 39q-84 37 -151 109q-61 63 -97 164q-34 98 -34 204.5z M285 494q0 -78 16 -160q14 -72 51 -135q35 -59 84 -95q51 -37 121 -36.5t123 34.5q47 31 84 94.5t51 137.5q16 82 16 160q0 80 -16 161q-14 72 -51 135.5t-84 94.5q-53 35 -121 35q-70 0 -123 -35q-51 -33 -86 -94q-34 -58 -49 -136q-16 -81 -16 -161zM203 1198q12 46 31 86 q18 41 49 71.5t69.5 49t88.5 18.5q20 0 49 -8l43 -18q14 -6 39 -23q27 -16 43 -24q27 -12 49 -17q37 -8 59.5 -8t38.5 8q18 8 35 23q15 12 24 30q6 12 11 37h82q-14 -57 -31 -86q-23 -43 -49.5 -71.5t-69.5 -48.5q-41 -18 -88 -19q-20 0 -49 8q-14 4 -43 17q-8 4 -22.5 13 t-18.5 11q-29 16 -43 23q-37 16 -49 18q-37 8 -59.5 8t-38.5 -8q-12 -6 -33 -22q-15 -12 -25 -31q-6 -12 -10 -37h-82z" />
<glyph unicode="&#xf6;" horiz-adv-x="1112" d="M70 491.5q0 106.5 34 204.5q34 95 98.5 166t153.5 111q86 39 205 39q113 0 205 -41q90 -41 152 -111q59 -70 94 -166q33 -92 32 -202q0 -104 -34 -203q-33 -92 -99 -164q-65 -71 -153 -111q-86 -39 -203 -39t-203 39q-84 37 -151 109q-61 63 -97 164q-34 98 -34 204.5z M285 494q0 -78 16 -160q14 -72 51 -135q35 -59 84 -95q51 -37 121 -36.5t123 34.5q47 31 84 94.5t51 137.5q16 82 16 160q0 80 -16 161q-14 72 -51 135.5t-84 94.5q-53 35 -121 35q-70 0 -123 -35q-51 -33 -86 -94q-34 -58 -49 -136q-16 -81 -16 -161zM456 1313 q0 -18 -10 -43t-23 -37q-18 -18 -36.5 -26.5t-43 -8.5t-42.5 8q-14 6 -35 27q-16 16 -24.5 34.5t-8.5 43t8 43.5q9 22 25 37q16 16 35 24q25 10 43 10t42.5 -10t37 -22.5t22.5 -37t10 -42.5zM880 1312.5q0 -24.5 -8 -42.5q-9 -22 -25 -37q-20 -20 -34 -27q-18 -8 -43 -8 t-43.5 8t-36.5 27q-15 15 -25 37q-8 18 -8 43q0 23 8 41t27 37q16 16 35 24q25 10 43 10t43 -10q18 -8 34.5 -24.5t24.5 -35t8 -43z" />
<glyph unicode="&#xf7;" horiz-adv-x="2048" d="M410 551v127h1228v-127h-1228zM901 285q0 25 10 49q10 27 27 39q25 20 39 26q18 8 47 8.5t47 -8.5q14 -6 39 -26q16 -12 27 -39q10 -25 10 -49q0 -23 -10 -47q-10 -27 -27 -39q-20 -16 -39 -25q-25 -10 -47.5 -10t-46.5 10q-18 8 -39 25q-16 12 -27 39q-10 24 -10 47z M901 944q0 23 10 47q10 20 26.5 39t39.5 27q25 10 47.5 10t46.5 -10q23 -8 39 -26.5t27 -39.5q10 -25 10 -47q0 -25 -10 -49q-10 -27 -27 -39q-20 -16 -39 -25q-25 -10 -47.5 -10t-46.5 10q-18 8 -39 25q-16 12 -27 39q-10 24 -10 49z" />
<glyph unicode="&#xf8;" horiz-adv-x="1112" d="M70 492q0 106 34 204q34 95 98.5 166t153.5 111q86 39 205 39q51 0 107 -11q51 -10 96 -30l102 178l74 -41l-102 -178q43 -29 88 -82q41 -47 65 -103q29 -63 39 -118q14 -76 14 -135q0 -104 -34 -203q-33 -92 -99 -164q-65 -71 -153 -111q-86 -39 -203 -39q-70 0 -125 15 q-49 12 -108 41l-113 -199l-72 43l115 201q-88 68 -135 176q-47 111 -47 240zM285 494q0 -63 14 -144q10 -57 39 -125l367 641q-25 23 -66 39q-35 14 -80 15q-70 0 -123 -35q-51 -33 -86 -94q-34 -58 -49 -136q-16 -81 -16 -161zM389 145q35 -37 74 -57q41 -20 94 -20 q70 0 123 34q47 31 84 94.5t51 137.5q16 82 16 160q0 86 -18 165q-18 76 -51 138z" />
<glyph unicode="&#xf9;" horiz-adv-x="1163" d="M43 862v70l252 80h82v-666q0 -49 10 -96q8 -41 35 -74q23 -29 61.5 -45t91.5 -16q33 0 64 6q25 6 59 16l56 19q8 4 43 20v686h-144v70l250 80h84v-881q0 -16 14 -31q10 -10 31 -14l90 -6v-80h-325v117q-12 -12 -64 -45q-43 -29 -80 -47q-25 -12 -92 -35q-43 -14 -92 -15 q-68 0 -119 19q-47 16 -88 61q-39 43 -57 103q-18 61 -19 149v555h-143zM647 1128l-311 199q-25 18 -35 35q-12 23 -12 47q0 23 4 33q8 20 16 28q16 16 29 23q16 8 45 8q16 0 37 -4q10 -2 27 -10q12 -6 22 -17q2 -2 9.5 -11t11.5 -13l274 -318h-117z" />
<glyph unicode="&#xfa;" horiz-adv-x="1163" d="M43 862v70l252 80h82v-666q0 -49 10 -96q8 -41 35 -74q23 -29 61.5 -45t91.5 -16q33 0 64 6q25 6 59 16l56 19q8 4 43 20v686h-144v70l250 80h84v-881q0 -16 14 -31q10 -10 31 -14l90 -6v-80h-325v117q-12 -12 -64 -45q-43 -29 -80 -47q-25 -12 -92 -35q-43 -14 -92 -15 q-68 0 -119 19q-47 16 -88 61q-39 43 -57 103q-18 61 -19 149v555h-143zM404 1128l272 318q6 6 12 13t11 11q12 12 20 17q14 8 29 10q20 4 37 4q29 0 45 -8q12 -6 28 -23q12 -12 17 -28q4 -20 4 -33q0 -25 -12 -47q-10 -16 -35 -35l-312 -199h-116z" />
<glyph unicode="&#xfb;" horiz-adv-x="1163" d="M43 862v70l252 80h82v-666q0 -49 10 -96q8 -41 35 -74q23 -29 61.5 -45t91.5 -16q33 0 64 6q25 6 59 16l56 19q8 4 43 20v686h-144v70l250 80h84v-881q0 -16 14 -31q10 -10 31 -14l90 -6v-80h-325v117q-12 -12 -64 -45q-43 -29 -80 -47q-25 -12 -92 -35q-43 -14 -92 -15 q-68 0 -119 19q-47 16 -88 61q-39 43 -57 103q-18 61 -19 149v555h-143zM248 1128l258 347h154l258 -347h-123l-211 203l-213 -203h-123z" />
<glyph unicode="&#xfc;" horiz-adv-x="1163" d="M43 862v70l252 80h82v-666q0 -49 10 -96q8 -41 35 -74q23 -29 61.5 -45t91.5 -16q33 0 64 6q25 6 59 16l56 19q8 4 43 20v686h-144v70l250 80h84v-881q0 -16 14 -31q10 -10 31 -14l90 -6v-80h-325v117q-12 -12 -64 -45q-43 -29 -80 -47q-25 -12 -92 -35q-43 -14 -92 -15 q-68 0 -119 19q-47 16 -88 61q-39 43 -57 103q-18 61 -19 149v555h-143zM481 1313q0 -18 -10 -43t-23 -37q-18 -18 -36.5 -26.5t-43 -8.5t-42.5 8q-14 6 -35 27q-16 16 -24.5 34.5t-8.5 43t8 43.5q9 22 25 37q16 16 35 24q25 10 43 10t42.5 -10t37 -22.5t22.5 -37t10 -42.5z M905 1312.5q0 -24.5 -8 -42.5q-9 -22 -25 -37q-20 -20 -34 -27q-18 -8 -43 -8t-43.5 8t-36.5 27q-15 15 -25 37q-8 18 -8 43q0 23 8 41t27 37q16 16 35 24q25 10 43 10t43 -10q18 -8 34.5 -24.5t24.5 -35t8 -43z" />
<glyph unicode="&#xfd;" horiz-adv-x="1083" d="M20 907v80h453v-80l-98 -6q-18 -2 -27 -14q-10 -12 -4 -31l238 -604l243 604q6 16 -2 29q-10 14 -26 16l-97 6v80h365v-80l-107 -12l-393 -958l-28 -66q-20 -49 -43 -90q-39 -72 -54 -94q-33 -49 -61 -78q-33 -33 -82 -58q-41 -20 -96 -20q-33 0 -64 10q-29 10 -47 25 q-20 16 -29 37q-10 25 -10 45q0 37 15 65q12 27 51 58l192 -88q29 29 51 65q37 61 50 86q29 61 41 90q16 37 30 78l-348 893zM381 1128l272 318q6 6 12 13t11 11q12 12 20 17q14 8 29 10q20 4 37 4q29 0 45 -8q12 -6 28 -23q12 -12 17 -28q4 -20 4 -33q0 -25 -12 -47 q-10 -16 -35 -35l-312 -199h-116z" />
<glyph unicode="&#xfe;" horiz-adv-x="1144" d="M43 -367l98 13q23 4 31 12q12 12 12 31v1675h-141v68l252 77h80v-624q47 37 94 63q27 14 98 43q53 20 117 21q82 0 150 -35q74 -39 124 -103q55 -70 86 -159q31 -92 31 -207q0 -127 -35 -219q-37 -100 -102 -168q-68 -72 -164 -109q-94 -37 -217 -37q-39 0 -59 2 q-41 4 -60 7q-25 2 -63 10v-305q0 -18 12 -31q8 -8 33 -12l121 -13v-79h-498v79zM375 102q33 -12 51 -16q8 -2 27.5 -5t25.5 -5q31 -6 62 -6q82 0 145 34q61 35 102 91q39 53 62 131q20 70 20 153q0 78 -18 150q-18 71 -55 123q-39 57 -90 86q-52 31 -123 30q-35 0 -76 -10 q-49 -12 -68 -20q-37 -12 -65 -31v-705z" />
<glyph unicode="&#xff;" horiz-adv-x="1083" d="M20 907v80h453v-80l-98 -6q-18 -2 -27 -14q-10 -12 -4 -31l238 -604l243 604q6 16 -2 29q-10 14 -26 16l-97 6v80h365v-80l-107 -12l-393 -958l-28 -66q-20 -49 -43 -90q-39 -72 -54 -94q-33 -49 -61 -78q-33 -33 -82 -58q-41 -20 -96 -20q-33 0 -64 10q-29 10 -47 25 q-20 16 -29 37q-10 25 -10 45q0 37 15 65q12 27 51 58l192 -88q29 29 51 65q37 61 50 86q29 61 41 90q16 37 30 78l-348 893zM461 1313q0 -18 -10 -43t-23 -37q-18 -18 -36.5 -26.5t-43 -8.5t-42.5 8q-14 6 -35 27q-16 16 -24.5 34.5t-8.5 43t8 43.5q9 22 25 37q16 16 35 24 q25 10 43 10t42.5 -10t37 -22.5t22.5 -37t10 -42.5zM885 1312.5q0 -24.5 -8 -42.5q-9 -22 -25 -37q-20 -20 -34 -27q-18 -8 -43 -8t-43.5 8t-36.5 27q-15 15 -25 37q-8 18 -8 43q0 23 8 41t27 37q16 16 35 24q25 10 43 10t43 -10q18 -8 34.5 -24.5t24.5 -35t8 -43z" />
<glyph unicode="&#x152;" horiz-adv-x="2045" d="M80 688q0 147 37 281q37 135 108 229q74 98 186.5 153.5t266.5 55.5q119 0 223 -39q92 -35 168 -106v112h844v-305h-123l-31 168q-2 14 -12 27q-9 12 -25 12h-444v-510h307q12 0 24.5 12.5t12.5 22.5l20 141h105v-457h-105l-20 142q0 12 -12.5 24.5t-24.5 12.5h-307v-564 h518q12 0 24.5 14.5t14.5 24.5l35 203h110v-342h-911v113q-74 -74 -168 -109q-98 -37 -221 -37q-154 0 -262 53q-117 57 -189 152q-78 102 -112 229q-37 131 -37 287zM315 688q0 -131 15 -233q14 -106 57 -195q39 -82 111 -131q71 -49 178 -49q111 0 182.5 49t110.5 131 q41 84 55 193q16 119 16 231q0 117 -16 236q-14 102 -57 192q-43 88 -109 131q-72 47 -178 47q-111 0 -182 -49q-74 -51 -111 -129q-43 -90 -57.5 -192.5t-14.5 -231.5z" />
<glyph unicode="&#x153;" horiz-adv-x="1677" d="M70 494q0 98 32 200q33 98 91 166q61 71 147 111q88 41 199 41q80 0 131 -17q66 -20 106 -45q35 -20 78 -63q33 -33 53 -70q25 41 64 80t82 64q47 27 94 38q49 12 102 13q88 0 156 -31q66 -31 113 -86q49 -59 69 -133q23 -80 23 -170v-27q0 -20 -2 -30h-617 q0 -84 17 -152q18 -74 57 -135q41 -63 102 -98q66 -37 158 -37q37 0 82 10q27 6 76 27q37 15 67 36l58 41v-125q-39 -27 -70 -45q-37 -23 -82 -41q-41 -16 -94 -30q-41 -10 -105 -11q-70 0 -125 18.5t-100 47.5q-47 31 -78 63q-37 41 -59 74q-18 -25 -64 -74 q-35 -37 -77 -65q-47 -31 -99 -47q-49 -16 -120 -17q-115 0 -197 41q-90 45 -145 113q-63 76 -93 166q-30 95 -30 199zM283 500q0 -82 16 -164q16 -80 49 -137q37 -66 80 -95q51 -35 113 -34q63 0 114 34q49 34 80 93q33 61 47 135q14 72 15 157q0 92 -15 164 q-14 74 -47 135q-29 55 -80 90t-114.5 35t-114.5 -34q-53 -37 -82 -91q-29 -55 -45 -132.5t-16 -155.5zM1001 627h402v45q0 57 -10 94q-12 45 -33 76q-23 35 -55 53q-35 18 -76 18q-47 0 -88 -22q-39 -20 -70 -62q-29 -37 -47 -90q-17 -44 -23 -112z" />
<glyph unicode="&#x178;" horiz-adv-x="1280" d="M20 1286v88h486v-88l-103 -10q-23 -2 -26.5 -16.5t2.5 -24.5l289 -535l317 529q10 16 0 28q-8 10 -24 15l-115 14v88h416v-88l-111 -20l-412 -682v-443q0 -16 10.5 -28.5t32.5 -16.5l131 -8v-88h-553v88l127 8q23 4 33 17q12 14 12 28v412l-393 709zM540 1712 q0 -18 -10 -43t-23 -37q-18 -18 -36.5 -26.5t-43 -8.5t-42.5 8q-14 6 -35 27q-16 16 -24.5 34.5t-8.5 43t8 43.5q9 22 25 37q16 16 35 24q25 10 43 10t42.5 -10t37 -22.5t22.5 -37t10 -42.5zM964 1711.5q0 -24.5 -8 -42.5q-9 -22 -25 -37q-20 -20 -34 -27q-18 -8 -43 -8 t-43.5 8t-36.5 27q-15 15 -25 37q-8 18 -8 43q0 23 8 41t27 37q16 16 35 24q25 10 43 10t43 -10q18 -8 34.5 -24.5t24.5 -35t8 -43z" />
<glyph unicode="&#x2c6;" horiz-adv-x="669" d="M0 1128l258 347h154l258 -347h-123l-211 203l-213 -203h-123z" />
<glyph unicode="&#x2c9;" horiz-adv-x="684" d="M0 1200v129h686v-129h-686z" />
<glyph unicode="&#x2cb;" horiz-adv-x="473" d="M358 1128l-311 199q-25 18 -35 35q-12 23 -12 47q0 23 4 33q8 20 16 28q16 16 29 23q16 8 45 8q16 0 37 -4q10 -2 27 -10q12 -6 22 -17q2 -2 9.5 -11t11.5 -13l274 -318h-117z" />
<glyph unicode="&#xf195;" horiz-adv-x="473" d="M358 1128l-311 199q-25 18 -35 35q-12 23 -12 47q0 23 4 33q8 20 16 28q16 16 29 23q16 8 45 8q16 0 37 -4q10 -2 27 -10q12 -6 22 -17q2 -2 9.5 -11t11.5 -13l274 -318h-117z" />
<glyph unicode="&#x2d7;" horiz-adv-x="653" d="M90 416v153h475v-153h-475z" />
<glyph unicode="&#x2da;" horiz-adv-x="485" d="M387 1370q0 35 -10 57q-8 18 -31 46q-14 16 -47 32q-20 10 -55 11q-33 0 -56 -11q-31 -14 -47 -32q-23 -27 -30 -46q-10 -23 -10.5 -57.5t10.5 -54.5q14 -29 30 -45q18 -18 47 -30.5t56 -12.5q31 0 55 12q33 16 47 31q16 16 31 45q10 20 10 55zM487 1370q0 -51 -18 -94 t-53 -78q-33 -33 -76 -51.5t-96 -18.5q-51 0 -94 19q-47 20 -78 51q-35 35 -53.5 78t-18.5 94q0 53 18.5 96t53 78t78 53.5t94.5 18.5q53 0 96 -19q39 -16 76 -53q35 -35 53 -78t18 -96z" />
<glyph unicode="&#x2dc;" horiz-adv-x="710" d="M0 1198q12 46 31 86q18 41 49 71.5t69.5 49t88.5 18.5q20 0 49 -8l43 -18q14 -6 39 -23q27 -16 43 -24q27 -12 49 -17q37 -8 59.5 -8t38.5 8q18 8 35 23q15 12 24 30q6 12 11 37h82q-14 -57 -31 -86q-23 -43 -49.5 -71.5t-69.5 -48.5q-41 -18 -88 -19q-20 0 -49 8 q-14 4 -43 17q-8 4 -22.5 13t-18.5 11q-29 16 -43 23q-37 16 -49 18q-37 8 -59.5 8t-38.5 -8q-12 -6 -33 -22q-15 -12 -25 -31q-6 -12 -10 -37h-82z" />
<glyph unicode="&#x408;" horiz-adv-x="991" d="M821 1278q-23 -4 -33 -16.5t-10 -28.5v-715q0 -129 -24 -229q-27 -106 -76 -174t-139 -109q-84 -39 -211 -39q-55 0 -99 8q-49 9 -86 19q-27 6 -63 20q-6 2 -13.5 4t-11.5 5l-4 2v350h123l45 -250q3 -15 12 -25q10 -10 23 -16q14 -8 29 -10q10 -2 30 -2q72 0 119 26 q49 29 80 82q29 53 45 135q14 74 14 189v729q0 12 -10 29q-8 12 -33 16l-129 8v88h541v-88z" />
<glyph unicode="&#x458;" horiz-adv-x="595" d="M414 131q0 -63 -2 -100q-3 -55 -13 -111q-8 -53 -24 -106q-14 -49 -41 -93q-63 -96 -153.5 -143t-186.5 -47q-31 0 -60 6q-31 6 -49 21q-23 16 -35 36q-12 22 -12 50q0 29 8 45q12 25 21 35q12 14 29 24q10 6 30 14l199 -137q29 16 47 47q16 29 30.5 76t16.5 96 q4 70 4 113v909h-145v68l252 78h84v-881zM436 1325q0 -23 -10 -49q-8 -23 -26.5 -41t-39.5 -27q-25 -10 -49 -10t-48.5 10.5t-41.5 26.5q-18 18 -26 41q-10 27 -11 49q0 25 11 49q10 23 26.5 39.5t41 26.5t49 10t48.5 -10q20 -10 39 -26.5t27 -39.5q10 -24 10 -49z" />
<glyph unicode="&#x4bb;" horiz-adv-x="1175" d="M672 0v80l84 6q23 4 32 14q12 12 13 31v528q0 39 -10 80q-10 39 -33 65.5t-62 41.5q-43 16 -98 16q-16 0 -57 -4q-29 -2 -60 -12q-35 -10 -57 -21q-43 -18 -49 -22v-672q0 -20 10 -30.5t31 -14.5l88 -6v-80h-461v80l98 6q20 4 31 14q12 12 12 31v1231h-153v68l262 79h82 v-624q10 8 69 39q41 23 88 41q78 31 93 34q47 12 88 13q61 0 110 -18.5t88 -57.5q35 -35 57.5 -96.5t22.5 -137.5v-571q0 -18 13 -31q10 -10 32 -14l92 -6v-80h-456z" />
<glyph unicode="&#x4d4;" horiz-adv-x="1910" d="M985 1280l-416 -668h416v668zM831 0v88l101 8q25 4 37 17q16 16 16 28v371h-473l-229 -371q-12 -18 -7 -28q6 -12 21 -15l117 -10v-88h-404v88l109 16l696 1131q8 14 -4 29q-12 12 -25 14l-100 10v86h1086v-305h-119l-29 168q-2 14 -12 26.5t-23 12.5h-397v-510l258 -2 q15 0 24.5 12t12.5 25l18 141h101v-457h-101l-18 144q-2 10 -14.5 22.5t-22.5 12.5h-258v-564h469q4 0 12 4q4 2 13 11q4 4 8 12t4 12l31 203h116v-342h-1014z" />
<glyph unicode="&#x4d5;" horiz-adv-x="1476" d="M1204 674q0 43 -10 90q-8 41 -31 76q-22 34 -55 55q-33 20 -78 20q-59 0 -94 -26q-39 -29 -59 -70q-22 -43 -31 -98q-10 -61 -10 -109h368v62zM645 547q-125 -33 -186 -60q-74 -31 -117 -61q-39 -27 -59 -70q-16 -33 -17 -84q0 -33 10 -67q10 -33 27 -55q14 -20 49 -37 q29 -14 70 -15q39 0 76 15q39 14 71 32q45 25 76 48v354zM1407 102q-47 -35 -55 -39q-41 -27 -76 -40q-37 -16 -94 -33q-49 -14 -115 -15q-43 0 -84 7q-43 6 -76 18q-55 20 -63 25q-6 4 -24.5 13t-28.5 15q-55 35 -97 78q-63 -49 -112 -78q-8 -6 -27.5 -15l-28.5 -13 l-61 -25q-31 -12 -64 -18q-34 -6 -67 -7q-68 0 -115 21q-49 20 -82 57t-51 84q-16 43 -16 107q0 78 32 137q31 53 99 94q76 45 178 76q117 35 266 74v84q0 55 -8 90q-10 41 -29 63q-25 27 -55 39q-39 14 -86 14t-82 -10q-25 -8 -47 -16v-178h-143q-41 0 -59.5 12t-18.5 47 q0 45 16.5 76t46.5 61q23 23 68 47q35 18 84 33q43 12 92 18.5t94 6.5q72 0 119 -12.5t78 -30.5q29 -16 47 -39q12 -14 29 -39l34 35q20 20 58 41q41 23 80 32q46 12 104 13q92 0 156 -33q68 -35 106 -92q43 -61 60 -133q18 -78 18 -158v-21q0 -4 -1 -12t-1 -12 q0 -6 -1 -12.5t-1 -14.5h-567v-272q14 -14 51 -47q23 -20 65 -45q37 -20 80 -33q53 -14 101 -14q43 0 84 10q49 12 71 22q34 15 62 37l57 43v-123z" />
<glyph unicode="&#x2000;" horiz-adv-x="1007" />
<glyph unicode="&#x2001;" horiz-adv-x="2015" />
<glyph unicode="&#x2002;" horiz-adv-x="1007" />
<glyph unicode="&#x2003;" horiz-adv-x="2015" />
<glyph unicode="&#x2004;" horiz-adv-x="671" />
<glyph unicode="&#x2005;" horiz-adv-x="503" />
<glyph unicode="&#x2006;" horiz-adv-x="335" />
<glyph unicode="&#x2007;" horiz-adv-x="335" />
<glyph unicode="&#x2008;" horiz-adv-x="251" />
<glyph unicode="&#x2009;" horiz-adv-x="401" />
<glyph unicode="&#x200a;" horiz-adv-x="110" />
<glyph unicode="&#x2010;" horiz-adv-x="653" d="M90 416v153h475v-153h-475z" />
<glyph unicode="&#x2011;" horiz-adv-x="653" d="M90 416v153h475v-153h-475z" />
<glyph unicode="&#x2012;" horiz-adv-x="653" d="M90 416v153h475v-153h-475z" />
<glyph unicode="&#x2013;" horiz-adv-x="1024" d="M0 422v141h1024v-141h-1024z" />
<glyph unicode="&#x2014;" horiz-adv-x="2048" d="M0 422v141h2048v-141h-2048z" />
<glyph unicode="&#x2018;" horiz-adv-x="505" d="M80 1071q0 78 26 137q27 57 66 111q31 39 76 82l57 51l76 -14l-26.5 -29.5t-28.5 -32.5q-29 -31 -54 -71q-23 -37 -43 -84q-18 -43 -18 -95q0 -2 1 -9t1 -11v-19h129q10 -12 14 -22q8 -16 12.5 -26.5t4.5 -32.5q0 -31 -8.5 -49.5t-24.5 -38.5q-12 -16 -39 -27 q-25 -10 -51 -10q-78 0 -125 51q-45 47 -45 139z" />
<glyph unicode="&#x2019;" horiz-adv-x="505" d="M125 897q45 45 65 70q33 39 56 75q27 43 37 80q12 43 12 86v19q0 2 -1 8t-1 10h-129q-10 10 -17 23q-8 16 -10 26q-4 20 -4 33q0 49 33 88q31 37 90 37q76 0 123 -51t47 -139q0 -78 -27 -138q-27 -57 -65 -110q-31 -39 -76 -82l-57 -51z" />
<glyph unicode="&#x201a;" horiz-adv-x="505" d="M125 -326q45 45 65 70q33 39 56 76q27 43 37 80q12 43 12 86v18q0 4 -1 10t-1 9h-129q-16 20 -17 22q-8 16 -10 27q-4 20 -4 32q0 49 33 89q31 37 90 36q76 0 123 -51t47 -139q0 -78 -27 -137q-27 -57 -65 -111q-31 -39 -76 -82l-57 -51z" />
<glyph unicode="&#x201c;" horiz-adv-x="927" d="M80 1071q0 78 26 137q27 57 66 111q31 39 76 82l57 51l76 -14q-20 -20 -62 -66q-31 -34 -55 -74q-23 -37 -39 -81q-14 -41 -14 -91q0 -4 1 -11t1 -9v-19h129q8 -8 14 -20q8 -16 12.5 -26.5t4.5 -34.5q0 -31 -8.5 -49.5t-24.5 -38.5q-12 -16 -39 -27q-25 -10 -51 -10 q-80 0 -125 51t-45 139zM502 1075q0 72 28 135q29 66 64 111q25 33 76 80l57 51l76 -14l-24.5 -28.5l-26.5 -29.5q-25 -27 -56 -71q-27 -39 -45 -84t-18 -97q0 -4 1 -11t1 -11v-19h129q10 -12 14 -22q8 -16 12.5 -26.5t4.5 -30.5q0 -27 -9 -50q-8 -20 -24 -40 q-12 -16 -39 -27q-25 -10 -51 -10q-82 0 -125 53q-45 55 -45 141z" />
<glyph unicode="&#x201d;" horiz-adv-x="927" d="M125 897q43 49 51 57q23 23 55 70q27 39 45 84q18 47 19 96v23q0 4 -1 10t-1 8h-129q-12 16 -17 25q-8 18 -10 24q-4 20 -4 33q0 31 8 49q6 14 27 39q12 16 39 27q25 10 51 10q82 0 125 -51q43 -52 43 -141q0 -76 -27 -136q-27 -57 -65 -110q-31 -39 -76 -82l-57 -51z M547 897q20 20 61 66q31 34 56 73q29 49 41 80q14 41 14 92q0 14 -2 20.5t-2 16.5h-129q-10 10 -17 23q-8 16 -10 26q-4 20 -4 35q0 55 33 88q35 35 90 35q80 0 125 -51t45 -139q0 -78 -27 -138q-27 -57 -65 -110q-31 -39 -76 -82l-57 -51z" />
<glyph unicode="&#x201e;" horiz-adv-x="927" d="M125 -326l51 58q23 23 55 69q27 39 45.5 84t18.5 97v22q0 4 -1 10t-1 9h-129q-12 16 -17 24q-8 18 -10 25q-4 20 -4 32q0 31 8 50q6 14 27 39q12 16 39 26q25 10 51 10q82 0 125 -53t43 -139q0 -76 -27 -135q-27 -57 -65 -111q-31 -39 -76 -82l-57 -51zM547 -326 q20 20 61 66q31 34 56 74q29 45 41 82q14 41 14 90q0 14 -2 20t-2 17h-129q-10 10 -17 22q-8 16 -10 27q-4 20 -4 34q0 55 33 89q35 35 90 34q80 0 125 -51t45 -139q0 -78 -27 -137q-27 -57 -65 -111q-31 -39 -76 -82l-57 -51z" />
<glyph unicode="&#x2022;" horiz-adv-x="612" d="M72 696q0 49 18 92q16 39 51 74t74 51q43 18 92 19q49 0 92 -19q39 -16 74 -51t51 -74q18 -43 19 -92q0 -49 -19 -92q-16 -39 -51 -73.5t-74 -51.5q-43 -18 -92 -18t-92 18q-39 16 -74 51t-51 74q-18 43 -18 92z" />
<glyph unicode="&#x2024;" horiz-adv-x="593" d="M401 112.5q0 -28.5 -12 -53.5q-14 -29 -29 -43q-16 -16 -45 -30q-20 -10 -53 -10.5t-53 10.5q-25 12 -43 30q-23 23 -31 43q-10 27 -10 53.5t10 53.5q8 20 31 43q18 18 43 31q20 10 53 10t53 -10q29 -14 45 -31q14 -14 29 -43q12 -25 12 -53.5z" />
<glyph unicode="&#x2026;" horiz-adv-x="2048" d="M205 112.5q0 26.5 10 53.5q8 20 31 43q18 18 43 31q20 10 53 10t53 -10q25 -12 43 -31q23 -23 31 -43q10 -27 10 -53.5t-10 -53.5q-8 -20 -31 -43q-18 -18 -43 -30q-20 -10 -53 -10.5t-53 10.5q-25 12 -43 30q-23 23 -31 43q-10 27 -10 53.5zM887 112.5q0 26.5 10 53.5 q8 20 31 43q18 18 43 31q20 10 53 10t53 -10q25 -12 43 -31q23 -23 31 -43q10 -27 10 -53.5t-10 -53.5q-8 -23 -31 -45q-20 -20 -43 -28q-27 -10 -53 -11q-33 0 -53 11q-29 14 -45 30q-20 20 -29 43q-10 27 -10 53.5zM1569 112.5q0 26.5 10 53.5q8 23 29 43q18 18 43 31 q20 10 53 10t53 -10q29 -14 45 -31q18 -18 31 -43q10 -20 10 -53q0 -27 -10 -54q-8 -23 -29 -43q-16 -16 -45 -30q-20 -10 -53 -10.5t-53 10.5q-25 12 -43 30q-23 23 -31 43q-10 27 -10 53.5z" />
<glyph unicode="&#x202f;" horiz-adv-x="401" />
<glyph unicode="&#x2039;" horiz-adv-x="499" d="M78 410v163l340 281v-143l-238 -219l238 -218v-143z" />
<glyph unicode="&#x203a;" horiz-adv-x="499" d="M82 131v143l235 218l-235 219v143l340 -281v-163z" />
<glyph unicode="&#x205f;" horiz-adv-x="503" />
<glyph unicode="&#x20ac;" d="M-41 553l21 92h139v23v45v24h-160l21 94h147q16 121 70 236q45 98 129 182q70 70 180 117q96 41 221 41q43 0 82 -6q45 -6 80 -15q43 -9 86 -24q25 -8 50.5 -17.5l47.5 -17.5v-321h-104l-27 186q0 12 -10 29q-6 10 -19 18q-4 2 -7 4t-8 4t-11 6t-20.5 9.5t-18.5 7.5 q-25 10 -51 16q-28 6 -62 6q-78 0 -145 -30q-66 -31 -121 -88q-55 -59 -92 -144q-35 -84 -51 -199h471l-21 -94h-457q0 -4 -1 -12t-1 -12v-45q0 -4 1 -11.5t1 -11.5h441l-19 -92h-415q12 -117 49 -201q39 -90 90 -147q53 -59 131 -92t164 -33q31 0 55 6q4 2 20.5 5t22.5 5 q20 6 29 13l12 6q14 6 23 16q6 8 10 25l41 223h100v-332q-2 -2 -33 -14q-27 -10 -77 -27q-43 -14 -109 -26q-61 -12 -129 -13q-123 0 -229 47q-100 45 -179 125q-82 84 -124 187q-47 111 -66 227h-168z" />
<glyph unicode="&#x2122;" horiz-adv-x="1363" d="M70 1212v144h471v-144h-56l-14 86q0 10 -8 11h-107v-437l29 -4q16 -4 25 -4q12 -2 22 -2v-45h-252v45l23 2q4 0 12 1t12 3q6 0 16.5 2t14.5 2v437h-108q-8 0 -9 -11l-12 -86h-59zM600 817v45l64 10v424l-64 13v47h213v-27l135 -360l135 360v27h211v-47l-65 -13v-424 l65 -10v-45h-223v45l62 10v428l-185 -483h-49l-174 483v-428l61 -10v-45h-186z" />
<glyph unicode="&#x2160;" horiz-adv-x="675" d="M68 0v88l122 8q25 4 33 17q10 16 10 28v1092q0 14 -10 29q-8 10 -33 14l-122 8v90h540v-90l-125 -8q-20 -2 -32 -14q-10 -10 -11 -29v-1092q0 -16 10.5 -28.5t32.5 -16.5l125 -8v-88h-540z" />
<glyph unicode="&#x2164;" horiz-adv-x="1363" d="M1225 1264l-459 -1297h-156l-469 1299l-121 20v88h490v-88l-121 -10q-10 -2 -16 -14.5t-2 -22.5l360 -1012l346 1008q3 12 -6 25q-10 12 -22 16l-113 10v88h407v-88z" />
<glyph unicode="&#x2169;" horiz-adv-x="1296" d="M752 0v88l118 12q16 4 25 15q10 12 0 28l-272 428l-316 -434q-8 -10 -4 -24q2 -10 29 -15l123 -10v-88h-435v88l123 25l412 565l-373 584l-135 24v88h514v-88l-104 -10q-25 -4 -29 -16q-4 -14 4 -25l250 -385l276 379q12 14 3 28q-8 10 -25 15l-105 14v88h429v-88 l-132 -20l-380 -523l403 -630l127 -25v-88h-526z" />
<glyph unicode="&#x216c;" horiz-adv-x="1085" d="M55 0v88l119 8q25 4 33 17q10 16 10 28v1092q0 12 -10 29q-8 12 -33 16l-119 8v88h523v-88l-109 -8q-23 -4 -33 -16q-12 -16 -12 -29v-1133h430q12 0 29 11q12 8 16 24l33 246h119v-381h-996z" />
<glyph unicode="&#x216d;" horiz-adv-x="1282" d="M1204 47l-39 -14q-12 -4 -92 -27q-49 -14 -127 -26q-74 -12 -151 -13q-119 0 -213 27q-92 27 -176 78q-76 47 -140 116q-57 61 -102 148q-41 76 -64 170q-20 84 -20 184q0 162 51 291q52 132 148 227q94 94 225 146q135 53 293 53q51 0 96 -6q61 -8 94 -15 q51 -10 103 -24q23 -6 37 -10t33.5 -11.5t43.5 -13.5v-321h-123l-30 186q-2 14 -15 29q-8 10 -20 18q-4 2 -14.5 6t-16.5 8q-4 2 -47 17q-37 12 -59 16q-35 6 -72 6q-109 0 -195 -39q-94 -43 -155 -114q-70 -84 -105 -189q-37 -115 -37 -260q0 -150 35 -256 q37 -117 103 -192q63 -76 163 -121q90 -41 218 -41q35 0 65 6l51 10q25 6 35 13q12 6 14 6q18 6 25 16q12 16 14 25l47 223h119v-332z" />
<glyph unicode="&#x216e;" horiz-adv-x="1423" d="M1114 686q0 162 -37 275q-35 109 -108 182q-72 72 -168 102q-98 31 -219 31h-156v-1178l166 2q123 0 215 33q100 35 164 103q70 74 106 182q37 110 37 268zM1346 690q0 -100 -17 -176q-20 -92 -53 -162q-37 -77 -92 -141q-59 -68 -135 -113q-82 -47 -183 -71 q-111 -27 -231 -27h-569v88l108 8q23 4 33 17q12 14 12 28v1092q0 12 -12 29q-10 12 -33 16l-108 8v88h528q158 0 299 -41q131 -39 237 -125q98 -80 158 -213q58 -127 58 -305z" />
<glyph unicode="&#x216f;" horiz-adv-x="1792" d="M1214 0v88l109 8q23 4 33 17q12 14 12 28v1129l-471 -1270h-102l-455 1251v-1110q0 -14 12 -28q10 -12 33 -17l117 -8v-88h-443v88l117 8q25 4 33 17q10 16 10 28v1092q0 12 -10 29q-8 12 -33 16l-117 8v88h459v-55l371 -1006l371 1000v61h471v-88l-111 -8 q-23 -4 -33 -16q-12 -16 -12 -29v-1092q0 -14 12 -28q10 -12 33 -17l111 -8v-88h-517z" />
<glyph unicode="&#x2170;" horiz-adv-x="620" d="M70 0v80l100 6q20 4 31 14q12 12 12 31v731h-141v72l250 78h81v-881q0 -18 13 -31q10 -10 30 -14l105 -6v-80h-481zM446 1325q0 -23 -10 -49q-8 -23 -26 -41q-16 -18 -39 -27q-25 -10 -49 -10q-23 0 -50 10q-23 8 -41 26.5t-26 41.5q-10 27 -10 49q0 25 10 49q8 23 26 39 q18 18 41 27q27 10 50 10q25 0 49 -10q23 -10 39 -26.5t26 -39.5q10 -24 10 -49z" />
<glyph unicode="&#x2174;" horiz-adv-x="1081" d="M954 895l-358 -895h-133l-330 895l-113 12v80h453v-80l-98 -6q-18 -2 -27 -14q-10 -12 -4 -31l229 -641l252 641q6 16 -2 29q-10 14 -26 16l-92 6v80h358v-80z" />
<glyph unicode="&#x2179;" horiz-adv-x="1042" d="M584 0v80l69 8q12 2 18.5 14.5t0.5 22.5l-176 262l-201 -262q-8 -8 -4 -23q2 -12 16 -14l103 -8v-80h-390v80l117 16l293 381l-278 412l-121 18v80h450v-80l-71 -10q-14 -2 -21 -14q-6 -10 0 -23l162 -229l178 229q8 8 4 23q-2 10 -18 14l-88 10v80h368v-80l-110 -18 l-275 -350l303 -443l111 -16v-80h-440z" />
<glyph unicode="&#x217c;" horiz-adv-x="606" d="M55 0v80l109 6q14 0 29 14q16 16 16 29v1233h-156v68l262 79h84v-1380q0 -14 14.5 -28.5t28.5 -14.5l111 -6v-80h-498z" />
<glyph unicode="&#x217d;" horiz-adv-x="952" d="M885 76l-74 -37q-33 -16 -82 -33q-29 -10 -90 -22q-41 -8 -100 -9q-111 0 -195 39q-88 41 -147.5 106.5t-94.5 162.5q-33 92 -32 204q0 127 41 228q39 96 106 164q66 66 158 100q86 33 188 33q68 0 125 -13q45 -10 100 -41q41 -23 68 -63q25 -37 25 -88q0 -29 -11 -53 q-10 -23 -26 -37q-20 -16 -39 -23q-29 -8 -45 -8q-35 0 -60 12q-37 18 -43 23v178q-22 12 -43 19q-29 8 -43 8q-68 0 -123 -31t-92 -86q-35 -53 -57 -131q-20 -74 -20 -164q0 -82 22 -160q23 -80 64 -131q47 -59 106 -88q65 -31 147 -31q68 0 136 23q66 23 131 66v-117z" />
<glyph unicode="&#x217e;" horiz-adv-x="1153" d="M780 883q-4 2 -15 5t-17 5q-29 8 -46 10l-49 6q-33 4 -47 4q-76 0 -137 -30q-66 -33 -107 -82q-43 -52 -67 -129q-23 -70 -23 -170q0 -86 21 -154q23 -74 57 -123q39 -55 92 -82q57 -29 127 -28q33 0 60 6l55 18q18 6 51 23q16 8 45 24v697zM780 0v109l-73 -52 q-39 -27 -76 -43q-31 -14 -82 -28q-37 -10 -86 -11q-100 0 -178 45q-70 41 -121 115q-51 72 -72 158q-23 90 -22 174q0 98 32 203q29 94 97 174q63 76 163 123q96 45 230 45q33 0 51 -2l55 -6l27.5 -5.5t22.5 -3.5l32 -8v375h-155v68l264 79h82v-1378q0 -18 12 -31 q10 -10 31 -14l88 -6v-80h-322z" />
<glyph unicode="&#x217f;" horiz-adv-x="1740" d="M1237 0v80l86 6q20 4 31 14q12 12 12 31v522q0 51 -8 86q-8 37 -31 66q-20 27 -57 43q-31 14 -86 14q-16 0 -54 -4q-4 0 -57 -12l-57 -19q-18 -6 -51 -22v-674q0 -18 12 -31q10 -10 31 -14l86 -6v-80h-449v80l86 6q20 4 31 14q12 12 12 31v535q0 39 -10 79q-9 37 -31 62 q-23 27 -55 41q-31 14 -84 14q-31 0 -62 -6q-41 -8 -59 -14l-55 -19q-8 -4 -43 -20v-672q0 -18 12 -31q10 -10 31 -14l86 -6v-80h-463v80l100 6q20 4 31 14q12 12 12 31v711h-141v67l248 78h84v-102q37 25 76 43q57 29 86 41q39 16 88 30q43 12 84 13q43 0 79.5 -12.5 t63.5 -32.5q25 -18 49 -47q18 -23 33 -50q14 8 22.5 13.5t22.5 12.5t31 17q51 29 92 48q49 22 98 36q45 14 90 15q82 0 131 -29q51 -31 82 -76q25 -37 39 -100q12 -55 12 -109v-567q0 -18 13 -31q10 -10 30 -14l99 -6v-80h-459z" />
<glyph unicode="&#x2219;" horiz-adv-x="382" d="M313 696q0 -23 -10 -47t-24 -39q-16 -16 -39 -26q-18 -8 -47 -8.5t-48 8.5q-23 10 -39 26q-14 14 -24 39t-10 47.5t10 47t24.5 39t39 24.5t47 10t47 -10t39 -24.5t24.5 -39t10 -47.5z" />
<glyph unicode="&#xe000;" horiz-adv-x="985" d="M0 985h985v-985h-985v985z" />
<glyph unicode="&#xfb01;" horiz-adv-x="1286" d="M739 0v80l101 6q20 4 30 14q12 12 13 31v735h-490v-735q0 -18 13 -31q10 -10 30 -14l121 -6v-80h-498v80l101 6q20 4 30 14q12 12 13 31v735h-131v72l131 37q0 39 4 92q2 39 12 76q10 43 21 69q6 14 32 70q31 59 70 100q41 43 84 70q45 27 96 43q45 14 99 14q39 0 75 -10 q35 -10 56 -26q25 -20 35 -39t10 -48q0 -31 -13 -51q-12 -23 -28 -35q-14 -10 -33 -18q-14 -6 -21 -6q-6 6 -16 12l-35 25q-8 6 -20.5 14l-24.5 16l-43 31l-35 25l-14 10q-18 -10 -43 -35q-23 -23 -37 -57q-23 -53 -28 -90q-10 -57 -11 -125l-2 -131h443l153 39h84v-879 q0 -18 12 -31q10 -10 31 -14l103 -6v-80h-480zM1116 1325q0 -23 -10 -49q-8 -23 -27 -41q-16 -16 -40.5 -26.5t-49 -10.5t-49.5 10q-23 8 -39 27q-18 18 -27 41q-10 27 -10 49q0 25 10 49q10 23 27 39.5t39 26.5q25 10 49.5 10t49 -10t40.5 -27q18 -16 27 -39q10 -24 10 -49 z" />
<glyph unicode="&#xfb02;" horiz-adv-x="1275" d="M725 0v80l109 6q16 0 30.5 14.5t14.5 28.5v1219h-88q-4 -16 -21 -33q-10 -10 -27 -23q-12 -9 -24 -12l-17 -4q-6 6 -16 12l-35 25q-8 6 -20.5 14l-24.5 16l-43 31l-35 25l-14 10q-18 -10 -43 -35q-23 -23 -37 -57q-23 -53 -28 -90q-10 -57 -11 -125l-2 -131h254v-105 h-254v-735q0 -18 13 -31q10 -10 30 -14l121 -6v-80h-498v80l101 6q20 4 30 14q12 12 13 31v735h-131v72l131 37q0 39 4 92q2 39 12 76q10 43 21 69q6 14 32 70q31 59 70 100q41 43 84 70q45 27 96 43q45 14 99 14q68 0 106 -20q37 -20 57 -53l201 73h84v-1380 q0 -14 14.5 -28.5t28.5 -14.5l109 -6v-80h-496z" />
<glyph unicode="&#xfb03;" horiz-adv-x="1957" d="M59 0v80l101 6q20 4 30 14q12 12 13 31v735h-131v72l131 33q0 92 22 192q20 92 72 172q47 76 129 125q80 49 195 49q39 0 75 -10q35 -10 56 -26q23 -18 34 -41q10 -18 11 -46q0 -31 -13 -51q-10 -18 -30 -35q-15 -12 -31 -18q-14 -6 -21 -6l-188 133q-18 -10 -43 -35 q-20 -20 -39 -57q-20 -39 -29 -90q-10 -57 -10 -125v-131h477q0 92 23 192q20 92 72 172q47 76 129 125q80 49 194 49q41 0 78 -10q35 -10 55 -26q14 -12 31 -41q12 -23 12 -46q0 -31 -12 -51q-12 -23 -29 -35q-14 -10 -32 -18q-14 -6 -21 -6l-188 133q-25 -14 -45 -35 q-16 -16 -37 -57q-20 -39 -29 -90q-10 -57 -10 -125v-131h442l154 39h84v-879q0 -18 12 -31q10 -10 31 -14l102 -6v-80h-479v80l100 6q20 4 31 14q12 12 12 31v735h-489v-735q0 -18 12 -31q10 -10 31 -14l121 -6v-80h-498v80l100 6q20 4 31 14q12 12 12 31v735h-477v-735 q0 -18 13 -31q10 -10 30 -14l121 -6v-80h-498zM1532 1325q0 25 10 49q10 23 26.5 39.5t39.5 26.5q25 10 49 10t49 -10t41 -27q18 -16 27 -39q10 -25 10 -49q0 -23 -10 -49q-8 -23 -27 -41q-16 -16 -41 -26.5t-49.5 -10.5t-48.5 10q-23 8 -39 27q-18 18 -27 41q-10 26 -10 49 z" />
<glyph unicode="&#xfb04;" horiz-adv-x="1943" d="M59 0v80l101 6q20 4 30 14q12 12 13 31v735h-131v72l131 33q0 92 22 192q20 92 72 172q47 76 129 125q80 49 195 49q39 0 75 -10q35 -10 56 -26q23 -18 34 -41q10 -18 11 -46q0 -31 -13 -51q-10 -18 -30 -35q-15 -12 -31 -18q-14 -6 -21 -6l-188 133q-18 -10 -43 -35 q-20 -20 -39 -57q-20 -39 -29 -90q-10 -57 -10 -125v-131h477q0 92 23 192q20 92 72 172q47 76 129 125q80 49 194 49q66 0 107 -22q37 -20 57 -53l201 75h82v-1380q0 -14 16 -27q18 -14 29 -16l108 -6v-80h-495v80l108 6q14 2 31 16q14 12 14 27v1219h-88q-8 -20 -20 -33 q-10 -10 -27 -23q-12 -9 -25 -12l-16 -4l-188 133q-25 -14 -45 -35q-16 -16 -37 -57q-20 -39 -29 -90q-10 -57 -10 -125v-131h254v-105h-254v-735q0 -18 12 -31q10 -10 31 -14l121 -6v-80h-498v80l100 6q20 4 31 14q12 12 12 31v735h-477v-735q0 -18 13 -31q10 -10 30 -14 l121 -6v-80h-498z" />
<glyph horiz-adv-x="1286" d="M739 0v80l101 6q20 4 30 14q12 12 13 31v735h-490v-735q0 -18 13 -31q10 -10 30 -14l121 -6v-80h-498v80l101 6q20 4 30 14q12 12 13 31v735h-131v72l131 37q0 39 4 92q2 39 12 76q10 43 21 69q6 14 32 70q31 59 70 100q41 43 84 70q45 27 96 43q45 14 99 14q39 0 75 -10 q35 -10 56 -26q25 -20 35 -39t10 -48q0 -31 -13 -51q-12 -23 -28 -35q-14 -10 -33 -18q-14 -6 -21 -6q-6 6 -16 12l-35 25q-8 6 -20.5 14l-24.5 16l-43 31l-35 25l-14 10q-18 -10 -43 -35q-23 -23 -37 -57q-23 -53 -28 -90q-10 -57 -11 -125l-2 -131h443l153 39h84v-879 q0 -18 12 -31q10 -10 31 -14l103 -6v-80h-480zM1116 1325q0 -23 -10 -49q-8 -23 -27 -41q-16 -16 -40.5 -26.5t-49 -10.5t-49.5 10q-23 8 -39 27q-18 18 -27 41q-10 27 -10 49q0 25 10 49q10 23 27 39.5t39 26.5q25 10 49.5 10t49 -10t40.5 -27q18 -16 27 -39q10 -24 10 -49 z" />
<glyph horiz-adv-x="1275" d="M725 0v80l109 6q16 0 30.5 14.5t14.5 28.5v1219h-88q-4 -16 -21 -33q-10 -10 -27 -23q-12 -9 -24 -12l-17 -4q-6 6 -16 12l-35 25q-8 6 -20.5 14l-24.5 16l-43 31l-35 25l-14 10q-18 -10 -43 -35q-23 -23 -37 -57q-23 -53 -28 -90q-10 -57 -11 -125l-2 -131h254v-105 h-254v-735q0 -18 13 -31q10 -10 30 -14l121 -6v-80h-498v80l101 6q20 4 30 14q12 12 13 31v735h-131v72l131 37q0 39 4 92q2 39 12 76q10 43 21 69q6 14 32 70q31 59 70 100q41 43 84 70q45 27 96 43q45 14 99 14q68 0 106 -20q37 -20 57 -53l201 73h84v-1380 q0 -14 14.5 -28.5t28.5 -14.5l109 -6v-80h-496z" />
<glyph horiz-adv-x="620" d="M70 0v80l100 6q20 4 31 14q12 12 12 31v731h-141v72l250 78h81v-881q0 -18 13 -31q10 -10 30 -14l105 -6v-80h-481z" />
<glyph horiz-adv-x="645" d="M223 1313q0 -18 -10 -43t-23 -37q-18 -18 -36.5 -26.5t-43 -8.5t-42.5 8q-14 6 -35 27q-16 16 -24.5 34.5t-8.5 43t8 43.5q9 22 25 37q16 16 35 24q25 10 43 10t42.5 -10t37 -22.5t22.5 -37t10 -42.5zM647 1312.5q0 -24.5 -8 -42.5q-9 -22 -25 -37q-20 -20 -34 -27 q-18 -8 -43 -8t-43.5 8t-36.5 27q-15 15 -25 37q-8 18 -8 43q0 23 8 41t27 37q16 16 35 24q25 10 43 10t43 -10q18 -8 34.5 -24.5t24.5 -35t8 -43z" />
</font>
</defs>
</svg>
