<?xml version="1.0" standalone="no"?>
<!DOCTYPE svg PUBLIC "-//W3C//DTD SVG 1.1//EN" "http://www.w3.org/Graphics/SVG/1.1/DTD/svg11.dtd" >
<svg xmlns="http://www.w3.org/2000/svg">
<metadata>
This is a custom SVG webfont generated by Font Squirrel.
Copyright   : An italic companion to SapirSans designed by Eric Schiller 1991
</metadata>
<defs>
<font id="SapirItalic" horiz-adv-x="0" >
<font-face units-per-em="2048" ascent="1638" descent="-410" />
<missing-glyph horiz-adv-x="569" />
<glyph unicode=" "  horiz-adv-x="569" />
<glyph unicode="&#x09;" horiz-adv-x="569" />
<glyph unicode="&#xa0;" horiz-adv-x="569" />
<glyph unicode="!" horiz-adv-x="606" d="M180 80q0 57 44 107.5t100 50.5q43 0 68.5 -34t25.5 -73q0 -61 -45 -108.5t-97 -47.5q-43 0 -69.5 33t-26.5 72zM295 385l51 442l127 678h178l-127 -678l-112 -442h-117z" />
<glyph unicode="&#x22;" horiz-adv-x="757" d="M346 883q2 25 2 39l33 417q0 59 23.5 112.5t80.5 53.5q31 0 46.5 -17.5t15.5 -45.5q0 -53 -17 -103l-120 -417q-8 -33 -15.5 -48.5t-29.5 -15.5q-19 0 -19 25zM623 883q2 25 2 39l32 417q0 59 24 112.5t81 53.5q31 0 46 -17.5t15 -45.5q0 -53 -16 -103l-121 -417 q-8 -33 -15 -48.5t-30 -15.5q-18 0 -18 25z" />
<glyph unicode="#" horiz-adv-x="1175" d="M160 463l22 119h215l92 299h-200l22 118h217l136 435h110l-137 -435h244l135 435h108l-135 -435h176l-22 -118h-191l-94 -299h184l-22 -119h-201l-143 -463h-109l144 463h-246l-146 -463h-108l145 463h-196zM506 582h244l94 299h-246z" />
<glyph unicode="$" horiz-adv-x="1175" d="M141 106l82 127q47 -37 86 -63.5t86 -42.5l183 590q-125 147 -170.5 215.5t-45.5 185.5q0 141 120 240.5t298 99.5l25 -2l22 72l123 -25l-20 -65q49 -14 90 -38t67 -52l-98 -103l-52 35q-24 16 -48 27l-166 -523q145 -158 187 -242.5t42 -172.5q0 -129 -101 -261.5 t-357 -132.5l-25 2l-47 -149l-111 25l43 143q-68 16 -124 45.5t-89 64.5zM510 104q106 0 180 68t74 176q0 96 -21.5 147.5t-74.5 112.5zM551 1110q0 -59 16.5 -106.5t63.5 -112.5l135 438q-90 0 -152.5 -62.5t-62.5 -156.5z" />
<glyph unicode="%" horiz-adv-x="1705" d="M172 918q0 180 118 360t308 180q145 0 201.5 -106.5t56.5 -208.5q0 -215 -122 -394.5t-304 -179.5q-117 0 -187.5 83.5t-70.5 265.5zM303 0l1102 1434h149l-1099 -1434h-152zM334 879q0 -86 24.5 -146.5t92.5 -60.5q117 0 180 174t63 315q0 76 -26.5 135.5t-94.5 59.5 q-104 0 -171.5 -148.5t-67.5 -328.5zM1008 324q0 180 117.5 360t308.5 180q145 0 201.5 -106.5t56.5 -208.5q0 -215 -122 -394.5t-304 -179.5q-117 0 -187.5 83.5t-70.5 265.5zM1169 285q0 -86 25 -146.5t92 -60.5q117 0 180.5 174t63.5 315q0 76 -26.5 135.5t-94.5 59.5 q-104 0 -172 -148.5t-68 -328.5z" />
<glyph unicode="&#x26;" horiz-adv-x="1517" d="M213 373q0 158 99.5 263t265.5 159q-80 119 -106 174t-26 161q0 139 117 233.5t264 94.5q90 0 142.5 -21.5t128.5 -72.5l-90 -107q-41 31 -95.5 50.5t-97.5 19.5q-74 0 -129 -53t-55 -152q0 -59 38 -141t117 -180l328 -404q27 49 38 110.5t11 131.5q0 141 -82 242h-182 l80 127h553l-82 -127h-205q20 -41 39 -107.5t19 -130.5q0 -82 -24 -173t-79 -183l189 -217l-150 -95l-149 181q-104 -98 -208 -139.5t-227 -41.5q-217 0 -329.5 122t-112.5 276zM401 385q0 -92 75 -183t216 -91q102 0 172 36.5t144 110.5l-357 438q-117 -37 -183.5 -119.5 t-66.5 -191.5z" />
<glyph unicode="'" horiz-adv-x="417" d="M332 883q2 25 2 39l33 417q0 59 23.5 112.5t80.5 53.5q31 0 46 -17.5t15 -45.5q0 -53 -16 -103l-121 -417q-8 -33 -15 -48.5t-30 -15.5q-18 0 -18 25z" />
<glyph unicode="(" horiz-adv-x="720" d="M164 236q0 76 4 143t42 270t206 446.5t401 409.5l66 -90q-195 -154 -338.5 -393.5t-174 -401t-34.5 -228t-4 -140.5q0 -229 69.5 -374.5t153.5 -221.5l-88 -80q-147 131 -225 298t-78 362z" />
<glyph unicode=")" horiz-adv-x="720" d="M-33 -334q195 154 338.5 393.5t174 398t34.5 232.5t4 139q0 221 -73.5 375t-149.5 221l86 80q115 -102 210 -254.5t95 -404.5q0 -74 -4 -142.5t-42 -272.5t-205 -444.5t-404 -410.5z" />
<glyph unicode="*" horiz-adv-x="872" d="M283 1108l77 158l205 -99l35 267h150l-68 -267l244 99l16 -158l-246 -66l117 -206l-141 -99l-86 228l-172 -228l-103 99l193 206z" />
<glyph unicode="+" horiz-adv-x="1251" d="M170 451v135h448v450h136v-450h448v-135h-448v-451h-136v451h-448z" />
<glyph unicode="," horiz-adv-x="569" d="M-39 -315l188 360q59 117 92 155t85 38q68 0 67 -72q-10 -49 -23.5 -77t-41.5 -66l-275 -383z" />
<glyph unicode="-" horiz-adv-x="681" d="M154 403l30 168h459l-31 -168h-458z" />
<glyph unicode="." horiz-adv-x="569" d="M150 80q0 57 44 107.5t99 50.5q43 0 68.5 -34t25.5 -73q0 -61 -45 -108.5t-96 -47.5q-43 0 -69.5 33t-26.5 72z" />
<glyph unicode="/" horiz-adv-x="796" d="M14 -221l822 1726h137l-821 -1726h-138z" />
<glyph unicode="0" horiz-adv-x="1175" d="M213 459v78q0 20 4 50.5t40 232.5t191.5 420t374.5 218q156 0 240 -127t84 -352q0 -195 -57.5 -400.5t-140.5 -331.5t-189.5 -199t-214.5 -73q-188 0 -260 158t-72 326zM389 457q0 -145 34 -243.5t136 -98.5q150 0 281 270t131 606q0 133 -36 230.5t-138 97.5 q-61 0 -127 -52.5t-128.5 -167t-107.5 -282t-45 -360.5z" />
<glyph unicode="1" horiz-adv-x="1175" d="M399 1303l381 155h123l-272 -1458h-178l241 1296l-274 -114z" />
<glyph unicode="2" horiz-adv-x="1175" d="M86 0l20 109l332 315q297 279 406.5 439.5t109.5 246.5q0 76 -50 140.5t-146 64.5q-104 0 -165 -47t-120 -107l-80 101q104 100 189.5 148t232.5 48q152 0 240 -101.5t88 -221.5q0 -229 -424 -631l-363 -348h621l-27 -156h-864z" />
<glyph unicode="3" horiz-adv-x="1175" d="M172 78l70 119q59 -35 124.5 -60.5t141.5 -25.5q139 0 225 86t86 225q0 127 -81 203.5t-199 76.5l-84 7l20 110q147 0 277 88q129 87 129 223q0 96 -60.5 148.5t-136.5 52.5q-63 0 -113.5 -14t-124.5 -47l-45 106q84 41 164 61.5t176 20.5q113 0 222.5 -72.5 t109.5 -234.5q0 -145 -109.5 -242.5t-203.5 -124.5q80 -25 164 -114.5t84 -243.5q0 -197 -145.5 -324t-366.5 -127q-106 0 -188.5 30t-135.5 73z" />
<glyph unicode="4" horiz-adv-x="1175" d="M115 412l16 92l836 930h104l-164 -879h158l-27 -143h-157l-78 -412h-170l76 412h-594zM338 555h397l107 557l-4 4z" />
<glyph unicode="5" horiz-adv-x="1175" d="M82 94l82 127q70 -47 149.5 -74.5t169.5 -27.5q141 0 234.5 99t93.5 249q0 121 -112.5 242.5t-348.5 121.5l275 603h505l-75 -156h-346l-148 -328q215 -51 324.5 -173t109.5 -326q0 -195 -156.5 -335.5t-375.5 -140.5q-104 0 -209.5 31t-171.5 88z" />
<glyph unicode="6" horiz-adv-x="1175" d="M201 442q0 348 314 662.5t667 353.5l-27 -135q-215 -39 -386 -176t-261 -326l4 -4q61 37 104 51.5t109 14.5q131 0 243.5 -93.5t112.5 -306.5q0 -231 -148.5 -369.5t-334.5 -138.5q-193 0 -295 132t-102 335zM385 410q0 -141 67 -222q66 -82 179 -82q109 0 187.5 102.5 t78.5 266.5q0 104 -48 193.5t-177 89.5q-127 0 -207 -91t-80 -257z" />
<glyph unicode="7" horiz-adv-x="1175" d="M209 45l823 1233h-606l29 156h782l-29 -154l-839 -1300z" />
<glyph unicode="8" horiz-adv-x="1175" d="M156 319q0 186 99 284.5t261 178.5q-84 72 -132 147t-48 161q0 176 131 272t299 96q170 0 269.5 -82t99.5 -221q0 -123 -77 -195.5t-255 -193.5q98 -61 169.5 -151.5t71.5 -208.5q0 -186 -151.5 -308.5t-347.5 -122.5q-178 0 -283.5 109.5t-105.5 234.5zM340 356 q0 -100 59.5 -172.5t182.5 -72.5q119 0 198.5 77.5t79.5 208.5q0 92 -77.5 172t-168.5 131q-164 -98 -219 -176t-55 -168zM520 1102q0 -70 54.5 -139.5t123.5 -106.5q133 82 192.5 136.5t59.5 166.5q0 78 -59.5 129t-132.5 51q-102 0 -170 -60t-68 -177z" />
<glyph unicode="9" horiz-adv-x="1175" d="M221 -25l27 136q197 39 361.5 177t254.5 324l-4 4q-98 -59 -233 -59q-117 0 -226.5 104.5t-109.5 317.5q0 211 140 345t331 134q195 0 302 -133t107 -334q0 -346 -309 -661.5t-641 -354.5zM475 983q0 -113 54.5 -210t201.5 -97q111 0 183.5 92t72.5 256q0 141 -62.5 222 t-162.5 81q-123 0 -205 -92t-82 -252z" />
<glyph unicode=":" horiz-adv-x="569" d="M152 80q0 57 44 107.5t99 50.5q43 0 68.5 -34t25.5 -73q0 -61 -45 -108.5t-96 -47.5q-43 0 -69.5 33t-26.5 72zM293 827q0 57 44 107.5t99 50.5q43 0 68.5 -33.5t25.5 -72.5q0 -61 -45 -108.5t-96 -47.5q-43 0 -69.5 32.5t-26.5 71.5z" />
<glyph unicode=";" horiz-adv-x="569" d="M-39 -315l188 360q59 117 92 155t85 38q68 0 67 -72q-10 -49 -23.5 -77t-41.5 -66l-275 -383zM305 823q0 57 44 107.5t100 50.5q43 0 68.5 -34t25.5 -73q0 -61 -45 -108t-97 -47q-43 0 -69.5 32.5t-26.5 71.5z" />
<glyph unicode="&#x3c;" horiz-adv-x="1251" d="M174 463v110l1043 480v-131l-869 -404l869 -403v-131z" />
<glyph unicode="=" horiz-adv-x="1251" d="M180 252v135h1032v-135h-1032zM180 649v135h1032v-135h-1032z" />
<glyph unicode="&#x3e;" horiz-adv-x="1251" d="M184 -16v131l869 403l-869 404v131l1043 -480v-110z" />
<glyph unicode="?" horiz-adv-x="948" d="M264 80q0 57 44 107.5t100 50.5q43 0 68.5 -34t25.5 -73q0 -61 -45 -108.5t-97 -47.5q-43 0 -69.5 33t-26.5 72zM315 1331q98 88 193.5 131t183.5 43q145 0 224 -68.5t79 -199.5q0 -100 -44 -180t-165 -226l-176 -210q-68 -90 -106 -207h-139q16 115 63 194.5t210 269 t163 326.5q0 82 -47 121t-119 39q-68 0 -114 -28.5t-132 -98.5z" />
<glyph unicode="@" horiz-adv-x="1554" d="M147 565q0 182 74 345t203 288t289.5 192.5t335.5 67.5q276 0 409 -148.5t133 -346.5q0 -272 -155.5 -468t-333.5 -196q-80 0 -128 44t-48 99q0 12 2 19l-4 4q-25 -49 -105 -96t-143 -47q-76 0 -126 65.5t-50 177.5q0 184 149.5 356.5t313.5 172.5q66 0 108.5 -33 t52.5 -80l39 86h140l-232 -555q-6 -12 -6 -33q0 -33 19.5 -55.5t68.5 -22.5q92 0 193.5 174.5t101.5 370.5q0 119 -87 253t-345 134q-113 0 -237 -53t-230.5 -154.5t-176 -248t-69.5 -320.5q0 -193 111.5 -329t349.5 -136q119 0 209 25.5t178 70.5l33 -98 q-123 -51 -233.5 -83t-211.5 -32q-336 0 -464 182.5t-128 407.5zM672 569q0 -41 26.5 -73.5t63.5 -32.5t83 26.5t93 94.5q53 86 84 155.5t31 137.5q0 43 -20.5 68.5t-55.5 25.5q-115 0 -210 -124t-95 -278z" />
<glyph unicode="A" horiz-adv-x="1175" d="M16 0l793 1434h127l207 -1434h-191l-53 424h-483l-217 -424h-183zM494 565h389q-35 254 -50.5 387t-15.5 256l-107 -217l-115 -228z" />
<glyph unicode="B" horiz-adv-x="1062" d="M154 0l268 1434h326q176 0 266 -86t90 -222q0 -166 -106.5 -252t-219.5 -114q127 -18 200 -112.5t73 -221.5q0 -193 -153 -309.5t-372 -116.5h-372zM356 133h174q131 0 227.5 70.5t96.5 234.5q0 104 -71.5 172t-180.5 68h-143zM485 817h88q135 0 236.5 69.5t101.5 215.5 q0 109 -58 153.5t-148 44.5h-130z" />
<glyph unicode="C" horiz-adv-x="1251" d="M199 639q0 375 257 597t582 222q113 0 205 -34.5t137 -75.5l-90 -103q-88 39 -136 54.5t-142 15.5q-260 0 -436.5 -190.5t-176.5 -477.5q0 -248 132.5 -388t330.5 -140q78 0 158 16.5t151 44.5l54 -119q-84 -39 -186.5 -62.5t-196.5 -23.5q-262 0 -452.5 169t-190.5 495z " />
<glyph unicode="D" horiz-adv-x="1421" d="M154 0l268 1434h401q336 0 469 -168t133 -414q0 -319 -221 -585.5t-667 -266.5h-383zM356 133h201q311 0 491.5 217t180.5 506q0 225 -114 334.5t-314 109.5h-226z" />
<glyph unicode="E" horiz-adv-x="948" d="M154 0l268 1434h635l-25 -134h-457l-88 -477h447l-25 -133h-448l-105 -557h537l-25 -133h-714z" />
<glyph unicode="F" horiz-adv-x="872" d="M154 0l268 1434h635l-25 -134h-457l-106 -561h449l-25 -133h-447l-114 -606h-178z" />
<glyph unicode="G" horiz-adv-x="1441" d="M199 639q0 375 257 597t582 222q117 0 212.5 -34.5t144.5 -84.5l-86 -102q-90 47 -130 62.5t-165 15.5q-262 0 -438.5 -190.5t-176.5 -477.5q0 -248 132.5 -388t330.5 -140q74 0 115 5t90 32l96 499h180l-112 -598q-70 -35 -190.5 -58.5t-198.5 -23.5q-262 0 -452.5 169 t-190.5 495z" />
<glyph unicode="H" horiz-adv-x="1366" d="M154 0l268 1434h178l-108 -582h630l109 582h178l-268 -1434h-178l135 719h-631l-135 -719h-178z" />
<glyph unicode="I" horiz-adv-x="557" d="M154 0l268 1434h178l-268 -1434h-178z" />
<glyph unicode="J" horiz-adv-x="557" d="M-53 -389l22 121q37 6 62.5 25.5t47 51t46.5 101.5t37 129l260 1395h178l-266 -1422q-39 -209 -144.5 -305t-242.5 -96z" />
<glyph unicode="K" horiz-adv-x="1099" d="M154 0l268 1434h178l-119 -635l4 -4l662 659l113 -94l-603 -586l406 -721l-170 -73l-420 763l-141 -743h-178z" />
<glyph unicode="L" horiz-adv-x="909" d="M154 0l268 1434h178l-244 -1301h537l-25 -133h-714z" />
<glyph unicode="M" horiz-adv-x="1785" d="M141 0l269 1434h188l153 -603q73 -293 132 -569l252 402l251 384l261 386h174l-269 -1434h-178l60 323l72 369l100 467l-4 4l-238 -382l-229 -354l-283 -427h-72l-98 387l-92 383q-55 236 -88 393q-51 -336 -84 -518l-119 -645h-158z" />
<glyph unicode="N" horiz-adv-x="1519" d="M139 0l269 1434h114l283 -485l275 -480q83 -147 110 -203q8 61 55 332.5t80 443.5l76 392h158l-269 -1434h-129l-257 425l-255 433q-125 217 -151 285q-41 -268 -63.5 -401.5t-62.5 -346.5l-75 -395h-158z" />
<glyph unicode="O" horiz-adv-x="1517" d="M199 598q0 313 208.5 586.5t577.5 273.5q242 0 389.5 -172t147.5 -414q0 -342 -197 -619.5t-549 -277.5q-309 0 -443 197t-134 426zM395 664q0 -260 103.5 -402.5t294.5 -142.5q274 0 403 230.5t129 514.5q0 211 -102.5 331t-261.5 120q-297 0 -431.5 -221t-134.5 -430z " />
<glyph unicode="P" horiz-adv-x="1062" d="M154 0l268 1434h301q152 0 278.5 -97.5t126.5 -292.5q0 -205 -160.5 -342t-469.5 -137l22 125h53q141 0 258 77t117 273q0 86 -66.5 173t-185.5 87h-121l-243 -1300h-178z" />
<glyph unicode="Q" horiz-adv-x="1517" d="M199 598q0 313 208.5 586.5t577.5 273.5q242 0 389.5 -172t147.5 -414q0 -274 -133.5 -523t-374.5 -320l393 -236l-107 -133l-509 315h-15q-309 0 -443 197t-134 426zM395 664q0 -260 103.5 -402.5t294.5 -142.5q274 0 403 230.5t129 514.5q0 211 -102.5 331t-261.5 120 q-297 0 -431.5 -221t-134.5 -430z" />
<glyph unicode="R" horiz-adv-x="1099" d="M154 0l268 1434h305q211 0 292 -111t81 -246q0 -158 -84 -264t-215 -166l235 -606l-180 -66l-223 629h-189l-112 -604h-178zM469 737h119q143 0 239.5 87t96.5 245q0 104 -51.5 167.5t-165.5 63.5h-134z" />
<glyph unicode="S" horiz-adv-x="1024" d="M131 111l74 114q72 -55 138.5 -88t148.5 -33q111 0 184.5 67t73.5 177q0 102 -56.5 185t-156 198t-144.5 198t-45 189q0 141 118 240.5t288 99.5q119 0 184.5 -28.5t130.5 -86.5l-86 -90l-86 47q-63 29 -135 29q-92 0 -158.5 -62.5t-66.5 -156.5q0 -72 34.5 -135.5 t141 -177t166 -214t59.5 -214.5q0 -129 -101.5 -261.5t-357.5 -132.5q-109 0 -205 39.5t-143 96.5z" />
<glyph unicode="T" horiz-adv-x="1099" d="M270 1300l25 134h1005l-24 -134h-414l-244 -1300h-180l244 1300h-412z" />
<glyph unicode="U" horiz-adv-x="1366" d="M236 358q0 29 2 43l20 156l164 877h178l-162 -869q-4 -23 -12 -83t-8 -93q0 -154 77.5 -217t186.5 -63q168 0 265 109.5t140 332.5l166 883h166l-168 -902q-47 -258 -200.5 -407.5t-393.5 -149.5q-233 0 -327 113.5t-94 269.5z" />
<glyph unicode="V" horiz-adv-x="1175" d="M270 1434l183 20l99 -705q52 -370 52 -516l277 544l350 677l141 -49l-756 -1405h-131z" />
<glyph unicode="W" horiz-adv-x="1820" d="M283 1434l176 20q0 -180 18.5 -413.5t39 -463t20.5 -307.5l4 -4q29 84 119 288l197 430l212 450h145q31 -322 44.5 -476.5t30 -377t16.5 -314.5q51 127 145 332l211 458l186 398l144 -41l-662 -1413h-158l-104 1094l-516 -1094h-158z" />
<glyph unicode="X" horiz-adv-x="1241" d="M72 45l175 242l187 255l184 244q-59 127 -141 320l-135 319l207 29l99 -266q46 -127 89 -262l221 313l158 215l150 -49l-164 -216l-132 -171l-175 -211l342 -799l-207 -28l-128 345q-79 216 -122 347l-192 -297l-269 -395z" />
<glyph unicode="Y" horiz-adv-x="1062" d="M272 1430l201 24l93 -349l85 -347l142 215l173 255l156 226l144 -53l-564 -774l-116 -627h-178l116 627z" />
<glyph unicode="Z" horiz-adv-x="1214" d="M72 0l12 90l975 1210h-621l25 134h860l-10 -76l-975 -1225h758l-25 -133h-999z" />
<glyph unicode="[" horiz-adv-x="681" d="M86 -395l356 1900h398l-25 -116h-248l-311 -1668h248l-19 -116h-399z" />
<glyph unicode="\" horiz-adv-x="909" d="M272 1505h134l405 -1505h-135z" />
<glyph unicode="]" horiz-adv-x="681" d="M-12 -395l24 116h248l311 1668h-247l18 116h399l-356 -1900h-397z" />
<glyph unicode="^" d="M-809 1098l317 311h134l317 -311h-182l-203 198l-203 -198h-180z" />
<glyph unicode="_" horiz-adv-x="1024" d="M-18 -307l18 102h1042l-18 -102h-1042z" />
<glyph unicode="`" d="M-340 1530q20 0 46 -19.5t48 -44.5l205 -219l-57 -61l-250 184l-53 47q-15 18 -15 34q0 37 22 58t54 21z" />
<glyph unicode="a" horiz-adv-x="1024" d="M145 188q0 51 24 140.5t145.5 177.5t303.5 139l271 78q6 25 6 45q0 74 -45 117t-113 43q-86 0 -148.5 -25.5t-148.5 -85.5l-47 92q96 74 188.5 107t198.5 33q125 0 215 -49.5t90 -180.5q0 -51 -18 -119l-121 -450q-12 -47 -20 -96.5t-8 -94.5q0 -31 6 -59h-201 q-6 18 -6 41q0 35 10 76l14 57l-84 -63q-76 -59 -150.5 -97.5t-139.5 -38.5q-104 0 -163 56.5t-59 156.5zM342 240q0 -53 32 -87t79 -34q113 0 236.5 130t166.5 351l-190 -51q-137 -39 -213 -98.5t-91.5 -114.5t-17.5 -69.5t-2 -26.5z" />
<glyph unicode="b" horiz-adv-x="1120" d="M125 0l285 1505h161l-131 -702l4 -4q68 109 169.5 179.5t215.5 70.5q152 0 223.5 -112t71.5 -282q0 -233 -156.5 -456.5t-404.5 -223.5q-156 0 -258 107l-14 -82h-166zM334 213q41 -68 102.5 -91.5t151.5 -23.5q117 0 238.5 162t121.5 408q0 129 -52 185t-136 56 q-131 0 -258 -183t-168 -513z" />
<glyph unicode="c" horiz-adv-x="872" d="M133 422q0 209 158 418t467 209q137 0 223 -82l-74 -99q-20 16 -84.5 37t-109.5 21q-152 0 -278 -140.5t-126 -351.5q0 -123 52.5 -227.5t197.5 -104.5q59 0 112.5 19.5t119.5 58.5l57 -102q-172 -102 -328 -103q-215 0 -301 139.5t-86 307.5z" />
<glyph unicode="d" horiz-adv-x="1103" d="M133 352q0 283 168 490t404 207q66 0 130 -38t97 -102l115 596h165l-280 -1505h-166l37 193l-4 4q-49 -72 -155.5 -147t-223.5 -75q-121 0 -204 105.5t-83 271.5zM309 360q0 -117 45 -181t127 -64q143 0 279.5 169t136.5 429l2 21q0 63 -52 122q-60 70 -147 70 q-164 0 -277.5 -154t-113.5 -412z" />
<glyph unicode="e" horiz-adv-x="948" d="M135 356q0 248 180.5 470.5t438.5 222.5q98 0 169.5 -57.5t71.5 -176.5q0 -174 -205.5 -277.5t-478.5 -103.5q0 -150 39 -243t176 -93q72 0 138.5 22.5t134.5 59.5l57 -102q-94 -51 -198.5 -77t-202.5 -26q-160 0 -240 101.5t-80 279.5zM336 553q12 -2 31.5 -3t38.5 -1 q178 0 295.5 71.5t117.5 161.5q0 66 -32.5 105t-90.5 39q-106 0 -217.5 -111.5t-142.5 -261.5z" />
<glyph unicode="f" horiz-adv-x="569" d="M143 0l172 915h-147l20 109h148l22 125q35 197 129.5 276.5t206.5 79.5q35 0 72 -12t63 -31l-53 -94q-20 6 -36.5 10t-49.5 4q-61 0 -99 -44t-54 -130l-35 -184h221l-21 -109h-221l-172 -915h-166z" />
<glyph unicode="g" horiz-adv-x="1099" d="M0 -410l70 121q68 -49 146.5 -70.5t164.5 -21.5q145 0 246.5 102.5t138.5 301.5l33 170l-4 4q-49 -72 -156 -147t-223 -75q-121 0 -204 105.5t-83 271.5q0 283 168 490t403 207q66 0 130.5 -38t97.5 -102l22 115h168l-184 -987q-51 -276 -210 -412.5t-364 -136.5 q-111 0 -200.5 24.5t-159.5 77.5zM305 360q0 -117 45 -181t127 -64q143 0 279.5 169t136.5 429q1 11 1 21q0 63 -51 122q-60 70 -147 70q-164 0 -277.5 -154t-113.5 -412z" />
<glyph unicode="h" horiz-adv-x="1138" d="M125 0l283 1505h163l-145 -727l4 -4q86 119 192.5 197t270.5 78q90 0 155.5 -58.5t65.5 -150.5q0 -39 -4 -71t-23 -122l-129 -647h-165l129 625q8 31 14 75.5t6 85.5q0 127 -143 127q-127 0 -264.5 -158.5t-174.5 -361.5l-71 -393h-164z" />
<glyph unicode="i" horiz-adv-x="460" d="M125 0l192 1024h166l-192 -1024h-166zM352 1333q0 57 40 97t89 40q45 0 66.5 -28.5t21.5 -59.5q0 -49 -37.5 -97t-93.5 -48q-53 0 -69.5 29.5t-16.5 66.5z" />
<glyph unicode="j" horiz-adv-x="493" d="M-80 -512l19 90q68 12 95 60.5t51 115t42 164.5l207 1106h166l-205 -1098q-45 -238 -146.5 -338t-228.5 -100zM367 1333q0 55 38.5 96t90.5 41q45 0 66.5 -28.5t21.5 -59.5q0 -55 -37 -100t-94 -45q-53 0 -69.5 30.5t-16.5 65.5z" />
<glyph unicode="k" horiz-adv-x="948" d="M125 0l283 1505h165l-167 -895h28l447 434l100 -102l-401 -364l327 -525l-166 -78l-346 584l-104 -559h-166z" />
<glyph unicode="l" horiz-adv-x="460" d="M125 0l283 1505h165l-282 -1505h-166z" />
<glyph unicode="m" horiz-adv-x="1687" d="M125 0l192 1024h160l-51 -238l4 -4q63 106 174 186.5t236 80.5q117 0 159.5 -68t42.5 -195l5 -4q47 92 160.5 179.5t221.5 87.5q123 0 178.5 -53.5t55.5 -184.5q0 -88 -25 -221l-108 -590h-164l109 588l17 106q7 43 7 90q0 129 -113 129q-102 0 -232 -138t-177 -402 l-68 -373h-164l109 588l17 106q7 43 8 90q0 129 -113 129q-102 0 -232.5 -138t-177.5 -402l-67 -373h-164z" />
<glyph unicode="n" horiz-adv-x="1138" d="M125 0l192 1024h160l-51 -246l4 -4q86 119 192.5 197t270.5 78q90 0 155.5 -58.5t65.5 -150.5q0 -39 -4 -71t-23 -122l-129 -647h-165l129 625q8 31 14 75.5t6 85.5q0 127 -143 127q-127 0 -264.5 -158.5t-174.5 -361.5l-71 -393h-164z" />
<glyph unicode="o" horiz-adv-x="1062" d="M133 426q0 244 152.5 433.5t400.5 189.5q160 0 270.5 -123t110.5 -324q0 -250 -148.5 -438.5t-369.5 -188.5q-203 0 -309.5 138.5t-106.5 312.5zM309 426q0 -109 52.5 -218.5t191.5 -109.5q145 0 241.5 149.5t96.5 350.5q0 156 -57.5 242t-163.5 86q-164 0 -262.5 -151.5 t-98.5 -348.5z" />
<glyph unicode="p" horiz-adv-x="1099" d="M10 -512l287 1536h166l-43 -221l4 -4q68 109 169 179.5t216 70.5q152 0 223.5 -112t71.5 -282q0 -233 -156.5 -456.5t-404.5 -223.5q-156 0 -258 107l-109 -594h-166zM313 213q41 -68 102.5 -91.5t151.5 -23.5q117 0 239 162t122 408q0 129 -52.5 185t-136.5 56 q-131 0 -258 -183t-168 -513z" />
<glyph unicode="q" horiz-adv-x="1103" d="M133 352q0 283 168 490t404 207q66 0 130 -38t97 -102l24 115h168l-288 -1536h-168l135 705l-4 4q-49 -72 -155.5 -147t-223.5 -75q-121 0 -204 105.5t-83 271.5zM309 360q0 -117 45 -181t127 -64q143 0 279.5 169t136.5 429l2 21q0 63 -52 122q-60 70 -147 70 q-164 0 -277.5 -154t-113.5 -412z" />
<glyph unicode="r" horiz-adv-x="681" d="M125 0l192 1024h162l-37 -168l4 -4q88 109 142.5 153t134.5 44q37 0 65.5 -17.5t67.5 -52.5l-86 -115q-14 6 -52 13.5t-59 7.5q-92 0 -165.5 -104.5t-116.5 -327.5l-86 -453h-166z" />
<glyph unicode="s" horiz-adv-x="796" d="M78 70l72 118q53 -43 110 -66.5t115 -23.5q72 0 126 39t54 109q0 82 -53 147l-130 146q-73 82 -104.5 126t-31.5 130q0 98 85 176t238 78q80 0 139.5 -24t114.5 -62l-78 -103q-39 31 -91 52.5t-95 21.5q-51 0 -94 -34t-43 -85q0 -47 14 -70.5t129 -154.5t145.5 -194.5 t30.5 -129.5q0 -119 -100.5 -205t-268.5 -86q-80 0 -150.5 24t-133.5 71z" />
<glyph unicode="t" horiz-adv-x="681" d="M195 195q0 49 12 104l119 616h-129l22 109h129l45 246l178 61l-57 -307h242l-23 -109h-241l-121 -634q-4 -14 -6.5 -36t-2.5 -38q0 -109 89 -109q41 0 66.5 5.5t86.5 23.5l17 -102q-53 -23 -107.5 -36.5t-99.5 -13.5q-111 0 -165 57t-54 163z" />
<glyph unicode="u" horiz-adv-x="1099" d="M152 193q0 88 20 184l129 647h166l-129 -625q-18 -74 -19 -161q0 -127 144 -127q119 0 253 181t171 384l63 348h164l-192 -1024h-160l69 311l-4 4q-59 -158 -193 -249t-274 -91q-90 0 -149 62t-59 156z" />
<glyph unicode="v" horiz-adv-x="948" d="M168 1016l176 28l89 -512q34 -197 46 -278l475 790l133 -57l-641 -987h-65z" />
<glyph unicode="w" horiz-adv-x="1478" d="M158 1024l170 20l48 -450q26 -236 25 -344l5 -4q25 84 129 281.5t284 496.5h121q59 -336 87 -511t28 -271q82 180 161.5 335.5t256.5 466.5l139 -43l-557 -1001h-103l-53 302q-35 202 -53.5 330t-18.5 204l-4 4q-23 -80 -96.5 -224.5t-165.5 -307.5l-176 -308h-92z" />
<glyph unicode="x" horiz-adv-x="948" d="M33 68l234 270l204 227q-57 104 -103 199l-106 219l166 61l89 -208q36 -86 69 -177l145 182l168 203l119 -73l-194 -213l-201 -213l258 -504l-158 -61l-146 329l-61 137l-158 -204l-208 -262z" />
<glyph unicode="y" horiz-adv-x="948" d="M86 -442l270 483l-186 975l176 28l50 -299q28 -164 43.5 -266t37.5 -266l133 234l194 336l152 261l134 -57l-309 -512l-297 -507l-263 -480z" />
<glyph unicode="z" horiz-adv-x="985" d="M80 0l10 78l731 827h-465l23 119h668l-19 -90l-694 -815h543l-23 -119h-774z" />
<glyph unicode="{" horiz-adv-x="681" d="M125 502l18 86q88 35 128 93t61 169l53 276q35 195 132 287t233 92l-21 -108q-68 -12 -122 -71.5t-72 -154.5l-54 -288q-25 -127 -67.5 -200t-145.5 -138q55 -47 78 -93t23 -112q0 -51 -17 -133l-53 -289q-6 -35 -6 -61q0 -68 31.5 -111t85.5 -53l-21 -109 q-111 0 -174 63.5t-63 194.5q0 53 12 121l53 277q12 61 12 106q0 57 -23.5 93t-80.5 63z" />
<glyph unicode="|" horiz-adv-x="530" d="M299 0v1505h135v-1505h-135z" />
<glyph unicode="}" horiz-adv-x="681" d="M27 -416l20 109q68 12 122 71.5t73 153.5l53 289q25 127 68 199.5t145 138.5q-55 47 -77.5 93t-22.5 112q0 51 16 133l53 288q6 35 6 62q0 68 -31.5 110.5t-84.5 53.5l20 108q111 0 174.5 -63.5t63.5 -194.5q0 -53 -13 -121l-53 -276q-12 -61 -12 -107q0 -57 23.5 -93 t80.5 -62l-18 -86q-88 -35 -128 -93.5t-61 -168.5l-53 -277q-35 -195 -132 -287t-232 -92z" />
<glyph unicode="~" d="M-952 1182q61 94 124.5 145t155.5 51q49 0 96.5 -14t118 -43t127 -48.5t88.5 -19.5q59 0 97.5 32t81.5 97l86 -71q-61 -92 -118 -139.5t-143 -47.5q-51 0 -94 14.5t-114 49.5q-76 33 -121 47t-108.5 14t-104.5 -36.5t-88 -106.5z" />
<glyph unicode="&#xa1;" horiz-adv-x="243" d="M33 -184l137 512h92l-137 -512h-92zM201 479q0 12 3 24.5t24.5 30t48 17.5t36.5 -16q7 -12 8 -26q0 -6 -2 -11q-8 -27 -24 -45.5t-49 -18.5q-45 0 -45 45z" />
<glyph unicode="&#xa2;" horiz-adv-x="1638" d="M127 354l37 133h1149l-213 236l629 -291l-752 -307l285 229h-1135zM395 1190l785 291l-340 -236h1130l-37 -133h-1116l162 -229z" />
<glyph unicode="&#xa3;" horiz-adv-x="899" d="M104 195q0 68 46.5 146.5t113 115.5t150.5 59q-76 39 -107 68.5t-36 58.5t-5 47q0 59 37 123t121 119t173 75.5t177 20.5q49 0 89 -6t73 -20.5t57.5 -32t36.5 -46t12 -53.5q0 -37 -21.5 -66.5t-46 -42.5t-54.5 -13q-37 0 -60.5 21.5t-23.5 84.5q0 45 -34 72.5t-89 27.5 q-39 0 -98.5 -23.5t-110.5 -93t-51 -137.5q0 -80 38.5 -111.5t100.5 -31.5q25 0 37 2l112 10q10 1 19 1q61 0 61 -38q0 -33 -47 -52t-84 -19q-18 0 -56 7t-65 7q-68 0 -119 -33.5t-87.5 -100.5t-36.5 -136q0 -31 18 -68t84 -60.5t141 -23.5h37q20 4 66.5 9.5t104 44 t110.5 126.5l49 -14q-20 -68 -88 -133.5t-157 -89t-136 -30.5t-98 -7q-88 0 -159 22.5t-132.5 69t-61.5 144.5z" />
<glyph unicode="&#xa4;" horiz-adv-x="587" d="M301 909l14 56l197 157q172 141 228.5 206t66.5 99.5t10 49.5q0 37 -23.5 62.5t-64.5 25.5q-55 0 -93 -20.5t-83 -53.5l-37 43q49 45 111.5 74.5t136.5 29.5q78 0 122 -36.5t44 -100.5q0 -25 -11.5 -67.5t-62.5 -102t-186 -170.5l-215 -174h348l-21 -78h-481z" />
<glyph unicode="&#xa5;" horiz-adv-x="583" d="M8 -340h39q55 0 93 40t87 179l-200 469l92 25l77 -187q36 -90 80 -229l82 216l80 200l82 -19l-264 -594q-72 -166 -199 -166h-49v66z" />
<glyph unicode="&#xa7;" d="M-569 1423h118l150 -198l256 198h121l-340 -311h-133z" />
<glyph unicode="&#xa8;" d="M-682 1294q0 12 4 35t39 55.5t69.5 32.5t55 -24.5t20.5 -61.5q0 -12 -6 -37.5t-37.5 -55.5t-70.5 -30q-33 0 -53.5 24.5t-20.5 61.5zM-311 1294q0 12 4 35t39 55.5t69 32.5q33 0 54.5 -23.5t21.5 -60.5q0 -12 -5 -37.5t-38 -56.5t-72 -31q-31 0 -52 25.5t-21 60.5z" />
<glyph unicode="&#xa9;" horiz-adv-x="1024" d="M119 -231q0 23 8 38t35 35l334 338l-213 883h155l158 -830l543 830h161l-638 -887l165 -352q14 -16 15 -37q0 -66 -134.5 -116t-277.5 -50q-123 0 -217 44.5t-94 103.5zM365 -164q0 -29 31.5 -50.5t80.5 -21.5q53 0 119 35q55 29 55 47q0 3 -2 7l-88 241l-176 -217 q-20 -18 -20 -41z" />
<glyph unicode="&#xaa;" d="M-877 -344q0 123 90.5 207t217.5 84t217 -84t90 -207h-74q-25 72 -89 106.5t-144 34.5q-78 0 -143.5 -36.5t-90.5 -104.5h-74z" />
<glyph unicode="&#xab;" horiz-adv-x="487" d="M137 510l23 111h157l109 403h184l-108 -403h149l-28 -111h-150l-137 -510h-184l137 510h-152zM487 1270q0 10 17.5 74.5t122.5 64.5q86 0 86 -74q0 -16 -17.5 -78.5t-126.5 -62.5q-82 0 -82 76z" />
<glyph unicode="&#xac;" horiz-adv-x="1124" d="M49 -2l746 1022v115q0 84 -5.5 124.5t-32 69.5t-79.5 29q-27 0 -39 -2t-56 -23.5t-79 -72.5l-51 -93h-39q23 72 52.5 129.5t67 110.5t84 81t91.5 28q61 0 109 -47.5t59.5 -143.5t11.5 -247.5t-18.5 -411.5t-18.5 -347q0 -102 42 -139t87 -37q18 0 65.5 17.5t77 70 t43.5 80.5h39q-20 -59 -44.5 -122.5t-67.5 -116t-97.5 -81t-103.5 -28.5q-51 0 -90 42t-49 99q-2 31 -3 58.5t-1 38.5q0 111 10 262t31 285l-553 -750h-189z" />
<glyph unicode="&#xad;" horiz-adv-x="681" d="M154 403l30 168h459l-31 -168h-458z" />
<glyph unicode="&#xae;" horiz-adv-x="1124" d="M-25 -471l74 178l221 866q27 111 111 214.5t191.5 155.5t153.5 65.5t99 13.5h52q25 -6 70.5 -13.5t100 -51.5t79 -92t32.5 -87t8 -84q0 -68 -16 -143.5t-59 -163.5t-111 -172t-145.5 -139.5t-153.5 -84t-143 -28.5q-39 0 -92.5 16.5t-82 44t-40.5 60.5l-86 -320 q-29 -104 -40.5 -139t-43.5 -96h-179zM358 238q-3 -11 -3 -23q0 -39 35 -92q46 -70 147 -70q25 0 62.5 5t77.5 23.5t111.5 79t120.5 191.5t49 232q0 27 -4 55.5t-16 80.5t-61.5 110.5t-103.5 69.5t-73 11q-27 0 -53 -9t-64 -36.5t-69 -71.5t-47 -106z" />
<glyph unicode="&#xaf;" horiz-adv-x="569" d="M-125 252q0 47 27.5 96t72.5 80q61 43 129 43q78 0 105 -45t27 -84q0 -49 -28 -98t-81 -85t-119 -36q-80 0 -106.5 45t-26.5 84zM-78 262q0 -29 12 -51q29 -45 89 -45q47 0 87 28.5t60 65.5t20 74q0 27 -18 59.5t-80 32.5q-49 0 -109.5 -40t-60.5 -124z" />
<glyph unicode="&#xb0;" horiz-adv-x="688" d="M440 1210v26q0 11 9 36q29 98 113.5 165.5t182.5 67.5q82 0 131.5 -47t49.5 -123q0 -27 -18.5 -94t-103.5 -135t-183 -68q-82 0 -131.5 47t-49.5 125zM514 1227q0 -55 34 -91t89 -36q68 0 128 50t79 122q6 25 6 49q0 53 -33 88t-88 35q-70 0 -129 -49t-72.5 -98.5 t-13.5 -69.5z" />
<glyph unicode="&#xb1;" horiz-adv-x="1251" d="M199 0v135h1032v-135h-1032zM199 659v136h448v450h135v-450h449v-136h-449v-450h-135v450h-448z" />
<glyph unicode="&#xb2;" horiz-adv-x="1175" d="M86 0l20 109l332 315q297 279 406.5 439.5t109.5 246.5q0 76 -50 140.5t-146 64.5q-104 0 -165 -47t-120 -107l-80 101q104 100 189.5 148t232.5 48q152 0 240 -101.5t88 -221.5q0 -229 -424 -631l-363 -348h621l-27 -156h-864z" />
<glyph unicode="&#xb3;" horiz-adv-x="1175" d="M172 78l70 119q59 -35 124.5 -60.5t141.5 -25.5q139 0 225 86t86 225q0 127 -81 203.5t-199 76.5l-84 7l20 110q147 0 276.5 88t129.5 223q0 96 -60.5 148.5t-136.5 52.5q-63 0 -113.5 -14t-124.5 -47l-45 106q84 41 164 61.5t176 20.5q113 0 222.5 -72.5t109.5 -234.5 q0 -145 -109.5 -242.5t-203.5 -124.5q80 -25 164 -114.5t84 -243.5q0 -197 -145.5 -324t-366.5 -127q-106 0 -188.5 30t-135.5 73z" />
<glyph unicode="&#xb4;" d="M-477 1167l327 260l61 44q28 19 60 20q14 0 29 -23q11 -18 11 -32q0 -33 -40 -66q-33 -27 -55 -41l-346 -229z" />
<glyph unicode="&#xb5;" horiz-adv-x="1830" d="M102 348v684h185v-610q0 -133 48 -214t177 -81q123 0 192.5 69.5t69.5 219.5v616h184v-610q0 -295 232 -295q119 0 187.5 76t68.5 221v608h184v-1024h-182v127q-63 -74 -147 -112.5t-173 -38.5q-115 0 -193.5 39.5t-131.5 111.5q-72 -66 -170 -108.5t-182 -42.5 q-168 0 -258.5 98t-90.5 266z" />
<glyph unicode="&#xb6;" horiz-adv-x="1062" d="M16 -168l88 121q53 -51 118 -88t155 -37q94 0 155.5 44t61.5 120q0 66 -37 114t-157.5 139t-174 165.5t-53.5 146.5q0 141 102.5 224t245.5 106q-156 141 -155 268q0 133 120.5 218t294.5 85q100 0 174 -34.5t121 -92.5l-94 -86q-49 41 -108.5 64.5t-124.5 23.5 q-80 0 -139.5 -40t-59.5 -113q0 -56 79 -134l177 -173q98 -95 144 -151t46 -140q0 -117 -111.5 -214.5t-242.5 -97.5q145 -117 145 -250q0 -145 -121.5 -234t-308.5 -89q-106 0 -203.5 42t-136.5 93zM362 588q0 -70 60.5 -140.5t134.5 -89.5q88 12 167 52.5t79 138.5 q0 55 -59.5 117.5t-135.5 124.5q-109 -14 -169 -57.5t-74 -121.5q-3 -8 -3 -24z" />
<glyph unicode="&#xb7;" horiz-adv-x="681" d="M123 1147v119h510v-119h-510z" />
<glyph unicode="&#xb8;" horiz-adv-x="1404" d="M86 444q0 45 15.5 204t140.5 254t188.5 108.5t136.5 13.5h41v-35q-96 -37 -143 -69.5t-87 -99t-60.5 -159t-20.5 -194.5q0 -57 3 -90t15.5 -102.5t32 -109.5t54 -74t87.5 -34q25 0 80.5 15.5t94.5 113.5q27 104 30 123q-27 74 -42 142.5t-15 146.5v44q0 17 16.5 110.5 t90 93.5t90 -94.5t16.5 -153.5q0 -82 -13.5 -140.5t-43.5 -148.5q14 -61 30 -123q39 -98 94.5 -114.5t81.5 -16.5q47 0 85 35t56.5 73t34 121t15.5 187q0 96 -20.5 189.5t-60.5 159t-87 100t-143 69.5v35h45q74 0 134 -13.5t186 -108.5t141.5 -254t15.5 -204 q0 -72 -11.5 -124t-39 -120.5t-79.5 -126t-95 -75.5t-72 -25.5t-70 -7.5q-37 0 -65.5 7.5t-75.5 34t-77 56t-73 105.5q-41 -70 -72.5 -103.5t-76.5 -59t-78 -34t-67 -8.5q-33 0 -66 9.5t-74 26.5t-93 74.5t-91 150.5t-39 220z" />
<glyph unicode="&#xb9;" horiz-adv-x="1175" d="M399 1303l381 155h123l-272 -1458h-178l241 1296l-274 -114z" />
<glyph unicode="&#xba;" horiz-adv-x="1062" d="M41 -20l168 176q-37 55 -56.5 129.5t-19.5 140.5q0 266 166 444.5t387 178.5q154 0 262 -115l146 151l82 -57l-168 -174q59 -100 59 -252q0 -254 -155.5 -440.5t-362.5 -186.5q-90 0 -158.5 28t-122.5 79l-157 -164zM309 426q0 -29 4 -64.5t19 -76.5l512 538 q-27 45 -70 74t-104 29q-164 0 -262.5 -151.5t-98.5 -348.5zM373 193q31 -45 73.5 -70t106.5 -25q145 0 241.5 149.5t96.5 350.5q0 25 -1 52.5t-11 68.5z" />
<glyph unicode="&#xbb;" horiz-adv-x="948" d="M119 209q0 174 205.5 277.5t478.5 103.5q0 150 -39 243t-176 93q-72 0 -138.5 -22.5t-134.5 -59.5l-57 102q94 51 198.5 77t202.5 26q160 0 240 -101.5t80 -279.5q0 -248 -180.5 -470.5t-438.5 -222.5q-98 0 -169.5 57.5t-71.5 176.5zM295 242q0 -66 32.5 -105t90.5 -39 q106 0 218 112t142 261q-14 0 -32.5 2t-36.5 2q-178 0 -296 -71.5t-118 -161.5z" />
<glyph unicode="&#xbf;" horiz-adv-x="1138" d="M0 -430l96 401l221 1053h160l-51 -246l4 -4q86 119 192.5 197t270.5 78q90 0 155.5 -58.5t65.5 -150.5q0 -39 -4 -71t-23 -122l-129 -647h-165l129 625q8 31 14 75.5t6 85.5q0 127 -143 127q-127 0 -260 -157.5t-179 -362.5l-88 -407l-127 -416h-145z" />
<glyph unicode="&#xc0;" horiz-adv-x="1222" d="M14 -512l541 2017h184l-172 -641q80 86 189.5 135.5t199.5 49.5q195 0 273 -100.5t78 -246.5q0 -43 -5.5 -81.5t-39 -167.5t-216 -303.5t-397.5 -174.5q-94 0 -164.5 42t-107.5 118l-178 -647h-185zM446 352q0 -117 63.5 -181.5t164.5 -64.5q154 0 261 133.5t139 251 t32 185.5q0 106 -50 174t-153 68q-156 0 -268.5 -112t-150.5 -250t-38 -204z" />
<glyph unicode="&#xc1;" horiz-adv-x="1169" d="M227 258q0 51 15 107l164 612h184l-154 -571q-18 -72 -18 -125q0 -170 186 -170q129 0 216 80.5t128 234.5l150 557h184l-170 -639q-41 -152 -211 -254t-313 -102q-160 0 -260.5 68.5t-100.5 201.5zM293 977h113h184h121l22 86h-418zM995 983h103h184h131l23 86h-418z " />
<glyph unicode="&#xc2;" horiz-adv-x="1044" d="M129 426q0 266 168 444.5t389 178.5l-178 159l-195 -155l-71 69l192 152l-139 131l123 100l145 -135l176 135l64 -75l-162 -132l166 -172q168 -172 216 -283.5t48 -240.5q0 -254 -157.5 -440.5t-364.5 -186.5q-203 0 -311.5 139.5t-108.5 311.5zM309 426 q0 -109 52.5 -218.5t191.5 -109.5q145 0 241.5 149.5t96.5 350.5q0 156 -57.5 242t-163.5 86q-164 0 -262.5 -151.5t-98.5 -348.5z" />
<glyph unicode="&#xc3;" horiz-adv-x="1099" d="M104 217q0 70 48.5 246t227.5 372.5t433 196.5q94 0 192.5 -9t122.5 -9l54 4q-102 -162 -172 -418q-63 -279 -84 -354.5t-21 -106.5q0 -57 58 -57q18 0 34.5 6t20.5 8l-8 -51q-98 -10 -172 -25.5t-152 -44.5q20 78 35.5 130.5t50.5 125.5q-143 -123 -248.5 -189.5 t-222.5 -66.5q-86 0 -141.5 63.5t-55.5 178.5zM295 279q0 -76 35 -118t114 -42q104 0 220 86t147 151l141 541q-45 27 -93 42t-111 15q-170 0 -272.5 -162.5t-141.5 -307t-39 -205.5z" />
<glyph unicode="&#xc4;" horiz-adv-x="1630" d="M119 340q0 291 168 500t403 209q66 0 130.5 -38t97.5 -102l24 115h168l-20 -98l4 -4q59 55 151 91t195 36q98 0 169.5 -57.5t71.5 -176.5q0 -176 -199.5 -274.5t-484.5 -98.5q0 -158 38 -251t177 -93q72 0 138.5 22.5t134.5 59.5l57 -102q-94 -51 -198.5 -77t-202.5 -26 q-127 0 -208 67t-104 196q-90 -106 -198.5 -184.5t-224.5 -78.5q-121 0 -204 103.5t-83 261.5zM295 360q0 -117 45 -181t127 -64q143 0 279.5 169t136.5 429q1 11 1 21q0 63 -51 122q-60 70 -147 70q-164 0 -277.5 -154t-113.5 -412zM1022 553q12 -2 31.5 -3t38.5 -1 q178 0 295.5 71.5t117.5 161.5q0 66 -32.5 105t-90.5 39q-106 0 -217.5 -111.5t-142.5 -261.5z" />
<glyph unicode="&#xc5;" horiz-adv-x="1234" d="M197 358q0 195 74.5 315t136 174t136 94t130 53.5t104.5 13.5l-10 -37q-90 -45 -155.5 -95.5t-118 -169t-72 -212t-19.5 -172.5q0 -66 23 -135.5t69 -95t101 -38.5l154 654q18 70 62 139t92 107t96.5 53.5t91.5 15.5q51 0 92 -16.5t81 -60.5t59 -90t27.5 -91t8.5 -96 q0 -49 -3 -76t-23.5 -102.5t-80 -170t-130 -158t-191.5 -125t-227 -61.5l-117 -434h-129l116 432q-166 33 -272 102.5t-106 282.5zM723 47q80 14 131 30.5t116.5 78t90 97.5t48.5 84t43 126t19 158q0 16 -1 36.5t-8 59.5t-35.5 83t-51 56t-43.5 12q-27 0 -47 -10 t-42.5 -33.5t-51.5 -93t-41 -123.5z" />
<glyph unicode="&#xc6;" horiz-adv-x="1253" d="M358 1434h193l39 -422h547l262 422h229l-919 -1434h-152zM608 868q31 -250 41 -387t10 -268l191 328l203 327h-445z" />
<glyph unicode="&#xc7;" horiz-adv-x="1064" d="M193 354q0 72 39.5 218.5t241.5 301t419 154.5q178 0 232.5 -63.5t74.5 -130.5l-108 -125q-14 76 -59.5 150.5t-194.5 74.5h-13q-133 0 -234.5 -130t-134 -250t-32.5 -198q0 -129 64.5 -208.5t199.5 -79.5q76 0 127 53t51 112q0 39 -26.5 66t-81.5 27 q-90 0 -153.5 -233.5t-63.5 -377.5v-24q2 -2 6 -4l-129 -9q-2 -2 -5 -2t-5 6q-4 9 -5 27q0 158 111 445.5t244 287.5q113 0 167 -43t54 -114q0 -109 -108.5 -212.5t-249.5 -103.5q-193 0 -310.5 105.5t-117.5 279.5z" />
<glyph unicode="&#xc8;" d="M-426 -246q0 78 59 131q49 43 115 43q78 0 126 -54t48 -120q0 -84 -56 -129t-116 -45q-80 0 -128 54t-48 120zM-383 -246q0 -47 33 -86q41 -45 100 -45q45 0 74 24.5t41 52.5t12 54q0 49 -33.5 89t-95.5 40q-49 0 -90 -35t-41 -94z" />
<glyph unicode="&#xc9;" horiz-adv-x="1017" d="M86 12l37 144h596l145 540h-497l39 144h497l123 463h-508l39 143h707l-383 -1434h-795z" />
<glyph unicode="&#xca;" horiz-adv-x="1067" d="M223 348v53q4 31 10.5 89.5t37 193.5t79.5 240.5t90 165t116 134t167 132t197 57.5q100 0 163.5 -59.5t98.5 -128.5q29 -61 38 -127t9 -154q0 -94 -32 -212t-88 -247t-102 -205.5t-136.5 -159.5t-180.5 -120t-160 -37q-72 0 -141.5 35t-107 107.5t-48 126t-10.5 116.5z M410 299q0 -51 7 -91t25.5 -81t45 -63.5t63.5 -22.5q35 0 76 23.5t94 77t102 144.5t68 148l70 213h-492l-45 -213q-2 -6 -8 -51t-6 -84zM496 754h495l39 194q12 61 12 137q0 94 -13 135.5t-48 82t-80 40.5q-37 0 -87 -29.5t-96 -81.5t-90 -132t-69 -152z" />
<glyph unicode="&#xcb;" d="M-535 1376q0 14 5 43h92q14 -68 84.5 -104.5t169.5 -36.5q102 0 190 34t139 107h93q-45 -125 -175.5 -208t-285.5 -83q-141 0 -226.5 68.5t-85.5 179.5z" />
<glyph unicode="&#xcc;" d="M-500 1526q12 49 128 79.5t220 30.5q123 0 219 -34q83 -30 82 -76q0 -7 -2 -15q-8 -35 -160.5 -112.5t-152.5 -141.5l6 -157q-29 -4 -60.5 -6t-58.5 -2q-45 0 -76.5 2t-50.5 6l95 147q2 2 124 105q137 115 137 160q0 26 -59 47q-66 23 -149 22q-27 0 -39 -16.5t-19.5 -41 t-35 -36.5t-64.5 -12q-45 0 -67 14q-18 11 -18 27q0 5 1 10z" />
<glyph unicode="&#xcd;" horiz-adv-x="921" d="M20 0l17 59l860 846h-516l33 119h741l-20 -80l-826 -823h561l-32 -121h-818zM266 98h434q35 0 53.5 17.5t18.5 42.5q0 29 -21.5 52t-52.5 23q-29 0 -59.5 -21.5t-60.5 -70.5q-68 -262 -123.5 -404.5t-135.5 -142.5q-20 0 -32.5 24t-12.5 60q0 162 128 401.5t260 239.5 q145 0 180 -103t43 -210z" />
<glyph unicode="&#xce;" horiz-adv-x="1099" d="M172 0l385 1434h199l-74 -273h160q193 0 296 -72.5t103 -214.5q0 -57 -35 -188t-218 -266t-421 -135h-121l-75 -285h-199zM481 416h117q154 0 260.5 84t135 188.5t28.5 142.5q0 90 -59.5 139.5t-188.5 49.5h-131z" />
<glyph unicode="&#xcf;" horiz-adv-x="561" d="M-25 -127q0 33 19.5 62.5t52.5 44t45 14.5q20 0 35.5 -13.5t30 -33t26.5 -19.5q29 0 62 67.5t60 187.5l59 251q31 131 94 361l80 295q119 449 180 559t98 150t62.5 54.5t45 18.5t36.5 4q29 0 47 -7t40.5 -24.5t22.5 -58.5q0 -18 -8 -39t-40 -47.5t-87 -26.5 q-35 0 -50.5 23.5t-37.5 23.5q-14 0 -28.5 -14t-20.5 -31l-66 -345q-29 -155 -76 -331l-120 -442q-59 -213 -120 -361.5t-102 -221t-59 -97t-38.5 -42t-68 -36t-81.5 -18.5q-29 0 -48.5 11t-32 34.5t-12.5 46.5z" />
<glyph unicode="&#xd1;" horiz-adv-x="1251" d="M182 649v135h1032v-555h-135v420h-897z" />
<glyph unicode="&#xd2;" horiz-adv-x="487" d="M111 684l268 166l176 655h184l-139 -520l199 123l35 -80l-267 -162l-231 -866h-184l196 731l-207 -125z" />
<glyph unicode="&#xd3;" horiz-adv-x="1198" d="M158 0l140 493l145 515q46 170 50.5 218t164 127t382.5 79q104 0 187.5 -57.5t146.5 -114.5l-96 -123q-37 49 -99.5 98t-195.5 49q-178 0 -269 -86t-124 -201l-17 -100q90 74 197 113t195 39q281 0 280 -240q0 -63 -22 -150l-176 -659h-185l166 621q18 72 19 124 q0 168 -187 168q-119 0 -220 -76.5t-138 -220.5l-166 -616h-178z" />
<glyph unicode="&#xd4;" horiz-adv-x="243" d="M-117 -428l11 45q41 6 55 26.5t28.5 49t32.5 94.5l148 553h92l-148 -549q-31 -121 -89 -170t-130 -49zM188 492q0 12 3.5 24t25 29.5t48 17.5t36.5 -16q7 -12 7 -26q0 -6 -1 -11q-8 -27 -24.5 -45.5t-49.5 -18.5q-45 1 -45 46z" />
<glyph unicode="&#xd5;" horiz-adv-x="1024" d="M201 147q0 23 8 38.5t35 35.5l307 246l-281 473h144l237 -420l451 420h141l-524 -477l190 -260q14 -16 15 -37q0 -66 -134.5 -116t-277.5 -50q-123 0 -217 44t-94 103zM371 197q0 -35 55 -54.5t119 -19.5q88 0 161.5 21.5t73.5 64.5q0 12 -8 27l-143 198l-213 -170 q-45 -36 -45 -67z" />
<glyph unicode="&#xd6;" horiz-adv-x="798" d="M-80 -512l19 90q68 12 95 60.5t51 115t42 164.5l207 1106h166l-205 -1098q-45 -238 -146.5 -338t-228.5 -100zM287 1337q0 41 31.5 75t84.5 34q47 6 112 10t140 4q205 0 350.5 -48t145.5 -177l-227 51q-266 80 -346 80q-57 0 -58 -29q0 -47 -27.5 -86t-89 -39t-89 37 t-27.5 88z" />
<glyph unicode="&#xd7;" />
<glyph unicode="&#xfd;" />
<glyph unicode="&#xd8;" horiz-adv-x="1517" d="M59 -16l240 245q-51 82 -75.5 182.5t-24.5 186.5q0 313 208.5 586.5t577.5 273.5q115 0 205 -38t162 -111l194 198l78 -69l-205 -211q102 -150 103 -355q0 -342 -197 -619.5t-549 -277.5q-137 0 -240.5 45.5t-172.5 120.5l-226 -231zM395 664q0 -92 10.5 -160t36.5 -129 l789 809q-100 131 -270 131q-297 0 -431.5 -221t-134.5 -430zM492 274q104 -156 301 -155q274 0 403 230.5t129 514.5q0 131 -41 223z" />
<glyph unicode="&#xd9;" horiz-adv-x="1075" d="M240 614l608 615l326 -615l-656 -614zM330 614l223 -491l524 491l-260 492z" />
<glyph unicode="&#xda;" d="M-551 1311q0 8 7 35.5t47 60.5t79 33q35 0 57.5 -22.5t22.5 -57.5q0 -16 -7 -41t-47 -57.5t-81 -32.5q-33 0 -55.5 23.5t-22.5 58.5zM-139 1311q0 8 7 35.5t47 60.5t79 33q35 0 57.5 -22.5t22.5 -57.5q0 -16 -7.5 -41t-47 -57.5t-80.5 -32.5q-33 0 -55.5 23.5t-22.5 58.5 z" />
<glyph unicode="&#xdb;" horiz-adv-x="1460" d="M174 -68l133 160q-35 45 -63.5 98.5t-34.5 90t-6 71.5q0 82 30.5 171t114.5 195.5t217 173t226 66.5h237l150 179l79 -52l-106 -127h139l-28 -110h-203l-262 -313h381l-31 -111h-442l-240 -289q16 -14 40.5 -19t55.5 -5h502l-29 -111h-522q-35 0 -72 11.5t-55 27.5 l-135 -158zM319 381q0 -115 72 -188l193 231h-262q-3 -14 -3 -43zM348 535h326l266 317h-190q-53 0 -116 -28.5t-122 -75t-102.5 -101.5t-61.5 -112z" />
<glyph unicode="&#xdc;" d="M-883 1595q0 12 4.5 35t39 55.5t69.5 32.5t55.5 -24.5t20.5 -61.5q0 -12 -6.5 -37.5t-38 -55.5t-70.5 -30q-33 0 -53.5 24.5t-20.5 61.5zM-397 1595q0 12 4 35t39 55.5t69 32.5q33 0 54.5 -23.5t21.5 -60.5q0 -12 -5 -37.5t-38 -56.5t-72 -31q-31 0 -52 25.5t-21 60.5z " />
<glyph unicode="&#xdd;" horiz-adv-x="1062" d="M272 1430l201 24l93 -349l85 -347l142 215l173 255l156 226l144 -53l-564 -774l-116 -627h-178l116 627zM774 1649l328 260l60 44q28 19 61 19q14 0 28 -22q11 -18 11 -33q0 -33 -39 -66q-33 -27 -56 -41l-346 -229z" />
<glyph unicode="&#xdf;" horiz-adv-x="1234" d="M184 385q0 35 8.5 103.5t49.5 142.5t103.5 143.5t143 115.5t148.5 72.5t149.5 44t161.5 17.5h531l-47 -176h-445q72 -29 140.5 -124t76.5 -151.5t8 -74.5q0 -49 -16 -104.5t-62.5 -132.5t-159 -171t-209.5 -109.5t-132 -19.5t-68 -4q-57 0 -110.5 13.5t-100.5 49.5 q-92 66 -131 165.5t-39 199.5zM389 356q0 -82 24.5 -147.5t60.5 -101t65.5 -52t79.5 -16.5q43 0 100 16.5t109.5 67.5t92.5 116.5t65.5 153.5t25.5 160v25q-4 16 -13.5 80.5t-119.5 189.5h-35q-72 0 -133.5 -14.5t-137 -69.5t-118.5 -143.5t-54.5 -150t-11.5 -114.5z" />
<glyph unicode="&#xe0;" horiz-adv-x="1003" d="M16 68l170 -50l181 273l190 292l164 267q2 -225 40 -455l62 -377l172 37l-174 1008h-114z" />
<glyph unicode="&#xe1;" d="M-459 1528l62 57q88 -127 268 -216t381 -89q195 0 374 83t296 220l67 -67q-123 -168 -305 -270.5t-432 -102.5q-221 0 -402.5 99.5t-308.5 285.5z" />
<glyph unicode="&#xe2;" horiz-adv-x="1175" d="M57 55h1088l22 80h-1087zM279 764l28 110l1172 480l-35 -131l-977 -404l760 -403l-35 -131z" />
<glyph unicode="&#xe3;" d="M-352 1092l43 327h180l-133 -327h-90z" />
<glyph unicode="&#xe4;" horiz-adv-x="1175" d="M57 55h1088l22 80h-1087zM133 242l35 131l977 403l-762 404l35 131l915 -480l-30 -110z" />
<glyph unicode="&#xe5;" horiz-adv-x="1292" d="M180 285q0 70 17.5 145.5t63.5 187t117 194.5t157 132t149.5 64.5t122.5 15.5q12 0 28.5 -2t54.5 -8t83 -48t67.5 -111t22.5 -157q0 -16 -2 -35.5t-2 -29.5l229 364h180l-407 -647q-2 -16 -3 -34.5t-1 -26.5q0 -86 23.5 -117t39 -43t37.5 -12q31 0 68 28.5t61 75.5 q20 49 27 62h37l-37 -121q-12 -41 -43 -87t-75 -76t-77 -30q-37 0 -71.5 46t-55.5 241q-100 -121 -152.5 -171t-134 -74.5t-131 -35t-86.5 -10.5q-82 0 -169 45t-106 106.5t-25.5 98.5t-6.5 70zM389 270q0 -76 4 -107.5t40 -79.5t102 -48q29 0 64.5 13t72.5 39t90 89.5 t88 114.5l106 168q8 61 13.5 115.5t5.5 109.5q0 47 -2 68.5t-15.5 58.5t-43 70.5t-70.5 48t-78 14.5q-39 0 -68.5 -17.5t-72.5 -58.5t-84 -108.5t-73 -147.5t-51.5 -167t-27.5 -175z" />
<glyph unicode="&#xe6;" horiz-adv-x="1650" d="M145 188q0 51 24 140.5t144.5 177.5t302.5 139l273 78q6 25 6 45q0 72 -46 116t-114 44q-84 0 -146.5 -25.5t-148.5 -85.5l-47 92q96 74 188.5 107t198.5 33q102 0 177 -30t114 -114q74 68 177.5 106t205.5 38q154 0 225.5 -85t71.5 -227q0 -59 -9 -113.5t-32 -123.5 h-690q-18 -66 -19 -123q0 -119 67 -195t185 -76q76 0 156 24t147 65l27 -101q-199 -119 -371 -119q-184 0 -283.5 85t-109.5 173l-162 -122q-78 -59 -152.5 -97.5t-139.5 -38.5q-104 0 -162 55.5t-58 157.5zM342 238q0 -53 30.5 -86t78.5 -33q115 0 240.5 128t164.5 353 l-190 -51q-137 -39 -213 -98.5t-90.5 -110.5t-17.5 -70.5t-3 -31.5zM1057 623h510q18 66 18 120q0 80 -41 127.5t-127 47.5q-133 0 -227 -89t-133 -206z" />
<glyph unicode="&#xe7;" d="M-772 -430l67 86h36q19 0 42 -2q96 0 137 20.5t52 59.5q2 9 2 16q0 30 -39 45q-49 18 -150 19l156 225h107l-93 -137q70 0 125.5 -30t55.5 -95q0 -16 -11.5 -58.5t-97.5 -98.5t-268 -56q-55 0 -121 6z" />
<glyph unicode="&#xe8;" d="M-1102 479h1032v135h-1032v-135z" />
<glyph unicode="&#xe9;" d="M-788 -272q4 8 15 52t89 83t160 39l-19 137h107l37 -225q-102 0 -160.5 -17.5t-71.5 -62.5q-3 -10 -2 -19q0 -32 34 -45q44 -16 116 -16q23 0 42 1t35 1l23 -86q-72 -6 -127 -6q-156 0 -217 44t-61 101v19z" />
<glyph unicode="&#xea;" horiz-adv-x="487" d="M-6 621h158v403h184v-403h149v-111h-149v-510h-184v510h-152z" />
<glyph unicode="&#xeb;" d="M-926 1743q0 76 68 76q23 0 52.5 -17.5t64.5 -46.5l272 -219l-63 -76l-308 193q-37 25 -61.5 46t-24.5 44z" />
<glyph unicode="&#xec;" horiz-adv-x="487" d="M152 0l274 1024h184l-274 -1024h-184zM211 1386q23 76 88 76q23 0 50.5 -19.5t49.5 -43.5l213 -219l-84 -76l-254 192q-33 25 -51 45q-14 15 -14 33q0 6 2 12z" />
<glyph unicode="&#xed;" horiz-adv-x="487" d="M152 0l274 1024h184l-274 -1024h-184zM381 1171l268 211q41 27 73 45.5t69 18.5q18 0 30 -23q8 -15 8 -28q0 -7 -2 -13q-6 -23 -24.5 -40t-83.5 -58l-287 -180z" />
<glyph unicode="&#xee;" horiz-adv-x="487" d="M152 0l274 1024h184l-274 -1024h-184zM336 1104l242 311h67l74 -311h-90l-49 199l-154 -199h-90z" />
<glyph unicode="&#xef;" horiz-adv-x="487" d="M152 0l274 1024h184l-274 -1024h-184zM270 1231q0 16 6.5 39.5t47.5 56.5t79 33q35 0 57.5 -22.5t22.5 -57.5q0 -8 -7 -38t-47 -61.5t-83 -31.5q-35 0 -55.5 22.5t-20.5 59.5zM682 1231q0 16 6 39.5t47 56.5t80 33q35 0 57.5 -22.5t22.5 -57.5q0 -8 -7 -38t-47 -61.5 t-83 -31.5q-35 0 -55.5 22.5t-20.5 59.5z" />
<glyph unicode="&#xf1;" horiz-adv-x="1138" d="M125 0l192 1024h160l-51 -246l4 -4q86 119 192.5 197t270.5 78q90 0 155.5 -58.5t65.5 -150.5q0 -39 -4 -71t-23 -122l-129 -647h-165l129 625q8 31 14 75.5t6 85.5q0 127 -143 127q-127 0 -264.5 -158.5t-174.5 -361.5l-71 -393h-164zM233 1225q61 94 125 145t156 51 q49 0 96 -14t118 -43t127 -48.5t89 -19.5q59 0 97 32t81 97l86 -71q-61 -92 -117.5 -139.5t-142.5 -47.5q-51 0 -94 14.5t-115 49.5q-76 33 -121 47t-108.5 14t-104 -36.5t-88.5 -106.5z" />
<glyph unicode="&#xf2;" horiz-adv-x="1669" d="M133 426q0 244 152.5 433.5t400.5 189.5q117 0 205 -62.5t139 -175.5q90 111 207 174.5t252 63.5q98 0 170 -57.5t72 -176.5q0 -176 -200 -274.5t-484 -98.5q0 -158 37.5 -251t177.5 -93q72 0 138 22.5t134 59.5l57 -102q-94 -51 -198.5 -77t-202.5 -26q-100 0 -176 54.5 t-103 130.5q-76 -84 -160.5 -134.5t-201.5 -50.5q-203 0 -309.5 138.5t-106.5 312.5zM309 426q0 -109 52.5 -218.5t191.5 -109.5q145 0 241.5 149.5t96.5 350.5q0 156 -57.5 242t-163.5 86q-164 0 -262.5 -151.5t-98.5 -348.5zM1071 553q12 -2 31.5 -3t38.5 -1 q178 0 295.5 71.5t117.5 161.5q0 66 -32.5 105t-89.5 39q-106 0 -218 -111.5t-143 -261.5z" />
<glyph unicode="&#xf3;" horiz-adv-x="1370" d="M66 420q0 244 152.5 433t399.5 189q160 0 270.5 -122.5t110.5 -323.5q0 -250 -148.5 -438.5t-369.5 -188.5q-203 0 -309 138.5t-106 312.5zM242 420q0 -109 52 -218.5t191 -109.5q145 0 241.5 149.5t96.5 350.5q0 156 -57 242t-164 86q-164 0 -262 -151.5t-98 -348.5z M879 711l378 260q41 27 73 45t69 18q18 0 31 -22q8 -15 8 -29q0 -7 -2 -12q-6 -23 -24.5 -40.5t-84.5 -58.5l-397 -229z" />
<glyph unicode="&#xf4;" horiz-adv-x="909" d="M111 -2l28 113h295q106 0 202.5 215t96.5 397q0 68 -17.5 105.5t-56.5 37.5q-90 0 -137 -24.5t-78 -48.5h-213q109 82 241 163.5t255 81.5q104 0 169 -118.5t65 -235.5q0 -39 -11 -75l-26 -91q-16 -55 -45 -120.5t-79 -139.5t-98 -135h170l-26 -123l-324 -2h-411z" />
<glyph unicode="&#xf5;" horiz-adv-x="655" d="M371 1092q0 29 4 49t19.5 78.5t108.5 138.5t228 80q80 0 127 -41l-45 -54q-20 10 -46 18.5t-54 8.5q-70 0 -137.5 -49t-85 -117.5t-17.5 -101.5q0 -59 33 -96t100 -37q61 0 135 37l11 -52q-90 -53 -168 -53q-119 0 -166 56.5t-47 134.5z" />
<glyph unicode="&#xf6;" horiz-adv-x="1413" d="M18 -410l84 121q74 -49 159 -70.5t183 -21.5q162 0 279 102.5t170 301.5l37 139q-88 -86 -184.5 -136.5t-210.5 -50.5q-164 0 -252 94.5t-88 256.5q0 88 42 247.5t221 317.5t394 158q96 0 171 -44t95 -122l86 305q68 25 161 48.5t196 23.5q92 0 137 -80t45 -162 q0 -35 -6 -43t-13 -2q-76 74 -135 104.5t-110 30.5q-59 0 -88 -26.5t-45 -57.5l-265 -987q-74 -274 -258 -411.5t-409 -137.5q-125 0 -223.5 23.5t-172.5 78.5zM399 356q0 -113 49.5 -181.5t149.5 -68.5q158 0 271.5 126t147.5 253t34 189q0 111 -55.5 177.5t-168.5 66.5 q-152 0 -254 -105.5t-138 -239t-36 -217.5z" />
<glyph unicode="&#xf7;" horiz-adv-x="1019" d="M258 4l186 111l115 428q16 59 135 153l239 189q120 94 130 143t10 64q0 61 -54 90.5t-194 29.5q-215 0 -309 -71.5t-147 -147.5l16 107q70 104 185.5 168.5t287.5 64.5q205 0 286 -62.5t81 -156.5q0 -33 -4 -48t-14.5 -63.5t-165.5 -183.5l-316 -276l-119 -428l135 -111 h-483z" />
<glyph unicode="&#xf8;" horiz-adv-x="985" d="M92 94l80 103q94 -74 229 -74q174 0 297 119.5t157 241.5t34 186q0 127 -80 191.5t-195 64.5q-68 0 -122 -16.5t-103 -37.5l-33 105q66 41 141.5 62.5t155.5 21.5q219 0 324.5 -109.5t105.5 -275.5q0 -76 -23.5 -164t-98 -211t-220 -218t-368.5 -95q-72 0 -146 25.5 t-135 80.5z" />
<glyph unicode="&#xf9;" d="M-858 1364v68h225v225h68v-225h223v-68h-223v-225h-68v225h-225z" />
<glyph unicode="&#xfa;" horiz-adv-x="1376" d="M102 193q0 88 21 184l129 647h166l-129 -625q-18 -74 -19 -161q0 -127 144 -127q119 0 253 181t171 384l63 348h164l-193 -1024h-159l69 311l-4 4q-59 -158 -193 -249t-274 -91q-90 0 -149.5 62t-59.5 156zM842 711l379 260q41 27 72.5 45t68.5 18q18 0 31 -22 q8 -15 8 -29q0 -7 -2 -12q-6 -23 -24.5 -40.5t-84.5 -58.5l-397 -229z" />
<glyph unicode="&#xfb;" horiz-adv-x="489" d="M-80 -512l19 90q68 12 95 60.5t51 115t42 164.5l207 1106h166l-205 -1098q-45 -238 -146.5 -338t-228.5 -100zM23 1475h180l203 -199l202 199h183l-318 -312h-133z" />
<glyph unicode="&#xfc;" d="M-653 1499l309 260q47 39 71.5 51.5t51.5 12.5q16 0 35.5 -21.5t19.5 -42.5q0 -27 -20.5 -48t-63.5 -50l-336 -229z" />
<glyph unicode="&#xff;" horiz-adv-x="2048" d="M57 424l23 127h2070l-22 -127h-2071z" />
<glyph unicode="&#x152;" horiz-adv-x="1404" d="M283 963l10 36q41 14 72.5 20.5t54 6.5t65.5 -7t81 -54t44 -87t6 -57q0 -45 -13 -123l-21 -129l-45 -286q-4 -37 -5 -50q0 -80 43 -126t103 -62l254 952h129l-254 -952q82 18 155.5 74.5t112.5 163.5l107 286l63 170q33 78 67 127t99.5 97.5t112.5 55.5t65 7 q31 0 52.5 -4t62.5 -23l-10 -36q-88 -18 -130 -38t-73 -104l-148 -407q-25 -66 -92 -155t-145 -152.5t-135.5 -86t-186.5 -55.5l-114 -432h-129l114 432q-113 33 -156.5 55.5t-104 110.5t-60.5 231q0 18 4 52l70 407q4 25 4 35q0 49 -22.5 69t-106.5 38z" />
<glyph unicode="&#x153;" horiz-adv-x="1138" d="M125 0l192 1024h160l-51 -246l4 -4q86 119 192.5 197t270.5 78q90 0 155.5 -58.5t65.5 -150.5q0 -39 -4 -71t-23 -122l-129 -647l-331 -340q-51 -53 -76 -53q-18 0 -43 22.5t-25 36.5q0 25 44 69l59 58l207 207l129 625q8 31 14 75.5t6 85.5q0 127 -143 127 q-127 0 -264.5 -158.5t-174.5 -361.5l-71 -393h-164z" />
<glyph unicode="&#x178;" horiz-adv-x="6" d="M-983 1575q61 94 124.5 145.5t156.5 51.5q49 0 96 -14.5t117.5 -43t127 -48t89.5 -19.5q59 0 97 31.5t81 97.5l86 -72q-61 -92 -117.5 -139t-142.5 -47q-51 0 -94.5 14t-114.5 49q-76 33 -121 47t-108.5 14t-104.5 -36.5t-88 -106.5z" />
<glyph unicode="&#x2c6;" d="M-809 1098l317 311h134l317 -311h-182l-203 198l-203 -198h-180z" />
<glyph unicode="&#x2dc;" horiz-adv-x="569" d="M-395 461q0 37 4 68.5t30.5 132t120 194.5t205 159.5t244.5 65.5h485l-28 -110h-486q-70 0 -129 -21.5t-120.5 -67.5t-101.5 -98.5t-75 -126.5h828l-31 -110h-827q0 -84 10 -131t63 -115t185 -68h485l-29 -110h-485q-135 0 -211 65.5t-100.5 118.5t-30.5 87t-6 67z" />
<glyph unicode="&#x2013;" d="M-1016 -123v-135h1032v135h-1032z" />
<glyph unicode="&#x2014;" d="M-915 1143h1032v135h-1032v-135z" />
<glyph unicode="&#x2018;" horiz-adv-x="569" d="M70 1458q-1 7 -1 14q0 58 48 58q82 0 182 -201l176 -352l-90 -43l-246 354q-69 102 -69 170z" />
<glyph unicode="&#x2019;" horiz-adv-x="569" d="M326 952l176 353q100 201 182 200q48 0 48 -57q0 -7 -1 -14q0 -33 -17.5 -77t-51.5 -93l-246 -355z" />
<glyph unicode="&#x201a;" horiz-adv-x="587" d="M344 1096q0 70 31 183.5t125 224t215 110.5q88 0 130 -61.5t42 -159.5q0 -70 -33 -190t-130 -225.5t-208 -105.5q-80 0 -126 59t-46 165zM446 1077q0 -133 91 -133q139 0 194 203t55 268q0 127 -90 127q-66 0 -124 -73.5t-92 -197.5t-34 -194z" />
<glyph unicode="&#x201c;" horiz-adv-x="1024" d="M141 1409q-1 7 0 14q0 58 47 58q82 0 183 -201l176 -352l-90 -43l-246 354q-70 102 -70 170zM504 1409q-1 7 -1 14q0 58 48 58q82 0 182 -201l176 -352l-90 -43l-246 354q-69 102 -69 170z" />
<glyph unicode="&#x201d;" horiz-adv-x="1024" d="M338 952l176 353q100 201 182 200q48 0 48 -57q0 -7 -1 -14q0 -33 -17 -77t-52 -93l-246 -355zM700 952l177 353q100 201 182 200q48 0 48 -57q0 -7 -1 -14q0 -33 -17.5 -77t-52.5 -93l-245 -355z" />
<glyph unicode="&#x201e;" horiz-adv-x="6" d="M-956 -262q90 96 163.5 146t167.5 50q49 0 94.5 -15t109 -44t112.5 -47t82 -18q45 0 91 24.5t122 104.5l67 -72q-113 -117 -177 -151.5t-134 -34.5q-53 0 -91 14t-100 49q-70 35 -108.5 48t-104.5 13q-63 0 -116 -37.5t-115 -105.5z" />
<glyph unicode="&#x2022;" horiz-adv-x="1024" d="M246 716.5q0 151.5 103.5 255t254.5 103.5q150 0 254.5 -104.5t104.5 -254t-104.5 -254t-254.5 -104.5q-152 0 -255 103.5t-103 255z" />
<glyph unicode="&#x2026;" horiz-adv-x="2048" d="M221 80q0 57 44 107.5t100 50.5q43 0 68.5 -34t25.5 -73q0 -61 -45 -108.5t-97 -47.5q-43 0 -69.5 33t-26.5 72zM903 80q0 57 44 107.5t100 50.5q43 0 68.5 -34t25.5 -73q0 -61 -45 -108.5t-97 -47.5q-43 0 -69.5 33t-26.5 72zM1585 80q0 57 44 107.5t100 50.5 q43 0 68.5 -34t25.5 -73q0 -61 -45 -108.5t-97 -47.5q-43 0 -69.5 33t-26.5 72z" />
<glyph unicode="&#x2039;" horiz-adv-x="587" d="M322 926l45 63q18 -14 55 -23.5t80 -9.5q68 0 121 40t64 83t11 60q0 53 -44 79.5t-105 26.5h-49l16 60q84 0 148.5 36.5t77 82.5t12.5 61q0 37 -27 53t-61 16q-37 0 -79 -12t-73 -31l-14 60q106 55 198 55q59 0 108.5 -24.5t49.5 -94.5q0 -20 -10 -64t-66.5 -90 t-103.5 -63q49 -12 89 -41.5t40 -97.5q0 -20 -13.5 -76.5t-101.5 -123t-205 -66.5q-57 0 -94.5 11.5t-68.5 29.5z" />
<glyph unicode="&#x203a;" horiz-adv-x="796" d="M84 127q-4 4 -4 17q0 31 24 113q35 116 201 116h31q80 -6 116.5 -73t36.5 -169q0 -139 -54 -291.5t-93 -152.5q-8 0 -14 9t-6 36q0 33 20 192q20 158 20 205q0 88 -35.5 104.5t-64.5 16.5t-46 -13.5t-21 -27.5q-3 -10 -3 -18q0 -39 54 -60q66 -25 143 -25q72 0 133.5 37 t73.5 85t12 69q0 66 -60 120l-107 95q-46 41 -87 84t-41 121q0 27 20.5 105.5t140.5 152.5t259 74q74 0 135.5 -26t92.5 -69l-97 -94q-45 35 -86 50.5t-86 15.5q-61 0 -112.5 -28t-61.5 -69t-10 -47q0 -49 56 -100l114 -105q57 -54 92 -109.5t35 -125.5q0 -31 -10 -78 q-35 -127 -162 -208t-275 -81q-61 0 -136 44.5t-138 107.5z" />
<glyph unicode="&#x2122;" horiz-adv-x="1185" d="M193 414q88 94 164.5 145t168.5 51q49 0 94.5 -15t109 -44t112.5 -47.5t82 -18.5q45 0 92 25t119 104l67 -71q-88 -92 -155.5 -139.5t-153.5 -47.5q-53 0 -90 14.5t-103.5 49.5t-106.5 48t-106 13q-63 0 -113 -35.5t-118 -107.5zM340 918q88 94 165 145t169 51 q49 0 94 -15.5t117 -45.5q53 -27 101 -45.5t83 -18.5q47 0 94 24.5t119 104.5l68 -71q-88 -92 -156 -139.5t-154 -47.5q-53 0 -90 14.5t-103.5 49t-106.5 48t-105 13.5q-63 0 -113.5 -36t-118.5 -107z" />
<glyph unicode="&#xe000;" horiz-adv-x="1045" d="M0 1045h1045v-1045h-1045v1045z" />
<glyph unicode="&#xfb01;" horiz-adv-x="1030" d="M143 0l172 915h-147l20 109h148l22 125q35 197 129.5 276.5t206.5 79.5q35 0 72 -12t63 -31l-53 -94q-20 6 -36.5 10t-49.5 4q-61 0 -99 -44t-54 -130l-35 -184h221l-21 -109h-221l-172 -915h-166zM694 0l193 1024h166l-193 -1024h-166zM922 1333q0 57 39.5 97t89.5 40 q45 0 66.5 -28.5t21.5 -59.5q0 -49 -38 -97t-93 -48q-53 0 -69.5 29.5t-16.5 66.5z" />
<glyph unicode="&#xfb02;" horiz-adv-x="1030" d="M143 0l172 915h-147l20 109h148l22 125q35 197 129.5 276.5t206.5 79.5q35 0 72 -12t63 -31l-53 -94q-20 6 -36.5 10t-49.5 4q-61 0 -99 -44t-54 -130l-35 -184h221l-21 -109h-221l-172 -915h-166zM694 0l283 1505h166l-283 -1505h-166z" />
<glyph unicode="&#xfb03;" horiz-adv-x="1599" d="M143 0l172 915h-147l20 109h148l22 125q35 197 129.5 276.5t206.5 79.5q35 0 72 -12t63 -31l-53 -94q-20 6 -36.5 10t-49.5 4q-61 0 -99 -44t-54 -130l-35 -184h221l-21 -109h-221l-172 -915h-166zM713 0l172 915h-148l21 109h147l23 125q35 197 129 276.5t207 79.5 q35 0 71.5 -12t63.5 -31l-53 -94q-20 6 -37 10t-49 4q-61 0 -99.5 -44t-54.5 -130l-35 -184h221l-20 -109h-221l-172 -915h-166zM1264 0l192 1024h166l-192 -1024h-166zM1491 1333q0 57 40 97t89 40q45 0 66.5 -28.5t21.5 -59.5q0 -49 -38 -97t-93 -48q-53 0 -69.5 29.5 t-16.5 66.5z" />
<glyph unicode="&#xfb04;" horiz-adv-x="1599" d="M143 0l172 915h-147l20 109h148l22 125q35 197 129.5 276.5t206.5 79.5q35 0 72 -12t63 -31l-53 -94q-20 6 -36.5 10t-49.5 4q-61 0 -99 -44t-54 -130l-35 -184h221l-21 -109h-221l-172 -915h-166zM713 0l172 915h-148l21 109h147l23 125q35 197 129 276.5t207 79.5 q35 0 71.5 -12t63.5 -31l-53 -94q-20 6 -37 10t-49 4q-61 0 -99.5 -44t-54.5 -130l-35 -184h221l-20 -109h-221l-172 -915h-166zM1264 0l282 1505h166l-282 -1505h-166z" />
</font>
</defs>
</svg>
