<?xml version="1.0" standalone="no"?>
<!DOCTYPE svg PUBLIC "-//W3C//DTD SVG 1.1//EN" "http://www.w3.org/Graphics/SVG/1.1/DTD/svg11.dtd" >
<svg xmlns="http://www.w3.org/2000/svg">
<metadata>
This is a custom SVG webfont generated by Font Squirrel.
Copyright   : Copyright c Alexey Kryukov 20072008 All rights reserved
Designer    : Alexey Kryukov
Foundry URL : httpwwwthessalonicaorgru
</metadata>
<defs>
<font id="webfontsdAWHfru" horiz-adv-x="1150" >
<font-face units-per-em="2048" ascent="1579" descent="-469" />
<missing-glyph horiz-adv-x="526" />
<glyph unicode=" "  horiz-adv-x="526" />
<glyph unicode="&#x09;" horiz-adv-x="526" />
<glyph unicode="&#xa0;" horiz-adv-x="526" />
<glyph unicode="!" horiz-adv-x="526" d="M119 1329q0 72 37 115q39 45 108 45q68 0 107 -45t39 -115q0 -102 -31 -250q-29 -127 -43 -278l-43 -406h-57l-43 406q-14 152 -43 278q-31 148 -31 250zM135 104q0 53 37 90t92 37q53 0 90 -36.5t37 -90.5q0 -55 -37 -92t-90 -37q-55 0 -92 37t-37 92z" />
<glyph unicode="&#x22;" horiz-adv-x="878" d="M545 1382q0 45 24.5 76t69.5 31t69.5 -31t24.5 -76q0 -20 -10 -112l-55 -447h-57l-56 447q-10 92 -10 112zM170 1382q0 45 24.5 76t69.5 31t69.5 -31t24.5 -76q0 -20 -10 -112l-55 -447h-57l-56 447q-10 92 -10 112z" />
<glyph unicode="#" d="M61 430v96h215l84 408h-299v96h318l92 459h88l-92 -459h334l94 459h86l-92 -459h201v-96h-220l-84 -408h304v-96h-322l-88 -430h-88l88 430h-336l-86 -430h-88l86 430h-195zM365 526h333l84 408h-333z" />
<glyph unicode="$" d="M104 328q0 74 43 125t105 51q45 0 72 -29q29 -33 28 -69q0 -66 -71 -109q-53 -29 -54 -68q0 -66 66 -112q63 -45 164 -68v653q-51 20 -127 64q-49 27 -103 74q-49 43 -73 98q-27 59 -27 125q0 141 94 254t236 151v111h71v-94q37 4 68 4t68 -4v94h71v-109 q127 -31 203 -112q78 -84 78 -178q0 -59 -35 -100.5t-86 -41.5q-49 0 -82 29q-29 27 -29 72q0 31 15 53q20 31 32 41q20 16 23 18q6 6 12 18.5t6 22.5q0 27 -38 60q-37 31 -99 49v-582q88 -37 139 -69q58 -37 105 -86q49 -53 70 -117q23 -72 22 -152q0 -145 -94 -252 q-94 -104 -242 -149v-162h-71v145q-43 -6 -74 -6q-35 0 -62 2v-141h-71v152q-154 27 -254 118q-99 91 -99 226zM264 1157q0 -72 51 -127q51 -53 142 -96v467q-86 -31 -139.5 -96.5t-53.5 -147.5zM528 39q20 -2 58 -2q45 0 78 6v578l-136 53v-635zM528 901l136 -51v567 q-37 6 -74 6q-39 0 -62 -4v-518zM735 61q96 35 156 109q57 72 57 174q0 84 -53 139q-55 58 -160 105v-527z" />
<glyph unicode="%" horiz-adv-x="1538" d="M80 1130q0 86 35 173q31 78 100 133q66 53 147 53q80 0 146 -53q70 -55 100 -133q35 -86 35 -173q0 -88 -35 -174q-31 -78 -100 -133q-63 -51 -146 -51q-84 0 -147 51q-70 55 -100 133q-35 86 -35 174zM213 1130.5q0 -38.5 8 -104.5q8 -57 21 -100q14 -47 47 -80 q31 -31 74 -31t73 31q29 29 45 80q16 53 23 100q6 49 6 104.5t-6 104.5q-6 43 -23 98q-16 51 -45 80q-31 31 -74 31t-73 -31q-33 -33 -47 -80q-14 -43 -21 -98q-8 -66 -8 -104.5zM279 -16l884 1493h99l-887 -1493h-96zM897 330q0 88 35 174q31 78 100 133q63 51 145.5 51 t145.5 -51q72 -57 102 -133q35 -86 35 -174q0 -86 -35 -172q-33 -78 -102 -135q-63 -51 -145 -51.5t-146 51.5q-68 55 -100 135q-35 86 -35 172zM1030 329.5q0 -55.5 6 -104.5q6 -43 23 -98q16 -53 45 -82t74 -29t73 29q31 31 47 82q14 43 21 98q6 49 6 104.5t-6 104.5 q-8 57 -21 101q-14 47 -47 79q-29 29 -73.5 29t-73.5 -28.5t-45 -79.5q-16 -53 -23 -101q-6 -49 -6 -104.5z" />
<glyph unicode="&#x26;" horiz-adv-x="1538" d="M147 328q0 45 15 102q12 51 31 90q16 37 53 80q31 37 65 68q47 43 76 63q53 39 82 57l86 54q-47 102 -63 170q-20 88 -21 182q0 127 76 213q74 84 176 84q59 0 106 -25q49 -27 74 -61q29 -43 41 -86q14 -53 14 -94q0 -80 -28 -144q-27 -59 -72 -104q-33 -33 -123 -94 l285 -559q123 180 123 385q0 41 -24.5 71.5t-71.5 30.5h-103v63h504v-63h-107q-49 0 -84 -35q-31 -31 -40 -90q-39 -244 -166 -422q47 -84 88 -131q43 -49 88 -49q49 0 90 41q35 35 59 106q20 63 31 125q9 58 12 117h66q-6 -95 -25 -178q-20 -88 -51 -160 q-33 -74 -96.5 -119t-143.5 -45q-138 0 -233 166q-68 -72 -170 -119q-100 -47 -207 -47q-86 0 -153 21q-71 22 -130 61q-59 41 -94 113q-35 74 -35 162zM373 373q0 -145 61 -240q63 -96 174 -96q150 0 293 143l-315 600q-106 -76 -159.5 -170t-53.5 -237zM590 1303 q0 -84 28 -166q25 -70 91 -199l51 39q12 10 40.5 38.5t39 47t20.5 55.5t10 70q0 113 -41 176q-40 61 -116 61q-49 0 -86 -36.5t-37 -85.5z" />
<glyph unicode="'" horiz-adv-x="526" d="M170 1382q0 45 24.5 76t69.5 31t69.5 -31t24.5 -76q0 -20 -10 -112l-55 -447h-57l-56 447q-10 92 -10 112z" />
<glyph unicode="(" horiz-adv-x="778" d="M143 465q0 580 543 1024l39 -43q-223 -217 -317.5 -442.5t-94.5 -538.5t95 -539q92 -221 317 -440l-39 -45q-109 90 -166 149q-80 84 -145 174q-76 106 -121 201q-49 104 -80 233.5t-31 266.5z" />
<glyph unicode=")" horiz-adv-x="778" d="M53 -516q229 223 320 440q94 225 94 541q0 313 -94 539q-90 217 -320 440l41 45q98 -82 164 -150q88 -92 148 -174q74 -102 120 -202q49 -106 80 -232q31 -129 31 -266q0 -580 -543 -1024z" />
<glyph unicode="*" horiz-adv-x="1103" d="M147 852q0 82 150 104q82 12 164 58q20 12 20 22q0 8 -4 13l-10 10l-6 2q-82 45 -164 57q-150 23 -150 105q0 29 23 55q23 25 59.5 25t63.5 -21q20 -16 59 -65q43 -53 125 -107q20 -14 31 -14q12 0 14 6q4 8 4 26q0 90 -30 170q-27 59 -27 95q0 39 22.5 67.5t61.5 28.5 t61.5 -28.5t22.5 -67.5q0 -31 -29 -95q-31 -80 -30 -170q0 -18 4 -26q4 -6 14 -6t31 14q82 53 125 107q39 49 59 65q27 20 63 21q39 0 60 -25q23 -27 22 -55q0 -83 -147 -105q-86 -12 -166 -57q-20 -12 -20 -25q0 -8 4 -12t12 -8l4 -2q80 -45 166 -58q147 -22 147 -104 q0 -29 -22.5 -55.5t-59.5 -26.5q-35 0 -63 23q-25 18 -59 63q-45 57 -125 109q-20 14 -30.5 14t-14.5 -8t-4 -27q0 -90 30 -170q29 -63 29 -92q0 -41 -23 -70q-20 -27 -61 -26.5t-61 26.5q-23 29 -23 70q0 33 27 92q31 80 30 170q0 18 -4 26.5t-14 8.5t-31 -14 q-80 -51 -125 -109q-35 -45 -59 -63q-29 -23 -64 -23q-37 0 -59.5 26.5t-22.5 55.5z" />
<glyph unicode="+" d="M61 467v94h461v467h109v-467h459v-94h-459v-467h-109v467h-461z" />
<glyph unicode="," horiz-adv-x="526" d="M104 -383l56 35q23 14 61 53q37 37 62 74q29 41 45 96q18 59 18 125q0 39 -33 39q-15 0 -30 -12q-18 -10 -35 -11q-47 0 -80 27q-35 29 -35 88q0 49 37 82q35 33 82 33q76 0 121 -62q41 -57 41 -166q0 -29 -6 -65q-6 -43 -23 -86q-18 -55 -49 -103q-27 -43 -84 -100 q-49 -49 -123 -88z" />
<glyph unicode="-" horiz-adv-x="899" d="M135 346v131h629v-131h-629z" />
<glyph unicode="." horiz-adv-x="526" d="M135 104q0 53 37 90t92 37q53 0 90 -36.5t37 -90.5q0 -55 -37 -92t-90 -37q-55 0 -92 37t-37 92z" />
<glyph unicode="/" horiz-adv-x="720" d="M88 -469l444 1929h103l-445 -1929h-102z" />
<glyph unicode="0" horiz-adv-x="1175" d="M84 729q0 133 33 262q37 141 94 246q61 111 156 180q96 72 208.5 72t208.5 -72q94 -70 156 -180q57 -104 94 -246q33 -129 33 -262q0 -131 -33 -260q-37 -141 -94 -246q-61 -111 -156 -180q-96 -72 -208.5 -72t-208.5 72q-94 70 -156 180q-57 104 -94 246 q-33 129 -33 260zM289 729q0 -115 8 -203q8 -92 30.5 -186t55.5 -158q37 -70 82 -106q47 -39 110 -39q66 0 113 39q45 37 82 106q29 57 53 158q23 94 31 186q10 109 10 203q0 96 -10 205q-8 92 -31 186q-25 100 -53 158q-37 70 -82 106q-47 39 -113 39q-63 0 -110 -39 q-45 -37 -82 -106q-33 -63 -55.5 -157.5t-30.5 -186.5q-8 -88 -8 -205z" />
<glyph unicode="1" horiz-adv-x="1175" d="M211 0v63h195q78 0 77 80v1112q0 80 -77 80h-195v66q250 12 414 59h43v-1317q0 -80 77 -80h197v-63h-731z" />
<glyph unicode="2" horiz-adv-x="1175" d="M135 1090q0 76 29 149.5t76 126.5t131 88q82 35 182 35q193 0 311.5 -106.5t118.5 -274.5q0 -68 -25 -137q-23 -66 -59 -129q-29 -49 -96 -127q-55 -63 -111 -119l-123 -119q-143 -135 -174 -168q-55 -59 -90 -116l4 -17h477q55 0 82 21q25 20 35 63l43 205h72l-90 -465 h-787v47q45 90 109 172q61 80 192 230q100 115 131 155q57 76 103 150q59 96 80 168q25 82 24 174q0 151 -67 239q-68 88 -185 88q-74 0 -131 -24q-59 -25 -94 -70t-53 -92q-18 -49 -19 -98q0 -18 11 -33q8 -12 26 -12q16 0 35 6q20 10 43 10q49 0 76 -29q29 -33 29 -73 q0 -57 -39 -92t-95 -35q-82 0 -131 61q-51 64 -51 148z" />
<glyph unicode="3" horiz-adv-x="1175" d="M127 299q0 88 47 147.5t119 59.5q53 0 82 -29q31 -31 31 -78q0 -96 -84 -116q-70 -18 -70 -66q0 -70 90 -125q88 -55 207 -55q135 0 211 96t76 244q0 74 -13 139q-10 53 -43 115q-29 53 -75 80q-51 29 -115 28q-45 0 -90 -10q-41 -10 -92 -10q-29 0 -48 10q-20 12 -20 39 q0 25 20 37q18 10 48 10q43 0 90 -6q27 -4 92 -4q86 0 158 86q72 88 71 215q0 139 -74 229q-74 88 -198 88q-102 0 -178 -47q-74 -45 -74 -114q0 -33 16 -48q20 -16 54 -30q84 -37 84 -111q0 -45 -29 -74q-27 -27 -74 -26q-72 0 -125 55q-51 53 -51 137q0 133 113 228 q115 96 290 96q187 0 308 -105q119 -104 118 -272q0 -66 -26.5 -121t-73.5 -96q-53 -47 -92 -70q-47 -29 -94 -43v-14q139 -33 235 -135q92 -98 92 -246q0 -125 -69 -223q-68 -96 -178 -144q-115 -49 -238 -49q-104 0 -205 41q-98 40 -160 117q-63 80 -63 170z" />
<glyph unicode="4" horiz-adv-x="1175" d="M96 416v55l625 989h63v-981h275v-63h-275v-273q0 -80 78 -80h197v-63h-733v63h196q78 0 78 80v273h-504zM186 479h414v660z" />
<glyph unicode="5" horiz-adv-x="1175" d="M129 268q0 94 53 158q51 61 127 61q63 0 97 -36q35 -39 34 -86q0 -51 -30.5 -82t-81.5 -31q-25 0 -43 8q-20 8 -29 8q-31 0 -31 -35q0 -86 88 -143q82 -53 203 -53q98 0 168 57q74 61 107 154q35 98 34 211q0 115 -30 203q-31 92 -95 145q-66 55 -157 55 q-162 0 -269 -166h-45v746l58 22q53 -39 129 -59q72 -18 174 -19q106 0 194 29q92 31 160 78l37 -35q-80 -123 -205 -186q-121 -61 -241 -62q-139 0 -234 41v-393l16 -12q111 80 256 80q211 0 334 -117t123 -336q0 -225 -145 -362q-150 -139 -379 -140q-158 0 -266 82 q-111 83 -111 215z" />
<glyph unicode="6" horiz-adv-x="1175" d="M129 692q0 217 71.5 401.5t194.5 288.5q125 106 275 107q77 0 135 -25q59 -25 90 -61.5t47 -79.5t16 -80q0 -63 -40 -110q-39 -45 -101 -46q-43 0 -69.5 29t-26.5 66q0 63 45 100q18 14 27 29q8 16 8 32q0 37 -39 58q-41 23 -82 22q-104 0 -186 -75q-84 -78 -123 -193 q-51 -147 -52 -420l19 -8q35 66 115 117q84 53 168 53q78 0 145 -27q74 -29 129 -77q59 -53 92 -134q35 -86 35 -186t-27 -186q-28 -89 -80 -160q-53 -72 -131 -113q-84 -43 -182 -43q-78 0 -151 29q-68 27 -129.5 88.5t-102.5 142.5q-41 80 -65 201q-25 117 -25 260z M336 436q0 -174 75.5 -286.5t194.5 -112.5q115 0 174 108q61 111 62 310q0 172 -63.5 274t-172.5 102q-125 0 -196 -108q-74 -111 -74 -287z" />
<glyph unicode="7" horiz-adv-x="1175" d="M168 981l125 631h72q-18 -89 -19 -105q0 -29 14 -37q16 -10 50 -10h667v-69l-276 -506q-47 -88 -74 -178q-31 -104 -39 -201q-10 -106 -12 -168q-4 -86 -4 -154q0 -213 -123 -213q-59 0 -96 37t-37 113q0 240 276 727l246 436h-553q-39 0 -66 -16q-23 -14 -32 -62 l-47 -225h-72z" />
<glyph unicode="8" horiz-adv-x="1175" d="M113 365q0 114 67 215q66 98 176 155v13q-203 117 -202 333q0 111 61 205q57 90 160 148q98 55 207 55q172 0 290 -100q117 -98 117 -259q0 -100 -65 -196q-61 -90 -156 -156v-10q285 -111 285 -375q0 -96 -37 -176t-103 -133q-61 -51 -147 -82q-82 -31 -174 -31 q-123 0 -234 47q-106 45 -176 138q-69 90 -69 209zM244 377q0 -145 106 -244q104 -96 250 -96q147 0 244 84q94 82 94 209q0 109 -88 180q-82 68 -277 139q-98 35 -159 66q-170 -117 -170 -338zM256 1134.5q0 -110.5 104 -184.5q106 -76 349 -157q150 125 149 329 q0 129 -92 215t-207 86q-125 0 -213 -88q-90 -90 -90 -200.5z" />
<glyph unicode="9" horiz-adv-x="1175" d="M129 987q0 94 29 187q29 94 78 159q53 72 133 113q82 43 182 43q76 0 149 -29q68 -27 129.5 -88t102.5 -143q43 -86 67 -203q23 -106 23 -258q0 -223 -70 -401q-72 -184 -194 -289q-125 -106 -277 -107q-77 0 -135 25q-59 25 -90 61q-33 39 -47 78q-14 37 -14 80 q0 66 38 111q41 47 101 47q43 0 72 -31q27 -29 26 -63q0 -66 -45 -103q-20 -14 -27 -26q-8 -16 -8 -33q0 -37 39 -58q41 -23 82 -22q106 0 186 74q84 78 123 192q49 141 49 422l-18 6q-33 -63 -115 -115q-84 -53 -168 -53q-78 0 -145 27q-72 29 -127 78q-59 53 -92 133 q-37 90 -37 186zM309 1006q0 -172 63.5 -274.5t174.5 -102.5q123 0 194 108q76 115 76 287q0 174 -75.5 286.5t-194.5 112.5q-115 0 -174 -108q-64 -114 -64 -309z" />
<glyph unicode=":" horiz-adv-x="526" d="M135 104q0 53 37 90t92 37q53 0 90 -36.5t37 -90.5q0 -55 -37 -92t-90 -37q-55 0 -92 37t-37 92zM135 788q0 53 37 90t92 37q53 0 90 -36.5t37 -90.5q0 -55 -37 -92t-90 -37q-55 0 -92 37t-37 92z" />
<glyph unicode=";" horiz-adv-x="526" d="M135 788q0 53 37 90t92 37q53 0 90 -36.5t37 -90.5q0 -55 -37 -92t-90 -37q-55 0 -92 37t-37 92zM104 -383l56 35q23 14 61 53q37 37 62 74q29 41 45 96q18 59 18 125q0 39 -33 39q-15 0 -30 -12q-18 -10 -35 -11q-47 0 -80 27q-35 29 -35 88q0 49 37 82q35 33 82 33 q76 0 121 -62q41 -57 41 -166q0 -29 -6 -65q-6 -43 -23 -86q-18 -55 -49 -103q-27 -43 -84 -100q-49 -49 -123 -88z" />
<glyph unicode="&#x3c;" d="M84 467v94l940 492l43 -88l-868 -451l868 -451l-43 -88z" />
<glyph unicode="=" d="M61 309v97h1029v-97h-1029zM61 623v96h1029v-96h-1029z" />
<glyph unicode="&#x3e;" d="M84 63l868 451l-868 451l43 88l940 -492v-94l-940 -492z" />
<glyph unicode="?" horiz-adv-x="851" d="M88 1231q0 109 92 182q94 76 226 76q160 0 268 -117q106 -115 106 -287q0 -379 -352 -434q-39 -6 -63.5 -36.5t-24.5 -75.5v-199h-72v457q70 -4 111 -4q141 0 231 86t90 217t-88 231q-84 96 -213 96q-61 0 -110 -18.5t-49 -56.5q0 -37 28 -62q31 -27 41 -43 q12 -18 13 -47q0 -47 -31 -78q-33 -33 -80 -33q-55 0 -88 43q-35 46 -35 103zM168 104q0 53 37 90t92 37q53 0 90 -36.5t37 -90.5q0 -55 -37 -92t-90 -37q-55 0 -92 37t-37 92z" />
<glyph unicode="@" horiz-adv-x="1714" d="M59 371q0 175 56 325q55 154 145 254.5t211 175.5q117 72 250 107t262 35q141 0 264 -51q126 -52 215 -142q92 -92 144 -209q55 -127 55 -250q0 -272 -129 -450t-320 -178q-102 0 -151 61q-51 63 -53 146l-11 4q-35 -82 -110 -146q-78 -66 -168 -65q-115 0 -188.5 79.5 t-73.5 221.5q0 147 53 266q55 125 162 203q108 80 246 80q66 0 114 -56q47 -53 58 -131l20 4l45 170h141l-143 -501q-29 -102 -29 -162q0 -55 21 -82q23 -29 74 -29q147 0 245 148q100 150 101 370q0 135 -49.5 254t-131 201t-192.5 131t-234 49q-143 0 -278 -55 q-127 -53 -240 -158q-108 -101 -172 -258q-63 -154 -63 -346q0 -147 37 -256q41 -121 106 -201q72 -88 156 -143q88 -57 192.5 -86t210.5 -29q86 0 180 23q89 22 160 61q57 33 123 80q49 35 96 86l50 -63q-27 -29 -101 -86q-49 -39 -133 -82q-80 -41 -176 -66 q-98 -25 -203 -24q-123 0 -239 32q-123 35 -228 101q-117 74 -192 157q-90 100 -135 215q-50 127 -50 265zM602 248q0 -39 6 -76t18.5 -67.5t37 -49t59.5 -18.5q66 0 125 53q61 55 100 133q43 84 66 166q23 78 22 156q0 215 -137 215q-76 0 -141 -66q-70 -70 -105 -164 q-31 -84 -41 -137q-10 -51 -10 -145z" />
<glyph unicode="A" horiz-adv-x="1495" d="M37 0v63h74q156 0 223 195l440 1231h62l381 -1204q33 -102 73.5 -162t98.5 -60h94v-63h-672v63h166q33 0 57.5 25t24.5 59q0 20 -6 41l-105 324h-430l-63 -184q-9 -25 -19 -68q-8 -39 -8 -59q0 -25 6 -45q6 -25 21 -43q16 -23 51 -35q43 -14 88 -15h92v-63h-649zM541 575 h389l-187 588z" />
<glyph unicode="B" horiz-adv-x="1441" d="M80 0v63h172q78 0 78 78v1176q0 80 -78 80h-172v63h768q176 0 293 -74q84 -53 123 -126q39 -72 39 -144q0 -119 -99 -211q-102 -96 -246 -125v-6q68 -18 134 -43q58 -22 110 -61q139 -106 139 -277q0 -181 -141 -295q-127 -98 -309 -98h-811zM514 63h330q70 0 127 31 q55 29 96 88q59 84 59 201q0 168 -96 274q-41 49 -96 64q-51 14 -131 14h-289v-672zM514 801h297q131 0 217 100q70 82 70 215q0 51 -19 107q-18 53 -55 94q-74 80 -203 80h-307v-596z" />
<glyph unicode="C" horiz-adv-x="1499" d="M147 723q0 154 52 303q49 143 131 244q86 104 186 160q109 59 217 59q156 0 256 -59q104 -63 162 -136h10l103 187h45v-641h-49q-33 199 -125 348q-68 111 -162 174q-90 61 -205 61q-90 0 -158 -41q-70 -43 -112.5 -110.5t-73.5 -159.5q-27 -82 -41 -186 q-10 -80 -10 -197q0 -154 22 -266q25 -121 72 -219q47 -96 121 -151.5t170 -55.5q66 0 123 14q63 16 127 55q66 41 112 97q49 58 86 153q35 92 45 215h66q-6 -129 -47 -239.5t-96 -171.5q-66 -72 -132 -111q-68 -39 -143 -59q-71 -18 -141 -19q-127 0 -242 56 q-113 55 -192 153q-86 104 -129 240q-48 145 -48 303z" />
<glyph unicode="D" horiz-adv-x="1566" d="M80 0v63h172q78 0 78 80v1174q0 80 -78 80h-172v63h768q141 0 256 -57q119 -59 194 -156q82 -104 123 -231q43 -131 43 -287q0 -152 -43 -285q-41 -127 -123 -231q-76 -96 -194 -156q-115 -57 -256 -57h-768zM514 143q0 -80 78 -80h244q53 0 108 17q57 16 109 59 q57 47 96 117q41 74 65 193q25 123 25 280.5t-25 280.5q-25 121 -65 194q-39 70 -96 117q-51 43 -109 59q-55 16 -108 17h-244q-78 0 -78 -80v-1174z" />
<glyph unicode="E" horiz-adv-x="1423" d="M80 0v63h172q78 0 78 80v1174q0 80 -78 80h-172v63h1194l18 -571h-55q-6 82 -39 203q-33 119 -80 176q-55 70 -108 98q-55 31 -131 31h-365v-606h182q61 0 113 92q51 90 51 231h58v-713h-58q0 141 -51 232q-51 92 -113 92h-182v-662h324q98 0 174 35q74 35 133 115 q45 63 69 141q23 74 46 224h61l-8 -578h-1233z" />
<glyph unicode="F" horiz-adv-x="1368" d="M80 0v63h172q78 0 78 80v1174q0 80 -78 80h-172v63h1194l18 -571h-55q-6 82 -39 203q-33 119 -80 176q-55 70 -108 98q-55 31 -131 31h-365v-606h182q61 0 113 92q51 90 51 231h58v-713h-58q0 141 -51 232q-51 92 -113 92h-182v-582q0 -80 78 -80h172v-63h-684z" />
<glyph unicode="G" horiz-adv-x="1470" d="M147 723q0 154 52 303q49 143 131 244q86 104 186 160q109 59 217 59q156 0 256 -59q104 -63 162 -136h10l103 187h45v-641h-49q-33 199 -125 348q-68 111 -162 174q-90 61 -205 61q-90 0 -158 -41q-70 -43 -112.5 -110.5t-73.5 -159.5q-27 -82 -41 -186 q-10 -80 -10 -197q0 -154 22 -266q25 -121 72 -219q47 -96 121 -151.5t170 -55.5q150 0 242 94t92 217v201q0 80 -78 80h-223v63h688v-63h-125q-78 0 -78 -80v-578h-47l-51 273h-19q-20 -49 -53 -92q-31 -41 -84 -89q-45 -39 -117 -65q-74 -27 -147 -27q-127 0 -242 56 q-113 55 -192 153q-86 104 -129 240q-48 145 -48 303z" />
<glyph unicode="H" horiz-adv-x="1654" d="M80 0v63h172q78 0 78 80v1174q0 80 -78 80h-172v63h684v-63h-172q-78 0 -78 -80v-529h668v529q0 80 -78 80h-172v63h684v-63h-172q-78 0 -78 -80v-1174q0 -80 78 -80h172v-63h-684v63h172q78 0 78 80v582h-668v-582q0 -80 78 -80h172v-63h-684z" />
<glyph unicode="I" horiz-adv-x="802" d="M80 0v63h172q78 0 78 80v1174q0 80 -78 80h-172v63h684v-63h-172q-78 0 -78 -80v-1174q0 -80 78 -80h172v-63h-684z" />
<glyph unicode="J" horiz-adv-x="1179" d="M109 270q0 104 59 166q61 66 141 66q63 0 104.5 -41t41.5 -94.5t-39 -90.5q-43 -39 -88 -38q-25 0 -45 6q-10 4 -39 4q-39 0 -39 -39q0 -78 74 -125q76 -47 176 -47q125 0 192.5 100.5t67.5 247.5v932q0 80 -78 80h-172v63h684v-63h-172q-80 0 -80 -80v-877 q0 -203 -123 -336t-328 -133q-154 0 -245.5 80t-91.5 219z" />
<glyph unicode="K" horiz-adv-x="1603" d="M80 0v63h172q78 0 78 80v1174q0 80 -78 80h-172v63h684v-63h-172q-78 0 -78 -80v-629l487 449q70 63 97 94q33 39 32.5 67.5t-6.5 44.5q-6 14 -28 31q-8 8 -31 15q-29 8 -37 8h-96v63h629v-63q-102 0 -177 -39q-76 -41 -178 -137l-387 -355l518 -686q45 -61 99 -88 q57 -29 135 -29v-63h-653v63h100q113 0 112 50q0 18 -14 47q-10 20 -53 80l-379 501l-170 -155v-443q0 -80 78 -80h172v-63h-684z" />
<glyph unicode="L" horiz-adv-x="1423" d="M127 0v63h125q78 0 78 80v1174q0 80 -78 80h-125v63h590v-63h-125q-78 0 -78 -80v-1174q0 -80 78 -80h233q96 0 170 35q71 34 135 117q94 125 125 414h62l-29 -629h-1161z" />
<glyph unicode="M" horiz-adv-x="1953" d="M80 0v63h145q53 0 80 27q25 25 25 80v1147q0 80 -78 80h-172v63h475l432 -1132l445 1132h483v-63h-172q-80 0 -80 -80v-1174q0 -80 80 -80h172v-63h-684v63h172q78 0 78 80v1129h-31l-496 -1249h-41l-483 1249h-12v-1102q0 -55 24 -80q27 -27 80 -27h146v-63h-588z" />
<glyph unicode="N" horiz-adv-x="1568" d="M80 0v63h113q63 0 100 48q37 46 37 104v1018q0 25 -11 51q-12 33 -34 57q-49 55 -103 56h-102v63h371l802 -1098v949q0 43 -18 61q-25 25 -59 25h-172v63h540v-63h-123q-33 0 -57 -25q-23 -23 -23 -61v-1336h-32l-891 1211v-971q0 -55 39 -104q37 -47 98 -48h113v-63 h-588z" />
<glyph unicode="O" horiz-adv-x="1550" d="M143 729q0 358 228 586q82 82 190 127q113 47 236 47q121 0 233.5 -47t192.5 -127q225 -225 225 -586q0 -358 -225 -584q-80 -80 -192.5 -127t-233.5 -47q-123 0 -236 47q-109 45 -190 127q-228 228 -228 584zM369 729q0 -377 137 -551q63 -80 133 -112q63 -29 157.5 -29 t157.5 29q68 31 131 112q139 176 139.5 551t-139.5 551q-63 82 -130.5 112.5t-157.5 30.5t-158 -30q-70 -33 -133 -113q-137 -174 -137 -551z" />
<glyph unicode="P" horiz-adv-x="1366" d="M78 0v63h172q80 0 80 80v1174q0 80 -80 80h-172v63h756q115 0 204 -33q88 -33 150 -90q59 -57 90 -123q31 -68 31 -143q0 -96 -43 -182q-43 -84 -142 -144q-123 -70 -338 -69h-274v-533q0 -39 20.5 -59.5t61.5 -20.5h172v-63h-688zM512 739h299q293 0 293 332 q0 166 -84 244q-88 82 -234 82h-274v-658z" />
<glyph unicode="Q" horiz-adv-x="1550" d="M143 729q0 358 228 586q82 82 190 127q113 47 236 47q121 0 233.5 -47t192.5 -127q225 -225 225 -586q0 -358 -225 -584q-90 -90 -222 -137q4 -29 9 -86q12 -135 65 -184q51 -49 131 -49q90 0 142 57q53 59 53 141q0 72 -19 113l48 20q27 -53 26 -112q0 -76 -22 -139 q-20 -59 -53 -98.5t-81 -65.5q-45 -27 -86 -35q-47 -10 -84 -10q-66 0 -106 16q-47 18 -76 45q-33 29 -51 61.5t-29 71.5q-8 33 -8 74q0 61 19 149q-39 -6 -82 -6q-123 0 -236 47q-109 45 -190 127q-228 228 -228 584zM369 729q0 -377 137 -551q59 -74 98 -96l2 4 q-20 29 -20 72q0 72 47 119t115 47q65 0 104 -19q39 -18 74 -59q43 -49 63 -160q51 35 96 92q139 176 139.5 551t-139.5 551q-63 82 -130.5 112.5t-157.5 30.5t-158 -30q-70 -33 -133 -113q-137 -174 -137 -551zM635 160q0 -63 37 -94q18 -16 47 -23q27 -6 78 -6q57 0 92 8 q4 41 4 59q0 68 -41 115t-117 47q-46 0 -73 -30q-27 -29 -27 -76z" />
<glyph unicode="R" horiz-adv-x="1529" d="M78 0v63h172q80 0 80 80v1174q0 80 -80 80h-172v63h756q115 0 204 -33q88 -33 150 -90q59 -57 90 -123q31 -68 31 -143q0 -84 -45 -168q-43 -80 -140 -129q-61 -33 -170 -53v-14q59 -16 86 -33q35 -20 66 -58q49 -59 76 -139q20 -63 41 -196l12 -70q6 -29 18.5 -63.5 t31 -53t44.5 -18.5q35 0 62 30q31 33 41 78q12 49 18 92q4 31 8 93h43q0 -61 -6 -117q-6 -59 -20 -107q-16 -57 -39 -90q-27 -39 -64 -59q-45 -25 -88 -25q-76 0 -123 21q-51 23 -84 82q-57 100 -71 299q-6 90 -23 159q-14 63 -49 107q-25 29 -45 39q-23 10 -41 14 q-12 2 -53 2h-283v-551q0 -39 20.5 -59.5t61.5 -20.5h172v-63h-688zM512 758h299q145 0 219 75.5t74 237.5q0 166 -84 244q-88 82 -234 82h-274v-639z" />
<glyph unicode="S" horiz-adv-x="1331" d="M147 -29v701h56q31 -141 61 -226q31 -88 90 -170q25 -35 80 -100q33 -39 84 -74q53 -37 112.5 -51t147.5 -14q141 0 236 74q100 78 100 188q0 43 -12 80t-35 65q-27 33 -55 58q-27 20 -70 45q-39 20 -84 41q-41 18 -90 37l-98 32q-63 20 -109 37q-33 10 -100 41 q-63 29 -92 47q-37 25 -76 58q-41 35 -61.5 69.5t-36.5 83.5q-14 43 -15 103q0 172 115 280q119 113 289 113q123 0 221 -35q95 -34 184 -98h29l84 133h43v-578h-49q-10 53 -29 127q-12 47 -43 119t-78 119q-139 147 -362 147q-115 0 -193 -65q-82 -70 -82 -174 q0 -43 15 -78q18 -43 36 -68q23 -29 58 -55.5t69 -44.5q47 -27 82 -39l41 -16.5t45 -16.5l90 -28q61 -20 150 -54q51 -20 125 -61q51 -31 102 -84q39 -41 64 -104q25 -61 24 -140q0 -215 -118 -319q-120 -104 -326 -105q-190 0 -330 103q-68 49 -110 92h-19l-110 -195h-50z " />
<glyph unicode="T" horiz-adv-x="1443" d="M117 844l6 616h1239l6 -616h-55q-6 117 -37 233.5t-78 186.5q-39 55 -102 92q-70 41 -150 41h-112v-1254q0 -35 22.5 -57.5t63.5 -22.5h172v-63h-699v63h172q41 0 62 21q23 23 22 59v1254h-112q-78 0 -148 -41q-68 -40 -104 -92q-43 -63 -76 -187q-31 -117 -37 -233h-55z " />
<glyph unicode="U" horiz-adv-x="1628" d="M80 1397v63h684v-63h-172q-78 0 -78 -80v-944q0 -170 84 -254q82 -82 270 -82q104 0 179 29q84 33 127 77q45 47 69 105q23 51 23 108v887q0 59 -37 106.5t-101 47.5h-112v63h588v-63h-111q-63 0 -100 -47q-39 -49 -39 -107v-858q0 -86 -31 -160q-31 -72 -92 -131 q-57 -55 -154 -90q-90 -33 -209 -33q-539 0 -538 449v897q0 80 -78 80h-172z" />
<glyph unicode="V" horiz-adv-x="1495" d="M37 1397v63h672v-63h-166q-31 0 -58 -23q-25 -23 -24 -59q0 -20 6 -41l307 -975l289 836q9 25 18 67q8 39 9 60q0 31 -5 45q-4 16 -22 41q-18 27 -51 36q-37 12 -88 13h-93v63h652v-63h-86q-158 0 -226 -193l-428 -1231h-61l-381 1205q-33 102 -74 161q-39 57 -98 58h-92 z" />
<glyph unicode="W" horiz-adv-x="2199" d="M8 1397v63h672v-63h-137q-31 0 -58 -23q-25 -23 -24 -59q0 -20 6 -41l274 -967l256 828q9 25 19 67q8 39 8 60q0 31 -4 45q-6 20 -21 41q-18 27 -51 36q-37 12 -90 13h-88v63h672v-63h-139q-31 0 -58 -23q-25 -23 -24 -55q0 -25 6 -45l274 -967l258 828q9 25 19 67 q8 39 8 60q0 25 -6 45t-21 41q-18 27 -51 36q-37 12 -88 13h-84v63h649v-63h-74q-80 0 -143 -49q-66 -49 -98 -144l-400 -1231h-61l-330 1143l-368 -1143h-64l-346 1205q-33 102 -74 161q-39 57 -98 58h-121z" />
<glyph unicode="X" horiz-adv-x="1591" d="M80 0v63q194 6 289 136l391 530l-352 549q-20 33 -70 74q-55 45 -117 45h-86v63h666v-63h-99q-35 0 -63 -23q-27 -20 -27 -51q0 -29 19 -55l246 -381l233 317q55 77 55 129q0 49 -45 58q-25 6 -116 6h-60v63h635v-63q-125 0 -193 -25q-70 -25 -104 -72l-358 -487 l401 -620q29 -43 78 -87q39 -29 51 -32q25 -10 57 -11h74v-63h-688v63h129q35 0 59 25q27 27 27 57q0 35 -12 54l-293 456l-260 -356q-49 -66 -49 -125q0 -35 26 -74q25 -37 74 -37h119v-63h-637z" />
<glyph unicode="Y" horiz-adv-x="1658" d="M88 1397v63h694v-63h-143q-35 0 -55.5 -20.5t-20.5 -53.5q0 -29 19 -55l311 -512l293 448q49 74 49 129q0 47 -47 58q-25 6 -117 6h-94v63h635v-63q-84 0 -137.5 -12.5t-77.5 -30.5q-23 -16 -49 -54l-418 -626v-531q0 -80 78 -80h172v-63h-684v63h172q78 0 77 80v521 l-385 614q-29 45 -73 78q-53 41 -113 41h-86z" />
<glyph unicode="Z" horiz-adv-x="1411" d="M102 0v47l967 1350h-373q-102 0 -165.5 -31t-112.5 -98q-95 -129 -142 -424h-53l13 616h1081v-45l-965 -1343h492q88 0 155 32q72 35 113 91q61 82 88 188q25 94 41 246h62l-21 -629h-1180z" />
<glyph unicode="[" horiz-adv-x="778" d="M231 -537v1997h453v-55h-213q-51 0 -74 -23q-18 -18 -18 -73v-1690q0 -55 20 -76q23 -23 72 -22h213v-58h-453z" />
<glyph unicode="\" horiz-adv-x="720" d="M88 1460h102l445 -1929h-103z" />
<glyph unicode="]" horiz-adv-x="778" d="M96 -479h211q55 0 76 20q18 18 18 74v1690q0 57 -20 77q-23 23 -74 23h-211v55h453v-1997h-453v58z" />
<glyph unicode="^" d="M43 737l485 727h97l485 -727l-86 -53l-449 676l-448 -676z" />
<glyph unicode="_" horiz-adv-x="1024" d="M0 -256h1024v-96h-1024v96z" />
<glyph unicode="`" horiz-adv-x="878" d="M150 1393q0 29 20 49t49 20q35 0 64 -24q33 -29 61 -70l205 -283l-31 -28l-270 211q-98 76 -98 125z" />
<glyph unicode="&#x2cb;" horiz-adv-x="878" d="M150 1393q0 29 20 49t49 20q35 0 64 -24q33 -29 61 -70l205 -283l-31 -28l-270 211q-98 76 -98 125z" />
<glyph unicode="a" horiz-adv-x="1030" d="M88 190q0 184 279 289q127 47 272 80v78q0 39 -8 72q-6 27 -33 71q-23 37 -59 58q-41 23 -90 22q-80 0 -115 -18q-51 -25 -51 -60q0 -33 22 -61q37 -45 37 -82q0 -41 -18 -61q-22 -25 -68 -25q-52 0 -86 37q-35 39 -35 90q0 95 80 166q78 70 223 69q88 0 158 -28 q68 -29 109 -78q39 -47 61 -113q20 -59 20 -135v-434q0 -27 14.5 -41t33.5 -14q33 0 49 14q18 14 26 45q9 31 13 62q2 20 2 75q0 47 -6 138h45q6 -61 6 -138q0 -59 -6 -102q-6 -47 -21 -88q-14 -45 -49 -70q-34 -25 -86 -24q-80 0 -123 43q-45 45 -45 129l-4 4 q-72 -90 -133 -129q-72 -47 -162 -47q-113 0 -182.5 51t-69.5 155zM258 213q0 -65 43 -111q43 -47 102 -47q106 0 236 178v283q-147 -33 -252 -92q-129 -74 -129 -211z" />
<glyph unicode="b" horiz-adv-x="1093" d="M12 1405v55l320 13v-738l8 -2q43 78 119 131q72 51 157 51q168 0 281 -131t113 -333.5t-113 -333.5q-115 -133 -281 -133q-109 0 -188 61q-78 59 -121 158h-16l-70 -203h-35v1354q0 51 -51 51h-123zM332 451q0 -178 86 -295q84 -115 198 -115q223 0 223.5 409.5 t-223.5 409.5q-113 0 -198.5 -116.5t-85.5 -292.5z" />
<glyph unicode="c" horiz-adv-x="937" d="M84 451q0 201 127 333q125 131 338 131q68 0 110 -16q49 -18 80 -43t54 -59q18 -31 28 -62q8 -27 8 -55q0 -57 -30.5 -94t-85.5 -37q-41 0 -66 22q-27 25 -26 64q0 55 43 98q33 37 32 62q0 6 -4 14t-12 16q-10 10 -25 17q-12 6 -45 12q-29 6 -63 6q-61 0 -113 -22 q-43 -18 -82 -62q-33 -37 -55 -90q-25 -59 -33 -111q-10 -66 -10 -124q0 -410 254 -410q76 0 131 27q57 27 92 77q31 45 51 99q18 49 25 106h57q-4 -51 -14 -92q-14 -51 -39 -96q-31 -55 -66 -90q-39 -39 -100 -63.5t-137 -24.5q-190 0 -307 131t-117 336z" />
<glyph unicode="d" horiz-adv-x="1124" d="M84 450.5q0 202.5 112.5 333.5t280.5 131q180 0 279 -182l6 2v568q0 53 -24.5 77.5t-78.5 24.5h-204v55l452 13v-1367q0 -51 51 -51h123v-55h-319v162l-6 2q-106 -180 -279 -180q-166 0 -280 133q-113 131 -113 333.5zM254 450.5q0 -409.5 223 -409.5q115 0 199 115 q86 117 86 295q0 176 -86 292.5t-199 116.5q-223 0 -223 -409.5z" />
<glyph unicode="e" horiz-adv-x="937" d="M84 451q0 201 117 333q117 131 307 131q78 0 137.5 -26.5t97.5 -71.5q41 -47 64 -104q27 -68 35 -121q10 -68 10 -123h-598v-18q0 -410 254 -410q76 0 131 27q57 27 92 77q31 45 51 99q18 49 25 106h57q-4 -51 -14 -92q-14 -51 -39 -96q-31 -55 -66 -90 q-39 -39 -100 -63.5t-137 -24.5q-190 0 -307 131t-117 336zM256 524h344q47 0 66 23q16 18 16 59q0 47 -8 82q-10 45 -27 80q-20 43 -53 66q-41 27 -86 26q-229 0 -252 -336z" />
<glyph unicode="f" horiz-adv-x="735" d="M61 0v55h125q49 0 50 51v738h-175v55h175v188q0 80 24 150q27 76 68 129q39 51 116 88q74 35 158 35q88 0 154 -64q68 -65 67 -147q0 -61 -35 -98q-37 -39 -86 -39q-43 0 -67 26q-25 29 -25 64q0 45 41 86q27 25 27 49q0 29 -24.5 47.5t-63.5 18.5q-207 0 -207 -314v-219 h217v-55h-217v-738q0 -51 49 -51h123v-55h-494z" />
<glyph unicode="g" horiz-adv-x="1239" d="M80 -322q0 125 225 236v6q-74 14 -127 62q-51 45 -51 127q0 70 66 112q63 43 145 51v9q-170 90 -170 288q0 109 55 189q53 78 142 119q84 39 190 38q102 0 188 -36q84 -37 140 -111q20 66 53 104q37 43 90 43q66 0 100 -26q55 -40 56 -111q0 -59 -29 -104 q-27 -41 -80 -41q-39 0 -63 24q-27 27 -27 60q0 46 37 74q35 29 35 45q0 25 -43 24q-66 0 -101 -133q33 -66 33 -158q0 -111 -55 -190q-53 -78 -141 -119q-84 -39 -193 -39q-35 0 -66 6q-20 4 -69 4q-47 0 -103 -10q-49 -8 -90 -35q-39 -25 -39 -63q0 -20 7 -35 q4 -10 20 -20q10 -6 27 -15q4 -2 34 -6q14 -2 35 -2q4 0 16.5 -1t20.5 -1h363q137 0 229 -72q94 -74 94 -196q0 -68 -28 -119q-33 -57 -78 -92q-47 -35 -113 -64q-61 -27 -131 -39q-78 -14 -135 -14q-66 0 -127 6q-68 6 -125 21q-61 14 -111 41q-45 25 -75.5 67.5 t-30.5 95.5zM205 -311q0 -53 31 -95q29 -39 86 -57q63 -20 110 -26q55 -6 123 -7q94 0 180 27q84 27 152 90q63 61 63 146q0 53 -37 83q-43 35 -96 48q-58 12 -135 12h-289q-41 -16 -65 -31q-18 -10 -60 -43q-27 -20 -47 -63q-16 -33 -16 -84zM319 569q0 -119 64 -207 q59 -84 172 -83q115 0 174 83q63 88 64 207q0 117 -64 205q-61 86 -174 86q-111 0 -172 -86q-64 -88 -64 -205z" />
<glyph unicode="h" horiz-adv-x="1153" d="M47 0v55h125q49 0 49 51v1248q0 51 -49 51h-125v55l322 13v-762l8 -6q135 211 287 210q88 0 131 -22q63 -31 104 -105q37 -68 37 -143v-539q0 -51 49 -51h125v-55h-494v55h123q51 0 52 51v566q0 82 -37 131t-115 49t-172 -113q-53 -66 -98 -155v-478q0 -51 49 -51h125 v-55h-496z" />
<glyph unicode="i" horiz-adv-x="616" d="M80 0v55h125q49 0 49 51v689q0 49 -49 49h-125v55l319 12v-805q0 -51 52 -51h122v-55h-493zM200 1358q0 51 37 88q35 35 88.5 35t88 -34.5t34.5 -88t-35 -88.5q-37 -37 -88 -37t-88 37t-37 88z" />
<glyph unicode="j" horiz-adv-x="651" d="M-96 -358q0 53 36.5 96t86.5 43q41 0 65 -27q27 -31 27 -63q0 -55 -47 -86q-16 -10 -22.5 -20.5t-6.5 -20.5q0 -27 22.5 -43.5t55.5 -16.5q90 0 135 64q47 66 47 225v1002q0 49 -49 49h-125v55l322 12v-1087q0 -57 -21 -129q-20 -68 -57 -121q-43 -59 -109 -92 q-70 -35 -153 -35q-82 0 -146 57q-61 56 -61 138zM252 1358q0 51 37 88q35 35 88.5 35t88 -34.5t34.5 -88t-35 -88.5q-37 -37 -88 -37t-88 37t-37 88z" />
<glyph unicode="k" horiz-adv-x="1189" d="M47 0v55h125q49 0 49 51v1248q0 51 -49 51h-125v55l322 13v-1057l360 284q37 29 37 78q0 31 -24.5 49.5t-55.5 18.5h-123v53h545v-53q-61 0 -102 -17q-46 -18 -111 -67l-297 -238l274 -344q46 -55 93 -86q61 -39 145 -39v-55h-479v55h61q18 0 32.5 8.5t14.5 24.5 q0 29 -34 72l-218 280l-118 -92v-242q0 -51 49 -51h125v-55h-496z" />
<glyph unicode="l" horiz-adv-x="585" d="M47 0v55h125q49 0 49 51v1248q0 51 -49 51h-125v55l322 13v-1367q0 -51 49 -51h125v-55h-496z" />
<glyph unicode="m" horiz-adv-x="1714" d="M61 0v55h125q49 0 50 51v689q0 49 -50 49h-125v55l322 12v-225l6 -4q61 102 133 166q76 68 166 67q117 0 182 -65q63 -63 70 -168l8 -2q63 113 135 174t162 61q125 0 188.5 -75.5t63.5 -186.5v-547q0 -51 51 -51h123v-55h-493v55h125q49 0 49 51v566q0 86 -29 131 q-31 49 -109 49q-90 0 -194 -166q-39 -61 -57 -131q-23 -80 -23 -137v-312q0 -51 49 -51h125v-55h-493v55h122q51 0 52 51v566q0 82 -29 133q-27 47 -107 47q-86 0 -196 -166q-80 -121 -80 -268v-312q0 -51 49 -51h123v-55h-494z" />
<glyph unicode="n" horiz-adv-x="1167" d="M61 0v55h125q49 0 50 51v689q0 49 -50 49h-125v55l322 12v-200l6 -6q135 211 289 210q88 0 131 -22q63 -31 104 -105q37 -68 37 -143v-539q0 -51 49 -51h125v-55h-493v55h123q51 0 51 51v566q0 82 -37 131t-115 49q-80 0 -174 -113q-49 -59 -96 -155v-478q0 -51 49 -51 h123v-55h-494z" />
<glyph unicode="o" horiz-adv-x="1015" d="M84 451q0 201 117 333q117 131 307 131t307 -131q117 -133 117 -333q0 -205 -117 -336t-307.5 -131t-307 131t-116.5 336zM254 450.5q0 -409.5 254 -409.5t254 409.5t-254 409.5t-254 -409.5z" />
<glyph unicode="p" horiz-adv-x="1128" d="M47 -479h125q49 0 49 49v1225q0 49 -49 49h-125v55l322 12v-176l8 -2q45 80 116.5 131t159.5 51q168 0 281 -131t113 -333.5t-113 -333.5q-115 -133 -281 -133q-172 0 -278 180l-6 -2v-592q0 -49 49 -49h125v-58h-496v58zM369 451q0 -178 86 -295q84 -115 198 -115 q223 0 223.5 409.5t-223.5 409.5q-113 0 -198.5 -116.5t-85.5 -292.5z" />
<glyph unicode="q" horiz-adv-x="1093" d="M84 450.5q0 202.5 112.5 333.5t280.5 131q109 0 187 -59q72 -55 116 -158h19l73 201h35v-1329q0 -49 51 -49h123v-58h-493v58h125q49 0 49 49v592l-6 2q-106 -180 -279 -180q-166 0 -280 133q-113 131 -113 333.5zM254 450.5q0 -409.5 223 -409.5q115 0 199 115 q86 117 86 295q0 176 -86 292.5t-199 116.5q-223 0 -223 -409.5z" />
<glyph unicode="r" horiz-adv-x="884" d="M61 0v55h125q49 0 50 51v689q0 49 -50 49h-125v55l322 12v-213l8 -4q92 221 248 221q41 0 71.5 -12t49.5 -31q12 -12 28 -45q10 -23 15 -45q4 -29 4 -43q0 -49 -33 -94q-31 -43 -78 -43t-71 29q-27 31 -27 67.5t29 71.5q20 23 20 49q0 33 -39 33q-58 0 -110 -68 q-53 -68 -84 -174q-31 -104 -31 -207v-297q0 -51 49 -51h123v-55h-494z" />
<glyph unicode="s" horiz-adv-x="837" d="M96 -16v422h35q20 -127 78 -207q115 -158 274 -158q82 0 138 41q57 43 57 119q0 29 -19 57q-23 33 -43 49q-16 12 -69 39q-25 12 -76 33q-8 4 -20.5 8l-31 10t-30.5 11q-55 18 -76 26q-31 12 -67 31q-35 16 -62 41q-20 18 -45 49q-23 31 -33 68q-10 41 -10 84 q0 88 72 149q68 59 166 59q96 0 170 -43q53 -33 92 -65h10l62 108h26v-352h-39q-10 51 -32 103q-25 57 -54 88q-53 57 -104 82q-49 25 -127 24q-68 0 -113 -30.5t-45 -94.5q0 -25 10 -49q8 -20 33 -41q14 -12 43 -33q18 -14 56 -28l59 -25q12 -6 61 -20q70 -23 136 -54 q55 -27 94 -59.5t59 -83.5q18 -47 19 -115q0 -109 -76 -176t-187 -67q-113 0 -194 51q-59 37 -96 74h-11l-57 -125h-33z" />
<glyph unicode="t" horiz-adv-x="808" d="M55 844v55q66 8 115 45q47 35 72 94q27 61 34 127q12 90 13 156h88v-422h285v-55h-285v-654q0 -76 24 -108q25 -35 99 -35q90 0 139 66q51 68 51 161v226h47v-242q0 -121 -71 -199q-70 -76 -213 -75q-88 0 -156 55t-68 151v654h-174z" />
<glyph unicode="u" horiz-adv-x="1134" d="M41 844v55l319 12v-684q0 -80 29 -131q28 -49 105 -49q59 0 100 33q49 39 90 90q31 37 59.5 110.5t28.5 131.5v383q0 49 -49 49h-125v55l320 12v-805q0 -51 51 -51h123v-55h-320v201l-8 6q-51 -96 -127 -158q-82 -66 -162 -65q-86 0 -131 24q-68 33 -98 103 q-33 72 -33 143v541q0 49 -49 49h-123z" />
<glyph unicode="v" horiz-adv-x="1019" d="M16 844v55h441v-55h-84q-29 0 -45 -10q-18 -12 -19 -31q0 -33 10 -55l209 -558l197 496q18 47 18 90q0 29 -16 47q-18 20 -45 21h-119v55h420v-55q-47 0 -63 -4q-23 -6 -48 -25q-47 -39 -67 -92l-295 -741h-45l-283 743q-12 33 -14 37q-8 14 -18 29q-12 14 -27 26 q-27 20 -45 23q-29 4 -62 4z" />
<glyph unicode="w" horiz-adv-x="1476" d="M16 844v55h441v-55h-72q-29 0 -45 -10q-18 -12 -18 -31q0 -33 10 -55l182 -531l160 469q6 15 6 37q0 51 -51 92q-20 16 -49 25q-16 4 -66 4v55h440v-55h-71q-31 0 -45 -10q-18 -12 -19 -31q0 -33 10 -55l183 -531l159 469q16 45 17 90q0 27 -18.5 47.5t-45.5 20.5h-102 v55h420v-55q-86 0 -125 -29q-51 -41 -70 -92l-256 -741h-49l-223 647l-225 -647h-50l-258 743q-6 16 -16 37q-10 23 -16 29q-12 14 -27 26q-27 20 -47 23q-33 4 -64 4z" />
<glyph unicode="x" d="M55 0v55q96 10 152 37q55 31 94 76l223 258l-225 317q-37 49 -84 78q-39 23 -80 23h-65v55h483v-55h-47q-20 0 -37 -10q-14 -8 -14 -27q0 -39 39 -92l127 -176l129 147q27 29 26 86q0 31 -20.5 51.5t-50.5 20.5h-66v55h440v-55h-30q-51 0 -115 -45q-51 -35 -96 -88 l-187 -217l246 -340q31 -41 49 -60q39 -39 78 -39h66v-55h-498v55h110q45 0 46 33q0 27 -43 88l-148 207l-149 -176q-41 -47 -41 -88q0 -25 16 -45q14 -18 41 -19h72v-55h-441z" />
<glyph unicode="y" horiz-adv-x="1038" d="M6 -375q0 63 37 103q37 41 90 41q45 0 69.5 -31t24.5 -70q0 -37 -18 -61q-16 -23 -41 -33q-27 -10 -27 -20q0 -20 13 -33q18 -16 51 -17q45 0 90 35q39 31 61 88l125 348l-299 750q-12 33 -14 37q-8 14 -18 29q-12 14 -27 26q-27 20 -45 23q-29 4 -62 4v55h451v-55h-84 q-31 0 -45 -10q-18 -12 -19 -31q0 -33 11 -55l225 -572l184 510q14 39 15 90q0 27 -18.5 47.5t-45.5 20.5h-115v55h429v-55q-47 0 -64 -4q-23 -6 -47 -25q-51 -41 -70 -92l-405 -1104q-66 -172 -230 -172q-74 0 -129 51q-53 49 -53 127z" />
<glyph unicode="z" horiz-adv-x="919" d="M63 0v55l564 789h-215q-106 0 -162 -78q-39 -53 -53 -109q-14 -49 -21 -133h-45l12 375h662v-53l-561 -791h260q138 0 215 117q31 47 51 133q20 82 27 164h43l-15 -469h-762z" />
<glyph unicode="{" horiz-adv-x="778" d="M182 442v43q233 0 234 224q0 66 -39 225q-41 168 -41 252q0 129 94 206.5t252 96.5l10 -55q-109 -18 -168 -56q-55 -35 -55 -114q0 -92 37 -238q41 -160 41 -233q0 -145 -64 -224q-66 -82 -164 -102v-4q96 -20 164 -105q63 -78 64 -223q0 -76 -41 -235q-37 -145 -37 -236 q0 -78 55.5 -114.5t167.5 -55.5l-10 -53q-162 18 -252 94q-94 78 -94 209q0 82 41 250q39 160 39 225q-1 223 -234 223z" />
<glyph unicode="|" horiz-adv-x="512" d="M203 -469v1929h106v-1929h-106z" />
<glyph unicode="}" horiz-adv-x="778" d="M88 -506q109 18 168 55q55 35 55 115q0 94 -37 238q-41 160 -41 233q0 145 64 223q68 84 164 105v4q-98 20 -164 102q-63 78 -64 224q0 76 41 235q37 143 37 236q0 78 -55 114.5t-168 55.5l10 55q158 -18 252 -96t94 -207q0 -84 -41 -252q-39 -160 -38 -225 q0 -223 233 -224v-43q-233 0 -233 -223q0 -66 38 -225q41 -168 41 -250q0 -131 -94 -209q-90 -76 -252 -94z" />
<glyph unicode="~" d="M113 422q129 209 307 209q40 0 80 -13q53 -16 65 -22l64 -33q10 -6 28.5 -15l26.5 -13q22 -9 55 -19q37 -10 64 -10q68 0 110 31q41 29 91 98l36 -29q-129 -209 -309 -209q-55 0 -102 19q-46 18 -105 49q-106 57 -174 57q-70 0 -112 -30q-41 -29 -91 -99z" />
<glyph unicode="&#xa1;" horiz-adv-x="526" d="M119 -401q0 102 31 249q29 127 43 279l43 405h57l43 -405q14 -152 43 -279q31 -147 31 -249q0 -68 -39 -113t-107 -45q-70 0 -108 45q-37 43 -37 113zM135 823q0 55 37 92t92 37q53 0 90 -36.5t37 -92.5q0 -53 -37 -90t-90 -37q-55 0 -92 37t-37 90z" />
<glyph unicode="&#xa2;" d="M199 451q0 201 127 333q125 131 336 131q43 0 63 -4l190 551h64l-199 -565q57 -20 97 -63q39 -41 53 -80q14 -37 14 -74q0 -57 -30.5 -94t-86.5 -37q-41 0 -65 22q-27 25 -27 64q0 55 43 98q33 37 33 62q0 29 -49 51l-268 -770q49 -35 129 -35q76 0 131 26.5t90 77.5 q31 45 51 99q18 49 25 106h59q-2 -41 -16 -92q-16 -59 -37 -96q-31 -55 -66 -90q-39 -39 -100.5 -63.5t-136.5 -24.5q-78 0 -154 26l-197 -567h-61l207 592q-104 59 -162 166q-57 109 -57 250zM369 451q0 -231 77 -330l259 737q-16 2 -46 2q-59 0 -110 -22q-47 -20 -84 -62 q-33 -37 -55 -90q-22 -52 -31 -111q-10 -65 -10 -124z" />
<glyph unicode="&#xa3;" d="M66 37q0 49 69 125q57 63 84 114q76 145 94 386h-229l6 63h229q16 332 115 514q66 121 162 184q100 66 225 66q94 0 166 -65.5t72 -153.5q0 -61 -37 -110.5t-98 -49.5q-41 0 -64 23q-25 25 -24 61q0 49 57 90q43 31 43 57q0 33 -35 58q-33 25 -84 24q-166 0 -235 -145 q-68 -141 -99 -553h332l-4 -63h-336q-20 -127 -59 -201q-70 -137 -162 -240l6 -8q74 27 129 27q98 0 209 -50q95 -43 190 -43q90 0 143.5 47.5t84.5 129.5l41 -17q-8 -37 -23 -86q-14 -45 -37 -88q-27 -51 -55 -82q-35 -37 -80 -57q-51 -23 -104 -23q-78 0 -127 25 q-53 27 -111 78q-102 94 -186 94q-39 0 -107 -27q-12 -25 -22 -80q-16 -90 -78 -90q-25 0 -43 20.5t-18 45.5z" />
<glyph unicode="&#xa4;" d="M133 139l123 119q-84 109 -84 254t84 254l-123 121l70 69l121 -122q106 82 251 81q147 0 254 -81l121 122l68 -69l-121 -121q84 -109 84 -254q0 -143 -84 -252l121 -121l-68 -69l-121 123q-109 -84 -254 -84t-251 81l-121 -120zM260 512q0 -139 88 -227t227.5 -88 t227.5 88q90 90 90 227t-90 227q-88 88 -227.5 88t-227.5 -88t-88 -227z" />
<glyph unicode="&#xa5;" d="M29 1403v55h458v-55h-88q-25 0 -43 -12.5t-18 -32.5q0 -31 10 -53l256 -523l246 463q27 53 27 86q0 27 -16.5 49.5t-45.5 22.5h-117v55h435v-55q-39 0 -64 -6t-47 -23q-47 -35 -80 -94l-240 -440h277v-97h-328h-2v-190h330v-96h-330v-351q0 -51 51 -51h123v-55h-493v55 h125q49 0 49 51v351h-332v96h332v125l-35 65h-297v97h250l-227 444q-35 68 -66 90q-27 20 -43 23q-37 6 -57 6z" />
<glyph unicode="&#xa6;" horiz-adv-x="512" d="M203 299h106v-768h-106v768zM203 692v768h106v-768h-106z" />
<glyph unicode="&#xa7;" horiz-adv-x="1040" d="M152 561q0 258 186 363q-70 113 -70 227q0 72 29 145q29 72 88 117q63 47 137 47q89 0 142 -55q51 -53 51 -125q0 -57 -31 -94q-29 -35 -72 -35q-33 0 -59 23q-25 23 -25 59q0 40 25 74q20 27 20 45t-16 30q-18 14 -53 15q-41 0 -69.5 -18.5t-43.5 -45.5q-12 -23 -20 -57 q-6 -27 -6 -59q0 -86 51 -164q57 -88 162 -201q115 -127 161.5 -221t46.5 -201q0 -256 -186 -360q70 -113 70 -228q0 -72 -29 -145q-29 -72 -88 -117q-66 -49 -137 -49q-88 0 -142 57q-51 53 -51 125q0 55 31 92q29 35 72 35q33 0 59 -22q25 -23 25 -60q0 -40 -25 -73 q-20 -27 -20 -45.5t16 -30.5t53 -12q45 0 70 16q27 18 43 47q12 23 20 57q6 29 6 60q0 84 -51 162q-61 94 -162 202q-115 127 -161.5 221.5t-46.5 198.5zM244 655q0 -70 32 -151q31 -74 74 -131q47 -61 107 -123q70 -76 112 -135q55 35 90 84q35 51 35 139q0 68 -32 149 q-31 74 -74 131q-55 72 -107 125q-76 82 -112 134q-55 -35 -90 -84q-35 -52 -35 -138z" />
<glyph unicode="&#xa8;" horiz-adv-x="878" d="M135 1208q0 43 26.5 70t69.5 27q41 0 68 -27q29 -29 29 -70t-29 -69q-27 -27 -68 -27q-43 0 -69.5 26.5t-26.5 69.5zM553 1208q0 43 26.5 70t69.5 27t69.5 -27t26.5 -70t-26.5 -69.5t-69.5 -26.5t-69.5 26.5t-26.5 69.5z" />
<glyph unicode="&#xa9;" horiz-adv-x="1634" d="M59 729q0 158 59.5 301.5t158 241.5t242 157.5t298.5 59.5q158 0 301.5 -59.5t241.5 -157.5t157.5 -241.5t59.5 -301.5q0 -156 -59.5 -299t-157.5 -241.5t-241.5 -158t-301.5 -59.5q-156 0 -299 59.5t-241.5 158t-158 241.5t-59.5 299zM131 729q0 -182 92 -348 q88 -158 248 -252q156 -92 346.5 -92t347.5 92q160 94 248 252q90 162 90 348q0 188 -90 350q-88 158 -248 252q-158 92 -348 92t-346 -92q-160 -94 -248 -252q-92 -166 -92 -350zM389 729q0 203 127 336q125 131 338 131q106 0 199 -86l71 86h43v-424h-49q-14 158 -94 272 q-68 96 -172 97q-59 0 -111 -23q-47 -20 -84 -61q-33 -37 -55 -90q-25 -59 -33 -113q-10 -66 -10 -125q0 -410 254 -410q72 0 133 29q55 27 90 78q31 45 51 98q18 49 25 107h57q-4 -51 -14 -92q-14 -51 -39 -97q-31 -55 -65 -90q-41 -41 -99 -63q-61 -25 -139 -25 q-190 0 -307 131q-117 133 -117 334z" />
<glyph unicode="&#xaa;" horiz-adv-x="778" d="M131 1016q0 104 180 168q102 37 160 47v39q0 45 -25 78q-25 35 -90 34q-41 0 -65 -10q-31 -16 -31 -35q0 -20 10 -30q20 -20 21 -37q0 -14 -15 -33q-12 -14 -40 -14q-31 0 -51.5 20.5t-20.5 50.5q0 53 49 92q47 39 137 39q113 0 164 -55q53 -57 53 -141v-223 q0 -41 31 -41q18 0 28.5 10t16.5 35q8 33 8 45v61h33v-65q0 -16 -4 -50q-2 -18 -16 -47q-12 -25 -33 -36q-25 -14 -56 -15q-49 0 -73.5 24.5t-30.5 65.5l-4 2q-33 -35 -82 -63q-51 -29 -102 -29q-63 0 -109 29q-43 27 -43 84zM244 1028q0 -76 78 -76q39 0 79 29q45 31 70 61 v160q-88 -23 -145 -51q-82 -41 -82 -123z" />
<glyph unicode="&#xab;" horiz-adv-x="940" d="M182 420l334 377l35 -27l-217 -350l217 -350l-35 -27zM479 420l334 377l35 -27l-217 -350l217 -350l-35 -27z" />
<glyph unicode="&#xac;" d="M61 649v96h1029v-471h-111v375h-918z" />
<glyph unicode="&#xad;" horiz-adv-x="899" d="M135 346v131h629v-131h-629z" />
<glyph unicode="&#xae;" horiz-adv-x="1634" d="M59 729q0 158 59.5 301.5t158 241.5t242 157.5t298.5 59.5q158 0 301.5 -59.5t241.5 -157.5t157.5 -241.5t59.5 -301.5q0 -156 -59.5 -299t-157.5 -241.5t-241.5 -158t-301.5 -59.5q-156 0 -299 59.5t-241.5 158t-158 241.5t-59.5 299zM131 729q0 -182 92 -348 q88 -158 248 -252q156 -92 346.5 -92t347.5 92q160 94 248 252q90 162 90 348q0 188 -90 350q-88 158 -248 252q-158 92 -348 92t-346 -92q-160 -94 -248 -252q-92 -166 -92 -350zM385 272v56h123q49 0 49 51v688q0 49 -49 49h-123v55h516q78 0 143 -24q59 -23 105 -80 q43 -55 43 -137q0 -92 -64 -152q-61 -57 -174 -73l2 -13q74 -20 121 -90q39 -59 53 -196q10 -78 50 -78q37 0 57 55q20 53 20 117h46q0 -57 -17 -113q-16 -51 -53 -90q-37 -37 -88 -37q-63 0 -101 27q-33 25 -51 80q-16 51 -26 188q-2 49 -31 90t-84 41h-147v-307 q0 -51 49 -51h125v-56h-494zM705 741h129q95 0 153 50q57 49 57 139q0 88 -51 137t-125 49h-163v-375z" />
<glyph unicode="&#xaf;" horiz-adv-x="878" d="M152 1135v88h575v-88h-575z" />
<glyph unicode="&#x2c9;" horiz-adv-x="878" d="M152 1135v88h575v-88h-575z" />
<glyph unicode="&#xb0;" d="M201 1118q0 162 106.5 268.5t267.5 106.5q164 0 270.5 -106.5t106.5 -268.5t-106.5 -268.5t-270.5 -106.5q-162 0 -268 106.5t-106 268.5zM281 1118q0 -129 84 -211q88 -84 210.5 -84t210.5 84q86 84 86 211q0 126 -86 209q-88 84 -210.5 84t-210.5 -84q-84 -82 -84 -209 z" />
<glyph unicode="&#xb1;" d="M61 563v94h461v467h109v-467h459v-94h-459v-467h-109v467h-461zM61 -96v94h1029v-94h-1029z" />
<glyph unicode="&#xb2;" horiz-adv-x="659" d="M49 1243q0 98 69.5 164t182.5 66q125 0 201 -66q74 -63 73 -158q0 -53 -12 -92q-10 -33 -45 -78q-33 -43 -63 -67l-90 -74q-127 -98 -166 -162l4 -8h258q63 0 76 49l24 117h49l-49 -279h-489v29q76 135 196 242q76 70 94 90q31 37 55.5 92t24.5 129q0 90 -41 139 q-43 51 -118 51q-82 0 -125 -45q-43 -47 -43 -108q0 -31 22 -31q18 0 27 4q16 6 26 6q68 0 68 -57q0 -34 -25 -55q-27 -23 -63 -23q-51 0 -86 37q-35 39 -35 88z" />
<glyph unicode="&#xb3;" horiz-adv-x="659" d="M59 813q0 51 27 88q25 33 70 33q33 0 49 -16.5t16 -41t-8 -34.5q-12 -16 -31 -27q-16 -8 -22 -16q-10 -14 -10 -25q0 -86 147 -86q82 0 125 57q43 58 43 142q0 68 -37 125q-35 53 -109 53q-16 0 -47 -6q-27 -6 -53 -6q-49 0 -49 30q0 33 49 33q20 0 53 -4q29 -4 47 -4 q53 0 86 51t33 111q0 66 -30 112q-31 45 -99 45q-51 0 -90 -22q-35 -20 -35 -45q0 -29 21 -43q35 -23 35 -51q0 -20 -14.5 -34.5t-41.5 -14.5q-39 0 -65.5 26.5t-26.5 73.5q0 63 60 110q57 45 159 46q115 0 183 -58q66 -55 65 -139q0 -68 -43 -115q-47 -49 -108 -69v-9 q89 -15 141 -67q51 -51 51 -129q0 -111 -84 -176q-86 -68 -213 -68q-111 0 -176 45q-68 45 -68 125z" />
<glyph unicode="&#xb4;" horiz-adv-x="878" d="M332 1085l205 283q29 41 61 70q28 25 61 24q31 0 52 -20q18 -18 18 -49q0 -49 -96 -125l-271 -211z" />
<glyph unicode="&#x2ca;" horiz-adv-x="878" d="M332 1085l205 283q29 41 61 70q28 25 61 24q31 0 52 -20q18 -18 18 -49q0 -49 -96 -125l-271 -211z" />
<glyph unicode="&#xb5;" horiz-adv-x="1163" d="M-68 -418q0 29 25 119l309 1122l144 11l-109 -408q-10 -45 -16 -86q-6 -49 -6 -66q0 -90 38 -147q41 -59 101 -59q53 0 94 24q39 23 76 74q23 29 49 94q25 59 37 109l125 454l143 11l-111 -418q-37 -141 -36 -199q0 -49 24 -84q25 -33 70 -33q47 0 78 25q33 27 57 72 q29 47 55 131l41 -13q-33 -147 -96 -235q-35 -47 -80 -72q-46 -25 -92 -24q-66 0 -113 45q-49 47 -67 118l-15 5q-41 -74 -102 -119q-68 -49 -152 -49q-68 0 -112 43q-43 41 -68 98h-10l-125 -457q-8 -31 -22 -74q-10 -33 -29 -55q-20 -27 -47 -26q-58 -1 -58 69z" />
<glyph unicode="&#xb6;" horiz-adv-x="1187" d="M141 1079q0 98 49.5 184.5t135.5 141.5t188 55h586v-63h-228v-1866h-88v1866h-237v-1866h-88v1169q-139 18 -228 125q-90 109 -90 254z" />
<glyph unicode="&#xb7;" horiz-adv-x="350" d="M47 596q0 53 37 90t92 37q53 0 90 -36.5t37 -90.5q0 -55 -37 -92t-90 -37q-55 0 -92 37t-37 92z" />
<glyph unicode="&#xb8;" horiz-adv-x="1005" d="M217 -451l23 45q39 -20 84 -20q57 0 96 33q41 35 41 94q0 51 -35 82q-31 29 -102 29q-33 0 -48 -2l-12 36q45 29 111 39l65 135l45 -20l-53 -117q63 -12 105 -53q43 -43 43 -98q0 -100 -74 -156q-72 -53 -189 -53q-55 -1 -100 26z" />
<glyph unicode="&#xb9;" horiz-adv-x="659" d="M154 655v45h71q47 0 47 52v571q0 53 -47 53h-71v43q109 6 204 41h29v-708q0 -51 47 -52h72v-45h-352z" />
<glyph unicode="&#xba;" horiz-adv-x="778" d="M123 1165.5q0 116.5 78 188t188 71.5q113 0 190.5 -71.5t77.5 -188t-77 -188.5q-80 -74 -191 -74q-109 0 -188 74q-78 72 -78 188.5zM233 1165q0 -98 39 -157.5t117 -59.5q80 0 119 59.5t39 157.5q0 96 -39 156q-41 61 -119 61t-117 -61q-39 -60 -39 -156z" />
<glyph unicode="&#xbb;" horiz-adv-x="940" d="M393 70l215 350l-215 350l33 27l336 -377l-336 -377zM96 70l215 350l-215 350l33 27l336 -377l-336 -377z" />
<glyph unicode="&#xbc;" horiz-adv-x="1538" d="M276 -16l897 1493h88l-899 -1493h-86zM924 215v43l360 560h72v-560h119v-43h-119v-118q0 -51 47 -52h72v-45h-352v45h71q47 0 47 52v118h-317zM990 258h251v394zM154 655v45h71q47 0 47 52v571q0 53 -47 53h-71v43q109 6 204 41h29v-708q0 -51 47 -52h72v-45h-352z" />
<glyph unicode="&#xbd;" horiz-adv-x="1538" d="M276 -16l897 1493h88l-899 -1493h-86zM930 588q0 98 69.5 164t182.5 66q125 0 201 -66q74 -63 73 -158q0 -53 -12 -92q-10 -33 -45 -78q-33 -43 -63 -67l-90 -74q-127 -98 -166 -162l4 -8h258q63 0 76 49l24 117h49l-49 -279h-489v29q76 135 196 242q76 70 94 90 q31 37 55.5 92t24.5 129q0 90 -41 139q-43 51 -118 51q-82 0 -125 -45q-43 -47 -43 -108q0 -31 22 -31q18 0 27 4q16 6 26 6q68 0 68 -57q0 -34 -25 -55q-27 -23 -63 -23q-51 0 -86 37q-35 39 -35 88zM154 655v45h71q47 0 47 52v571q0 53 -47 53h-71v43q109 6 204 41h29 v-708q0 -51 47 -52h72v-45h-352z" />
<glyph unicode="&#xbe;" horiz-adv-x="1538" d="M276 -16l897 1493h88l-899 -1493h-86zM924 215v43l360 560h72v-560h119v-43h-119v-118q0 -51 47 -52h72v-45h-352v45h71q47 0 47 52v118h-317zM990 258h251v394zM59 813q0 51 27 88q25 33 70 33q33 0 49 -16.5t16 -41t-8 -34.5q-12 -16 -31 -27q-16 -8 -22 -16 q-10 -14 -10 -25q0 -86 147 -86q82 0 125 57q43 58 43 142q0 68 -37 125q-35 53 -109 53q-16 0 -47 -6q-27 -6 -53 -6q-49 0 -49 30q0 33 49 33q20 0 53 -4q29 -4 47 -4q53 0 86 51t33 111q0 66 -30 112q-31 45 -99 45q-51 0 -90 -22q-35 -20 -35 -45q0 -29 21 -43 q35 -23 35 -51q0 -20 -14.5 -34.5t-41.5 -14.5q-39 0 -65.5 26.5t-26.5 73.5q0 63 60 110q57 45 159 46q115 0 183 -58q66 -55 65 -139q0 -68 -43 -115q-47 -49 -108 -69v-9q89 -15 141 -67q51 -51 51 -129q0 -111 -84 -176q-86 -68 -213 -68q-111 0 -176 45q-68 45 -68 125 z" />
<glyph unicode="&#xbf;" horiz-adv-x="851" d="M72 -158q0 379 352 434q39 6 63.5 37t24.5 76v201h72v-459q-70 4 -111 4q-141 0 -231 -86t-90 -217t88 -231q84 -96 213 -97q61 0 110 18.5t49 57.5q0 37 -28 62q-31 27 -41 43q-12 18 -13 47q0 47 31 78q33 33 80 32q55 0 88 -43q35 -45 35 -102q0 -109 -92 -182.5 t-226 -73.5q-162 0 -268 114.5t-106 286.5zM428 823q0 55 37 92t90 37q55 0 92 -36.5t37 -92.5q0 -53 -37 -90t-92 -37q-53 0 -90 37t-37 90z" />
<glyph unicode="&#xc0;" horiz-adv-x="1495" d="M503 1841q0 27 18.5 49.5t45.5 22.5q59 0 129 -66l256 -237l-23 -31l-313 150q-113 53 -113 112zM37 0v63h74q156 0 223 195l440 1231h62l381 -1204q33 -102 73.5 -162t98.5 -60h94v-63h-672v63h166q33 0 57.5 25t24.5 59q0 20 -6 41l-105 324h-430l-63 -184 q-9 -25 -19 -68q-8 -39 -8 -59q0 -25 6 -45q6 -25 21 -43q16 -23 51 -35q43 -14 88 -15h92v-63h-649zM541 575h389l-187 588z" />
<glyph unicode="&#xc1;" horiz-adv-x="1495" d="M653 1610l256 237q70 66 129 66q27 0 45 -23q16 -18 16 -49q0 -59 -110 -112l-316 -150zM37 0v63h74q156 0 223 195l440 1231h62l381 -1204q33 -102 73.5 -162t98.5 -60h94v-63h-672v63h166q33 0 57.5 25t24.5 59q0 20 -6 41l-105 324h-430l-63 -184q-9 -25 -19 -68 q-8 -39 -8 -59q0 -25 6 -45q6 -25 21 -43q16 -23 51 -35q43 -14 88 -15h92v-63h-649zM541 575h389l-187 588z" />
<glyph unicode="&#xc2;" horiz-adv-x="1495" d="M446 1614q217 164 324 299h63q102 -131 326 -299l-23 -35l-334 188l-334 -188zM37 0v63h74q156 0 223 195l440 1231h62l381 -1204q33 -102 73.5 -162t98.5 -60h94v-63h-672v63h166q33 0 57.5 25t24.5 59q0 20 -6 41l-105 324h-430l-63 -184q-9 -25 -19 -68q-8 -39 -8 -59 q0 -25 6 -45q6 -25 21 -43q16 -23 51 -35q43 -14 88 -15h92v-63h-649zM541 575h389l-187 588z" />
<glyph unicode="&#xc3;" horiz-adv-x="1495" d="M387 1667q45 78 106 125q66 49 145 49q90 0 201 -47q12 -6 33.5 -13t28.5 -9q20 -8 59 -19q25 -6 78 -6q31 0 55 16q31 20 43 35q15 18 37 49l45 -22q-45 -76 -108.5 -125t-143.5 -49q-102 0 -203 47q-108 49 -196 49q-28 0 -55 -18q-31 -20 -44 -35q-15 -18 -36 -49z M37 0v63h74q156 0 223 195l440 1231h62l381 -1204q33 -102 73.5 -162t98.5 -60h94v-63h-672v63h166q33 0 57.5 25t24.5 59q0 20 -6 41l-105 324h-430l-63 -184q-9 -25 -19 -68q-8 -39 -8 -59q0 -25 6 -45q6 -25 21 -43q16 -23 51 -35q43 -14 88 -15h92v-63h-649zM541 575 h389l-187 588z" />
<glyph unicode="&#xc4;" horiz-adv-x="1495" d="M466 1747q0 35 25 59.5t61.5 24.5t61.5 -25q27 -27 27 -59.5t-27 -63.5q-25 -27 -61.5 -26.5t-61.5 26.5q-25 29 -25 64zM964 1747q0 35 24.5 59.5t61.5 24.5t62 -25q27 -27 26.5 -59.5t-26.5 -63.5q-25 -27 -62 -26.5t-61 26.5q-25 29 -25 64zM37 0v63h74q156 0 223 195 l440 1231h62l381 -1204q33 -102 73.5 -162t98.5 -60h94v-63h-672v63h166q33 0 57.5 25t24.5 59q0 20 -6 41l-105 324h-430l-63 -184q-9 -25 -19 -68q-8 -39 -8 -59q0 -25 6 -45q6 -25 21 -43q16 -23 51 -35q43 -14 88 -15h92v-63h-649zM541 575h389l-187 588z" />
<glyph unicode="&#xc5;" horiz-adv-x="1495" d="M536 1761q0 90 76 148q74 55 190.5 55t190.5 -55q76 -57 76 -148q0 -88 -76 -145q-74 -55 -190.5 -55t-190.5 55q-76 57 -76 145zM600 1761q0 -57 55 -98q53 -39 147.5 -39t147.5 39t53 98q0 61 -53 100.5t-147.5 39.5t-147.5 -39q-55 -40 -55 -101zM37 0v63h74 q156 0 223 195l440 1231h62l381 -1204q33 -102 73.5 -162t98.5 -60h94v-63h-672v63h166q33 0 57.5 25t24.5 59q0 20 -6 41l-105 324h-430l-63 -184q-9 -25 -19 -68q-8 -39 -8 -59q0 -25 6 -45q6 -25 21 -43q16 -23 51 -35q43 -14 88 -15h92v-63h-649zM541 575h389l-187 588z " />
<glyph unicode="&#xc6;" horiz-adv-x="2349" d="M90 0v63h98q74 0 138 74q45 53 75 99l709 1017q41 59 41 101q0 43 -53 43h-254v63h1356l18 -571h-55q-6 92 -37 203q-31 115 -82 176q-57 72 -107 98q-55 31 -133 31h-364v-633h182q59 0 113 94q51 90 51 229h57v-710h-57q0 139 -51 229q-53 94 -113 94h-182v-637h323 q100 0 176 35q72 33 132 115q45 63 69 141q23 74 45 224h62l-9 -578h-1232v63h172q78 0 77 80v557h-426l-243 -358q-61 -89 -62 -172q0 -43 27 -76q25 -31 67 -31h160v-63h-688zM872 764h383v561z" />
<glyph unicode="&#xc7;" horiz-adv-x="1499" d="M147 723q0 154 52 303q49 143 131 244q86 104 186 160q109 59 217 59q156 0 256 -59q104 -63 162 -136h10l103 187h45v-641h-49q-33 199 -125 348q-68 111 -162 174q-90 61 -205 61q-90 0 -158 -41q-70 -43 -112.5 -110.5t-73.5 -159.5q-27 -82 -41 -186 q-10 -80 -10 -197q0 -154 22 -266q25 -121 72 -219q47 -96 121 -151.5t170 -55.5q66 0 123 14q63 16 127 55q66 41 112 97q49 58 86 153q35 92 45 215h66q-6 -125 -39 -219q-35 -102 -82 -164q-53 -70 -113 -112q-72 -51 -127 -70q-63 -20 -133 -31l-51 -102q74 -12 117 -61 q47 -53 47 -117q0 -115 -82 -178q-84 -66 -211 -66q-27 0 -84 14q-49 12 -80 31l25 53q66 -33 145 -32q59 0 101 32q43 33 43 107q0 57 -39 94q-41 37 -107 37q-35 0 -43 -2l-8 47q35 25 113 43l49 96q-127 0 -242 56q-111 53 -194 153q-80 94 -127.5 239.5t-47.5 303.5z " />
<glyph unicode="&#xc8;" horiz-adv-x="1423" d="M426 1841q0 27 18.5 49.5t45.5 22.5q59 0 129 -66l256 -237l-23 -31l-313 150q-113 53 -113 112zM80 0v63h172q78 0 78 80v1174q0 80 -78 80h-172v63h1194l18 -571h-55q-6 82 -39 203q-33 119 -80 176q-55 70 -108 98q-55 31 -131 31h-365v-606h182q61 0 113 92 q51 90 51 231h58v-713h-58q0 141 -51 232q-51 92 -113 92h-182v-662h324q98 0 174 35q74 35 133 115q45 63 69 141q23 74 46 224h61l-8 -578h-1233z" />
<glyph unicode="&#xc9;" horiz-adv-x="1423" d="M576 1610l256 237q70 66 129 66q27 0 45 -23q16 -18 16 -49q0 -59 -110 -112l-316 -150zM80 0v63h172q78 0 78 80v1174q0 80 -78 80h-172v63h1194l18 -571h-55q-6 82 -39 203q-33 119 -80 176q-55 70 -108 98q-55 31 -131 31h-365v-606h182q61 0 113 92q51 90 51 231h58 v-713h-58q0 141 -51 232q-51 92 -113 92h-182v-662h324q98 0 174 35q74 35 133 115q45 63 69 141q23 74 46 224h61l-8 -578h-1233z" />
<glyph unicode="&#xca;" horiz-adv-x="1423" d="M369 1614q217 164 324 299h63q102 -131 326 -299l-23 -35l-334 188l-334 -188zM80 0v63h172q78 0 78 80v1174q0 80 -78 80h-172v63h1194l18 -571h-55q-6 82 -39 203q-33 119 -80 176q-55 70 -108 98q-55 31 -131 31h-365v-606h182q61 0 113 92q51 90 51 231h58v-713h-58 q0 141 -51 232q-51 92 -113 92h-182v-662h324q98 0 174 35q74 35 133 115q45 63 69 141q23 74 46 224h61l-8 -578h-1233z" />
<glyph unicode="&#xcb;" horiz-adv-x="1423" d="M389 1747q0 35 25 59.5t61.5 24.5t61.5 -25q27 -27 27 -59.5t-27 -63.5q-25 -27 -61.5 -26.5t-61.5 26.5q-25 29 -25 64zM887 1747q0 35 24.5 59.5t61.5 24.5t62 -25q27 -27 26.5 -59.5t-26.5 -63.5q-25 -27 -62 -26.5t-61 26.5q-25 29 -25 64zM80 0v63h172q78 0 78 80 v1174q0 80 -78 80h-172v63h1194l18 -571h-55q-6 82 -39 203q-33 119 -80 176q-55 70 -108 98q-55 31 -131 31h-365v-606h182q61 0 113 92q51 90 51 231h58v-713h-58q0 141 -51 232q-51 92 -113 92h-182v-662h324q98 0 174 35q74 35 133 115q45 63 69 141q23 74 46 224h61 l-8 -578h-1233z" />
<glyph unicode="&#xcc;" horiz-adv-x="802" d="M123 1841q0 27 18.5 49.5t45.5 22.5q59 0 129 -66l256 -237l-23 -31l-313 150q-113 53 -113 112zM80 0v63h172q78 0 78 80v1174q0 80 -78 80h-172v63h684v-63h-172q-78 0 -78 -80v-1174q0 -80 78 -80h172v-63h-684z" />
<glyph unicode="&#xcd;" horiz-adv-x="802" d="M273 1610l256 237q70 66 129 66q27 0 45 -23q16 -18 16 -49q0 -59 -110 -112l-316 -150zM80 0v63h172q78 0 78 80v1174q0 80 -78 80h-172v63h684v-63h-172q-78 0 -78 -80v-1174q0 -80 78 -80h172v-63h-684z" />
<glyph unicode="&#xce;" horiz-adv-x="802" d="M66 1614q217 164 324 299h63q102 -131 326 -299l-23 -35l-334 188l-334 -188zM80 0v63h172q78 0 78 80v1174q0 80 -78 80h-172v63h684v-63h-172q-78 0 -78 -80v-1174q0 -80 78 -80h172v-63h-684z" />
<glyph unicode="&#xcf;" horiz-adv-x="802" d="M86 1747q0 35 25 59.5t61.5 24.5t61.5 -25q27 -27 27 -59.5t-27 -63.5q-25 -27 -61.5 -26.5t-61.5 26.5q-25 29 -25 64zM584 1747q0 35 24.5 59.5t61.5 24.5t62 -25q27 -27 26.5 -59.5t-26.5 -63.5q-25 -27 -62 -26.5t-61 26.5q-25 29 -25 64zM80 0v63h172q78 0 78 80 v1174q0 80 -78 80h-172v63h684v-63h-172q-78 0 -78 -80v-1174q0 -80 78 -80h172v-63h-684z" />
<glyph unicode="&#xd0;" horiz-adv-x="1566" d="M80 0v63h172q78 0 78 80v576h-234v76h234v522q0 80 -78 80h-172v63h768q141 0 256 -57q119 -59 194 -156q82 -104 123 -231q43 -131 43 -287q0 -152 -43 -285q-41 -127 -123 -231q-76 -96 -194 -156q-115 -57 -256 -57h-768zM514 143q0 -80 78 -80h244q53 0 108 17 q57 16 109 59q57 47 96 117q41 74 65 193q25 123 25 280.5t-25 280.5q-25 121 -65 194q-39 70 -96 117q-51 43 -109 59q-55 16 -108 17h-244q-78 0 -78 -80v-522h270v-76h-270v-576z" />
<glyph unicode="&#xd1;" horiz-adv-x="1568" d="M420 1667q45 78 106 125q66 49 145 49q90 0 201 -47q12 -6 33.5 -13t28.5 -9q20 -8 59 -19q25 -6 78 -6q31 0 55 16q31 20 43 35q15 18 37 49l45 -22q-45 -76 -108.5 -125t-143.5 -49q-102 0 -203 47q-108 49 -196 49q-28 0 -55 -18q-31 -20 -44 -35q-15 -18 -36 -49z M80 0v63h113q63 0 100 48q37 46 37 104v1018q0 25 -11 51q-12 33 -34 57q-49 55 -103 56h-102v63h371l802 -1098v949q0 43 -18 61q-25 25 -59 25h-172v63h540v-63h-123q-33 0 -57 -25q-23 -23 -23 -61v-1336h-32l-891 1211v-971q0 -55 39 -104q37 -47 98 -48h113v-63h-588z " />
<glyph unicode="&#xd2;" horiz-adv-x="1550" d="M497 1841q0 27 18.5 49.5t45.5 22.5q59 0 129 -66l256 -237l-23 -31l-313 150q-113 53 -113 112zM143 729q0 358 228 586q82 82 190 127q113 47 236 47q121 0 233.5 -47t192.5 -127q225 -225 225 -586q0 -358 -225 -584q-80 -80 -192.5 -127t-233.5 -47q-123 0 -236 47 q-109 45 -190 127q-228 228 -228 584zM369 729q0 -377 137 -551q63 -80 133 -112q63 -29 157.5 -29t157.5 29q68 31 131 112q139 176 139.5 551t-139.5 551q-63 82 -130.5 112.5t-157.5 30.5t-158 -30q-70 -33 -133 -113q-137 -174 -137 -551z" />
<glyph unicode="&#xd3;" horiz-adv-x="1550" d="M647 1610l256 237q70 66 129 66q27 0 45 -23q16 -18 16 -49q0 -59 -110 -112l-316 -150zM143 729q0 358 228 586q82 82 190 127q113 47 236 47q121 0 233.5 -47t192.5 -127q225 -225 225 -586q0 -358 -225 -584q-80 -80 -192.5 -127t-233.5 -47q-123 0 -236 47 q-109 45 -190 127q-228 228 -228 584zM369 729q0 -377 137 -551q63 -80 133 -112q63 -29 157.5 -29t157.5 29q68 31 131 112q139 176 139.5 551t-139.5 551q-63 82 -130.5 112.5t-157.5 30.5t-158 -30q-70 -33 -133 -113q-137 -174 -137 -551z" />
<glyph unicode="&#xd4;" horiz-adv-x="1550" d="M440 1614q217 164 324 299h63q102 -131 326 -299l-23 -35l-334 188l-334 -188zM143 729q0 358 228 586q82 82 190 127q113 47 236 47q121 0 233.5 -47t192.5 -127q225 -225 225 -586q0 -358 -225 -584q-80 -80 -192.5 -127t-233.5 -47q-123 0 -236 47q-109 45 -190 127 q-228 228 -228 584zM369 729q0 -377 137 -551q63 -80 133 -112q63 -29 157.5 -29t157.5 29q68 31 131 112q139 176 139.5 551t-139.5 551q-63 82 -130.5 112.5t-157.5 30.5t-158 -30q-70 -33 -133 -113q-137 -174 -137 -551z" />
<glyph unicode="&#xd5;" horiz-adv-x="1550" d="M381 1667q45 78 106 125q66 49 145 49q90 0 201 -47q12 -6 33.5 -13t28.5 -9q20 -8 59 -19q25 -6 78 -6q31 0 55 16q31 20 43 35q15 18 37 49l45 -22q-45 -76 -108.5 -125t-143.5 -49q-102 0 -203 47q-108 49 -196 49q-28 0 -55 -18q-31 -20 -44 -35q-15 -18 -36 -49z M143 729q0 358 228 586q82 82 190 127q113 47 236 47q121 0 233.5 -47t192.5 -127q225 -225 225 -586q0 -358 -225 -584q-80 -80 -192.5 -127t-233.5 -47q-123 0 -236 47q-109 45 -190 127q-228 228 -228 584zM369 729q0 -377 137 -551q63 -80 133 -112q63 -29 157.5 -29 t157.5 29q68 31 131 112q139 176 139.5 551t-139.5 551q-63 82 -130.5 112.5t-157.5 30.5t-158 -30q-70 -33 -133 -113q-137 -174 -137 -551z" />
<glyph unicode="&#xd6;" horiz-adv-x="1550" d="M460 1747q0 35 25 59.5t61.5 24.5t61.5 -25q27 -27 27 -59.5t-27 -63.5q-25 -27 -61.5 -26.5t-61.5 26.5q-25 29 -25 64zM958 1747q0 35 24.5 59.5t61.5 24.5t62 -25q27 -27 26.5 -59.5t-26.5 -63.5q-25 -27 -62 -26.5t-61 26.5q-25 29 -25 64zM143 729q0 358 228 586 q82 82 190 127q113 47 236 47q121 0 233.5 -47t192.5 -127q225 -225 225 -586q0 -358 -225 -584q-80 -80 -192.5 -127t-233.5 -47q-123 0 -236 47q-109 45 -190 127q-228 228 -228 584zM369 729q0 -377 137 -551q63 -80 133 -112q63 -29 157.5 -29t157.5 29q68 31 131 112 q139 176 139.5 551t-139.5 551q-63 82 -130.5 112.5t-157.5 30.5t-158 -30q-70 -33 -133 -113q-137 -174 -137 -551z" />
<glyph unicode="&#xd7;" d="M178 182l330 330l-330 332l68 65l329 -327l330 327l68 -65l-330 -332l330 -330l-68 -65l-330 327l-329 -327z" />
<glyph unicode="&#xd8;" horiz-adv-x="1550" d="M143 729q0 358 228 586q82 82 190 127q113 47 236 47q106 0 225 -45q113 -43 203 -133l149 178l68 -59l-158 -187q164 -211 164 -514q0 -358 -225 -584q-80 -80 -192.5 -127t-233.5 -47q-109 0 -228 45q-113 43 -202 134l-150 -179l-67 60l157 186q-164 207 -164 512z M369 729q0 -229 49 -381l719 856q-23 45 -70 99q-39 45 -68 63q-45 29 -69 37q-49 16 -68 18q-20 2 -65 2q-90 0 -158 -30q-70 -33 -133 -113q-137 -174 -137 -551zM457 256q27 -51 67 -98q43 -49 68 -66q37 -23 72 -35q49 -16 67 -18q20 -2 66 -2q94 0 157 29 q68 31 131 112q139 176 140 551q0 233 -49 383z" />
<glyph unicode="&#xd9;" horiz-adv-x="1628" d="M573 1841q0 27 18.5 49.5t45.5 22.5q59 0 129 -66l256 -237l-23 -31l-313 150q-113 53 -113 112zM80 1397v63h684v-63h-172q-78 0 -78 -80v-944q0 -170 84 -254q82 -82 270 -82q104 0 179 29q84 33 127 77q45 47 69 105q23 51 23 108v887q0 59 -37 106.5t-101 47.5h-112 v63h588v-63h-111q-63 0 -100 -47q-39 -49 -39 -107v-858q0 -86 -31 -160q-31 -72 -92 -131q-57 -55 -154 -90q-90 -33 -209 -33q-539 0 -538 449v897q0 80 -78 80h-172z" />
<glyph unicode="&#xda;" horiz-adv-x="1628" d="M723 1610l256 237q70 66 129 66q27 0 45 -23q16 -18 16 -49q0 -59 -110 -112l-316 -150zM80 1397v63h684v-63h-172q-78 0 -78 -80v-944q0 -170 84 -254q82 -82 270 -82q104 0 179 29q84 33 127 77q45 47 69 105q23 51 23 108v887q0 59 -37 106.5t-101 47.5h-112v63h588 v-63h-111q-63 0 -100 -47q-39 -49 -39 -107v-858q0 -86 -31 -160q-31 -72 -92 -131q-57 -55 -154 -90q-90 -33 -209 -33q-539 0 -538 449v897q0 80 -78 80h-172z" />
<glyph unicode="&#xdb;" horiz-adv-x="1628" d="M516 1614q217 164 324 299h63q102 -131 326 -299l-23 -35l-334 188l-334 -188zM80 1397v63h684v-63h-172q-78 0 -78 -80v-944q0 -170 84 -254q82 -82 270 -82q104 0 179 29q84 33 127 77q45 47 69 105q23 51 23 108v887q0 59 -37 106.5t-101 47.5h-112v63h588v-63h-111 q-63 0 -100 -47q-39 -49 -39 -107v-858q0 -86 -31 -160q-31 -72 -92 -131q-57 -55 -154 -90q-90 -33 -209 -33q-539 0 -538 449v897q0 80 -78 80h-172z" />
<glyph unicode="&#xdc;" horiz-adv-x="1628" d="M536 1747q0 35 25 59.5t61.5 24.5t61.5 -25q27 -27 27 -59.5t-27 -63.5q-25 -27 -61.5 -26.5t-61.5 26.5q-25 29 -25 64zM1034 1747q0 35 24.5 59.5t61.5 24.5t62 -25q27 -27 26.5 -59.5t-26.5 -63.5q-25 -27 -62 -26.5t-61 26.5q-25 29 -25 64zM80 1397v63h684v-63h-172 q-78 0 -78 -80v-944q0 -170 84 -254q82 -82 270 -82q104 0 179 29q84 33 127 77q45 47 69 105q23 51 23 108v887q0 59 -37 106.5t-101 47.5h-112v63h588v-63h-111q-63 0 -100 -47q-39 -49 -39 -107v-858q0 -86 -31 -160q-31 -72 -92 -131q-57 -55 -154 -90q-90 -33 -209 -33 q-539 0 -538 449v897q0 80 -78 80h-172z" />
<glyph unicode="&#xdd;" horiz-adv-x="1658" d="M707 1610l256 237q70 66 129 66q27 0 45 -23q16 -18 16 -49q0 -59 -110 -112l-316 -150zM88 1397v63h694v-63h-143q-35 0 -55.5 -20.5t-20.5 -53.5q0 -29 19 -55l311 -512l293 448q49 74 49 129q0 47 -47 58q-25 6 -117 6h-94v63h635v-63q-84 0 -137.5 -12.5t-77.5 -30.5 q-23 -16 -49 -54l-418 -626v-531q0 -80 78 -80h172v-63h-684v63h172q78 0 77 80v521l-385 614q-29 45 -73 78q-53 41 -113 41h-86z" />
<glyph unicode="&#xde;" horiz-adv-x="1413" d="M84 -500l176 88q41 23 55.5 53.5t14.5 88.5v1460q0 57 -25 76q-27 20 -88 20h-129v64l381 139h45v-340l393 225q76 41 99 41q47 0 98 -49q53 -51 98 -125q49 -82 78 -182q31 -109 31 -211q0 -217 -72 -379t-233 -303q-163 -141 -492 -221v-314l-399 -190zM514 12 q231 59 363 174q125 109 167 246q41 129 41 354q0 106 -32 211q-35 111 -84 174q-52 68 -105 68q-49 0 -94 -27l-256 -145v-1055z" />
<glyph unicode="&#xdf;" horiz-adv-x="1107" d="M47 0v55h125q49 0 49 51v908q0 113 33 211q33 94 86 149q57 57 123 84q76 31 143 31q150 0 242 -82q90 -80 90 -225q0 -125 -82 -207q-78 -78 -209 -113v-8q164 -47 266 -176q100 -127 101 -309q0 -100 -26.5 -172t-76 -121t-108.5 -70q-63 -23 -133 -22q-86 0 -152 47 q-63 45 -63 137q0 55 34 100q34 43 86 43q35 0 57.5 -20.5t22.5 -52.5q0 -45 -41 -82q-29 -29 -28 -58q0 -23 26 -41q25 -16 62 -16q170 0 170 336q0 197 -88 321.5t-219 124.5h-68v58h68q96 0 163.5 79.5t67.5 229.5q0 115 -45 178.5t-135 63.5q-41 0 -76 -21 q-37 -20 -70 -63q-31 -39 -53 -123q-20 -76 -20 -181v-1044h-322z" />
<glyph unicode="&#xe0;" horiz-adv-x="1030" d="M179 1393q0 29 20 49t49 20q35 0 64 -24q33 -29 61 -70l205 -283l-31 -28l-270 211q-98 76 -98 125zM88 190q0 184 279 289q127 47 272 80v78q0 39 -8 72q-6 27 -33 71q-23 37 -59 58q-41 23 -90 22q-80 0 -115 -18q-51 -25 -51 -60q0 -33 22 -61q37 -45 37 -82 q0 -41 -18 -61q-22 -25 -68 -25q-52 0 -86 37q-35 39 -35 90q0 95 80 166q78 70 223 69q88 0 158 -28q68 -29 109 -78q39 -47 61 -113q20 -59 20 -135v-434q0 -27 14.5 -41t33.5 -14q33 0 49 14q18 14 26 45q9 31 13 62q2 20 2 75q0 47 -6 138h45q6 -61 6 -138 q0 -59 -6 -102q-6 -47 -21 -88q-14 -45 -49 -70q-34 -25 -86 -24q-80 0 -123 43q-45 45 -45 129l-4 4q-72 -90 -133 -129q-72 -47 -162 -47q-113 0 -182.5 51t-69.5 155zM258 213q0 -65 43 -111q43 -47 102 -47q106 0 236 178v283q-147 -33 -252 -92q-129 -74 -129 -211z " />
<glyph unicode="&#xe1;" horiz-adv-x="1030" d="M361 1085l205 283q29 41 61 70q28 25 61 24q31 0 52 -20q18 -18 18 -49q0 -49 -96 -125l-271 -211zM88 190q0 184 279 289q127 47 272 80v78q0 39 -8 72q-6 27 -33 71q-23 37 -59 58q-41 23 -90 22q-80 0 -115 -18q-51 -25 -51 -60q0 -33 22 -61q37 -45 37 -82 q0 -41 -18 -61q-22 -25 -68 -25q-52 0 -86 37q-35 39 -35 90q0 95 80 166q78 70 223 69q88 0 158 -28q68 -29 109 -78q39 -47 61 -113q20 -59 20 -135v-434q0 -27 14.5 -41t33.5 -14q33 0 49 14q18 14 26 45q9 31 13 62q2 20 2 75q0 47 -6 138h45q6 -61 6 -138 q0 -59 -6 -102q-6 -47 -21 -88q-14 -45 -49 -70q-34 -25 -86 -24q-80 0 -123 43q-45 45 -45 129l-4 4q-72 -90 -133 -129q-72 -47 -162 -47q-113 0 -182.5 51t-69.5 155zM258 213q0 -65 43 -111q43 -47 102 -47q106 0 236 178v283q-147 -33 -252 -92q-129 -74 -129 -211z " />
<glyph unicode="&#xe2;" horiz-adv-x="1030" d="M135 1096q172 170 302 356h63q125 -180 303 -356l-31 -29l-303 229l-305 -229zM88 190q0 184 279 289q127 47 272 80v78q0 39 -8 72q-6 27 -33 71q-23 37 -59 58q-41 23 -90 22q-80 0 -115 -18q-51 -25 -51 -60q0 -33 22 -61q37 -45 37 -82q0 -41 -18 -61 q-22 -25 -68 -25q-52 0 -86 37q-35 39 -35 90q0 95 80 166q78 70 223 69q88 0 158 -28q68 -29 109 -78q39 -47 61 -113q20 -59 20 -135v-434q0 -27 14.5 -41t33.5 -14q33 0 49 14q18 14 26 45q9 31 13 62q2 20 2 75q0 47 -6 138h45q6 -61 6 -138q0 -59 -6 -102 q-6 -47 -21 -88q-14 -45 -49 -70q-34 -25 -86 -24q-80 0 -123 43q-45 45 -45 129l-4 4q-72 -90 -133 -129q-72 -47 -162 -47q-113 0 -182.5 51t-69.5 155zM258 213q0 -65 43 -111q43 -47 102 -47q106 0 236 178v283q-147 -33 -252 -92q-129 -74 -129 -211z" />
<glyph unicode="&#xe3;" horiz-adv-x="1030" d="M97 1092q37 82 96 141q57 57 131 57q78 0 178 -53q96 -53 176 -53q59 0 123 112l39 -24q-37 -84 -94 -142q-59 -59 -131 -59q-82 0 -180 55q-94 51 -177 52q-59 0 -120 -111zM88 190q0 184 279 289q127 47 272 80v78q0 39 -8 72q-6 27 -33 71q-23 37 -59 58 q-41 23 -90 22q-80 0 -115 -18q-51 -25 -51 -60q0 -33 22 -61q37 -45 37 -82q0 -41 -18 -61q-22 -25 -68 -25q-52 0 -86 37q-35 39 -35 90q0 95 80 166q78 70 223 69q88 0 158 -28q68 -29 109 -78q39 -47 61 -113q20 -59 20 -135v-434q0 -27 14.5 -41t33.5 -14q33 0 49 14 q18 14 26 45q9 31 13 62q2 20 2 75q0 47 -6 138h45q6 -61 6 -138q0 -59 -6 -102q-6 -47 -21 -88q-14 -45 -49 -70q-34 -25 -86 -24q-80 0 -123 43q-45 45 -45 129l-4 4q-72 -90 -133 -129q-72 -47 -162 -47q-113 0 -182.5 51t-69.5 155zM258 213q0 -65 43 -111 q43 -47 102 -47q106 0 236 178v283q-147 -33 -252 -92q-129 -74 -129 -211z" />
<glyph unicode="&#xe4;" horiz-adv-x="1030" d="M164 1208q0 43 26.5 70t69.5 27q41 0 68 -27q29 -29 29 -70t-29 -69q-27 -27 -68 -27q-43 0 -69.5 26.5t-26.5 69.5zM582 1208q0 43 26.5 70t69.5 27t69.5 -27t26.5 -70t-26.5 -69.5t-69.5 -26.5t-69.5 26.5t-26.5 69.5zM88 190q0 184 279 289q127 47 272 80v78 q0 39 -8 72q-6 27 -33 71q-23 37 -59 58q-41 23 -90 22q-80 0 -115 -18q-51 -25 -51 -60q0 -33 22 -61q37 -45 37 -82q0 -41 -18 -61q-22 -25 -68 -25q-52 0 -86 37q-35 39 -35 90q0 95 80 166q78 70 223 69q88 0 158 -28q68 -29 109 -78q39 -47 61 -113q20 -59 20 -135 v-434q0 -27 14.5 -41t33.5 -14q33 0 49 14q18 14 26 45q9 31 13 62q2 20 2 75q0 47 -6 138h45q6 -61 6 -138q0 -59 -6 -102q-6 -47 -21 -88q-14 -45 -49 -70q-34 -25 -86 -24q-80 0 -123 43q-45 45 -45 129l-4 4q-72 -90 -133 -129q-72 -47 -162 -47q-113 0 -182.5 51 t-69.5 155zM258 213q0 -65 43 -111q43 -47 102 -47q106 0 236 178v283q-147 -33 -252 -92q-129 -74 -129 -211z" />
<glyph unicode="&#xe5;" horiz-adv-x="1030" d="M240 1257q0 100 65.5 166t164 66t164 -65.5t65.5 -166.5q0 -98 -65.5 -163.5t-164 -65.5t-164 65.5t-65.5 163.5zM295 1257q0 -74 49 -122q51 -51 125 -52q72 0 123 51.5t51 122.5q0 74 -51 125q-49 49 -123 50q-71 0 -123 -50q-51 -49 -51 -125zM88 190q0 184 279 289 q127 47 272 80v78q0 39 -8 72q-6 27 -33 71q-23 37 -59 58q-41 23 -90 22q-80 0 -115 -18q-51 -25 -51 -60q0 -33 22 -61q37 -45 37 -82q0 -41 -18 -61q-22 -25 -68 -25q-52 0 -86 37q-35 39 -35 90q0 95 80 166q78 70 223 69q88 0 158 -28q68 -29 109 -78q39 -47 61 -113 q20 -59 20 -135v-434q0 -27 14.5 -41t33.5 -14q33 0 49 14q18 14 26 45q9 31 13 62q2 20 2 75q0 47 -6 138h45q6 -61 6 -138q0 -59 -6 -102q-6 -47 -21 -88q-14 -45 -49 -70q-34 -25 -86 -24q-80 0 -123 43q-45 45 -45 129l-4 4q-72 -90 -133 -129q-72 -47 -162 -47 q-113 0 -182.5 51t-69.5 155zM258 213q0 -65 43 -111q43 -47 102 -47q106 0 236 178v283q-147 -33 -252 -92q-129 -74 -129 -211z" />
<glyph unicode="&#xe6;" horiz-adv-x="1454" d="M59 190q0 184 281 289q127 47 272 80v78q0 31 -10 72q-8 33 -31 71q-23 37 -59 58q-41 23 -92 22q-80 0 -115 -18q-51 -25 -51 -60q0 -31 25 -61q37 -45 36 -82q0 -39 -20 -61q-22 -25 -68 -25q-52 0 -86 37q-33 35 -32 90q0 95 79 166q78 70 222 69q205 0 295 -145 q121 145 319 145q78 0 137.5 -26.5t98.5 -71.5q41 -47 63 -104q27 -68 35 -121q10 -68 10 -123h-598v-18q0 -410 254 -410q76 0 131 27q57 27 92 77q31 45 51 99q18 49 25 106h57q-4 -51 -14 -92q-14 -51 -39 -96q-31 -55 -65 -90q-39 -39 -100.5 -63.5t-137.5 -24.5 q-250 0 -367 217h-6q-137 -217 -340 -217q-111 0 -180 51q-72 53 -72 155zM229 213q0 -65 43 -111q43 -47 105 -47q68 0 131 51q65 52 104 117v293q-147 -33 -252 -92q-131 -76 -131 -211zM772 524h344q47 0 66 23q16 18 16 59q0 47 -8 82q-10 45 -27 80q-20 43 -53 66 q-41 27 -86 26q-229 0 -252 -336z" />
<glyph unicode="&#xe7;" horiz-adv-x="937" d="M84 451q0 201 127 333q125 131 338 131q68 0 110 -16q49 -18 80 -43t54 -59q18 -31 28 -62q8 -27 8 -55q0 -57 -30.5 -94t-85.5 -37q-41 0 -66 22q-27 25 -26 64q0 55 43 98q33 37 32 62q0 6 -4 14t-12 16q-10 10 -25 17q-12 6 -45 12q-29 6 -63 6q-61 0 -113 -22 q-43 -18 -82 -62q-33 -37 -55 -90q-25 -59 -33 -111q-10 -66 -10 -124q0 -410 254 -410q76 0 131 27q57 27 92 77q31 45 51 99q18 49 25 106h57q-2 -39 -12 -84q-8 -37 -33 -90q-23 -49 -55 -84q-41 -45 -84 -67q-53 -29 -115 -37l-47 -105q63 -12 105 -53q43 -43 43 -98 q0 -100 -74 -156q-72 -53 -189 -53q-55 0 -100 26l23 45q39 -20 84 -20q57 0 96 33q41 35 41 94q0 51 -35 82q-31 29 -102 29q-33 0 -48 -2l-12 36q45 29 111 39l47 99q-190 0 -307 131t-117 336z" />
<glyph unicode="&#xe8;" horiz-adv-x="937" d="M218 1393q0 29 20 49t49 20q35 0 64 -24q33 -29 61 -70l205 -283l-31 -28l-270 211q-98 76 -98 125zM84 451q0 201 117 333q117 131 307 131q78 0 137.5 -26.5t97.5 -71.5q41 -47 64 -104q27 -68 35 -121q10 -68 10 -123h-598v-18q0 -410 254 -410q76 0 131 27 q57 27 92 77q31 45 51 99q18 49 25 106h57q-4 -51 -14 -92q-14 -51 -39 -96q-31 -55 -66 -90q-39 -39 -100 -63.5t-137 -24.5q-190 0 -307 131t-117 336zM256 524h344q47 0 66 23q16 18 16 59q0 47 -8 82q-10 45 -27 80q-20 43 -53 66q-41 27 -86 26q-229 0 -252 -336z" />
<glyph unicode="&#xe9;" horiz-adv-x="937" d="M400 1085l205 283q29 41 61 70q28 25 61 24q31 0 52 -20q18 -18 18 -49q0 -49 -96 -125l-271 -211zM84 451q0 201 117 333q117 131 307 131q78 0 137.5 -26.5t97.5 -71.5q41 -47 64 -104q27 -68 35 -121q10 -68 10 -123h-598v-18q0 -410 254 -410q76 0 131 27 q57 27 92 77q31 45 51 99q18 49 25 106h57q-4 -51 -14 -92q-14 -51 -39 -96q-31 -55 -66 -90q-39 -39 -100 -63.5t-137 -24.5q-190 0 -307 131t-117 336zM256 524h344q47 0 66 23q16 18 16 59q0 47 -8 82q-10 45 -27 80q-20 43 -53 66q-41 27 -86 26q-229 0 -252 -336z" />
<glyph unicode="&#xea;" horiz-adv-x="937" d="M174 1096q172 170 302 356h63q125 -180 303 -356l-31 -29l-303 229l-305 -229zM84 451q0 201 117 333q117 131 307 131q78 0 137.5 -26.5t97.5 -71.5q41 -47 64 -104q27 -68 35 -121q10 -68 10 -123h-598v-18q0 -410 254 -410q76 0 131 27q57 27 92 77q31 45 51 99 q18 49 25 106h57q-4 -51 -14 -92q-14 -51 -39 -96q-31 -55 -66 -90q-39 -39 -100 -63.5t-137 -24.5q-190 0 -307 131t-117 336zM256 524h344q47 0 66 23q16 18 16 59q0 47 -8 82q-10 45 -27 80q-20 43 -53 66q-41 27 -86 26q-229 0 -252 -336z" />
<glyph unicode="&#xeb;" horiz-adv-x="937" d="M203 1208q0 43 26.5 70t69.5 27q41 0 68 -27q29 -29 29 -70t-29 -69q-27 -27 -68 -27q-43 0 -69.5 26.5t-26.5 69.5zM621 1208q0 43 26.5 70t69.5 27t69.5 -27t26.5 -70t-26.5 -69.5t-69.5 -26.5t-69.5 26.5t-26.5 69.5zM84 451q0 201 117 333q117 131 307 131 q78 0 137.5 -26.5t97.5 -71.5q41 -47 64 -104q27 -68 35 -121q10 -68 10 -123h-598v-18q0 -410 254 -410q76 0 131 27q57 27 92 77q31 45 51 99q18 49 25 106h57q-4 -51 -14 -92q-14 -51 -39 -96q-31 -55 -66 -90q-39 -39 -100 -63.5t-137 -24.5q-190 0 -307 131t-117 336z M256 524h344q47 0 66 23q16 18 16 59q0 47 -8 82q-10 45 -27 80q-20 43 -53 66q-41 27 -86 26q-229 0 -252 -336z" />
<glyph unicode="&#xec;" horiz-adv-x="616" d="M-2 1393q0 29 20 49t49 20q35 0 64 -24q33 -29 61 -70l205 -283l-31 -28l-270 211q-98 76 -98 125zM80 0v55h125q49 0 49 51v689q0 49 -49 49h-125v55l319 12v-805q0 -51 52 -51h122v-55h-493z" />
<glyph unicode="&#xed;" horiz-adv-x="616" d="M180 1085l205 283q29 41 61 70q28 25 61 24q31 0 52 -20q18 -18 18 -49q0 -49 -96 -125l-271 -211zM80 0v55h125q49 0 49 51v689q0 49 -49 49h-125v55l319 12v-805q0 -51 52 -51h122v-55h-493z" />
<glyph unicode="&#xee;" horiz-adv-x="616" d="M22 1092q119 143 238 360h57q119 -217 238 -360l-29 -25l-238 229l-237 -229zM80 0v55h125q49 0 49 51v689q0 49 -49 49h-125v55l319 12v-805q0 -51 52 -51h122v-55h-493z" />
<glyph unicode="&#xef;" horiz-adv-x="616" d="M4 1208q0 43 26.5 70t69.5 27t69.5 -27t26.5 -70t-26.5 -69.5t-69.5 -26.5t-69.5 26.5t-26.5 69.5zM380 1208q0 43 27 70t70 27q41 0 67 -27q29 -29 29 -70t-29 -69q-27 -27 -67 -27q-43 0 -70 26.5t-27 69.5zM80 0v55h125q49 0 49 51v689q0 49 -49 49h-125v55l319 12 v-805q0 -51 52 -51h122v-55h-493z" />
<glyph unicode="&#xf0;" horiz-adv-x="1048" d="M47 940v176q0 45 31 45q18 0 31 -20q18 -31 26 -58q14 -45 41 -45q18 0 43 13l152 84l-160 198q-8 8 -13 15.5t-8.5 10.5t-7.5 9l-16 31q-8 16 -8 37q0 18 12 26q14 10 33 11h88l213 -265l393 217q34 18 49 19q20 0 21 -31v-205q0 -6 -1 -16t-1 -12q0 -10 -10.5 -20.5 t-26.5 -10.5q-20 0 -33 22q-8 12 -23 66q-18 74 -53 74q-12 0 -47 -19l-231 -129l276 -344q53 -68 80 -117q27 -51 45 -112q15 -52 19 -92q6 -80 6 -88q0 -74 -33 -156q-29 -72 -86 -135.5t-133 -98.5q-80 -37 -170 -36q-88 0 -170 28q-80 27 -144 82q-61 52 -98 135 q-37 82 -37 179q0 100 35 182q37 88 100 153q63 68 136 115q76 51 159 82l-120 150l-289 -160q-37 -20 -49 -21q-21 0 -21 31zM266 414q0 -174 84 -275q84 -98 195 -98q119 0 205 94q84 92 84 234q0 102 -46 202q-43 95 -135 209l-94 117q-131 -68 -213 -192 q-80 -123 -80 -291z" />
<glyph unicode="&#xf1;" horiz-adv-x="1167" d="M195 1092q37 82 96 141q57 57 131 57q78 0 178 -53q96 -53 176 -53q59 0 123 112l39 -24q-37 -84 -94 -142q-59 -59 -131 -59q-82 0 -180 55q-94 51 -177 52q-59 0 -120 -111zM61 0v55h125q49 0 50 51v689q0 49 -50 49h-125v55l322 12v-200l6 -6q135 211 289 210 q88 0 131 -22q63 -31 104 -105q37 -68 37 -143v-539q0 -51 49 -51h125v-55h-493v55h123q51 0 51 51v566q0 82 -37 131t-115 49q-80 0 -174 -113q-49 -59 -96 -155v-478q0 -51 49 -51h123v-55h-494z" />
<glyph unicode="&#xf2;" horiz-adv-x="1015" d="M218 1393q0 29 20 49t49 20q35 0 64 -24q33 -29 61 -70l205 -283l-31 -28l-270 211q-98 76 -98 125zM84 451q0 201 117 333q117 131 307 131t307 -131q117 -133 117 -333q0 -205 -117 -336t-307.5 -131t-307 131t-116.5 336zM254 450.5q0 -409.5 254 -409.5t254 409.5 t-254 409.5t-254 -409.5z" />
<glyph unicode="&#xf3;" horiz-adv-x="1015" d="M400 1085l205 283q29 41 61 70q28 25 61 24q31 0 52 -20q18 -18 18 -49q0 -49 -96 -125l-271 -211zM84 451q0 201 117 333q117 131 307 131t307 -131q117 -133 117 -333q0 -205 -117 -336t-307.5 -131t-307 131t-116.5 336zM254 450.5q0 -409.5 254 -409.5t254 409.5 t-254 409.5t-254 -409.5z" />
<glyph unicode="&#xf4;" horiz-adv-x="1015" d="M174 1096q172 170 302 356h63q125 -180 303 -356l-31 -29l-303 229l-305 -229zM84 451q0 201 117 333q117 131 307 131t307 -131q117 -133 117 -333q0 -205 -117 -336t-307.5 -131t-307 131t-116.5 336zM254 450.5q0 -409.5 254 -409.5t254 409.5t-254 409.5t-254 -409.5 z" />
<glyph unicode="&#xf5;" horiz-adv-x="1015" d="M136 1092q37 82 96 141q57 57 131 57q78 0 178 -53q96 -53 176 -53q59 0 123 112l39 -24q-37 -84 -94 -142q-59 -59 -131 -59q-82 0 -180 55q-94 51 -177 52q-59 0 -120 -111zM84 451q0 201 117 333q117 131 307 131t307 -131q117 -133 117 -333q0 -205 -117 -336 t-307.5 -131t-307 131t-116.5 336zM254 450.5q0 -409.5 254 -409.5t254 409.5t-254 409.5t-254 -409.5z" />
<glyph unicode="&#xf6;" horiz-adv-x="1015" d="M203 1208q0 43 26.5 70t69.5 27q41 0 68 -27q29 -29 29 -70t-29 -69q-27 -27 -68 -27q-43 0 -69.5 26.5t-26.5 69.5zM621 1208q0 43 26.5 70t69.5 27t69.5 -27t26.5 -70t-26.5 -69.5t-69.5 -26.5t-69.5 26.5t-26.5 69.5zM84 451q0 201 117 333q117 131 307 131t307 -131 q117 -133 117 -333q0 -205 -117 -336t-307.5 -131t-307 131t-116.5 336zM254 450.5q0 -409.5 254 -409.5t254 409.5t-254 409.5t-254 -409.5z" />
<glyph unicode="&#xf7;" d="M446 829q0 53 37 90t92 37q53 0 90 -36.5t37 -90.5q0 -55 -37 -92t-90 -37q-55 0 -92 37t-37 92zM61 467v94h1029v-94h-1029zM446 200q0 53 37 90t92 37q53 0 90 -36.5t37 -90.5q0 -55 -37 -92t-90 -37q-55 0 -92 37t-37 92z" />
<glyph unicode="&#xf8;" horiz-adv-x="1015" d="M84 451q0 201 117 333q117 131 307 131q168 0 280 -104l97 104l49 -45l-98 -108q96 -127 96 -311q0 -205 -117 -336t-307 -131q-168 0 -279 102l-94 -102l-49 47l96 106q-98 127 -98 314zM254 451q0 -123 22 -209l439 485q-66 133 -207 133q-254 1 -254 -409zM303 170 q66 -129 205 -129q254 0 254 410q0 115 -23 204z" />
<glyph unicode="&#xf9;" horiz-adv-x="1134" d="M230 1393q0 29 20 49t49 20q35 0 64 -24q33 -29 61 -70l205 -283l-31 -28l-270 211q-98 76 -98 125zM41 844v55l319 12v-684q0 -80 29 -131q28 -49 105 -49q59 0 100 33q49 39 90 90q31 37 59.5 110.5t28.5 131.5v383q0 49 -49 49h-125v55l320 12v-805q0 -51 51 -51h123 v-55h-320v201l-8 6q-51 -96 -127 -158q-82 -66 -162 -65q-86 0 -131 24q-68 33 -98 103q-33 72 -33 143v541q0 49 -49 49h-123z" />
<glyph unicode="&#xfa;" horiz-adv-x="1134" d="M412 1085l205 283q29 41 61 70q28 25 61 24q31 0 52 -20q18 -18 18 -49q0 -49 -96 -125l-271 -211zM41 844v55l319 12v-684q0 -80 29 -131q28 -49 105 -49q59 0 100 33q49 39 90 90q31 37 59.5 110.5t28.5 131.5v383q0 49 -49 49h-125v55l320 12v-805q0 -51 51 -51h123 v-55h-320v201l-8 6q-51 -96 -127 -158q-82 -66 -162 -65q-86 0 -131 24q-68 33 -98 103q-33 72 -33 143v541q0 49 -49 49h-123z" />
<glyph unicode="&#xfb;" horiz-adv-x="1134" d="M186 1096q172 170 302 356h63q125 -180 303 -356l-31 -29l-303 229l-305 -229zM41 844v55l319 12v-684q0 -80 29 -131q28 -49 105 -49q59 0 100 33q49 39 90 90q31 37 59.5 110.5t28.5 131.5v383q0 49 -49 49h-125v55l320 12v-805q0 -51 51 -51h123v-55h-320v201l-8 6 q-51 -96 -127 -158q-82 -66 -162 -65q-86 0 -131 24q-68 33 -98 103q-33 72 -33 143v541q0 49 -49 49h-123z" />
<glyph unicode="&#xfc;" horiz-adv-x="1134" d="M215 1208q0 43 26.5 70t69.5 27q41 0 68 -27q29 -29 29 -70t-29 -69q-27 -27 -68 -27q-43 0 -69.5 26.5t-26.5 69.5zM633 1208q0 43 26.5 70t69.5 27t69.5 -27t26.5 -70t-26.5 -69.5t-69.5 -26.5t-69.5 26.5t-26.5 69.5zM41 844v55l319 12v-684q0 -80 29 -131 q28 -49 105 -49q59 0 100 33q49 39 90 90q31 37 59.5 110.5t28.5 131.5v383q0 49 -49 49h-125v55l320 12v-805q0 -51 51 -51h123v-55h-320v201l-8 6q-51 -96 -127 -158q-82 -66 -162 -65q-86 0 -131 24q-68 33 -98 103q-33 72 -33 143v541q0 49 -49 49h-123z" />
<glyph unicode="&#xfd;" horiz-adv-x="1038" d="M383 1085l205 283q29 41 61 70q28 25 61 24q31 0 52 -20q18 -18 18 -49q0 -49 -96 -125l-271 -211zM6 -375q0 63 37 103q37 41 90 41q45 0 69.5 -31t24.5 -70q0 -37 -18 -61q-16 -23 -41 -33q-27 -10 -27 -20q0 -20 13 -33q18 -16 51 -17q45 0 90 35q39 31 61 88l125 348 l-299 750q-12 33 -14 37q-8 14 -18 29q-12 14 -27 26q-27 20 -45 23q-29 4 -62 4v55h451v-55h-84q-31 0 -45 -10q-18 -12 -19 -31q0 -33 11 -55l225 -572l184 510q14 39 15 90q0 27 -18.5 47.5t-45.5 20.5h-115v55h429v-55q-47 0 -64 -4q-23 -6 -47 -25q-51 -41 -70 -92 l-405 -1104q-66 -172 -230 -172q-74 0 -129 51q-53 49 -53 127z" />
<glyph unicode="&#xfe;" horiz-adv-x="1019" d="M43 1219v55l297 82h25v-598l8 -4q131 162 262 161q137 0 217 -92t80 -233q0 -100 -33 -187q-35 -94 -86 -161q-49 -66 -129 -133q-68 -57 -154 -109q-63 -39 -165 -84v-307l-273 -168l-31 47l125 78q31 20 31 84v1499q0 70 -70 70h-104zM365 -27q123 61 213 146 q86 80 135 196.5t49 262.5q0 111 -43 188.5t-115 77.5q-63 0 -121 -47q-51 -43 -118 -140v-684z" />
<glyph unicode="&#xff;" horiz-adv-x="1038" d="M186 1208q0 43 26.5 70t69.5 27q41 0 68 -27q29 -29 29 -70t-29 -69q-27 -27 -68 -27q-43 0 -69.5 26.5t-26.5 69.5zM604 1208q0 43 26.5 70t69.5 27t69.5 -27t26.5 -70t-26.5 -69.5t-69.5 -26.5t-69.5 26.5t-26.5 69.5zM6 -375q0 63 37 103q37 41 90 41q45 0 69.5 -31 t24.5 -70q0 -37 -18 -61q-16 -23 -41 -33q-27 -10 -27 -20q0 -20 13 -33q18 -16 51 -17q45 0 90 35q39 31 61 88l125 348l-299 750q-12 33 -14 37q-8 14 -18 29q-12 14 -27 26q-27 20 -45 23q-29 4 -62 4v55h451v-55h-84q-31 0 -45 -10q-18 -12 -19 -31q0 -33 11 -55 l225 -572l184 510q14 39 15 90q0 27 -18.5 47.5t-45.5 20.5h-115v55h429v-55q-47 0 -64 -4q-23 -6 -47 -25q-51 -41 -70 -92l-405 -1104q-66 -172 -230 -172q-74 0 -129 51q-53 49 -53 127z" />
<glyph unicode="&#x131;" horiz-adv-x="616" d="M80 0v55h125q49 0 49 51v689q0 49 -49 49h-125v55l319 12v-805q0 -51 52 -51h122v-55h-493z" />
<glyph unicode="&#x152;" horiz-adv-x="2379" d="M143 729q0 358 228 586q82 82 190 127q113 47 236 47q53 0 139 -16q61 -12 133 -13h1032l21 -571h-58q-6 92 -36 203q-31 115 -82 176q-57 72 -107 98q-55 31 -133 31h-365v-606h183q61 0 112 92q51 90 52 231h59v-713h-59q0 141 -52 232q-51 92 -112 92h-183v-662h324 q100 0 176 35q72 33 131 115q45 63 70 141q27 88 47 224h59l-8 -578h-1071q-72 0 -133 -12q-86 -16 -139 -17q-123 0 -236 47q-109 45 -190 127q-228 228 -228 584zM369 729q0 -377 137 -551q63 -80 133 -112q63 -29 157.5 -29t157.5 29q68 31 131 112q14 16 33 49 q16 27 27 74q12 51 12 119v618q0 152 -72 242q-63 82 -130.5 112.5t-157.5 30.5t-158 -30q-70 -33 -133 -113q-137 -174 -137 -551z" />
<glyph unicode="&#x153;" horiz-adv-x="1693" d="M84 451q0 201 117 333q117 131 307 131q113 0 197 -45q90 -49 143 -125q53 78 141 125q84 45 197 45q78 0 137 -26.5t98 -71.5q41 -47 64 -104q27 -68 35 -121q10 -68 10 -123h-598v-18q0 -410 254 -410q78 0 133 26.5t90 77.5q31 45 51 99q18 49 25 106h57 q-4 -51 -14 -92q-14 -51 -39 -96q-31 -55 -66 -90q-39 -39 -100 -63.5t-137 -24.5q-113 0 -197 45t-141 127q-55 -80 -143 -127q-84 -45 -197 -45q-190 0 -307 131t-117 336zM254 450.5q0 -409.5 254 -409.5t254 409.5t-254 409.5t-254 -409.5zM934 524h346q45 0 63 23 q16 18 17 59q0 47 -8 82q-10 45 -27 80q-20 43 -53 66q-39 27 -86 26q-229 0 -252 -336z" />
<glyph unicode="&#x178;" horiz-adv-x="1658" d="M520 1747q0 35 25 59.5t61.5 24.5t61.5 -25q27 -27 27 -59.5t-27 -63.5q-25 -27 -61.5 -26.5t-61.5 26.5q-25 29 -25 64zM1018 1747q0 35 24.5 59.5t61.5 24.5t62 -25q27 -27 26.5 -59.5t-26.5 -63.5q-25 -27 -62 -26.5t-61 26.5q-25 29 -25 64zM88 1397v63h694v-63h-143 q-35 0 -55.5 -20.5t-20.5 -53.5q0 -29 19 -55l311 -512l293 448q49 74 49 129q0 47 -47 58q-25 6 -117 6h-94v63h635v-63q-84 0 -137.5 -12.5t-77.5 -30.5q-23 -16 -49 -54l-418 -626v-531q0 -80 78 -80h172v-63h-684v63h172q78 0 77 80v521l-385 614q-29 45 -73 78 q-53 41 -113 41h-86z" />
<glyph unicode="&#x237;" horiz-adv-x="651" d="M-96 -358q0 53 36.5 96t86.5 43q41 0 65 -27q27 -31 27 -63q0 -55 -47 -86q-16 -10 -22.5 -20.5t-6.5 -20.5q0 -27 22.5 -43.5t55.5 -16.5q90 0 135 64q47 66 47 225v1002q0 49 -49 49h-125v55l322 12v-1087q0 -57 -21 -129q-20 -68 -57 -121q-43 -59 -109 -92 q-70 -35 -153 -35q-82 0 -146 57q-61 56 -61 138z" />
<glyph unicode="&#x2c6;" horiz-adv-x="878" d="M106 1096q172 170 302 356h63q125 -180 303 -356l-31 -29l-303 229l-305 -229z" />
<glyph unicode="&#x2d9;" horiz-adv-x="878" d="M315 1206q0 51 37 88q35 35 88.5 35t88 -34.5t34.5 -88t-35 -88.5q-37 -37 -88 -37t-88 37t-37 88z" />
<glyph unicode="&#x2da;" horiz-adv-x="878" d="M211 1257q0 100 65.5 166t164 66t164 -65.5t65.5 -166.5q0 -98 -65.5 -163.5t-164 -65.5t-164 65.5t-65.5 163.5zM266 1257q0 -74 49 -122q51 -51 125 -52q72 0 123 51.5t51 122.5q0 74 -51 125q-49 49 -123 50q-71 0 -123 -50q-51 -49 -51 -125z" />
<glyph unicode="&#x2dc;" horiz-adv-x="878" d="M68 1092q37 82 96 141q57 57 131 57q78 0 178 -53q96 -53 176 -53q59 0 123 112l39 -24q-37 -84 -94 -142q-59 -59 -131 -59q-82 0 -180 55q-94 51 -177 52q-59 0 -120 -111z" />
<glyph unicode="&#x3bc;" horiz-adv-x="1163" d="M-68 -418q0 29 25 119l309 1122l144 11l-109 -408q-10 -45 -16 -86q-6 -49 -6 -66q0 -90 38 -147q41 -59 101 -59q53 0 94 24q39 23 76 74q23 29 49 94q25 59 37 109l125 454l143 11l-111 -418q-37 -141 -36 -199q0 -49 24 -84q25 -33 70 -33q47 0 78 25q33 27 57 72 q29 47 55 131l41 -13q-33 -147 -96 -235q-35 -47 -80 -72q-46 -25 -92 -24q-66 0 -113 45q-49 47 -67 118l-15 5q-41 -74 -102 -119q-68 -49 -152 -49q-68 0 -112 43q-43 41 -68 98h-10l-125 -457q-8 -31 -22 -74q-10 -33 -29 -55q-20 -27 -47 -26q-58 -1 -58 69z" />
<glyph unicode="&#x2000;" horiz-adv-x="980" />
<glyph unicode="&#x2001;" horiz-adv-x="1961" />
<glyph unicode="&#x2002;" horiz-adv-x="980" />
<glyph unicode="&#x2003;" horiz-adv-x="1961" />
<glyph unicode="&#x2004;" horiz-adv-x="653" />
<glyph unicode="&#x2005;" horiz-adv-x="489" />
<glyph unicode="&#x2006;" horiz-adv-x="325" />
<glyph unicode="&#x2007;" horiz-adv-x="325" />
<glyph unicode="&#x2008;" horiz-adv-x="243" />
<glyph unicode="&#x2009;" horiz-adv-x="391" />
<glyph unicode="&#x200a;" horiz-adv-x="108" />
<glyph unicode="&#x2010;" horiz-adv-x="899" d="M135 346v131h629v-131h-629z" />
<glyph unicode="&#x2011;" horiz-adv-x="899" d="M135 346v131h629v-131h-629z" />
<glyph unicode="&#x2012;" horiz-adv-x="899" d="M135 346v131h629v-131h-629z" />
<glyph unicode="&#x2013;" horiz-adv-x="1054" d="M12 373v96h1032v-96h-1032z" />
<glyph unicode="&#x2014;" horiz-adv-x="2095" d="M12 373v96h2073v-96h-2073z" />
<glyph unicode="&#x2018;" horiz-adv-x="526" d="M115 1071q0 55 10 94q12 49 39 101q23 45 88 110q49 49 147 113l27 -43q-88 -47 -168 -133q-76 -82 -76 -172q0 -37 31 -37q8 0 31 12q22 12 37 12q43 0 79 -26q35 -25 35 -88q0 -47 -37 -82q-35 -33 -82 -33q-72 0 -114 47q-47 47 -47 125z" />
<glyph unicode="&#x2019;" horiz-adv-x="526" d="M102 942q88 47 168 133q76 82 76 172q0 37 -31 37q-8 0 -30 -12t-37 -12q-43 0 -80 26q-35 25 -35 88q0 47 37 82q35 33 82 33q72 0 115 -47q47 -47 47 -125q0 -55 -10.5 -94t-41.5 -101q-25 -49 -86 -110q-49 -49 -147 -113z" />
<glyph unicode="&#x201a;" horiz-adv-x="526" d="M102 -299q88 47 168 133q76 82 76 172q0 37 -31 37q-8 0 -30 -12t-37 -12q-43 0 -80 26q-35 25 -35 88q0 47 37 82q35 33 82 33q72 0 115 -47q47 -47 47 -125q0 -55 -10.5 -94t-41.5 -101q-25 -49 -86 -110q-49 -49 -147 -113z" />
<glyph unicode="&#x201c;" horiz-adv-x="923" d="M510 1071q0 55 10 94q12 49 39 101q23 45 88 110q49 49 147 113l27 -43q-88 -47 -168 -133q-76 -82 -76 -172q0 -37 31 -37q8 0 31 12q22 12 37 12q43 0 79 -26q35 -25 35 -88q0 -47 -37 -82q-35 -33 -82 -33q-72 0 -114 47q-47 47 -47 125zM115 1071q0 55 10 94 q12 49 39 101q23 45 88 110q49 49 147 113l27 -43q-88 -47 -168 -133q-76 -82 -76 -172q0 -37 31 -37q8 0 31 12q22 12 37 12q43 0 79 -26q35 -25 35 -88q0 -47 -37 -82q-35 -33 -82 -33q-72 0 -114 47q-47 47 -47 125z" />
<glyph unicode="&#x201d;" horiz-adv-x="923" d="M497 942q88 47 168 133q76 82 76 172q0 37 -31 37q-8 0 -30 -12t-37 -12q-43 0 -80 26q-35 25 -35 88q0 47 37 82q35 33 82 33q72 0 115 -47q47 -47 47 -125q0 -55 -10.5 -94t-41.5 -101q-25 -49 -86 -110q-49 -49 -147 -113zM102 942q88 47 168 133q76 82 76 172 q0 37 -31 37q-8 0 -30 -12t-37 -12q-43 0 -80 26q-35 25 -35 88q0 47 37 82q35 33 82 33q72 0 115 -47q47 -47 47 -125q0 -55 -10.5 -94t-41.5 -101q-25 -49 -86 -110q-49 -49 -147 -113z" />
<glyph unicode="&#x201e;" horiz-adv-x="923" d="M497 -299q88 47 168 133q76 82 76 172q0 37 -31 37q-8 0 -30 -12t-37 -12q-43 0 -80 26q-35 25 -35 88q0 47 37 82q35 33 82 33q72 0 115 -47q47 -47 47 -125q0 -55 -10.5 -94t-41.5 -101q-25 -49 -86 -110q-49 -49 -147 -113zM102 -299q88 47 168 133q76 82 76 172 q0 37 -31 37q-8 0 -30 -12t-37 -12q-43 0 -80 26q-35 25 -35 88q0 47 37 82q35 33 82 33q72 0 115 -47q47 -47 47 -125q0 -55 -10.5 -94t-41.5 -101q-25 -49 -86 -110q-49 -49 -147 -113z" />
<glyph unicode="&#x2022;" horiz-adv-x="1103" d="M324 688q0 98 65 164q63 63 164 63q98 0 162 -63q66 -66 65.5 -164t-65.5 -164q-63 -63 -162 -63q-100 0 -164 63q-65 66 -65 164z" />
<glyph unicode="&#x2026;" horiz-adv-x="1583" d="M1192 104q0 53 37 90t92 37q53 0 90 -36.5t37 -90.5q0 -55 -37 -92t-90 -37q-55 0 -92 37t-37 92zM663 104q0 53 37 90t92 37q53 0 90 -36.5t37 -90.5q0 -55 -37 -92t-90 -37q-55 0 -92 37t-37 92zM135 104q0 53 37 90t92 37q53 0 90 -36.5t37 -90.5q0 -55 -37 -92 t-90 -37q-55 0 -92 37t-37 92z" />
<glyph unicode="&#x202f;" horiz-adv-x="391" />
<glyph unicode="&#x2039;" horiz-adv-x="645" d="M182 420l334 377l35 -27l-217 -350l217 -350l-35 -27z" />
<glyph unicode="&#x203a;" horiz-adv-x="645" d="M96 70l215 350l-215 350l33 27l336 -377l-336 -377z" />
<glyph unicode="&#x2044;" horiz-adv-x="219" d="M-383 -16l897 1493h88l-899 -1493h-86z" />
<glyph unicode="&#x205f;" horiz-adv-x="489" />
<glyph unicode="&#x2074;" horiz-adv-x="659" d="M43 870v43l360 560h72v-560h119v-43h-119v-118q0 -51 47 -52h72v-45h-352v45h71q47 0 47 52v118h-317zM109 913h251v394z" />
<glyph unicode="&#x20ac;" horiz-adv-x="1599" d="M111 807l16 111h197q55 258 245 413q193 158 430 158q144 0 265 -55q125 -57 198 -129l-41 -119q-109 100 -202 143q-100 47 -220 47q-197 0 -344 -129q-145 -127 -198 -329h870l-37 -111h-854q-4 -45 -4 -78q0 -31 4 -76h801l-39 -110h-741q53 -203 198 -330 q147 -129 344 -129q229 0 428 190v-139q-82 -74 -188 -119t-240 -45q-238 0 -430 158q-190 156 -245 414h-205l16 110h172q-4 49 -4 76q0 29 4 78h-196z" />
<glyph unicode="&#x2122;" horiz-adv-x="2263" d="M80 1057l6 403h768l4 -403h-45q-12 152 -49 235q-49 113 -172 113q-18 0 -37 -14q-12 -10 -12 -37v-688q0 -49 49 -50h125v-57h-496v57h125q49 0 49 50v688q0 27 -12 37q-18 14 -37 14q-123 0 -172 -113q-37 -84 -49 -235h-45zM983 559v57h104q72 0 72 74v666 q0 49 -49 49h-127v55h365l239 -633l262 633h334v-55h-123q-51 0 -51 -51v-688q0 -49 51 -50h123v-57h-493v57h125q49 0 49 50v647l-305 -731h-31l-285 745h-10v-637q0 -74 72 -74h104v-57h-426z" />
<glyph unicode="&#x2212;" d="M61 467v94h1029v-94h-1029z" />
<glyph unicode="&#xe000;" horiz-adv-x="900" d="M0 900h900v-900h-900v900z" />
<glyph unicode="&#xeb72;" horiz-adv-x="878" d="M174 1092q119 143 238 360h57q119 -217 238 -360l-29 -25l-238 229l-237 -229z" />
<glyph unicode="&#xeb74;" horiz-adv-x="878" d="M156 1208q0 43 26.5 70t69.5 27t69.5 -27t26.5 -70t-26.5 -69.5t-69.5 -26.5t-69.5 26.5t-26.5 69.5zM532 1208q0 43 27 70t70 27q41 0 67 -27q29 -29 29 -70t-29 -69q-27 -27 -67 -27q-43 0 -70 26.5t-27 69.5z" />
<glyph unicode="&#xeff3;" horiz-adv-x="878" d="M174 1761q0 90 76 148q74 55 190.5 55t190.5 -55q76 -57 76 -148q0 -88 -76 -145q-74 -55 -190.5 -55t-190.5 55q-76 57 -76 145zM238 1761q0 -57 55 -98q53 -39 147.5 -39t147.5 39t53 98q0 61 -53 100.5t-147.5 39.5t-147.5 -39q-55 -40 -55 -101z" />
<glyph unicode="&#xeff5;" horiz-adv-x="878" d="M25 1667q45 78 106 125q66 49 145 49q90 0 201 -47q12 -6 33.5 -13t28.5 -9q20 -8 59 -19q25 -6 78 -6q31 0 55 16q31 20 43 35q15 18 37 49l45 -22q-45 -76 -108.5 -125t-143.5 -49q-102 0 -203 47q-108 49 -196 49q-28 0 -55 -18q-31 -20 -44 -35q-15 -18 -36 -49z" />
<glyph unicode="&#xeff7;" horiz-adv-x="878" d="M84 1614q217 164 324 299h63q102 -131 326 -299l-23 -35l-334 188l-334 -188z" />
<glyph unicode="&#xf6c9;" horiz-adv-x="878" d="M291 1610l256 237q70 66 129 66q27 0 45 -23q16 -18 16 -49q0 -59 -110 -112l-316 -150z" />
<glyph unicode="&#xf6cb;" horiz-adv-x="878" d="M104 1747q0 35 25 59.5t61.5 24.5t61.5 -25q27 -27 27 -59.5t-27 -63.5q-25 -27 -61.5 -26.5t-61.5 26.5q-25 29 -25 64zM602 1747q0 35 24.5 59.5t61.5 24.5t62 -25q27 -27 26.5 -59.5t-26.5 -63.5q-25 -27 -62 -26.5t-61 26.5q-25 29 -25 64z" />
<glyph unicode="&#xf6ce;" horiz-adv-x="878" d="M141 1841q0 27 18.5 49.5t45.5 22.5q59 0 129 -66l256 -237l-23 -31l-313 150q-113 53 -113 112z" />
<glyph unicode="&#xfb01;" horiz-adv-x="1163" d="M61 0v55h125q49 0 50 51v738h-175v55h175v133q0 135 59 242q57 102 160 160q98 55 219 55q133 0 203 -62q72 -61 71 -149q0 -61 -35 -98q-37 -39 -88 -39q-41 0 -65 26q-27 31 -27 64q0 45 41 86q29 25 29 49q0 20 -14.5 34.5t-36.5 20.5q-12 4 -45 9q-14 2 -45 2 q-39 0 -72 -9q-29 -8 -74 -34q-39 -25 -67 -66q-31 -43 -48 -102q-18 -65 -18 -148v-174h244l319 12v-805q0 -51 49 -51h125v-55h-493v55h123q51 0 51 51v689q0 49 -51 49h-367v-738q0 -51 49 -51h123v-55h-494z" />
<glyph unicode="&#xfb02;" horiz-adv-x="1163" d="M61 0v55h125q49 0 50 51v738h-175v55h175v133q0 135 59 242q57 102 160 160q98 55 219 55q55 0 104 -14q41 -12 64 -13h104v-184v-1172q0 -51 49 -51h125v-55h-493v55h123q51 0 51 51v689q0 49 -51 49h-367v-738q0 -51 49 -51h123v-55h-494zM383 899h416v244 q-31 10 -49 33q-18 25 -19 55q0 23 10 43q6 12 29 39q29 33 29 53q0 16 -15 35q-10 14 -34 20q-14 4 -43 9q-14 2 -45 2q-39 0 -72 -9q-29 -8 -74 -34q-39 -25 -67 -66q-31 -43 -48 -102q-18 -65 -18 -148v-174z" />
<glyph unicode="&#xfb03;" horiz-adv-x="1726" d="M61 0v55h125q49 0 50 51v738h-175v55h175v135q0 205 106.5 330t286.5 125q100 0 165.5 -59.5t67.5 -139.5l6 -2q59 96 156 148q100 53 213 53q131 0 202.5 -61.5t71.5 -149.5q0 -61 -34 -98q-37 -39 -86 -39q-43 0 -68 26q-25 29 -25 64q0 45 41 86q27 25 27 49 q0 20 -14.5 34.5t-36.5 20.5q-12 4 -45 9q-14 2 -43 2q-39 0 -72 -9q-29 -8 -74 -34q-39 -25 -67 -66q-35 -49 -49 -102q-18 -65 -19 -148v-174h244l319 12v-805q0 -51 52 -51h122v-55h-493v55h125q49 0 49 51v689q0 49 -49 49h-369v-738q0 -51 49 -51h125v-55h-493v55h123 q51 0 51 51v738h-418v-738q0 -51 49 -51h123v-55h-494zM383 899h418v133q0 76 12 125l-2 6q-33 -23 -70 -22q-41 0 -65 26q-27 31 -27 64q0 45 41 86q29 25 29 49q0 35 -31 49q-33 16 -72 17q-47 0 -88 -18.5t-73 -57.5q-35 -41 -53.5 -115t-18.5 -176v-166z" />
<glyph unicode="&#xfb04;" horiz-adv-x="1726" d="M61 0v55h125q49 0 50 51v738h-175v55h175v135q0 205 106.5 330t286.5 125q100 0 165.5 -59.5t67.5 -139.5l6 -2q59 96 156 148q100 53 213 53q53 0 104 -14q39 -12 64 -13h104v-184v-1172q0 -51 52 -51h122v-55h-493v55h125q49 0 49 51v689q0 49 -49 49h-369v-738 q0 -51 49 -51h125v-55h-493v55h123q51 0 51 51v738h-418v-738q0 -51 49 -51h123v-55h-494zM383 899h418v133q0 76 12 125l-2 6q-33 -23 -70 -22q-41 0 -65 26q-27 31 -27 64q0 45 41 86q29 25 29 49q0 35 -31 49q-33 16 -72 17q-47 0 -88 -18.5t-73 -57.5 q-35 -41 -53.5 -115t-18.5 -176v-166zM946 899h416v244q-29 8 -47.5 32.5t-18.5 55.5q0 27 9 43q6 12 28 39q29 33 29 53q0 16 -14 35q-10 14 -35 20q-14 4 -43 9q-14 2 -43 2q-39 0 -72 -9q-29 -8 -74 -34q-39 -25 -67 -66q-35 -49 -49 -102q-18 -65 -19 -148v-174z" />
</font>
</defs>
</svg>
